<svg width="0" height="0" fill="none" style="visibility: hidden; position: absolute;" aria-hidden="true">
    <symbol id="cash-icon" viewBox="0 0 20 24" xmlns="http://www.w3.org/2000/svg">
        <path fill-rule="evenodd" clip-rule="evenodd"
            d="M3.25 3.6001C2.65326 3.6001 2.08097 3.8951 1.65901 4.4202C1.23705 4.9453 1 5.65749 1 6.4001V12.0001C1 12.7427 1.23705 13.4549 1.65901 13.98C2.08097 14.5051 2.65326 14.8001 3.25 14.8001V6.4001H14.5C14.5 5.65749 14.2629 4.9453 13.841 4.4202C13.419 3.8951 12.8467 3.6001 12.25 3.6001H3.25ZM5.5 12.0001C5.5 11.2575 5.73705 10.5453 6.15901 10.0202C6.58097 9.4951 7.15326 9.2001 7.75 9.2001H16.75C17.3467 9.2001 17.919 9.4951 18.341 10.0202C18.7629 10.5453 19 11.2575 19 12.0001V17.6001C19 18.3427 18.7629 19.0549 18.341 19.58C17.919 20.1051 17.3467 20.4001 16.75 20.4001H7.75C7.15326 20.4001 6.58097 20.1051 6.15901 19.58C5.73705 19.0549 5.5 18.3427 5.5 17.6001V12.0001ZM12.25 17.6001C12.8467 17.6001 13.419 17.3051 13.841 16.78C14.2629 16.2549 14.5 15.5427 14.5 14.8001C14.5 14.0575 14.2629 13.3453 13.841 12.8202C13.419 12.2951 12.8467 12.0001 12.25 12.0001C11.6533 12.0001 11.081 12.2951 10.659 12.8202C10.2371 13.3453 10 14.0575 10 14.8001C10 15.5427 10.2371 16.2549 10.659 16.78C11.081 17.3051 11.6533 17.6001 12.25 17.6001Z" />
    </symbol>
    <symbol id="razer-pay-icon" viewBox="0 0 24 24" xmlns="http://www.w3.org/2000/svg">
        <path
            d="M22.4365 0L10.5265 7.773L9.35245 12.049L15.9775 7.752L11.6505 24H16.0415L22.4365 0ZM14.2605 10.098L3.38945 17.166L1.56445 24H10.5725L14.2605 10.098Z" />
    </symbol>
    <symbol id="stripe-icon" viewBox="0 0 24 24" xmlns="http://www.w3.org/2000/svg">
        <g clip-path="url(#clip0_132_1971__stripe-icon)">
            <path
                d="M6.18741 7.82606L4.56366 8.17106L4.55616 13.5111C4.55616 14.4973 5.29866 15.1348 6.28491 15.1348C6.83241 15.1348 7.23366 15.0336 7.45491 14.9136V13.6461C7.24116 13.7323 6.19116 14.0398 6.19116 13.0573V10.6873H7.45491V9.2698H6.19116L6.18741 7.82606ZM9.52866 9.76106L9.42741 9.2698H7.98741V15.0148H9.64866V11.1486C10.0424 10.6311 10.7062 10.7323 10.9199 10.7998V9.2698C10.6949 9.19105 9.91866 9.04481 9.52866 9.76106ZM12.9899 7.0498L11.3174 7.40606V8.76356L12.9899 8.40731V7.0498ZM1.68366 10.9611C1.68366 10.7023 1.90116 10.6011 2.24991 10.5973C2.75616 10.5973 3.40116 10.7511 3.90741 11.0248V9.4573C3.38051 9.25174 2.81922 9.14864 2.25366 9.15356C0.903662 9.15356 0.00366211 9.85856 0.00366211 11.0361C0.00366211 12.8811 2.53491 12.5811 2.53491 13.3761C2.53491 13.6836 2.26866 13.7848 1.89741 13.7848C1.34616 13.7848 0.633662 13.5561 0.0749121 13.2523V14.7523C0.693662 15.0186 1.31991 15.1311 1.89366 15.1311C3.27741 15.1311 4.22991 14.5386 4.22991 13.3386C4.22991 11.3548 1.68366 11.7111 1.68366 10.9611ZM23.9999 12.2098C23.9999 10.5036 23.1749 9.15731 21.5924 9.15731C20.0099 9.15731 19.0462 10.5036 19.0462 12.1986C19.0462 14.2048 20.1824 15.1311 21.8024 15.1311C22.5974 15.1311 23.1937 14.9511 23.6474 14.6998V13.4473C23.1937 13.6761 22.6724 13.8148 22.0124 13.8148C21.3637 13.8148 20.7937 13.5861 20.7187 12.8061H23.9774C23.9849 12.7198 23.9999 12.3711 23.9999 12.2098ZM20.7037 11.5798C20.7037 10.8298 21.1649 10.5148 21.5812 10.5148C21.9899 10.5148 22.4249 10.8298 22.4249 11.5798H20.7037ZM16.4699 9.15731C15.8174 9.15731 15.3974 9.4648 15.1649 9.67855L15.0787 9.26605H13.6124V16.9461L15.2774 16.5936L15.2812 14.7111C15.5212 14.8873 15.8774 15.1311 16.4587 15.1311C17.6512 15.1311 18.7387 14.2611 18.7387 12.1461C18.7424 10.2111 17.6399 9.15731 16.4699 9.15731ZM16.0724 13.7511C15.6824 13.7511 15.4499 13.6086 15.2887 13.4361L15.2774 10.9611C15.4499 10.7698 15.6899 10.6311 16.0724 10.6311C16.6799 10.6311 17.0999 11.3136 17.0999 12.1836C17.1037 13.0798 16.6912 13.7511 16.0724 13.7511ZM11.3212 15.0148H12.9937V9.2698H11.3212V15.0148Z" />
        </g>
        <defs>
            <clipPath id="clip0_132_1971__stripe-icon">
                <rect width="24" height="24" fill="white" />
            </clipPath>
        </defs>
    </symbol>
    <symbol id="visa-icon" viewBox="0 0 24 24" xmlns="http://www.w3.org/2000/svg">
        <path
            d="M9.112 8.26202L5.97 15.758H3.92L2.374 9.77502C2.28 9.40702 2.199 9.27202 1.913 9.11702C1.447 8.86402 0.677 8.62702 0 8.47902L0.046 8.26202H3.346C3.56165 8.26181 3.77027 8.33869 3.93421 8.47879C4.09815 8.61889 4.2066 8.81298 4.24 9.02602L5.057 13.364L7.075 8.26202H9.112ZM17.145 13.311C17.153 11.332 14.409 11.223 14.428 10.339C14.434 10.07 14.69 9.78402 15.25 9.71102C15.9063 9.64869 16.5672 9.76478 17.163 10.047L17.503 8.45702C16.923 8.23897 16.3087 8.1262 15.689 8.12402C13.772 8.12402 12.423 9.14402 12.411 10.603C12.399 11.682 13.374 12.283 14.109 12.643C14.865 13.01 15.119 13.246 15.115 13.574C15.11 14.078 14.513 14.299 13.955 14.308C12.98 14.323 12.415 14.045 11.963 13.835L11.612 15.477C12.065 15.685 12.901 15.867 13.768 15.875C15.805 15.875 17.138 14.869 17.145 13.311ZM22.206 15.758H24L22.435 8.26202H20.779C20.6021 8.26038 20.4287 8.31194 20.2814 8.41001C20.1341 8.50808 20.0197 8.64814 19.953 8.81202L17.044 15.758H19.08L19.485 14.638H21.973L22.206 15.758ZM20.043 13.102L21.063 10.287L21.651 13.102H20.043ZM11.883 8.26202L10.28 15.758H8.34L9.945 8.26202H11.883Z" />
    </symbol>
    <symbol id="wallet-icon" viewBox="0 0 24 24" xmlns="http://www.w3.org/2000/svg">
        <path fill-rule="evenodd" clip-rule="evenodd"
            d="M21.1006 8.004C21.0456 8 20.9846 8 20.9206 8H18.3956C16.3276 8 14.5586 9.628 14.5586 11.75C14.5586 13.872 16.3286 15.5 18.3956 15.5H20.9206C20.9846 15.5 21.0456 15.5 21.1026 15.496C21.5276 15.4704 21.9288 15.2911 22.2315 14.9916C22.5341 14.6921 22.7176 14.2927 22.7476 13.868C22.7516 13.808 22.7516 13.743 22.7516 13.683V9.817C22.7516 9.757 22.7516 9.692 22.7476 9.632C22.7176 9.20726 22.5341 8.80793 22.2315 8.50842C21.9288 8.2089 21.5276 8.02963 21.1026 8.004H21.1006ZM18.1726 12.75C18.7046 12.75 19.1356 12.302 19.1356 11.75C19.1356 11.198 18.7046 10.75 18.1726 10.75C17.6396 10.75 17.2086 11.198 17.2086 11.75C17.2086 12.302 17.6396 12.75 18.1726 12.75Z" />
        <path fill-rule="evenodd" clip-rule="evenodd"
            d="M20.918 17C20.9526 16.9986 20.987 17.0054 21.0184 17.0198C21.0499 17.0342 21.0775 17.0558 21.099 17.0829C21.1206 17.11 21.1354 17.1418 21.1424 17.1757C21.1493 17.2096 21.1481 17.2446 21.139 17.278C20.939 17.99 20.62 18.598 20.109 19.108C19.36 19.858 18.411 20.189 17.239 20.347C16.099 20.5 14.644 20.5 12.806 20.5H10.694C8.856 20.5 7.4 20.5 6.261 20.347C5.089 20.189 4.14 19.857 3.391 19.109C2.643 18.36 2.311 17.411 2.153 16.239C2 15.099 2 13.644 2 11.806V11.694C2 9.856 2 8.4 2.153 7.26C2.311 6.088 2.643 5.139 3.391 4.39C4.14 3.642 5.089 3.31 6.261 3.152C7.401 3 8.856 3 10.694 3H12.806C14.644 3 16.1 3 17.239 3.153C18.411 3.311 19.36 3.643 20.109 4.391C20.62 4.903 20.939 5.51 21.139 6.222C21.1481 6.25537 21.1493 6.29042 21.1424 6.32432C21.1354 6.35822 21.1206 6.39 21.099 6.41708C21.0775 6.44417 21.0499 6.46579 21.0184 6.4802C20.987 6.4946 20.9526 6.50139 20.918 6.5H18.394C15.557 6.5 13.057 8.74 13.057 11.75C13.057 14.76 15.557 17 18.394 17H20.918ZM5.75 7C5.55109 7 5.36032 7.07902 5.21967 7.21967C5.07902 7.36032 5 7.55109 5 7.75C5 7.94891 5.07902 8.13968 5.21967 8.28033C5.36032 8.42098 5.55109 8.5 5.75 8.5H9.75C9.94891 8.5 10.1397 8.42098 10.2803 8.28033C10.421 8.13968 10.5 7.94891 10.5 7.75C10.5 7.55109 10.421 7.36032 10.2803 7.21967C10.1397 7.07902 9.94891 7 9.75 7H5.75Z" />
    </symbol>
</svg>