<svg width="1520" height="406" viewBox="0 0 1520 406" fill="none" xmlns="http://www.w3.org/2000/svg">
<path d="M0 173.982C0 138.455 0 120.692 10.8108 109.154C21.6217 97.6158 39.3475 96.461 74.7992 94.1514L1434.8 5.55062C1474.73 2.94908 1494.7 1.64831 1507.35 13.5015C1520 25.3547 1520 45.3636 1520 85.3814V326C1520 363.712 1520 382.569 1508.28 394.284C1496.57 406 1477.71 406 1440 406H80C42.2876 406 23.4315 406 11.7157 394.284C0 382.569 0 363.712 0 326V173.982Z" fill="#5465FF"/>
<mask id="mask0_455_253" style="mask-type:alpha" maskUnits="userSpaceOnUse" x="0" y="3" width="1520" height="403">
<path d="M0 173.982C0 138.455 0 120.692 10.8108 109.154C21.6217 97.6158 39.3475 96.461 74.7992 94.1514L1434.8 5.55062C1474.73 2.94908 1494.7 1.64831 1507.35 13.5015C1520 25.3547 1520 45.3636 1520 85.3814V326C1520 363.712 1520 382.569 1508.28 394.284C1496.57 406 1477.71 406 1440 406H80C42.2876 406 23.4315 406 11.7157 394.284C0 382.569 0 363.712 0 326V173.982Z" fill="#5465FF"/>
</mask>
<g mask="url(#mask0_455_253)">
<path d="M537 316C537 438.607 437.607 538 315 538C192.393 538 93 438.607 93 316C93 193.393 192.393 94 315 94C437.607 94 537 193.393 537 316ZM130.075 316C130.075 418.131 212.869 500.925 315 500.925C417.131 500.925 499.925 418.131 499.925 316C499.925 213.869 417.131 131.075 315 131.075C212.869 131.075 130.075 213.869 130.075 316Z" fill="white" fill-opacity="0.15"/>
<mask id="path-4-inside-1_455_253" fill="white">
<path d="M1565 388C1565 430.526 1530.53 465 1488 465C1445.47 465 1411 430.526 1411 388C1411 345.474 1445.47 311 1488 311C1530.53 311 1565 345.474 1565 388ZM1429.99 388C1429.99 420.038 1455.96 446.011 1488 446.011C1520.04 446.011 1546.01 420.038 1546.01 388C1546.01 355.962 1520.04 329.989 1488 329.989C1455.96 329.989 1429.99 355.962 1429.99 388Z"/>
</mask>
<path d="M1565 388C1565 430.526 1530.53 465 1488 465C1445.47 465 1411 430.526 1411 388C1411 345.474 1445.47 311 1488 311C1530.53 311 1565 345.474 1565 388ZM1429.99 388C1429.99 420.038 1455.96 446.011 1488 446.011C1520.04 446.011 1546.01 420.038 1546.01 388C1546.01 355.962 1520.04 329.989 1488 329.989C1455.96 329.989 1429.99 355.962 1429.99 388Z" stroke="white" stroke-opacity="0.15" stroke-width="1.6383" mask="url(#path-4-inside-1_455_253)"/>
<circle cx="1491.28" cy="392.915" r="45.0532" fill="white" fill-opacity="0.15"/>
<circle cx="314.5" cy="322.5" r="163.5" fill="white" fill-opacity="0.15"/>
</g>
</svg>
