<svg width="58" height="58" viewBox="0 0 58 58" fill="none" xmlns="http://www.w3.org/2000/svg">
<path d="M43.5 45.5802H41.6633C39.73 45.5802 37.8933 46.3293 36.54 47.6826L32.4075 51.767C30.5225 53.6278 27.4533 53.6278 25.5683 51.767L21.4358 47.6826C20.0825 46.3293 18.2217 45.5802 16.3125 45.5802H14.5C10.4883 45.5802 7.25 42.3661 7.25 38.4027V12.0368C7.25 8.07347 10.4883 4.85938 14.5 4.85938H43.5C47.5117 4.85938 50.75 8.07347 50.75 12.0368V38.4027C50.75 42.3419 47.5117 45.5802 43.5 45.5802Z" stroke="white" stroke-width="3" stroke-miterlimit="10" stroke-linecap="round" stroke-linejoin="round"/>
<path d="M16.9141 22.1351C16.9141 19.8876 18.7507 18.0508 20.9982 18.0508C23.2457 18.0508 25.0824 19.8876 25.0824 22.1351C25.0824 26.6784 18.6299 27.1618 17.2041 31.4876C16.9141 32.3818 17.6632 33.2759 18.6057 33.2759H25.0824" stroke="white" stroke-width="3" stroke-linecap="round" stroke-linejoin="round"/>
<path d="M38.7574 33.2528V19.4537C38.7574 18.8254 38.3466 18.2694 37.7424 18.1002C37.1382 17.9311 36.4857 18.1727 36.1474 18.7044C34.4074 21.5077 32.5224 24.6978 30.8791 27.5011C30.6132 27.9603 30.6132 28.5644 30.8791 29.0236C31.1449 29.4828 31.6524 29.7726 32.2082 29.7726H41.0774" stroke="white" stroke-width="3" stroke-linecap="round" stroke-linejoin="round"/>
</svg>
