<svg width="58" height="58" viewBox="0 0 58 58" fill="none" xmlns="http://www.w3.org/2000/svg">
<path d="M41.0859 21.7487C41.0859 31.1012 32.9659 38.6654 22.9609 38.6654L20.7135 41.372L19.3843 42.9671C18.2484 44.3204 16.0734 44.0303 15.3243 42.4112L12.0859 35.282C7.6876 32.1886 4.83594 27.2829 4.83594 21.7487C4.83594 12.3962 12.9559 4.83203 22.9609 4.83203C30.2593 4.83203 36.5668 8.86788 39.3943 14.6679C40.4818 16.8187 41.0859 19.2112 41.0859 21.7487Z" stroke="white" stroke-width="3" stroke-linecap="round" stroke-linejoin="round"/>
<path d="M53.1668 31.0771C53.1668 36.6112 50.3151 41.5172 45.9168 44.6105L42.6784 51.7396C41.9293 53.3587 39.7542 53.673 38.6184 52.2955L35.0418 47.9937C29.1934 47.9937 23.9734 45.4079 20.7109 41.3721L22.9584 38.6654C32.9634 38.6654 41.0834 31.1013 41.0834 21.7488C41.0834 19.2113 40.4793 16.8188 39.3918 14.668C47.2943 16.4805 53.1668 23.1504 53.1668 31.0771Z" stroke="white" stroke-width="3" stroke-linecap="round" stroke-linejoin="round"/>
<path d="M16.9141 21.75H28.9974" stroke="white" stroke-width="3" stroke-linecap="round" stroke-linejoin="round"/>
</svg>
