<svg width="58" height="58" viewBox="0 0 58 58" fill="none" xmlns="http://www.w3.org/2000/svg">
<path d="M25.9853 5.92094C27.6528 4.4951 30.3836 4.4951 32.0753 5.92094L35.8937 9.20786C36.6187 9.8362 37.9719 10.3436 38.9386 10.3436H43.047C45.6086 10.3436 47.7111 12.446 47.7111 15.0076V19.1161C47.7111 20.0586 48.2186 21.4362 48.847 22.1612L52.1337 25.9794C53.5595 27.6469 53.5595 30.3778 52.1337 32.0694L48.847 35.8877C48.2186 36.6127 47.7111 37.966 47.7111 38.9327V43.0412C47.7111 45.6029 45.6086 47.7052 43.047 47.7052H38.9386C37.9961 47.7052 36.6187 48.2126 35.8937 48.841L32.0753 52.1276C30.4078 53.5534 27.677 53.5534 25.9853 52.1276L22.167 48.841C21.442 48.2126 20.0886 47.7052 19.122 47.7052H14.9411C12.3795 47.7052 10.277 45.6029 10.277 43.0412V38.9085C10.277 37.966 9.76949 36.6127 9.16533 35.8877L5.90281 32.0452C4.50115 30.3777 4.50115 27.6711 5.90281 26.0036L9.16533 22.1612C9.76949 21.4362 10.277 20.0828 10.277 19.1403V15.0076C10.277 12.446 12.3795 10.3436 14.9411 10.3436H19.122C20.0645 10.3436 21.442 9.8362 22.167 9.20786L25.9853 5.92094Z" stroke="white" stroke-width="3" stroke-linecap="round" stroke-linejoin="round"/>
<path d="M23.8921 35.8109L27.3963 38.5175C27.8554 38.9767 28.8705 39.1943 29.5471 39.1943H33.8246C35.1779 39.1943 36.6521 38.1793 36.9904 36.826L39.6971 28.5609C40.2529 26.9901 39.2379 25.6126 37.5463 25.6126H33.0271C32.3505 25.6126 31.7946 25.057 31.8913 24.2595L32.4471 20.6345C32.6646 19.6195 31.9879 18.4835 30.9729 18.1452C30.0788 17.8069 28.9429 18.2659 28.4838 18.9426L23.8438 25.83" stroke="white" stroke-width="3" stroke-miterlimit="10"/>
<path d="M18.125 35.8089V24.7407C18.125 23.1457 18.8017 22.5898 20.3967 22.5898H21.5325C23.1033 22.5898 23.8042 23.1457 23.8042 24.7407V35.8089C23.8042 37.3798 23.1275 37.9598 21.5325 37.9598H20.3967C18.8017 37.9598 18.125 37.4039 18.125 35.8089Z" stroke="white" stroke-width="3" stroke-linecap="round" stroke-linejoin="round"/>
</svg>
