<svg width="600" height="516" viewBox="0 0 600 516" fill="none" xmlns="http://www.w3.org/2000/svg">
<path d="M489.531 421.491C482.603 453.095 460.71 480.25 433.39 497.597C416.05 508.603 395.999 516.118 375.46 515.999C341.785 515.799 311.952 495.778 280.398 484.026C242.675 469.971 201.703 467.655 162.502 458.454C123.301 449.253 83.1013 430.749 63.5429 395.555C51.9331 374.651 48.8975 349.648 52.3281 325.984C58.9851 279.881 89.7494 238.965 129.891 215.301C243.451 148.356 402.439 207.533 466.591 315.785C485.35 347.403 497.461 385.312 489.531 421.491Z" fill="url(#paint0_linear_1873_8169)"/>
<path d="M541.064 289.978C489.31 341.815 420.458 381.861 350.401 402.528C212.773 443.133 60.8597 361.581 12.3781 228.324C-10.4216 165.632 -2.80836 90.3697 44.2765 40.6486C79.1234 3.83119 129.853 -5.78126 178.441 3.07265C219.42 10.5382 256.191 30.9873 296.177 41.6333C357.309 57.9039 416.783 42.9241 478.278 47.8923C511.976 50.6159 550.996 62.668 573.458 89.3317C594.764 114.643 603.166 149.814 598.941 182.311C593.642 223.329 570.537 260.484 541.064 289.978Z" fill="url(#paint1_linear_1873_8169)"/>
<mask id="mask0_1873_8169" style="mask-type:alpha" maskUnits="userSpaceOnUse" x="0" y="0" width="600" height="413">
<path d="M541.064 289.978C489.31 341.815 420.458 381.861 350.401 402.528C212.773 443.133 60.8597 361.581 12.3781 228.324C-10.4216 165.632 -2.80836 90.3697 44.2765 40.6486C79.1234 3.83119 129.853 -5.78126 178.441 3.07265C219.42 10.5382 256.191 30.9873 296.177 41.6333C357.309 57.9039 416.783 42.9241 478.278 47.8923C511.976 50.6159 550.996 62.668 573.458 89.3317C594.764 114.643 603.166 149.814 598.941 182.311C593.642 223.329 570.537 260.484 541.064 289.978Z" fill="url(#paint2_linear_1873_8169)"/>
</mask>
<g mask="url(#mask0_1873_8169)">
<g opacity="0.2">
<path style="mix-blend-mode:color-dodge" d="M424.52 232.559C418.08 232.559 411.785 230.649 406.431 227.072C401.076 223.494 396.903 218.409 394.439 212.46C391.975 206.51 391.33 199.964 392.586 193.648C393.843 187.332 396.943 181.531 401.497 176.977C406.05 172.424 411.852 169.323 418.168 168.067C424.483 166.81 431.03 167.455 436.979 169.919C442.929 172.384 448.014 176.557 451.591 181.911C455.169 187.265 457.078 193.56 457.078 200C457.069 208.632 453.636 216.908 447.532 223.012C441.428 229.116 433.152 232.55 424.52 232.559ZM424.52 169.75C418.537 169.75 412.688 171.524 407.714 174.848C402.739 178.172 398.862 182.896 396.572 188.424C394.283 193.951 393.684 200.034 394.851 205.901C396.018 211.769 398.899 217.159 403.13 221.39C407.36 225.62 412.75 228.501 418.618 229.669C424.486 230.836 430.568 230.237 436.096 227.947C441.623 225.658 446.347 221.78 449.671 216.806C452.995 211.831 454.769 205.983 454.769 200C454.76 191.98 451.57 184.291 445.899 178.62C440.228 172.949 432.539 169.759 424.52 169.75ZM424.52 241.16C416.379 241.16 408.421 238.746 401.652 234.224C394.883 229.701 389.608 223.272 386.492 215.751C383.377 208.23 382.562 199.954 384.15 191.97C385.738 183.986 389.658 176.652 395.415 170.895C401.171 165.139 408.505 161.219 416.49 159.63C424.474 158.042 432.75 158.857 440.271 161.973C447.792 165.088 454.22 170.364 458.743 177.132C463.266 183.901 465.68 191.859 465.68 200C465.668 210.913 461.327 221.375 453.611 229.091C445.894 236.808 435.432 241.148 424.52 241.16ZM424.52 161.068C416.819 161.068 409.292 163.351 402.89 167.629C396.488 171.907 391.498 177.987 388.551 185.101C385.604 192.215 384.833 200.043 386.335 207.595C387.838 215.147 391.546 222.084 396.99 227.529C402.435 232.974 409.372 236.682 416.924 238.184C424.476 239.686 432.304 238.915 439.418 235.969C446.532 233.022 452.613 228.032 456.89 221.63C461.168 215.227 463.452 207.7 463.452 200C463.439 189.678 459.334 179.783 452.035 172.484C444.737 165.186 434.841 161.08 424.52 161.068ZM424.52 249.762C414.678 249.762 405.057 246.843 396.873 241.376C388.69 235.908 382.312 228.136 378.545 219.043C374.779 209.95 373.794 199.945 375.714 190.292C377.634 180.639 382.373 171.772 389.332 164.813C396.292 157.854 405.159 153.114 414.811 151.194C424.464 149.274 434.47 150.259 443.563 154.026C452.655 157.792 460.427 164.17 465.895 172.354C471.363 180.537 474.282 190.158 474.282 200C474.269 213.194 469.023 225.844 459.693 235.174C450.364 244.503 437.713 249.75 424.52 249.762ZM424.52 152.385C415.102 152.383 405.895 155.174 398.063 160.404C390.232 165.635 384.127 173.07 380.521 181.771C376.916 190.471 375.971 200.045 377.807 209.282C379.643 218.519 384.177 227.004 390.835 233.664C397.494 240.325 405.978 244.861 415.215 246.699C424.451 248.537 434.025 247.595 442.727 243.991C451.428 240.388 458.865 234.285 464.097 226.454C469.33 218.624 472.122 209.418 472.122 200C472.107 187.379 467.087 175.278 458.164 166.352C449.24 157.427 437.141 152.404 424.52 152.385ZM424.52 258.364C412.976 258.364 401.692 254.941 392.094 248.528C382.497 242.114 375.016 232.999 370.599 222.335C366.181 211.67 365.025 199.935 367.277 188.614C369.529 177.292 375.088 166.893 383.25 158.731C391.413 150.568 401.812 145.01 413.133 142.758C424.455 140.506 436.19 141.662 446.854 146.079C457.519 150.496 466.634 157.977 473.047 167.575C479.46 177.173 482.883 188.457 482.883 200C482.865 215.473 476.71 230.308 465.769 241.249C454.827 252.19 439.993 258.345 424.52 258.364ZM424.52 143.715C413.387 143.715 402.505 147.016 393.249 153.2C383.993 159.385 376.779 168.176 372.519 178.461C368.259 188.745 367.144 200.062 369.316 210.981C371.487 221.899 376.848 231.928 384.72 239.8C392.591 247.671 402.621 253.032 413.539 255.204C424.457 257.376 435.774 256.261 446.059 252.001C456.344 247.741 465.134 240.527 471.319 231.27C477.504 222.014 480.805 211.132 480.805 200C480.787 185.078 474.851 170.772 464.299 160.22C453.747 149.669 439.442 143.733 424.52 143.715ZM424.52 266.965C411.275 266.965 398.328 263.038 387.316 255.679C376.303 248.321 367.72 237.863 362.652 225.626C357.583 213.39 356.257 199.926 358.841 186.936C361.425 173.946 367.803 162.014 377.168 152.648C386.533 143.283 398.465 136.905 411.455 134.322C424.445 131.738 437.91 133.064 450.146 138.132C462.382 143.201 472.841 151.784 480.199 162.796C487.557 173.809 491.485 186.756 491.485 200C491.46 217.753 484.397 234.771 471.844 247.324C459.291 259.878 442.272 266.941 424.52 266.965ZM424.52 135.021C411.671 135.021 399.11 138.831 388.427 145.969C377.743 153.107 369.416 163.253 364.498 175.124C359.581 186.994 358.293 200.057 360.799 212.659C363.305 225.261 369.492 236.837 378.576 245.923C387.661 255.01 399.236 261.198 411.838 263.706C424.44 266.214 437.502 264.93 449.374 260.014C461.245 255.099 471.392 246.773 478.533 236.091C485.673 225.409 489.485 212.849 489.487 200C489.469 182.775 482.618 166.261 470.438 154.081C458.259 141.901 441.744 135.051 424.52 135.032V135.021ZM424.52 275.567C409.571 275.567 394.958 271.134 382.529 262.829C370.1 254.523 360.413 242.719 354.693 228.908C348.973 215.098 347.477 199.901 350.394 185.24C353.311 170.579 360.511 157.112 371.082 146.542C381.653 135.973 395.121 128.776 409.782 125.861C424.444 122.946 439.64 124.444 453.45 130.167C467.26 135.889 479.063 145.578 487.366 158.008C495.669 170.438 500.1 185.052 500.098 200C500.073 220.037 492.103 239.246 477.934 253.415C463.766 267.583 444.557 275.554 424.52 275.578V275.567ZM424.52 126.35C409.956 126.35 395.719 130.668 383.609 138.759C371.5 146.85 362.061 158.351 356.487 171.806C350.914 185.261 349.455 200.066 352.295 214.35C355.136 228.635 362.148 241.756 372.445 252.055C382.743 262.354 395.863 269.368 410.146 272.211C424.43 275.053 439.236 273.597 452.692 268.025C466.148 262.453 477.649 253.016 485.742 240.908C493.835 228.8 498.156 214.564 498.158 200C498.137 180.476 490.371 161.759 476.566 147.953C462.761 134.148 444.043 126.383 424.52 126.361V126.35ZM424.52 284.168C407.87 284.168 391.594 279.231 377.751 269.981C363.907 260.73 353.117 247.582 346.746 232.2C340.375 216.817 338.709 199.891 341.958 183.562C345.207 167.232 353.226 152.233 365 140.46C376.773 128.688 391.774 120.672 408.104 117.425C424.434 114.178 441.36 115.847 456.742 122.22C472.123 128.593 485.27 139.384 494.518 153.229C503.766 167.074 508.702 183.35 508.699 200C508.672 222.317 499.794 243.713 484.013 259.494C468.232 275.275 446.837 284.152 424.52 284.18V284.168ZM424.52 117.668C408.238 117.668 392.323 122.495 378.786 131.54C365.248 140.585 354.697 153.441 348.466 168.483C342.235 183.524 340.604 200.076 343.78 216.044C346.955 232.013 354.794 246.681 366.306 258.194C377.817 269.707 392.484 277.548 408.452 280.726C424.42 283.904 440.972 282.275 456.014 276.046C471.057 269.817 483.914 259.268 492.961 245.732C502.008 232.196 506.838 216.281 506.84 200C506.819 178.174 498.139 157.247 482.706 141.814C467.272 126.38 446.346 117.7 424.52 117.679V117.668ZM424.52 292.77C406.169 292.77 388.23 287.328 372.972 277.132C357.714 266.937 345.822 252.446 338.8 235.492C331.778 218.537 329.941 199.882 333.522 181.883C337.103 163.885 345.94 147.353 358.917 134.378C371.894 121.403 388.427 112.567 406.426 108.988C424.424 105.41 443.08 107.249 460.033 114.273C476.987 121.297 491.476 133.191 501.67 148.45C511.864 163.71 517.303 181.649 517.301 200C517.273 224.599 507.489 248.182 490.095 265.576C472.702 282.97 449.118 292.754 424.52 292.781V292.77ZM424.52 108.985C406.521 108.985 388.927 114.322 373.962 124.321C358.997 134.32 347.333 148.532 340.445 165.16C333.556 181.788 331.754 200.085 335.264 217.738C338.774 235.391 347.441 251.606 360.166 264.333C372.892 277.061 389.106 285.729 406.759 289.242C424.411 292.754 442.708 290.954 459.337 284.068C475.966 277.182 490.179 265.519 500.18 250.556C510.181 235.592 515.521 217.998 515.523 200C515.495 175.873 505.899 152.742 488.838 135.681C471.778 118.621 448.647 109.024 424.52 108.997V108.985ZM424.52 301.371C404.467 301.371 384.866 295.425 368.193 284.284C351.52 273.144 338.526 257.309 330.853 238.783C323.18 220.257 321.173 199.872 325.086 180.205C328.998 160.539 338.655 142.474 352.835 128.296C367.015 114.118 385.081 104.463 404.748 100.552C424.415 96.6416 444.8 98.651 463.325 106.326C481.85 114.001 497.683 126.998 508.822 143.672C519.961 160.345 525.905 179.948 525.902 200C525.872 226.879 515.181 252.648 496.174 271.655C477.168 290.661 451.399 301.352 424.52 301.383V301.371ZM424.52 100.314C404.806 100.314 385.536 106.16 369.145 117.112C352.754 128.063 339.978 143.63 332.434 161.842C324.889 180.055 322.915 200.095 326.76 219.43C330.605 238.764 340.097 256.524 354.035 270.465C367.974 284.405 385.733 293.899 405.067 297.746C424.401 301.593 444.442 299.621 462.655 292.079C480.868 284.536 496.436 271.763 507.39 255.373C518.344 238.983 524.191 219.713 524.194 200C524.163 173.574 513.652 148.239 494.966 129.553C476.28 110.868 450.945 100.356 424.52 100.326V100.314ZM424.52 309.973C402.766 309.973 381.501 303.522 363.414 291.436C345.327 279.351 331.23 262.173 322.906 242.075C314.582 221.977 312.405 199.862 316.649 178.527C320.894 157.192 331.37 137.595 346.753 122.214C362.136 106.832 381.734 96.3584 403.07 92.1159C424.405 87.8734 446.52 90.0532 466.617 98.3794C486.714 106.706 503.89 120.804 515.974 138.893C528.058 156.981 534.506 178.247 534.504 200C534.473 229.16 522.876 257.118 502.257 277.737C481.637 298.356 453.68 309.954 424.52 309.984V309.973ZM424.52 91.6319C403.089 91.6319 382.14 97.9866 364.321 109.893C346.502 121.798 332.614 138.721 324.412 158.52C316.211 178.318 314.064 200.105 318.244 221.123C322.424 242.142 332.743 261.45 347.896 276.604C363.049 291.758 382.355 302.079 403.373 306.262C424.391 310.444 446.178 308.3 465.978 300.1C485.778 291.901 502.701 278.014 514.609 260.196C526.517 242.379 532.874 221.43 532.876 200C532.83 171.276 521.399 143.742 501.089 123.431C480.778 103.12 453.243 91.6893 424.52 91.6435V91.6319ZM424.52 318.574C401.065 318.574 378.137 311.619 358.635 298.588C339.134 285.557 323.934 267.036 314.959 245.367C305.984 223.697 303.636 199.853 308.213 176.849C312.79 153.845 324.085 132.715 340.671 116.131C357.256 99.5473 378.387 88.254 401.392 83.6796C424.396 79.1053 448.24 81.4553 469.908 90.4326C491.577 99.4098 510.097 114.611 523.126 134.114C536.155 153.617 543.108 176.545 543.106 200C543.069 231.44 530.563 261.581 508.332 283.812C486.101 306.044 455.959 318.549 424.52 318.586V318.574ZM424.52 82.9496C401.372 82.9496 378.744 89.8135 359.497 102.673C340.251 115.533 325.25 133.812 316.391 155.197C307.532 176.582 305.214 200.114 309.729 222.817C314.244 245.52 325.389 266.375 341.756 282.743C358.123 299.112 378.977 310.26 401.679 314.777C424.382 319.294 447.914 316.978 469.3 308.122C490.687 299.265 508.966 284.266 521.828 265.02C534.69 245.775 541.556 223.148 541.558 200C541.522 168.971 529.179 139.223 507.238 117.282C485.297 95.3404 455.549 82.9978 424.52 82.9611V82.9496ZM424.52 327.176C399.364 327.176 374.773 319.716 353.857 305.74C332.941 291.764 316.639 271.899 307.012 248.658C297.386 225.417 294.868 199.843 299.777 175.171C304.685 150.499 316.8 127.836 334.588 110.049C352.377 92.2621 375.041 80.1496 399.714 75.2434C424.386 70.3371 449.96 72.8575 473.2 82.4858C496.44 92.1141 516.304 108.418 530.278 129.335C544.252 150.253 551.709 174.844 551.707 200C551.667 233.72 538.255 266.048 514.411 289.891C490.567 313.735 458.24 327.148 424.52 327.188V327.176ZM424.52 74.3249C399.655 74.3249 375.349 81.6985 354.675 95.5132C334.002 109.328 317.889 128.963 308.376 151.936C298.862 174.908 296.374 200.186 301.228 224.572C306.081 248.958 318.057 271.358 335.642 288.937C353.226 306.516 375.628 318.486 400.016 323.333C424.404 328.18 449.681 325.685 472.651 316.165C495.62 306.645 515.251 290.527 529.06 269.85C542.869 249.173 550.236 224.864 550.229 200C550.193 166.671 536.936 134.718 513.369 111.15C489.802 87.5831 457.849 74.327 424.52 74.2903V74.3249ZM424.52 335.824C397.664 335.824 371.412 327.861 349.083 312.942C326.753 298.022 309.349 276.817 299.07 252.007C288.791 227.197 286.1 199.896 291.337 173.556C296.574 147.217 309.503 123.021 328.49 104.029C347.477 85.0376 371.669 72.1023 398.007 66.8589C424.345 61.6155 451.647 64.2997 476.46 74.5719C501.273 84.8442 522.482 102.243 537.407 124.569C552.332 146.895 560.302 173.145 560.309 200C560.269 236.001 545.95 270.517 520.493 295.973C495.036 321.43 460.521 335.749 424.52 335.789V335.824ZM424.52 65.6541C397.937 65.6541 371.952 73.5372 349.851 88.3065C327.749 103.076 310.523 124.068 300.353 148.627C290.183 173.187 287.524 200.211 292.713 226.282C297.902 252.353 310.707 276.299 329.506 295.092C348.306 313.885 372.257 326.681 398.329 331.862C424.402 337.042 451.425 334.374 475.981 324.195C500.537 314.016 521.523 296.784 536.285 274.677C551.047 252.57 558.921 226.582 558.912 200C558.869 164.37 544.696 130.212 519.502 105.018C494.308 79.8235 460.149 65.6507 424.52 65.6079V65.6541ZM424.52 344.437C395.964 344.437 368.049 335.97 344.305 320.106C320.561 304.242 302.054 281.694 291.124 255.313C280.194 228.931 277.332 199.902 282.9 171.894C288.468 143.886 302.215 118.158 322.404 97.9629C342.592 77.7676 368.316 64.0121 396.322 58.4356C424.328 52.859 453.359 55.7118 479.743 66.6333C506.128 77.5548 528.682 96.0546 544.554 119.793C560.425 143.532 568.901 171.444 568.91 200C568.867 238.282 553.641 274.983 526.572 302.052C499.503 329.122 462.801 344.348 424.52 344.391V344.437ZM424.52 56.9486C396.221 56.9463 368.557 65.3362 345.026 81.057C321.496 96.7779 303.156 119.124 292.326 145.268C281.495 171.413 278.662 200.182 284.183 227.937C289.704 255.692 303.332 281.187 323.343 301.196C343.354 321.206 368.85 334.831 396.605 340.35C424.361 345.869 453.13 343.033 479.274 332.201C505.417 321.369 527.761 303.027 543.48 279.495C559.199 255.964 567.587 228.299 567.582 200C567.54 162.07 552.453 125.707 525.633 98.8865C498.813 72.0663 462.449 56.9799 424.52 56.9371V56.9486ZM424.52 353.004C340.155 353.004 271.527 284.376 271.527 200.012C271.527 115.647 340.155 47.0078 424.52 47.0078C508.884 47.0078 577.512 115.635 577.512 200C577.512 284.364 508.884 352.992 424.52 352.992V353.004ZM424.52 48.2663C340.848 48.2663 272.774 116.386 272.774 200.012C272.774 283.637 340.894 351.757 424.52 351.757C508.145 351.757 576.265 283.637 576.265 200.012C576.265 116.386 508.191 48.2547 424.52 48.2547V48.2663ZM424.52 361.64C335.41 361.64 262.88 289.144 262.88 200C262.88 110.856 335.41 38.36 424.52 38.36C513.629 38.36 586.159 110.902 586.159 200C586.159 289.098 513.618 361.64 424.52 361.64ZM424.52 39.6185C336.056 39.6185 264.092 111.583 264.092 200.104C264.092 288.625 336.056 360.589 424.577 360.589C513.098 360.589 585.005 288.463 585.005 200C585.005 111.537 512.983 39.5723 424.52 39.5723V39.6185ZM424.52 370.242C330.676 370.242 254.324 293.89 254.324 200.046C254.324 106.203 330.676 29.8047 424.52 29.8047C518.363 29.8047 594.715 106.156 594.715 200C594.715 293.844 518.363 370.195 424.52 370.195V370.242ZM424.52 30.9477C331.276 30.9477 255.421 106.803 255.421 200.046C255.421 293.289 331.276 369.098 424.52 369.098C517.763 369.098 593.618 293.243 593.618 200C593.618 106.757 517.763 30.9015 424.52 30.9015V30.9477ZM424.52 378.843C325.931 378.843 245.723 298.635 245.723 200.046C245.723 101.457 325.931 21.2031 424.52 21.2031C523.108 21.2031 603.316 101.411 603.316 200C603.316 298.589 523.108 378.797 424.52 378.797V378.843ZM424.52 22.196C326.485 22.196 246.716 101.977 246.716 200C246.716 298.023 326.462 377.804 424.52 377.804C522.577 377.804 602.323 298.058 602.323 200C602.323 101.942 522.543 22.196 424.52 22.196ZM424.52 387.375C321.185 387.375 237.121 303.311 237.121 199.977C237.121 96.6428 321.185 12.6016 424.52 12.6016C527.854 12.6016 611.918 96.6659 611.918 200C611.918 303.334 527.854 387.398 424.52 387.398V387.375ZM424.52 13.5368C321.763 13.5368 238.056 97.2432 238.056 200C238.056 302.757 321.763 386.463 424.52 386.463C527.276 386.463 610.983 302.815 610.983 200C610.983 97.1854 527.334 13.5368 424.52 13.5368ZM424.52 396C316.44 396 228.52 308.079 228.52 200C228.52 91.9206 316.44 4 424.52 4C532.599 4 620.52 91.9206 620.52 200C620.52 308.079 532.599 396 424.52 396ZM424.52 4.87747C316.925 4.87747 229.397 92.4055 229.397 200C229.397 307.594 316.937 395.123 424.52 395.123C532.102 395.123 619.642 307.583 619.642 200C619.642 92.417 532.114 4.87747 424.52 4.87747Z" fill="url(#paint3_radial_1873_8169)"/>
</g>
<g opacity="0.2">
<path style="mix-blend-mode:color-dodge" d="M203 231.559C209.44 231.559 215.734 229.649 221.089 226.072C226.443 222.494 230.616 217.409 233.081 211.46C235.545 205.51 236.19 198.964 234.933 192.648C233.677 186.332 230.576 180.531 226.023 175.977C221.469 171.424 215.668 168.323 209.352 167.067C203.036 165.81 196.49 166.455 190.54 168.919C184.591 171.384 179.506 175.557 175.928 180.911C172.351 186.265 170.441 192.56 170.441 199C170.45 207.632 173.884 215.908 179.988 222.012C186.092 228.116 194.368 231.55 203 231.559ZM203 168.75C208.983 168.75 214.831 170.524 219.806 173.848C224.78 177.172 228.658 181.896 230.947 187.424C233.237 192.951 233.836 199.034 232.669 204.901C231.501 210.769 228.62 216.159 224.39 220.39C220.159 224.62 214.769 227.501 208.901 228.669C203.034 229.836 196.951 229.237 191.424 226.947C185.897 224.658 181.172 220.78 177.848 215.806C174.524 210.831 172.75 204.983 172.75 199C172.759 190.98 175.949 183.291 181.62 177.62C187.291 171.949 194.98 168.759 203 168.75ZM203 240.16C211.141 240.16 219.099 237.746 225.868 233.224C232.636 228.701 237.912 222.272 241.027 214.751C244.143 207.23 244.958 198.954 243.37 190.97C241.781 182.986 237.861 175.652 232.105 169.895C226.348 164.139 219.014 160.219 211.03 158.63C203.046 157.042 194.77 157.857 187.249 160.973C179.728 164.088 173.299 169.364 168.776 176.132C164.254 182.901 161.84 190.859 161.84 199C161.852 209.913 166.192 220.375 173.909 228.091C181.625 235.808 192.087 240.148 203 240.16ZM203 160.068C210.7 160.068 218.227 162.351 224.63 166.629C231.032 170.907 236.022 176.987 238.969 184.101C241.915 191.215 242.686 199.043 241.184 206.595C239.682 214.147 235.974 221.084 230.529 226.529C225.084 231.974 218.147 235.682 210.595 237.184C203.043 238.686 195.215 237.915 188.101 234.969C180.987 232.022 174.907 227.032 170.629 220.63C166.351 214.227 164.068 206.7 164.068 199C164.08 188.678 168.186 178.783 175.484 171.484C182.783 164.186 192.678 160.08 203 160.068ZM203 248.762C212.842 248.762 222.463 245.843 230.646 240.376C238.83 234.908 245.208 227.136 248.974 218.043C252.74 208.95 253.726 198.945 251.806 189.292C249.886 179.639 245.146 170.772 238.187 163.813C231.228 156.854 222.361 152.114 212.708 150.194C203.055 148.274 193.05 149.259 183.957 153.026C174.864 156.792 167.092 163.17 161.624 171.354C156.156 179.537 153.238 189.158 153.238 199C153.25 212.194 158.497 224.844 167.826 234.174C177.156 243.503 189.806 248.75 203 248.762ZM203 151.385C212.418 151.383 221.625 154.174 229.456 159.404C237.288 164.635 243.393 172.07 246.998 180.771C250.604 189.471 251.548 199.045 249.713 208.282C247.877 217.519 243.343 226.004 236.684 232.664C230.026 239.325 221.542 243.861 212.305 245.699C203.068 247.537 193.494 246.595 184.793 242.991C176.092 239.388 168.655 233.285 163.422 225.454C158.19 217.624 155.397 208.418 155.397 199C155.412 186.379 160.432 174.278 169.356 165.352C178.279 156.427 190.379 151.404 203 151.385ZM203 257.364C214.543 257.364 225.827 253.941 235.425 247.528C245.023 241.114 252.504 231.999 256.921 221.335C261.338 210.67 262.494 198.935 260.242 187.614C257.99 176.292 252.432 165.893 244.269 157.731C236.107 149.568 225.708 144.01 214.386 141.758C203.065 139.506 191.33 140.662 180.665 145.079C170.001 149.496 160.886 156.977 154.473 166.575C148.059 176.173 144.636 187.457 144.636 199C144.655 214.473 150.81 229.308 161.751 240.249C172.692 251.19 187.527 257.345 203 257.364ZM203 142.715C214.132 142.715 225.014 146.016 234.27 152.2C243.527 158.385 250.741 167.176 255.001 177.461C259.261 187.745 260.376 199.062 258.204 209.981C256.032 220.899 250.671 230.928 242.8 238.8C234.928 246.671 224.899 252.032 213.981 254.204C203.062 256.376 191.745 255.261 181.461 251.001C171.176 246.741 162.385 239.527 156.2 230.27C150.016 221.014 146.715 210.132 146.715 199C146.733 184.078 152.669 169.772 163.221 159.22C173.772 148.669 188.078 142.733 203 142.715ZM203 265.965C216.244 265.965 229.191 262.038 240.204 254.679C251.216 247.321 259.799 236.863 264.868 224.626C269.936 212.39 271.262 198.926 268.678 185.936C266.095 172.946 259.717 161.014 250.352 151.648C240.986 142.283 229.054 135.905 216.064 133.322C203.074 130.738 189.61 132.064 177.374 137.132C165.137 142.201 154.679 150.784 147.321 161.796C139.962 172.809 136.035 185.756 136.035 199C136.059 216.753 143.122 233.771 155.675 246.324C168.229 258.878 185.247 265.941 203 265.965ZM203 134.021C215.849 134.021 228.409 137.831 239.093 144.969C249.777 152.107 258.104 162.253 263.021 174.124C267.939 185.994 269.226 199.057 266.72 211.659C264.214 224.261 258.028 235.837 248.943 244.923C239.858 254.01 228.283 260.198 215.682 262.706C203.08 265.214 190.017 263.93 178.146 259.014C166.274 254.099 156.127 245.773 148.987 235.091C141.847 224.409 138.035 211.849 138.032 199C138.051 181.775 144.901 165.261 157.081 153.081C169.261 140.901 185.775 134.051 203 134.032V134.021ZM203 274.567C217.948 274.567 232.561 270.134 244.99 261.829C257.419 253.523 267.106 241.719 272.826 227.908C278.546 214.098 280.042 198.901 277.125 184.24C274.208 169.579 267.009 156.112 256.438 145.542C245.867 134.973 232.399 127.776 217.738 124.861C203.076 121.946 187.879 123.444 174.069 129.167C160.26 134.889 148.457 144.578 140.153 157.008C131.85 169.438 127.419 184.052 127.422 199C127.446 219.037 135.417 238.246 149.585 252.415C163.753 266.583 182.963 274.554 203 274.578V274.567ZM203 125.35C217.564 125.35 231.801 129.668 243.91 137.759C256.02 145.85 265.458 157.351 271.032 170.806C276.606 184.261 278.065 199.066 275.224 213.35C272.384 227.635 265.372 240.756 255.074 251.055C244.777 261.354 231.657 268.368 217.373 271.211C203.09 274.053 188.284 272.597 174.828 267.025C161.372 261.453 149.87 252.016 141.777 239.908C133.685 227.8 129.364 213.564 129.361 199C129.383 179.476 137.148 160.759 150.953 146.953C164.759 133.148 183.476 125.383 203 125.361V125.35ZM203 283.168C219.65 283.168 235.925 278.231 249.769 268.981C263.613 259.73 274.402 246.582 280.773 231.2C287.144 215.817 288.81 198.891 285.561 182.562C282.312 166.232 274.294 151.233 262.52 139.46C250.746 127.688 235.746 119.672 219.416 116.425C203.086 113.178 186.159 114.847 170.778 121.22C155.396 127.593 142.25 138.384 133.001 152.229C123.753 166.074 118.818 182.35 118.82 199C118.848 221.317 127.725 242.713 143.506 258.494C159.287 274.275 180.683 283.152 203 283.18V283.168ZM203 116.668C219.281 116.668 235.196 121.495 248.734 130.54C262.271 139.585 272.822 152.441 279.053 167.483C285.285 182.524 286.915 199.076 283.74 215.044C280.565 231.013 272.725 245.681 261.214 257.194C249.702 268.707 235.035 276.548 219.067 279.726C203.099 282.904 186.548 281.275 171.505 275.046C156.463 268.817 143.605 258.268 134.558 244.732C125.511 231.196 120.681 215.281 120.679 199C120.701 177.174 129.38 156.247 144.814 140.814C160.247 125.38 181.174 116.7 203 116.679V116.668ZM203 291.77C221.351 291.77 239.29 286.328 254.548 276.132C269.806 265.937 281.698 251.446 288.72 234.492C295.742 217.537 297.579 198.882 293.998 180.883C290.417 162.885 281.579 146.353 268.602 133.378C255.625 120.403 239.092 111.567 221.094 107.988C203.095 104.41 184.439 106.249 167.486 113.273C150.533 120.297 136.043 132.191 125.85 147.45C115.656 162.71 110.216 180.649 110.219 199C110.246 223.599 120.03 247.182 137.424 264.576C154.818 281.97 178.401 291.754 203 291.781V291.77ZM203 107.985C220.998 107.985 238.592 113.322 253.558 123.321C268.523 133.32 280.187 147.532 287.075 164.16C293.963 180.788 295.766 199.085 292.256 216.738C288.745 234.391 280.079 250.606 267.353 263.333C254.627 276.061 238.413 284.729 220.761 288.242C203.109 291.754 184.811 289.954 168.183 283.068C151.554 276.182 137.34 264.519 127.339 249.556C117.338 234.592 111.999 216.998 111.997 199C112.024 174.873 121.621 151.742 138.681 134.681C155.742 117.621 178.873 108.024 203 107.997V107.985ZM203 300.371C223.052 300.371 242.654 294.425 259.327 283.284C275.999 272.144 288.994 256.309 296.667 237.783C304.34 219.257 306.347 198.872 302.434 179.205C298.521 159.539 288.864 141.474 274.684 127.296C260.505 113.118 242.439 103.463 222.772 99.5522C203.105 95.6416 182.72 97.651 164.194 105.326C145.669 113.001 129.836 125.998 118.698 142.672C107.559 159.345 101.615 178.948 101.617 199C101.648 225.879 112.339 251.648 131.345 270.655C150.352 289.661 176.121 300.352 203 300.383V300.371ZM203 99.3143C222.713 99.3143 241.984 105.16 258.375 116.112C274.766 127.063 287.541 142.63 295.086 160.842C302.63 179.055 304.605 199.095 300.76 218.43C296.915 237.764 287.423 255.524 273.484 269.465C259.546 283.405 241.787 292.899 222.453 296.746C203.118 300.593 183.078 298.621 164.864 291.079C146.651 283.536 131.083 270.763 120.13 254.373C109.176 237.983 103.328 218.713 103.326 199C103.356 172.574 113.868 147.239 132.553 128.553C151.239 109.868 176.574 99.3564 203 99.3259V99.3143ZM203 308.973C224.753 308.973 246.018 302.522 264.105 290.436C282.192 278.351 296.289 261.173 304.613 241.075C312.938 220.977 315.115 198.862 310.87 177.527C306.626 156.192 296.149 136.595 280.767 121.214C265.384 105.832 245.785 95.3584 224.45 91.1159C203.114 86.8734 181 89.0532 160.903 97.3794C140.806 105.706 123.63 119.804 111.546 137.893C99.4618 155.981 93.0133 177.247 93.0156 199C93.0461 228.16 104.644 256.118 125.263 276.737C145.882 297.356 173.84 308.954 203 308.984V308.973ZM203 90.6319C224.43 90.6319 245.38 96.9866 263.198 108.893C281.017 120.798 294.906 137.721 303.107 157.52C311.309 177.318 313.455 199.105 309.275 220.123C305.095 241.142 294.776 260.45 279.624 275.604C264.471 290.758 245.165 301.079 224.146 305.262C203.128 309.444 181.342 307.3 161.542 299.1C141.742 290.901 124.818 277.014 112.91 259.196C101.003 241.379 94.6458 220.43 94.6435 199C94.6893 170.276 106.12 142.742 126.431 122.431C146.742 102.12 174.276 90.6893 203 90.6435V90.6319ZM203 317.574C226.455 317.574 249.382 310.619 268.884 297.588C288.386 284.557 303.585 266.036 312.56 244.367C321.535 222.697 323.883 198.853 319.307 175.849C314.73 152.845 303.435 131.715 286.849 115.131C270.263 98.5473 249.132 87.254 226.128 82.6796C203.124 78.1053 179.28 80.4553 157.611 89.4326C135.943 98.4098 117.423 113.611 104.394 133.114C91.3648 152.617 84.4117 175.545 84.414 199C84.4507 230.44 96.9563 260.581 119.188 282.812C141.419 305.044 171.56 317.549 203 317.586V317.574ZM203 81.9496C226.148 81.9496 248.775 88.8135 268.022 101.673C287.269 114.533 302.27 132.812 311.129 154.197C319.987 175.582 322.306 199.114 317.791 221.817C313.276 244.52 302.13 265.375 285.763 281.743C269.396 298.112 248.543 309.26 225.84 313.777C203.138 318.294 179.605 315.978 158.219 307.122C136.833 298.265 118.553 283.266 105.691 264.02C92.8296 244.775 85.9634 222.148 85.9611 199C85.9978 167.971 98.3404 138.223 120.282 116.282C142.223 94.3404 171.971 81.9978 203 81.9611V81.9496ZM203 326.176C228.156 326.176 252.747 318.716 273.663 304.74C294.579 290.764 310.881 270.899 320.507 247.658C330.133 224.417 332.651 198.843 327.743 174.171C322.834 149.499 310.72 126.836 292.931 109.049C275.142 91.2621 252.479 79.1496 227.806 74.2434C203.133 69.3371 177.56 71.8575 154.319 81.4858C131.079 91.1141 111.216 107.418 97.2418 128.335C83.2677 149.253 75.8102 173.844 75.8125 199C75.8522 232.72 89.265 265.048 113.109 288.891C136.952 312.735 169.28 326.148 203 326.188V326.176ZM203 73.3249C227.865 73.3249 252.171 80.6985 272.844 94.5132C293.518 108.328 309.63 127.963 319.144 150.936C328.658 173.908 331.145 199.186 326.292 223.572C321.438 247.958 309.462 270.358 291.878 287.937C274.294 305.516 251.891 317.486 227.504 322.333C203.116 327.18 177.839 324.685 154.869 315.165C131.899 305.645 112.268 289.527 98.4594 268.85C84.6504 248.173 77.2835 223.864 77.2903 199C77.327 165.671 90.5831 133.718 114.15 110.15C137.718 86.5831 169.671 73.327 203 73.2903V73.3249ZM203 334.824C229.855 334.824 256.107 326.861 278.437 311.942C300.766 297.022 318.171 275.817 328.449 251.007C338.728 226.197 341.419 198.896 336.182 172.556C330.946 146.217 318.017 122.021 299.03 103.029C280.043 84.0376 255.851 71.1023 229.512 65.8589C203.174 60.6155 175.873 63.2997 151.06 73.5719C126.247 83.8442 105.037 101.243 90.1124 123.569C75.1875 145.895 67.2178 172.145 67.2109 199C67.2506 235.001 81.5697 269.517 107.026 294.973C132.483 320.43 166.999 334.749 203 334.789V334.824ZM203 64.6541C229.582 64.6541 255.567 72.5372 277.669 87.3065C299.771 102.076 316.996 123.068 327.166 147.627C337.337 172.187 339.996 199.211 334.806 225.282C329.617 251.353 316.813 275.299 298.013 294.092C279.214 312.885 255.263 325.681 229.19 330.862C203.118 336.042 176.095 333.374 151.538 323.195C126.982 313.016 105.996 295.784 91.2347 273.677C76.473 251.57 68.5988 225.582 68.6079 199C68.6507 163.37 82.8236 129.212 108.018 104.018C133.212 78.8235 167.37 64.6507 203 64.6079V64.6541ZM203 343.437C231.556 343.437 259.47 334.97 283.214 319.106C306.958 303.242 325.465 280.694 336.395 254.313C347.325 227.931 350.187 198.902 344.62 170.894C339.052 142.886 325.305 117.158 305.116 96.9629C284.927 76.7676 259.204 63.0121 231.198 57.4356C203.192 51.859 174.161 54.7118 147.776 65.6333C121.391 76.5548 98.8374 95.0546 82.966 118.793C67.0946 142.532 58.6185 170.444 58.6094 199C58.6521 237.282 73.8784 273.983 100.948 301.052C128.017 328.122 164.718 343.348 203 343.391V343.437ZM203 55.9486C231.299 55.9463 258.963 64.3362 282.493 80.057C306.024 95.7779 324.364 118.124 335.194 144.268C346.024 170.413 348.858 199.182 343.337 226.937C337.815 254.692 324.188 280.187 304.176 300.196C284.165 320.206 258.67 333.831 230.914 339.35C203.159 344.869 174.39 342.033 148.246 331.201C122.102 320.369 99.758 302.027 84.0391 278.495C68.3201 254.964 59.9326 227.299 59.9371 199C59.9799 161.07 75.0663 124.707 101.887 97.8865C128.707 71.0663 165.07 55.9799 203 55.9371V55.9486ZM203 352.004C287.365 352.004 355.992 283.376 355.992 199.012C355.992 114.647 287.365 46.0078 203 46.0078C118.635 46.0078 50.0078 114.635 50.0078 199C50.0078 283.364 118.635 351.992 203 351.992V352.004ZM203 47.2663C286.672 47.2663 354.745 115.386 354.745 199.012C354.745 282.637 286.626 350.757 203 350.757C119.374 350.757 51.2547 282.637 51.2547 199.012C51.2547 115.386 119.328 47.2547 203 47.2547V47.2663ZM203 360.64C292.11 360.64 364.64 288.144 364.64 199C364.64 109.856 292.11 37.36 203 37.36C113.89 37.36 41.3601 109.902 41.3601 199C41.3601 288.098 113.902 360.64 203 360.64ZM203 38.6185C291.463 38.6185 363.428 110.583 363.428 199.104C363.428 287.625 291.463 359.589 202.942 359.589C114.421 359.589 42.5146 287.463 42.5146 199C42.5146 110.537 114.537 38.5723 203 38.5723V38.6185ZM203 369.242C296.844 369.242 373.195 292.89 373.195 199.046C373.195 105.203 296.844 28.8047 203 28.8047C109.156 28.8047 32.8047 105.156 32.8047 199C32.8047 292.844 109.156 369.195 203 369.195V369.242ZM203 29.9477C296.243 29.9477 372.098 105.803 372.098 199.046C372.098 292.289 296.243 368.098 203 368.098C109.757 368.098 33.9015 292.243 33.9015 199C33.9015 105.757 109.757 29.9015 203 29.9015V29.9477ZM203 377.843C301.589 377.843 381.797 297.635 381.797 199.046C381.797 100.457 301.589 20.2031 203 20.2031C104.411 20.2031 24.2031 100.411 24.2031 199C24.2031 297.589 104.411 377.797 203 377.797V377.843ZM203 21.196C301.035 21.196 380.804 100.977 380.804 199C380.804 297.023 301.058 376.804 203 376.804C104.942 376.804 25.1961 297.058 25.1961 199C25.1961 100.942 104.977 21.196 203 21.196ZM203 386.375C306.334 386.375 390.398 302.311 390.398 198.977C390.398 95.6428 306.334 11.6016 203 11.6016C99.6659 11.6016 15.6016 95.6659 15.6016 199C15.6016 302.334 99.6659 386.398 203 386.398V386.375ZM203 12.5368C305.757 12.5368 389.463 96.2432 389.463 199C389.463 301.757 305.757 385.463 203 385.463C100.243 385.463 16.5368 301.815 16.5368 199C16.5368 96.1854 100.185 12.5368 203 12.5368ZM203 395C311.079 395 399 307.079 399 199C399 90.9206 311.079 3 203 3C94.9206 3 7.00001 90.9206 7.00001 199C7.00001 307.079 94.9206 395 203 395ZM203 3.87747C310.594 3.87747 398.123 91.4055 398.123 199C398.123 306.594 310.583 394.123 203 394.123C95.4171 394.123 7.8775 306.583 7.8775 199C7.8775 91.417 95.4055 3.87747 203 3.87747Z" fill="url(#paint4_radial_1873_8169)"/>
</g>
</g>
<defs>
<linearGradient id="paint0_linear_1873_8169" x1="492" y1="241" x2="-49.451" y2="464.168" gradientUnits="userSpaceOnUse">
<stop stop-color="#254E7E"/>
<stop offset="0.963542" stop-color="#247573"/>
</linearGradient>
<linearGradient id="paint1_linear_1873_8169" x1="-87.5247" y1="100.892" x2="692.52" y2="323.672" gradientUnits="userSpaceOnUse">
<stop stop-color="#2A5587"/>
<stop offset="0.963542" stop-color="#247573"/>
</linearGradient>
<linearGradient id="paint2_linear_1873_8169" x1="-87.5247" y1="100.892" x2="692.52" y2="323.672" gradientUnits="userSpaceOnUse">
<stop stop-color="#2A5587"/>
<stop offset="0.963542" stop-color="#247573"/>
</linearGradient>
<radialGradient id="paint3_radial_1873_8169" cx="0" cy="0" r="1" gradientUnits="userSpaceOnUse" gradientTransform="translate(424.52 200) scale(196)">
<stop stop-color="white"/>
<stop offset="0.82" stop-color="#812DD1"/>
</radialGradient>
<radialGradient id="paint4_radial_1873_8169" cx="0" cy="0" r="1" gradientUnits="userSpaceOnUse" gradientTransform="translate(203 199) rotate(180) scale(196)">
<stop stop-color="white"/>
<stop offset="0.82" stop-color="#812DD1"/>
</radialGradient>
</defs>
</svg>
