<svg width="242" height="308" viewBox="0 0 242 308" fill="none" xmlns="http://www.w3.org/2000/svg">
<path d="M138.687 135.337C141.639 133.134 144.705 131.088 147.873 129.208L137.212 107.726C133.945 101.17 138.523 92.6118 147.706 88.519C156.503 84.6063 166.721 86.6087 169.988 93.1605L180.658 114.638C184.602 113.431 188.619 112.475 192.685 111.777L201.683 131.789L148.259 156.622L138.687 135.337Z" fill="url(#paint0_linear_1873_8182)"/>
<path d="M78.8068 242.794C93.6826 206.846 102.132 180.853 106.363 171.226C110.427 161.985 119.295 152.115 127.921 144.29C128.654 143.619 128.272 141.542 128.985 140.938C129.848 140.184 132.039 140.549 132.847 139.874C133.421 139.397 132.671 138.077 133.589 137.252C134.653 136.297 136.282 137.206 136.617 136.946C137.518 136.242 138.352 135.618 139.101 135.082L139.03 134.697C138.033 125.966 144.866 123.189 144.866 123.189C152.205 134.634 164.848 132.627 164.848 132.627C176.23 122.778 178.639 110.626 178.639 110.626C183.884 108.242 188.865 110.76 190.657 111.882C206.467 105.599 226.027 105.858 239.838 109.524C240.538 109.715 241.225 109.952 241.895 110.232V293.914C230.727 301.827 221.146 307.533 218.553 307.152L208.817 306.339C184.717 279.717 158.003 242.375 140.145 217.286C138.259 222.468 128.788 249.882 114.788 260.497C97.9555 273.228 76.0252 256.258 78.8068 242.794Z" fill="url(#paint1_linear_1873_8182)"/>
<path d="M139.101 135.065L139.055 134.822C141.824 139.43 150.269 148.022 153.009 148.227C155.523 148.412 160.026 138.232 162.523 132.727C163.3 132.738 164.077 132.693 164.848 132.593C165.593 131.948 166.297 131.295 166.968 130.637C171.781 131.345 182.069 133.318 185.056 131.705C188.45 129.87 189.882 115.288 189.857 111.371C190.167 111.538 190.435 111.698 190.657 111.832C191.076 111.673 191.466 111.522 191.872 111.367C192.052 116.239 191.143 131.831 189.304 134.793C187.088 138.353 165.057 133.536 165.057 133.536C165.057 133.536 158.727 151.646 154.672 152.936C151.593 153.916 140.593 142.882 136.793 136.778C137.627 136.146 138.385 135.563 139.101 135.065Z" fill="url(#paint2_linear_1873_8182)"/>
<path d="M78.8068 242.793C78.9786 242.375 79.142 241.956 79.3137 241.537C79.1838 241.851 80.692 246.363 82.1917 248.658C88.7645 258.792 106.447 260.053 115.575 254.025C124.703 247.996 137.719 211.458 137.719 211.458L132.457 189.495C132.457 189.495 134.862 188.607 135.314 188.607C135.767 188.607 198.763 274.748 198.763 274.748L209.584 270.593C211.49 269.86 216.35 115.2 217.125 106.922C221.672 106.912 226.216 107.161 230.735 107.668C231.472 111.317 232.616 116.959 234.057 124.098V299.205C226.462 304.181 220.526 307.361 218.557 307.072L208.822 306.259C184.721 279.637 158.007 242.295 140.149 217.206C138.264 222.388 128.792 249.802 114.792 260.417C97.9555 273.228 76.0252 256.257 78.8068 242.793Z" fill="url(#paint3_linear_1873_8182)"/>
<path d="M164.848 132.61C165.137 132.363 165.636 131.906 165.912 131.655C174.374 146.572 217.091 220.821 238.603 240.883L236.563 243.635C214.448 223.012 171.702 147.515 163.336 132.719C164.023 132.677 164.848 132.61 164.848 132.61Z" fill="url(#paint4_linear_1873_8182)"/>
<path d="M120.691 246.438C120.691 246.438 126.342 230.439 107.675 218.111C94.3159 209.313 86.0508 220.624 86.0508 225.597C86.0508 228.11 116.179 252.164 116.179 252.164C116.179 252.164 120.674 247.606 120.691 246.438Z" fill="url(#paint5_linear_1873_8182)"/>
<path d="M69.9503 150.665C69.9503 150.665 65.2752 130.138 45.339 130.231C45.339 130.231 44.3588 129.946 43.3073 129.728C26.4543 126.259 3.95008 123.599 1.18104 126.594C-1.58799 129.59 1.03442 131.357 3.69454 132.132C6.35466 132.907 19.2196 134.751 19.2196 134.751C19.2196 134.751 16.459 135.413 16.4003 138.261C16.3764 139.064 16.584 139.858 16.9985 140.546C17.413 141.235 18.0167 141.79 18.7378 142.145C18.0084 142.471 17.3655 142.963 16.86 143.582C16.3546 144.201 16.0006 144.93 15.8263 145.709C15.2315 148.382 18.3398 151.231 18.3398 151.231C18.3398 151.231 14.8293 152.488 15.6127 155.772C17.0873 161.98 27.8367 167.786 35.44 170.995C43.0434 174.204 49.1134 173.45 52.1967 178.146C55.2799 182.842 72.5727 156.698 72.5727 156.698C72.5727 156.698 70.4488 151.545 69.9503 150.665Z" fill="#FF9E78"/>
<path d="M25.1554 133.515C25.3249 132.803 25.6992 132.156 26.2321 131.655C28.0083 129.979 35.8295 129.389 40.6009 129.188C41.5141 129.363 42.419 129.544 43.3071 129.728C43.9941 129.87 44.6713 130.038 45.3388 130.231C44.9869 130.231 28.7246 130.583 27.0531 132.396C25.3816 134.21 26.387 136.9 29.2357 138.479C32.0843 140.058 38.2591 138.542 40.2616 138.479C42.264 138.416 47.8481 141.575 47.8481 141.575L48.0325 143.217L43.4956 141.587C43.4956 141.587 44.124 146.032 47.2156 151.671C50.3072 157.309 56.2935 158.315 56.2935 158.315C53.7607 160.506 50.558 161.77 47.2114 161.901C41.7655 162.018 21.025 158.872 21.025 158.872L21.1464 158.059C21.1464 158.059 26.9484 158.181 31.9838 157.938C37.0191 157.695 35.754 153.476 34.6941 152.785C33.6343 152.094 17.3091 151.838 17.2044 151.834C17.5666 151.614 17.9399 151.412 18.3229 151.231C17.9625 150.886 17.6279 150.515 17.3217 150.121C18.9639 150.242 30.4087 151.08 34.2082 151.08C38.3052 151.08 38.8163 146.334 36.2735 145.726C33.9359 145.169 19.7388 143.393 17.3175 143.091C17.732 142.695 18.2126 142.375 18.7376 142.145C18.3716 141.969 18.0353 141.737 17.7406 141.458C20.4845 142.065 33.2406 144.809 35.997 144.306C39.0844 143.736 38.4644 140.192 38.4644 140.192C38.4644 140.192 32.5452 141.089 29.0933 139.857C28.0227 139.465 27.0807 138.786 26.3705 137.894C25.6604 137.002 25.2095 135.932 25.0675 134.801C23.5175 134.927 18.6957 135.383 17.0703 136.2C17.613 135.499 18.3663 134.991 19.2194 134.751L18.1344 134.592C19.6676 134.168 22.7634 133.41 25.1554 133.515Z" fill="url(#paint6_linear_1873_8182)"/>
<path d="M72.5586 156.697C72.5586 156.697 84.7071 186.687 92.1303 199.037C98.3261 209.368 116.57 227.523 118.208 245.801C119.268 257.694 94.4343 263.278 82.2145 252.922C69.9947 242.567 55.1735 182.628 52.1824 178.142C49.1914 173.655 72.5586 156.697 72.5586 156.697Z" fill="#FF9E78"/>
<path d="M0.418191 127.596C0.635688 127.236 0.89133 126.9 1.18065 126.595C3.34644 124.253 17.6022 125.371 31.7615 127.629C30.0314 128.723 25.6747 131.399 22.4868 131.726C18.5071 132.145 2.53792 131.119 1.2728 129.904C0.712945 129.266 0.408558 128.444 0.418191 127.596V127.596Z" fill="url(#paint7_linear_1873_8182)"/>
<path d="M31.4016 138.232C28.0838 137.918 26.2363 134.353 28.0837 132.413C29.6253 130.796 44.1156 130.541 49.2264 130.49C57.0853 131.605 62.1416 136.15 65.2877 140.649C63.3272 142.283 55.7238 143.653 53.2397 143.112C50.3617 142.488 41.2252 137.419 41.2252 137.419C41.2252 137.419 34.7194 138.546 31.4016 138.232Z" fill="url(#paint8_linear_1873_8182)"/>
<path d="M36.2771 169.42C45.9122 170.886 54.8476 168.783 55.4467 170.316C56.0457 171.85 74.0256 241.838 85.6087 248.113C97.1917 254.389 112.247 250.778 113.312 240.539C114.237 231.616 105.444 217.369 105.444 217.369C112.197 225.659 117.916 237.678 118.213 245.801C118.632 257.732 94.4394 263.278 82.2196 252.922C69.9998 242.567 55.1786 182.628 52.1875 178.142C49.1001 173.446 43.03 174.196 35.4309 170.991C29.1052 168.318 20.6054 163.869 17.0781 158.842C17.0823 158.867 27.8234 168.13 36.2771 169.42Z" fill="url(#paint9_linear_1873_8182)"/>
<path d="M71.3944 155.902C71.3944 155.902 86.3623 194.576 92.5455 203.658C100.086 214.739 111.317 229.631 111.615 237.26C111.983 246.647 92.0343 253.597 85.1389 242.266C78.2436 230.934 60.3601 171.888 59.5851 167.229C59.0865 164.02 71.3944 155.902 71.3944 155.902Z" fill="url(#paint10_linear_1873_8182)"/>
<path d="M103.944 76.0059C99.8305 77.6354 98.3056 83.8815 100.543 89.9515C102.78 96.0216 107.928 99.6202 112.046 97.9906C116.164 96.361 117.685 90.1149 115.448 84.0448C113.211 77.9747 108.062 74.3763 103.944 76.0059Z" fill="url(#paint11_linear_1873_8182)"/>
<path d="M123.409 15.9843L123.375 15.7993C123.392 15.896 123.409 15.9843 123.409 15.9843Z" fill="#3E1208"/>
<path d="M170.809 32.1831C167.58 17.764 126.09 13.3319 115.169 34.0305C111.864 43.5357 108.525 61.1302 107.453 78.4356C107.453 78.2513 107.453 78.1424 107.453 78.1424C107.453 78.1424 98.5339 123.62 139.391 123.486C178.706 123.36 183.943 103.663 180.625 77.0323C179.77 62.0057 174.538 43.2132 170.809 32.1831Z" fill="url(#paint12_linear_1873_8182)"/>
<g opacity="0.44">
<path d="M175.905 86.0495C177.291 76.9768 171.988 68.6394 164.058 67.4275C156.129 66.2155 148.577 72.588 147.191 81.6608C145.804 90.7335 151.108 99.0708 159.037 100.283C166.966 101.495 174.518 95.1223 175.905 86.0495Z" fill="#FF9E78"/>
<path d="M175.052 83.5928C176.42 74.5638 171.132 66.275 163.241 65.0794C155.351 63.8839 147.845 70.2343 146.477 79.2633C145.109 88.2924 150.397 96.581 158.287 97.7766C166.178 98.9721 173.684 92.6219 175.052 83.5928Z" fill="#FF9D77"/>
<path d="M175.715 86.0034C177.084 77.0473 171.847 68.8169 164.019 67.6204C156.19 66.4238 148.734 72.7142 147.365 81.6703C145.996 90.6264 151.233 98.8567 159.062 100.053C166.89 101.25 174.346 94.9595 175.715 86.0034Z" fill="#FF9C77"/>
<path d="M174.877 83.5627C176.227 74.6505 171.009 66.4691 163.221 65.2891C155.434 64.1092 148.026 70.3775 146.675 79.2898C145.325 88.202 150.544 96.3833 158.331 97.5632C166.119 98.7432 173.527 92.4749 174.877 83.5627Z" fill="#FF9B76"/>
<path d="M175.537 85.9723C176.889 77.1306 171.721 69.0056 163.996 67.8248C156.27 66.644 148.912 72.8545 147.56 81.6962C146.209 90.538 151.376 98.6628 159.102 99.8436C166.827 101.024 174.186 94.8141 175.537 85.9723Z" fill="#FF9A76"/>
<path d="M175.44 85.9452C176.782 77.1629 171.649 69.0924 163.973 67.9193C156.298 66.7462 148.988 72.9147 147.645 81.697C146.303 90.4792 151.437 98.5496 159.112 99.7228C166.788 100.896 174.098 94.7275 175.44 85.9452Z" fill="#FF9975"/>
<path d="M175.348 85.9257C176.681 77.2006 171.581 69.1827 163.956 68.0172C156.331 66.8518 149.069 72.9802 147.735 81.7053C146.401 90.4304 151.502 98.4482 159.127 99.6136C166.752 100.779 174.014 94.6508 175.348 85.9257Z" fill="#FF9875"/>
<path d="M175.254 85.902C176.579 77.2363 171.512 69.2729 163.937 68.1151C156.363 66.9574 149.148 73.0438 147.824 81.7094C146.499 90.3751 151.566 98.3384 159.141 99.4962C166.716 100.654 173.93 94.5676 175.254 85.902Z" fill="#FF9774"/>
<path d="M175.165 85.8826C176.481 77.2742 171.45 69.3636 163.928 68.2139C156.406 67.0642 149.241 73.1107 147.925 81.7192C146.61 90.3277 151.641 98.2382 159.163 99.3879C166.685 100.538 173.85 94.4911 175.165 85.8826Z" fill="#FF9674"/>
<path d="M175.072 85.8633C176.379 77.3143 171.381 69.4582 163.909 68.3162C156.437 67.1742 149.321 73.1788 148.014 81.7278C146.708 90.2767 151.706 98.1328 159.177 99.2748C166.649 100.417 173.765 94.4123 175.072 85.8633Z" fill="#FF9573"/>
<path d="M174.983 85.8482C176.281 77.3564 171.317 69.5528 163.896 68.4185C156.474 67.2842 149.406 73.2486 148.108 81.7405C146.81 90.2323 151.774 98.0358 159.196 99.1701C166.617 100.304 173.686 94.34 174.983 85.8482Z" fill="#FF9472"/>
<path d="M174.895 85.8252C176.184 77.3906 171.254 69.6396 163.882 68.513C156.511 67.3864 149.491 73.3107 148.201 81.7454C146.912 90.18 151.843 97.9309 159.214 99.0575C166.585 100.184 173.606 94.2599 174.895 85.8252Z" fill="#FF9372"/>
<path d="M174.789 85.8008C176.069 77.4256 171.174 69.7293 163.856 68.6107C156.537 67.4921 149.567 73.3748 148.287 81.75C147.006 90.1252 151.902 97.8213 159.22 98.9399C166.539 100.059 173.509 94.176 174.789 85.8008Z" fill="#FF9271"/>
<path d="M174.701 85.7778C175.972 77.4598 171.111 69.8161 163.842 68.7052C156.574 67.5943 149.651 73.4369 148.38 81.7549C147.109 90.0729 151.97 97.7165 159.238 98.8274C166.507 99.9383 173.429 94.0958 174.701 85.7778Z" fill="#FF9171"/>
<path d="M174.596 85.7502C175.858 77.4917 171.03 69.9024 163.812 68.7992C156.594 67.696 149.72 73.4966 148.457 81.7551C147.195 90.0137 152.023 97.6028 159.241 98.706C166.459 99.8092 173.334 94.0088 174.596 85.7502Z" fill="#FF9070"/>
<path d="M174.523 85.739C175.776 77.5376 170.982 70.001 163.814 68.9054C156.647 67.8099 149.82 73.5704 148.567 81.7718C147.313 89.9731 152.107 97.5097 159.275 98.6052C166.443 99.7007 173.269 93.9403 174.523 85.739Z" fill="#FF8F70"/>
<path d="M174.433 85.7207C175.678 77.5788 170.917 70.0965 163.8 69.0087C156.682 67.9209 149.904 73.6394 148.659 81.7813C147.415 89.9232 152.176 97.4053 159.293 98.4931C166.411 99.581 173.189 93.8626 174.433 85.7207Z" fill="#FF8E6F"/>
<path d="M174.329 85.7003C175.564 77.6156 170.839 70.1863 163.774 69.1065C156.71 68.0267 149.981 73.7054 148.745 81.7901C147.51 89.8748 152.235 97.3041 159.3 98.3838C166.364 99.4636 173.093 93.7851 174.329 85.7003Z" fill="#FF8D6F"/>
<path d="M173.469 83.2409C174.687 75.2014 169.98 67.8211 162.955 66.7568C155.93 65.6924 149.248 71.3469 148.03 79.3865C146.812 87.4261 151.519 94.8062 158.544 95.8706C165.569 96.935 172.251 91.2805 173.469 83.2409Z" fill="#FF8C6E"/>
<path d="M174.143 85.6537C175.361 77.6856 170.703 70.3633 163.739 69.2989C156.775 68.2345 150.142 73.8311 148.924 81.7991C147.706 89.7672 152.364 97.0894 159.328 98.1538C166.292 99.2183 172.925 93.6218 174.143 85.6537Z" fill="#FF8B6E"/>
<path d="M174.05 85.6346C175.26 77.7237 170.635 70.454 163.721 69.3973C156.808 68.3406 150.223 73.897 149.014 81.8079C147.804 89.7188 152.429 96.9885 159.343 98.0452C166.256 99.1019 172.841 93.5456 174.05 85.6346Z" fill="#FF8A6D"/>
<path d="M173.957 85.6102C175.157 77.7587 170.568 70.5437 163.706 69.495C156.845 68.4464 150.31 73.9611 149.11 81.8126C147.91 89.664 152.5 96.8789 159.361 97.9276C166.222 98.9763 172.757 93.4616 173.957 85.6102Z" fill="#FF896C"/>
<path d="M173.104 83.1561C174.287 75.3502 169.716 68.1844 162.895 67.1509C156.074 66.1174 149.586 71.6076 148.403 79.4135C147.22 87.2195 151.791 94.3852 158.612 95.4187C165.433 96.4522 171.922 90.9621 173.104 83.1561Z" fill="#FF886C"/>
<path d="M173.775 85.5684C174.957 77.8336 170.435 70.7256 163.674 69.6923C156.914 68.659 150.475 74.0917 149.293 81.8265C148.111 89.5613 152.633 96.6692 159.393 97.7025C166.154 98.7358 172.593 93.3032 173.775 85.5684Z" fill="#FF876B"/>
<path d="M173.678 85.5445C174.852 77.8669 170.364 70.8115 163.653 69.7859C156.943 68.7602 150.552 74.1528 149.379 81.8304C148.205 89.5081 152.694 96.5634 159.404 97.589C166.114 98.6146 172.505 93.2221 173.678 85.5445Z" fill="#FF866B"/>
<path d="M173.586 85.5254C174.751 77.905 170.296 70.9022 163.636 69.8843C156.976 68.8663 150.633 74.2188 149.468 81.8392C148.304 89.4597 152.758 96.4624 159.418 97.4803C166.078 98.4982 172.421 93.1459 173.586 85.5254Z" fill="#FF856A"/>
<path d="M173.488 85.5054C174.644 77.9444 170.225 70.9963 163.617 69.9864C157.01 68.9765 150.717 74.2873 149.561 81.8483C148.406 89.4093 152.825 96.3572 159.432 97.3671C166.04 98.377 172.333 93.0663 173.488 85.5054Z" fill="#FF846A"/>
<path d="M173.419 85.4956C174.566 77.9918 170.18 71.0963 163.623 70.0941C157.066 69.0919 150.821 74.3625 149.674 81.8663C148.527 89.3702 152.913 96.2656 159.47 97.2677C166.027 98.2699 172.272 92.9994 173.419 85.4956Z" fill="#FF8369"/>
<path d="M173.314 85.468C174.452 78.0236 170.1 71.1826 163.593 70.1881C157.086 69.1936 150.889 74.4222 149.752 81.8666C148.614 89.3109 152.966 96.1519 159.473 97.1464C165.979 98.1409 172.176 92.9123 173.314 85.468Z" fill="#FF8269"/>
<path d="M173.218 85.4441C174.347 78.0569 170.028 71.2684 163.572 70.2816C157.116 69.2948 150.966 74.4833 149.837 81.8705C148.708 89.2577 153.027 96.0461 159.483 97.0329C165.94 98.0197 172.089 92.8312 173.218 85.4441Z" fill="#FF8168"/>
<path d="M173.124 85.4206C174.244 78.0928 169.961 71.3591 163.557 70.3803C157.153 69.4016 151.054 74.5484 149.934 81.8761C148.814 89.2038 153.098 95.9375 159.501 96.9163C165.905 97.895 172.004 92.7483 173.124 85.4206Z" fill="#FF8067"/>
<path d="M173.036 85.401C174.147 78.1305 169.897 71.4493 163.544 70.4783C157.19 69.5072 151.139 74.6139 150.028 81.8844C148.916 89.155 153.166 95.836 159.52 96.8071C165.873 97.7782 171.924 92.6716 173.036 85.401Z" fill="#FF7F67"/>
<path d="M172.931 85.3773C174.033 78.1663 169.817 71.5395 163.513 70.5762C157.21 69.6128 151.207 74.6775 150.105 81.8886C149.003 89.0997 153.219 95.7263 159.522 96.6897C165.825 97.6531 171.828 92.5884 172.931 85.3773Z" fill="#FF7E66"/>
<path d="M172.861 85.3666C173.955 78.2127 169.772 71.6386 163.52 70.6829C157.267 69.7272 151.312 74.7518 150.218 81.9057C149.125 89.0596 153.307 95.6336 159.56 96.5893C165.813 97.545 171.768 92.5205 172.861 85.3666Z" fill="#FF7D66"/>
<path d="M172.003 82.9171C173.08 75.8097 168.919 69.2854 162.709 68.3445C156.5 67.4037 150.593 72.4027 149.516 79.51C148.439 86.6174 152.6 93.1416 158.81 94.0824C165.019 95.0233 170.926 90.0244 172.003 82.9171Z" fill="#FF7C65"/>
<path d="M172.664 85.3192C173.739 78.2819 169.626 71.8151 163.476 70.8751C157.326 69.9351 151.468 74.878 150.393 81.9152C149.317 88.9525 153.431 95.4192 159.581 96.3592C165.731 97.2992 171.588 92.3564 172.664 85.3192Z" fill="#FF7B65"/>
<path d="M171.805 82.8667C172.864 75.8762 168.771 69.4589 162.662 68.5334C156.553 67.6078 150.743 72.5245 149.683 79.515C148.624 86.5055 152.718 92.9227 158.826 93.8482C164.935 94.7738 170.746 89.8573 171.805 82.8667Z" fill="#FF7A64"/>
<path d="M172.466 85.2681C173.524 78.3475 169.477 71.9877 163.428 71.0631C157.379 70.1385 151.618 74.9993 150.56 81.9199C149.502 88.8405 153.548 95.2002 159.598 96.1248C165.647 97.0494 171.408 92.1887 172.466 85.2681Z" fill="#FF7964"/>
<path d="M172.409 85.2622C173.458 78.3988 169.445 72.0916 163.446 71.1747C157.447 70.2578 151.734 75.0784 150.685 81.9419C149.636 88.8053 153.648 95.1124 159.647 96.0293C165.646 96.9462 171.36 92.1257 172.409 85.2622Z" fill="#FF7863"/>
<path d="M172.299 85.2382C173.339 78.4342 169.362 72.1817 163.416 71.2728C157.469 70.364 151.806 75.1429 150.766 81.9469C149.726 88.7509 153.703 95.0034 159.65 95.9122C165.596 96.8211 171.259 92.0421 172.299 85.2382Z" fill="#FF7762"/>
<path d="M172.199 85.2186C173.23 78.4718 169.286 72.2719 163.39 71.3708C157.494 70.4696 151.879 75.2084 150.848 81.9552C149.816 88.702 153.76 94.9019 159.656 95.8031C165.552 96.7043 171.168 91.9654 172.199 85.2186Z" fill="#FF7762"/>
<path d="M172.106 85.1913C173.129 78.5017 169.219 72.3543 163.373 71.4609C157.527 70.5674 151.96 75.2661 150.937 81.9557C149.915 88.6453 153.825 94.7927 159.671 95.6861C165.516 96.5796 171.084 91.8809 172.106 85.1913Z" fill="#FF7661"/>
<path d="M172.017 85.1719C173.031 78.5417 169.154 72.4489 163.359 71.5631C157.563 70.6773 152.044 75.334 151.03 81.9642C150.017 88.5943 153.893 94.6873 159.689 95.5731C165.484 96.4589 171.004 91.802 172.017 85.1719Z" fill="#FF7561"/>
<path d="M171.157 82.7232C172.154 76.1403 168.301 70.0975 162.549 69.2261C156.798 68.3546 151.327 72.9846 150.329 79.5675C149.332 86.1503 153.186 92.1932 158.937 93.0647C164.689 93.9361 170.16 89.306 171.157 82.7232Z" fill="#FF7460"/>
<path d="M171.831 85.1293C172.826 78.6158 169.019 72.6303 163.326 71.7602C157.634 70.8902 152.212 75.4651 151.217 81.9786C150.221 88.4921 154.029 94.4778 159.721 95.3478C165.414 96.2179 170.835 91.6429 171.831 85.1293Z" fill="#FF7360"/>
<path d="M171.738 85.1098C172.725 78.6535 168.951 72.7205 163.309 71.8581C157.667 70.9958 152.293 75.5306 151.306 81.9869C150.32 88.4433 154.093 94.3763 159.736 95.2387C165.378 96.1011 170.752 91.5661 171.738 85.1098Z" fill="#FF725F"/>
<path d="M171.645 85.0861C172.623 78.6892 168.882 72.8107 163.291 71.956C157.699 71.1013 152.373 75.5942 151.395 81.9911C150.418 88.3879 154.158 94.2666 159.75 95.1212C165.342 95.9759 170.667 91.483 171.645 85.0861Z" fill="#FF715F"/>
<path d="M171.56 85.0715C172.529 78.7318 168.823 72.9058 163.281 72.0588C157.74 71.2118 152.462 75.6646 151.493 82.0043C150.524 88.344 154.231 94.17 159.772 95.017C165.314 95.864 170.591 91.4112 171.56 85.0715Z" fill="#FF705E"/>
<path d="M171.448 85.0433C172.408 78.7608 168.737 72.9877 163.248 72.1488C157.759 71.3098 152.531 75.7227 151.571 82.0052C150.61 88.2878 154.282 94.061 159.771 94.8999C165.26 95.7388 170.488 91.3259 171.448 85.0433Z" fill="#FF6F5E"/>
<path d="M171.37 85.0279C172.321 78.8049 168.684 73.0862 163.245 72.255C157.806 71.4237 152.627 75.7946 151.675 82.0177C150.724 88.2408 154.362 93.9595 159.801 94.7908C165.239 95.622 170.419 91.251 171.37 85.0279Z" fill="#FF6E5D"/>
<path d="M171.286 85.0094C172.228 78.8435 168.624 73.1774 163.236 72.3539C157.847 71.5303 152.715 75.8611 151.773 82.027C150.83 88.1929 154.434 93.859 159.823 94.6826C165.211 95.5062 170.343 91.1753 171.286 85.0094Z" fill="#FF6D5C"/>
<path d="M171.188 84.9862C172.122 78.8797 168.551 73.2681 163.213 72.4523C157.875 71.6364 152.791 75.9252 151.858 82.0316C150.925 88.1381 154.495 93.7498 159.833 94.5656C165.171 95.3815 170.255 91.0926 171.188 84.9862Z" fill="#FF6C5C"/>
<path d="M171.088 84.9619C172.012 78.9127 168.477 73.354 163.192 72.5461C157.906 71.7383 152.872 75.9873 151.948 82.0365C151.023 88.0858 154.558 93.6446 159.843 94.4525C165.129 95.2603 170.163 91.0112 171.088 84.9619Z" fill="#FF6B5B"/>
<path d="M170.994 84.9387C171.91 78.949 168.408 73.4447 163.173 72.6445C157.938 71.8444 152.952 76.0514 152.037 82.0412C151.121 88.031 154.623 93.5354 159.858 94.3355C165.093 95.1356 170.079 90.9285 170.994 84.9387Z" fill="#FF6A5B"/>
<path d="M170.91 84.9236C171.816 78.991 168.348 73.5393 163.164 72.7468C157.979 71.9544 153.041 76.1213 152.134 82.0539C151.227 87.9865 154.695 93.4383 159.88 94.2308C165.065 95.0232 170.003 90.8562 170.91 84.9236Z" fill="#FF695A"/>
<path d="M170.04 82.4687C170.932 76.5845 167.486 71.1828 162.344 70.4037C157.202 69.6246 152.311 73.7631 151.419 79.6473C150.527 85.5316 153.973 90.9334 159.115 91.7125C164.257 92.4916 169.149 88.353 170.04 82.4687Z" fill="#FF685A"/>
<path d="M170.724 84.8809C171.613 79.0649 168.212 73.7202 163.128 72.9431C158.044 72.1661 153.202 76.2509 152.313 82.0668C151.424 87.8828 154.825 93.2276 159.909 94.0047C164.993 94.7817 169.835 90.6968 170.724 84.8809Z" fill="#FF6759"/>
<path d="M170.631 84.861C171.511 79.1022 168.146 73.8104 163.114 73.0414C158.083 72.2724 153.29 76.3173 152.41 82.0761C151.53 87.8349 154.895 93.1268 159.927 93.8959C164.958 94.6649 169.751 90.6198 170.631 84.861Z" fill="#FF6659"/>
<path d="M169.768 82.407C170.633 76.6992 167.29 71.4593 162.301 70.7034C157.313 69.9476 152.567 73.962 151.703 79.6698C150.838 85.3777 154.181 90.6176 159.169 91.3735C164.158 92.1293 168.903 88.1149 169.768 82.407Z" fill="#FF6558"/>
<path d="M169.668 82.3834C170.524 76.7328 167.215 71.5456 162.276 70.7974C157.338 70.0492 152.641 74.0233 151.785 79.6739C150.928 85.3245 154.238 90.5118 159.176 91.26C164.114 92.0083 168.811 88.034 169.668 82.3834Z" fill="#FF6457"/>
<path d="M170.336 84.7868C171.19 79.2041 167.925 74.0737 163.044 73.3278C158.164 72.5818 153.515 76.5027 152.662 82.0854C151.809 87.6681 155.074 92.7986 159.954 93.5445C164.835 94.2905 169.483 90.3695 170.336 84.7868Z" fill="#FF6357"/>
<path d="M170.259 84.7718C171.103 79.2463 167.874 74.1688 163.046 73.4309C158.218 72.693 153.62 76.5741 152.775 82.0996C151.931 87.6251 155.16 92.7027 159.988 93.4406C164.816 94.1785 169.414 90.2974 170.259 84.7718Z" fill="#FF6256"/>
<path d="M170.174 84.7606C171.01 79.2923 167.814 74.2674 163.037 73.5371C158.259 72.8069 153.709 76.6479 152.873 82.1162C152.037 87.5845 155.232 92.6095 160.01 93.3398C164.788 94.07 169.338 90.2289 170.174 84.7606Z" fill="#FF6156"/>
<path d="M170.065 84.733C170.892 79.3241 167.73 74.3537 163.003 73.6311C158.275 72.9086 153.773 76.7076 152.946 82.1165C152.119 87.5253 155.281 92.4959 160.009 93.2184C164.736 93.941 169.239 90.1419 170.065 84.733Z" fill="#FF6055"/>
<path d="M169.969 84.7057C170.787 79.354 167.658 74.4361 162.981 73.7213C158.304 73.0064 153.85 76.7653 153.032 82.117C152.214 87.4687 155.342 92.3866 160.019 93.1015C164.696 93.8163 169.151 90.0574 169.969 84.7057Z" fill="#FF5F55"/>
<path d="M169.883 84.6903C170.692 79.398 167.597 74.5346 162.971 73.8274C158.344 73.1203 153.938 76.8372 153.129 82.1294C152.32 87.4217 155.415 92.2852 160.041 92.9923C164.668 93.6995 169.075 89.9825 169.883 84.6903Z" fill="#FF5E54"/>
<path d="M169.794 84.667C170.594 79.432 167.535 74.6214 162.961 73.9223C158.387 73.2232 154.03 76.9002 153.23 82.1353C152.43 87.3703 155.489 92.181 160.063 92.8801C164.637 93.5792 168.994 89.9021 169.794 84.667Z" fill="#FF5D54"/>
<path d="M168.918 82.2128C169.704 77.0295 166.668 72.2711 162.137 71.5847C157.607 70.8982 153.297 74.5436 152.512 79.727C151.727 84.9103 154.763 89.6688 159.293 90.3552C163.824 91.0417 168.133 87.3962 168.918 82.2128Z" fill="#FF5C53"/>
<path d="M169.612 84.6282C170.395 79.5098 167.402 74.8062 162.929 74.1225C158.456 73.4388 154.195 77.0337 153.413 82.1522C152.63 87.2706 155.623 91.9742 160.096 92.6579C164.569 93.3417 168.83 89.7466 169.612 84.6282Z" fill="#FF5B53"/>
<path d="M169.528 84.6096C170.301 79.5484 167.343 74.8974 162.92 74.2214C158.496 73.5453 154.284 77.1002 153.51 82.1614C152.736 87.2227 155.695 91.8737 160.118 92.5498C164.541 93.2258 168.754 89.6709 169.528 84.6096Z" fill="#FF5A52"/>
<path d="M169.426 84.5896C170.191 79.5878 167.267 74.9916 162.897 74.3236C158.526 73.6555 154.364 77.1687 153.599 82.1705C152.835 87.1723 155.758 91.7686 160.128 92.4366C164.499 93.1046 168.662 89.5913 169.426 84.5896Z" fill="#FF5951"/>
<path d="M169.322 84.5617C170.078 79.6171 167.188 75.0735 162.868 74.4132C158.548 73.7528 154.433 77.2259 153.677 82.1705C152.921 87.1151 155.811 91.6588 160.131 92.3191C164.451 92.9795 168.566 89.5063 169.322 84.5617Z" fill="#FF5851"/>
<path d="M169.24 84.5473C169.987 79.6622 167.131 75.173 162.861 74.5203C158.591 73.8677 154.524 77.2988 153.778 82.1839C153.031 87.0691 155.887 91.5584 160.157 92.211C164.427 92.8636 168.494 89.4324 169.24 84.5473Z" fill="#FF5750"/>
<path d="M168.376 82.0979C169.109 77.2628 166.277 72.8241 162.051 72.1838C157.825 71.5435 153.805 74.9441 153.073 79.7792C152.34 84.6144 155.172 89.0532 159.398 89.6935C163.624 90.3338 167.643 86.9331 168.376 82.0979Z" fill="#FF5650"/>
<path d="M169.054 84.5033C169.783 79.7348 166.996 75.3529 162.829 74.716C158.662 74.0791 154.693 77.4284 153.964 82.1969C153.235 86.9654 156.023 91.3474 160.19 91.9843C164.357 92.6212 168.325 89.2718 169.054 84.5033Z" fill="#FF554F"/>
<path d="M168.962 84.4808C169.682 79.7695 166.928 75.4402 162.812 74.811C158.695 74.1818 154.774 77.4909 154.054 82.2023C153.334 86.9136 156.087 91.243 160.204 91.8722C164.321 92.5014 168.242 89.1921 168.962 84.4808Z" fill="#FF544F"/>
<path d="M168.885 84.4652C169.596 79.811 166.876 75.5343 162.81 74.9128C158.744 74.2913 154.87 77.5603 154.159 82.2145C153.448 86.8686 156.168 91.1454 160.234 91.767C164.3 92.3885 168.173 89.1193 168.885 84.4652Z" fill="#FF534E"/>
<path d="M168.784 84.4464C169.486 79.8517 166.8 75.6294 162.784 75.0156C158.768 74.4018 154.943 77.6288 154.24 82.2235C153.538 86.8182 156.224 91.0406 160.24 91.6544C164.257 92.2682 168.081 89.0411 168.784 84.4464Z" fill="#FF524E"/>
<path d="M168.676 84.4146C169.369 79.8771 166.716 75.7075 162.751 75.1013C158.785 74.4952 155.008 77.6821 154.314 82.2196C153.621 86.7571 156.274 90.9269 160.239 91.5331C164.205 92.1392 167.982 88.9521 168.676 84.4146Z" fill="#FF514D"/>
</g>
<path d="M193.574 82.3368C195.118 76.0525 192.887 70.1025 188.591 69.0473C184.295 67.9921 179.561 72.2313 178.018 78.5157C176.474 84.8001 178.705 90.7499 183.001 91.8051C187.297 92.8603 192.031 88.6212 193.574 82.3368Z" fill="#FF9E78"/>
<path d="M190.089 83.6179C186.201 86.4331 181.857 85.8466 178.602 83.4923C178.743 85.4765 178.72 87.4688 178.535 89.4493H178.615L179.318 104.949C180.789 100.949 181.413 96.353 181.451 91.2464C181.845 91.4854 182.267 91.6753 182.708 91.812C186.951 93.0687 191.756 89.0094 193.432 82.7634C193.846 81.2263 194.038 79.6379 194.002 78.0464C193.365 80.2928 191.986 82.2569 190.089 83.6179V83.6179Z" fill="url(#paint13_linear_1873_8182)"/>
<path d="M182.688 80.6893L186.525 81.0161C186.144 75.013 190.479 72.7593 190.479 72.7593C183.098 70.5642 182.688 80.6893 182.688 80.6893Z" fill="url(#paint14_linear_1873_8182)"/>
<path d="M178.826 16.7041C176.049 12.4479 172.735 11.8782 169.158 12.9338C170.913 11.6101 170.238 9.90928 170.238 9.90928C169.614 9.85597 168.986 9.949 168.405 10.181C167.823 10.413 167.303 10.7775 166.887 11.2456C169.153 8.44307 167.386 4.75661 167.386 4.75661C161.801 7.58429 163.15 10.4371 163.15 10.4371C160.57 5.7662 153.419 4.69796 153.419 4.69796C153.509 5.38976 153.697 6.06532 153.976 6.70456C141.895 -0.299723 126.688 0.0018965 126.688 0.0018965C126.111 1.15347 125.947 2.46805 126.223 3.72607C120.557 3.85196 114.909 4.41216 109.328 5.40173C107.933 16.8591 111.511 23.39 115.222 27.0136C116.567 28.3374 118.54 30.5828 123.831 32.5433C123.831 32.5433 129.495 35.3459 138.133 35.0107C145.862 34.7091 156.615 30.0256 156.615 30.0256C164.307 29.3889 176.438 52.622 178.604 71.7748C179.103 76.1567 182.622 70.8574 182.622 70.8574C182.638 66.957 182.431 63.0589 182.002 59.1822C182.006 59.1319 186.141 27.885 178.826 16.7041Z" fill="url(#paint15_linear_1873_8182)"/>
<path d="M111.416 21.7432C100.105 25.9323 106.627 67.7108 107.289 74.5895C107.325 75.058 107.325 75.5285 107.289 75.997C107.289 76.2525 108.207 76.131 108.127 75.8755C108.047 75.4276 108.031 74.9705 108.081 74.5182C108.919 61.6617 117.414 33.2508 123.786 32.5428C123.794 32.5428 117.44 29.2334 111.416 21.7432Z" fill="#59352C"/>
<g opacity="0.44">
<path d="M127.299 100.379C134.902 98.67 139.39 89.8332 137.323 80.6416C135.257 71.45 127.419 65.3842 119.816 67.0933C112.214 68.8025 107.726 77.6393 109.792 86.8309C111.859 96.0225 119.697 102.088 127.299 100.379Z" fill="#FF9E78"/>
<path d="M127.275 100.273C134.828 98.5753 139.286 89.7951 137.233 80.6622C135.18 71.5293 127.393 65.502 119.84 67.2C112.287 68.8979 107.828 77.6781 109.882 86.811C111.935 95.944 119.722 101.971 127.275 100.273Z" fill="#FF9D77"/>
<path d="M127.251 100.166C134.756 98.4792 139.187 89.7552 137.147 80.681C135.107 71.6067 127.369 65.6184 119.863 67.3057C112.358 68.993 107.927 77.7169 109.967 86.7912C112.007 95.8654 119.745 101.854 127.251 100.166Z" fill="#FF9C77"/>
<path d="M127.226 100.052C134.682 98.3756 139.083 89.7083 137.056 80.6928C135.029 71.6772 127.342 65.7274 119.887 67.4036C112.431 69.0797 108.03 77.747 110.057 86.7625C112.083 95.7781 119.77 101.728 127.226 100.052Z" fill="#FF9B76"/>
<path d="M127.206 99.9581C134.614 98.2927 138.988 89.6815 136.974 80.7247C134.96 71.7678 127.322 65.857 119.914 67.5225C112.506 69.1879 108.132 77.799 110.146 86.7559C112.16 95.7127 119.798 101.624 127.206 99.9581Z" fill="#FF9A76"/>
<path d="M127.182 99.8474C134.54 98.1931 138.884 89.6386 136.884 80.7404C134.883 71.8422 127.296 65.9699 119.937 67.6242C112.579 69.2785 108.235 77.833 110.235 86.7312C112.236 95.6293 119.823 101.502 127.182 99.8474Z" fill="#FF9975"/>
<path d="M127.155 99.7416C134.464 98.0984 138.779 89.6024 136.792 80.7652C134.806 71.928 127.27 66.096 119.961 67.7392C112.652 69.3823 108.337 77.8783 110.324 86.7155C112.31 95.5528 119.846 101.385 127.155 99.7416Z" fill="#FF9875"/>
<path d="M127.131 99.6357C134.393 98.0032 138.68 89.5634 136.706 80.7849C134.733 72.0064 127.246 66.2134 119.984 67.8459C112.723 69.4783 108.436 77.9181 110.409 86.6967C112.383 95.4752 119.869 101.268 127.131 99.6357Z" fill="#FF9774"/>
<path d="M127.107 99.521C134.319 97.8997 138.576 89.5165 136.616 80.7967C134.655 72.0769 127.22 66.3224 120.008 67.9437C112.796 69.565 108.538 77.9482 110.499 86.668C112.459 95.3879 119.895 101.142 127.107 99.521Z" fill="#FF9674"/>
<path d="M127.082 99.4181C134.247 97.8075 138.477 89.4805 136.529 80.8194C134.582 72.1582 127.196 66.4427 120.031 68.0534C112.867 69.664 108.637 77.991 110.584 86.6521C112.531 95.3133 119.918 101.029 127.082 99.4181Z" fill="#FF9573"/>
<path d="M127.058 99.3211C134.173 97.7216 138.373 89.4512 136.439 80.8488C134.505 72.2463 127.17 66.5693 120.055 68.1688C112.94 69.7683 108.74 78.0386 110.674 86.6411C112.607 95.2435 119.943 100.921 127.058 99.3211Z" fill="#FF9472"/>
<path d="M127.037 99.2103C134.103 97.622 138.273 89.4083 136.352 80.8645C134.432 72.3207 127.147 66.6822 120.082 68.2705C113.017 69.8589 108.846 78.0726 110.767 86.6164C112.688 95.1601 119.972 100.799 127.037 99.2103Z" fill="#FF9372"/>
<path d="M127.013 99.1084C134.031 97.5307 138.174 89.3732 136.266 80.8881C134.359 72.403 127.123 66.8035 120.105 68.3811C113.088 69.9588 108.945 78.1163 110.852 86.6014C112.76 95.0865 119.995 100.686 127.013 99.1084Z" fill="#FF9271"/>
<path d="M126.989 98.9937C133.957 97.4272 138.07 89.3263 136.176 80.8999C134.281 72.4735 127.097 66.9125 120.129 68.479C113.161 70.0455 109.047 78.1464 110.942 86.5728C112.836 94.9992 120.021 100.56 126.989 98.9937Z" fill="#FF9171"/>
<path d="M126.965 98.8918C133.885 97.3359 137.971 89.2912 136.09 80.9235C134.209 72.5558 127.073 67.0337 120.152 68.5896C113.232 70.1454 109.146 78.1901 111.027 86.5578C112.908 94.9255 120.044 100.448 126.965 98.8918Z" fill="#FF9070"/>
<path d="M126.94 98.781C133.811 97.2363 137.867 89.2482 135.999 80.9392C134.131 72.6302 127.047 67.1466 120.176 68.6913C113.305 70.236 109.249 78.224 111.117 86.5331C112.985 94.8421 120.069 100.326 126.94 98.781Z" fill="#FF8F70"/>
<path d="M126.914 98.6792C133.738 97.1452 137.766 89.2152 135.912 80.9671C134.058 72.719 127.023 67.2762 120.199 68.8103C113.375 70.3443 109.347 78.2743 111.201 86.5223C113.055 94.7704 120.09 100.213 126.914 98.6792Z" fill="#FF8E6F"/>
<path d="M126.89 98.5772C133.664 97.0543 137.663 89.181 135.822 80.9916C133.981 72.8022 126.997 67.3979 120.223 68.9208C113.449 70.4437 109.449 78.317 111.291 86.5064C113.132 94.6958 120.116 100.1 126.89 98.5772Z" fill="#FF8D6F"/>
<path d="M126.865 98.4664C133.59 96.9547 137.559 89.138 135.731 81.0073C133.903 72.8766 126.97 67.5108 120.246 69.0226C113.522 70.5343 109.552 78.351 111.38 86.4817C113.208 94.6124 120.141 99.9781 126.865 98.4664Z" fill="#FF8C6E"/>
<path d="M126.845 98.3601C133.522 96.859 137.464 89.0985 135.649 81.0265C133.834 72.9545 126.95 67.6277 120.273 69.1288C113.596 70.6298 109.655 78.3903 111.469 86.4623C113.284 94.5343 120.168 99.8611 126.845 98.3601Z" fill="#FF8B6E"/>
<path d="M126.821 98.2498C133.448 96.7599 137.36 89.056 135.558 81.0427C133.757 73.0294 126.924 67.7411 120.297 69.231C113.669 70.7209 109.757 78.4248 111.559 86.4381C113.36 94.4514 120.193 99.7397 126.821 98.2498Z" fill="#FF8A6D"/>
<path d="M126.796 98.1395C133.376 96.6603 137.261 89.0127 135.472 81.058C133.684 73.1034 126.9 67.8541 120.32 69.3333C113.74 70.8125 109.856 78.4602 111.644 86.4148C113.432 94.3695 120.216 99.6188 126.796 98.1395Z" fill="#FF896C"/>
<path d="M126.772 98.0459C133.302 96.5778 137.157 88.9868 135.382 81.0908C133.607 73.1949 126.874 67.9841 120.344 69.4522C113.813 70.9202 109.959 78.5113 111.734 86.4072C113.509 94.3031 120.242 99.514 126.772 98.0459Z" fill="#FF886C"/>
<path d="M126.747 97.9268C133.228 96.4699 137.053 88.9355 135.291 81.0982C133.53 73.261 126.848 68.0887 120.367 69.5456C113.886 71.0025 110.061 78.5369 111.823 86.3742C113.585 94.2114 120.267 99.3837 126.747 97.9268Z" fill="#FF876B"/>
<path d="M126.723 97.8166C133.156 96.3704 136.954 88.8921 135.205 81.1136C133.457 73.335 126.824 68.2017 120.391 69.6479C113.957 71.0942 110.16 78.5724 111.908 86.3509C113.657 94.1295 120.29 99.2629 126.723 97.8166Z" fill="#FF866B"/>
<path d="M126.701 97.7103C133.084 96.2753 136.853 88.8555 135.118 81.1379C133.383 73.4203 126.801 68.3273 120.418 69.7624C114.034 71.1975 110.266 78.6172 112.001 86.3348C113.736 94.0524 120.317 99.1454 126.701 97.7103Z" fill="#FF856A"/>
<path d="M126.673 97.5957C133.009 96.1713 136.749 88.8078 135.028 81.1488C133.306 73.4899 126.774 68.4359 120.438 69.8603C114.101 71.2847 110.361 78.6482 112.082 86.3071C113.804 93.9661 120.337 99.0201 126.673 97.5957Z" fill="#FF846A"/>
<path d="M126.652 97.4976C132.939 96.0844 136.65 88.7775 134.941 81.1772C133.233 73.577 126.751 68.5615 120.465 69.9747C114.178 71.388 110.467 78.6949 112.176 86.2951C113.884 93.8954 120.366 98.9109 126.652 97.4976Z" fill="#FF8369"/>
<path d="M126.628 97.4C132.865 95.9979 136.546 88.7477 134.851 81.2061C133.155 73.6646 126.725 68.6876 120.488 70.0897C114.251 71.4918 110.57 78.742 112.265 86.2836C113.961 93.8251 120.391 98.8021 126.628 97.4Z" fill="#FF8269"/>
<path d="M126.604 97.2854C132.793 95.894 136.447 88.6999 134.765 81.2171C133.082 73.7342 126.701 68.7961 120.512 70.1876C114.322 71.579 110.668 78.7731 112.351 86.2559C114.033 93.7388 120.414 98.6769 126.604 97.2854Z" fill="#FF8168"/>
<path d="M126.579 97.179C132.719 95.7987 136.343 88.6613 134.674 81.2371C133.005 73.813 126.675 68.9134 120.535 70.2937C114.395 71.674 110.771 78.8114 112.44 86.2356C114.109 93.6598 120.439 98.5593 126.579 97.179Z" fill="#FF8067"/>
<path d="M126.555 97.0766C132.647 95.707 136.244 88.6258 134.588 81.2603C132.932 73.8948 126.651 69.0342 120.559 70.4039C114.466 71.7735 110.87 78.8547 112.525 86.2201C114.181 93.5856 120.462 98.4462 126.555 97.0766Z" fill="#FF7F67"/>
<path d="M126.53 96.958C132.573 95.5996 136.14 88.575 134.498 81.2682C132.855 73.9614 126.625 69.1393 120.582 70.4978C114.539 71.8563 110.972 78.8808 112.615 86.1876C114.258 93.4944 120.488 98.3165 126.53 96.958Z" fill="#FF7E66"/>
<path d="M126.506 96.86C132.502 95.5122 136.041 88.5439 134.411 81.2958C132.782 74.0477 126.601 69.2645 120.606 70.6123C114.61 71.9601 111.071 78.9285 112.7 86.1766C114.33 93.4247 120.511 98.2078 126.506 96.86Z" fill="#FF7D66"/>
<path d="M126.486 96.7625C132.431 95.4258 135.941 88.5141 134.325 81.3246C132.709 74.1352 126.578 69.3906 120.633 70.7273C114.687 72.0639 111.177 78.9756 112.794 86.165C114.41 93.3544 120.54 98.0991 126.486 96.7625Z" fill="#FF7C65"/>
<path d="M126.46 96.644C132.356 95.3185 135.836 88.4652 134.233 81.3367C132.631 74.2083 126.552 69.504 120.656 70.8295C114.76 72.155 111.28 79.0082 112.882 86.1367C114.485 93.2652 120.564 97.9694 126.46 96.644Z" fill="#FF7B65"/>
<path d="M126.435 96.5415C132.284 95.2267 135.737 88.4296 134.147 81.3599C132.558 74.2901 126.528 69.6248 120.68 70.9396C114.831 72.2544 111.378 79.0515 112.968 86.1213C114.557 93.191 120.587 97.8564 126.435 96.5415Z" fill="#FF7A64"/>
<path d="M126.411 96.4269C132.21 95.1232 135.633 88.3827 134.057 81.3717C132.481 74.3606 126.502 69.7338 120.703 71.0375C114.904 72.3411 111.481 79.0815 113.057 86.0926C114.633 93.1037 120.612 97.7305 126.411 96.4269Z" fill="#FF7964"/>
<path d="M126.387 96.3205C132.138 95.0275 135.534 88.3433 133.971 81.3909C132.408 74.4385 126.478 69.8507 120.727 71.1437C114.975 72.4367 111.58 79.1209 113.142 86.0733C114.705 93.0257 120.635 97.6135 126.387 96.3205Z" fill="#FF7863"/>
<path d="M126.366 96.2313C132.068 94.9494 135.434 88.3218 133.884 81.4281C132.334 74.5344 126.456 69.9851 120.754 71.2669C115.052 72.5488 111.686 79.1763 113.236 86.07C114.786 92.9638 120.664 97.5131 126.366 96.2313Z" fill="#FF7762"/>
<path d="M126.342 96.1166C131.994 94.8459 135.33 88.2749 133.794 81.4399C132.257 74.6049 126.429 70.0941 120.777 71.3648C115.125 72.6354 111.789 79.2064 113.325 86.0414C114.862 92.8764 120.689 97.3872 126.342 96.1166Z" fill="#FF7762"/>
<path d="M126.317 96.0102C131.922 94.7502 135.231 88.2355 133.707 81.4592C132.184 74.6828 126.406 70.211 120.801 71.471C115.196 72.731 111.887 79.2457 113.411 86.0221C114.934 92.7984 120.713 97.2703 126.317 96.0102Z" fill="#FF7661"/>
<path d="M126.293 95.9082C131.848 94.6594 135.127 88.2013 133.617 81.4836C132.107 74.766 126.379 70.3327 120.824 71.5815C115.269 72.8304 111.99 79.2885 113.5 86.0061C115.01 92.7238 120.738 97.1571 126.293 95.9082Z" fill="#FF7561"/>
<path d="M126.269 95.7892C131.777 94.551 135.028 88.1491 133.531 81.4902C132.034 74.8312 126.355 70.4368 120.848 71.675C115.34 72.9132 112.089 79.3151 113.586 85.9741C115.083 92.633 120.761 97.0274 126.269 95.7892Z" fill="#FF7460"/>
<path d="M126.244 95.6789C131.702 94.4519 134.924 88.1066 133.44 81.5064C131.957 74.9061 126.329 70.5502 120.871 71.7773C115.413 73.0043 112.191 79.3496 113.675 85.9498C115.159 92.5501 120.786 96.9059 126.244 95.6789Z" fill="#FF7360"/>
<path d="M126.222 95.5854C131.631 94.3695 134.823 88.0827 133.353 81.5434C131.883 75.0041 126.307 70.6886 120.898 71.9044C115.49 73.1203 112.297 79.4071 113.767 85.9464C115.237 92.4857 120.814 96.8013 126.222 95.5854Z" fill="#FF725F"/>
<path d="M126.198 95.4747C131.559 94.2695 134.724 88.0389 133.267 81.5582C131.81 75.0776 126.283 70.801 120.922 72.0063C115.561 73.2115 112.396 79.442 113.853 85.9227C115.31 92.4033 120.837 96.6799 126.198 95.4747Z" fill="#FF715F"/>
<path d="M126.173 95.3771C131.485 94.1831 134.62 88.0091 133.176 81.5871C131.733 75.1652 126.257 70.9271 120.945 72.1212C115.634 73.3152 112.498 79.4892 113.942 85.9111C115.386 92.3331 120.862 96.5711 126.173 95.3771Z" fill="#FF705E"/>
<path d="M126.145 95.2664C131.409 94.083 134.517 87.9652 133.086 81.602C131.656 75.2387 126.229 71.0396 120.965 72.223C115.701 73.4064 112.593 79.5241 114.024 85.8874C115.454 92.2506 120.881 96.4498 126.145 95.2664Z" fill="#FF6F5E"/>
<path d="M126.125 95.1522C131.339 93.9799 134.417 87.9188 133 81.6142C131.582 75.3097 126.206 71.1491 120.992 72.3213C115.778 73.4936 112.7 79.5547 114.117 85.8592C115.534 92.1638 120.91 96.3244 126.125 95.1522Z" fill="#FF6E5D"/>
<path d="M126.101 95.0493C131.267 93.8877 134.318 87.8828 132.914 81.6369C131.509 75.391 126.183 71.2694 121.016 72.431C115.849 73.5925 112.798 79.5975 114.203 85.8433C115.607 92.0892 120.934 96.2109 126.101 95.0493Z" fill="#FF6D5C"/>
<path d="M126.076 94.9561C131.193 93.8057 134.214 87.8574 132.823 81.6702C131.432 75.483 126.156 71.3999 121.039 72.5503C115.922 73.7007 112.901 79.649 114.292 85.8362C115.683 92.0234 120.959 96.1065 126.076 94.9561Z" fill="#FF6C5C"/>
<path d="M126.052 94.8414C131.119 93.7021 134.11 87.8105 132.733 81.682C131.355 75.5535 126.13 71.5089 121.062 72.6481C115.995 73.7874 113.004 79.679 114.381 85.8075C115.759 91.936 120.984 95.9806 126.052 94.8414Z" fill="#FF6B5B"/>
<path d="M126.027 94.7395C131.048 93.6109 134.011 87.7754 132.646 81.7056C131.282 75.6358 126.106 71.6302 121.086 72.7588C116.066 73.8873 113.102 79.7228 114.467 85.7926C115.831 91.8624 121.007 95.868 126.027 94.7395Z" fill="#FF6A5B"/>
<path d="M126.003 94.6287C130.974 93.5113 133.907 87.7324 132.556 81.7213C131.205 75.7102 126.08 71.7431 121.109 72.8605C116.139 73.9779 113.205 79.7567 114.556 85.7679C115.908 91.779 121.032 95.7461 126.003 94.6287Z" fill="#FF695A"/>
<path d="M125.981 94.5059C130.904 93.3991 133.81 87.6784 132.473 81.7282C131.135 75.778 126.06 71.8517 121.137 72.9584C116.214 74.0652 113.307 79.786 114.645 85.7361C115.982 91.6863 121.058 95.6127 125.981 94.5059Z" fill="#FF685A"/>
<path d="M125.956 94.3912C130.83 93.2956 133.707 87.6315 132.382 81.74C131.058 75.8485 126.034 71.9607 121.16 73.0563C116.287 74.1519 113.41 79.816 114.734 85.7075C116.059 91.599 121.083 95.4868 125.956 94.3912Z" fill="#FF6759"/>
<path d="M125.932 94.2976C130.756 93.2131 133.603 87.6056 132.292 81.7728C130.981 75.94 126.007 72.0907 121.184 73.1751C116.36 74.2596 113.512 79.8671 114.823 85.6999C116.135 91.5327 121.108 95.382 125.932 94.2976Z" fill="#FF6659"/>
<path d="M125.908 94.1951C130.684 93.1213 133.504 87.57 132.206 81.7959C130.908 76.0218 125.983 72.2115 121.207 73.2852C116.431 74.359 113.611 79.9103 114.909 85.6844C116.207 91.4585 121.131 95.2689 125.908 94.1951Z" fill="#FF6558"/>
<path d="M125.883 94.0848C130.61 93.0222 133.4 87.5275 132.115 81.8121C130.831 76.0967 125.957 72.3249 121.23 73.3875C116.504 74.4501 113.713 79.9448 114.998 85.6602C116.283 91.3756 121.157 95.1474 125.883 94.0848Z" fill="#FF6457"/>
<path d="M125.859 93.979C130.538 92.927 133.301 87.4886 132.029 81.8318C130.757 76.1751 125.933 72.4422 121.254 73.4942C116.575 74.5461 113.812 79.9846 115.084 85.6413C116.356 91.298 121.18 95.031 125.859 93.979Z" fill="#FF6357"/>
<path d="M125.839 93.8682C130.468 92.8274 133.201 87.4456 131.943 81.8475C130.684 76.2495 125.911 72.5552 121.281 73.5959C116.652 74.6367 113.919 80.0185 115.177 85.6166C116.436 91.2146 121.209 94.909 125.839 93.8682Z" fill="#FF6256"/>
<path d="M125.814 93.7536C130.394 92.7239 133.097 87.3987 131.852 81.8594C130.607 76.32 125.885 72.6642 121.305 73.6938C116.725 74.7234 114.021 80.0486 115.267 85.588C116.512 91.1273 121.234 94.7832 125.814 93.7536Z" fill="#FF6156"/>
<path d="M125.79 93.6643C130.323 92.6453 132.998 87.3763 131.766 81.8957C130.534 76.415 125.861 72.7981 121.328 73.8171C116.796 74.8361 114.12 80.105 115.352 85.5857C116.584 91.0664 121.257 94.6833 125.79 93.6643Z" fill="#FF6055"/>
<path d="M125.764 93.5536C130.247 92.5458 132.893 87.3353 131.675 81.9156C130.456 76.4959 125.834 72.9193 121.352 73.9271C116.869 74.935 114.222 80.1455 115.44 85.5652C116.659 90.9849 121.281 94.5614 125.764 93.5536Z" fill="#FF5F55"/>
<path d="M125.74 93.4395C130.175 92.4423 132.794 87.288 131.589 81.927C130.383 76.566 125.811 73.0284 121.375 74.0255C116.94 75.0227 114.321 80.177 115.526 85.538C116.731 90.899 121.304 94.4366 125.74 93.4395Z" fill="#FF5E54"/>
<path d="M125.715 93.3331C130.101 92.3471 132.69 87.2494 131.498 81.9471C130.306 76.6448 125.784 73.1457 121.398 74.1317C117.013 75.1177 114.423 80.2154 115.615 85.5177C116.807 90.82 121.329 94.3191 125.715 93.3331Z" fill="#FF5D54"/>
<path d="M125.695 93.2263C130.031 92.2515 132.59 87.2104 131.412 81.9667C130.233 76.7231 125.762 73.2625 121.426 74.2373C117.09 75.2122 114.53 80.2532 115.709 85.4969C116.887 90.7405 121.358 94.2011 125.695 93.2263Z" fill="#FF5C53"/>
<path d="M131.507 94.2302C135.815 93.2631 138.359 88.2571 137.19 83.049C136.021 77.8409 131.581 74.4029 127.273 75.37C122.965 76.3371 120.42 81.3431 121.59 86.5511C122.759 91.7592 127.199 95.1973 131.507 94.2302Z" fill="#FF5B53"/>
<path d="M125.646 93.0263C129.885 92.0733 132.387 87.1451 131.235 82.0188C130.082 76.8925 125.712 73.5094 121.473 74.4624C117.233 75.4154 114.731 80.3436 115.884 85.4699C117.036 90.5962 121.407 93.9793 125.646 93.0263Z" fill="#FF5A52"/>
<path d="M125.618 92.9161C129.81 91.9737 132.284 87.1017 131.145 82.0341C130.006 76.9665 125.684 73.6224 121.492 74.5647C117.3 75.5071 114.826 80.3791 115.965 85.4466C117.104 90.5142 121.426 93.8584 125.618 92.9161Z" fill="#FF5951"/>
<path d="M125.597 92.8053C129.739 91.8741 132.184 87.0587 131.058 82.0498C129.932 77.0409 125.662 73.7353 121.519 74.6665C117.377 75.5977 114.932 80.413 116.058 85.4219C117.184 90.4308 121.455 93.7364 125.597 92.8053Z" fill="#FF5851"/>
<path d="M125.573 92.7038C129.668 91.7833 132.085 87.0241 130.972 82.0739C129.859 77.1237 125.638 73.857 121.543 74.7776C117.448 75.6981 115.031 80.4572 116.144 85.4074C117.257 90.3576 121.478 93.6243 125.573 92.7038Z" fill="#FF5750"/>
<path d="M125.549 92.5847C129.594 91.6754 131.981 86.9728 130.882 82.0813C129.782 77.1898 125.611 73.9617 121.566 74.871C117.521 75.7804 115.134 80.4829 116.233 85.3744C117.333 90.2659 121.504 93.4941 125.549 92.5847Z" fill="#FF5650"/>
<path d="M125.522 92.4872C129.518 91.589 131.876 86.945 130.79 82.1144C129.704 77.2838 125.585 74.0961 121.59 74.9943C117.594 75.8925 115.236 80.5365 116.322 85.3671C117.408 90.1976 121.527 93.3854 125.522 92.4872Z" fill="#FF554F"/>
<path d="M125.502 92.3849C129.45 91.4973 131.781 86.9095 130.708 82.1376C129.635 77.3657 125.565 74.2168 121.617 75.1044C117.669 75.9919 115.338 80.5798 116.411 85.3517C117.484 90.1235 121.554 93.2724 125.502 92.3849Z" fill="#FF544F"/>
<path d="M125.478 92.2741C129.376 91.3977 131.677 86.8665 130.618 82.1533C129.558 77.4401 125.539 74.3298 121.641 75.2061C117.742 76.0825 115.441 80.6138 116.501 85.3269C117.56 90.0401 121.579 93.1505 125.478 92.2741Z" fill="#FF534E"/>
<path d="M125.453 92.1766C129.304 91.3108 131.578 86.8358 130.531 82.1813C129.485 77.5268 125.515 74.4554 121.664 75.3211C117.813 76.1869 115.54 80.6619 116.586 85.3164C117.632 89.9709 121.602 93.0423 125.453 92.1766Z" fill="#FF524E"/>
<path d="M125.429 92.0575C129.23 91.2029 131.474 86.7845 130.441 82.1887C129.408 77.5929 125.489 74.56 121.687 75.4146C117.886 76.2692 115.642 80.6875 116.675 85.2834C117.709 89.8792 121.628 92.912 125.429 92.0575Z" fill="#FF514D"/>
</g>
<path opacity="0.11" d="M177.985 15.5652C176.979 14.2228 175.572 13.2354 173.968 12.7459C172.74 13.0517 171.454 13.4245 170.164 13.8057C166.276 14.9368 162.163 15.783 158.091 15.4814C153.361 15.1295 149.118 13.2779 144.824 11.4179C142.658 10.4795 140.496 9.52442 138.272 8.7201C133.513 7.00673 127.92 5.36878 122.81 5.85053C120.296 6.08512 117.845 7.00255 115.571 8.10011C113.656 9.02151 111.946 10.3195 110.544 11.9164C110.1 12.3464 109.633 12.7519 109.145 13.1313C109.287 14.8498 109.597 16.5503 110.07 18.2086C110.305 18.0452 110.514 17.9027 110.581 17.8399C111.513 17.0708 112.529 16.4102 113.61 15.871C114.911 15.2186 116.306 14.7747 117.745 14.5556C123.807 13.7178 129.609 15.8375 135.243 17.7813C137.547 18.5772 139.901 19.5281 142.386 20.3869C144.92 21.3105 147.501 22.0992 150.119 22.7496C154.635 23.8388 160.076 23.931 164.521 22.4061C165.12 22.2008 165.715 22.0249 166.289 21.8071C168.356 20.9925 170.354 20.0119 172.263 18.8746C173.968 17.8651 175.425 16.9476 176.72 16.2438C177.151 15.9841 177.579 15.7453 177.985 15.5652Z" fill="#FFBC80"/>
<path d="M146.933 47.6118C146.933 47.6118 142.937 63.2751 151.281 71.645L170.011 68.9305C170.011 68.9305 169.835 61.7419 168.185 57.0081C166.836 53.1415 146.933 47.6118 146.933 47.6118Z" fill="url(#paint16_linear_1873_8182)"/>
<path d="M115.45 59.8983C114.57 63.6141 113.883 73.0313 113.883 73.0313L131.536 74.0786C138.984 64.5357 132.985 48.73 132.985 48.73C132.985 48.73 116.325 56.1993 115.45 59.8983Z" fill="url(#paint17_linear_1873_8182)"/>
<path d="M160.866 63.8194C152.927 63.7859 151.285 71.6448 151.285 71.6448C151.285 71.6448 153.572 73.1864 161.339 72.315C170.555 71.2803 170.015 68.9302 170.015 68.9302C170.015 68.9302 168.804 63.853 160.866 63.8194Z" fill="white"/>
<path d="M113.883 73.0315C113.883 73.0315 114.176 74.8538 121.189 75.256C129.513 75.7293 131.536 74.0788 131.536 74.0788C131.536 74.0788 130.133 69.5378 126.689 67.5102C123.246 65.4826 117.762 65.9602 113.883 73.0315Z" fill="white"/>
<path d="M121.211 75.2556C123.37 75.4061 125.538 75.3696 127.691 75.1467L127.721 75.0587C128.45 71.9923 127.482 69.1353 125.555 68.6745C123.628 68.2137 121.47 70.325 120.741 73.3914C120.6 73.9873 120.525 74.5971 120.52 75.2095L121.211 75.2556Z" fill="url(#paint18_linear_1873_8182)"/>
<path d="M161.336 72.315C162.362 72.1977 163.259 72.0679 164.054 71.9254C164.599 68.6914 163.615 65.7464 161.759 65.2228C159.828 64.6949 157.691 67.0157 156.983 70.4048C156.854 71.1164 156.798 71.8392 156.816 72.5622C158.326 72.5672 159.835 72.4846 161.336 72.315V72.315Z" fill="url(#paint19_linear_1873_8182)"/>
<path d="M122.74 64.4561C116.963 64.4561 113.222 69.9984 113.884 73.0313C113.884 73.0313 116.209 67.7404 122.367 67.6064C129.615 67.4555 131.537 74.0786 131.537 74.0786C132.522 71.3598 130.737 64.431 122.74 64.4561Z" fill="#603F37"/>
<path d="M115.432 62.6422C121.775 56.1113 130.932 57.6529 133.312 53.6816C134.472 51.7294 132.985 48.73 132.985 48.73C113.007 52.672 115.432 62.6422 115.432 62.6422Z" fill="url(#paint20_linear_1873_8182)"/>
<path d="M146.934 47.6118C146.934 47.6118 146.016 51.889 147.407 53.2002C151.747 57.2888 161.726 53.1331 168.382 58.2272C168.382 58.2355 169.258 50.3641 146.934 47.6118Z" fill="url(#paint21_linear_1873_8182)"/>
<path d="M159.837 61.3942C150.964 61.9891 149.946 69.6217 151.283 71.6451C151.283 71.6451 153.423 65.3613 160.469 64.6618C168.131 63.9161 170.012 68.9305 170.012 68.9305C170.569 65.9604 168.613 60.8077 159.837 61.3942Z" fill="#603F37"/>
<path d="M126.327 72.8728C126.345 73.3649 126.186 73.8472 125.878 74.2317C125.571 74.6162 125.135 74.8773 124.651 74.9674C124.424 74.9994 124.193 74.982 123.974 74.9165C123.755 74.8509 123.552 74.7386 123.38 74.5874C123.208 74.4362 123.071 74.2496 122.978 74.0404C122.885 73.8312 122.838 73.6044 122.841 73.3755C122.823 72.8834 122.982 72.4012 123.29 72.0167C123.597 71.6321 124.033 71.371 124.517 71.2809C124.744 71.2482 124.975 71.265 125.195 71.3303C125.414 71.3956 125.617 71.5078 125.789 71.6592C125.961 71.8105 126.098 71.9974 126.191 72.207C126.284 72.4165 126.33 72.6437 126.327 72.8728V72.8728Z" fill="#1E1D1D"/>
<path d="M162.448 69.9656C162.466 70.4576 162.307 70.9399 161.999 71.3244C161.692 71.7089 161.256 71.97 160.772 72.0601C160.545 72.0922 160.314 72.0748 160.095 72.0092C159.876 71.9437 159.673 71.8314 159.501 71.6802C159.329 71.529 159.192 71.3424 159.099 71.1332C159.006 70.924 158.96 70.6972 158.962 70.4683C158.944 69.9762 159.103 69.4939 159.411 69.1094C159.718 68.7249 160.154 68.4638 160.638 68.3737C160.865 68.3409 161.096 68.3578 161.316 68.4231C161.535 68.4884 161.738 68.6006 161.91 68.752C162.082 68.9033 162.219 69.0902 162.312 69.2997C162.405 69.5093 162.451 69.7364 162.448 69.9656V69.9656Z" fill="#1E1D1D"/>
<path opacity="0.82" d="M123.24 71.218C122.49 71.6704 122.004 72.4747 122.163 73.0151C122.322 73.5555 123.055 73.6226 123.809 73.1659C124.563 72.7093 125.041 71.9092 124.886 71.3688C124.731 70.8284 123.994 70.7613 123.24 71.218Z" fill="white"/>
<path opacity="0.82" d="M159.088 68.0296C158.284 68.6161 157.802 69.5963 158.016 70.2163C158.229 70.8363 159.054 70.8656 159.863 70.2792C160.671 69.6927 161.149 68.7124 160.935 68.0924C160.722 67.4724 159.892 67.4431 159.088 68.0296Z" fill="white"/>
<path opacity="0.11" d="M165.064 24.2616C160.804 28.0905 155.928 30.5453 150.519 32.3089C150.46 32.329 150.403 32.3542 150.348 32.3844C153.959 31.1863 156.606 30.0342 156.606 30.0342C157.651 29.9946 158.684 30.2642 159.576 30.8092C161.992 29.4265 164.241 27.7706 166.279 25.8744C167.222 25.003 166.032 23.3819 165.064 24.2616Z" fill="black"/>
<path d="M125.945 96.5206C125.945 96.5206 128.513 110.789 144.956 108.217C162.55 105.469 160.456 91.502 160.456 91.502L125.945 96.5206Z" fill="#FB755C"/>
<path d="M126.855 96.6875C126.629 97.0604 128.794 107.16 144.349 104.71C160.113 102.234 160.18 92.5612 159.949 92.2512C159.233 91.2877 127.676 95.3177 126.855 96.6875Z" fill="url(#paint22_linear_1873_8182)"/>
<path d="M129.523 96.0553C129.523 96.0553 129.909 98.485 131.756 99.9847C135.887 103.336 153.473 100.697 156.053 96.6711C157.758 94.0235 157.411 92.1133 157.411 92.1133L129.523 96.0553Z" fill="#F7F0F0"/>
<path opacity="0.32" d="M157.427 92.1133L129.523 96.0553C129.8 97.4788 130.504 98.7839 131.543 99.7962C132.318 97.7016 136.901 100.115 143.628 99.1678C150.838 98.1457 152.899 95.9715 154.424 96.0259C155.379 96.0636 155.475 96.5957 155.375 97.4377C155.64 97.2145 155.874 96.9566 156.07 96.6711C157.775 94.0235 157.427 92.1133 157.427 92.1133Z" fill="#C1BAB0"/>
<path d="M182.614 70.8613L178.526 71.1546C178.45 79.0595 176.619 85.6281 173.314 88.8705C169.913 92.2219 164.995 91.8951 164.995 91.8951C167.299 79.7465 145.905 86.5455 139.922 87.287C133.94 88.0285 117.452 83.3953 121.465 97.9191C121.465 97.9191 114.787 99.2638 111.03 89.1889C109.455 84.9537 108.336 77.099 108.009 74.9458L107.444 74.9751C104.118 96.0675 108.282 132.999 148.104 128.177C189.489 123.15 182.48 91.7317 182.48 91.7317C179.774 84.5808 182.614 70.8613 182.614 70.8613ZM145.481 111.304C126.63 113.595 125.952 97.5379 126.517 96.566C127.497 94.8904 131.661 98.6606 142.612 97.7557C153.562 96.8509 158.857 91.095 160.231 91.9286C161.605 92.7623 163.042 109.175 145.481 111.308V111.304Z" fill="url(#paint23_linear_1873_8182)"/>
<path opacity="0.11" d="M149.418 113.038C147.525 113.724 145.533 114.095 143.52 114.136C143.221 114.134 142.925 114.202 142.658 114.336C142.39 114.469 142.158 114.663 141.979 114.903C141.8 115.143 141.681 115.421 141.63 115.716C141.579 116.011 141.597 116.313 141.685 116.599C142.104 117.898 143.448 119.041 147.273 118.275C150.997 117.508 151.936 116.046 151.94 114.772C151.934 114.474 151.856 114.18 151.714 113.917C151.572 113.654 151.37 113.429 151.123 113.259C150.877 113.09 150.594 112.981 150.297 112.943C150.001 112.904 149.699 112.937 149.418 113.038V113.038Z" fill="black"/>
<path d="M137.413 76.4211C137.413 76.4211 130.417 75.6922 129.248 81.8293C127.761 89.6212 143.311 92.9013 146.843 84.6025C150.374 76.3038 138.268 62.3413 138.268 62.3413C138.268 62.3413 141.485 69.8274 137.413 76.4211Z" fill="#FF9E78"/>
<path d="M129.273 83.9697C130.673 90.1487 143.651 92.0925 146.83 84.6023C147.014 84.1429 147.154 83.6675 147.249 83.1821C141.407 84.8823 135.242 85.1525 129.273 83.9697V83.9697Z" fill="url(#paint24_linear_1873_8182)"/>
<path opacity="0.2" d="M141.318 70.1284L139.604 70.208C139.604 70.208 139.148 75.7838 137.547 76.6845C137.279 76.6845 137.011 76.6845 136.73 76.6845C133.744 76.8185 131.368 77.9789 131.427 79.2733C131.485 80.5678 133.94 81.4308 136.94 81.2967C139.742 81.1711 142.151 80.4589 142.356 78.9382C142.352 78.9508 143.224 73.0943 141.318 70.1284Z" fill="white"/>
<path opacity="0.44" d="M125.093 76.7474C123.451 76.9107 121.855 76.6636 120.225 76.7474C119.341 76.7851 119.195 78.0837 119.961 78.423C121.679 79.1771 123.753 78.9299 125.52 78.4984C126.526 78.2345 126.069 76.6552 125.093 76.7474Z" fill="#ED6954"/>
<path opacity="0.44" d="M164.177 73.2116C162.57 73.6015 160.938 73.8814 159.293 74.0494C158.271 74.129 158.178 75.8466 159.243 75.8927C161.081 76.0312 162.925 75.7222 164.617 74.992C165.497 74.5773 165.271 72.9812 164.177 73.2116Z" fill="#ED6954"/>
<defs>
<linearGradient id="paint0_linear_1873_8182" x1="163.722" y1="119.188" x2="168.314" y2="129.137" gradientUnits="userSpaceOnUse">
<stop stop-color="#DB7D67"/>
<stop offset="1" stop-color="#FF9E78"/>
</linearGradient>
<linearGradient id="paint1_linear_1873_8182" x1="160.232" y1="123.579" x2="160.232" y2="184.849" gradientUnits="userSpaceOnUse">
<stop stop-color="#DEEFFF"/>
<stop offset="1" stop-color="#CADBEF"/>
</linearGradient>
<linearGradient id="paint2_linear_1873_8182" x1="180.532" y1="149.836" x2="171.328" y2="135.207" gradientUnits="userSpaceOnUse">
<stop stop-color="#B3CBE2"/>
<stop offset="1" stop-color="#CADBEF"/>
</linearGradient>
<linearGradient id="paint3_linear_1873_8182" x1="114.402" y1="166.827" x2="217.108" y2="207.173" gradientUnits="userSpaceOnUse">
<stop stop-color="#B3CBE2"/>
<stop offset="1" stop-color="#CADBEF"/>
</linearGradient>
<linearGradient id="paint4_linear_1873_8182" x1="215.998" y1="212.564" x2="186.38" y2="162.407" gradientUnits="userSpaceOnUse">
<stop stop-color="#B3CBE2"/>
<stop offset="1" stop-color="#CADBEF"/>
</linearGradient>
<linearGradient id="paint5_linear_1873_8182" x1="116.669" y1="226.749" x2="101.492" y2="235.956" gradientUnits="userSpaceOnUse">
<stop stop-color="#DEEFFF"/>
<stop offset="1" stop-color="#CADBEF"/>
</linearGradient>
<linearGradient id="paint6_linear_1873_8182" x1="36.6044" y1="145.307" x2="47.115" y2="147.704" gradientUnits="userSpaceOnUse">
<stop stop-color="#F28C70"/>
<stop offset="1" stop-color="#FF9E78"/>
</linearGradient>
<linearGradient id="paint7_linear_1873_8182" x1="16.1653" y1="124.45" x2="16.0312" y2="130.712" gradientUnits="userSpaceOnUse">
<stop stop-color="#FFB9A4"/>
<stop offset="1" stop-color="#FF9E78"/>
</linearGradient>
<linearGradient id="paint8_linear_1873_8182" x1="49.084" y1="126.921" x2="45.7243" y2="139.51" gradientUnits="userSpaceOnUse">
<stop stop-color="#FFB9A4"/>
<stop offset="1" stop-color="#FF9E78"/>
</linearGradient>
<linearGradient id="paint9_linear_1873_8182" x1="54.7178" y1="211.182" x2="79.9784" y2="200.621" gradientUnits="userSpaceOnUse">
<stop stop-color="#F28C70"/>
<stop offset="1" stop-color="#FF9E78"/>
</linearGradient>
<linearGradient id="paint10_linear_1873_8182" x1="103.064" y1="193.822" x2="84.5735" y2="202.716" gradientUnits="userSpaceOnUse">
<stop stop-color="#FFB9A4"/>
<stop offset="1" stop-color="#FF9E78"/>
</linearGradient>
<linearGradient id="paint11_linear_1873_8182" x1="99.7704" y1="87.6855" x2="116.302" y2="86.3525" gradientUnits="userSpaceOnUse">
<stop stop-color="#F28C70"/>
<stop offset="1" stop-color="#FF9E78"/>
</linearGradient>
<linearGradient id="paint12_linear_1873_8182" x1="139.454" y1="30.9679" x2="140.492" y2="43.8413" gradientUnits="userSpaceOnUse">
<stop stop-color="#C6664F"/>
<stop offset="1" stop-color="#FF9E78"/>
</linearGradient>
<linearGradient id="paint13_linear_1873_8182" x1="178.328" y1="92.178" x2="195.08" y2="90.8272" gradientUnits="userSpaceOnUse">
<stop stop-color="#F28C70"/>
<stop offset="1" stop-color="#FF9E78"/>
</linearGradient>
<linearGradient id="paint14_linear_1873_8182" x1="182.442" y1="77.1486" x2="190.818" y2="76.4732" gradientUnits="userSpaceOnUse">
<stop stop-color="#F28C70"/>
<stop offset="1" stop-color="#FF9E78"/>
</linearGradient>
<linearGradient id="paint15_linear_1873_8182" x1="145.259" y1="2.53761" x2="146.507" y2="34.4562" gradientUnits="userSpaceOnUse">
<stop stop-color="#75483B"/>
<stop offset="0.35" stop-color="#704538"/>
<stop offset="0.75" stop-color="#633C30"/>
<stop offset="1" stop-color="#563428"/>
</linearGradient>
<linearGradient id="paint16_linear_1873_8182" x1="156.189" y1="34.2162" x2="158.382" y2="68.4011" gradientUnits="userSpaceOnUse">
<stop stop-color="#C6664F"/>
<stop offset="1" stop-color="#FF9E78"/>
</linearGradient>
<linearGradient id="paint17_linear_1873_8182" x1="122.659" y1="36.3229" x2="124.878" y2="70.9386" gradientUnits="userSpaceOnUse">
<stop stop-color="#C6664F"/>
<stop offset="1" stop-color="#FF9E78"/>
</linearGradient>
<linearGradient id="paint18_linear_1873_8182" x1="123.581" y1="76.1278" x2="126.336" y2="67.0614" gradientUnits="userSpaceOnUse">
<stop stop-color="#704A3E"/>
<stop offset="1"/>
</linearGradient>
<linearGradient id="paint19_linear_1873_8182" x1="160.328" y1="71.6345" x2="161.967" y2="66.0058" gradientUnits="userSpaceOnUse">
<stop stop-color="#704A3E"/>
<stop offset="1"/>
</linearGradient>
<linearGradient id="paint20_linear_1873_8182" x1="123.115" y1="50.5305" x2="123.347" y2="61.1613" gradientUnits="userSpaceOnUse">
<stop stop-color="#75483B"/>
<stop offset="0.35" stop-color="#704538"/>
<stop offset="0.75" stop-color="#633C30"/>
<stop offset="1" stop-color="#563428"/>
</linearGradient>
<linearGradient id="paint21_linear_1873_8182" x1="156.256" y1="50.0724" x2="156.467" y2="59.7924" gradientUnits="userSpaceOnUse">
<stop stop-color="#75483B"/>
<stop offset="0.35" stop-color="#704538"/>
<stop offset="0.75" stop-color="#633C30"/>
<stop offset="1" stop-color="#563428"/>
</linearGradient>
<linearGradient id="paint22_linear_1873_8182" x1="143.261" y1="111.113" x2="143.209" y2="99.4135" gradientUnits="userSpaceOnUse">
<stop stop-color="#7C302A"/>
<stop offset="0.21" stop-color="#772F29"/>
<stop offset="0.45" stop-color="#692B26"/>
<stop offset="0.7" stop-color="#532421"/>
<stop offset="0.96" stop-color="#331C1A"/>
<stop offset="1" stop-color="#2D1A19"/>
</linearGradient>
<linearGradient id="paint23_linear_1873_8182" x1="148.562" y1="133.861" x2="144.235" y2="76.5227" gradientUnits="userSpaceOnUse">
<stop stop-color="#75483B"/>
<stop offset="0.35" stop-color="#704538"/>
<stop offset="0.75" stop-color="#633C30"/>
<stop offset="1" stop-color="#563428"/>
</linearGradient>
<linearGradient id="paint24_linear_1873_8182" x1="138.682" y1="88.2214" x2="138.221" y2="82.4967" gradientUnits="userSpaceOnUse">
<stop stop-color="#F28C70"/>
<stop offset="1" stop-color="#FF9E78"/>
</linearGradient>
</defs>
</svg>
