<svg width="40" height="40" viewBox="0 0 40 40" fill="none" xmlns="http://www.w3.org/2000/svg">
<path d="M34.4131 12.7258C34.4015 10.3352 32.4618 8.40062 30.0682 8.40039H9.96023C7.56737 8.40061 5.62765 10.3346 5.6156 12.7245L5.61493 12.737L5.61426 12.7462V27.2804C5.61448 29.6807 7.5598 31.626 9.96026 31.6264H30.0683C32.4685 31.6264 34.4138 29.6809 34.4143 27.2804L34.414 12.7462L34.4134 12.7359L34.4131 12.7258ZM7.54394 10.3298C8.16383 9.71062 9.01491 9.32913 9.96 9.3289H30.068C31.0129 9.32913 31.8642 9.7106 32.4841 10.3298C33.0524 10.8988 33.4166 11.664 33.4731 12.5164L21.9126 20.8336C21.3449 21.2418 20.68 21.4454 20.0135 21.4456C19.3472 21.4456 18.682 21.2419 18.1144 20.8336L6.5544 12.5164C6.61154 11.664 6.9756 10.8988 7.54388 10.3298H7.54394ZM6.54303 27.2801V13.6527L16.0259 20.475L7.11217 29.1664C6.75301 28.6258 6.54342 27.9789 6.5432 27.2802L6.54303 27.2801ZM30.0682 30.6968H9.96017C9.1048 30.6966 8.32783 30.3817 7.72823 29.8631L16.7917 21.0254L17.5725 21.5872C18.3015 22.1114 19.1584 22.3745 20.014 22.3741C20.8696 22.3741 21.7267 22.1116 22.4555 21.5872L23.2218 21.0359L32.2961 29.8662C31.6973 30.3829 30.9218 30.6961 30.068 30.6965L30.0682 30.6968ZM33.4851 27.2801C33.4849 27.981 33.2742 28.6292 32.9137 29.171L23.988 20.4852L33.4851 13.6521V27.2801Z" fill="#61391A" stroke="#61391A" stroke-width="0.5"/>
</svg>
