<svg width="40" height="40" viewBox="0 0 40 40" fill="none" xmlns="http://www.w3.org/2000/svg">
<path d="M34.3861 12.9629C34.3861 12.7491 34.3564 12.531 34.2937 12.3147C33.172 8.44146 29.6017 5.61581 25.3662 5.61523H14.6062C10.3705 5.6159 6.79994 8.44158 5.67879 12.3147C5.61562 12.5307 5.58594 12.7493 5.58594 12.9629C5.58616 13.616 5.86273 14.2183 6.30377 14.6558C6.74439 15.0935 7.35937 15.3738 8.04125 15.3736H11.9497C13.6736 15.3734 15.0702 13.9765 15.0707 12.2526V10.9588H24.9015V12.2526C24.9018 13.9765 26.2986 15.3731 28.0225 15.3736H31.931C32.6127 15.3736 33.2278 15.0937 33.6685 14.6558C34.1091 14.2183 34.3857 13.616 34.3859 12.9629H34.3861ZM33.0139 13.9959C32.7358 14.2711 32.3557 14.4441 31.9307 14.4441H28.0224C27.4157 14.4439 26.8706 14.1993 26.4724 13.8022C26.0749 13.4042 25.8305 12.8591 25.8305 12.2524V10.4944C25.8305 10.372 25.7809 10.2524 25.6945 10.1658C25.6081 10.0794 25.4885 10.0299 25.3662 10.0299H14.6062C14.4839 10.0299 14.3642 10.0794 14.2778 10.1658C14.1914 10.2522 14.1419 10.3718 14.1419 10.4944V12.2524C14.1417 12.8591 13.8975 13.4042 13.4999 13.8022C13.102 14.1997 12.5569 14.4437 11.9499 14.4441H8.04149C7.61649 14.4441 7.23635 14.2709 6.95823 13.9959C6.68055 13.72 6.51471 13.3493 6.51493 12.9627C6.51493 12.835 6.53257 12.7051 6.57096 12.5732C7.58056 9.08898 10.7926 6.54344 14.6064 6.54401H25.3664C29.1795 6.54334 32.3921 9.08887 33.4012 12.5726C33.4396 12.7052 33.4573 12.8351 33.4573 12.9623C33.4577 13.3491 33.2919 13.7201 33.0142 13.9956L33.0139 13.9959Z" fill="#61391A" stroke="#61391A" stroke-width="0.5"/>
<path d="M8.96119 32.584C10.0646 33.6956 11.6311 34.4152 13.4395 34.4141H26.5321C28.3408 34.415 29.9071 33.6958 31.0104 32.584C32.1147 31.4731 32.7667 29.9692 32.7669 28.3933C32.7676 27.3572 32.4825 26.2916 31.8667 25.3043L30.92 23.786C29.6819 21.7993 28.0013 20.3049 26.1046 19.3116C24.3457 18.39 22.4015 17.9027 20.4448 17.8362V15.3728H21.6108C21.8675 15.3728 22.0756 15.1648 22.0756 14.9081C22.0756 14.6514 21.8675 14.4434 21.6108 14.4434H18.3599C18.1032 14.4434 17.8952 14.6514 17.8952 14.9081C17.8952 15.1648 18.1032 15.3728 18.3599 15.3728H19.5164V17.8364C17.563 17.9045 15.6226 18.3916 13.8664 19.3116C11.9698 20.3052 10.2891 21.7993 9.05096 23.786L8.10433 25.3043C7.48827 26.2911 7.20342 27.3572 7.2041 28.3933C7.20477 29.9695 7.85656 31.4728 8.96079 32.584H8.96119ZM8.49914 25.5503L8.89333 25.796L9.83996 24.2777C10.989 22.4344 12.5402 21.0563 14.2982 20.1351C16.0541 19.2148 18.017 18.7529 19.9808 18.7521H19.9866C21.9525 18.7521 23.9172 19.2141 25.675 20.1351C27.4329 21.0568 28.9837 22.4346 30.1333 24.2777L31.0799 25.796C31.6047 26.6386 31.8389 27.5259 31.8395 28.3936C31.8398 29.7108 31.2918 30.9855 30.3531 31.9293C29.4138 32.8726 28.0949 33.4844 26.5337 33.4855L13.4394 33.4853C11.878 33.4844 10.5591 32.8721 9.61999 31.929C8.68136 30.9853 8.13313 29.7108 8.13359 28.3933C8.13426 27.5259 8.36841 26.6384 8.89319 25.7958L8.49914 25.5503Z" fill="#61391A" stroke="#61391A" stroke-width="0.5"/>
</svg>
