<svg width="40" height="40" viewBox="0 0 40 40" fill="none" xmlns="http://www.w3.org/2000/svg">
<path d="M8.25826 21.0697L12.9348 23.3615C14.5464 24.1512 15.85 25.4536 16.6411 27.0639L18.9482 31.7604C19.3828 32.6465 20.0281 33.3166 20.7734 33.7575C21.5189 34.199 22.3616 34.4151 23.2007 34.4151C24.1497 34.4151 25.0975 34.1396 25.902 33.5936C26.7062 33.0488 27.3633 32.2282 27.7158 31.1686L34.1489 11.8697C34.3195 11.3577 34.3998 10.8454 34.3998 10.3479C34.3976 9.10055 33.8965 7.96101 33.0915 7.11146C33.0511 7.04137 32.994 6.98356 32.9246 6.94249C32.0719 6.12598 30.9228 5.61769 29.665 5.61523C29.1661 5.61523 28.6525 5.69582 28.1396 5.86702L8.8447 12.3059C7.78555 12.6581 6.96521 13.3148 6.42058 14.1186C5.87504 14.9226 5.59984 15.8698 5.59961 16.8179C5.59961 17.6572 5.81568 18.4999 6.25807 19.2454C6.69981 19.9907 7.37081 20.6358 8.25807 21.0697L8.25826 21.0697ZM33.4708 10.3475C33.4708 10.7455 33.4072 11.1571 33.2677 11.5756L26.8346 30.8744C26.5439 31.7432 26.023 32.3872 25.3806 32.8244C24.7379 33.2608 23.9703 33.4856 23.2007 33.4856C22.5203 33.4856 21.8413 33.3101 21.2471 32.9579C20.6524 32.6045 20.1395 32.0773 19.7819 31.3503L17.4747 26.6538C17.1033 25.8974 16.6247 25.2068 16.0674 24.5896L32.6491 8.01698C33.1616 8.66744 33.4707 9.47727 33.4707 10.3473L33.4708 10.3475ZM7.18968 14.641C7.62674 13.9991 8.27071 13.4785 9.139 13.1876L28.4339 6.74821C28.8537 6.60803 29.2662 6.54397 29.6651 6.54397C30.5336 6.54397 31.3419 6.85111 31.9915 7.36117L15.4103 23.9337C14.792 23.3766 14.1009 22.8989 13.3438 22.5279L8.667 20.2362C7.93911 19.8788 7.41077 19.3661 7.05717 18.7715C6.70427 18.1773 6.52882 17.4985 6.52882 16.8181C6.52882 16.0496 6.75338 15.2828 7.18951 14.6411L7.18968 14.641Z" fill="#61391A" stroke="#61391A" stroke-width="0.5"/>
</svg>
