<svg  xmlns="http://www.w3.org/2000/svg">

    <symbol version="1.1" id="hotel" xmlns="http://www.w3.org/2000/svg" 
	 viewBox="0 0 512 512">
        <g>
            <g>
                <path d="M2480 5104 c-37 -16 -94 -66 -113 -99 -7 -12 -14 -84 -17 -174 l-5
                        -153 -105 -34 c-284 -93 -502 -279 -634 -541 -82 -164 -116 -326 -116 -555 l0
                        -138 -663 1 c-462 0 -672 -3 -693 -11 -71 -27 -133 -119 -134 -198 0 -73 35
                        -135 105 -185 26 -19 47 -23 175 -27 l145 -5 3 -867 2 -867 -82 -43 c-161 -83
                        -283 -237 -328 -414 -87 -338 124 -687 466 -774 282 -72 587 66 722 328 l43
                        82 1309 0 1309 0 43 -82 c83 -161 237 -283 414 -328 338 -87 687 124 774 466
                        72 282 -66 587 -328 722 l-82 43 2 867 3 867 145 5 c128 4 149 8 175 27 70 50
                        105 112 105 185 -1 79 -63 171 -134 198 -21 8 -231 11 -693 11 l-663 -1 0 128
                        c0 231 -28 378 -104 538 -80 168 -182 295 -329 405 -99 74 -190 121 -321 164
                        l-101 33 -5 153 c-5 165 -9 178 -72 236 -54 51 -149 67 -218 37z m235 -859
                        c215 -55 391 -226 460 -445 12 -38 19 -105 22 -217 l6 -163 -643 0 -643 0 6
                        163 c5 180 16 227 75 342 52 101 173 220 272 268 41 20 100 43 130 51 74 20
                        240 20 315 1z m1553 -1473 l2 -212 -1703 0 -1704 0 -6 107 c-8 119 -9 307 -3
                        314 2 2 771 4 1708 4 l1703 0 3 -213z m2 -1081 l0 -440 -82 -43 c-113 -58
                        -218 -163 -276 -275 l-43 -83 -1309 0 -1309 0 -43 83 c-58 112 -163 217 -275
                        275 l-83 43 0 440 0 439 1710 0 1710 0 0 -439z m-3552 -857 c110 -45 162 -174
                        113 -279 -76 -165 -306 -165 -382 0 -78 167 99 351 269 279z m3840 0 c78 -32
                        132 -111 132 -194 0 -113 -97 -210 -210 -210 -146 0 -250 155 -194 288 44 107
                        168 160 272 116z"/>
            </g>
        </g>
    </symbol>

    <symbol version="1.1" id="shop" xmlns="http://www.w3.org/2000/svg"
	 viewBox="0 0 489.4 489.4">
        <g>
            <g>
                <path d="M347.7,263.75h-66.5c-18.2,0-33,14.8-33,33v51c0,18.2,14.8,33,33,33h66.5c18.2,0,33-14.8,33-33v-51
                    C380.7,278.55,365.9,263.75,347.7,263.75z M356.7,347.75c0,5-4.1,9-9,9h-66.5c-5,0-9-4.1-9-9v-51c0-5,4.1-9,9-9h66.5
                    c5,0,9,4.1,9,9V347.75z"/>
                <path d="M489.4,171.05c0-2.1-0.5-4.1-1.6-5.9l-72.8-128c-2.1-3.7-6.1-6.1-10.4-6.1H84.7c-4.3,0-8.3,2.3-10.4,6.1l-72.7,128
                    c-1,1.8-1.6,3.8-1.6,5.9c0,28.7,17.3,53.3,42,64.2v211.1c0,6.6,5.4,12,12,12h66.3c0.1,0,0.2,0,0.3,0h93c0.1,0,0.2,0,0.3,0h221.4
                    c6.6,0,12-5.4,12-12v-209.6c0-0.5,0-0.9-0.1-1.3C472,224.55,489.4,199.85,489.4,171.05z M91.7,55.15h305.9l56.9,100.1H34.9
                    L91.7,55.15z M348.3,179.15c-3.8,21.6-22.7,38-45.4,38c-22.7,0-41.6-16.4-45.4-38H348.3z M232,179.15c-3.8,21.6-22.7,38-45.4,38
                    s-41.6-16.4-45.5-38H232z M24.8,179.15h90.9c-3.8,21.6-22.8,38-45.5,38C47.5,217.25,28.6,200.75,24.8,179.15z M201.6,434.35h-69
                    v-129.5c0-9.4,7.6-17.1,17.1-17.1h34.9c9.4,0,17.1,7.6,17.1,17.1v129.5H201.6z M423.3,434.35H225.6v-129.5
                    c0-22.6-18.4-41.1-41.1-41.1h-34.9c-22.6,0-41.1,18.4-41.1,41.1v129.6H66v-193.3c1.4,0.1,2.8,0.1,4.2,0.1
                    c24.2,0,45.6-12.3,58.2-31c12.6,18.7,34,31,58.2,31s45.5-12.3,58.2-31c12.6,18.7,34,31,58.1,31c24.2,0,45.5-12.3,58.1-31
                    c12.6,18.7,34,31,58.2,31c1.4,0,2.7-0.1,4.1-0.1L423.3,434.35L423.3,434.35z M419.2,217.25c-22.7,0-41.6-16.4-45.4-38h90.9
                    C460.8,200.75,441.9,217.25,419.2,217.25z"/>
            </g>
        </g>
        <g>
        </g>
        <g>
        </g>
        <g>
        </g>
        <g>
        </g>
        <g>
        </g>
        <g>
        </g>
        <g>
        </g>
        <g>
        </g>
        <g>
        </g>
        <g>
        </g>
        <g>
        </g>
        <g>
        </g>
        <g>
        </g>
        <g>
        </g>
        <g>
        </g>
    </symbol>

    <symbol version="1.1" id="secure-payment" xmlns="http://www.w3.org/2000/svg"
	 viewBox="0 0 512 512">
        <g>
            <g>
                <path d="M496,319.996c-8.832,0-16,7.168-16,16v112H32v-192h176c8.832,0,16-7.168,16-16c0-8.832-7.168-16-16-16H32v-64h176
                    c8.832,0,16-7.168,16-16c0-8.832-7.168-16-16-16H32c-17.664,0-32,14.336-32,32v288c0,17.664,14.336,32,32,32h448
                    c17.664,0,32-14.336,32-32v-112C512,327.164,504.832,319.996,496,319.996z"/>
            </g>
        </g>
        <g>
            <g>
                <path d="M144,319.996H80c-8.832,0-16,7.168-16,16c0,8.832,7.168,16,16,16h64c8.832,0,16-7.168,16-16
                    C160,327.164,152.832,319.996,144,319.996z"/>
            </g>
        </g>
        <g>
            <g>
                <path d="M502.304,81.276l-112-48c-4.064-1.696-8.576-1.696-12.64,0l-112,48c-5.856,2.528-9.664,8.32-9.664,14.72v64
                    c0,88.032,32.544,139.488,120.032,189.888c2.464,1.408,5.216,2.112,7.968,2.112s5.504-0.704,7.968-2.112
                    C479.456,299.612,512,248.156,512,159.996v-64C512,89.596,508.192,83.804,502.304,81.276z M480,159.996
                    c0,73.888-24.448,114.56-96,157.44c-71.552-42.976-96-83.648-96-157.44v-53.44l96-41.152l96,41.152V159.996z"/>
            </g>
        </g>
        <g>
            <g>
                <path d="M442.016,131.484c-6.88-5.44-16.928-4.384-22.496,2.496l-50.304,62.912l-19.904-29.76
                    c-4.96-7.36-14.912-9.312-22.176-4.448c-7.328,4.896-9.344,14.848-4.448,22.176l32,48c2.848,4.256,7.52,6.88,12.64,7.136
                    c0.224,0,0.48,0,0.672,0c4.832,0,9.44-2.176,12.512-6.016l64-80C450.016,147.068,448.928,137.02,442.016,131.484z"/>
            </g>
        </g>
        <g>
        </g>
        <g>
        </g>
        <g>
        </g>
        <g>
        </g>
        <g>
        </g>
        <g>
        </g>
        <g>
        </g>
        <g>
        </g>
        <g>
        </g>
        <g>
        </g>
        <g>
        </g>
        <g>
        </g>
        <g>
        </g>
        <g>
        </g>
        <g>
        </g>
    </symbol>

    <symbol id="return" viewBox="0 0 512 512" xmlns="http://www.w3.org/2000/svg">
        <g><path d="m256 81c-30.645 0-55.578 24.932-55.578 55.577v27.608h-50.534l-12.383 227.572h236.987l-12.382-227.572h-50.534v-27.608c.002-30.645-24.93-55.577-55.576-55.577zm86.818 280.758h-173.635l9.118-167.572h155.399zm-86.818-250.758c14.104 0 25.577 11.474 25.577 25.577v27.608h-51.155v-27.608c.001-14.103 11.475-25.577 25.578-25.577z"/><path d="m472.292 119.073 34.368 6.026 5.18-29.549-86.323-15.134-15.134 86.324 29.549 5.181 6.575-37.501c23.016 36.111 35.493 78.446 35.493 121.58 0 60.367-23.508 117.12-66.194 159.806-42.685 42.686-99.438 66.194-159.806 66.194s-117.12-23.508-159.806-66.194c-42.686-42.685-66.194-99.439-66.194-159.806s23.508-117.12 66.194-159.806c42.686-42.685 99.439-66.194 159.806-66.194 43.585 0 85.887 12.427 122.334 35.938l16.262-25.21c-41.304-26.644-89.23-40.728-138.596-40.728-68.38 0-132.667 26.628-181.019 74.98-48.352 48.353-74.981 112.64-74.981 181.02s26.629 132.668 74.981 181.02 112.639 74.98 181.019 74.98 132.667-26.629 181.02-74.98c48.352-48.352 74.98-112.64 74.98-181.02 0-48.54-13.955-96.191-39.708-136.927z"/><path d="m209.667 262.972h92.666v30h-92.666z"/></g>
    </symbol>


</svg>