<svg width="26" height="26" viewBox="0 0 26 26" fill="none" xmlns="http://www.w3.org/2000/svg">
<path d="M14.8741 3.80261L16.7807 7.61594C17.0407 8.14677 17.7341 8.65594 18.3191 8.75344L21.7749 9.32761C23.9849 9.69594 24.5049 11.2993 22.9124 12.8809L20.2257 15.5676C19.7707 16.0226 19.5216 16.9001 19.6624 17.5284L20.4316 20.8543C21.0382 23.4868 19.6407 24.5051 17.3116 23.1293L14.0724 21.2118C13.4874 20.8651 12.5232 20.8651 11.9274 21.2118L8.68824 23.1293C6.3699 24.5051 4.96157 23.4759 5.56823 20.8543L6.3374 17.5284C6.47823 16.9001 6.22907 16.0226 5.77407 15.5676L3.0874 12.8809C1.50573 11.2993 2.0149 9.69594 4.2249 9.32761L7.68074 8.75344C8.2549 8.65594 8.94823 8.14677 9.20823 7.61594L11.1149 3.80261C12.1549 1.73344 13.8449 1.73344 14.8741 3.80261Z" stroke="white" stroke-width="1.2" stroke-linecap="round" stroke-linejoin="round"/>
</svg>
