<svg width="26" height="26" viewBox="0 0 26 26" fill="none" xmlns="http://www.w3.org/2000/svg">
<path d="M22.75 12.4584C22.75 18.1459 18.1458 22.7501 12.4583 22.7501C6.77079 22.7501 2.16663 18.1459 2.16663 12.4584C2.16663 6.77091 6.77079 2.16675 12.4583 2.16675" stroke="white" stroke-width="1.5" stroke-linecap="round" stroke-linejoin="round"/>
<path d="M23.8333 23.8334L21.6666 21.6667" stroke="white" stroke-width="1.5" stroke-linecap="round" stroke-linejoin="round"/>
<path d="M15.7084 6.64076C15.3292 5.44909 15.7734 3.96493 17.03 3.56409C17.6909 3.34742 18.5034 3.53159 18.9692 4.17076C19.4025 3.50992 20.2475 3.35826 20.8975 3.56409C22.1542 3.96493 22.5984 5.44909 22.2192 6.64076C21.6234 8.53659 19.5434 9.52243 18.9692 9.52243C18.3842 9.52243 16.3259 8.55826 15.7084 6.64076Z" stroke="white" stroke-width="1.5" stroke-linecap="round" stroke-linejoin="round"/>
</svg>
