<svg width="26" height="26" viewBox="0 0 26 26" fill="none" xmlns="http://www.w3.org/2000/svg">
<path d="M11.8109 21.5259H18.8201C22.8284 21.5259 23.8251 20.5293 23.8251 16.5209C22.4384 16.5209 21.3226 15.3943 21.3226 14.0184C21.3226 12.6318 22.4384 11.5051 23.8251 11.5051V10.5084C23.8251 6.50008 22.8284 5.50342 18.8201 5.50342H11.9084V12.8593" stroke="white" stroke-width="1.2" stroke-linecap="round" stroke-linejoin="round"/>
<path d="M11.9097 18.2758V21.5258H8.90882C7.30549 21.5258 6.36299 20.4316 5.32299 17.9183L5.12799 17.4308C6.43882 16.9108 7.07799 15.3941 6.52549 14.0833C5.99466 12.7724 4.48882 12.1441 3.16715 12.6858L2.98299 12.2199C1.42299 8.40658 1.96465 7.07409 5.77799 5.50325L8.63799 4.33325L11.9097 12.2633V15.0258" stroke="white" stroke-width="1.2" stroke-linecap="round" stroke-linejoin="round"/>
<path d="M8.84237 21.5259H8.6582" stroke="white" stroke-width="1.2" stroke-linecap="round" stroke-linejoin="round"/>
</svg>
