<svg width="26" height="26" viewBox="0 0 26 26" fill="none" xmlns="http://www.w3.org/2000/svg">
<path d="M15.455 12.2134V11.6134V3.81338C15.455 3.40507 15.3987 3.12597 15.3277 2.95411C15.2931 2.87048 15.2594 2.82275 15.2365 2.79762C15.2154 2.7745 15.2032 2.76992 15.2009 2.76908L15.2009 2.76906L15.2009 2.76905C15.1986 2.76821 15.1861 2.76352 15.1545 2.76708C15.1202 2.77093 15.0629 2.78478 14.9813 2.82501C14.8138 2.90762 14.5868 3.0803 14.3171 3.3864C14.3171 3.38649 14.317 3.38658 14.3169 3.38667L13.4506 4.37204L13.4506 4.37206L6.11645 12.7137L6.115 12.7154C5.65757 13.2318 5.71359 13.4911 5.73201 13.5319C5.7507 13.5733 5.90894 13.7867 6.59751 13.7867H9.94501H10.545V14.3867V22.1867C10.545 22.595 10.6013 22.8741 10.6724 23.046C10.7069 23.1296 10.7406 23.1774 10.7635 23.2025C10.7846 23.2256 10.7969 23.2302 10.7991 23.231L10.7991 23.231L10.7992 23.2311C10.8014 23.2319 10.8139 23.2366 10.8456 23.233C10.8799 23.2292 10.9371 23.2153 11.0187 23.1751C11.1862 23.0925 11.4131 22.9199 11.6827 22.6139L15.455 12.2134ZM15.455 12.2134H16.055H19.4025C20.0911 12.2134 20.2493 12.4268 20.268 12.4682C20.2864 12.509 20.3425 12.7683 19.885 13.2847L19.8836 13.2864L12.5494 21.628L12.5494 21.6281L11.6831 22.6134L15.455 12.2134Z" stroke="white" stroke-width="1.2"/>
</svg>
