<svg width="26" height="26" viewBox="0 0 26 26" fill="none" xmlns="http://www.w3.org/2000/svg">
<path d="M23.8333 16.25C23.8333 20.4425 20.4425 23.8333 16.25 23.8333L17.3875 21.9375" stroke="white" stroke-width="1.2" stroke-linecap="round" stroke-linejoin="round"/>
<path d="M2.16669 9.75008C2.16669 5.55758 5.55752 2.16675 9.75002 2.16675L8.61252 4.06258" stroke="white" stroke-width="1.2" stroke-linecap="round" stroke-linejoin="round"/>
<path d="M14.8417 4.82104L19.1533 7.3127L23.4217 4.83189" stroke="white" stroke-width="1.2" stroke-linecap="round" stroke-linejoin="round"/>
<path d="M19.1533 11.7218V7.30176" stroke="white" stroke-width="1.2" stroke-linecap="round" stroke-linejoin="round"/>
<path d="M18.135 2.39425L15.535 3.83503C14.95 4.16003 14.4625 4.98336 14.4625 5.65503V8.40674C14.4625 9.0784 14.9392 9.90173 15.535 10.2267L18.135 11.6676C18.6875 11.9817 19.5975 11.9817 20.1609 11.6676L22.7608 10.2267C23.3458 9.90173 23.8334 9.0784 23.8334 8.40674V5.65503C23.8334 4.98336 23.3567 4.16003 22.7608 3.83503L20.1609 2.39425C19.6084 2.09091 18.6984 2.09091 18.135 2.39425Z" stroke="white" stroke-width="1.2" stroke-linecap="round" stroke-linejoin="round"/>
<path d="M2.54584 16.7375L6.84667 19.2292L11.1258 16.7484" stroke="white" stroke-width="1.2" stroke-linecap="round" stroke-linejoin="round"/>
<path d="M6.84668 23.6383V19.2183" stroke="white" stroke-width="1.2" stroke-linecap="round" stroke-linejoin="round"/>
<path d="M5.83919 14.3108L3.23919 15.7515C2.65419 16.0765 2.16669 16.8999 2.16669 17.5715V20.3232C2.16669 20.9949 2.64336 21.8182 3.23919 22.1432L5.83919 23.5841C6.39169 23.8982 7.30168 23.8982 7.86501 23.5841L10.465 22.1432C11.05 21.8182 11.5375 20.9949 11.5375 20.3232V17.5715C11.5375 16.8999 11.0609 16.0765 10.465 15.7515L7.86501 14.3108C7.30168 14.0074 6.39169 14.0074 5.83919 14.3108Z" stroke="white" stroke-width="1.2" stroke-linecap="round" stroke-linejoin="round"/>
</svg>
