<svg width="26" height="26" viewBox="0 0 26 26" fill="none" xmlns="http://www.w3.org/2000/svg">
<path d="M13 23.8334C18.983 23.8334 23.8333 18.9832 23.8333 13.0001C23.8333 7.017 18.983 2.16675 13 2.16675C7.01687 2.16675 2.16663 7.017 2.16663 13.0001C2.16663 18.9832 7.01687 23.8334 13 23.8334Z" stroke="white" stroke-width="1.2" stroke-linecap="round" stroke-linejoin="round"/>
<path d="M8.66669 3.25H9.75002C7.63752 9.57667 7.63752 16.4233 9.75002 22.75H8.66669" stroke="white" stroke-width="1.2" stroke-linecap="round" stroke-linejoin="round"/>
<path d="M16.25 3.25C18.3625 9.57667 18.3625 16.4233 16.25 22.75" stroke="white" stroke-width="1.2" stroke-linecap="round" stroke-linejoin="round"/>
<path d="M3.25 17.3333V16.25C9.57667 18.3625 16.4233 18.3625 22.75 16.25V17.3333" stroke="white" stroke-width="1.2" stroke-linecap="round" stroke-linejoin="round"/>
<path d="M3.25 9.7499C9.57667 7.6374 16.4233 7.6374 22.75 9.7499" stroke="white" stroke-width="1.2" stroke-linecap="round" stroke-linejoin="round"/>
</svg>
