<svg width="26" height="26" viewBox="0 0 26 26" fill="none" xmlns="http://www.w3.org/2000/svg">
<path d="M20.5834 9.75008C20.5834 11.3209 20.1175 12.7618 19.3159 13.9643C18.1459 15.6976 16.2934 16.9218 14.1375 17.2359C13.7692 17.3009 13.39 17.3334 13 17.3334C12.61 17.3334 12.2309 17.3009 11.8625 17.2359C9.70669 16.9218 7.85419 15.6976 6.68419 13.9643C5.88252 12.7618 5.41669 11.3209 5.41669 9.75008C5.41669 5.55758 8.80752 2.16675 13 2.16675C17.1925 2.16675 20.5834 5.55758 20.5834 9.75008Z" stroke="white" stroke-width="1.2" stroke-linecap="round" stroke-linejoin="round"/>
<path d="M23.0208 20.0093L21.2333 20.4318C20.8325 20.5293 20.5183 20.8326 20.4317 21.2334L20.0525 22.8259C19.8467 23.6926 18.7417 23.9526 18.1675 23.2701L13 17.3334L7.83248 23.2809C7.25832 23.9634 6.15332 23.7034 5.94748 22.8368L5.56832 21.2443C5.47082 20.8434 5.15665 20.5293 4.76665 20.4426L2.97915 20.0201C2.15582 19.8251 1.86332 18.7959 2.45915 18.2001L6.68415 13.9751C7.85415 15.7084 9.70665 16.9326 11.8625 17.2468C12.2308 17.3118 12.61 17.3443 13 17.3443C13.39 17.3443 13.7692 17.3118 14.1375 17.2468C16.2933 16.9326 18.1458 15.7084 19.3158 13.9751L23.5408 18.2001C24.1366 18.7851 23.8442 19.8143 23.0208 20.0093Z" stroke="white" stroke-width="1.2" stroke-linecap="round" stroke-linejoin="round"/>
<path d="M13.6283 6.47825L14.2675 7.75658C14.3542 7.92991 14.5817 8.10325 14.7875 8.13575L15.9467 8.33074C16.6833 8.44991 16.8567 8.99158 16.3258 9.52242L15.4267 10.4216C15.275 10.5732 15.1883 10.8658 15.2425 11.0824L15.5025 12.1983C15.7083 13.0758 15.2425 13.4224 14.4625 12.9566L13.3792 12.3174C13.1842 12.1982 12.8592 12.1982 12.6642 12.3174L11.5808 12.9566C10.8008 13.4116 10.335 13.0758 10.5408 12.1983L10.8008 11.0824C10.8442 10.8766 10.7683 10.5732 10.6167 10.4216L9.71749 9.52242C9.18666 8.99158 9.35999 8.46074 10.0967 8.33074L11.2558 8.13575C11.4508 8.10325 11.6783 7.92991 11.765 7.75658L12.4042 6.47825C12.7183 5.78492 13.2817 5.78492 13.6283 6.47825Z" stroke="white" stroke-width="1.2" stroke-linecap="round" stroke-linejoin="round"/>
</svg>
