<svg width="26" height="26" viewBox="0 0 26 26" fill="none" xmlns="http://www.w3.org/2000/svg">
<path d="M20.9084 8.5801V14.1593C20.9084 17.496 19.0017 18.9259 16.1417 18.9259H6.6192C6.1317 18.9259 5.66587 18.8827 5.23253 18.7852C4.9617 18.7418 4.70171 18.666 4.46338 18.5793C2.83838 17.9726 1.85254 16.5643 1.85254 14.1593V8.5801C1.85254 5.24344 3.7592 3.81348 6.6192 3.81348H16.1417C18.5684 3.81348 20.3125 4.84264 20.7784 7.19347C20.8542 7.6268 20.9084 8.07094 20.9084 8.5801Z" stroke="white" stroke-width="1.2" stroke-miterlimit="10" stroke-linecap="round" stroke-linejoin="round"/>
<path d="M24.1596 11.8302V17.4094C24.1596 20.7461 22.2529 22.1761 19.3929 22.1761H9.87043C9.06876 22.1761 8.34294 22.0678 7.71461 21.8294C6.42544 21.3528 5.54793 20.367 5.23376 18.7853C5.6671 18.8828 6.13293 18.9261 6.62043 18.9261H16.1429C19.0029 18.9261 20.9096 17.4961 20.9096 14.1594V8.58024C20.9096 8.07107 20.8663 7.6161 20.7796 7.1936C22.8379 7.62694 24.1596 9.07857 24.1596 11.8302Z" stroke="white" stroke-width="1.2" stroke-miterlimit="10" stroke-linecap="round" stroke-linejoin="round"/>
<path d="M11.3733 14.2349C12.9529 14.2349 14.2333 12.9544 14.2333 11.3749C14.2333 9.79537 12.9529 8.51489 11.3733 8.51489C9.79379 8.51489 8.51331 9.79537 8.51331 11.3749C8.51331 12.9544 9.79379 14.2349 11.3733 14.2349Z" stroke="white" stroke-width="1.2" stroke-miterlimit="10" stroke-linecap="round" stroke-linejoin="round"/>
<path d="M5.17834 8.9917V13.7584" stroke="white" stroke-width="1.2" stroke-miterlimit="10" stroke-linecap="round" stroke-linejoin="round"/>
<path d="M17.5736 8.99219V13.7589" stroke="white" stroke-width="1.2" stroke-miterlimit="10" stroke-linecap="round" stroke-linejoin="round"/>
</svg>
