<svg width="26" height="26" viewBox="0 0 26 26" fill="none" xmlns="http://www.w3.org/2000/svg">
<path d="M23.0208 20.0092L21.2333 20.4317C20.8325 20.5292 20.5183 20.8325 20.4317 21.2334L20.0525 22.8259C19.8467 23.6925 18.7417 23.9634 18.1675 23.2809L14.9283 19.5542C14.6683 19.2509 14.8092 18.7742 15.1992 18.6767C17.1167 18.2109 18.8392 17.1384 20.1067 15.6109C20.3125 15.3617 20.6808 15.3292 20.9083 15.5567L23.3133 17.9617C24.1367 18.785 23.8442 19.8142 23.0208 20.0092Z" fill="white"/>
<path d="M2.92499 20.0092L4.71249 20.4317C5.11333 20.5292 5.42749 20.8325 5.51416 21.2334L5.89333 22.8259C6.09916 23.6925 7.20416 23.9634 7.77833 23.2809L11.0175 19.5542C11.2775 19.2509 11.1367 18.7742 10.7467 18.6767C8.82916 18.2109 7.10666 17.1384 5.83916 15.6109C5.63333 15.3617 5.26499 15.3292 5.03749 15.5567L2.63249 17.9617C1.80916 18.785 2.10166 19.8142 2.92499 20.0092Z" fill="white"/>
<path d="M13 2.16675C8.80752 2.16675 5.41669 5.55758 5.41669 9.75008C5.41669 11.3209 5.88252 12.7617 6.68419 13.9642C7.85419 15.6976 9.70669 16.9217 11.8625 17.2359C12.2309 17.3009 12.61 17.3334 13 17.3334C13.39 17.3334 13.7692 17.3009 14.1375 17.2359C16.2934 16.9217 18.1459 15.6976 19.3159 13.9642C20.1175 12.7617 20.5834 11.3209 20.5834 9.75008C20.5834 5.55758 17.1925 2.16675 13 2.16675ZM16.315 9.51175L15.4159 10.4109C15.2642 10.5626 15.1775 10.8551 15.2317 11.0717L15.4917 12.1876C15.6975 13.0651 15.2317 13.4117 14.4517 12.9459L13.3684 12.3067C13.1734 12.1876 12.8484 12.1876 12.6534 12.3067L11.57 12.9459C10.79 13.4009 10.3242 13.0651 10.53 12.1876L10.79 11.0717C10.8334 10.8659 10.7575 10.5626 10.6059 10.4109L9.68502 9.51175C9.15419 8.98091 9.32752 8.45008 10.0642 8.33091L11.2234 8.13592C11.4184 8.10342 11.6459 7.93008 11.7325 7.75675L12.3717 6.47842C12.7184 5.78508 13.2817 5.78508 13.6284 6.47842L14.2675 7.75675C14.3542 7.93008 14.5817 8.10342 14.7875 8.13592L15.9467 8.33091C16.6725 8.45008 16.8459 8.98091 16.315 9.51175Z" fill="white"/>
</svg>
