<svg width="26" height="26" viewBox="0 0 26 26" fill="none" xmlns="http://www.w3.org/2000/svg">
<path d="M9.67413 2.16675H5.43829C3.24996 2.16675 2.16663 3.25008 2.16663 5.43841V9.68508C2.16663 11.9167 3.24996 13.0001 5.43829 12.9459H9.68496C11.9166 13.0001 13 11.9167 12.9458 9.67425V5.43841C13 3.25008 11.9166 2.16675 9.67413 2.16675ZM9.76079 10.5734C9.02413 10.5734 8.30913 10.2917 7.71329 9.79341C7.04163 10.2809 6.22913 10.5734 5.35163 10.5734C4.90746 10.5734 4.53913 10.2051 4.53913 9.76092C4.53913 9.31675 4.90746 8.94842 5.35163 8.94842C6.45663 8.94842 7.37746 8.19008 7.71329 7.15008H5.35163C4.90746 7.15008 4.53913 6.78175 4.53913 6.33758C4.53913 5.89341 4.90746 5.52508 5.35163 5.52508H6.74913C6.79246 5.11341 7.12829 4.78841 7.55079 4.78841C7.97329 4.78841 8.30913 5.11341 8.35246 5.52508H8.63413C8.64496 5.52508 8.65579 5.52508 8.65579 5.52508H8.67746H9.74996C10.1941 5.52508 10.5625 5.89341 10.5625 6.33758C10.5625 6.78175 10.205 7.15008 9.74996 7.15008H9.39246C9.29496 7.67008 9.08913 8.15758 8.81829 8.60175C9.11079 8.81842 9.42496 8.94842 9.76079 8.94842C10.205 8.94842 10.5733 9.31675 10.5733 9.76092C10.5733 10.2051 10.205 10.5734 9.76079 10.5734Z" fill="white"/>
<path d="M9.74996 24.6458C5.12413 24.6458 1.35413 20.8758 1.35413 16.25C1.35413 15.8058 1.72246 15.4375 2.16663 15.4375C2.61079 15.4375 2.97913 15.8058 2.97913 16.25C2.97913 19.4567 5.21079 22.1433 8.21163 22.8475L7.91913 22.36C7.69163 21.97 7.81079 21.4717 8.20079 21.2442C8.57996 21.0167 9.08913 21.1358 9.31663 21.5258L10.4541 23.4217C10.6058 23.6708 10.6058 23.985 10.465 24.2342C10.3133 24.4833 10.0425 24.6458 9.74996 24.6458Z" fill="white"/>
<path d="M23.8333 10.5626C23.3891 10.5626 23.0208 10.1942 23.0208 9.75008C23.0208 6.54341 20.7891 3.85675 17.7883 3.15258L18.0808 3.64008C18.3083 4.03008 18.1891 4.52841 17.7991 4.75591C17.42 4.98341 16.9108 4.86425 16.6833 4.47425L15.5458 2.57841C15.3941 2.32925 15.3941 2.01508 15.535 1.76591C15.6866 1.51675 15.9575 1.35425 16.25 1.35425C20.8758 1.35425 24.6458 5.12425 24.6458 9.75008C24.6458 10.1942 24.2775 10.5626 23.8333 10.5626Z" fill="white"/>
<path d="M18.33 12.8374C15.2967 12.8374 12.8267 15.2966 12.8267 18.3407C12.8267 21.3741 15.2858 23.8441 18.33 23.8441C21.3633 23.8441 23.8333 21.3849 23.8333 18.3407C23.8333 15.2966 21.3742 12.8374 18.33 12.8374ZM21.0167 20.9516C20.6158 21.1466 20.1283 20.9949 19.9225 20.5832L19.7383 20.2149H16.9325L16.7483 20.5832C16.6075 20.8649 16.315 21.0274 16.0225 21.0274C15.9033 21.0274 15.7733 20.9949 15.665 20.9407C15.2642 20.7349 15.1017 20.2474 15.2967 19.8466L17.615 15.2207C17.7558 14.9499 18.0375 14.7766 18.3408 14.7766C18.6442 14.7766 18.9258 14.9499 19.0667 15.2316L21.385 19.8574C21.58 20.2582 21.4175 20.7457 21.0167 20.9516Z" fill="white"/>
<path d="M17.745 18.59H18.9258L18.33 17.4092L17.745 18.59Z" fill="white"/>
</svg>
