<svg width="26" height="26" viewBox="0 0 26 26" fill="none" xmlns="http://www.w3.org/2000/svg">
<path fill-rule="evenodd" clip-rule="evenodd" d="M10.509 23.1528L5.3613 18.0051C4.2812 16.925 3.70668 15.4466 3.78328 13.9145L4.05139 8.2382C4.15863 5.97074 5.96647 4.16291 8.23393 4.05566L13.9102 3.78755C15.4423 3.71095 16.9207 4.28547 18.0008 5.36558L23.1486 10.5133C25.2628 12.6276 25.2628 16.0594 23.1486 18.1736L18.1694 23.1528C16.0551 25.2671 12.6233 25.2671 10.509 23.1528ZM8.04917 10.8816C8.83022 11.6627 10.0965 11.6627 10.8776 10.8816C11.6586 10.1006 11.6586 8.83423 10.8776 8.05319C10.0965 7.27214 8.83022 7.27214 8.04917 8.05319C7.26812 8.83423 7.26812 10.1006 8.04917 10.8816Z" fill="white"/>
</svg>
