<svg width="26" height="26" viewBox="0 0 26 26" fill="none" xmlns="http://www.w3.org/2000/svg">
<path d="M23.0208 20.0092L21.2333 20.4317C20.8325 20.5292 20.5183 20.8325 20.4317 21.2334L20.0525 22.8259C19.8467 23.6925 18.7417 23.9634 18.1675 23.2809L14.9283 19.5542C14.6683 19.2509 14.8092 18.7742 15.1992 18.6767C17.1167 18.2109 18.8392 17.1384 20.1067 15.6109C20.3125 15.3617 20.6808 15.3292 20.9083 15.5567L23.3133 17.9617C24.1367 18.785 23.8442 19.8142 23.0208 20.0092Z" fill="white"/>
<path d="M2.92505 20.0092L4.71255 20.4317C5.11339 20.5292 5.42755 20.8325 5.51422 21.2334L5.89339 22.8259C6.09922 23.6925 7.20422 23.9634 7.77839 23.2809L11.0176 19.5542C11.2776 19.2509 11.1367 18.7742 10.7467 18.6767C8.82922 18.2109 7.10672 17.1384 5.83922 15.6109C5.63339 15.3617 5.26505 15.3292 5.03755 15.5567L2.63255 17.9617C1.80922 18.785 2.10172 19.8142 2.92505 20.0092Z" fill="white"/>
<path d="M13 2.16675C8.80746 2.16675 5.41663 5.55758 5.41663 9.75008C5.41663 11.3209 5.88246 12.7617 6.68413 13.9642C7.85413 15.6976 9.70663 16.9217 11.8625 17.2359C12.2308 17.3009 12.61 17.3334 13 17.3334C13.39 17.3334 13.7691 17.3009 14.1375 17.2359C16.2933 16.9217 18.1458 15.6976 19.3158 13.9642C20.1175 12.7617 20.5833 11.3209 20.5833 9.75008C20.5833 5.55758 17.1925 2.16675 13 2.16675ZM16.315 9.51175L15.4158 10.4109C15.2641 10.5626 15.1775 10.8551 15.2316 11.0717L15.4916 12.1876C15.6975 13.0651 15.2316 13.4117 14.4516 12.9459L13.3683 12.3067C13.1733 12.1876 12.8483 12.1876 12.6533 12.3067L11.57 12.9459C10.79 13.4009 10.3241 13.0651 10.53 12.1876L10.79 11.0717C10.8333 10.8659 10.7575 10.5626 10.6058 10.4109L9.68496 9.51175C9.15413 8.98091 9.32746 8.45008 10.0641 8.33092L11.2233 8.13592C11.4183 8.10342 11.6458 7.93008 11.7325 7.75675L12.3716 6.47841C12.7183 5.78508 13.2816 5.78508 13.6283 6.47841L14.2675 7.75675C14.3541 7.93008 14.5816 8.10342 14.7875 8.13592L15.9466 8.33092C16.6725 8.45008 16.8458 8.98091 16.315 9.51175Z" fill="white"/>
</svg>
