<svg width="26" height="26" viewBox="0 0 26 26" fill="none" xmlns="http://www.w3.org/2000/svg">
<path d="M20.0525 8.93745C20.5942 8.93745 21.0275 8.50412 21.0275 7.96245V2.92495C21.0275 2.38328 20.5942 1.94995 20.0525 1.94995C19.5108 1.94995 19.0775 2.38328 19.0775 2.92495V7.96245C19.0775 8.49329 19.5217 8.93745 20.0525 8.93745Z" fill="white"/>
<path d="M13 17.0625C12.4583 17.0625 12.025 17.4958 12.025 18.0375V23.075C12.025 23.6167 12.4583 24.05 13 24.05C13.5417 24.05 13.975 23.6167 13.975 23.075V18.0375C13.975 17.5067 13.5417 17.0625 13 17.0625Z" fill="white"/>
<path d="M5.9475 8.93745C6.48917 8.93745 6.9225 8.50412 6.9225 7.96245V2.92495C6.9225 2.38328 6.48917 1.94995 5.9475 1.94995C5.40583 1.94995 4.9725 2.38328 4.9725 2.92495V7.96245C4.9725 8.49329 5.40583 8.93745 5.9475 8.93745Z" fill="white"/>
<path d="M7.9625 11.0176H3.9325C3.39083 11.0176 2.9575 11.4509 2.9575 11.9926C2.9575 12.5342 3.39083 12.9676 3.9325 12.9676H4.9725V23.0751C4.9725 23.6167 5.40583 24.0501 5.9475 24.0501C6.48917 24.0501 6.9225 23.6167 6.9225 23.0751V12.9676H7.9625C8.50417 12.9676 8.9375 12.5342 8.9375 11.9926C8.9375 11.4509 8.49333 11.0176 7.9625 11.0176Z" fill="white"/>
<path d="M22.0675 11.0176H18.0375C17.4958 11.0176 17.0625 11.4509 17.0625 11.9926C17.0625 12.5342 17.4958 12.9676 18.0375 12.9676H19.0775V23.0751C19.0775 23.6167 19.5108 24.0501 20.0525 24.0501C20.5942 24.0501 21.0275 23.6167 21.0275 23.0751V12.9676H22.0675C22.6092 12.9676 23.0425 12.5342 23.0425 11.9926C23.0425 11.4509 22.6092 11.0176 22.0675 11.0176Z" fill="white"/>
<path d="M15.015 13.0324H13.975V2.92495C13.975 2.38328 13.5417 1.94995 13 1.94995C12.4583 1.94995 12.025 2.38328 12.025 2.92495V13.0324H10.985C10.4433 13.0324 10.01 13.4658 10.01 14.0075C10.01 14.5491 10.4433 14.9824 10.985 14.9824H15.015C15.5567 14.9824 15.99 14.5491 15.99 14.0075C15.99 13.4658 15.5567 13.0324 15.015 13.0324Z" fill="white"/>
</svg>
