<svg width="26" height="26" viewBox="0 0 26 26" fill="none" xmlns="http://www.w3.org/2000/svg">
<path d="M21.5041 14.0184C21.5041 14.885 22.2083 15.6 23.075 15.6C23.4866 15.6 23.8333 15.9359 23.8333 16.3475C23.8333 20.5075 22.5766 21.7642 18.4166 21.7642H12.7291V20.0417C12.7291 19.6192 12.4041 19.2725 11.9925 19.24C11.9708 19.2292 11.9383 19.2292 11.9166 19.2292C11.4725 19.2292 11.1041 19.5975 11.1041 20.0417V21.7642H9.19748C7.16081 21.7642 6.10998 20.2367 5.15664 17.9292L4.97248 17.4742C4.82081 17.0842 5.00498 16.64 5.39498 16.4884C5.79581 16.3367 6.10998 16.0225 6.27248 15.6109C6.44581 15.21 6.44581 14.7659 6.28331 14.365C5.93664 13.5309 4.98331 13.13 4.13831 13.4659C3.95414 13.5525 3.73748 13.5525 3.55331 13.4659C3.36914 13.39 3.22831 13.2384 3.14164 13.0434L2.97914 12.61C1.36498 8.68838 2.06914 7.00921 5.99081 5.38421L8.64498 4.29004C9.03498 4.12754 9.47914 4.31171 9.63081 4.70171L11.9925 9.84754C11.5483 9.84754 11.1041 10.205 11.1041 10.6492V15.3509C11.1041 15.795 11.4725 16.1634 11.9166 16.1634C11.9383 16.1634 11.9708 16.1634 11.9925 16.1525C12.4041 16.12 12.7291 15.7734 12.7291 15.3509V10.6492C12.7291 10.2267 12.4041 9.88004 11.9925 9.84754V5.34088H18.4166C22.5766 5.34088 23.8333 6.59754 23.8333 10.7575V11.6784C23.8333 12.1009 23.4866 12.4367 23.075 12.4367C22.2083 12.4367 21.5041 13.1409 21.5041 14.0184Z" fill="white"/>
</svg>
