<svg width="26" height="26" viewBox="0 0 26 26" fill="none" xmlns="http://www.w3.org/2000/svg">
<path d="M23.075 23.8334C22.88 23.8334 22.685 23.7575 22.5442 23.6167L20.5292 21.6017C20.2367 21.3092 20.2367 20.8325 20.5292 20.5292C20.8217 20.2367 21.2983 20.2367 21.6017 20.5292L23.6167 22.5442C23.9092 22.8367 23.9092 23.3134 23.6167 23.6167C23.465 23.7575 23.27 23.8334 23.075 23.8334Z" fill="white"/>
<path d="M12.4583 2.16675C6.78166 2.16675 2.16666 6.78175 2.16666 12.4584C2.16666 18.1351 6.78166 22.7501 12.4583 22.7501C18.135 22.7501 22.75 18.1351 22.75 12.4584C22.75 6.78175 18.135 2.16675 12.4583 2.16675ZM15.9033 13.0651C15.2967 14.9934 13.1842 16.0442 12.4583 16.0442C11.7108 16.0442 9.64166 15.0367 9.01332 13.0651C8.60166 11.7759 9.06749 10.0967 10.5408 9.63091C11.2125 9.41425 11.9275 9.54425 12.4583 9.94508C12.9783 9.54425 13.7042 9.41425 14.3867 9.63091C15.8492 10.1076 16.315 11.7867 15.9033 13.0651Z" fill="white"/>
</svg>
