<svg width="26" height="26" viewBox="0 0 26 26" fill="none" xmlns="http://www.w3.org/2000/svg">
<path d="M17.095 2.16675H8.90496C4.80996 2.16675 3.79163 3.26091 3.79163 7.62675V19.8251C3.79163 22.7067 5.37329 23.3892 7.29079 21.3309L7.30163 21.3201C8.18996 20.3776 9.54413 20.4534 10.3133 21.4826L11.4075 22.9451C12.285 24.1042 13.7041 24.1042 14.5816 22.9451L15.6758 21.4826C16.4558 20.4426 17.81 20.3667 18.6983 21.3201C20.6266 23.3784 22.1975 22.6959 22.1975 19.8142V7.62675C22.2083 3.26091 21.19 2.16675 17.095 2.16675ZM8.42829 13.0001C7.83246 13.0001 7.34496 12.5126 7.34496 11.9167C7.34496 11.3209 7.83246 10.8334 8.42829 10.8334C9.02413 10.8334 9.51163 11.3209 9.51163 11.9167C9.51163 12.5126 9.02413 13.0001 8.42829 13.0001ZM8.42829 8.66675C7.83246 8.66675 7.34496 8.17925 7.34496 7.58341C7.34496 6.98758 7.83246 6.50008 8.42829 6.50008C9.02413 6.50008 9.51163 6.98758 9.51163 7.58341C9.51163 8.17925 9.02413 8.66675 8.42829 8.66675ZM17.5825 12.7292H11.6241C11.18 12.7292 10.8116 12.3609 10.8116 11.9167C10.8116 11.4726 11.18 11.1042 11.6241 11.1042H17.5825C18.0266 11.1042 18.395 11.4726 18.395 11.9167C18.395 12.3609 18.0266 12.7292 17.5825 12.7292ZM17.5825 8.39591H11.6241C11.18 8.39591 10.8116 8.02758 10.8116 7.58341C10.8116 7.13925 11.18 6.77091 11.6241 6.77091H17.5825C18.0266 6.77091 18.395 7.13925 18.395 7.58341C18.395 8.02758 18.0266 8.39591 17.5825 8.39591Z" fill="white"/>
</svg>
