<svg width="26" height="26" viewBox="0 0 26 26" fill="none" xmlns="http://www.w3.org/2000/svg">
<path d="M14.8742 3.80261L16.7808 7.61594C17.0408 8.14677 17.7342 8.65594 18.3192 8.75344L21.775 9.32761C23.985 9.69594 24.505 11.2993 22.9125 12.8809L20.2258 15.5676C19.7708 16.0226 19.5217 16.9001 19.6625 17.5284L20.4317 20.8543C21.0383 23.4868 19.6408 24.5051 17.3117 23.1293L14.0725 21.2118C13.4875 20.8651 12.5233 20.8651 11.9275 21.2118L8.68833 23.1293C6.36999 24.5051 4.96166 23.4759 5.56833 20.8543L6.33749 17.5284C6.47833 16.9001 6.22916 16.0226 5.77416 15.5676L3.08749 12.8809C1.50583 11.2993 2.01499 9.69594 4.22499 9.32761L7.68083 8.75344C8.25499 8.65594 8.94833 8.14677 9.20833 7.61594L11.115 3.80261C12.155 1.73344 13.845 1.73344 14.8742 3.80261Z" fill="white"/>
</svg>
