<svg width="26" height="26" viewBox="0 0 26 26" fill="none" xmlns="http://www.w3.org/2000/svg">
<path d="M8.2875 22.6525C8.255 22.6525 8.21167 22.6742 8.17917 22.6742C6.0775 21.6342 4.36584 19.9117 3.315 17.81C3.315 17.7775 3.33667 17.7342 3.33667 17.7017C4.65834 18.0917 6.02334 18.3842 7.3775 18.6117C7.61584 19.9767 7.8975 21.3308 8.2875 22.6525Z" fill="white"/>
<path d="M22.685 17.8208C21.6125 19.9767 19.825 21.7208 17.6475 22.7717C18.0592 21.3958 18.4058 20.0092 18.6333 18.6117C19.9983 18.3842 21.3417 18.0917 22.6633 17.7017C22.6525 17.745 22.685 17.7883 22.685 17.8208Z" fill="white"/>
<path d="M22.7717 8.35244C21.4067 7.94077 20.0308 7.60494 18.6333 7.36661C18.4058 5.96911 18.07 4.58244 17.6475 3.22827C19.89 4.30077 21.6992 6.10994 22.7717 8.35244Z" fill="white"/>
<path d="M8.2875 3.34744C7.8975 4.66911 7.61583 6.01244 7.38833 7.37744C5.99083 7.59411 4.60417 7.94078 3.22833 8.35244C4.27917 6.17494 6.02333 4.38744 8.17917 3.31494C8.21167 3.31494 8.255 3.34744 8.2875 3.34744Z" fill="white"/>
<path d="M16.7808 7.13925C14.2675 6.85758 11.7325 6.85758 9.21918 7.13925C9.49001 5.65508 9.83668 4.17091 10.3242 2.74091C10.3458 2.65425 10.335 2.58925 10.3458 2.50258C11.2017 2.29675 12.0792 2.16675 13 2.16675C13.91 2.16675 14.7983 2.29675 15.6433 2.50258C15.6542 2.58925 15.6542 2.65425 15.6758 2.74091C16.1633 4.18175 16.51 5.65508 16.7808 7.13925Z" fill="white"/>
<path d="M7.13916 16.7809C5.64416 16.5101 4.17082 16.1634 2.74082 15.6759C2.65416 15.6542 2.58916 15.6651 2.50249 15.6542C2.29666 14.7984 2.16666 13.9209 2.16666 13.0001C2.16666 12.0901 2.29666 11.2017 2.50249 10.3567C2.58916 10.3459 2.65416 10.3459 2.74082 10.3242C4.18166 9.84757 5.64416 9.49007 7.13916 9.21924C6.86832 11.7326 6.86832 14.2676 7.13916 16.7809Z" fill="white"/>
<path d="M23.8333 13.0001C23.8333 13.9209 23.7033 14.7984 23.4975 15.6542C23.4108 15.6651 23.3458 15.6542 23.2592 15.6759C21.8183 16.1526 20.345 16.5101 18.8608 16.7809C19.1425 14.2676 19.1425 11.7326 18.8608 9.21924C20.345 9.49007 21.8292 9.83674 23.2592 10.3242C23.3458 10.3459 23.4108 10.3567 23.4975 10.3567C23.7033 11.2126 23.8333 12.0901 23.8333 13.0001Z" fill="white"/>
<path d="M16.7808 18.8608C16.51 20.3558 16.1633 21.8292 15.6758 23.2592C15.6542 23.3458 15.6542 23.4108 15.6433 23.4975C14.7983 23.7033 13.91 23.8333 13 23.8333C12.0792 23.8333 11.2017 23.7033 10.3458 23.4975C10.335 23.4108 10.3458 23.3458 10.3242 23.2592C9.84751 21.8183 9.49001 20.3558 9.21918 18.8608C10.4758 19.0017 11.7325 19.0992 13 19.0992C14.2675 19.0992 15.535 19.0017 16.7808 18.8608Z" fill="white"/>
<path d="M17.0769 17.077C14.3674 17.4189 11.6326 17.4189 8.92305 17.077C8.58119 14.3675 8.58119 11.6327 8.92305 8.92314C11.6326 8.58128 14.3674 8.58128 17.0769 8.92314C17.4188 11.6327 17.4188 14.3675 17.0769 17.077Z" fill="white"/>
</svg>
