<svg width="26" height="26" viewBox="0 0 26 26" fill="none" xmlns="http://www.w3.org/2000/svg">
<path d="M16.25 24.6459C15.9575 24.6459 15.6867 24.4834 15.5458 24.2343C15.405 23.9743 15.405 23.6709 15.5567 23.4109L16.6942 21.5151C16.9217 21.1359 17.42 21.0059 17.81 21.2334C18.2 21.4609 18.3192 21.9593 18.0917 22.3493L17.7992 22.8368C20.7892 22.1326 23.0317 19.4459 23.0317 16.2393C23.0317 15.7951 23.4 15.4268 23.8442 15.4268C24.2883 15.4268 24.6567 15.7951 24.6567 16.2393C24.6458 20.8759 20.8758 24.6459 16.25 24.6459Z" fill="white"/>
<path d="M2.16669 10.5626C1.72252 10.5626 1.35419 10.1942 1.35419 9.75008C1.35419 5.12425 5.12419 1.35425 9.75002 1.35425C10.0425 1.35425 10.3134 1.51675 10.4542 1.76591C10.595 2.02591 10.595 2.32925 10.4434 2.58925L9.30585 4.48508C9.07835 4.86425 8.58002 4.99425 8.19002 4.75591C7.81085 4.52841 7.68085 4.03008 7.91919 3.64008L8.21169 3.15258C5.21085 3.85675 2.97919 6.54341 2.97919 9.75008C2.97919 10.1942 2.61085 10.5626 2.16669 10.5626Z" fill="white"/>
<path d="M17.7667 8.89421L13.6933 6.69504C13.26 6.46754 12.7508 6.46754 12.3175 6.69504L8.23332 8.89421C7.94082 9.05671 7.75665 9.37087 7.75665 9.71754C7.75665 10.075 7.94082 10.3892 8.23332 10.5517L12.3067 12.7509C12.5233 12.87 12.7617 12.9242 13 12.9242C13.2383 12.9242 13.4767 12.87 13.6933 12.7509L17.7667 10.5517C18.0592 10.3892 18.2433 10.075 18.2433 9.71754C18.2433 9.37087 18.0592 9.05671 17.7667 8.89421Z" fill="white"/>
<path d="M11.635 13.5092L7.84333 11.6134C7.55083 11.4725 7.215 11.4834 6.93333 11.6567C6.6625 11.83 6.5 12.1225 6.5 12.4475V16.0334C6.5 16.6509 6.84667 17.2142 7.39917 17.485L11.1908 19.3809C11.3208 19.4459 11.4617 19.4784 11.6133 19.4784C11.7867 19.4784 11.9492 19.435 12.1008 19.3375C12.3825 19.1642 12.545 18.8717 12.545 18.5467V14.9609C12.5342 14.3434 12.1983 13.7909 11.635 13.5092Z" fill="white"/>
<path d="M19.0559 11.6567C18.7742 11.4834 18.4384 11.4725 18.1459 11.6134L14.3542 13.5092C13.8017 13.7909 13.455 14.3434 13.455 14.9609V18.5467C13.455 18.8717 13.6175 19.1642 13.8992 19.3375C14.0509 19.435 14.2134 19.4784 14.3867 19.4784C14.5275 19.4784 14.6684 19.4459 14.8092 19.3809L18.6009 17.485C19.1534 17.2034 19.5 16.6509 19.5 16.0334V12.4475C19.5 12.1225 19.3375 11.83 19.0559 11.6567Z" fill="white"/>
</svg>
