<svg width="26" height="26" viewBox="0 0 26 26" fill="none" xmlns="http://www.w3.org/2000/svg">
<path d="M16.25 24.6458C15.9575 24.6458 15.6867 24.4833 15.5458 24.2342C15.405 23.985 15.405 23.6708 15.5567 23.4217L16.6942 21.5258C16.9217 21.1358 17.42 21.0167 17.81 21.2442C18.2 21.4717 18.3192 21.97 18.0917 22.36L17.7992 22.8475C20.7892 22.1433 23.0317 19.4567 23.0317 16.25C23.0317 15.8058 23.4 15.4375 23.8442 15.4375C24.2883 15.4375 24.6567 15.8058 24.6567 16.25C24.6458 20.8758 20.8758 24.6458 16.25 24.6458Z" fill="white"/>
<path d="M2.16663 10.5626C1.72246 10.5626 1.35413 10.1942 1.35413 9.75008C1.35413 5.12425 5.12413 1.35425 9.74996 1.35425C10.0425 1.35425 10.3133 1.51675 10.4541 1.76591C10.595 2.01508 10.595 2.32925 10.4433 2.57841L9.30579 4.48508C9.07829 4.86425 8.57996 4.99425 8.18996 4.75591C7.81079 4.52841 7.68079 4.03008 7.91913 3.64008L8.21163 3.15258C5.21079 3.85675 2.97913 6.54341 2.97913 9.75008C2.97913 10.1942 2.61079 10.5626 2.16663 10.5626Z" fill="white"/>
<path d="M11.5592 15.0042L8.1575 13.1733C7.8 12.9783 7.36666 12.9783 7.00916 13.1733L3.6075 15.0042C3.35833 15.1342 3.20667 15.405 3.20667 15.6975C3.20667 15.99 3.35833 16.2609 3.6075 16.3909L7.00916 18.2217C7.19333 18.3192 7.38833 18.3625 7.58333 18.3625C7.77833 18.3625 7.97333 18.3192 8.1575 18.2217L11.5592 16.3909C11.8083 16.2609 11.96 15.99 11.96 15.6975C11.96 15.405 11.7975 15.145 11.5592 15.0042Z" fill="white"/>
<path d="M6.44579 18.8609L3.28246 17.2792C3.04413 17.16 2.76246 17.1709 2.52413 17.3117C2.30746 17.4525 2.16663 17.7017 2.16663 17.9725V20.9625C2.16663 21.4825 2.44829 21.9484 2.91413 22.1759L6.07746 23.7575C6.18579 23.8009 6.30496 23.8334 6.42413 23.8334C6.56496 23.8334 6.70579 23.79 6.83579 23.7142C7.06329 23.5734 7.20413 23.3242 7.20413 23.0534V20.0634C7.20413 19.5542 6.91163 19.0884 6.44579 18.8609Z" fill="white"/>
<path d="M12.6317 17.3117C12.4042 17.1709 12.1225 17.16 11.8734 17.2792L8.71002 18.8609C8.24419 19.0884 7.96252 19.5542 7.96252 20.0742V23.0642C7.96252 23.335 8.10336 23.5842 8.33086 23.725C8.46086 23.79 8.60169 23.8334 8.74252 23.8334C8.86169 23.8334 8.98086 23.8009 9.08919 23.7467L12.2525 22.165C12.7184 21.9375 13 21.4717 13 20.9517V17.9617C13 17.7017 12.8592 17.4525 12.6317 17.3117Z" fill="white"/>
<path d="M22.3925 4.1492L18.9908 2.31837C18.6333 2.12337 18.2 2.12337 17.8425 2.31837L14.4408 4.1492C14.1916 4.2792 14.04 4.55004 14.04 4.84254C14.04 5.13504 14.1916 5.40587 14.4408 5.53587L17.8425 7.3667C18.0266 7.4642 18.2216 7.50754 18.4166 7.50754C18.6116 7.50754 18.8066 7.4642 18.9908 7.3667L22.3925 5.53587C22.6416 5.40587 22.7933 5.13504 22.7933 4.84254C22.7933 4.5392 22.6308 4.2792 22.3925 4.1492Z" fill="white"/>
<path d="M17.2792 7.99489L14.1158 6.41323C13.8775 6.29406 13.5958 6.30489 13.3575 6.44573C13.1408 6.58656 13 6.83573 13 7.10656V10.0966C13 10.6166 13.2817 11.0824 13.7475 11.3099L16.9108 12.8916C17.0192 12.9457 17.1383 12.9782 17.2575 12.9782C17.3983 12.9782 17.5392 12.9349 17.6692 12.8591C17.8967 12.7182 18.0375 12.4691 18.0375 12.1982V9.20823C18.0375 8.68823 17.745 8.22239 17.2792 7.99489Z" fill="white"/>
<path d="M23.465 6.44573C23.2375 6.30489 22.9558 6.29406 22.7067 6.41323L19.5433 7.99489C19.0775 8.22239 18.7958 8.68823 18.7958 9.20823V12.1982C18.7958 12.4691 18.9367 12.7182 19.1642 12.8591C19.2942 12.9349 19.435 12.9782 19.5758 12.9782C19.695 12.9782 19.8142 12.9457 19.9225 12.8916L23.0858 11.3099C23.5517 11.0716 23.8333 10.6057 23.8333 10.0966V7.10656C23.8333 6.83573 23.6925 6.58656 23.465 6.44573Z" fill="white"/>
</svg>
