<svg id="p-2" viewBox="0 0 46 46" xmlns="http://www.w3.org/2000/svg">
    <path
        d="M22.4524 8.12946C22.6638 7.65517 23.337 7.65517 23.5484 8.12946L25.7188 12.9985C25.806 13.1941 25.9908 13.3284 26.2038 13.3509L31.5052 13.9104C32.0216 13.9649 32.2297 14.6052 31.8439 14.9528L27.8839 18.5216C27.7248 18.6649 27.6542 18.8823 27.6986 19.0918L28.8047 24.3066C28.9124 24.8146 28.3678 25.2103 27.918 24.9508L23.3002 22.2874C23.1146 22.1804 22.8861 22.1804 22.7006 22.2874L18.0828 24.9508C17.633 25.2103 17.0884 24.8146 17.1961 24.3066L18.3022 19.0918C18.3466 18.8823 18.276 18.6649 18.1169 18.5216L14.1569 14.9528C13.7711 14.6052 13.9792 13.9649 14.4956 13.9104L19.797 13.3509C20.0099 13.3284 20.1948 13.1941 20.282 12.9985L22.4524 8.12946Z" />
    <path fill-rule="evenodd" clip-rule="evenodd"
        d="M39.7636 16.9288C39.7636 19.6893 39.1031 22.2957 37.9308 24.598L45.4997 37.7075C45.9921 38.5603 45.3611 39.6239 44.3762 39.5997L38.4206 39.4545C37.948 39.4431 37.5084 39.697 37.2822 40.1119L34.4299 45.3424C33.9581 46.2071 32.722 46.2221 32.2296 45.3693L25.4656 33.6545C24.6084 33.7882 23.7301 33.8573 22.8354 33.8573C21.9407 33.8573 21.0624 33.7882 20.2051 33.6545L13.4411 45.3693C12.9487 46.2221 11.7126 46.2071 11.2409 45.3424L8.38851 40.1119C8.16233 39.697 7.72271 39.4431 7.25015 39.4545L1.29452 39.5997C0.30968 39.6239 -0.321378 38.5608 0.171062 37.7075L7.74 24.598C6.56773 22.2953 5.9068 19.6888 5.9068 16.9284C5.9068 7.57908 13.4858 0 22.8352 0C32.1845 0 39.7636 7.57942 39.7636 16.9284L39.7636 16.9288ZM37.8714 16.9288C37.8714 18.9302 37.4802 20.8409 36.7699 22.5874L36.7457 22.5452C36.4597 23.2523 36.1217 23.9326 35.7358 24.5817C33.7081 27.993 30.3654 30.5316 26.4063 31.4984C25.7599 31.6564 25.0967 31.7725 24.4204 31.8434L24.4415 31.8799C23.9134 31.9358 23.3779 31.9648 22.8353 31.9648C22.2927 31.9648 21.7572 31.9358 21.2291 31.8799L21.2502 31.8434C20.5738 31.7725 19.9106 31.6564 19.2642 31.4984C15.305 30.5316 11.9625 27.993 9.93431 24.5817C9.54882 23.9331 9.21042 23.2527 8.92484 22.5456L8.90019 22.5879C8.19039 20.8408 7.79919 18.9306 7.79919 16.9288C7.79919 8.62461 14.5311 1.89302 22.835 1.89302C31.1389 1.89302 37.8708 8.62495 37.8708 16.9288H37.8714ZM36.8236 26.4656C34.6062 29.7118 31.2886 32.1462 27.4074 33.2327L33.3062 43.4493L35.6205 39.2059C36.1864 38.1682 37.2847 37.5337 38.4663 37.5627L43.2986 37.6802L36.8236 26.4656ZM8.84621 26.4656L2.3717 37.6803L7.20395 37.5628C8.38546 37.5342 9.48383 38.1683 10.0498 39.206L12.364 43.4494L18.2629 33.2328C14.3816 32.1467 11.0637 29.7119 8.84621 26.4657V26.4656Z" />
</svg>