<svg viewBox="0 0 36 35" xmlns="http://www.w3.org/2000/svg">
	<path d="M6.02316 24.386L3.66309 25.7486" stroke-width="1.86875" stroke-miterlimit="13.33" stroke-linecap="square" />
	<path d="M11.0111 5.77267L9.64844 3.4126" stroke-width="1.86875" stroke-miterlimit="13.33" stroke-linecap="square" />
	<path d="M11.0111 29.3735L9.64844 31.7336" stroke-width="1.86875" stroke-miterlimit="13.33" stroke-linecap="square" />
	<path d="M6.02316 10.7598L3.66309 9.39722" stroke-width="1.86875" stroke-miterlimit="13.33" stroke-linecap="square" />
	<path d="M4.19791 17.573H1.47266" stroke-width="1.86875" stroke-miterlimit="13.33" stroke-linecap="square" />
	<path d="M17.8242 33.9242V31.199" stroke-width="1.86875" stroke-miterlimit="13.33" stroke-linecap="square" />
	<path d="M17.8242 3.94669V1.22144" stroke-width="1.86875" stroke-miterlimit="13.33" stroke-linecap="square" />
	<path d="M21.9134 24.6554C20.6705 25.3724 19.2608 25.7496 17.8259 25.7492C16.391 25.7488 14.9815 25.3708 13.7389 24.6531C12.4964 23.9355 11.4646 22.9034 10.7473 21.6607C10.03 20.418 9.65234 19.0084 9.65234 17.5735C9.65234 16.1386 10.03 14.729 10.7473 13.4862C11.4646 12.2435 12.4964 11.2115 13.7389 10.4938C14.9815 9.77612 16.391 9.3981 17.8259 9.39771C19.2608 9.39731 20.6705 9.77456 21.9134 10.4916" stroke-width="1.86875" stroke-miterlimit="13.33" />
	<path d="M34.1758 17.5727C34.1758 19.1897 33.6962 20.7705 32.7979 22.1149C31.8995 23.4594 30.6226 24.5074 29.1287 25.1262C27.6348 25.745 25.9909 25.9069 24.405 25.5914C22.819 25.2759 21.3622 24.4973 20.2188 23.3539C19.0754 22.2105 18.2968 20.7537 17.9813 19.1678C17.6659 17.5818 17.8278 15.9379 18.4466 14.444C19.0654 12.9501 20.1133 11.6732 21.4578 10.7748C22.8023 9.87647 24.383 9.39697 26 9.39697C28.1683 9.39697 30.2479 10.2583 31.7811 11.7916C33.3144 13.3249 34.1758 15.4044 34.1758 17.5727Z" stroke-width="1.86875" stroke-miterlimit="13.33" stroke-linecap="square" />
</svg>
