<svg viewBox="0 0 44 48" xmlns="http://www.w3.org/2000/svg">
	<rect x="12" y="14" width="20" height="20" rx="4" stroke-width="3" />
	<path d="M38 2H26C23.7909 2 22 3.79086 22 6V12.5C22 13.3284 22.6716 14 23.5 14H28.0729C28.6826 14 29.2839 14.1419 29.8292 14.4146C30.5892 14.7946 31.2054 15.4108 31.5854 16.1708C31.8581 16.7161 32 17.3174 32 17.9271V21C32 21.5523 32.4476 22 32.9999 22H37.9997C40.2088 22 42 20.2091 42 18V6C42 3.79086 40.2091 2 38 2Z" stroke-width="3" />
	<path d="M2 30C2 27.7909 3.79086 26 6 26H11V26C11.5523 26 12 26.4477 12 27V28.8009C12 28.9335 12.0094 29.0659 12.0282 29.1971L12.2308 30.6153C12.4011 31.8077 13.0997 32.8598 14.1326 33.4795L14.1903 33.5142C14.7228 33.8337 15.3223 34.0248 15.9415 34.0724L21.5 34.5V34.5C21.7761 34.5 22 34.7239 22 35V42C22 44.2091 20.2091 46 18 46H6C3.79086 46 2 44.2091 2 42V30Z" stroke-width="3" />
</svg>
