<svg viewBox="0 0 24 33" xmlns="http://www.w3.org/2000/svg">
	<g clip-path="url(#clip0_1010_15932)">
		<path d="M22.4237 0.688477C22.5151 0.725244 22.6044 0.766908 22.6911 0.813277C23.0274 1.0149 23.1775 1.38055 23.0769 1.73615C23.0307 1.91043 22.9264 2.06502 22.7802 2.17583C22.634 2.28664 22.4541 2.34746 22.2685 2.34881C21.3883 2.35594 20.5081 2.35205 19.6275 2.35237H17.9352V2.58966C17.9352 8.8783 17.9352 15.1669 17.9352 21.4556C17.9352 21.664 17.9158 21.865 17.7924 22.0443C17.5815 22.3509 17.2241 22.489 16.8617 22.4031C16.5124 22.3204 16.2449 22.0083 16.2145 21.643C16.2081 21.5678 16.2108 21.4919 16.2108 21.416C16.2108 15.144 16.2108 8.87214 16.2108 2.60035V2.36469H11.0564C11.0527 2.4386 11.046 2.51154 11.046 2.58415C11.046 8.87279 11.0444 15.1614 11.041 21.4501C11.0443 21.6376 11.0052 21.8236 10.9267 21.995C10.7522 22.3444 10.3346 22.5004 9.94681 22.4021C9.76503 22.3549 9.60442 22.2507 9.48993 22.1059C9.37544 21.9611 9.31346 21.7836 9.31363 21.6011C9.30995 20.0831 9.31195 18.5651 9.31162 17.0471V14.081C9.23707 14.0771 9.17321 14.0719 9.11103 14.0713C8.44241 14.0635 7.77379 14.0846 7.10516 14.0444C5.37076 13.9397 3.88909 13.2693 2.6762 12.067C1.65221 11.0518 0.996287 9.83878 0.770627 8.43064C0.489471 6.66852 0.874934 5.0445 1.92166 3.57996C2.95569 2.13098 4.3705 1.21782 6.14435 0.834995C6.46262 0.766274 6.79024 0.737748 7.11386 0.688477H22.4237ZM9.3036 2.36469C9.25445 2.35983 9.21701 2.35302 9.17923 2.35302C8.63899 2.35302 8.09774 2.3326 7.55916 2.35983C7.1279 2.38187 6.68761 2.41591 6.27273 2.52191C3.0386 3.35661 1.45095 6.87404 3.02991 9.73084C3.87237 11.2544 5.20795 12.1529 6.98414 12.3507C7.73768 12.4343 8.50693 12.3831 9.26916 12.3902C9.27819 12.3902 9.28722 12.3798 9.3026 12.3698L9.3036 2.36469Z" />
		<path d="M4.54213 27.4397H20.432C20.9428 27.4397 21.2975 27.712 21.372 28.1597C21.3899 28.2747 21.3829 28.3921 21.3514 28.5043C21.3199 28.6166 21.2647 28.7212 21.1892 28.8117C21.1137 28.9021 21.0197 28.9763 20.913 29.0296C20.8064 29.0829 20.6894 29.114 20.5697 29.1211C20.4861 29.1253 20.4025 29.1247 20.319 29.1247H4.49766C4.55784 29.1895 4.59394 29.23 4.63339 29.2679C5.23014 29.843 5.81753 30.4275 6.42764 30.9889C6.82079 31.3507 6.79539 31.8991 6.48214 32.2042C6.1261 32.5513 5.58785 32.541 5.20239 32.1695C4.08 31.0877 2.95872 30.0051 1.83855 28.9217C1.43269 28.5292 1.42935 28.041 1.8332 27.6485C2.96228 26.5504 4.09304 25.4541 5.22546 24.3596C5.5932 24.003 6.1281 23.9968 6.4798 24.3372C6.83149 24.6776 6.8218 25.1952 6.45272 25.5534C5.85363 26.1339 5.25187 26.7122 4.64744 27.2883C4.60799 27.3262 4.56453 27.36 4.52274 27.3953L4.54213 27.4397Z" />
	</g>
	<defs>
		<clipPath id="clip0_1010_15932">
			<rect width="22.425" height="31.7687" fill="white" transform="translate(0.681641 0.688477)" />
		</clipPath>
	</defs>
</svg>
