<svg width="32" height="32" viewBox="0 0 32 32" fill="none" xmlns="http://www.w3.org/2000/svg">
<path d="M15 24.3346H12C10.5333 24.3346 9.33333 25.5346 9.33333 27.0013V27.3346H8C7.45333 27.3346 7 27.7879 7 28.3346C7 28.8813 7.45333 29.3346 8 29.3346H24C24.5467 29.3346 25 28.8813 25 28.3346C25 27.7879 24.5467 27.3346 24 27.3346H22.6667V27.0013C22.6667 25.5346 21.4667 24.3346 20 24.3346H17V21.2812C16.6667 21.3213 16.3333 21.3346 16 21.3346C15.6667 21.3346 15.3333 21.3213 15 21.2812V24.3346Z" fill="#F96857"/>
<path d="M24.6391 15.5213C25.5191 15.188 26.2924 14.6413 26.9057 14.028C28.1457 12.6546 28.9591 11.0146 28.9591 9.09464C28.9591 7.17464 27.4524 5.66797 25.5324 5.66797H24.7857C23.9191 3.89464 22.1057 2.66797 19.9991 2.66797H11.9991C9.8924 2.66797 8.07906 3.89464 7.2124 5.66797H6.46573C4.54573 5.66797 3.03906 7.17464 3.03906 9.09464C3.03906 11.0146 3.8524 12.6546 5.0924 14.028C5.70573 14.6413 6.47906 15.188 7.35906 15.5213C8.74573 18.9346 12.0791 21.3346 15.9991 21.3346C19.9191 21.3346 23.2524 18.9346 24.6391 15.5213ZM19.7857 11.268L18.9591 12.2813C18.8257 12.428 18.7324 12.7213 18.7457 12.9213L18.8257 14.228C18.8791 15.028 18.3057 15.4413 17.5591 15.148L16.3457 14.668C16.1591 14.6013 15.8391 14.6013 15.6524 14.668L14.4391 15.148C13.6924 15.4413 13.1191 15.028 13.1724 14.228L13.2524 12.9213C13.2657 12.7213 13.1724 12.428 13.0391 12.2813L12.2124 11.268C11.6924 10.6546 11.9191 9.97464 12.6924 9.77464L13.9591 9.45464C14.1591 9.4013 14.3991 9.21464 14.5057 9.0413L15.2124 7.94797C15.6524 7.26797 16.3457 7.26797 16.7857 7.94797L17.4924 9.0413C17.5991 9.21464 17.8391 9.4013 18.0391 9.45464L19.3057 9.77464C20.0791 9.97464 20.3057 10.6546 19.7857 11.268Z" fill="#F96857"/>
</svg>
