<svg width="32" height="32" viewBox="0 0 32 32" fill="none" xmlns="http://www.w3.org/2000/svg">
<path d="M24 2.66797H8C5.78667 2.66797 4 4.4413 4 6.62797V21.1746C4 23.3613 5.78667 25.1346 8 25.1346H9.01333C10.08 25.1346 11.0933 25.548 11.84 26.2946L14.12 28.548C15.16 29.5746 16.8533 29.5746 17.8933 28.548L20.1733 26.2946C20.92 25.548 21.9467 25.1346 23 25.1346H24C26.2133 25.1346 28 23.3613 28 21.1746V6.62797C28 4.4413 26.2133 2.66797 24 2.66797ZM16.3733 19.948C16.1733 20.0146 15.84 20.0146 15.6267 19.948C13.8933 19.348 10 16.8813 10 12.6813C10.0133 10.828 11.4933 9.33464 13.3333 9.33464C14.4267 9.33464 15.3867 9.85464 16 10.668C16.6133 9.85464 17.5733 9.33464 18.6667 9.33464C20.5067 9.33464 22 10.828 22 12.6813C21.9867 16.8813 18.1067 19.348 16.3733 19.948Z" fill="white"/>
</svg>
