<svg width="32" height="25" viewBox="0 0 32 25" fill="none" xmlns="http://www.w3.org/2000/svg">
<path d="M2.75485 12.4607C3.93217 11.4162 5.4171 10.8053 6.97293 10.7254C8.52877 10.6455 10.0659 11.1012 11.3394 12.0198C12.6129 12.9385 13.5494 14.2672 13.9996 15.7941C14.4498 17.3211 14.3878 18.9584 13.8235 20.4451C13.2592 21.9318 12.2251 23.1823 10.886 23.9972C9.54691 24.8122 7.9799 25.1447 6.43478 24.9417C4.88966 24.7387 3.45536 24.012 2.36053 22.8774C1.26569 21.7427 0.573339 20.2654 0.393833 18.681C-0.226936 15.4494 -0.219961 11.5983 1.20293 8.1471C2.70602 4.50486 5.73838 1.43395 10.9155 0.046689C11.0822 0.000262961 11.2563 -0.0118775 11.4276 0.0109697C11.599 0.0338169 11.7642 0.0911985 11.9137 0.179799C12.0633 0.2684 12.1942 0.386465 12.2989 0.527171C12.4036 0.667877 12.4801 0.828436 12.5239 0.999572C12.5676 1.17071 12.5779 1.34903 12.5539 1.52423C12.53 1.69944 12.4724 1.86805 12.3845 2.02033C12.2965 2.17261 12.18 2.30554 12.0416 2.41144C11.9032 2.51734 11.7457 2.59412 11.5781 2.63732C7.16475 3.82105 4.79153 6.33313 3.61277 9.18979C3.18762 10.2367 2.89916 11.3365 2.75485 12.4607V12.4607Z" fill="#F96857"/>
<path d="M20.458 12.4607C21.6353 11.4162 23.1202 10.8053 24.6761 10.7254C26.2319 10.6455 27.7691 11.1012 29.0425 12.0198C30.316 12.9385 31.2525 14.2672 31.7027 15.7941C32.1529 17.3211 32.091 18.9584 31.5267 20.4451C30.9624 21.9318 29.9283 23.1823 28.5891 23.9972C27.25 24.8122 25.683 25.1447 24.1379 24.9417C22.5928 24.7387 21.1585 24.012 20.0637 22.8774C18.9688 21.7427 18.2765 20.2654 18.097 18.681C17.4762 15.4494 17.4832 11.5983 18.9061 8.1471C20.4091 4.50486 23.4415 1.43395 28.6186 0.046689C28.7854 0.000262961 28.9594 -0.0118775 29.1308 0.0109697C29.3021 0.0338169 29.4673 0.0911985 29.6168 0.179799C29.7664 0.2684 29.8973 0.386465 30.002 0.527171C30.1068 0.667877 30.1832 0.828436 30.227 0.999572C30.2708 1.17071 30.281 1.34903 30.2571 1.52423C30.2331 1.69944 30.1755 1.86805 30.0876 2.02033C29.9997 2.17261 29.8831 2.30554 29.7447 2.41144C29.6063 2.51734 29.4488 2.59412 29.2813 2.63732C24.8679 3.82105 22.4947 6.33313 21.3159 9.18979C20.8907 10.2367 20.6023 11.3365 20.458 12.4607V12.4607Z" fill="#F96857"/>
</svg>
