<svg width="32" height="25" viewBox="0 0 32 25" fill="none" xmlns="http://www.w3.org/2000/svg">
<path d="M29.2458 12.4609C28.0684 11.4164 26.5835 10.8055 25.0277 10.7257C23.4718 10.6458 21.9347 11.1014 20.6612 12.0201C19.3877 12.9387 18.4512 14.2674 18.001 15.7944C17.5508 17.3213 17.6128 18.9586 18.1771 20.4453C18.7414 21.932 19.7755 23.1825 21.1146 23.9975C22.4537 24.8124 24.0207 25.1449 25.5658 24.9419C27.111 24.739 28.5452 24.0123 29.6401 22.8776C30.7349 21.7429 31.4273 20.2657 31.6068 18.6813C32.2275 15.4497 32.2206 11.5986 30.7977 8.14735C29.2946 4.50511 26.2622 1.4342 21.0851 0.0469331C20.9184 0.000507102 20.7443 -0.0116334 20.573 0.0112138C20.4016 0.034061 20.2364 0.0914426 20.0869 0.180044C19.9373 0.268644 19.8064 0.386709 19.7017 0.527415C19.597 0.668121 19.5205 0.82868 19.4767 0.999816C19.433 1.17095 19.4228 1.34927 19.4467 1.52448C19.4706 1.69968 19.5282 1.86829 19.6161 2.02057C19.7041 2.17285 19.8206 2.30579 19.959 2.41169C20.0974 2.51759 20.2549 2.59436 20.4225 2.63757C24.8359 3.8213 27.2091 6.33337 28.3878 9.19003C28.813 10.237 29.1014 11.3367 29.2458 12.4609V12.4609Z" fill="#F96857"/>
<path d="M11.5426 12.4609C10.3653 11.4164 8.88038 10.8055 7.32455 10.7257C5.76872 10.6458 4.23155 11.1014 2.95807 12.0201C1.68458 12.9387 0.748097 14.2674 0.297886 15.7944C-0.152325 17.3213 -0.090344 18.9586 0.473948 20.4453C1.03824 21.932 2.07236 23.1825 3.41147 23.9975C4.75057 24.8124 6.31758 25.1449 7.86271 24.9419C9.40783 24.739 10.8421 24.0123 11.937 22.8776C13.0318 21.7429 13.7241 20.2657 13.9037 18.6813C14.5244 15.4497 14.5174 11.5986 13.0946 8.14735C11.5915 4.50511 8.55911 1.4342 3.38196 0.0469331C3.21524 0.000507102 3.04119 -0.0116334 2.86986 0.0112138C2.69852 0.034061 2.53331 0.0914426 2.38377 0.180044C2.23422 0.268644 2.1033 0.386709 1.99858 0.527415C1.89385 0.668121 1.81739 0.82868 1.77362 0.999816C1.72985 1.17095 1.71963 1.34927 1.74355 1.52448C1.76748 1.69968 1.82507 1.86829 1.91301 2.02057C2.00094 2.17285 2.11748 2.30579 2.25588 2.41169C2.39428 2.51759 2.5518 2.59436 2.71934 2.63757C7.13273 3.8213 9.50596 6.33337 10.6847 9.19003C11.1099 10.237 11.3983 11.3367 11.5426 12.4609V12.4609Z" fill="#F96857"/>
</svg>
