<svg width="57" height="55" viewBox="0 0 57 55" fill="none" xmlns="http://www.w3.org/2000/svg">
<path d="M48.6153 9.08382C58.5168 18.3494 58.5168 35.8815 48.4336 46.0555C47.4344 45.1471 46.526 44.2387 45.5267 43.3303C40.258 38.1524 34.9894 32.9746 29.9023 27.9784C36.2611 21.438 42.4382 15.2609 48.6153 9.08382Z" fill="#747B70"/>
<path d="M10.2812 47.9631C16.4583 41.6952 22.2721 35.7906 27.8133 30.1586C33.627 35.9723 39.5316 41.9677 45.527 48.0539C40.5308 50.1432 34.8987 52.5051 29.1759 54.7761C28.4491 55.0486 27.3591 54.9577 26.6324 54.6852C21.0003 52.4142 15.4591 50.1432 10.2812 47.9631Z" fill="#747B70"/>
<path d="M12.3711 39.8784C17.8215 26.7067 23.2718 13.535 28.9947 -0.00012207C34.8084 2.3617 40.4405 4.72353 45.8 6.90368C34.7176 18.0769 23.8169 29.0685 12.9161 40.0601C12.7345 39.9692 12.5528 39.9692 12.3711 39.8784Z" fill="#747B70"/>
<path d="M7.28402 46.0554C2.6512 41.0593 0.743575 35.7906 0.016859 29.9768C-0.0739804 28.8868 0.198538 27.4333 0.925254 26.7066C8.46493 18.9853 16.0954 11.3548 24.6343 4.26929C18.9115 17.986 13.1886 31.7028 7.28402 46.0554Z" fill="#747B70"/>
</svg>
