<svg width="33" height="41" viewBox="0 0 33 41" fill="none" xmlns="http://www.w3.org/2000/svg">
<path d="M7.00189 1.52283C4.43477 2.3443 1.85055 3.16578 1.24299 3.35403L0.15625 3.70487V11.2522C0.15625 15.7703 0.190478 19.176 0.24182 19.7408C0.618331 23.6941 2.32974 27.4421 5.18779 30.5569C5.83813 31.2671 16.1579 40.2606 16.4489 40.3718C16.5687 40.4146 25.6391 32.679 27.1281 31.2586C29.7123 28.8027 31.7318 25.2087 32.4505 21.7688C32.8271 19.9547 32.8527 19.2787 32.8271 11.2351L32.8014 3.67065L26.9911 1.83944C23.7994 0.838261 21.1724 0.0253448 21.1552 0.0339012C21.1467 0.0510139 21.6259 1.00085 22.2334 2.15605L23.3373 4.25253L24.9888 4.78306C25.8958 5.074 27.265 5.51041 28.0351 5.75L29.4299 6.18641L29.3957 13.1347C29.37 19.8092 29.3615 20.1173 29.1903 20.896C28.54 23.831 27.1965 26.3211 25.1343 28.4262C24.7406 28.8284 22.7383 30.5997 20.6932 32.3539C18.648 34.1166 16.8682 35.6483 16.7398 35.7681L16.5173 35.9735L12.5896 32.5935C7.78914 28.4519 7.07034 27.7502 5.9237 25.9874C5.04232 24.6269 4.39199 23.1636 3.99836 21.649C3.6133 20.1087 3.57907 19.5354 3.57907 12.6727V6.19497L4.80273 5.80991C5.47018 5.59598 6.8393 5.15957 7.84048 4.84296C8.8331 4.52635 9.65457 4.23541 9.65457 4.20974C9.65457 4.18407 10.1338 3.24279 10.7242 2.12182C11.3146 0.99229 11.7938 0.0595703 11.7938 0.0424576C11.7938 -0.00888443 11.6911 0.0253448 7.00189 1.52283Z" fill="#FF4C2F"/>
<path d="M16.2768 0.290501C16.1998 0.444527 14.0434 4.56047 11.4934 9.42943L6.85547 18.286L6.92393 19.0048C7.07795 20.4766 7.6256 22.034 8.51554 23.4459C8.83215 23.9593 8.92627 24.0534 9.01184 23.9593C9.06319 23.8994 10.7575 20.6991 12.7769 16.8484C14.7879 13.0063 16.4565 9.85728 16.4907 9.85728C16.5164 9.85728 18.2107 12.972 20.2472 16.7714C22.2838 20.5707 23.9867 23.7454 24.038 23.8309C24.1236 23.9764 24.1407 23.9679 24.2776 23.7882C25.159 22.633 25.8863 20.7247 26.0917 19.039L26.1944 18.1833L21.334 9.12137C18.6642 4.14117 16.465 0.042345 16.4479 0.0337887C16.4394 0.016674 16.3623 0.127916 16.2768 0.290501Z" fill="#FF4C2F"/>
<path d="M14.1051 22.0854L11.752 26.7832L13.0783 27.9384C13.8056 28.5717 14.8753 29.4873 15.4486 29.9665L16.5011 30.8393L16.7322 30.651C16.8691 30.5483 17.9216 29.6327 19.0768 28.6144L21.1904 26.7661L18.8457 22.0769C17.5536 19.5012 16.4926 17.3876 16.4754 17.3876C16.4669 17.3876 15.3973 19.5012 14.1051 22.0854Z" fill="#FF4C2F"/>
</svg>
