<svg viewBox="0 0 144 80" id="shape1" xmlns="http://www.w3.org/2000/svg">
<path d="M8.34866 1.59551C3.2556 7.62338 0.6593 16.1892 3.10334 23.8288C5.36874 30.9148 12.2312 36.9023 19.9759 36.5213C23.9584 36.3235 27.8415 34.438 30.551 31.5262C31.2159 30.814 31.8026 30.0333 32.3008 29.1974C32.6359 28.6372 33.2977 27.7826 33.0384 27.0982C32.3464 25.2803 30.111 27.8997 29.6395 28.5898C26.9785 32.4937 28.5281 37.0506 30.6936 40.7537C31.8237 42.6872 33.1049 44.5402 34.384 46.3774C35.6414 48.1861 36.9644 49.9536 38.462 51.5708C41.1878 54.5054 44.683 57.0963 48.8266 57.3564C52.1132 57.5672 55.8834 56.5521 57.9408 53.7881C58.434 53.1174 58.803 52.3648 59.0302 51.566C59.3628 50.4358 60.9129 50.9174 60.7519 52.0201C59.6211 59.7416 64.1409 67.7161 70.9785 71.2516C78.2473 75.007 87.3641 72.691 92.9066 66.8847C93.6077 66.1546 94.2456 65.3669 94.8134 64.53C95.1995 63.966 96.0105 63.0304 95.8909 62.2961C95.5564 60.3382 92.5653 62.2323 91.8279 62.8695C88.4317 65.8009 89.1453 70.5743 91.8972 73.6524C94.9591 77.0769 99.7233 78.0039 104.153 77.9489C108.656 77.8972 113.142 76.9668 117.358 75.3753C125.763 72.2032 133.175 66.2079 137.884 58.5627C138.459 57.6283 138.992 56.6726 139.485 55.6957L140.483 56.9957L122.75 62.4495L122.764 60.7355C124.967 61.4033 127.072 60.2115 128.876 59.0335C130.913 57.7055 132.816 56.1023 135.095 55.194C137.374 54.2856 140.001 54.5566 141.67 56.4587C143.841 58.9443 143.506 62.7948 142.661 65.7613C141.737 69.0065 139.874 72.9993 142.02 76.1323C142.666 77.0739 141.115 77.9628 140.472 77.0255C138.656 74.373 139.233 71.0409 140.072 68.1325C140.925 65.1755 142.315 61.8093 141.029 58.7719C140.055 56.4533 137.611 56.0136 135.476 56.9407C133.299 57.887 131.461 59.4908 129.468 60.7503C127.331 62.1105 124.837 63.218 122.291 62.4467C122.106 62.3907 121.946 62.277 121.832 62.1225C121.718 61.968 121.658 61.7809 121.66 61.5887C121.661 61.3965 121.725 61.2095 121.841 61.0554C121.957 60.9012 122.12 60.7881 122.305 60.7327L140.035 55.2725C140.807 55.0348 141.358 55.9208 141.032 56.5733C136.472 65.5508 128.52 72.6669 119.224 76.529C114.555 78.4661 109.549 79.6076 104.494 79.722C99.5834 79.8279 94.2485 78.8057 90.7896 75.0868C87.6107 71.665 86.446 66.3486 89.6781 62.5227C90.9302 61.0408 93.3218 59.341 95.3781 59.7077C95.8285 59.7908 96.2512 59.9816 96.61 60.2638C96.9687 60.546 97.2528 60.9111 97.4378 61.3279C97.872 62.3122 97.6498 63.2524 97.1351 64.1534C92.6564 72.085 82.5368 76.684 73.6864 74.2237C65.2231 71.8743 59.0068 63.5401 58.8063 54.8406C58.7876 53.7492 58.8618 52.6576 59.0282 51.5774L60.7499 52.0315C59.5982 55.9561 55.9233 58.3661 52.0077 58.9774C47.469 59.6856 43.3206 58.149 39.8262 55.3153C35.9172 52.1446 33.0599 47.7644 30.3507 43.5871C27.7228 39.5504 25.1389 34.4974 27.1007 29.6206C27.531 28.5344 28.1468 27.5296 28.9207 26.6509C29.5771 25.912 30.4729 25.0724 31.4516 24.8025C33.2582 24.3019 35.0642 25.8638 34.8614 27.707C34.7483 28.7378 34.0654 29.7734 33.5039 30.623C32.8818 31.5663 32.1631 32.4432 31.3595 33.2393C29.7512 34.8235 27.8525 36.0848 25.768 36.9537C23.7089 37.8231 21.4983 38.2728 19.2673 38.276C17.0362 38.2792 14.8303 37.8359 12.7805 36.9724C8.79219 35.3109 5.4579 32.2245 3.27615 28.529C-1.40568 20.5985 0.0335139 10.49 5.06879 3.01326C5.69213 2.09221 6.3652 1.20536 7.085 0.356678C7.82736 -0.522238 9.09196 0.733117 8.35087 1.59936L8.34866 1.59551Z" fill="#202326"/>
</svg>
