<svg viewBox="0 0 145 124" id="shape2" xmlns="http://www.w3.org/2000/svg">
<path d="M132.43 85.7891C137.025 79.472 139.42 71.7903 139.244 63.9412C139.219 61.0674 139.297 54.9843 137.453 52.6112C135.608 50.238 131.685 52.107 129.885 49.5356C127.643 46.361 129.677 39.861 129.179 36.2255C128.301 29.8477 126.154 23.3838 121.118 19.0758C118.845 17.2294 116.203 15.9054 113.375 15.196C110.548 14.4866 107.602 14.4089 104.745 14.9683C101.793 15.4628 98.9466 16.4616 96.3278 17.9218C94.2982 19.0569 91.1558 23.0312 88.9505 23.02C87.7679 22.8985 86.6315 22.4881 85.6395 21.824C72.8158 14.8013 56.7912 3.45322 41.7581 10.1381C39.5645 11.0846 37.6172 12.5303 36.0673 14.3628C34.5175 16.1952 33.4069 18.3653 32.8216 20.7044C31.3894 25.8369 33.3624 30.3466 28.8544 33.4199C19.8529 39.3874 11.4882 44.6789 7.348 55.4562C5.13496 61.2627 4.28753 67.9702 6.80793 73.6707C9.32833 79.3712 15.9784 83.3603 21.7206 81.3138C25.6357 90.9987 21.5774 103.271 27.5665 111.784C32.4235 118.678 41.8882 120.082 50.1265 119.392C59.1131 118.678 69.4423 114.859 71.6911 105.979C75.1582 108.776 78.8863 111.628 83.2276 112.578C87.5689 113.528 92.7457 111.908 94.5942 107.769C93.2804 110.677 122.785 115.96 128.016 110.473C128.278 110.205 113.326 105.442 112.099 104.98C107.441 103.398 101.731 98.8973 102.114 93.3178C101.948 95.7092 116.21 95.0457 117.546 94.8186C123.155 93.8797 128.247 90.9551 131.915 86.5664L132.43 85.7891Z" stroke="#2E2E2E" stroke-miterlimit="10"/>
<path d="M37.9123 41.6397C39.9283 41.6397 41.5483 42.2097 42.7723 43.3497C43.9963 44.4777 44.6083 46.0077 44.6083 47.9397C44.6083 49.8717 43.9963 51.4077 42.7723 52.5477C41.5483 53.6757 39.9283 54.2397 37.9123 54.2397H34.7263V41.6397H37.9123ZM38.0023 52.5117C39.4423 52.5117 40.5823 52.1157 41.4223 51.3237C42.2623 50.5197 42.6823 49.3917 42.6823 47.9397C42.6823 46.4877 42.2623 45.3657 41.4223 44.5737C40.5823 43.7697 39.4423 43.3677 38.0023 43.3677H36.5983V52.5117H38.0023ZM47.7828 44.2857C47.4588 44.2857 47.1768 44.1717 46.9368 43.9437C46.7088 43.7157 46.5948 43.4337 46.5948 43.0977C46.5948 42.7617 46.7088 42.4797 46.9368 42.2517C47.1768 42.0237 47.4588 41.9097 47.7828 41.9097C48.1188 41.9097 48.4008 42.0237 48.6288 42.2517C48.8688 42.4797 48.9888 42.7617 48.9888 43.0977C48.9888 43.4337 48.8688 43.7157 48.6288 43.9437C48.4008 44.1717 48.1188 44.2857 47.7828 44.2857ZM46.8828 54.2397V45.7257H48.6828V54.2397H46.8828ZM54.2992 54.4557C53.2552 54.4557 52.4152 54.2037 51.7792 53.6997C51.1552 53.1957 50.8132 52.5057 50.7532 51.6297H52.5172C52.5652 52.0737 52.7512 52.4157 53.0752 52.6557C53.3992 52.8957 53.8192 53.0157 54.3352 53.0157C54.8392 53.0157 55.2412 52.9077 55.5412 52.6917C55.8412 52.4757 55.9912 52.1937 55.9912 51.8457C55.9912 51.2937 55.4632 50.9157 54.4072 50.7117L53.3632 50.5137C51.6832 50.1777 50.8432 49.3917 50.8432 48.1557C50.8432 47.3757 51.1492 46.7397 51.7612 46.2477C52.3852 45.7557 53.2192 45.5097 54.2632 45.5097C55.2472 45.5097 56.0272 45.7377 56.6032 46.1937C57.1912 46.6377 57.5152 47.2737 57.5752 48.1017H55.8112C55.7152 47.3217 55.1632 46.9317 54.1552 46.9317C53.6632 46.9317 53.2792 47.0337 53.0032 47.2377C52.7272 47.4417 52.5892 47.7117 52.5892 48.0477C52.5892 48.2997 52.6972 48.5037 52.9132 48.6597C53.1292 48.8157 53.5492 48.9537 54.1732 49.0737L55.2172 49.2717C56.0812 49.4397 56.7112 49.7217 57.1072 50.1177C57.5152 50.5137 57.7192 51.0417 57.7192 51.7017C57.7192 52.5177 57.4132 53.1837 56.8012 53.6997C56.1892 54.2037 55.3552 54.4557 54.2992 54.4557ZM63.6024 54.4557C62.3064 54.4557 61.2504 54.0417 60.4344 53.2137C59.6304 52.3737 59.2284 51.2937 59.2284 49.9737C59.2284 48.6657 59.6424 47.5977 60.4704 46.7697C61.2984 45.9297 62.3604 45.5097 63.6564 45.5097C64.7604 45.5097 65.6664 45.8157 66.3744 46.4277C67.0944 47.0277 67.5144 47.8617 67.6344 48.9297H65.7804C65.7084 48.3657 65.4744 47.9157 65.0784 47.5797C64.6944 47.2437 64.2084 47.0757 63.6204 47.0757C62.8764 47.0757 62.2644 47.3397 61.7844 47.8677C61.3044 48.3957 61.0644 49.0977 61.0644 49.9737C61.0644 50.8617 61.3044 51.5697 61.7844 52.0977C62.2644 52.6257 62.8704 52.8897 63.6024 52.8897C64.1904 52.8897 64.6944 52.7217 65.1144 52.3857C65.5464 52.0497 65.8044 51.5997 65.8884 51.0357H67.6704C67.5624 52.0917 67.1364 52.9257 66.3924 53.5377C65.6484 54.1497 64.7184 54.4557 63.6024 54.4557ZM76.6493 53.2137C75.8213 54.0417 74.7713 54.4557 73.4993 54.4557C72.2273 54.4557 71.1713 54.0417 70.3313 53.2137C69.5033 52.3737 69.0893 51.2937 69.0893 49.9737C69.0893 48.6657 69.5033 47.5977 70.3313 46.7697C71.1713 45.9297 72.2273 45.5097 73.4993 45.5097C74.7713 45.5097 75.8213 45.9297 76.6493 46.7697C77.4893 47.5977 77.9093 48.6657 77.9093 49.9737C77.9093 51.2937 77.4893 52.3737 76.6493 53.2137ZM71.6453 52.0977C72.1253 52.6257 72.7433 52.8897 73.4993 52.8897C74.2553 52.8897 74.8733 52.6257 75.3533 52.0977C75.8333 51.5577 76.0733 50.8497 76.0733 49.9737C76.0733 49.1097 75.8333 48.4137 75.3533 47.8857C74.8733 47.3457 74.2553 47.0757 73.4993 47.0757C72.7433 47.0757 72.1253 47.3457 71.6453 47.8857C71.1653 48.4137 70.9253 49.1097 70.9253 49.9737C70.9253 50.8497 71.1653 51.5577 71.6453 52.0977ZM85.6507 45.7257H87.4507V54.2397H85.8307L85.7227 53.1237H85.6687C85.4047 53.5317 85.0267 53.8557 84.5347 54.0957C84.0547 54.3357 83.5327 54.4557 82.9687 54.4557C82.0687 54.4557 81.3427 54.1617 80.7907 53.5737C80.2507 52.9857 79.9807 52.1577 79.9807 51.0897V45.7257H81.7807V50.4417C81.7807 51.2937 81.9247 51.9057 82.2127 52.2777C82.5127 52.6497 82.9507 52.8357 83.5267 52.8357C84.1747 52.8357 84.6907 52.6257 85.0747 52.2057C85.4587 51.7737 85.6507 51.1497 85.6507 50.3337V45.7257ZM94.6434 45.5097C95.5794 45.5097 96.3174 45.8037 96.8574 46.3917C97.4094 46.9797 97.6854 47.8077 97.6854 48.8757V54.2397H95.8854V49.5057C95.8854 48.6537 95.7354 48.0417 95.4354 47.6697C95.1354 47.2977 94.6854 47.1117 94.0854 47.1117C93.4134 47.1117 92.8794 47.3277 92.4834 47.7597C92.0994 48.1797 91.9074 48.7977 91.9074 49.6137V54.2397H90.1074V45.7257H91.7454L91.8534 46.8417H91.9074C92.1834 46.4217 92.5614 46.0977 93.0414 45.8697C93.5214 45.6297 94.0554 45.5097 94.6434 45.5097ZM104.015 52.9077C104.315 52.9077 104.579 52.8837 104.807 52.8357V54.3297C104.471 54.4137 104.075 54.4557 103.619 54.4557C102.587 54.4557 101.825 54.2037 101.333 53.6997C100.841 53.1957 100.595 52.3737 100.595 51.2337V47.2737H99.1005V45.7257H100.595V43.6017H102.395V45.7257H104.735V47.2737H102.395V51.1797C102.395 51.8397 102.515 52.2957 102.755 52.5477C102.995 52.7877 103.415 52.9077 104.015 52.9077Z" fill="#202326"/>
<path d="M41.8803 72.4697C43.8003 72.4697 45.3803 73.1097 46.6203 74.3897C47.8803 75.6497 48.5103 77.3097 48.5103 79.3697C48.5103 81.5297 47.8103 83.2797 46.4103 84.6197C45.0303 85.9397 43.2103 86.5997 40.9503 86.5997C38.8703 86.5997 37.1803 86.0197 35.8803 84.8597C34.5803 83.6797 33.8903 82.0697 33.8103 80.0297H37.5303C37.6303 81.0497 37.9903 81.8397 38.6103 82.3997C39.2503 82.9397 40.0603 83.2097 41.0403 83.2097C42.1803 83.2097 43.0903 82.8597 43.7703 82.1597C44.4503 81.4397 44.7903 80.4697 44.7903 79.2497C44.7903 78.0697 44.4603 77.1497 43.8003 76.4897C43.1603 75.8097 42.2903 75.4697 41.1903 75.4697C39.6303 75.4697 38.4503 76.0597 37.6503 77.2397H34.1703L35.5203 65.2397H47.1003V68.6297H38.7303L38.1303 73.5497C39.1903 72.8297 40.4403 72.4697 41.8803 72.4697ZM64.887 84.5297C63.567 85.9097 61.697 86.5997 59.277 86.5997C56.857 86.5997 54.987 85.9097 53.667 84.5297C52.347 83.1297 51.687 81.1897 51.687 78.7097V72.7697C51.687 70.2897 52.347 68.3597 53.667 66.9797C54.987 65.5797 56.857 64.8797 59.277 64.8797C61.697 64.8797 63.567 65.5797 64.887 66.9797C66.227 68.3597 66.897 70.2897 66.897 72.7697V78.7097C66.897 81.1897 66.227 83.1297 64.887 84.5297ZM59.277 83.2097C61.877 83.2097 63.177 81.7097 63.177 78.7097V72.7697C63.177 69.7697 61.877 68.2697 59.277 68.2697C56.697 68.2697 55.407 69.7697 55.407 72.7697V78.7097C55.407 81.7097 56.697 83.2097 59.277 83.2097ZM79.2772 74.2397C78.2372 75.2797 76.9372 75.7997 75.3772 75.7997C73.8172 75.7997 72.5072 75.2797 71.4472 74.2397C70.4072 73.1797 69.8872 71.8797 69.8872 70.3397C69.8872 68.7997 70.4072 67.5097 71.4472 66.4697C72.5072 65.4097 73.8172 64.8797 75.3772 64.8797C76.9372 64.8797 78.2372 65.4097 79.2772 66.4697C80.3372 67.5097 80.8672 68.7997 80.8672 70.3397C80.8672 71.8797 80.3372 73.1797 79.2772 74.2397ZM73.8772 86.2397L87.2572 65.2397H90.7072L77.3272 86.2397H73.8772ZM73.4872 72.3497C73.9672 72.8697 74.5972 73.1297 75.3772 73.1297C76.1572 73.1297 76.7872 72.8697 77.2672 72.3497C77.7472 71.8297 77.9872 71.1597 77.9872 70.3397C77.9872 69.4997 77.7472 68.8297 77.2672 68.3297C76.7872 67.8097 76.1572 67.5497 75.3772 67.5497C74.5972 67.5497 73.9672 67.8097 73.4872 68.3297C73.0072 68.8297 72.7672 69.4997 72.7672 70.3397C72.7672 71.1597 73.0072 71.8297 73.4872 72.3497ZM93.1072 85.0397C92.0672 86.0797 90.7672 86.5997 89.2072 86.5997C87.6472 86.5997 86.3372 86.0797 85.2772 85.0397C84.2372 83.9797 83.7172 82.6797 83.7172 81.1397C83.7172 79.5997 84.2372 78.3097 85.2772 77.2697C86.3372 76.2097 87.6472 75.6797 89.2072 75.6797C90.7672 75.6797 92.0672 76.2097 93.1072 77.2697C94.1672 78.3097 94.6972 79.5997 94.6972 81.1397C94.6972 82.6797 94.1672 83.9797 93.1072 85.0397ZM87.3172 83.1797C87.7972 83.6797 88.4272 83.9297 89.2072 83.9297C89.9872 83.9297 90.6172 83.6697 91.0972 83.1497C91.5772 82.6297 91.8172 81.9597 91.8172 81.1397C91.8172 80.3197 91.5772 79.6497 91.0972 79.1297C90.6172 78.6097 89.9872 78.3497 89.2072 78.3497C88.4272 78.3497 87.7972 78.6097 87.3172 79.1297C86.8372 79.6297 86.5972 80.2997 86.5972 81.1397C86.5972 81.9797 86.8372 82.6597 87.3172 83.1797Z" fill="#FF3939"/>
</svg>
