<svg width="134" height="165" viewBox="0 0 134 165" fill="none" xmlns="http://www.w3.org/2000/svg">
<path d="M77.378 124.141C77.5865 124.565 77.7616 124.917 77.9368 125.27C79.0458 127.474 80.1657 129.67 81.2665 131.877C81.8529 133.046 82.3547 134.249 82.7498 135.502C83.1423 136.76 83.3377 138.044 83.3112 139.363C83.2658 141.512 82.9734 143.622 82.2858 145.661C81.9743 146.587 81.55 147.464 81.0377 148.298C80.6583 148.917 80.2485 149.515 79.8029 150.088C79.1971 150.863 78.4945 151.528 77.7257 152.134C76.8642 152.817 76.0636 153.571 75.2961 154.355C74.7326 154.931 74.1306 155.476 73.4705 155.943C73.1132 156.198 72.7364 156.409 72.3208 156.56C71.815 156.742 71.3292 156.66 70.8888 156.389C70.4043 156.096 70.0069 155.71 69.7293 155.205C68.9991 153.869 68.5781 152.447 68.6552 150.914C68.689 150.261 68.6298 149.631 68.4446 149.008C68.4081 148.887 68.3579 148.767 68.3571 148.644C68.349 148.271 68.158 147.993 67.9367 147.706C67.3695 146.943 66.8458 146.146 66.2704 145.385C65.2993 144.095 64.3065 142.822 63.3054 141.552C62.3236 140.298 61.3799 139.008 60.5263 137.66C59.4177 135.899 58.5357 134.025 57.8232 132.07C57.3928 130.889 57.2034 129.662 57.1482 128.413C57.1319 128.043 57.1265 127.665 57.1184 127.292C57.115 127.188 57.1143 127.092 57.0449 126.969C56.8296 127.143 56.7406 127.352 56.6295 127.536C56.0117 128.571 55.3746 129.59 54.5805 130.497C54.159 130.98 53.7651 131.49 53.3656 131.997C52.45 133.165 51.3466 134.132 50.1603 135.018C48.9278 135.942 47.6258 136.743 46.2935 137.509C45.4853 137.972 44.6717 138.433 43.8829 138.926C42.4446 139.824 40.8885 140.337 39.2122 140.524C38.4042 140.612 37.5952 140.549 36.799 140.363C35.9862 140.168 35.32 139.759 34.7647 139.124C33.8142 138.042 33.3424 136.807 33.401 135.367C33.4333 134.495 33.5259 133.626 33.6927 132.772C34.4103 129.13 35.2705 125.516 36.3835 121.973C37.062 119.813 37.6115 117.625 38.0539 115.404C38.3849 113.73 38.8752 112.107 39.6349 110.575C39.797 110.244 39.9729 109.914 40.1839 109.513C40.0199 109.569 39.9213 109.588 39.8339 109.627C38.2654 110.332 36.6635 110.965 35.0393 111.547C34.5909 111.709 34.1369 111.854 33.6746 111.989C33.4612 112.048 33.3085 112.164 33.1919 112.346C32.6818 113.106 32.1249 113.823 31.488 114.48C31.3601 114.615 31.2598 114.777 31.1429 114.918C30.4229 115.827 29.7221 116.753 28.9745 117.649C27.9931 118.826 26.9484 119.952 25.8815 121.053C25.5059 121.442 25.1303 121.831 24.7851 122.242C24.1136 123.039 23.3812 123.765 22.6131 124.467C21.7279 125.281 20.862 126.112 19.9658 126.922C19.2903 127.532 18.5733 128.102 17.906 128.723C16.9637 129.599 16.0268 130.477 15.1287 131.401C14.0999 132.453 13.0986 133.532 12.125 134.638C11.4804 135.366 10.9103 136.165 10.3098 136.928C10.1441 137.14 9.99765 137.369 9.83742 137.584C8.41955 139.455 7.00439 141.32 5.57552 143.186C4.65466 144.393 3.84391 145.668 3.08827 146.983C2.73082 147.613 2.34585 148.23 1.9994 148.866C1.71782 149.369 1.45555 149.889 1.20427 150.414C0.618023 151.649 0.0317716 152.884 -0.532472 154.13C-1.37483 155.983 -2.08255 157.882 -2.63085 159.846C-2.79663 160.447 -2.97342 161.043 -3.15271 161.672C-3.12483 161.74 -3.09945 161.842 -3.04676 161.929C-2.8279 162.262 -2.89433 162.564 -3.12812 162.845C-3.59288 163.416 -4.15444 163.864 -4.84878 164.137C-6.21286 164.676 -7.59425 164.693 -8.98717 164.234C-9.42397 164.095 -9.84997 163.933 -10.1894 163.61C-10.2777 163.525 -10.3961 163.447 -10.438 163.337C-10.722 162.692 -10.8855 162.038 -10.5449 161.359C-10.4638 161.194 -10.3635 161.031 -10.2549 160.88C-9.84216 160.318 -9.59704 159.694 -9.40153 159.032C-8.43965 155.837 -7.47777 152.643 -5.87555 149.688C-4.99596 148.064 -4.09984 146.449 -3.09913 144.899C-2.04959 143.277 -0.914632 141.718 0.305733 140.221C1.64299 138.584 3.01057 136.968 4.42782 135.404C5.69547 134.005 6.9907 132.634 8.29424 131.273C9.51343 130.001 10.7464 128.743 11.9987 127.501C13.2211 126.292 14.4682 125.102 15.7127 123.917C17.6843 122.045 19.6752 120.203 21.633 118.317C23.0544 116.953 24.4427 115.559 25.8226 114.154C27.0747 112.885 28.2992 111.588 29.4134 110.196C29.9434 109.534 30.5008 108.886 30.9976 108.195C31.565 107.402 32.0856 106.578 32.6144 105.766C32.9915 105.193 33.352 104.612 33.7236 104.037C34.9085 102.181 35.9642 100.255 36.819 98.2235C36.8595 98.1273 36.8917 98.0339 36.9347 97.9047C36.8681 97.7901 36.7987 97.6672 36.7184 97.5526C35.6772 96.0303 34.5051 94.6076 33.3658 93.16C32.9399 92.6229 32.5113 92.0914 32.042 91.6013C31.614 91.1519 31.1614 90.711 30.6573 90.3609C29.6685 89.677 28.6174 89.0922 27.4959 88.6505C26.7648 88.3595 26.0471 88.041 25.324 87.7199C24.4496 87.3312 23.6321 86.8408 22.8662 86.2732C22.4804 85.988 22.1056 85.6946 21.7281 85.4067C21.1439 84.9694 20.6986 84.3886 20.1879 83.8714C19.7241 83.3976 19.2766 82.9046 18.8347 82.4143C18.6137 82.1691 18.3872 81.9212 18.218 81.6401C17.7356 80.8567 17.6889 80.0484 18.1437 79.2202C18.6662 78.2819 19.3927 77.5121 20.2215 76.8539C22.2851 75.2114 24.6129 74.1153 27.2024 73.5984C27.5664 73.5246 27.9277 73.4426 28.2671 73.3772C28.3782 73.1928 28.2841 73.0646 28.2367 72.9388C27.7086 71.498 27.1805 70.0571 26.6388 68.6163C26.0496 67.0634 25.5507 65.4798 25.1557 63.8653C24.4673 61.0412 24.7389 58.3065 25.8031 55.6265C26.156 54.7415 26.5282 53.8727 27.1782 53.1336C26.9878 52.9512 26.7686 52.9664 26.5766 52.9404C25.6273 52.8154 24.6861 52.6739 23.7398 52.5845C19.3428 52.1518 14.9282 51.9357 10.5038 51.8924C7.74601 51.8622 4.98554 51.8375 2.22489 51.7854C1.52035 51.7738 0.812834 51.7266 0.118533 51.6109C-1.50334 51.3398 -3.10874 51.466 -4.71329 51.7157C-6.23291 51.9592 -7.7586 52.1178 -9.29017 52.2189C-9.67922 52.2463 -10.077 52.2079 -10.4639 52.1475C-11.0264 52.0555 -11.3934 51.7045 -11.5671 51.1684C-11.6427 50.9332 -11.6829 50.6813 -11.701 50.4402C-11.7496 49.747 -11.631 49.0746 -11.4437 48.4155C-10.9728 46.7484 -10.1442 45.2844 -9.03221 43.9664C-7.99911 42.7394 -6.78932 41.6949 -5.49104 40.7622C-3.80541 39.5553 -2.05058 38.444 -0.212492 37.4828C2.15818 36.2438 4.68814 35.4451 7.30225 34.9198C10.6445 34.247 14.0158 34.2099 17.4006 34.5482C18.9285 34.7048 20.4457 34.9109 21.9554 35.2019C22.1365 35.2363 22.3203 35.2515 22.504 35.2666C22.5177 35.2665 22.5368 35.2417 22.5586 35.2251C22.3148 34.8595 21.9513 34.6126 21.6259 34.3298C20.3657 33.253 19.1083 32.1708 18.0904 30.8512C17.5234 30.115 17.0027 29.3402 16.4519 28.5847C15.3698 27.0901 14.3068 25.5844 13.1919 24.1147C12.5529 23.2748 11.8266 22.5014 11.1631 21.6837C10.4249 20.7815 9.80688 19.8017 9.328 18.7333C9.0831 18.2032 8.89293 17.6591 8.7738 17.0815C8.68293 16.6271 8.688 16.1721 8.74789 15.7166C8.85239 14.9758 9.29544 14.4355 9.799 13.9249C9.88336 13.8366 9.98422 13.7564 10.0852 13.6899C11.1328 12.9754 12.2191 12.3073 13.4503 11.9698C15.256 11.4776 17.1042 11.1907 18.9878 11.2489C20.9782 11.3118 22.8812 11.803 24.669 12.6814C25.7142 13.195 26.7079 13.7856 27.6664 14.4478C28.5532 15.0612 29.4673 15.6332 30.3486 16.2438C31.0813 16.7541 31.765 17.3222 32.4353 17.9178C33.0255 18.44 33.632 18.9429 34.2004 19.4817C34.7881 20.0368 35.3404 20.6223 35.9145 21.1912C35.978 21.2566 36.0633 21.3053 36.168 21.3841C36.1728 21.2772 36.1915 21.2113 36.1665 21.1648C35.9884 20.7768 36.1804 20.4 36.1996 20.0133C36.2093 19.8269 36.3511 19.719 36.5263 19.6821C36.7343 19.6341 36.9454 19.6491 37.1163 19.7877C37.3258 19.9589 37.5244 20.1385 37.7094 20.3318C37.8944 20.5251 38.0521 20.7324 38.289 20.9034C38.2356 20.7064 38.1903 20.5066 38.126 20.3179C37.8852 19.585 37.7347 18.835 37.691 18.0623C37.6787 17.8787 37.6254 17.6954 37.5912 17.5148C37.4749 16.9454 37.6489 16.7441 38.2709 16.7151C38.2846 16.715 38.3038 16.7039 38.3366 16.6927C38.2608 16.0409 38.1877 15.3835 38.1146 14.7262C38.0852 14.4386 38.0503 14.1482 38.0373 13.855C38.0272 13.5837 37.9953 13.3291 37.9057 13.0665C37.805 12.7712 37.7809 12.4589 37.9955 12.175C38.1476 11.9766 38.3361 11.8849 38.5857 11.9051C38.9669 11.9353 39.2505 12.1225 39.4827 12.4005C39.5988 12.5394 39.6849 12.6978 39.8206 12.8943C39.88 12.7732 39.9262 12.7071 39.9421 12.633C40.2075 11.384 40.7258 10.2319 41.2688 9.08505C41.5876 8.40853 41.9229 7.74012 42.3049 7.10153C43.0717 5.81886 44.131 4.80278 45.2895 3.87647C47.1786 2.36672 49.3045 1.40356 51.678 0.964967C52.2036 0.868122 52.7487 0.814992 53.283 0.783874C54.7956 0.707593 56.3082 0.64502 57.8211 0.609852C58.857 0.586217 59.896 0.598195 60.9324 0.629379C61.6726 0.651654 62.3649 0.868876 62.9736 1.29775C63.4998 1.67237 63.9279 2.14908 64.3126 2.67271C65.3282 4.06636 65.8983 5.63032 66.0253 7.34536C66.2706 10.696 66.4995 14.0523 66.4433 17.4187C66.4323 18.2055 66.4406 18.9949 66.4406 19.7871C66.4415 19.9241 66.4617 20.0638 66.4708 20.198C66.641 20.227 66.6785 20.1089 66.7301 20.0318C67.4437 18.9824 68.2152 17.9821 69.0474 17.0251C70.0046 15.9248 71.0971 14.9661 72.2616 14.0973C72.9406 13.5909 73.6555 13.1227 74.365 12.6655C75.4402 11.9783 76.6129 11.5096 77.8665 11.2515C79.6184 10.8967 81.3704 10.5693 83.1512 10.4336C84.1868 10.3552 85.2227 10.3315 86.2589 10.3353C89.1618 10.3481 92.0681 10.4512 94.9615 10.6779C96.6976 10.8138 98.4288 11.043 100.131 11.4013C101.127 11.6109 102.105 11.8865 103.005 12.3764C103.715 12.7662 104.384 13.2247 104.887 13.8819C105.001 14.0264 105.09 14.1929 105.181 14.354C105.531 14.9766 105.423 15.5859 104.895 16.1048C104.538 16.4554 104.14 16.7515 103.695 16.9903C103.11 17.3041 102.526 17.6179 101.933 17.9208C100.824 18.4822 99.6929 19.0054 98.6006 19.6023C96.558 20.7157 94.629 22.0146 92.8938 23.5726C91.6406 24.6915 90.3267 25.7395 88.9795 26.7438C87.6978 27.6984 86.4383 28.6775 85.2064 29.6975C83.5275 31.0852 81.6798 32.2465 79.893 33.4924C78.6082 34.3839 77.251 35.1307 75.8551 35.8175C75.7649 35.8619 75.6858 35.9118 75.5793 35.9756C75.7011 36.1447 75.8571 36.1053 75.9915 36.1235C77.5414 36.2909 79.0647 36.5819 80.5671 37.0128C82.1025 37.4599 83.5678 38.0774 84.9927 38.8049C86.1728 39.4052 87.3259 40.0606 88.4708 40.7324C89.0791 41.0928 89.6548 41.4917 90.2413 41.8824C91.3346 42.6039 92.3734 43.3944 93.4096 44.1903C95.5205 45.8148 97.4464 47.6216 99.0838 49.7373C100.149 51.1142 101.23 52.4717 102.175 53.9399C102.43 54.3383 102.668 54.756 102.885 55.1767C103.018 55.4334 103.122 55.7095 103.195 55.9914C103.35 56.5659 103.246 57.0957 102.874 57.5752C102.518 58.0354 102.091 58.4331 101.666 58.8253C99.9391 60.4216 97.8649 61.3214 95.6014 61.8141C94.1317 62.1368 92.6436 62.1909 91.1443 62.1986C89.0228 62.2078 86.9168 62.0881 84.828 61.6832C84.7484 61.6646 84.6661 61.6652 84.5509 61.6495C84.446 61.9326 84.4974 62.231 84.4582 62.5054C84.4162 62.7716 84.3988 63.0431 84.3568 63.3092C84.3122 63.5946 84.2539 63.8801 84.1901 64.1629C84.1289 64.4264 84.0566 64.6846 83.9844 64.9428C83.9014 65.2229 83.8211 65.4976 83.727 65.7724C83.6411 66.0306 83.5524 66.2807 83.461 66.5362C83.3614 66.8083 83.2509 67.075 83.1514 67.347C83.0599 67.5889 82.9711 67.8389 82.8609 68.1467C83.0251 68.1181 83.1266 68.1202 83.2195 68.0839C83.5476 67.9583 83.8755 67.8189 84.2036 67.6933C84.8979 67.4199 85.5951 67.1546 86.2949 66.8839C87.0194 66.6047 87.7749 66.457 88.5395 66.4297C88.893 66.4191 89.1773 66.2992 89.4444 66.089C89.7034 65.8817 89.9844 65.6988 90.2379 65.4887C91.606 64.3444 93.1489 63.5114 94.8139 62.8886C97.2855 61.9586 99.8329 61.305 102.436 60.8292C104.832 60.3877 107.242 60.1791 109.673 60.069C112.496 59.9398 115.318 59.8791 118.133 60.1419C121.117 60.42 124.032 61.0192 126.868 62.0028C127.964 62.3844 129.023 62.8568 130.011 63.4722C130.361 63.6918 130.724 63.8976 131.068 64.1282C131.748 64.5785 132.311 65.1557 132.818 65.7936C132.945 65.9517 133.053 66.1346 133.156 66.3148C133.297 66.555 133.373 66.8039 133.262 67.0843C133.219 67.1997 133.231 67.3285 133.21 67.4547C133.113 68.1105 132.766 68.609 132.248 68.9964C131.547 69.5193 130.777 69.9194 129.962 70.243C128.374 70.8762 126.732 71.3125 125.048 71.5846C123.367 71.8512 121.706 72.2163 120.056 72.6417C118.485 73.0445 116.912 73.4255 115.316 73.6997C114.579 73.8227 113.84 73.9375 113.101 74.0522C112.257 74.1842 111.417 74.3106 110.579 74.4453C105.869 75.1906 101.195 75.0449 96.5728 73.8188C95.9742 73.6612 95.3807 73.4653 94.7982 73.261C93.7404 72.8983 92.6879 72.5246 91.6327 72.1426C90.9293 71.8926 90.2555 71.582 89.6304 71.1588C89.2723 70.9146 88.8872 70.7117 88.4798 70.4705C88.3896 70.5013 88.2719 70.5323 88.1599 70.5797C87.2716 70.9559 86.3437 71.1487 85.3934 71.2759C84.1967 71.4322 83.0254 71.7035 81.8682 72.0432C81.7479 72.0797 81.6358 72.127 81.4854 72.1829C81.3919 72.5262 81.2792 72.8806 81.1967 73.243C80.736 75.1814 80.2779 77.1143 79.8419 79.058C79.6185 80.0546 79.3759 81.0348 78.952 81.967C78.9169 82.0385 78.9038 82.1208 78.8662 82.239C78.9729 82.2026 79.055 82.1883 79.1205 82.1522C80.5921 81.3115 82.1782 80.7659 83.7698 80.2368C85.0114 79.8225 86.2755 79.4876 87.5649 79.2539C89.0624 78.9858 90.5428 79.0167 91.9721 79.5824C92.4311 79.7601 92.9012 79.9569 93.3034 80.2365C93.7275 80.5268 94.0729 80.9219 94.4509 81.2783C94.8703 81.6756 95.2653 82.1087 95.7146 82.4729C96.4562 83.0763 97.2248 83.6384 97.999 84.2031C98.3516 84.4584 98.7341 84.6668 99.0894 84.9165C99.9791 85.538 100.774 86.2699 101.397 87.1564C102.285 88.4194 102.624 89.8287 102.286 91.3496C102.028 92.5136 101.399 93.4883 100.539 94.3084C99.161 95.6255 97.581 96.6452 95.893 97.5094C95.2347 97.8483 94.5682 98.1764 93.8127 98.3379C93.9375 98.5426 94.1292 98.5138 94.2774 98.5457C95.3642 98.7383 96.4082 99.0737 97.4146 99.5272C98.6987 100.11 99.9314 100.784 101.099 101.59C101.68 101.992 102.275 102.366 102.843 102.782C105.317 104.598 107.208 106.893 108.49 109.675C108.95 110.672 109.398 111.678 109.833 112.683C110.314 113.801 110.572 114.972 110.682 116.18C110.717 116.567 110.698 116.967 110.649 117.359C110.545 118.21 110.274 119.012 109.907 119.788C109.628 120.382 109.209 120.859 108.669 121.235C108.17 121.584 107.637 121.848 107.08 122.08C105.976 122.548 104.863 123.019 103.754 123.484C102.546 123.997 101.293 124.365 99.9893 124.544C98.3051 124.775 96.6181 124.984 94.9311 125.207C93.6741 125.374 92.4341 125.619 91.2083 125.931C90.505 126.112 89.7964 126.303 89.079 126.401C86.6855 126.728 84.3215 126.563 81.9978 125.872C80.5859 125.451 79.201 124.962 77.87 124.335C77.7516 124.257 77.6005 124.217 77.378 124.141ZM45.5077 41.639C45.5577 41.7319 45.6021 41.822 45.6494 41.9204C45.6688 41.9504 45.68 41.9832 45.6912 42.016C45.6646 42.1396 45.6709 42.2519 45.7811 42.3334L45.7727 42.3088C45.7356 42.4817 45.8105 42.621 45.9074 42.7574C45.9302 42.8778 45.9447 43.0011 45.9839 43.1159C46.1661 43.6903 46.3673 44.2536 46.5331 44.8335C46.8392 45.8922 47.1234 46.9538 47.4241 48.0098C47.4887 48.2396 47.5205 48.4806 47.6729 48.7125C47.7025 48.6383 47.7269 48.6025 47.724 48.5669C47.6663 48.1561 47.6223 47.7452 47.5509 47.3346C47.3227 46.0478 47.0945 44.7611 46.8499 43.48C46.7986 43.1953 46.7171 42.9162 46.6275 42.64C45.9414 40.5478 45.332 38.4387 44.821 36.2959C44.4397 34.6813 44.0749 33.0611 43.7018 31.4437C43.2299 29.4022 42.7826 27.3522 42.5132 25.2736C42.4495 24.7779 42.383 24.2877 42.3111 23.7948C42.2967 23.6989 42.2987 23.5838 42.1723 23.549C42.0135 23.5666 41.9648 23.6656 41.9768 23.808C42.0277 24.4272 42.0567 25.0492 42.1213 25.6682C42.2211 26.6187 42.3071 27.5693 42.4671 28.5084C42.7102 29.9595 42.9807 31.4104 43.2785 32.8474C43.7803 35.2451 44.3833 37.6174 45.1506 39.9475C45.3073 40.4207 45.4586 40.8911 45.6099 41.3615C45.5798 41.3672 45.5552 41.3756 45.5251 41.3813C45.4836 41.3267 45.4339 41.275 45.3869 41.2178C45.3723 41.0945 45.3141 41.0045 45.1851 40.9752C45.3154 40.7934 45.2021 40.6626 45.0752 40.5456C45.0734 40.2852 45.0115 40.0499 44.8047 39.8732C44.7874 39.7554 44.7948 39.6293 44.7584 39.5226C44.0535 37.4827 43.4525 35.4118 42.961 33.3128C42.6136 31.8378 42.3237 30.3569 42.0229 28.8705C41.9263 28.386 41.8626 27.8903 41.8043 27.3973C41.6415 26.0608 41.4075 24.7303 41.4174 23.3898C41.2135 23.235 41.0344 23.0992 40.8195 22.9389C40.7716 23.1476 40.7427 23.3314 40.689 23.4963C40.595 23.771 40.3463 23.8742 40.0877 23.7471C39.9282 23.6688 39.7904 23.5601 39.5812 23.4299C39.6136 23.7532 39.7411 23.9661 39.8277 24.193C40.2265 25.1743 40.5186 26.192 40.6411 27.2492C40.6674 27.4875 40.6555 27.7479 40.6078 27.984C40.5654 28.1954 40.5667 28.3872 40.6312 28.5896C40.9982 29.7329 41.3051 30.9012 41.7295 32.0248C42.6791 34.5675 43.678 37.0933 44.6604 39.6247C44.6967 39.7177 44.7712 39.7884 44.8321 39.873C44.8093 40.1418 44.8958 40.3687 45.1026 40.5454C45.0326 40.7159 45.1348 40.8412 45.2125 40.975C45.2244 41.1038 45.2935 41.1855 45.4198 41.2203C45.2895 41.4021 45.4356 41.5217 45.5106 41.661L45.5077 41.639ZM81.9331 71.5219C82.125 71.5206 82.125 71.5206 82.31 71.3247C82.1216 71.4302 82.0261 71.4857 81.9332 71.5356C81.8811 71.5305 81.8317 71.5199 81.7852 71.5312C81.7688 71.5368 81.7691 71.5916 81.7584 71.6273C81.7776 71.6299 81.8052 71.6434 81.8106 71.6324C81.8542 71.5992 81.895 71.5578 81.9331 71.5219ZM74.6346 109.197C75.1273 109.487 75.1273 109.487 75.4645 109.495C75.2279 109.379 75.0244 109.279 74.821 109.193C74.777 109.171 74.7059 109.205 74.6429 109.208C74.5048 109.058 74.3559 108.93 74.1474 108.91C73.1985 108.437 72.2064 108.079 71.2009 107.749C69.091 107.067 66.9263 106.775 64.7085 106.744C62.0522 106.716 59.4592 107.128 56.9037 107.799C56.849 107.813 56.811 107.862 56.7346 107.92C56.7984 108.027 56.8594 108.125 56.9121 108.212C58.1209 107.823 59.3199 107.593 60.5274 107.401C61.6993 107.212 62.8833 107.192 64.0644 107.138C64.4151 107.119 64.7715 107.13 65.1225 107.152C66.0549 107.214 66.9846 107.282 67.9171 107.358C69.2061 107.458 70.4607 107.726 71.6779 108.154C72.3264 108.377 72.9639 108.608 73.6205 108.815C73.7853 108.868 73.9481 109.023 74.1446 108.901C74.2988 108.991 74.4667 109.094 74.6346 109.197ZM80.1041 91.1718C80.1807 91.1548 80.2713 91.1652 80.3258 91.1237C80.574 90.9383 80.8221 90.7529 81.0509 90.5376C81.4539 90.162 81.8873 89.8081 82.1359 89.2883C81.4356 89.8935 80.7492 90.5122 80.0959 91.1746C80.0987 91.1828 80.0986 91.1691 80.1041 91.1718ZM89.9296 98.8884C89.8527 98.8642 89.7784 98.8209 89.6989 98.816C88.2261 98.7001 86.8661 98.2435 85.5891 97.5068C85.3167 97.3525 85.0498 97.2008 84.7168 97.0167C84.9581 97.4153 85.0162 97.4916 85.184 97.5809C85.5691 97.7838 85.9489 97.9977 86.3421 98.1704C87.3181 98.5885 88.3288 98.8803 89.3955 98.9469C89.5738 98.9594 89.7634 99.0184 89.9186 98.8693C90.1548 98.9444 90.1548 98.9444 90.4991 98.7857C90.2281 98.837 90.0802 98.8599 89.9296 98.8884ZM81.3078 88.458C81.1453 88.344 81.0339 88.4873 80.9247 88.5566C79.9367 89.1638 79.0068 89.861 78.1874 90.6808C77.9588 90.9099 77.6832 91.0954 77.5019 91.4366C77.7624 91.4485 77.9845 91.4552 78.234 91.4617C78.7321 90.5591 79.5143 89.9123 80.3048 89.2763C80.6428 89.0054 80.967 88.7208 81.3049 88.4361C81.3377 88.4249 81.3706 88.4137 81.4034 88.4025C81.4116 88.3997 81.4032 88.3751 81.4031 88.3614C81.3732 88.3945 81.3432 88.4276 81.3078 88.458ZM67.8687 101.966C67.9617 101.93 68.0657 101.913 68.1476 101.857C68.7834 101.439 69.4246 101.023 70.0521 100.594C71.0588 99.9074 72.024 99.1661 72.9118 98.3321C73.4211 97.8517 73.9386 97.3821 74.4534 96.9043C74.4751 96.874 74.4995 96.8382 74.5212 96.8079C74.5348 96.7941 74.5539 96.783 74.5675 96.7692C74.5429 96.7776 74.5128 96.7833 74.5047 96.7998C74.483 96.8301 74.4696 96.8713 74.4507 96.9098C74.398 96.8225 74.3322 96.8174 74.242 96.8619C73.7477 97.1175 73.2505 97.3649 72.7561 97.6205C72.6469 97.6761 72.546 97.7563 72.4561 97.8419C72.2165 98.0656 71.9741 98.2948 71.7427 98.5294C70.6595 99.6361 69.5127 100.677 68.2664 101.602C68.1164 101.712 67.9995 101.853 67.8661 101.985C67.8305 101.988 67.7921 101.983 67.7565 101.986C67.7483 101.989 67.7485 102.016 67.7404 102.033C67.7868 102.008 67.825 101.986 67.8687 101.966ZM82.7339 71.1847C82.6986 71.2288 82.6633 71.2729 82.6334 71.3197C82.6909 71.3001 82.7428 71.2778 82.7975 71.2637C82.9372 71.2436 83.0851 71.2343 83.2192 71.1978C84.7048 70.7873 86.2076 70.4945 87.7246 70.2702C87.8944 70.2443 88.092 70.2868 88.2169 70.116C88.0892 69.8757 87.9025 69.8386 87.6752 69.8703C87.2043 69.9394 86.7305 70.0002 86.2594 70.0556C86.2019 70.0614 86.0899 70.1225 86.0834 69.9691C86.6436 69.7322 87.2577 69.7471 87.868 69.6031C87.8534 69.4799 87.8364 69.3895 87.8248 69.3019C87.5536 69.3257 87.5097 69.3178 87.2842 69.2207C87.4949 69.1671 87.6673 69.1221 87.8096 69.0827C87.8612 69.0193 87.8966 68.9889 87.9074 68.9532C88.154 68.1593 88.7259 67.6208 89.3447 67.1259C89.391 67.0872 89.4373 67.0348 89.4975 67.0234C90.1106 66.8876 90.6205 66.503 91.2085 66.307C92.4337 65.9121 93.6367 65.4651 94.8704 65.0947C96.7414 64.539 98.6604 64.1776 100.585 63.8737C102.677 63.5357 104.778 63.3183 106.897 63.2597C111.361 63.1383 115.811 63.324 120.237 63.9895C121.999 64.2541 123.763 64.4996 125.527 64.7587C127.703 65.0835 129.839 65.6004 131.943 66.2245C132.039 66.2513 132.136 66.3191 132.247 66.1895C131.72 65.5956 131.181 65.0237 130.485 64.5927C129.356 63.8879 128.181 63.2765 126.934 62.8274C123.933 61.7491 120.828 61.1319 117.652 60.8689C115.291 60.6715 112.926 60.6906 110.563 60.8002C108.037 60.9109 105.514 61.071 103.008 61.4995C100.345 61.9593 97.7312 62.5942 95.1715 63.4535C93.8451 63.9013 92.5994 64.5047 91.3982 65.212C90.6311 65.6614 89.9028 66.1845 89.1634 66.6748C89.1116 66.7108 89.035 66.7415 89.0244 66.7909C88.9415 67.0848 88.6896 67.1249 88.4544 67.2006C88.0633 67.3294 87.6723 67.4719 87.2785 67.6062C86.9832 67.7069 86.6935 67.8378 86.3895 67.8728C85.8609 67.934 85.3992 68.151 84.932 68.379C84.4513 68.6208 83.9594 68.8435 83.4732 69.0826C83.2738 69.1827 83.0606 69.2691 82.8732 69.5254C83.2759 69.4842 83.5709 69.3424 83.8772 69.247C84.4708 69.0675 84.4653 69.0648 84.8418 69.202C84.7217 69.2796 84.6292 69.3707 84.5225 69.407C84.1506 69.5384 83.7787 69.6561 83.4012 69.7711C83.0647 69.8722 82.7227 69.9568 82.3835 70.0633C82.2166 70.111 82.0885 70.2051 82.0874 70.4436C82.408 70.4304 82.6865 70.2805 82.9766 70.2044C83.4581 70.0723 83.5781 69.981 83.8919 70.1762C83.5615 70.3621 83.2221 70.4275 82.8938 70.5257C82.5601 70.6212 82.2264 70.7305 81.8982 70.8287C81.8581 70.9797 81.8342 71.0977 81.7942 71.2488C81.9503 71.2367 82.0708 71.214 82.1886 71.2104C82.3721 71.1845 82.5558 71.1859 82.7339 71.1847ZM39.8631 107.122L39.8687 107.138C40.0024 107.047 40.1277 106.931 40.2725 106.872C40.77 106.666 41.2757 106.471 41.7844 106.297C42.1371 106.177 42.421 106.002 42.5474 105.648C42.2253 104.663 41.653 104.355 40.6928 104.627C40.6299 104.644 40.5724 104.664 40.5095 104.681C39.6724 104.925 38.838 105.164 38.0011 105.422C37.8479 105.469 37.706 105.563 37.5751 105.663C37.1961 105.948 36.8198 106.241 36.4519 106.545C36.2257 106.728 36.0077 106.921 35.8008 107.12C35.3787 107.52 34.9704 107.934 34.551 108.329C34.4747 108.401 34.388 108.536 34.2474 108.419C34.2553 108.375 34.255 108.334 34.2739 108.295C34.7659 107.308 35.3932 106.448 36.4011 105.94C36.8464 105.715 37.1676 105.395 37.4168 104.971C37.8773 104.186 38.3626 103.407 38.8287 102.625C39.0806 102.196 39.3325 101.767 39.568 101.329C39.7439 100.999 39.7246 100.983 39.295 100.703C38.889 101.446 38.5959 102.265 37.8356 102.909C37.9084 102.344 38.2573 102.051 38.4493 101.674C38.6548 101.27 38.9153 100.892 39.0494 100.467C38.9854 100.333 38.9515 100.18 38.7786 100.156C38.5004 100.361 38.4644 100.698 38.3018 100.96C38.1391 101.221 38.0783 101.54 37.7648 101.789C37.9134 101.083 38.2961 100.54 38.5277 99.944C38.0135 99.7118 37.9202 99.6933 37.5454 99.8028C36.7466 100.039 36.1774 100.558 35.7794 101.271C35.5899 101.615 35.4252 101.978 35.2357 102.321C34.7239 103.224 34.2176 104.129 33.692 105.018C33.1664 105.907 32.6326 106.799 32.0685 107.669C31.1273 109.112 30.0733 110.479 28.953 111.786C28.1563 112.713 27.3155 113.604 26.4774 114.49C25.6284 115.397 24.7685 116.3 23.892 117.18C22.7623 118.312 21.6215 119.424 20.4669 120.523C18.8794 122.045 17.2698 123.542 15.6823 125.063C14.5468 126.151 13.4224 127.258 12.298 128.365C11.5303 129.121 10.7763 129.891 10.0252 130.669C9.12973 131.588 8.23709 132.516 7.35824 133.456C6.60999 134.256 5.88664 135.089 5.14118 135.898C3.86524 137.285 2.61689 138.7 1.45125 140.183C0.127981 141.861 -1.19528 143.54 -2.35323 145.341C-3.47865 147.089 -4.51607 148.881 -5.43516 150.737C-6.66779 153.232 -7.71348 155.805 -8.70696 158.397C-9.1216 159.477 -9.42901 160.603 -10.0003 161.626C-10.0355 161.684 -10.0102 161.772 -10.0148 161.906C-9.64444 161.555 -9.24814 161.388 -8.83244 161.251C-8.29639 161.077 -7.74887 160.978 -7.18735 160.919C-6.98737 160.901 -6.78749 160.87 -6.57111 160.846C-6.52601 160.629 -6.50535 160.448 -6.45726 160.267C-6.3133 159.682 -6.16384 159.1 -6.00337 158.523C-5.96591 158.391 -5.87354 158.273 -5.80317 158.144L-5.81687 158.144C-5.82944 158.308 -5.82829 158.473 -5.86285 158.626C-5.98761 159.214 -6.13158 159.799 -6.26184 160.383C-6.2938 160.518 -6.30924 160.661 -6.33281 160.82C-6.08285 160.895 -5.86637 160.885 -5.65568 160.832C-5.4899 160.23 -5.34044 159.648 -5.16347 159.079C-4.98641 158.524 -4.83135 157.959 -4.46185 157.485C-4.52358 158.069 -4.70895 158.613 -4.87231 159.168C-5.03567 159.723 -5.27594 160.253 -5.32108 160.859C-5.07112 160.934 -4.83765 161.001 -4.59936 160.975C-4.38327 160.118 -4.1863 159.273 -3.94812 158.44C-3.62979 157.306 -3.24114 156.432 -2.94212 156.073C-2.86434 156.221 -2.95112 156.356 -2.98858 156.488C-3.19713 157.246 -3.41388 158.006 -3.62793 158.762C-3.80442 159.399 -3.98911 160.039 -4.1601 160.679C-4.19756 160.81 -4.19381 160.956 -4.20377 161.101C-4.04154 161.174 -3.91502 161.236 -3.78029 161.295C-3.65656 161.349 -3.53555 161.409 -3.37331 161.482C-3.37436 161.331 -3.37233 161.23 -3.37849 161.131C-3.42948 160.498 -3.34052 159.886 -3.15003 159.29C-2.8577 158.362 -2.56538 157.433 -2.22633 156.521C-1.78244 155.312 -1.27803 154.132 -0.688418 152.988C-0.20962 152.069 0.192165 151.112 0.61595 150.166C1.16398 148.954 1.87714 147.836 2.54349 146.688C3.35608 145.285 4.23207 143.933 5.21267 142.646C6.51925 140.932 7.82852 139.212 9.1323 137.49C9.30614 137.261 9.46889 137.013 9.64273 136.785C10.3002 135.933 10.9272 135.046 11.6343 134.233C12.6296 133.096 13.6663 131.987 14.7223 130.908C15.6178 129.989 16.5518 129.103 17.497 128.236C18.2868 127.504 19.1263 126.824 19.93 126.105C20.6546 125.451 21.3627 124.788 22.0651 124.109C22.7377 123.463 23.402 122.806 24.0414 122.13C24.7871 121.349 25.4803 120.521 26.2288 119.749C27.5677 118.358 28.7909 116.869 29.9893 115.362C30.4403 114.791 30.8694 114.21 31.337 113.647C31.7583 113.137 32.2209 112.654 32.5458 112.076C32.7029 111.799 32.9211 111.646 33.1918 111.54C33.7905 111.309 34.3864 111.069 34.9961 110.856C35.3079 110.75 35.6333 110.643 35.9566 110.611C36.1922 110.59 36.3973 110.52 36.6077 110.426C37.7333 109.9 38.8589 109.36 39.9874 108.842C40.165 108.759 40.3096 108.659 40.4209 108.502C40.5431 108.337 40.6708 108.174 40.7902 108.001C40.8309 107.946 40.8359 107.866 40.8787 107.723C40.1979 107.969 39.6047 108.204 38.9976 108.411C38.385 108.615 37.7893 108.882 37.1321 108.969C37.1809 108.898 37.2437 108.853 37.312 108.825C38.1128 108.488 38.9135 108.137 39.7226 107.811C40.1818 107.627 40.6577 107.478 41.1253 107.305C41.4943 107.165 41.6493 106.975 41.8157 106.47C41.5751 106.556 41.3673 106.632 41.1567 106.699C40.7219 106.847 40.3261 107.083 39.8631 107.122ZM66.5817 26.6991L66.5788 26.6772C66.5416 26.8365 66.4906 26.9958 66.478 27.1603C66.3692 28.4659 66.1863 29.7555 65.8881 31.0294C65.8562 31.1639 65.8516 31.2983 65.8097 31.5782C65.97 31.3769 66.0517 31.2941 66.1113 31.2005C66.3905 30.7436 66.6724 30.2811 66.9487 29.816C67.4988 28.8911 68.0708 27.9771 68.7419 27.1255C69.049 26.7368 69.3864 26.3836 69.7928 26.0848C69.7146 26.2717 69.6088 26.4314 69.4948 26.5939C68.8379 27.5277 68.1728 28.4506 67.5379 29.3952C66.998 30.2021 66.5077 31.047 65.9596 31.8567C65.6531 32.3139 65.4426 32.7978 65.3202 33.3249C65.3016 33.4045 65.2966 33.484 65.4092 33.5052C67.3502 31.181 67.3502 31.181 67.7082 31.0222C67.6495 31.2529 67.4942 31.3883 67.3747 31.5481C66.6682 32.4439 65.9617 33.3396 65.2415 34.2218C64.8256 34.7345 64.7067 35.3795 64.4476 35.9624C64.4341 35.9899 64.5113 36.0552 64.5584 36.1261C65.304 35.3315 65.978 34.5017 66.7651 33.7754C66.5385 34.2923 66.1245 34.6761 65.8014 35.1252C65.4647 35.588 65.0068 35.964 64.7061 36.465C64.93 36.7457 65.226 36.7409 65.5166 36.7472C65.8649 36.7612 66.2215 36.7998 66.5693 36.759C66.9171 36.7183 67.2506 36.5816 67.5928 36.5107C68.08 36.4087 68.5672 36.3066 69.06 36.2347C70.4593 36.0276 71.8678 35.9685 73.2795 35.9724C73.4632 35.9739 73.6606 35.9752 73.8273 35.9138C74.426 35.6821 75.0302 35.4531 75.6094 35.1777C76.8826 34.5741 78.1336 33.9322 79.2818 33.0964C79.8545 32.6813 80.4495 32.3044 81.0278 31.9056C82.3646 30.9918 83.6959 30.0753 84.9359 29.0388C86.0614 28.0962 87.2312 27.2027 88.4064 26.312C89.5789 25.4267 90.7238 24.5005 91.8714 23.5825C92.5829 23.0101 93.2501 22.3887 93.9782 21.8382C95.7916 20.4825 97.7076 19.2933 99.7539 18.3115C100.95 17.7385 102.141 17.1491 103.319 16.5461C103.685 16.3572 104.053 16.1353 104.347 15.8565C104.944 15.2822 105.033 15.1006 104.515 14.3751C104.059 13.7341 103.425 13.2999 102.74 12.9429C102 12.5588 101.214 12.3093 100.402 12.1285C98.5595 11.7082 96.6883 11.4581 94.8043 11.3313C92.8627 11.1968 90.9105 11.1117 88.9665 11.0374C87.6395 10.9863 86.3127 10.9763 84.9833 10.9856C82.3986 11.0062 79.8663 11.4624 77.3509 11.9952C76.5353 12.168 75.7645 12.4859 75.041 12.9021C74.5004 13.2101 73.9598 13.5181 73.4414 13.8643C72.1071 14.7452 70.8586 15.7434 69.7234 16.8724C68.5746 18.0152 67.6271 19.332 66.652 20.6216C66.5922 20.7015 66.5161 20.8007 66.5113 20.894C66.5026 21.2175 66.472 21.5439 66.5652 21.9517C66.791 21.7007 66.9596 21.5104 67.1365 21.3172C67.3323 21.0993 67.5199 20.8842 67.7186 20.6745C67.9091 20.4813 68.0942 20.2854 68.3096 20.125C68.5277 19.959 68.7069 19.7056 69.06 19.6401C68.9686 19.8956 68.816 20.0255 68.68 20.1772C68.0433 20.8614 67.4122 21.5483 66.7782 22.227C66.4898 22.536 66.4894 22.8705 66.6349 23.2971C67.3331 22.3904 67.9987 21.536 68.9016 20.9075C68.7554 21.1635 68.587 21.3949 68.4077 21.6209C67.8912 22.2412 67.383 22.8725 66.8472 23.4765C66.5208 23.8488 66.5318 24.2434 66.6284 24.728C67.421 24.0043 67.9271 23.0715 68.7864 22.4762C68.6026 22.8503 68.3554 23.1727 68.0889 23.4788C67.6566 23.9835 67.2104 24.4745 66.7808 24.9736C66.702 25.0646 66.5931 25.175 66.5883 25.2819C66.567 25.7563 66.4414 26.2341 66.5817 26.6991ZM74.4328 122.769C74.383 122.704 74.3085 122.647 74.2944 122.579C74.2717 122.472 74.2437 122.39 74.1446 122.327C73.3078 121.821 72.5716 121.193 71.8488 120.537C71.0654 119.824 70.331 119.067 69.6321 118.28C68.3502 116.844 67.1011 115.384 65.822 113.943C64.7998 112.785 63.6415 111.778 62.3448 110.957C61.6758 110.539 61.0285 110.092 60.3732 109.66C60.0785 109.468 59.7703 109.289 59.3424 109.256C59.4531 109.406 59.5196 109.507 59.5997 109.594C59.8429 109.878 60.0997 110.147 60.3347 110.434C61.3436 111.646 62.1997 112.962 63.0122 114.31C63.32 114.823 63.6114 115.342 63.8889 115.82C64.2676 115.883 64.5887 115.938 64.9016 115.997C64.993 116.144 65.087 116.258 65.1428 116.395C65.2543 116.668 65.108 116.911 64.8231 116.935C64.6176 116.95 64.4201 116.921 64.2391 116.914C63.7386 115.889 63.0719 115.022 62.4818 114.111C61.8889 113.205 61.3479 112.263 60.6403 111.424C60.7 111.733 60.8145 112.028 60.8741 112.324C60.996 112.91 61.1152 113.501 61.1851 114.095C61.2347 114.523 61.3743 114.892 61.6398 115.227C61.9081 115.57 62.149 115.928 62.3982 116.283C62.8938 116.997 63.3567 117.737 63.6994 118.54C63.7356 118.62 63.7472 118.707 63.7669 118.792C63.4191 118.444 63.1697 118.048 62.923 117.647C62.6818 117.262 62.4434 116.872 62.1858 116.492C61.9228 116.11 61.7032 115.682 61.3361 115.317C61.1975 115.877 61.2308 116.337 61.5901 116.76C61.7753 116.98 61.9251 117.231 62.0693 117.48C62.2885 117.854 62.5076 118.228 62.6404 118.805C62.079 118.086 61.7506 117.378 61.2197 116.707C61.0832 117.18 61.0062 117.545 61.2475 117.943C61.5386 118.421 61.7724 118.932 62.0171 119.435C62.07 119.549 62.2079 119.672 62.0774 119.826L62.0938 119.821C61.786 119.307 61.4726 118.792 61.1621 118.284C61.1122 118.205 61.1086 118.073 60.9635 118.104C60.9472 118.124 60.9281 118.135 60.92 118.151C60.8664 118.33 60.8073 118.506 60.7592 118.687C60.3529 120.167 59.8339 121.613 59.1609 122.996C58.9609 123.403 58.7417 123.808 58.5197 124.204C58.3437 124.52 58.2252 124.831 58.3539 125.208C58.4463 125.479 58.4621 125.78 58.5435 126.059C58.8359 127.118 59.1447 128.171 59.4509 129.23C59.5099 129.443 59.5745 129.659 59.6698 129.966C59.5403 129.868 59.4771 129.844 59.4521 129.797C59.338 129.557 59.2294 129.306 59.1235 129.062C58.6415 127.931 58.3509 126.743 58.1095 125.539C58.0925 125.448 58.119 125.325 57.9818 125.298C57.6578 125.624 57.5098 126.009 57.5212 126.472C57.5616 128.349 57.7581 130.201 58.4665 131.956C59.2252 133.845 60.1287 135.661 61.2425 137.37C62.1706 138.788 63.1888 140.149 64.2532 141.471C65.3564 142.84 66.4978 144.186 67.4728 145.648C67.8496 146.216 68.1446 146.852 68.573 147.37C69.0402 147.934 69.2858 148.574 69.5207 149.236C69.5403 149.293 69.5736 149.351 69.5931 149.408C69.6156 149.487 69.6381 149.567 69.6332 149.646C69.6194 150.036 69.603 150.43 69.5755 150.82C69.5285 151.555 69.5993 152.272 69.8015 152.973C69.9982 153.67 70.2333 154.36 70.635 154.974C70.7791 155.195 70.9506 155.415 71.1437 155.592C71.4278 155.848 71.7736 155.909 72.1258 155.72C72.3826 155.586 72.6365 155.445 72.8739 155.281C73.5287 154.838 74.1033 154.294 74.6531 153.731C75.4125 152.964 76.1968 152.229 77.0392 151.558C77.9224 150.858 78.7202 150.082 79.3661 149.157C79.6403 148.765 79.8924 148.364 80.1555 147.967C80.6465 147.218 81.0439 146.423 81.3478 145.582C82.1172 143.474 82.4227 141.282 82.4675 139.051C82.4877 138.009 82.3435 136.982 82.0652 135.978C81.7558 134.856 81.3563 133.765 80.8884 132.702C80.365 131.53 79.8087 130.369 79.2743 129.205C78.545 127.604 77.8102 126 77.1001 124.387C76.9218 123.986 76.7059 123.675 76.2719 123.543C76.1236 123.498 76.0127 123.32 75.7913 123.41C75.8304 123.524 75.8696 123.639 75.917 123.751C75.9644 123.863 76.0173 123.978 76.0701 124.093C76.1175 124.205 76.1704 124.32 76.2151 124.437C76.2708 124.574 76.3211 124.708 76.3769 124.845C76.4215 124.962 76.4689 125.074 76.5136 125.192C76.5583 125.309 76.5974 125.424 76.6421 125.542C76.6868 125.659 76.7315 125.777 76.7706 125.892C76.8153 126.009 76.8545 126.124 76.8992 126.242C76.9383 126.357 76.9748 126.477 77.0113 126.597C77.0533 126.734 77.0927 126.876 77.132 127.019C77.1685 127.139 77.1995 127.257 77.236 127.377C77.2669 127.495 77.3089 127.618 77.3316 127.738C77.3488 127.842 77.4263 127.949 77.3096 128.117C77.2428 127.961 77.1845 127.857 77.1481 127.75C76.8657 126.949 76.5915 126.145 76.3009 125.347C76.0578 124.688 75.8011 124.029 75.5334 123.379C75.4804 123.25 75.4026 123.103 75.2952 123.029C75.0639 122.875 74.8027 122.753 74.5523 122.623C74.498 122.692 74.4599 122.742 74.4301 122.789L74.4328 122.769ZM58.8038 42.6953C58.7464 42.7149 58.6752 42.7209 58.6371 42.7568C57.6187 43.7314 56.6278 44.7333 55.7005 45.8006C54.8304 46.8071 54.0649 47.8924 53.294 48.975C53.199 49.1127 53.126 49.2613 53.042 49.4044C52.9634 49.5365 52.8217 49.6444 52.8093 49.8364C53.1253 49.9438 53.4068 49.8295 53.689 49.8111C53.9274 49.7984 54.1704 49.6652 54.4154 49.8197C54.4733 49.855 54.5772 49.8241 54.651 49.7989C54.8069 49.7457 54.9572 49.6762 55.113 49.6093C55.9409 49.2308 56.7604 48.8276 57.6077 48.4791C59.4801 47.7123 61.4339 47.2383 63.4358 46.9722C64.4217 46.842 65.4134 46.7556 66.405 46.6555C66.4707 46.6469 66.5422 46.682 66.7014 46.7193C66.3849 46.9188 66.1164 46.9371 65.8674 46.9992C64.5127 47.3101 63.1579 47.6073 61.8033 47.9319C59.8056 48.4118 57.8473 49.0339 55.9896 49.9376C55.0909 50.377 54.139 50.6741 53.1702 50.8946C52.278 51.0982 51.3914 51.3044 50.5047 51.5107C50.4034 51.5361 50.2994 51.5532 50.212 51.6059C50.1411 51.653 50.0951 51.7465 50.0273 51.8429C49.8778 51.6329 49.6778 51.6507 49.4642 51.6824C48.5825 51.8091 47.6922 51.8975 46.8003 51.7392C46.7811 51.7366 46.7619 51.734 46.74 51.7369C46.5837 51.7353 46.4753 51.9142 46.5667 52.0479C46.7496 52.3289 46.9567 52.5468 47.3515 52.5632C48.2454 52.6064 49.118 52.7483 49.9858 52.9835C51.3233 53.347 52.677 53.6912 54.0674 53.7803C56.4066 53.9258 58.7507 53.9917 61.087 53.7261C62.8316 53.5248 64.5648 53.6389 66.278 54.03C67.8566 54.3891 69.3896 54.8965 70.8986 55.4808C71.1459 55.5751 71.4015 55.6665 71.6488 55.7607C72.033 55.4236 72.3871 55.1059 72.744 54.7965C73.5778 54.0725 74.4503 53.4086 75.4281 52.892C75.9443 52.6198 76.4661 52.3777 77.0325 52.2257C77.6126 52.0737 78.1799 52.0725 78.7299 52.3291C79.1644 52.5289 79.6042 52.704 80.0252 52.9313C80.8121 53.359 81.5121 53.9078 82.1361 54.5559C83.0031 55.4599 83.5751 56.5195 83.8987 57.7233C83.9353 57.8574 83.9937 57.9885 84.0384 58.1061C84.4969 58.2153 84.9197 58.3138 85.3372 58.4233C85.4525 58.4526 85.5626 58.5204 85.6698 58.5663L85.6699 58.5799C85.2921 58.6538 84.9429 58.4891 84.5807 58.434C84.427 58.4131 84.2726 58.2826 84.0845 58.4292C84.1242 58.6126 84.1639 58.8097 84.2064 59.015C84.9675 59.2728 85.7602 59.3413 86.4698 59.69C86.3522 59.7347 86.2373 59.7602 86.1358 59.7444C85.5676 59.636 85.002 59.5083 84.4339 59.3999C84.4092 59.3946 84.3711 59.4305 84.3164 59.4583C84.3394 59.6061 84.3624 59.7677 84.3883 59.9375C84.7945 60.0141 85.1788 60.0937 85.5685 60.1623C85.9774 60.2334 86.389 60.2854 86.7952 60.3621C87.1685 60.4362 87.5579 60.4637 87.9128 60.6586C87.3403 60.7119 86.7752 60.6528 86.2127 60.5607C85.6336 60.4606 85.0545 60.3467 84.4287 60.2305C84.4632 60.466 84.4919 60.6439 84.5235 60.8575C85.1493 60.9738 85.7559 61.1012 86.3678 61.1901C88.6919 61.5331 91.0332 61.5908 93.3788 61.4731C94.8831 61.3997 96.3365 61.0963 97.75 60.5684C99.0295 60.0908 100.173 59.4031 101.198 58.4996C101.647 58.099 102.069 57.6712 102.43 57.1863C102.661 56.8695 102.722 56.5511 102.596 56.1956C102.529 55.9987 102.47 55.799 102.376 55.616C102.198 55.2692 102.009 54.9169 101.804 54.5839C100.958 53.2329 99.9874 51.9705 99.0001 50.7137C98.1428 49.6232 97.2637 48.5493 96.2674 47.5749C95.2021 46.5325 94.0633 45.57 92.8756 44.6655C92.0021 43.9972 91.134 43.3317 90.1953 42.7544C89.5098 42.3288 88.865 41.8344 88.1687 41.4308C87.021 40.7644 85.8544 40.1366 84.6824 39.5197C82.1651 38.1941 79.4761 37.3986 76.6556 37.0235C74.3208 36.7162 71.9826 36.7078 69.6406 36.9433C67.4274 37.167 65.3404 37.8147 63.4019 38.9245C62.206 39.6072 61.1485 40.467 60.1297 41.3868C59.8573 41.6354 59.5436 41.8569 59.3595 42.1898C59.072 42.2329 58.9559 42.4832 58.8038 42.6953ZM45.0499 45.9759C45.0255 46.0254 44.9793 46.0778 45.0862 46.0826C45.0695 46.047 45.0528 46.0115 45.0362 45.976C45.002 45.7953 44.9761 45.6118 44.9255 45.4368C44.1931 42.994 43.4525 40.5541 42.6189 38.1368C41.8608 35.9409 41.2094 33.7087 40.5252 31.4877C40.228 30.5359 39.9528 29.5811 39.672 28.6237C39.5934 28.3529 39.4767 28.1317 39.2344 27.9716C38.8847 27.7383 38.6193 27.4167 38.3975 27.0619C38.1093 26.6061 37.832 26.1421 37.5875 25.6668C37.2206 24.9402 36.9768 24.1717 36.7521 23.392C36.7071 23.2333 36.6539 23.0638 36.5544 22.9466C36.126 22.4425 35.684 21.9521 35.2339 21.4646C34.3722 20.5359 33.4398 19.6816 32.4883 18.8522C31.7989 18.2539 31.1068 17.6612 30.382 17.107C29.7069 16.5909 28.9883 16.1354 28.2887 15.6551C27.5754 15.1611 26.8701 14.6507 26.1214 14.2009C25.3947 13.7619 24.6517 13.3421 23.8709 13.0131C22.1527 12.285 20.3626 11.8698 18.488 11.9047C17.4054 11.9259 16.343 12.1005 15.2751 12.2587C13.6951 12.4862 12.3072 13.1427 10.9725 13.9688C10.5412 14.235 10.168 14.5637 9.89405 14.9823C9.48438 15.5937 9.3604 16.2908 9.5271 17.0078C9.64556 17.4894 9.81874 17.9569 10.0165 18.416C10.5599 19.6869 11.3761 20.7777 12.2578 21.8323C12.8162 22.5028 13.3935 23.1484 13.9219 23.8382C15.139 25.4333 16.2771 27.092 17.3661 28.7812C18.3332 30.2876 19.4311 31.6807 20.7171 32.9272C21.5478 33.7382 22.4111 34.5107 23.2527 35.3135C23.4155 35.4686 23.5941 35.5359 23.7946 35.5866C27.639 36.5741 31.227 38.1528 34.5614 40.3033C35.5196 40.9244 36.4534 41.5813 37.36 42.2657C38.2997 42.9801 39.1986 43.7496 40.103 44.5081C41.09 45.3345 42.0253 46.2107 42.9008 47.153C43.826 48.1471 44.6037 49.2327 45.0868 50.5149C45.112 50.5887 45.1728 50.6596 45.05 50.729C44.8157 50.5524 44.7097 50.2818 44.5736 50.0305C44.1626 49.2549 43.6342 48.5651 43.0514 47.9168C41.9023 46.6556 40.6036 45.5599 39.2887 44.4836C38.0233 43.4453 36.7199 42.4566 35.3486 41.5506C34.1011 40.7259 32.8267 39.9563 31.5034 39.272C29.1238 38.0276 26.6418 37.0607 24.0468 36.3798C20.7789 35.5253 17.4485 35.1318 14.079 35.0263C11.8116 34.9571 9.55687 35.1262 7.33152 35.583C4.78044 36.105 2.3135 36.9006 0.00575264 38.1227C-1.93879 39.1477 -3.80559 40.3201 -5.56168 41.6425C-6.77513 42.5555 -7.88087 43.5829 -8.82093 44.7873C-9.72567 45.9475 -10.4049 47.2186 -10.7815 48.6384C-10.9123 49.1409 -10.9993 49.6514 -11.0038 50.175C-11.0046 50.4683 -10.9532 50.753 -10.8335 51.0235C-10.7444 51.2175 -10.6064 51.3536 -10.3894 51.4261C-10.0267 51.5497 -9.65648 51.5745 -9.28384 51.5528C-8.70292 51.5241 -8.1221 51.4816 -7.54697 51.4091C-6.10361 51.2374 -4.66314 51.0437 -3.22266 50.8501C-2.20936 50.7197 -1.1927 50.6798 -0.182899 50.8345C1.38116 51.0703 2.9548 51.106 4.53374 51.117C9.36922 51.1437 14.2044 51.1294 19.0309 51.4385C21.8856 51.6188 24.7432 51.8073 27.5778 52.2509C28.6233 52.4163 29.6714 52.5626 30.7195 52.7088C32.2149 52.9177 33.721 53.1046 35.2007 53.4287C36.7408 53.7689 38.2594 54.1668 39.7031 54.8284C40.7178 55.2928 41.7433 55.7352 42.7662 56.1968C42.8789 56.2454 42.9863 56.3187 43.08 56.392C43.204 56.4871 43.3331 56.5164 43.4892 56.5043C44.6043 56.4308 45.7221 56.3518 46.8429 56.2946C47.3059 56.2695 47.741 56.1623 48.1786 56.0222C48.6737 55.8626 49.1688 55.7166 49.6611 55.5624C49.8389 55.5064 50.0028 55.423 50.1667 55.3396C50.3716 55.2423 50.5626 55.1176 50.7703 55.0284C51.0708 54.8893 51.3853 54.7775 51.6913 54.641C51.7952 54.5964 51.8796 54.5081 52.0296 54.3975C51.5538 54.1705 51.0985 54.138 50.6728 54.0176C50.2334 53.8973 49.7859 53.7935 49.3519 53.6622C48.9179 53.5309 48.4919 53.3694 48.0385 53.2081C47.9838 53.2222 47.9016 53.2365 47.8251 53.2671C47.366 53.4649 46.9786 53.3361 46.6391 52.9985C46.5922 52.955 46.5426 52.917 46.5012 52.8761C46.0485 52.4215 45.994 52.0738 46.2941 51.4769C46.2606 51.3921 46.2271 51.2937 46.1826 51.2035C45.8461 50.5124 45.5178 49.8184 45.1678 49.141C44.5593 47.9611 43.9126 46.8034 43.1485 45.7177C42.7526 45.1613 42.3377 44.616 41.9501 44.0567C41.0862 42.8128 40.2497 41.5549 39.3804 40.322C38.7603 39.4436 38.0884 38.6013 37.4492 37.7341C37.0175 37.1532 36.6077 36.5558 36.1732 35.953C35.3945 35.9255 34.7288 35.5847 34.1173 35.1614C33.2001 34.5263 32.2665 33.8969 31.5042 33.0579C31.3661 32.9081 31.1953 32.7832 31.0354 32.65C30.7294 32.3972 30.5778 31.8857 30.7234 31.5338C30.7961 31.3579 30.9157 31.2117 31.1127 31.1583C31.761 30.9647 32.4047 30.8917 33.0563 31.1777C33.3863 31.3262 33.67 31.527 33.9537 31.7279C34.2071 31.9071 34.4471 32.1137 34.7113 32.2709C35.4077 32.6882 36.0578 33.1579 36.6102 33.7571C36.8367 34.005 37.0605 34.2583 37.1368 34.5895C37.1906 34.8413 37.1514 35.1157 37.159 35.4199C37.6514 36.0579 38.1604 36.7314 38.694 37.3965C39.9023 38.8985 41.1187 40.3839 42.327 41.8859C43.2643 43.0498 44.117 44.2747 44.7842 45.6132C44.8235 45.7417 44.8794 45.9058 45.0499 45.9759ZM53.8203 96.7843C54.0105 96.9392 54.217 97.0749 54.3827 97.2519C54.6782 97.5678 54.941 97.9086 55.2229 98.2383C55.2837 98.3092 55.3608 98.3607 55.427 98.4206C55.4177 98.2726 55.3594 98.1689 55.2984 98.0706C55.1015 97.7348 54.7982 97.4765 54.6668 97.1046C54.6997 97.1072 54.7415 97.2028 54.7681 97.093C54.7353 97.1042 54.6997 97.1071 54.6669 97.1183C54.7254 96.8603 54.557 96.6887 54.4296 96.5032C53.5465 95.243 52.7453 93.941 52.1461 92.5198C52.0791 92.3503 51.9683 92.1866 51.8413 92.0559C51.1814 91.3698 50.5106 90.6919 49.8399 90.014C49.2409 89.4124 48.6446 88.8053 48.0429 88.2091C47.8 87.9669 47.5516 87.7219 47.3903 87.3968C47.7564 87.6108 48.0953 87.8661 48.3961 88.1573C49.3867 89.1016 50.3691 90.0487 51.2835 91.0648C51.3553 91.1411 51.4271 91.2173 51.5152 91.2743C51.5868 91.3231 51.6124 91.4655 51.7409 91.4125C51.7462 91.3878 51.757 91.3658 51.7514 91.3494C51.7261 91.2481 51.687 91.147 51.6808 91.0483C51.6438 90.4565 51.3638 89.998 50.9199 89.6228C50.8234 89.5412 50.7351 89.4568 50.6495 89.367C50.0641 88.7516 49.4787 88.1361 48.9015 87.5179C48.8352 87.4444 48.8153 87.3321 48.7708 87.242C49.2613 87.6196 49.7108 88.0112 50.125 88.4469C50.5254 88.869 50.9014 89.3269 51.4224 89.7536C51.398 89.4002 51.3633 89.1373 51.3642 88.8714C51.362 88.5561 51.2233 88.3241 51.0299 88.0925C50.5435 87.5257 50.0762 86.9478 49.609 86.3699C49.562 86.3127 49.5641 86.225 49.5389 86.1512L49.5225 86.1567C49.7431 86.3471 49.9746 86.5154 50.1734 86.7224C50.5405 87.1009 50.8859 87.4959 51.2533 87.9018C51.2801 87.8194 51.2991 87.7809 51.3043 87.7424C51.329 86.9556 51.3537 86.1687 51.3591 85.3792C51.3579 85.2011 51.3127 85.0013 51.2321 84.8456C51.0072 84.4278 50.7876 83.999 50.5027 83.6199C49.9604 82.8891 49.3962 82.1748 48.8185 81.4744C47.9422 80.4224 46.9844 79.4532 45.9938 78.5089C45.8034 78.3266 45.6183 78.1195 45.3193 78.0887C45.248 78.081 45.1625 78.0185 45.1183 77.9558C44.8438 77.5136 44.4117 77.2535 44.0041 76.985C43.1587 76.4262 42.3024 75.8757 41.4245 75.3692C41.0419 75.147 40.6672 74.8673 40.1816 74.7994C40.1028 74.9041 40.0267 75.0033 39.9534 75.097C39.3287 75.9237 38.7122 76.7613 38.0682 77.5716C37.6715 78.0733 37.239 78.5505 36.7872 79.0114C36.4061 79.3978 35.9641 79.6996 35.4752 79.9442C34.6748 80.35 33.8715 80.3172 33.0874 79.9114C32.4382 79.5788 31.8895 79.1111 31.4032 78.5581C30.3368 77.3512 29.5378 75.9752 28.8753 74.516C28.8112 74.3685 28.739 74.2237 28.6749 74.0761C28.5543 74.0852 28.4693 74.0775 28.3872 74.0918C26.0901 74.4723 23.9465 75.2629 21.9707 76.5183C20.7999 77.2611 19.8113 78.189 19.0243 79.332C18.7096 79.7919 18.6225 80.275 18.7632 80.8085C18.8421 81.1204 19.0439 81.363 19.2511 81.5945C19.7676 82.1556 20.2923 82.7139 20.8251 83.2694C21.2393 83.7051 21.6671 84.127 22.0867 84.5517C22.5422 85.0145 23.0846 85.3561 23.6161 85.7198C24.5085 86.3358 25.4441 86.8501 26.4366 87.2763C27.3658 87.6783 28.3005 88.0693 29.2326 88.4794C29.997 88.814 30.6773 89.2918 31.3603 89.7503C31.6329 89.932 31.8676 90.1771 32.1049 90.403C32.4885 90.7758 32.9021 91.1293 33.2367 91.5464C34.2652 92.8166 35.2719 94.1034 36.265 95.404C36.9814 96.3365 37.657 97.3104 38.3707 98.2484C38.9959 99.0746 39.6947 99.8345 40.4725 100.531C41.0903 101.08 41.7163 101.627 42.3205 102.19C42.6378 102.489 42.9823 102.747 43.3512 102.983C43.767 103.249 44.218 103.471 44.5034 103.905C44.5727 104.014 44.7347 104.059 44.8558 104.132C45.0602 103.953 45.3118 103.872 45.4143 103.635C45.2214 103.486 45.0423 103.35 44.8631 103.214C43.7419 102.397 42.6667 101.513 41.6922 100.522C41.6315 100.465 41.5817 100.4 41.5319 100.334C41.5181 100.321 41.5179 100.293 41.526 100.277C41.5287 100.258 41.5423 100.244 41.5721 100.197C41.7734 100.371 41.972 100.551 42.1705 100.716C42.38 100.888 42.5949 101.048 42.8071 101.214C43.6395 101.868 44.4637 102.526 45.2987 103.175C45.442 103.287 45.5746 103.434 45.8321 103.41C46.2497 103.144 46.6972 102.859 47.183 102.551C47.0148 102.407 46.8962 102.301 46.7667 102.203C46.6537 102.113 46.5325 102.027 46.4194 101.937C46.2926 101.834 46.1712 101.719 46.0471 101.61C45.9395 101.51 45.7747 101.456 45.7154 101.202C46.3458 101.6 46.8477 102.024 47.3442 102.473C47.4972 102.398 47.6283 102.34 47.7567 102.273C49.3627 101.437 51.0559 100.937 52.8756 100.875C52.9386 100.872 53.0014 100.828 53.0724 100.794C52.8928 100.59 52.749 100.41 52.5971 100.247C52.4397 100.08 52.2823 99.9144 52.1756 99.5478C52.4101 99.7655 52.548 99.8878 52.675 100.019C52.8849 100.245 53.0894 100.482 53.2993 100.708C53.4567 100.874 53.6379 100.922 53.8838 100.797C53.5826 100.451 53.3035 100.129 53.0189 99.8051C52.7454 99.4863 52.4418 99.1869 52.2246 98.6977C52.5301 98.882 52.7094 99.0452 52.8752 99.2359C53.2429 99.6829 53.6296 100.119 53.9864 100.574C54.1634 100.798 54.3698 100.92 54.658 100.972C55.0038 101.033 55.3309 101.16 55.6741 101.253C55.7511 101.277 55.8359 101.258 55.9154 101.262L55.9017 101.263C55.9712 101.399 56.0407 101.536 56.1351 101.719C55.9869 101.687 55.8992 101.685 55.8332 101.652C55.1593 101.328 54.4407 101.262 53.7115 101.259C51.7408 101.267 49.8966 101.754 48.1681 102.7C48.0643 102.759 47.9303 102.795 47.9588 102.96C47.9589 102.973 47.9044 103.015 47.8934 103.009C47.7091 102.912 47.5756 103.031 47.4336 103.111C45.3672 104.356 43.5826 105.917 42.1267 107.838C41.3635 108.849 40.7187 109.939 40.1812 111.089C39.5491 112.431 39.1532 113.848 38.8727 115.295C38.4546 117.452 37.9623 119.593 37.3054 121.695C36.238 125.104 35.4261 128.577 34.6828 132.063C34.4519 133.159 34.2815 134.27 34.2618 135.394C34.248 136.159 34.3708 136.882 34.7784 137.539C34.9835 137.872 35.2269 138.183 35.4511 138.505C35.7751 138.972 36.2456 139.223 36.7675 139.384C37.045 139.473 37.3304 139.531 37.6157 139.562C39.4457 139.799 41.1755 139.433 42.7868 138.572C43.8492 138.008 44.8643 137.36 45.91 136.761C46.9912 136.145 48.0558 135.507 49.0732 134.784C50.3144 133.912 51.503 132.966 52.4706 131.789C53.392 130.665 54.2584 129.499 55.1357 128.339C55.3476 128.061 55.5208 127.75 55.6969 127.447C56.0924 126.767 56.4824 126.085 56.875 125.397C57.3299 124.582 57.8068 123.778 58.2286 122.948C59.0722 121.272 59.6933 119.522 60.1192 117.696C60.4678 116.194 60.4739 114.695 60.1838 113.187C60.0273 112.365 59.7396 111.589 59.2988 110.874C59.1575 110.647 59.0324 110.402 58.8801 110.183C58.5589 109.711 58.3443 109.203 58.1953 108.659C58.1502 108.486 58.0832 108.317 58.019 108.142C57.6273 108.188 57.2879 108.254 56.9492 108.429C57.0314 108.817 57.13 109.2 57.1875 109.584C57.2422 109.973 57.2861 110.37 57.2724 110.759C57.2615 111.17 57.2206 111.587 57.1329 111.988C57.0478 112.37 56.9051 112.744 56.7486 113.104C56.4466 113.816 56.4057 113.857 56.1111 114.054C56.0658 113.854 56.1524 113.692 56.1896 113.519C56.4418 112.338 56.6584 111.161 56.5732 109.944C56.5457 109.528 56.4907 109.112 56.3045 108.74C56.0405 108.221 55.8503 107.677 55.6355 107.141C55.4486 106.674 55.3521 106.189 55.302 105.694C55.2519 105.184 55.1552 104.686 55.3216 104.167C55.4262 103.842 55.377 103.47 55.3938 103.116C55.4155 102.697 55.5389 102.307 55.6896 101.903C55.824 101.907 55.9364 101.915 56.0433 101.919C56.1125 102.404 56.143 102.856 56.2393 103.3C56.3895 104.008 56.5339 104.284 56.813 104.606C57.0943 104.45 57.3866 104.3 57.6732 104.134C57.908 104.003 58.1317 103.854 58.3693 103.718C59.7618 102.927 61.085 102.041 62.3086 101.01C64.1836 99.4316 65.9591 97.7499 67.6518 95.9866C68.1254 95.4954 68.552 94.9607 69.0035 94.445C69.5338 93.8382 70.0806 93.2396 70.5971 92.6193C71.0755 92.0486 71.5457 91.4669 71.9884 90.8718C72.3197 90.42 72.5986 89.9356 72.9051 89.4648C73.5914 88.4293 74.2639 87.3803 74.9806 86.3666C75.7216 85.3171 76.4571 84.2649 77.1128 83.153C77.828 81.9337 78.4139 80.6578 78.7414 79.2685C79.2686 77.0281 79.815 74.7903 80.4026 72.5659C80.6724 71.5444 80.8762 70.5041 81.2998 69.5308C81.3673 69.3796 81.3937 69.2286 81.3349 69.0563C81.3013 68.9579 81.3494 68.7767 81.4258 68.7186C81.734 68.4944 81.8165 68.1457 81.9596 67.8267C82.7427 66.1218 83.3747 64.3768 83.6304 62.5084C83.7034 61.9706 83.7462 61.4248 83.6549 60.9019C83.4777 59.8588 83.254 58.827 83.0166 57.7952C82.8583 57.1028 82.5332 56.4719 82.1125 55.8964C81.1718 54.6283 79.9459 53.746 78.4836 53.1778C78.0357 53.0055 77.5914 52.9784 77.1456 53.1213C76.7736 53.239 76.399 53.3759 76.0467 53.551C75.126 53.9932 74.2996 54.5911 73.534 55.2597C72.8637 55.8455 72.2377 56.4803 71.5978 57.1015C70.7211 57.9545 69.8665 58.8321 68.9732 59.6634C67.6087 60.9393 66.2249 62.1851 64.8439 63.4391C63.1822 64.9446 61.5979 66.5289 60.2177 68.2956C58.7397 70.1917 57.2755 72.1014 56.0702 74.193C55.4934 75.2003 54.9 76.1994 54.4139 77.2581C53.5174 79.2078 52.8462 81.2271 52.543 83.3591C52.3051 85.0246 52.2455 86.7025 52.2846 88.388C52.3211 90.0927 52.6668 91.724 53.4394 93.2509C53.8646 94.0813 54.2979 94.9088 54.7831 95.7004C55.4791 96.8413 56.0028 98.0548 56.4282 99.3155C56.5934 99.8132 56.6955 100.314 56.7458 100.837C56.7725 101.13 56.7663 101.421 56.6585 101.696C56.6235 101.781 56.5859 101.899 56.4237 101.826C56.5503 101.11 56.3675 100.44 56.1298 99.7698C55.9956 99.3897 55.7715 99.0815 55.4872 98.7984C54.9131 98.2295 54.3662 97.633 53.9011 96.9674C53.8623 96.9074 53.8562 96.8224 53.8392 96.7458C53.8367 96.7787 53.8203 96.7843 53.8203 96.7843ZM87.4004 110.457C87.5622 110.475 87.6226 110.477 87.6775 110.491C87.8973 110.558 88.1088 110.627 88.3313 110.689C91.2425 111.505 94.1564 112.315 97.0703 113.125C99.9842 113.936 102.866 114.853 105.643 116.054C106.836 116.572 108.062 117.037 109.215 117.652C109.366 117.733 109.509 117.858 109.691 117.892C109.883 117.236 109.926 116.731 109.853 116.074C109.734 115.039 109.516 114.023 109.106 113.064C108.605 111.902 108.084 110.752 107.55 109.602C107.032 108.487 106.378 107.455 105.612 106.498C104.871 105.574 104.092 104.686 103.166 103.944C101.95 102.971 100.721 102.026 99.3915 101.202C98.5078 100.652 97.6053 100.154 96.6702 99.7078C95.4271 99.1106 94.1008 98.7799 92.7506 98.5399C92.5749 98.5082 92.3987 98.3943 92.1885 98.5164C92.1889 98.9741 91.8835 99.2065 91.5036 99.3681C91.2795 99.4629 91.0333 99.5331 90.7924 99.5786C89.9466 99.7435 89.1021 99.7109 88.2621 99.5304C87.5263 99.3738 86.823 99.1374 86.1411 98.8297C85.9898 98.7622 85.844 98.6837 85.6662 98.7398C85.1082 98.9026 84.5445 99.0491 83.9948 99.2229C82.6136 99.671 81.2298 100.125 79.8597 100.592C78.6209 101.014 77.396 101.464 76.1684 101.906C76.0754 101.942 75.9081 101.921 75.9342 102.132C76.1153 102.153 76.3018 102.176 76.4856 102.191C79.9172 102.56 83.2746 103.274 86.5522 104.358C86.805 104.442 87.0712 104.497 87.3322 104.578C87.7278 104.704 88.103 104.663 88.4634 104.444C88.6381 104.338 88.8293 104.241 89.0206 104.171C89.275 104.085 89.535 104.028 89.7949 103.958C89.9673 103.913 90.1348 103.961 90.2671 104.067C90.5262 104.276 90.7417 104.518 90.7908 104.877C90.8428 105.258 90.8151 105.62 90.6806 105.977C90.4759 106.505 90.1969 106.989 89.8299 107.417C89.1256 108.238 88.3303 108.968 87.4077 109.539C86.9083 109.846 86.3837 110.094 85.8004 110.183C85.5567 110.22 85.3019 110.238 85.0606 110.215C84.5997 110.167 84.2959 109.84 84.301 109.385C84.3019 109.119 84.3548 108.844 84.4435 108.594C84.6237 108.089 84.8643 107.599 85.1984 107.169C85.5679 106.695 85.9457 106.232 86.318 105.766C86.3015 105.758 86.2684 105.728 86.2327 105.717C85.3074 105.488 84.3714 105.308 83.4594 105.024C81.487 104.41 79.4593 104.117 77.4287 103.802C76.0155 103.579 74.5787 103.515 73.1456 103.582C71.3644 103.663 69.5806 103.75 67.8023 103.839C67.4734 103.855 67.1502 103.887 66.8028 103.997C66.9368 104.335 67.2594 104.61 66.9906 104.977C66.7394 105.126 66.4706 105.103 66.2044 105.061C65.9685 105.027 65.8711 104.823 65.9709 104.592C66.0087 104.501 66.0821 104.421 66.1419 104.341C66.1934 104.264 66.3192 104.216 66.214 104.069C66.0196 104.103 65.8169 104.127 65.6145 104.177C63.7946 104.601 61.986 105.072 60.2446 105.752C59.0281 106.227 57.8172 106.718 56.6035 107.2C56.5707 107.212 56.5546 107.258 56.5302 107.294C56.5424 107.478 56.6225 107.565 56.8113 107.514C57.4077 107.343 58.0123 107.182 58.6031 106.995C59.4947 106.709 60.4033 106.5 61.3316 106.362C61.5151 106.336 61.6957 106.302 61.871 106.278C61.9166 106.144 61.9487 106.023 61.9918 105.908C62.0052 105.866 62.0296 105.831 62.0568 105.803C62.2008 105.607 62.3978 105.568 62.5908 105.717C62.7699 105.853 62.9327 106.008 63.1257 106.171C63.2955 106.159 63.4819 106.155 63.6655 106.143C64.83 106.08 65.9894 106.069 67.1496 106.168C69.4644 106.363 71.6699 106.989 73.8005 107.892C74.6582 108.259 75.5322 108.593 76.2953 109.139C76.5322 109.31 76.76 109.347 77.0505 109.339C77.6507 109.327 78.2511 109.342 78.849 109.39C79.3893 109.43 79.9085 109.596 80.3872 109.845C80.5495 109.932 80.7065 110.043 80.8335 110.174C81.2699 110.647 81.2319 111.1 80.7496 111.512C80.3517 111.849 79.8985 112.104 79.3952 112.253C77.9619 112.696 76.5333 112.629 75.105 112.201C74.7781 112.101 74.5027 111.911 74.2681 111.68C73.7824 111.209 73.843 110.461 74.3774 110.054C74.4646 109.987 74.6263 109.978 74.6223 109.792C73.5217 109.586 72.4989 109.138 71.4438 108.783C70.4575 108.456 69.466 108.166 68.429 108.053C66.2866 107.813 64.1441 107.573 61.9739 107.681C60.8943 107.738 59.8261 107.855 58.7612 108.049C58.6626 108.069 58.5503 108.075 58.5238 108.212C58.7488 108.63 59.0769 108.907 59.5652 108.97C59.771 108.996 59.9607 109.082 60.164 109.141C61.5644 109.501 62.8379 110.134 64.0087 110.976C64.1961 111.109 64.3671 111.261 64.5299 111.416C64.8003 111.672 65.0761 111.917 65.3981 112.109C65.4719 112.07 65.5237 112.034 65.5756 112.012C65.8844 111.87 65.986 111.899 66.1386 112.159C66.1913 112.246 66.2632 112.35 66.2611 112.437C66.2539 112.591 66.192 112.745 66.1465 112.907C66.478 113.275 66.8095 113.642 67.1382 114.016C68.7709 115.835 70.2836 117.76 72.0605 119.439C72.6482 119.994 73.2631 120.522 73.9025 121.013C74.9084 121.788 76.0172 122.394 77.145 122.962C78.7624 123.77 80.4119 124.471 82.137 125.005C84.3922 125.696 86.6934 125.891 89.0266 125.576C89.7441 125.478 90.4472 125.284 91.1532 125.112C92.3245 124.827 93.5015 124.6 94.6983 124.443C95.9143 124.29 97.1278 124.169 98.3493 124.018C99.5406 123.873 100.74 123.711 101.894 123.349C103.896 122.721 105.804 121.856 107.708 120.982C108.539 120.598 109.091 119.947 109.383 119.073C109.475 118.804 109.61 118.543 109.602 118.225C109.435 118.163 109.281 118.101 109.124 118.058C108.32 117.847 107.558 117.534 106.791 117.205C105.246 116.555 103.701 115.892 102.135 115.3C99.4605 114.293 96.7031 113.525 93.9752 112.67C92.1017 112.077 90.2173 111.506 88.3383 110.911C88.0416 110.82 87.7314 110.756 87.4004 110.457ZM45.8479 31.8153C45.4101 31.5251 45.3328 31.4461 45.0887 31.0394C44.7477 30.4826 44.5544 29.8754 44.454 29.2319C44.2991 28.2407 44.3443 27.2454 44.4168 26.2499C44.5048 25.098 44.796 24.005 45.3096 22.9736C45.5205 22.5445 45.7148 22.1073 45.8734 21.6594C46.024 21.2417 46.2132 20.8566 46.5731 20.5828C46.7449 20.4555 46.8042 20.3071 46.8303 20.115C46.9301 19.4811 47.0325 18.8417 47.1433 18.2132C47.1775 18.0047 47.1789 17.8073 47.1171 17.5994C46.8813 16.8007 46.7578 15.9819 46.7109 15.1462C46.6329 13.7899 46.7524 12.4487 47.0009 11.123C47.0908 10.6482 47.3291 10.2326 47.6171 9.8551C47.8044 9.59888 48.0563 9.55876 48.3368 9.68291C48.5512 9.77462 48.7195 9.93243 48.8306 10.1372C48.9333 10.3174 49.025 10.5059 49.0949 10.6973C49.4357 11.616 49.6287 12.5713 49.7451 13.5436C49.8673 14.5597 49.825 15.5769 49.6785 16.5839C49.5973 17.1382 49.4613 17.6791 49.3115 18.2201C49.2286 18.514 49.0881 18.8001 48.9254 19.0616C48.6326 19.5324 48.515 19.5633 47.9467 19.4412C47.8173 19.7463 47.8032 20.0808 47.778 20.41C47.7732 20.5032 47.8097 20.6235 47.8622 20.6972C48.2164 21.1717 48.2669 21.736 48.331 22.2865C48.418 22.9712 48.3351 23.6543 48.2411 24.332C48.0295 25.8328 47.7739 27.3258 47.4443 28.8028C47.3192 29.3491 47.1805 29.8956 46.9867 30.415C46.8603 30.7557 46.8077 31.085 46.8239 31.4413C46.8962 32.7675 46.9711 34.0881 47.1201 35.411C47.307 37.0599 47.5377 38.703 47.8286 40.3346C48.1052 41.8842 48.3709 43.442 48.6174 44.9972C48.8698 46.5963 49.1002 48.1982 49.347 49.7946C49.3586 49.8822 49.3375 50.0084 49.4885 50.0485C49.4964 49.9909 49.5124 49.9305 49.5093 49.8812C49.4663 49.2181 49.4096 48.5552 49.3804 47.892C49.2793 45.5683 49.3563 43.2433 49.4307 40.9238C49.4672 39.8628 49.5586 38.815 49.6938 37.7615C50.1053 34.6448 50.9122 31.6267 51.7959 28.6191C51.8386 28.4625 51.8841 28.3005 51.927 28.1577C51.5369 27.645 51.4918 27.0697 51.5151 26.4802C51.5332 25.9154 51.6774 25.3717 51.8794 24.8495C52.4611 23.3598 53.0621 21.8864 53.8772 20.4499C53.6898 20.3031 53.7297 20.1247 53.8242 19.9185C54.0996 19.3162 54.353 18.7032 54.7275 18.1497C55.0992 17.6016 55.4984 17.0671 55.8068 16.4811C56.0071 16.1014 56.3205 15.8388 56.5842 15.5245C56.7419 15.3425 56.9636 15.2944 57.2078 15.3256C57.7345 15.3932 58.0658 15.7335 58.0833 16.2816C58.1044 16.9476 58.0103 17.6116 57.7899 18.2408C57.6179 18.7299 57.4238 19.2082 57.2271 19.692C56.6612 21.0939 56.1228 22.5093 55.5074 23.8869C55.035 24.9455 54.4555 25.9582 53.9171 26.9844C53.8197 27.1687 53.7607 27.3582 53.7155 27.5614C53.5908 28.1489 53.4468 28.7337 53.2918 29.3132C53.1529 29.8322 52.9756 30.346 52.8311 30.8623C52.1949 33.1857 51.6766 35.5329 51.2572 37.9014C50.7034 41.0438 50.5115 44.2001 50.7364 47.3837C50.8094 48.4166 50.8604 49.4524 50.9197 50.4854C50.9258 50.584 50.9321 50.6964 50.9793 50.781C50.9988 50.8247 51.1029 50.8213 51.177 50.8372C51.171 50.363 51.1433 49.9329 51.165 49.4996C51.2388 48.2793 51.3207 47.0562 51.4274 45.8384C51.4628 45.4051 51.575 44.9822 51.657 44.5513C51.6701 44.469 51.7272 44.3946 51.7622 44.3093C51.8211 44.4953 51.8249 44.6543 51.8123 44.8188C51.7591 45.4414 51.7004 46.0613 51.6498 46.6784C51.5638 47.7152 51.4805 48.7464 51.3972 49.7776C51.3692 50.0848 51.4096 50.3778 51.5159 50.6896C51.7947 50.567 51.9001 50.3525 52.0463 50.0966C51.8203 49.9172 51.8706 49.6619 51.9073 49.4205C52.0039 48.7236 52.1142 48.0266 52.219 47.3269C52.2372 47.1924 52.2308 47.0527 52.2356 46.9594C52.0737 46.9277 51.912 46.937 51.8622 46.8716C51.8068 46.7897 51.8167 46.6307 51.8515 46.518C51.8756 46.4274 51.9682 46.35 52.0363 46.281C52.2322 46.0768 52.4365 45.8835 52.6379 45.682C52.8207 45.9494 52.8499 46.2096 52.6407 46.4824C52.581 46.5623 52.5598 46.6748 52.5441 46.7764C52.3889 47.7176 52.2447 48.6643 52.0977 49.6028C52.082 49.7043 52.0635 49.8114 52.2285 49.8787C52.4345 49.5566 52.6433 49.229 52.8603 48.8985C53.373 48.1193 53.8691 47.3319 54.4038 46.5634C55.1937 45.4423 56.0994 44.419 57.0492 43.4311C58.4154 42.0127 59.8036 40.6188 61.3603 39.3965C61.5457 39.2554 61.6871 39.079 61.7733 38.8618C62.0993 38.0455 62.5932 37.3321 63.0595 36.5915C63.2954 36.2226 63.5177 35.8537 63.7261 35.4713C63.8127 35.3089 63.9019 35.1274 63.9143 34.9491C63.921 34.7271 64.0048 34.5565 64.1022 34.3722C64.2077 34.1714 64.2994 33.9569 64.3637 33.7427C65.3335 30.5042 65.8862 27.1973 65.7969 23.8072C65.775 23.0179 65.7586 22.2314 65.7503 21.442C65.7414 20.1537 65.7243 18.8683 65.7564 17.5797C65.8179 14.9808 65.6821 12.3941 65.5408 9.80475C65.4966 8.97724 65.447 8.14703 65.381 7.32242C65.2575 5.72522 64.6884 4.29831 63.7394 3.01932C63.056 2.10305 62.2072 1.45382 61.025 1.34416C60.0129 1.24976 58.9963 1.30342 57.9631 1.32155C57.6927 1.85794 57.4166 2.36422 57.1763 2.89492C56.6525 4.04433 56.1507 5.20455 55.6379 6.35937C55.5975 6.45559 55.5268 6.5438 55.4699 6.63191C55.4676 6.30299 55.5395 6.0037 55.628 5.71254C55.7272 5.39936 55.8402 5.0861 55.9641 4.77824C56.08 4.48688 56.1986 4.20372 56.331 3.92047C56.4633 3.63722 56.604 3.36487 56.7528 3.08973C56.9098 2.79808 57.0887 2.51725 57.2237 2.2148C57.3451 1.93985 57.5711 1.71625 57.6621 1.40587C57.401 1.29804 57.1684 1.35448 56.9519 1.36421C55.8119 1.40501 54.6747 1.45401 53.5347 1.50852C53.1018 1.52797 52.6633 1.54472 52.2335 1.61349C51.1026 1.78854 50.0112 2.11956 48.9396 2.53542C47.529 3.0852 46.2986 3.92155 45.1291 4.85616C43.9842 5.76866 42.991 6.81718 42.3093 8.13489C41.9009 8.92442 41.4678 9.70863 41.0704 10.5036C40.6755 11.2793 40.3714 12.0928 40.1278 12.936C40.002 13.3727 40.1738 13.6346 40.5102 13.9229C40.561 13.7361 40.6067 13.6015 40.6386 13.467C40.7455 13.0688 40.8304 12.6597 40.9675 12.2695C41.0938 11.9014 41.2695 11.5438 41.4314 11.1863C41.4666 11.1148 41.515 10.9884 41.6828 11.064C41.6615 11.1628 41.6403 11.2616 41.6162 11.3523C41.4153 12.0252 41.2007 12.6983 41.0053 13.3739C40.9197 13.6733 40.8477 13.9726 40.7841 14.2828C40.7602 14.4008 40.7584 14.5297 40.9369 14.5833C41.0821 14.1766 41.2163 13.7645 41.3835 13.3686C41.548 12.9782 41.6767 12.5634 41.997 12.1062C41.9521 12.3504 41.9393 12.4739 41.9072 12.5947C41.7356 13.1523 41.6053 13.7234 41.3677 14.2486C41.1004 14.8343 41.145 15.3411 41.4504 15.8872C41.6558 16.2613 41.7903 16.6825 41.9631 17.0952C42.248 16.6821 42.3487 16.5745 42.5616 16.4469C42.8237 16.2888 43.0814 16.2925 43.3184 16.4773C43.4479 16.575 43.5639 16.7003 43.6526 16.8395C43.7883 17.0496 43.9077 17.2654 44.008 17.4922C44.8097 19.2656 44.9816 21.1256 44.7262 23.0352C44.7002 23.2409 44.6468 23.4469 44.5741 23.6365C44.4612 23.9498 44.2017 24.0749 43.8748 23.9758C43.4545 23.8444 43.143 23.5889 42.9948 23.1678C42.936 22.9955 42.8799 22.8177 42.7988 22.5798C42.6369 22.951 42.4304 23.2183 42.5099 23.6125C42.8365 25.2412 43.0973 26.8785 43.4621 28.4987C43.9515 30.6855 44.5175 32.8552 45.0534 35.0307C45.3889 36.377 45.7382 37.7232 46.0874 39.0694C46.1099 39.1487 46.0944 39.2913 46.2835 39.2818C45.9812 36.7977 45.824 34.2962 45.8479 31.8153ZM68.8566 102.124C69.013 102.139 69.0954 102.166 69.1666 102.16C70.3417 102.034 71.5254 101.974 72.7068 101.974C72.8302 101.973 72.9589 101.961 73.0655 101.911C73.4836 101.727 73.8934 101.532 74.3059 101.332C76.5436 100.281 78.8315 99.3628 81.2031 98.6501C81.9964 98.4116 82.7896 98.1732 83.5856 97.9291C83.8181 97.859 84.0505 97.7752 84.313 97.6856C84.2517 97.5326 84.1961 97.4233 84.1569 97.3084C84.031 96.9393 84.1191 96.5933 84.3859 96.3283C84.8487 95.8728 85.3641 95.4909 86.0547 95.4615C86.3671 95.4511 86.6766 95.4188 86.9864 95.4276C87.7979 95.4576 88.5913 95.6221 89.3846 95.7865C89.607 95.8343 89.8458 95.8902 90.0248 96.0123C90.3994 96.2646 90.7577 96.5499 91.0997 96.8546C91.5327 97.2381 91.9004 97.6851 92.1451 98.1877C92.4579 98.2322 92.7241 98.2742 92.9669 98.1135C93.8509 97.5235 94.8322 97.1247 95.7773 96.6467C97.113 95.9713 98.3767 95.1786 99.5129 94.2004C99.987 93.7914 100.439 93.3716 100.792 92.8484C101.305 92.0965 101.644 91.28 101.63 90.3509C101.606 89.2875 101.3 88.3111 100.65 87.4522C100.174 86.8223 99.6304 86.2477 98.9913 85.7834C98.0215 85.0747 97.0327 84.3908 96.0466 83.7014C96.0163 83.6797 95.9669 83.6827 95.923 83.6748C93.3591 85.5017 90.7037 87.195 88.0457 88.8937C81.4306 93.1143 80.6089 93.6052 79.8951 93.8349C80.1132 93.6689 80.2276 93.5612 80.3668 93.4725C81.4308 92.7525 82.4782 92.0106 83.5589 91.3123C86.0667 89.6969 88.5912 88.1032 91.1073 86.4987C92.5209 85.5953 93.929 84.6755 95.3398 83.7638C95.4708 83.678 95.6431 83.6192 95.6664 83.4326C95.6388 83.3917 95.6248 83.3507 95.5972 83.3235C94.8937 82.6842 94.2039 82.0311 93.5495 81.334C93.2402 81.0044 92.8599 80.722 92.4638 80.5137C91.1873 79.8455 89.8174 79.548 88.3766 79.6868C87.7985 79.7374 87.2208 79.8291 86.6542 79.94C84.5738 80.3519 82.5496 80.9689 80.5843 81.7583C80.0075 81.9871 79.4614 82.2924 78.8986 82.5622C78.7101 82.654 78.5602 82.7783 78.4519 82.971C78.1025 83.5847 77.7504 84.1901 77.3791 84.793C76.5199 86.1942 75.5531 87.5084 74.4156 88.6977C74.1163 89.015 73.817 89.3323 73.5342 89.6577C73.4254 89.7818 73.3469 89.9277 73.2684 90.0735C73.1196 90.3486 73.023 90.6563 72.8411 90.9015C72.268 91.6648 71.6866 92.4171 71.0722 93.1533C70.5421 93.7874 69.9707 94.3944 69.4213 95.0122C69.0242 95.459 68.6382 95.925 68.2163 96.3528C66.8934 97.6969 65.5016 98.9729 64.0573 100.189C62.741 101.297 61.3694 102.337 59.8788 103.203C59.573 103.381 59.2562 103.539 58.9753 103.749C58.4025 104.164 57.8159 104.552 57.1683 104.842C57.089 104.878 57.0266 104.963 56.9584 105.019C57.0586 105.232 57.188 105.316 57.3794 105.246C57.5544 105.182 57.7349 105.12 57.9016 105.045C58.8662 104.611 59.8418 104.196 60.7953 103.742C62.0494 103.15 63.2894 102.516 64.474 101.787C66.2263 100.708 67.879 99.4991 69.5926 98.3606C69.6935 98.2942 69.7724 98.2032 69.8486 98.1314C69.7324 97.5757 69.723 97.4141 69.9172 96.9495C70.0573 96.6086 70.2304 96.2703 70.4201 95.9537C71.038 94.9325 71.8737 94.0934 72.7812 93.3306C73.5933 92.6506 74.4663 92.0552 75.4391 91.6181C76.0102 91.3592 76.5926 91.1469 77.2485 91.2574C77.4254 91.078 77.6051 90.9068 77.7711 90.722C78.4375 89.9773 79.1922 89.3307 79.9912 88.733C80.5857 88.2876 81.2078 87.8694 81.8964 87.5658C82.6534 87.2344 83.1746 87.6885 83.1444 88.459C83.1374 88.6399 83.0976 88.8321 83.033 89.0052C82.955 89.2196 82.844 89.4177 82.7275 89.6131C82.4458 90.103 82.0456 90.5005 81.6344 90.8789C80.7955 91.6549 79.9317 92.3983 78.8631 92.8498C78.6991 92.9194 78.6012 93.0352 78.4869 93.1566C77.7769 93.9346 77.0642 94.718 76.3321 95.4851C75.5157 96.3405 74.6828 97.1741 73.8471 98.0132C73.3489 98.5128 72.8424 99.0015 72.3222 99.4765C71.4179 100.302 70.4085 100.995 69.4102 101.706C69.2384 101.833 69.0803 101.961 68.8566 102.124ZM34.0855 70.8616C34.047 70.8564 34.0059 70.8567 33.9675 70.8515C33.9611 70.7117 33.9436 70.5666 33.9536 70.4212C34.0379 69.1378 34.1166 67.8517 34.2201 66.5709C34.3011 65.6 34.4726 64.6394 34.688 63.6868C35.1908 61.4822 36.04 59.4205 37.2383 57.5098C37.6368 56.8793 38.0326 56.2406 38.5745 55.7216C38.6398 55.6581 38.6913 55.5673 38.7673 55.4681C38.3082 55.2629 37.89 55.0438 37.4209 54.9977C37.3366 55.086 37.2821 55.1412 37.2305 55.2046C36.2139 56.4397 35.4039 57.8241 34.5608 59.1785C34.4985 59.2776 34.4692 59.4067 34.4673 59.5218C34.4688 59.7411 34.3354 59.8736 34.1991 59.9842C34.041 60.1114 33.8414 60.184 33.6325 60.095C33.5293 59.8463 33.5715 59.6075 33.7987 59.5621C34.1929 59.4826 34.3198 59.2103 34.4685 58.9078C34.8523 58.1267 35.2691 57.3617 35.7823 56.651C36.1217 56.1826 36.494 55.7305 36.8499 55.2703C36.945 55.1463 37.0676 55.0358 37.0993 54.8601C36.9893 54.8198 36.9096 54.7874 36.83 54.7688C35.8855 54.5369 34.9433 54.2583 33.9883 54.0895C32.0068 53.7442 30.0148 53.462 28.0281 53.1551C27.9897 53.1499 27.9431 53.1474 27.9047 53.1422C27.6988 53.1025 27.5293 53.1695 27.4098 53.3293C27.236 53.558 27.0595 53.7922 26.9159 54.0427C26.5476 54.6949 26.2976 55.3983 26.0696 56.1126C25.2753 58.5769 25.0897 61.0671 25.7761 63.5896C26.0489 64.591 26.3299 65.5895 26.6684 66.5685C27.0684 67.7279 27.5395 68.854 27.9641 70.005C28.3357 71.0139 28.7702 72.0059 28.9941 73.0652C29.014 73.1637 29.0721 73.2538 29.1139 73.3494C29.4007 73.9888 29.6848 74.6338 29.977 75.2759C30.0466 75.4262 30.1326 75.5709 30.2239 75.7045C30.3486 75.8956 30.4842 76.0783 30.6116 76.2638C30.8331 76.5912 31.0383 76.9242 31.2708 77.2433C31.827 78.0014 32.4703 78.6658 33.2878 79.1562C33.8934 79.5221 34.505 79.5699 35.1223 79.2587C35.4883 79.0697 35.8486 78.8507 36.162 78.5881C36.9386 77.9248 37.5828 77.1419 38.1718 76.3045C38.6957 75.558 39.2057 74.798 39.7489 74.0678C40.531 73.018 41.3325 71.9845 42.1422 70.962C43.0063 69.8705 43.7905 68.7193 44.5252 67.5437C44.7854 67.1253 45.1475 66.7637 45.2646 66.2613C45.2752 66.2118 45.3408 66.1758 45.3816 66.1344C45.4932 66.0185 45.6213 65.9107 45.7163 65.7867C46.0993 65.2714 46.4436 64.7236 46.8596 64.2382C47.4633 63.5378 47.9597 62.7915 48.2798 61.9176C48.5515 61.1702 48.914 60.4742 49.4471 59.8756C49.8089 59.4729 50.1927 59.0947 50.5766 58.7165C51.1374 58.1589 51.6872 57.596 52.146 56.9541C52.3496 56.6649 52.5119 56.3622 52.611 56.0216C52.4095 55.8202 52.1686 55.8657 51.9517 55.8206C51.5207 55.7249 51.0958 55.7142 50.6692 55.8734C50.3576 55.9934 50.0179 56.0177 49.6859 55.9707C49.4554 55.9394 49.2308 55.9656 49.0204 56.0603C48.851 56.1409 48.676 56.2052 48.5067 56.2858C47.9659 56.5664 47.3942 56.7431 46.7917 56.8158C46.2165 56.8883 45.6358 56.9444 45.0579 57.0088C44.5375 57.0672 44.0221 57.0598 43.5113 56.9181C43.2888 56.8566 43.0694 56.8444 42.8398 56.9364C42.4926 57.0732 42.147 57.0262 41.8142 56.8695C41.4759 56.7102 41.1323 56.5618 40.7995 56.4051C40.4062 56.2187 40.0184 56.0213 39.6224 55.8404C39.2429 55.6676 39.013 55.7185 38.7576 56.0437C38.5539 56.3056 38.3501 56.5674 38.1766 56.8509C37.6213 57.8004 37.0935 58.7635 36.6371 59.7617C35.8785 61.4308 35.3891 63.1912 35.0644 64.9916C34.7396 66.7646 34.4586 68.5456 34.1585 70.3239C34.1625 70.5102 34.1171 70.686 34.0855 70.8616ZM51.4395 84.3124C51.4815 84.0462 51.5159 83.8651 51.5365 83.684C51.6822 82.5537 51.891 81.4339 52.2178 80.3379C52.7482 78.5635 53.4519 76.8673 54.3452 75.2439C55.0273 74.0084 55.7315 72.7837 56.5431 71.6323C57.5284 70.2248 58.6017 68.8742 59.6393 67.4992C59.8512 67.2209 60.0713 66.9397 60.3024 66.6777C61.722 65.0534 63.2796 63.5651 64.8924 62.1313C65.8649 61.2638 66.8402 60.3909 67.7961 59.5016C68.6894 58.6704 69.5607 57.8146 70.4429 56.9642C70.6008 56.8096 70.7421 56.6332 70.9243 56.4291C70.7647 56.337 70.6572 56.25 70.5281 56.2071C69.451 55.8417 68.382 55.4462 67.2915 55.1221C65.2232 54.5088 63.1137 54.2712 60.958 54.5027C60.2596 54.5761 59.5529 54.6523 58.8512 54.6626C57.648 54.6792 56.4499 54.6436 55.2438 54.6383C55.0656 54.6395 54.8705 54.5641 54.7234 54.6967C54.6754 54.8917 54.6328 55.0756 54.5819 55.2487C54.4908 55.5453 54.3777 55.8312 54.292 56.1306C53.925 57.3639 53.4811 58.5593 52.8145 59.6796C52.1101 60.8632 51.6255 62.1411 51.3223 63.4809C51.1787 64.1068 51.0158 64.7302 50.8776 65.3589C50.7074 66.1084 50.5261 66.8525 50.4025 67.6044C50.2264 68.6856 50.0914 69.7802 49.94 70.8668C49.7731 72.0959 49.6529 73.3412 49.4366 74.5598C49.1489 76.1598 49.0614 77.7695 49.0452 79.3868C49.0428 79.8227 49.1115 80.2525 49.1228 80.6883C49.1301 80.9514 49.2192 81.1591 49.3906 81.3662C49.6449 81.6687 49.8801 81.9823 50.1043 82.3042C50.5363 82.9399 50.952 83.5812 51.4395 84.3124ZM132.731 67.151C132.534 66.8838 132.279 66.8471 132.043 66.7857C130.266 66.2882 128.487 65.8099 126.659 65.5129C125.002 65.2448 123.341 64.9959 121.681 64.7607C120.104 64.5386 118.515 64.3249 116.932 64.155C113.915 63.8333 110.888 63.7666 107.86 63.7876C105.722 63.8024 103.587 63.9625 101.468 64.2458C100.298 64.402 99.1265 64.591 97.9602 64.7828C95.5754 65.1748 93.2749 65.8679 90.9915 66.6375C90.6223 66.7634 90.2589 66.9331 89.9037 67.1001C89.6742 67.2058 89.4999 67.366 89.3919 67.6134C89.257 67.9159 89.0725 68.194 88.9101 68.483C88.4849 69.2233 88.4849 69.2233 89.0841 69.866C89.2102 69.8597 89.3555 69.8696 89.5007 69.8522C90.169 69.7845 90.8246 69.8539 91.4726 70.0084C91.7966 70.0857 92.1206 70.1629 92.4471 70.2073C94.0906 70.4343 95.7445 70.5846 97.4085 70.6032C99.3987 70.625 101.392 70.655 103.385 70.6714C108.596 70.712 113.8 70.6265 118.985 70.0396C121.089 69.8029 123.178 69.4705 125.261 69.0942C127.323 68.7208 129.378 68.3036 131.454 68.0124C131.865 67.9547 132.276 67.897 132.68 67.6996C132.698 67.5103 132.716 67.3074 132.731 67.151ZM89.7114 70.2016C89.965 70.3944 90.0919 70.5251 90.2515 70.6035C90.6723 70.8171 91.0988 71.0472 91.5358 71.2141C92.5636 71.5962 93.6103 71.9261 94.6354 72.3137C96.4108 72.9812 98.2366 73.4208 100.108 73.6983C103.351 74.172 106.594 74.2153 109.842 73.7487C111.217 73.55 112.591 73.3239 113.969 73.1334C115.412 72.9343 116.835 72.6777 118.247 72.3335C120.828 71.7098 123.411 71.108 126.037 70.6978C127.497 70.4657 128.902 70.0091 130.255 69.4104C130.84 69.1514 131.394 68.8433 131.912 68.456C131.871 68.4151 131.854 68.3933 131.841 68.3934C130.677 68.5797 129.505 68.7413 128.344 68.9632C125.144 69.5829 121.95 70.2054 118.715 70.5897C117.975 70.677 117.233 70.7973 116.488 70.8546C112.927 71.126 109.364 71.2877 105.796 71.296C102.953 71.2993 100.113 71.2423 97.2673 71.1962C94.8768 71.1553 92.5095 70.9003 90.1864 70.3052C90.0792 70.273 89.964 70.2574 89.7114 70.2016ZM46.28 66.8216C46.0137 67.1689 45.9115 67.4464 45.8725 67.7482C45.8257 68.1213 45.7927 68.4943 45.7431 68.8593C45.7222 68.9992 45.7151 69.1664 45.6364 69.2711C45.4301 69.5659 45.4214 69.8894 45.4264 70.2265C45.4351 70.6815 45.4437 71.1364 45.4442 71.5942C45.4446 72.052 45.4614 72.5041 45.6837 72.9275C45.7392 73.0367 45.7566 73.1682 45.7794 73.2886C45.9868 74.3535 46.3721 75.3622 46.8339 76.3403C47.0286 76.7502 47.2753 77.1377 47.5274 77.5142C47.7046 77.7789 47.9389 77.9691 48.3082 77.8569C48.3258 77.6265 48.3326 77.4182 48.353 77.2097C48.4118 76.5898 48.4568 75.97 48.5293 75.35C48.6146 74.6066 48.7164 73.8713 48.8154 73.1277C49.0734 71.199 49.3203 69.2648 49.6002 67.3331C49.6971 66.6773 49.8571 66.032 50.0089 65.3896C50.1901 64.6455 50.3851 63.9013 50.5965 63.1652C50.7383 62.6681 50.8994 62.1736 51.0714 61.6845C51.4047 60.742 51.9086 59.8832 52.4565 59.0461C52.5976 58.8286 52.6291 58.6393 52.4795 58.4018C52.2821 58.4005 52.0765 58.4019 51.9148 58.3975C51.4656 58.8392 51.06 59.2477 50.6379 59.6481C49.8999 60.344 49.3436 61.1564 49.0048 62.11C48.9134 62.3655 48.8165 62.6184 48.7002 62.8549C48.4624 63.339 48.2383 63.8367 47.8462 64.2177C47.3317 64.7229 46.9961 65.3365 46.6522 65.9529C46.5493 66.1345 46.515 66.3293 46.511 66.5459C46.5152 67.5382 46.5084 68.5387 46.4907 69.5338C46.4824 69.9259 46.4441 70.3236 46.4111 70.7103C46.4034 70.7817 46.415 70.883 46.2755 70.9169C46.1175 70.2656 46.1869 69.61 46.1989 68.9602C46.208 68.3023 46.2499 67.6195 46.28 66.8216ZM44.764 76.6754C44.9063 76.6361 44.8806 76.4937 44.877 76.3759C44.8688 75.5865 44.8442 74.8027 44.8442 74.0105C44.8484 72.2507 44.891 70.4824 45.0762 68.7296C45.0917 68.6006 45.1811 68.4465 45.0241 68.3352C44.9858 68.3574 44.9338 68.366 44.9203 68.3935C43.6786 70.3647 42.1778 72.1404 40.8121 74.0166C40.7903 74.0469 40.7934 74.0962 40.772 74.1676C41.4299 74.566 42.1042 74.9588 42.7677 75.3735C43.4339 75.7965 44.0921 76.236 44.764 76.6754ZM57.2088 16.2685C57.0886 16.3187 56.9981 16.322 56.9519 16.3744C56.8376 16.4958 56.7343 16.6227 56.6393 16.7604C56.216 17.3718 55.8064 17.9969 55.3665 18.6003C55.0869 18.9887 54.8375 19.3851 54.6046 19.8034C53.7003 21.4214 53.0517 23.1446 52.4553 24.8866C52.372 25.1394 52.2916 25.4003 52.2386 25.6611C52.1432 26.1332 52.0971 26.6023 52.1964 27.0813C52.2331 27.2427 52.259 27.4125 52.4541 27.4879C52.8315 27.3592 53.0294 27.0399 53.2107 26.7124C53.8146 25.6502 54.3937 24.5689 54.8601 23.4391C55.5529 21.7512 56.2154 20.0554 56.878 18.3595C57.0881 17.8345 57.1939 17.2856 57.2312 16.7234C57.2467 16.5944 57.221 16.4521 57.2088 16.2685ZM41.9609 22.7008C42.0011 22.5771 42.039 22.5001 42.0439 22.4206C42.0559 22.1738 42.0843 21.9214 42.0552 21.6749C41.9538 20.8944 41.8443 20.1167 41.7155 19.3364C41.5693 18.4109 41.2562 17.5332 40.9185 16.6639C40.4162 15.379 39.6054 14.2773 38.9338 13.0868C38.8755 12.983 38.7762 12.8933 38.5981 12.9082C38.492 13.0268 38.3752 13.1674 38.2528 13.3053C38.2593 13.4588 38.2494 13.6041 38.2695 13.7438C38.4399 14.9953 38.6103 16.2468 38.9368 17.4725C38.9847 17.6531 39.0571 17.8253 39.1296 17.9975C39.5811 19.0661 40.0325 20.1348 40.4785 21.2007C40.6569 21.6298 40.9117 22.0008 41.2646 22.2972C41.3528 22.3678 41.496 22.4655 41.5835 22.4402C41.8024 22.3839 41.7847 22.6006 41.9609 22.7008ZM46.0833 30.572C46.3458 30.0932 46.4793 29.5715 46.5908 29.0526C46.9682 27.3533 47.2497 25.6409 47.4515 23.9099C47.5005 23.4764 47.5167 23.0405 47.4972 22.6075C47.4812 22.2787 47.4022 21.9531 47.326 21.6356C47.3034 21.5289 47.2096 21.4418 47.1375 21.3244C46.761 21.5765 46.4198 21.7981 46.0433 22.0502C45.8789 22.4543 45.6956 22.8969 45.5205 23.3367C45.3075 23.8535 45.1523 24.3918 45.0711 24.9461C44.8776 26.2851 44.8513 27.6311 45.0689 28.9673C45.1548 29.5012 45.3283 30.0098 45.6274 30.4436C45.7839 30.4863 45.9212 30.5265 46.0833 30.572ZM56.3942 107.057C56.8424 106.867 57.2334 106.725 57.605 106.552C59.7797 105.517 62.0186 104.644 64.3469 104.005C65.9966 103.553 67.664 103.272 69.3711 103.189C70.5741 103.132 71.7771 103.088 72.9774 103.035C74.8489 102.951 76.7055 103.078 78.5552 103.386C79.1863 103.491 79.8176 103.61 80.4542 103.704C81.2555 103.825 82.0407 104.006 82.8261 104.214C83.7488 104.463 84.6686 104.689 85.5914 104.938C86.006 105.053 86.4155 105.193 86.888 105.343C86.9698 105.287 87.1035 105.196 87.2344 105.096C87.278 105.063 87.3077 105.003 87.3648 104.928C87.2714 104.896 87.1998 104.861 87.1285 104.853C86.6155 104.786 86.1292 104.622 85.6482 104.433C85.398 104.331 85.1426 104.253 84.8817 104.186C82.8771 103.666 80.8484 103.236 78.796 102.937C75.1659 102.417 71.5248 102.281 67.8831 102.854C67.5792 102.903 67.2839 103.004 66.9856 103.082C66.7394 103.153 66.5051 103.352 66.2295 103.134C66.1854 103.099 66.065 103.135 65.9885 103.166C65.756 103.25 65.5153 103.323 65.3023 103.437C64.9118 103.648 64.5043 103.782 64.0745 103.865C63.9979 103.882 63.8747 103.91 63.8388 103.872C63.6178 103.613 63.3804 103.776 63.1561 103.844C61.9416 104.203 60.769 104.685 59.6047 105.179C58.517 105.641 57.4488 106.161 56.2912 106.432C56.2611 106.438 56.245 106.485 56.2014 106.532C56.2518 106.679 56.3076 106.83 56.3942 107.057ZM48.0634 10.5729C47.8182 10.7939 47.5922 11.0038 47.3605 11.1973C47.2215 11.3134 47.1705 11.459 47.1497 11.6264C46.9691 13.2586 46.9256 14.8898 47.3014 16.5017C47.4653 17.2105 47.6948 17.8969 48.1074 18.5026C48.1683 18.5872 48.2101 18.6828 48.3634 18.6488C48.7179 17.9967 48.8389 17.264 48.9352 16.526C49.1355 14.9649 49.0371 13.4279 48.5963 11.9206C48.4726 11.4774 48.4034 10.9927 48.0634 10.5729ZM39.9291 28.5452C39.9462 28.6355 39.9494 28.6985 39.969 28.756C40.4143 30.1152 40.8595 31.4744 41.313 32.8309C41.7469 34.1299 42.1972 35.4233 42.642 36.714C42.8826 37.4195 43.1396 38.1195 43.3803 38.825C43.7888 40.0228 44.2137 41.2149 44.5839 42.4212C45.4532 45.2385 46.295 48.056 47.1424 50.8762C47.1986 51.0677 47.2164 51.2676 47.2507 51.4757C47.7913 51.5569 47.8351 51.5511 48.2478 51.3783C48.2005 51.2663 48.1858 51.1293 48.1112 51.0449C47.7577 50.6663 47.6091 50.1904 47.4496 49.7228C47.2733 49.1922 47.0969 48.6617 46.9534 48.1199C46.4413 46.2157 45.8881 44.3254 45.1983 42.4772C44.57 40.8095 43.9334 39.1446 43.2805 37.4853C42.1839 34.6997 41.2597 31.8691 40.505 28.9715C40.4656 28.8155 40.4124 28.6597 40.3617 28.4709C40.2057 28.4966 40.0715 28.5195 39.9291 28.5452ZM50.7942 50.9632C50.6614 49.6073 50.5374 48.3308 50.4161 47.0488C50.1292 44.0191 50.2509 41.0058 50.7508 38.0009C51.285 34.7873 51.9949 31.6192 52.993 28.5176C53.0333 28.3939 53.0515 28.2595 53.0808 28.1305C52.7745 28.2258 52.5009 28.3099 52.1891 28.4025C52.1194 28.6278 52.0307 28.8778 51.9694 29.1414C51.6128 30.6734 51.2369 32.2028 50.9104 33.7428C50.4856 35.7331 50.1816 37.7417 50.1053 39.7734C50.0222 42.0271 50.0105 44.2886 50.0207 46.5472C50.0282 48.0191 50.1206 49.485 50.1773 50.9538C50.1803 50.9894 50.2134 51.0193 50.255 51.0876C50.4193 51.059 50.5917 51.014 50.7942 50.9632ZM36.9898 35.5279C36.7138 35.645 36.7448 35.7763 36.8444 35.9072C37.3758 36.6464 37.8854 37.4021 38.4414 38.1192C38.9337 38.7572 39.4152 39.4035 39.853 40.083C40.6453 41.2918 41.454 42.495 42.2655 43.6927C43.077 44.8904 43.943 46.0603 44.588 47.3606C45.1301 48.4533 45.6422 49.5654 46.1652 50.6691C46.2792 50.9096 46.3769 51.1556 46.4966 51.4261C46.6005 51.3953 46.6853 51.3618 46.781 51.3337C46.3971 50.1275 46.019 48.9652 45.6491 47.8C45.523 47.4035 45.4543 46.9873 45.0416 46.7572C44.9783 46.7192 44.942 46.6263 44.9031 46.5526C44.7117 46.2332 44.5286 45.911 44.3399 45.5861C44.0681 45.1247 43.799 44.6579 43.5217 44.1938C42.9005 43.1647 42.1321 42.2408 41.3746 41.3086C40.1 39.7331 38.8363 38.1493 37.6871 36.4715C37.4629 36.1633 37.2196 35.8525 36.9898 35.5279ZM31.186 31.8431C31.2751 32.0371 31.4133 32.2006 31.4144 32.365C31.4193 32.6747 31.6014 32.8462 31.8 33.0257C31.9848 33.1916 32.1696 33.3575 32.3571 33.518C32.9968 34.0508 33.6879 34.5065 34.4034 34.9127C34.7254 35.0914 35.0717 35.2342 35.418 35.3634C35.6984 35.4739 35.9914 35.4334 36.2703 35.3383C36.3688 35.3047 36.505 35.1804 36.5071 35.0927C36.5193 34.8733 36.6327 34.6286 36.4038 34.4273C36.1694 34.2234 35.9839 33.9615 35.7387 33.7796C35.1215 33.3261 34.4909 32.9001 33.8601 32.4604C33.6067 32.2813 33.3587 32.0911 33.0972 31.9285C32.5025 31.5543 31.8801 31.5285 31.186 31.8431ZM46.0969 31.7396C46.151 32.8247 46.1857 33.8798 46.2479 34.9347C46.3648 36.7814 46.6379 38.6023 46.9082 40.4287C47.1096 41.7979 47.3521 43.1667 47.6083 44.5355C47.9071 46.1233 48.2333 47.7108 48.4226 49.3131C48.5069 50.0032 48.6213 50.6877 48.7305 51.4106C49.0644 51.3425 49.4154 51.3648 49.7349 51.1871C49.6782 50.9134 49.6218 50.6808 49.5594 50.3907C49.3691 50.6113 49.574 50.9032 49.2954 51.0531C49.2205 50.9275 49.1238 50.8186 49.0846 50.69C49.0089 50.4548 48.9579 50.2112 48.9151 49.9648C48.8177 49.3706 48.7341 48.7764 48.6368 48.1823C48.4938 47.3198 48.3453 46.4684 48.2023 45.6059C47.9706 44.215 47.7526 42.8241 47.5073 41.4333C47.2534 40.0042 47.0296 38.5694 46.8853 37.1259C46.7058 35.3509 46.5893 33.5727 46.5933 31.7855C46.5924 31.6484 46.564 31.5116 46.5408 31.3226C46.3747 31.48 46.2576 31.5932 46.0969 31.7396ZM-9.14998 163.287C-8.96314 163.352 -8.81192 163.419 -8.64988 163.465C-7.42227 163.801 -6.20235 163.82 -4.99117 163.371C-4.47171 163.175 -4.04896 162.871 -3.72607 162.394C-3.79797 162.304 -3.84254 162.2 -3.92505 162.16C-4.1643 162.049 -4.41724 161.939 -4.67531 161.88C-5.55394 161.667 -6.44205 161.668 -7.32391 161.781C-7.85521 161.847 -8.37505 161.988 -8.90048 162.112C-9.04004 162.146 -9.16561 162.221 -9.29398 162.288C-9.39773 162.346 -9.42969 162.48 -9.3716 162.557C-9.19472 162.767 -9.13268 163.016 -9.14998 163.287ZM63.0697 103.241C63.2641 103.207 63.3763 103.187 63.4858 103.159C64.0112 103.035 64.5283 102.899 65.0566 102.783C65.3631 102.715 65.6474 102.609 65.926 102.459C67.6517 101.504 69.2335 100.342 70.7046 99.03C71.0342 98.7344 71.35 98.4252 71.7776 98.0275C71.3698 98.1071 71.0854 98.2132 70.8085 98.2069C70.2903 98.1914 69.8942 98.386 69.532 98.7201C69.4421 98.8057 69.3274 98.8586 69.2292 98.9333C68.0592 99.7857 66.903 100.652 65.7219 101.485C64.8735 102.086 64.0056 102.629 63.0697 103.241ZM36.7439 20.629C36.4631 20.853 36.4522 20.8613 36.5 21.0282C36.8746 22.4756 37.2519 23.9176 37.9218 25.2643C38.2165 25.8598 38.563 26.4193 39.0051 26.9234C39.2869 27.2394 39.4275 27.3563 39.8951 27.586C39.9491 27.4623 39.9318 27.3445 39.9008 27.2269C39.7374 26.5866 39.604 25.9269 39.3831 25.3062C39.0729 24.4504 38.6971 23.617 38.3377 22.778C38.0339 22.0619 37.5474 21.4677 37.0608 20.8735C36.9889 20.7836 36.8734 20.7268 36.7439 20.629ZM70.4581 97.4748C70.5706 97.4959 70.6284 97.5311 70.6831 97.5171C70.9842 97.4464 71.288 97.384 71.5806 97.2888C72.4503 97.0059 73.2366 96.5454 74.0146 96.0878C75.0902 95.4553 76.0441 94.6675 76.8875 93.7434C77.1813 93.4234 77.431 93.068 77.6972 92.7208C77.7923 92.5968 77.8352 92.4677 77.6916 92.3015C77.6149 92.3184 77.5081 92.3274 77.4233 92.3609C76.7892 92.6229 76.194 92.9588 75.6487 93.3737C74.9942 93.8716 74.3454 94.386 73.7049 94.9112C72.6856 95.7489 71.7133 96.6574 70.5612 97.3205C70.5284 97.3454 70.515 97.3867 70.4581 97.4748ZM39.9266 101.266C39.2938 102.499 38.6798 103.693 38.0714 104.889C38.0552 104.922 38.0719 104.972 38.0752 105.048C38.2367 105.012 38.3983 104.989 38.5431 104.93C39.7433 104.475 40.9379 104.003 42.1353 103.54C42.2009 103.518 42.2471 103.451 42.3288 103.382C41.4335 102.744 40.8188 101.855 39.9266 101.266ZM43.9034 23.3616C44.5448 21.7783 43.9616 18.3093 42.9729 17.2499C42.9159 17.338 42.826 17.4099 42.8156 17.5004C42.7815 17.7227 42.7722 17.9503 42.7683 18.1806C42.7664 18.6986 42.77 19.2194 42.7708 19.732C42.7717 19.8554 42.7643 19.9815 42.7734 20.102C42.8647 21.0142 43.0545 21.9065 43.3538 22.7706C43.407 22.9265 43.4903 23.0766 43.5926 23.202C43.6644 23.2783 43.7989 23.3102 43.9034 23.3616ZM74.4666 101.964C74.8841 102.101 75.1938 102.083 75.5107 101.938C76.0572 101.687 76.6121 101.461 77.1697 101.23C79.195 100.388 81.2537 99.6174 83.3181 98.8767C83.7665 98.7146 84.2206 98.5826 84.6773 98.4314C84.784 98.395 84.8905 98.345 85.0026 98.2976C84.7835 97.9373 84.5174 97.909 84.184 98.0456C83.8997 98.1654 83.6016 98.258 83.3062 98.3587C81.5369 98.9576 79.7674 99.529 78.0594 100.281C76.8761 100.799 75.6982 101.306 74.4666 101.964ZM85.5459 96.4134C86.5035 97.3415 89.3302 98.2182 90.4796 97.9498C90.3495 97.7698 90.1707 97.6751 89.9919 97.5804C89.4197 97.2856 88.8611 96.977 88.3512 96.5831C88.252 96.507 88.1473 96.4283 88.032 96.3989C87.3183 96.2531 86.605 96.1621 85.8766 96.2686C85.7699 96.2913 85.6717 96.366 85.5459 96.4134ZM77.0995 91.5189C76.8768 91.4163 76.6743 91.467 76.4884 91.5396C76.0647 91.707 75.6299 91.8553 75.2395 92.08C73.5604 93.0373 72.1768 94.3243 71.0859 95.9189C71.0561 95.9657 70.9469 96.0213 71.0545 96.122C71.4714 95.7737 71.8747 95.4256 72.289 95.0828C73.7769 93.8335 75.2289 92.5324 77.0102 91.6867C77.0458 91.67 77.0644 91.5904 77.0995 91.5189ZM40.1079 23.0946C40.1257 22.9054 40.1496 22.7873 40.1378 22.6723C40.1044 22.1983 40.0052 21.733 39.813 21.2903C39.618 20.8394 39.4366 20.3746 39.2361 19.921C38.9742 19.3143 38.7015 18.7159 38.4314 18.112C38.359 17.9535 38.2839 17.7868 38.1543 17.6753C37.9656 17.7397 37.9967 17.8847 38.003 17.9971C38.0367 18.5122 38.1279 19.0214 38.2794 19.5192C38.543 20.3726 38.8694 21.1954 39.2669 21.9848C39.4336 22.3126 39.6632 22.6098 39.8682 22.9154C39.9152 22.9726 39.9949 23.0049 40.1079 23.0946ZM75.5482 110.895C75.5977 110.92 75.6308 110.95 75.6692 110.955C76.6183 111.053 77.5694 111.035 78.5111 110.869C78.774 110.821 79.031 110.729 79.2881 110.65C79.3783 110.619 79.4988 110.597 79.473 110.427C79.0359 110.246 78.5642 110.219 78.0928 110.22C78.0516 110.22 77.9968 110.221 77.9778 110.245C77.8172 110.406 77.6497 110.371 77.4656 110.301C77.3914 110.271 77.3008 110.261 77.2214 110.27C76.6599 110.329 76.1237 110.475 75.6294 110.744C75.5857 110.764 75.5725 110.846 75.5482 110.895ZM89.075 105.284C88.9465 105.337 88.8836 105.354 88.8399 105.387C88.286 105.75 87.793 106.197 87.3385 106.677C86.9549 107.083 86.6209 107.54 86.4409 108.073C86.3872 108.238 86.2596 108.414 86.4201 108.63C87.4743 107.68 88.3825 106.624 89.075 105.284ZM86.268 106.466C85.773 107.014 85.5053 107.545 85.2321 108.073C85.1266 108.274 85.0431 108.486 84.9843 108.703C84.9334 108.876 84.9211 109.068 84.9141 109.249C84.912 109.35 84.973 109.449 85.0911 109.472C85.2036 109.494 85.3242 109.498 85.423 109.506C85.4313 109.127 85.4042 108.779 85.4566 108.436C85.512 108.115 85.6414 107.81 85.7572 107.505C85.8894 107.195 86.1452 106.938 86.268 106.466ZM47.5443 18.7313C47.3077 18.9906 47.1319 19.7237 47.1637 20.3676C47.2597 20.3669 47.3529 20.3718 47.4762 20.3709C47.5563 20.0551 47.6172 19.7505 47.7167 19.4647C47.8161 19.1789 47.7623 18.9408 47.5443 18.7313ZM89.8125 104.909C89.7741 104.917 89.7303 104.923 89.692 104.931C89.6926 105.014 89.6876 105.093 89.7019 105.175C89.7873 105.627 89.6777 106.031 89.4089 106.397C89.2188 106.659 89.0453 106.929 88.8607 107.193C89.122 106.925 89.3475 106.633 89.5757 106.336C89.8092 106.027 89.9137 105.675 89.9166 105.294C89.9184 105.166 89.8517 105.037 89.8125 104.909ZM74.8461 110.448C74.8241 110.437 74.7993 110.418 74.7773 110.407C74.7067 110.496 74.6332 110.576 74.5735 110.669C74.5572 110.689 74.585 110.743 74.588 110.779C74.6236 110.776 74.6785 110.775 74.6893 110.753C74.7489 110.66 74.7948 110.553 74.8461 110.448ZM86.8918 105.891C86.8808 105.886 86.867 105.872 86.856 105.867C86.8016 105.936 86.7418 106.002 86.6875 106.071C86.7013 106.084 86.7177 106.092 86.7315 106.106C86.7859 106.037 86.8374 105.96 86.8918 105.891Z" fill="#BA804A" fill-opacity="0.6"/>
</svg>
