<svg width="87" height="32" viewBox="0 0 87 32" fill="none" xmlns="http://www.w3.org/2000/svg">
<path d="M67.3932 16C67.3932 17.4728 66.1993 18.6667 64.7266 18.6667C63.2538 18.6667 62.0599 17.4728 62.0599 16C62.0599 14.5272 63.2538 13.3333 64.7266 13.3333C66.1993 13.3333 67.3932 14.5272 67.3932 16ZM0.373009 16.3536C0.17775 16.1583 0.17775 15.8417 0.373009 15.6464L3.55499 12.4645C3.75025 12.2692 4.06683 12.2692 4.2621 12.4645C4.45736 12.6597 4.45736 12.9763 4.2621 13.1716L1.43367 16L4.2621 18.8284C4.45736 19.0237 4.45736 19.3403 4.2621 19.5355C4.06683 19.7308 3.75025 19.7308 3.55499 19.5355L0.373009 16.3536ZM64.7266 16.5H0.726562V15.5H64.7266V16.5Z" fill="#BA804A"/>
<circle cx="16" cy="16" r="15.75" transform="matrix(-1 0 0 1 76.3633 0)" stroke="#BA804A" stroke-width="0.5"/>
<circle cx="16" cy="16" r="15.75" transform="matrix(-1 0 0 1 80.7266 0)" stroke="#BA804A" stroke-width="0.5"/>
<circle cx="16" cy="16" r="15.75" transform="matrix(-1 0 0 1 86.5449 0)" stroke="#BA804A" stroke-width="0.5"/>
</svg>
