<svg width="90" height="21" viewBox="0 0 90 21" fill="none" xmlns="http://www.w3.org/2000/svg">
<path d="M45.0014 9.6741C44.9871 9.68536 45.0818 9.82053 45.274 10.0711C45.4863 10.3048 45.7991 10.6596 46.3041 11.0032C46.8005 11.3495 47.4663 11.7099 48.3013 11.9549C48.7145 12.0872 49.1736 12.1773 49.6585 12.2534C50.1463 12.3181 50.6685 12.3491 51.2166 12.3378C52.3156 12.3097 53.4978 12.0844 54.7202 11.7099C55.9426 11.3354 57.1936 10.8032 58.4906 10.2204C59.7876 9.64313 61.1305 9.0124 62.5796 8.51964C64.02 8.02407 65.581 7.66647 67.185 7.71434C68.789 7.76784 70.3241 8.21553 71.7531 8.75616C73.185 9.2996 74.5393 9.92752 75.8564 10.4653C77.1706 11.0088 78.4446 11.4874 79.6613 11.8535C80.8779 12.2224 82.0458 12.4758 83.1218 12.6138C84.2007 12.7545 85.1878 12.7743 86.0486 12.7292C86.9095 12.6785 87.6469 12.5518 88.2351 12.411C88.8262 12.2731 89.2681 12.1097 89.5637 11.9943C89.8564 11.8676 90.0056 11.7944 89.9998 11.7803C89.9826 11.7352 89.3686 12.0027 88.195 12.228C87.6096 12.3406 86.8836 12.4364 86.0372 12.4617C85.1907 12.4814 84.2237 12.4392 83.1706 12.2787C82.1175 12.121 80.9784 11.8535 79.7818 11.4734C78.5852 11.0961 77.3342 10.6089 76.0314 10.0599C74.7259 9.5136 73.3801 8.88005 71.9253 8.31972C70.4762 7.76501 68.8894 7.29197 67.1993 7.23847C65.5092 7.1906 63.8909 7.56791 62.4217 8.08038C60.944 8.59004 59.5896 9.23485 58.3041 9.82334C57.0157 10.4147 55.7876 10.9496 54.5968 11.3354C53.4088 11.7184 52.2611 11.9549 51.2051 12.0027C50.6772 12.0225 50.1721 12.0056 49.6987 11.9549C49.2281 11.8929 48.7805 11.8197 48.3787 11.7043C47.5667 11.4903 46.9096 11.1665 46.4132 10.8539C45.4117 10.2063 45.0445 9.63468 45.0014 9.6741Z" fill="#BA804A"/>
<path d="M56.9923 15.2991C55.7224 14.053 54.0133 13.5516 52.8745 13.2863C52.5513 15.006 53.0529 16.8702 54.2137 18.2C55.3844 19.5379 57.2023 20.3108 58.9996 20.2474C59.0492 18.427 58.3081 16.5903 56.9923 15.2991Z" stroke="#BA804A" stroke-width="0.5"/>
<path d="M58.8521 5.85816L58.8521 5.85809C59.2444 4.06098 58.8489 2.14495 58.0332 0.450228L58.0332 0.45023L58.0326 0.448882C57.9721 0.321228 57.9343 0.275375 57.9016 0.259336C57.8802 0.248845 57.8438 0.242159 57.7731 0.267802C57.7004 0.294155 57.6191 0.345542 57.5369 0.409531L57.5366 0.409816C55.9954 1.60553 54.927 3.36992 54.5907 5.2652C54.4225 6.21325 54.452 6.98258 54.6475 7.7152C54.8306 8.4015 55.1626 9.06805 55.6365 9.83078C57.2831 9.18604 58.4738 7.59399 58.8521 5.85816Z" stroke="#BA804A" stroke-width="0.5"/>
<path d="M70.8778 15.7483L70.878 15.7475C71.2937 14.224 71.0761 12.541 70.2883 11.165C69.5242 9.83511 68.8448 8.88644 67.5278 8.41648C67.3142 11.1469 68.3834 13.9574 70.3847 15.8714C70.4565 15.9391 70.5231 15.9937 70.5854 16.0266C70.6456 16.0584 70.6793 16.0584 70.6999 16.053L70.6999 16.0529L70.7038 16.052C70.7245 16.0469 70.7527 16.0315 70.7873 15.977C70.8235 15.92 70.8529 15.8409 70.8778 15.7483Z" stroke="#BA804A" stroke-width="0.5"/>
<path d="M78.3002 9.9976C78.3449 10.0169 78.3978 10.0368 78.46 10.0566C78.6587 10.1201 78.9151 10.1724 79.2113 10.2144C79.8026 10.2982 80.5213 10.3367 81.1879 10.3521C83.6305 10.4062 85.9394 9.15791 87.0746 7.0565C85.3291 6.70223 83.5111 6.64365 81.898 7.26762C81.0543 7.59398 80.1096 8.31899 79.3621 8.98141C78.9917 9.30962 78.6758 9.61689 78.4526 9.84205C78.3955 9.89966 78.3445 9.95186 78.3002 9.9976Z" stroke="#BA804A" stroke-width="0.5"/>
<mask id="path-6-inside-1_104_4361" fill="white">
<path d="M79.4058 12.2328C80.0456 12.0188 80.7946 12.8213 81.2393 13.3225C82.1633 14.3643 83.0815 15.4399 83.664 16.6958C84.2494 17.9516 84.4703 19.4299 83.9682 20.7195C80.9294 19.1229 79.0786 15.5864 79.532 12.2328"/>
</mask>
<path d="M81.2393 13.3225L81.6133 12.9906L81.6134 12.9907L81.2393 13.3225ZM83.664 16.6958L83.2108 16.907L83.2104 16.9061L83.664 16.6958ZM83.9682 20.7195L84.4341 20.9009L84.231 21.4224L83.7356 21.1621L83.9682 20.7195ZM79.2472 11.7586C79.813 11.5694 80.3428 11.8508 80.6912 12.1061C81.062 12.3777 81.3919 12.7411 81.6133 12.9906L80.8653 13.6543C80.642 13.4027 80.3751 13.1141 80.1002 12.9127C79.803 12.695 79.6384 12.6822 79.5643 12.707L79.2472 11.7586ZM81.6134 12.9907C82.5345 14.0293 83.5004 15.1547 84.1176 16.4854L83.2104 16.9061C82.6626 15.7251 81.7921 14.6993 80.8652 13.6542L81.6134 12.9907ZM84.1172 16.4845C84.7396 17.8198 85.001 19.4449 84.4341 20.9009L83.5022 20.5381C83.9396 19.4148 83.7591 18.0834 83.2108 16.907L84.1172 16.4845ZM83.7356 21.1621C80.5148 19.4699 78.5544 15.732 79.0365 12.1658L80.0275 12.2998C79.6029 15.4407 81.3441 18.776 84.2007 20.2769L83.7356 21.1621Z" fill="#BA804A" mask="url(#path-6-inside-1_104_4361)"/>
<path d="M67.7417 4.39325C67.2512 4.94947 66.8707 5.58615 66.8197 6.249C67.4288 6.34906 68.1812 6.26759 68.9206 6.05327C69.7396 5.81588 70.5073 5.42576 71.0078 4.98597C71.9425 4.16465 72.6123 3.09708 73.2579 1.98917C71.182 1.9559 69.1018 2.85707 67.7417 4.39325Z" stroke="#BA804A" stroke-width="0.5"/>
<path d="M87.439 6.88064C87.4218 6.81869 86.868 6.90598 86.0043 7.13968C85.1377 7.37058 83.9613 7.73663 82.6729 8.18434C80.099 9.07412 78.0732 9.97235 78.1277 10.1019C78.1765 10.2173 80.2654 9.52464 82.8336 8.63486C84.1162 8.18996 85.2726 7.77324 86.1076 7.46069C86.9426 7.14532 87.4563 6.9454 87.439 6.88064Z" fill="#BA804A"/>
<path d="M73.8394 1.91977C73.7677 1.80714 72.0891 2.69692 70.0862 3.90488C68.0834 5.11285 66.5166 6.18283 66.5884 6.29547C66.6601 6.4081 68.3387 5.51832 70.3416 4.31035C72.3445 3.10239 73.9112 2.0324 73.8394 1.91977Z" fill="#BA804A"/>
<path d="M70.5431 16.0363C70.6694 15.9885 70.0553 14.1667 69.1773 11.9675C68.2963 9.76844 67.4814 8.02266 67.358 8.07334C67.2318 8.12121 67.8458 9.94302 68.7239 12.1449C69.6048 14.3412 70.4197 16.087 70.5431 16.0363Z" fill="#BA804A"/>
<path d="M84.192 20.9951C84.2437 20.9387 83.819 20.5558 83.314 19.8181C83.0586 19.452 82.7917 18.9902 82.5277 18.4609C82.2666 17.9315 82.0141 17.3261 81.7645 16.6841C81.5177 16.0393 81.2853 15.417 81.0529 14.8595C80.8204 14.2992 80.5851 13.8008 80.3585 13.3981C79.9051 12.5872 79.5034 12.1648 79.4546 12.2014C79.3943 12.2436 79.687 12.7223 80.0486 13.5474C80.2322 13.9585 80.4273 14.4568 80.6339 15.0172C80.8405 15.5775 81.0586 16.2026 81.3082 16.8531C81.5607 17.5063 81.8305 18.1202 82.126 18.6608C82.4187 19.1986 82.7315 19.6632 83.0356 20.0208C83.6411 20.7416 84.1576 21.0401 84.192 20.9951Z" fill="#BA804A"/>
<path d="M59.3401 20.8489C59.4405 20.7532 57.8882 19.0722 56.0575 16.9406C54.221 14.8119 52.7921 13.0324 52.6773 13.114C52.5711 13.1872 53.8337 15.1048 55.6845 17.2504C57.5324 19.3988 59.2512 20.939 59.3401 20.8489Z" fill="#BA804A"/>
<path d="M57.3946 0.211155C57.2626 0.185813 56.7203 2.37648 56.1865 5.10214C55.6528 7.8278 55.3257 10.0579 55.4577 10.0832C55.5897 10.1086 56.1292 7.9179 56.6657 5.19224C57.1995 2.46658 57.5266 0.236497 57.3946 0.211155Z" fill="#BA804A"/>
<path d="M62.7775 15.4825C62.8464 15.3727 61.6154 14.528 59.9483 13.748C58.284 12.9652 56.8407 12.5541 56.7948 12.6752C56.746 12.8019 58.0946 13.4073 59.7359 14.1788C61.3801 14.9475 62.7058 15.598 62.7775 15.4825Z" fill="#BA804A"/>
<path d="M51.8368 5.96793C51.7134 6.00172 51.9286 7.09705 52.5885 8.29938C53.2428 9.50453 54.0548 10.2873 54.1524 10.2028C54.2614 10.1155 53.6474 9.22858 53.019 8.07412C52.3848 6.91966 51.9716 5.92851 51.8368 5.96793Z" fill="#BA804A"/>
<path d="M62.6374 4.9464C62.5628 4.83941 61.5527 5.411 60.4911 6.34865C59.4265 7.28348 58.7436 8.20988 58.844 8.29435C58.9473 8.38446 59.7766 7.61856 60.8182 6.70344C61.854 5.7855 62.7177 5.05622 62.6374 4.9464Z" fill="#BA804A"/>
<path d="M61.2908 3.20857C61.2449 3.1607 61.1416 3.17195 61.0154 3.24516C60.8891 3.31837 60.7457 3.45635 60.6366 3.64219C60.5276 3.82803 60.4788 4.02232 60.4788 4.16592C60.4788 4.30953 60.5218 4.40245 60.585 4.41653C60.7198 4.44187 60.8805 4.18 61.0584 3.88153C61.2306 3.57742 61.3798 3.30994 61.2908 3.20857Z" fill="#BA804A"/>
<path d="M73.9651 6.13825C73.9364 6.00872 73.1157 6.06504 72.1172 6.18893C71.1186 6.31564 70.3094 6.46206 70.3152 6.5944C70.3209 6.72393 71.1588 6.7915 72.1774 6.66198C73.1989 6.53808 73.9938 6.26777 73.9651 6.13825Z" fill="#BA804A"/>
<path d="M73.7936 4.73531C73.7334 4.61705 73.4378 4.6452 73.1394 4.79725C72.8381 4.9493 72.6459 5.16613 72.7061 5.28439C72.7664 5.40265 73.0619 5.37448 73.3604 5.22243C73.6617 5.07038 73.8539 4.85357 73.7936 4.73531Z" fill="#BA804A"/>
<path d="M65.7649 11.4986C65.894 11.5324 66.1666 10.9411 66.3732 10.178C66.5798 9.41497 66.643 8.76735 66.511 8.73356C66.3818 8.69977 66.1092 9.29108 65.9026 10.0542C65.696 10.8172 65.6329 11.4648 65.7649 11.4986Z" fill="#BA804A"/>
<path d="M72.2359 10.5884C72.3133 10.4786 71.8944 10.0647 71.332 9.6198C70.7696 9.17772 70.2646 8.86518 70.1728 8.96092C70.0809 9.05666 70.4482 9.53533 71.025 9.99148C71.6046 10.4476 72.1584 10.6954 72.2359 10.5884Z" fill="#BA804A"/>
<path d="M77.4168 16.778C77.5488 16.8033 77.8444 15.8769 78.0739 14.7112C78.3035 13.5427 78.3838 12.5769 78.2519 12.5515C78.1199 12.5262 77.8243 13.4526 77.5947 14.6211C77.3623 15.7868 77.2849 16.7526 77.4168 16.778Z" fill="#BA804A"/>
<path d="M75.0379 13.6069C75.1154 13.7139 75.6434 13.4745 76.2172 13.0691C76.7883 12.6636 77.19 12.2497 77.1125 12.1427C77.035 12.0357 76.5071 12.275 75.9332 12.6805C75.3622 13.086 74.9604 13.4999 75.0379 13.6069Z" fill="#BA804A"/>
<path d="M84.6509 14.3548C84.7083 14.2338 84.1975 13.8846 83.5088 13.5692C82.823 13.2567 82.2176 13.099 82.1631 13.2173C82.1057 13.3355 82.6164 13.6875 83.3051 14.0029C83.9909 14.3154 84.5964 14.4731 84.6509 14.3548Z" fill="#BA804A"/>
<path d="M85.2353 11.265C85.241 11.1327 84.8192 11.0087 84.2913 10.989C83.7662 10.9693 83.3329 11.0594 83.3271 11.189C83.3214 11.3213 83.7432 11.4452 84.2712 11.4649C84.7991 11.4874 85.2296 11.3973 85.2353 11.265Z" fill="#BA804A"/>
<path d="M79.7525 4.73878C79.632 4.68246 79.0696 5.60323 78.4986 6.79148C77.9275 7.98255 77.5631 8.99342 77.6836 9.04973C77.8042 9.10605 78.3666 8.18528 78.9376 6.99421C79.5086 5.80596 79.8759 4.7951 79.7525 4.73878Z" fill="#BA804A"/>
<path d="M61.2192 11.3654C61.1933 11.2358 60.4788 11.2584 59.6209 11.416C58.7629 11.5737 58.0857 11.8074 58.1116 11.937C58.1374 12.0665 58.8519 12.0439 59.7098 11.8863C60.5678 11.7286 61.2421 11.4949 61.2192 11.3654Z" fill="#BA804A"/>
<path d="M49.3159 15.9547C49.4335 16.0223 49.8553 15.5211 50.2599 14.8368C50.6645 14.1526 50.8998 13.5444 50.7822 13.4768C50.6645 13.4092 50.2427 13.9104 49.8381 14.5947C49.4336 15.2789 49.1983 15.8899 49.3159 15.9547Z" fill="#BA804A"/>
<path d="M51.0957 9.82242C51.0239 9.93505 51.2392 10.1913 51.5749 10.394C51.9106 10.5967 52.2377 10.67 52.3094 10.5573C52.3812 10.4447 52.166 10.1885 51.8303 9.98572C51.4945 9.78298 51.1674 9.70979 51.0957 9.82242Z" fill="#BA804A"/>
<path d="M44.9986 9.67218C45.0129 9.68345 44.9182 9.81862 44.726 10.0692C44.5137 10.3029 44.2009 10.6577 43.6959 11.0013C43.1995 11.3476 42.5337 11.708 41.6987 11.953C41.2855 12.0853 40.8264 12.1754 40.3415 12.2515C39.8537 12.3162 39.3315 12.3472 38.7834 12.3359C37.6844 12.3078 36.5022 12.0825 35.2798 11.708C34.0574 11.3335 32.8064 10.8013 31.5094 10.2185C30.2124 9.64121 28.8695 9.01048 27.4204 8.51771C25.98 8.02213 24.419 7.66452 22.815 7.71239C21.211 7.76589 19.6759 8.21359 18.2469 8.75423C16.815 9.29768 15.4607 9.9256 14.1436 10.4634C12.8294 11.0069 11.5554 11.4856 10.3387 11.8516C9.12208 12.2205 7.95422 12.4739 6.87819 12.6119C5.79928 12.7527 4.81219 12.7724 3.95136 12.7273C3.09053 12.6767 2.35309 12.5499 1.76486 12.4092C1.17375 12.2712 0.731861 12.1079 0.43631 11.9924C0.143628 11.8657 -0.00557977 11.7925 0.000159092 11.7784C0.0173757 11.7333 0.631437 12.0009 1.80503 12.2261C2.3904 12.3388 3.11636 12.4345 3.96284 12.4598C4.80933 12.4795 5.77632 12.4373 6.8294 12.2768C7.88248 12.1191 9.02165 11.8516 10.2182 11.4715C11.4148 11.0942 12.6658 10.607 13.9686 10.0579C15.2741 9.51168 16.6199 8.87813 18.0747 8.31778C19.5238 7.76307 21.1106 7.29002 22.8007 7.23652C24.4908 7.18865 26.1091 7.56597 27.5783 8.07844C29.056 8.5881 30.4104 9.23293 31.6959 9.82143C32.9843 10.4127 34.2124 10.9478 35.4032 11.3335C36.5912 11.7165 37.7389 11.953 38.7949 12.0009C39.3228 12.0206 39.8279 12.0037 40.3013 11.953C40.7719 11.8911 41.2195 11.8178 41.6213 11.7024C42.4333 11.4884 43.0904 11.1646 43.5868 10.852C44.5883 10.2044 44.9555 9.63276 44.9986 9.67218Z" fill="#BA804A"/>
<path d="M33.0077 15.3011C34.2776 14.0549 35.9867 13.5536 37.1255 13.2883C37.4486 15.008 36.9471 16.8721 35.7864 18.2019C34.6158 19.5399 32.7978 20.3129 31.0004 20.2495C30.9508 18.429 31.6919 16.5923 33.0077 15.3011Z" stroke="#BA804A" stroke-width="0.5"/>
<path d="M31.1479 5.85825L31.1479 5.85818C30.7556 4.06104 31.1511 2.14498 31.9668 0.450232L31.9668 0.450234L31.9674 0.448885C32.0279 0.321229 32.0657 0.275376 32.0984 0.259336C32.1198 0.248845 32.1562 0.242159 32.2269 0.267802C32.2996 0.294156 32.3809 0.345543 32.4631 0.409533L32.4634 0.409818C34.0046 1.60555 35.073 3.36997 35.4093 5.26528C35.5775 6.21334 35.548 6.98269 35.3525 7.71532C35.1694 8.40163 34.8374 9.06819 34.3635 9.83093C32.7169 9.18618 31.5262 7.59411 31.1479 5.85825Z" stroke="#BA804A" stroke-width="0.5"/>
<path d="M19.1222 15.7504L19.122 15.7495C18.7063 14.226 18.9239 12.543 19.7116 11.167C20.4758 9.83711 21.1552 8.88841 22.4722 8.41843C22.6858 11.1489 21.6166 13.9595 19.6153 15.8734C19.5435 15.9412 19.4769 15.9958 19.4146 16.0286C19.3544 16.0605 19.3207 16.0604 19.3001 16.055L19.3001 16.055L19.2962 16.054C19.2755 16.049 19.2473 16.0336 19.2127 15.9791C19.1765 15.9221 19.1471 15.843 19.1222 15.7504Z" stroke="#BA804A" stroke-width="0.5"/>
<path d="M11.6998 9.99765C11.6551 10.0169 11.6022 10.0368 11.54 10.0567C11.3413 10.1202 11.0849 10.1725 10.7887 10.2145C10.1974 10.2983 9.47866 10.3367 8.81213 10.3521C6.36955 10.4062 4.06058 9.15795 2.92538 7.0565C4.67091 6.70223 6.48892 6.64365 8.10201 7.26762C8.94574 7.594 9.89039 8.31902 10.6379 8.98144C11.0083 9.30966 11.3242 9.61693 11.5474 9.8421C11.6045 9.89971 11.6555 9.95191 11.6998 9.99765Z" stroke="#BA804A" stroke-width="0.5"/>
<mask id="path-36-inside-2_104_4361" fill="white">
<path d="M10.5942 12.2328C9.95435 12.0188 9.20544 12.8213 8.76067 13.3225C7.83672 14.3643 6.9185 15.44 6.336 16.6958C5.75064 17.9517 5.52969 19.43 6.03184 20.7196C9.07057 19.123 10.9214 15.5864 10.468 12.2328"/>
</mask>
<path d="M8.76067 13.3225L8.38669 12.9906L8.38659 12.9907L8.76067 13.3225ZM6.336 16.6958L6.78919 16.9071L6.78958 16.9062L6.336 16.6958ZM6.03184 20.7196L5.56592 20.901L5.76897 21.4225L6.2644 21.1622L6.03184 20.7196ZM10.7528 11.7586C10.187 11.5694 9.65722 11.8508 9.30876 12.1061C8.93802 12.3778 8.60813 12.7411 8.38669 12.9906L9.13466 13.6544C9.35798 13.4027 9.62493 13.1142 9.8998 12.9127C10.197 12.695 10.3616 12.6822 10.4357 12.707L10.7528 11.7586ZM8.38659 12.9907C7.46552 14.0293 6.49962 15.1548 5.88242 16.4854L6.78958 16.9062C7.33737 15.7252 8.20791 14.6994 9.13476 13.6542L8.38659 12.9907ZM5.88281 16.4846C5.26041 17.8199 4.99898 19.445 5.56592 20.901L6.49777 20.5382C6.0604 19.4149 6.24086 18.0835 6.78919 16.9071L5.88281 16.4846ZM6.2644 21.1622C9.4852 19.47 11.4456 15.7321 10.9635 12.1658L9.9725 12.2998C10.3971 15.4408 8.65593 18.7761 5.79928 20.277L6.2644 21.1622Z" fill="#BA804A" mask="url(#path-36-inside-2_104_4361)"/>
<path d="M22.2582 4.39321C22.7487 4.94946 23.1293 5.58618 23.1803 6.24907C22.5712 6.34913 21.8188 6.26767 21.0794 6.05334C20.2604 5.81595 19.4927 5.42582 18.9922 4.98602C18.0575 4.16468 17.3877 3.0971 16.7421 1.98917C18.818 1.9559 20.8981 2.85705 22.2582 4.39321Z" stroke="#BA804A" stroke-width="0.5"/>
<path d="M2.56097 6.88064C2.57818 6.81869 3.13198 6.90598 3.99568 7.13969C4.86225 7.37059 6.03872 7.73665 7.3271 8.18436C9.90098 9.07416 11.9268 9.9724 11.8723 10.1019C11.8235 10.2174 9.73455 9.52468 7.16641 8.63488C5.88377 8.18998 4.72739 7.77325 3.89239 7.4607C3.05738 7.14532 2.54375 6.9454 2.56097 6.88064Z" fill="#BA804A"/>
<path d="M16.1606 1.91977C16.2323 1.80714 17.9109 2.69693 19.9138 3.90491C21.9166 5.1129 23.4834 6.1829 23.4116 6.29553C23.3399 6.40816 21.6613 5.51837 19.6584 4.31039C17.6555 3.10241 16.0888 2.03241 16.1606 1.91977Z" fill="#BA804A"/>
<path d="M19.4569 16.0365C19.3306 15.9886 19.9447 14.1668 20.8227 11.9676C21.7037 9.76846 22.5186 8.02266 22.642 8.07334C22.7682 8.12121 22.1542 9.94304 21.2761 12.145C20.3952 14.3413 19.5803 16.0871 19.4569 16.0365Z" fill="#BA804A"/>
<path d="M5.80798 20.9952C5.75633 20.9389 6.181 20.5559 6.68602 19.8182C6.9414 19.4521 7.20826 18.9903 7.47225 18.461C7.73337 17.9316 7.98587 17.3262 8.23551 16.6842C8.48228 16.0394 8.71471 15.4171 8.94713 14.8595C9.17956 14.2992 9.41486 13.8008 9.64154 13.3981C10.0949 12.5872 10.4966 12.1648 10.5454 12.2014C10.6057 12.2437 10.313 12.7223 9.95144 13.5474C9.76779 13.9585 9.57267 14.4569 9.36607 15.0172C9.15947 15.5776 8.9414 16.2027 8.69176 16.8531C8.43925 17.5064 8.16952 18.1202 7.87397 18.6609C7.58129 19.1987 7.26852 19.6633 6.96436 20.0209C6.35891 20.7418 5.84241 21.0402 5.80798 20.9952Z" fill="#BA804A"/>
<path d="M30.6599 20.849C30.5595 20.7533 32.1118 19.0723 33.9425 16.9407C35.779 14.812 37.2079 13.0324 37.3227 13.114C37.4289 13.1872 36.1663 15.1048 34.3155 17.2505C32.4676 19.3989 30.7488 20.9392 30.6599 20.849Z" fill="#BA804A"/>
<path d="M32.6054 0.211155C32.7374 0.185813 33.2797 2.37651 33.8135 5.10221C34.3472 7.82791 34.6743 10.058 34.5423 10.0834C34.4103 10.1087 33.8708 7.91802 33.3343 5.19232C32.8005 2.46662 32.4734 0.236497 32.6054 0.211155Z" fill="#BA804A"/>
<path d="M27.2225 15.4828C27.1536 15.373 28.3846 14.5282 30.0517 13.7483C31.716 12.9655 33.1593 12.5544 33.2052 12.6754C33.254 12.8022 31.9054 13.4075 30.2641 14.1791C28.6199 14.9478 27.2942 15.5982 27.2225 15.4828Z" fill="#BA804A"/>
<path d="M38.1632 5.96818C38.2866 6.00197 38.0714 7.09731 37.4115 8.29966C36.7572 9.50482 35.9452 10.2876 35.8476 10.2031C35.7386 10.1159 36.3526 9.22888 36.981 8.0744C37.6152 6.91992 38.0284 5.92876 38.1632 5.96818Z" fill="#BA804A"/>
<path d="M27.3626 4.9464C27.4372 4.8394 28.4473 5.41101 29.5089 6.34867C30.5735 7.28352 31.2564 8.20993 31.156 8.29441C31.0527 8.38451 30.2234 7.6186 29.1818 6.70347C28.146 5.78551 27.2823 5.05622 27.3626 4.9464Z" fill="#BA804A"/>
<path d="M28.7092 3.20857C28.7551 3.1607 28.8584 3.17195 28.9846 3.24516C29.1109 3.31837 29.2543 3.45636 29.3634 3.6422C29.4724 3.82804 29.5212 4.02233 29.5212 4.16594C29.5212 4.30954 29.4782 4.40247 29.415 4.41655C29.2802 4.44189 29.1195 4.18001 28.9416 3.88154C28.7694 3.57743 28.6202 3.30994 28.7092 3.20857Z" fill="#BA804A"/>
<path d="M16.0349 6.1363C16.0636 6.00677 16.8843 6.06308 17.8828 6.18698C18.8814 6.31369 19.6906 6.46011 19.6848 6.59246C19.6791 6.72198 18.8412 6.78956 17.8226 6.66003C16.8011 6.53614 16.0062 6.26582 16.0349 6.1363Z" fill="#BA804A"/>
<path d="M16.2064 4.73336C16.2666 4.61509 16.5622 4.64324 16.8606 4.7953C17.1619 4.94735 17.3541 5.16418 17.2939 5.28244C17.2336 5.40071 16.9381 5.37254 16.6396 5.22049C16.3383 5.06843 16.1461 4.85162 16.2064 4.73336Z" fill="#BA804A"/>
<path d="M24.2351 11.497C24.106 11.5307 23.8334 10.9394 23.6268 10.1764C23.4202 9.41327 23.357 8.76564 23.489 8.73185C23.6182 8.69806 23.8908 9.28938 24.0974 10.0525C24.304 10.8155 24.3671 11.4632 24.2351 11.497Z" fill="#BA804A"/>
<path d="M17.7641 10.5882C17.6867 10.4784 18.1056 10.0645 18.668 9.61956C19.2304 9.17748 19.7354 8.86494 19.8272 8.96068C19.9191 9.05641 19.5518 9.53509 18.975 9.99125C18.3954 10.4474 17.8416 10.6952 17.7641 10.5882Z" fill="#BA804A"/>
<path d="M12.5832 16.7778C12.4512 16.8031 12.1556 15.8768 11.9261 14.711C11.6965 13.5424 11.6162 12.5766 11.7481 12.5513C11.8801 12.5259 12.1757 13.4523 12.4053 14.6209C12.6377 15.7866 12.7151 16.7525 12.5832 16.7778Z" fill="#BA804A"/>
<path d="M14.9621 13.6072C14.8846 13.7142 14.3566 13.4748 13.7828 13.0693C13.2117 12.6639 12.81 12.2499 12.8875 12.1429C12.965 12.0359 13.4929 12.2753 14.0668 12.6807C14.6378 13.0862 15.0396 13.5002 14.9621 13.6072Z" fill="#BA804A"/>
<path d="M5.34913 14.3544C5.29174 14.2333 5.8025 13.8841 6.49116 13.5688C7.17696 13.2562 7.78241 13.0985 7.83693 13.2168C7.89432 13.3351 7.38355 13.687 6.69489 14.0024C6.0091 14.3149 5.40364 14.4726 5.34913 14.3544Z" fill="#BA804A"/>
<path d="M4.76471 11.2648C4.75897 11.1324 5.18077 11.0085 5.70874 10.9888C6.23385 10.9691 6.66714 11.0592 6.67288 11.1887C6.67862 11.3211 6.25681 11.445 5.72883 11.4647C5.20086 11.4872 4.77045 11.3971 4.76471 11.2648Z" fill="#BA804A"/>
<path d="M10.2475 4.74073C10.368 4.68442 10.9304 5.6052 11.5014 6.79347C12.0725 7.98455 12.4369 8.99544 12.3164 9.05175C12.1958 9.10807 11.6334 8.18728 11.0624 6.9962C10.4914 5.80793 10.1241 4.79705 10.2475 4.74073Z" fill="#BA804A"/>
<path d="M28.7808 11.3654C28.8067 11.2358 29.5212 11.2584 30.3791 11.416C31.2371 11.5737 31.9143 11.8074 31.8884 11.937C31.8626 12.0665 31.1481 12.044 30.2902 11.8863C29.4322 11.7286 28.7579 11.4949 28.7808 11.3654Z" fill="#BA804A"/>
<path d="M40.6841 15.9567C40.5665 16.0242 40.1447 15.523 39.7401 14.8388C39.3355 14.1546 39.1002 13.5463 39.2178 13.4788C39.3355 13.4112 39.7573 13.9124 40.1619 14.5966C40.5664 15.2809 40.8017 15.8919 40.6841 15.9567Z" fill="#BA804A"/>
<path d="M38.9043 9.82242C38.9761 9.93505 38.7608 10.1913 38.4251 10.394C38.0894 10.5968 37.7623 10.67 37.6906 10.5573C37.6188 10.4447 37.834 10.1885 38.1697 9.98572C38.5055 9.78298 38.8326 9.70978 38.9043 9.82242Z" fill="#BA804A"/>
</svg>
