<svg width="310" height="277" viewBox="0 0 310 277" fill="none" xmlns="http://www.w3.org/2000/svg">
<path d="M282.541 148.675C282.541 120.631 273.483 94.7046 258.137 73.667C247.41 58.962 233.611 46.6457 217.684 37.6645M28.1514 148.675C28.1514 126.26 33.9376 105.198 44.0964 86.9038C55.5318 66.3107 72.5078 49.2248 93.008 37.6645M88.6003 257.082C108.002 269.078 130.867 276 155.346 276C179.825 276 202.689 269.078 222.092 257.082" stroke="#BA804A"/>
<path d="M272.66 149.352C272.66 123.632 264.306 99.8553 250.152 80.5618C240.258 67.0759 227.53 55.7806 212.841 47.544M38.0293 149.352C38.0293 128.795 43.3661 109.479 52.7359 92.7012C63.2831 73.8153 78.9405 58.1459 97.8485 47.544M93.7831 248.771C111.678 259.773 132.767 266.121 155.345 266.121C177.923 266.121 199.011 259.773 216.906 248.771" stroke="#BA804A" stroke-width="0.5" stroke-dasharray="4 4"/>
<path d="M206.943 22.1831C206.976 22.2089 206.759 22.5189 206.318 23.0936C205.831 23.6296 205.114 24.4433 203.956 25.2311C202.817 26.0254 201.29 26.852 199.375 27.4138C198.428 27.7173 197.375 27.9239 196.263 28.0983C195.144 28.2468 193.946 28.3178 192.69 28.292C190.169 28.2274 187.458 27.7108 184.655 26.8519C181.851 25.9931 178.982 24.7726 176.008 23.4359C173.033 22.1121 169.954 20.6656 166.63 19.5355C163.327 18.3989 159.747 17.5788 156.069 17.6886C152.39 17.8113 148.869 18.838 145.592 20.0779C142.309 21.3242 139.203 22.7643 136.182 23.9977C133.168 25.244 130.246 26.3418 127.456 27.1813C124.666 28.0272 121.988 28.6084 119.52 28.9248C117.046 29.2477 114.782 29.2929 112.808 29.1896C110.834 29.0734 109.143 28.7828 107.794 28.4599C106.438 28.1435 105.425 27.7689 104.747 27.5041C104.075 27.2136 103.733 27.0457 103.746 27.0134C103.786 26.91 105.194 27.5235 107.886 28.0401C109.228 28.2984 110.893 28.518 112.834 28.5761C114.776 28.6213 116.993 28.5245 119.408 28.1564C121.823 27.7947 124.436 27.1813 127.18 26.3095C129.924 25.4442 132.793 24.327 135.781 23.0678C138.775 21.815 141.861 20.362 145.198 19.077C148.521 17.8048 152.16 16.72 156.036 16.5973C159.912 16.4875 163.623 17.3528 166.992 18.5281C170.381 19.6969 173.487 21.1757 176.436 22.5254C179.39 23.8815 182.207 25.1084 184.938 25.9931C187.662 26.8713 190.294 27.4138 192.716 27.5235C193.927 27.5687 195.085 27.53 196.171 27.4138C197.25 27.2717 198.277 27.1038 199.198 26.839C201.06 26.3483 202.567 25.6056 203.705 24.8888C206.002 23.4036 206.844 22.0927 206.943 22.1831Z" fill="#BA804A"/>
<path d="M179.322 34.9655C182.336 32.0078 186.409 30.8628 189.023 30.2639C189.843 34.3089 188.684 38.7205 185.947 41.8558C183.192 45.0045 178.898 46.8041 174.672 46.6041C174.508 42.3277 176.232 37.9984 179.322 34.9655Z" stroke="#BA804A" stroke-width="0.8"/>
<path d="M175.008 13.4719L175.008 13.4718C174.098 9.30195 175.017 4.86768 176.899 0.957362L176.899 0.957365L176.9 0.955207C177.037 0.667008 177.145 0.505794 177.281 0.439133C177.387 0.387206 177.523 0.382853 177.711 0.451214C177.903 0.520713 178.106 0.651253 178.3 0.802444L178.301 0.8029C181.869 3.57118 184.342 7.65544 185.121 12.0448C185.511 14.2401 185.444 16.0304 184.988 17.7385C184.552 19.3725 183.755 20.9521 182.623 22.7587C178.714 21.2903 175.896 17.5462 175.008 13.4719ZM174.619 13.5567L174.619 13.5567L174.619 13.5567Z" stroke="#BA804A" stroke-width="0.8"/>
<path d="M147.433 36.1652L147.432 36.1638C146.467 32.625 146.972 28.7179 148.802 25.5225C150.598 22.3961 152.214 20.1415 155.437 19.069C156.008 25.4531 153.532 32.0508 148.85 36.5281C148.683 36.6863 148.516 36.8248 148.352 36.9115C148.191 36.9967 148.068 37.0137 147.964 36.9865L147.964 36.9864L147.958 36.9849C147.853 36.9592 147.756 36.8863 147.661 36.7376C147.564 36.5849 147.492 36.3837 147.433 36.1652Z" stroke="#BA804A" stroke-width="0.8"/>
<path d="M130.868 22.982C130.719 23.0647 130.52 23.1493 130.264 23.231C129.795 23.3808 129.197 23.5025 128.513 23.5994C127.147 23.7931 125.49 23.8814 123.959 23.9168C118.269 24.0429 112.884 21.1191 110.262 16.1914C110.239 16.1461 110.218 16.1032 110.197 16.0618C114.284 15.2055 118.577 15.0335 122.389 16.508C124.355 17.2684 126.541 18.9492 128.257 20.4703C129.11 21.2261 129.838 21.9335 130.351 22.4518C130.561 22.6634 130.735 22.8434 130.868 22.982Z" stroke="#BA804A" stroke-width="0.8"/>
<mask id="path-8-inside-1_289_440" fill="white">
<path d="M128.043 28.0541C126.576 27.5633 124.858 29.4037 123.838 30.5532C121.719 32.9425 119.613 35.4093 118.278 38.2894C116.935 41.1695 116.428 44.5597 117.58 47.5173C124.549 43.8558 128.793 35.7451 127.754 28.0541"/>
</mask>
<path d="M123.838 30.5532L123.24 30.0222L123.24 30.0224L123.838 30.5532ZM118.278 38.2894L119.003 38.6274L119.003 38.626L118.278 38.2894ZM117.58 47.5173L116.835 47.8076L117.159 48.642L117.952 48.2255L117.58 47.5173ZM128.297 27.2954C127.17 26.9184 126.081 27.4707 125.3 28.0432C124.483 28.6419 123.748 29.4492 123.24 30.0222L124.437 31.0842C124.948 30.5077 125.582 29.8201 126.246 29.3339C126.945 28.8215 127.449 28.699 127.789 28.8128L128.297 27.2954ZM123.24 30.0224C121.125 32.4065 118.943 34.9529 117.552 37.9528L119.003 38.626C120.284 35.8656 122.313 33.4785 124.437 31.084L123.24 30.0224ZM117.553 37.9514C116.151 40.9586 115.579 44.5838 116.835 47.8076L118.326 47.227C117.278 44.5356 117.72 41.3803 119.003 38.6274L117.553 37.9514ZM117.952 48.2255C125.212 44.411 129.632 35.9781 128.546 27.9469L126.961 28.1613C127.955 35.5121 123.885 43.3007 117.208 46.8091L117.952 48.2255Z" fill="#BA804A" mask="url(#path-8-inside-1_289_440)"/>
<path d="M154.922 9.96015C156.093 11.289 157.018 12.8415 157.089 14.4749C155.63 14.7509 153.812 14.5622 152.04 14.0487C150.144 13.4993 148.359 12.5944 147.187 11.5647C144.95 9.59849 143.371 7.0264 141.844 4.39581C146.752 4.22678 151.704 6.3262 154.922 9.96015Z" stroke="#BA804A" stroke-width="0.8"/>
<path d="M109.619 15.7806C109.659 15.6385 110.929 15.8387 112.909 16.3747C114.897 16.9042 117.595 17.7437 120.549 18.7705C126.452 20.8111 131.098 22.8711 130.973 23.1681C130.861 23.4329 126.071 21.8443 120.181 19.8037C117.239 18.7834 114.587 17.8277 112.673 17.1109C110.758 16.3876 109.58 15.9291 109.619 15.7806Z" fill="#BA804A"/>
<path d="M140.806 4.40218C140.971 4.14388 144.82 6.18447 149.414 8.95478C154.007 11.7251 157.6 14.179 157.435 14.4373C157.271 14.6956 153.421 12.655 148.828 9.88468C144.235 7.11437 140.642 4.66048 140.806 4.40218Z" fill="#BA804A"/>
<path d="M148.368 36.7792C148.078 36.6695 149.487 32.4914 151.5 27.448C153.52 22.4046 155.389 18.4009 155.672 18.5171C155.962 18.6269 154.554 22.805 152.54 27.8548C150.52 32.8918 148.651 36.8955 148.368 36.7792Z" fill="#BA804A"/>
<path d="M117.066 48.1516C116.948 48.0225 117.922 47.1443 119.08 45.4524C119.666 44.6129 120.278 43.5538 120.883 42.3398C121.482 41.1258 122.061 39.7374 122.634 38.2651C123.2 36.7863 123.733 35.3591 124.266 34.0805C124.799 32.7954 125.338 31.6524 125.858 30.729C126.898 28.8692 127.819 27.9006 127.931 27.9845C128.069 28.0814 127.398 29.1792 126.569 31.0713C126.148 32.0141 125.7 33.1571 125.226 34.4421C124.753 35.7272 124.252 37.1608 123.68 38.6525C123.101 40.1507 122.482 41.5584 121.804 42.7983C121.133 44.0317 120.416 45.0972 119.718 45.9173C118.33 47.5704 117.145 48.255 117.066 48.1516Z" fill="#BA804A"/>
<path d="M174.06 47.8126C173.83 47.593 177.39 43.7378 181.589 38.8494C185.8 33.9675 189.077 29.8863 189.34 30.0736C189.584 30.2415 186.689 34.6391 182.444 39.5598C178.206 44.487 174.264 48.0192 174.06 47.8126Z" fill="#BA804A"/>
<path d="M178.522 0.486827C178.825 0.428709 180.069 5.45272 181.293 11.7037C182.517 17.9546 183.267 23.0691 182.964 23.1272C182.661 23.1853 181.424 18.1613 180.194 11.9103C178.97 5.65937 178.219 0.544946 178.522 0.486827Z" fill="#BA804A"/>
<path d="M166.177 35.5076C166.019 35.2558 168.842 33.3185 172.666 31.5298C176.482 29.7346 179.792 28.7917 179.898 29.0694C180.01 29.36 176.917 30.7484 173.153 32.5178C169.382 34.2807 166.342 35.7724 166.177 35.5076Z" fill="#BA804A"/>
<path d="M191.268 13.6862C191.551 13.7637 191.058 16.2757 189.544 19.0331C188.044 21.7969 186.181 23.5922 185.958 23.3984C185.708 23.1982 187.116 21.1641 188.557 18.5165C190.011 15.8689 190.959 13.5958 191.268 13.6862Z" fill="#BA804A"/>
<path d="M166.497 11.3421C166.668 11.0967 168.985 12.4076 171.42 14.558C173.861 16.7019 175.427 18.8265 175.197 19.0202C174.96 19.2269 173.058 17.4704 170.669 15.3717C168.294 13.2665 166.313 11.594 166.497 11.3421Z" fill="#BA804A"/>
<path d="M169.585 7.35726C169.691 7.24748 169.927 7.27327 170.217 7.44117C170.507 7.60907 170.836 7.92551 171.086 8.35171C171.336 8.77792 171.448 9.22348 171.448 9.55282C171.448 9.88216 171.349 10.0953 171.204 10.1276C170.895 10.1857 170.526 9.5851 170.118 8.9006C169.723 8.20317 169.381 7.58973 169.585 7.35726Z" fill="#BA804A"/>
<path d="M140.52 14.0755C140.586 13.7784 142.468 13.9076 144.758 14.1917C147.048 14.4823 148.904 14.8181 148.891 15.1216C148.878 15.4187 146.956 15.5736 144.62 15.2766C142.277 14.9925 140.454 14.3725 140.52 14.0755Z" fill="#BA804A"/>
<path d="M140.915 10.8573C141.053 10.5861 141.731 10.6507 142.415 10.9994C143.106 11.3481 143.547 11.8453 143.409 12.1166C143.271 12.3878 142.593 12.3232 141.909 11.9745C141.218 11.6258 140.777 11.1285 140.915 10.8573Z" fill="#BA804A"/>
<path d="M159.326 26.3699C159.029 26.4474 158.404 25.0913 157.93 23.3413C157.457 21.5913 157.312 20.106 157.615 20.0286C157.911 19.9511 158.536 21.3072 159.01 23.0572C159.483 24.8072 159.628 26.2924 159.326 26.3699Z" fill="#BA804A"/>
<path d="M144.485 24.2837C144.307 24.0318 145.268 23.0825 146.558 22.0622C147.848 21.0484 149.006 20.3316 149.217 20.5512C149.427 20.7707 148.585 21.8685 147.262 22.9147C145.933 23.9608 144.663 24.529 144.485 24.2837Z" fill="#BA804A"/>
<path d="M132.603 38.4772C132.3 38.5353 131.622 36.4108 131.096 33.7373C130.569 31.0574 130.385 28.8425 130.688 28.7844C130.991 28.7262 131.668 30.8508 132.195 33.5307C132.728 36.2041 132.905 38.4191 132.603 38.4772Z" fill="#BA804A"/>
<path d="M138.058 31.2053C137.88 31.4507 136.67 30.9017 135.353 29.9718C134.044 29.0419 133.123 28.0927 133.3 27.8473C133.478 27.6019 134.689 28.1508 136.005 29.0807C137.314 30.0106 138.236 30.9599 138.058 31.2053Z" fill="#BA804A"/>
<path d="M116.015 32.9204C115.883 32.6427 117.055 31.842 118.634 31.1188C120.207 30.402 121.595 30.0403 121.72 30.3116C121.852 30.5828 120.681 31.39 119.101 32.1132C117.529 32.83 116.14 33.1916 116.015 32.9204Z" fill="#BA804A"/>
<path d="M114.672 25.8363C114.659 25.5328 115.626 25.2487 116.837 25.2035C118.041 25.1583 119.035 25.3649 119.048 25.662C119.061 25.9655 118.094 26.2496 116.883 26.2948C115.672 26.3465 114.685 26.1399 114.672 25.8363Z" fill="#BA804A"/>
<path d="M127.247 10.8699C127.524 10.7407 128.813 12.8524 130.123 15.5775C131.432 18.3091 132.268 20.6274 131.992 20.7565C131.715 20.8857 130.426 18.774 129.116 16.0424C127.806 13.3173 126.964 10.999 127.247 10.8699Z" fill="#BA804A"/>
<path d="M169.75 26.0669C169.81 25.7699 171.448 25.8215 173.416 26.1831C175.383 26.5448 176.936 27.0808 176.877 27.3778C176.818 27.6749 175.179 27.6232 173.212 27.2616C171.244 26.8999 169.698 26.364 169.75 26.0669Z" fill="#BA804A"/>
<path d="M197.048 36.591C196.779 36.746 195.811 35.5965 194.883 34.0273C193.956 32.4581 193.416 31.0633 193.686 30.9083C193.956 30.7533 194.923 31.9027 195.851 33.4719C196.779 35.0411 197.318 36.4424 197.048 36.591Z" fill="#BA804A"/>
<path d="M192.967 22.5283C193.131 22.7866 192.638 23.3742 191.868 23.8391C191.098 24.3041 190.348 24.472 190.183 24.2137C190.018 23.9554 190.512 23.3677 191.282 22.9028C192.052 22.4378 192.802 22.27 192.967 22.5283Z" fill="#BA804A"/>
<path d="M238.875 257.139C238.836 257.155 238.677 256.811 238.402 256.141C238.183 255.451 237.84 254.422 237.74 253.025C237.625 251.642 237.677 249.906 238.153 247.968C238.367 246.996 238.717 245.982 239.125 244.933C239.558 243.891 240.098 242.82 240.752 241.746C242.073 239.599 243.882 237.514 246.033 235.521C248.183 233.528 250.68 231.661 253.33 229.76C255.968 227.853 258.766 225.916 261.412 223.61C264.054 221.325 266.561 218.641 268.314 215.405C270.056 212.162 270.936 208.602 271.51 205.146C272.082 201.68 272.396 198.271 272.847 195.04C273.283 191.808 273.801 188.73 274.477 185.896C275.147 183.058 275.989 180.45 276.955 178.157C277.919 175.856 279.017 173.875 280.098 172.22C281.19 170.572 282.29 169.255 283.247 168.251C284.202 167.238 285.035 166.549 285.604 166.096C286.192 165.662 286.509 165.45 286.531 165.478C286.6 165.564 285.362 166.473 283.564 168.541C282.666 169.572 281.64 170.902 280.615 172.551C279.601 174.207 278.571 176.173 277.676 178.447C276.776 180.717 275.994 183.284 275.369 186.094C274.739 188.902 274.264 191.944 273.853 195.16C273.432 198.378 273.138 201.777 272.574 205.307C272.005 208.82 271.115 212.511 269.274 215.925C267.422 219.331 264.81 222.106 262.102 224.429C259.389 226.773 256.55 228.716 253.902 230.587C251.245 232.461 248.77 234.28 246.633 236.197C244.505 238.112 242.714 240.116 241.403 242.154C240.756 243.179 240.208 244.2 239.763 245.197C239.343 246.202 238.973 247.174 238.739 248.103C238.228 249.96 238.114 251.636 238.162 252.981C238.292 255.713 239.003 257.099 238.875 257.139Z" fill="#BA804A"/>
<path d="M241.697 226.837C242.741 230.928 241.686 235.025 240.891 237.586C236.981 236.264 233.749 233.045 232.412 229.104C231.073 225.141 231.673 220.524 233.969 216.97C237.749 218.976 240.627 222.641 241.697 226.837Z" stroke="#BA804A" stroke-width="0.8"/>
<path d="M262.448 233.901L262.449 233.901C266.511 235.209 269.884 238.231 272.32 241.822L272.32 241.822L272.321 241.824C272.502 242.087 272.587 242.262 272.576 242.413C272.568 242.53 272.504 242.65 272.35 242.779C272.194 242.909 271.979 243.02 271.75 243.112L271.75 243.112C267.564 244.807 262.79 244.894 258.603 243.363C256.509 242.597 254.995 241.64 253.747 240.388C252.553 239.19 251.587 237.707 250.593 235.822C253.826 233.179 258.479 232.623 262.448 233.901ZM262.571 233.522L262.571 233.522L262.571 233.522Z" stroke="#BA804A" stroke-width="0.8"/>
<path d="M256.677 198.656L256.678 198.656C260.223 199.599 263.348 201.998 265.192 205.185C266.993 208.309 268.131 210.839 267.44 214.164C261.633 211.451 257.171 205.997 255.651 199.699C255.598 199.475 255.562 199.261 255.57 199.076C255.577 198.894 255.624 198.779 255.7 198.703L255.7 198.703L255.704 198.698C255.779 198.621 255.891 198.573 256.067 198.566C256.248 198.559 256.458 198.597 256.677 198.656Z" stroke="#BA804A" stroke-width="0.8"/>
<path d="M276.396 190.955C276.399 190.785 276.426 190.57 276.484 190.308C276.59 189.828 276.785 189.249 277.045 188.609C277.564 187.33 278.319 185.854 279.057 184.512C281.807 179.528 287.04 176.34 292.618 176.548C292.668 176.551 292.716 176.554 292.762 176.556C291.45 180.521 289.442 184.32 286.253 186.876C284.608 188.193 282.056 189.239 279.879 189.96C278.797 190.318 277.82 190.591 277.114 190.775C276.825 190.85 276.582 190.91 276.396 190.955Z" stroke="#BA804A" stroke-width="0.8"/>
<mask id="path-38-inside-2_289_440" fill="white">
<path d="M273.431 185.965C274.593 184.943 273.864 182.533 273.382 181.074C272.38 178.041 271.305 174.981 269.486 172.38C267.669 169.772 264.992 167.631 261.856 167.142C261.522 175.007 266.404 182.751 273.577 185.715"/>
</mask>
<path d="M273.382 181.074L274.142 180.823L274.142 180.823L273.382 181.074ZM269.486 172.38L268.829 172.837L268.83 172.838L269.486 172.38ZM261.856 167.142L261.98 166.351L261.095 166.213L261.057 167.108L261.856 167.142ZM273.96 186.566C274.852 185.78 274.921 184.562 274.818 183.598C274.711 182.591 274.382 181.551 274.142 180.823L272.622 181.324C272.864 182.056 273.14 182.95 273.227 183.768C273.319 184.63 273.172 185.127 272.903 185.365L273.96 186.566ZM274.142 180.823C273.142 177.797 272.036 174.631 270.141 171.921L268.83 172.838C270.574 175.332 271.619 178.286 272.623 181.325L274.142 180.823ZM270.142 171.923C268.246 169.2 265.398 166.885 261.98 166.351L261.733 167.932C264.587 168.378 267.093 170.345 268.829 172.837L270.142 171.923ZM261.057 167.108C260.709 175.302 265.781 183.359 273.271 186.454L273.882 184.975C267.027 182.143 262.336 174.712 262.656 167.176L261.057 167.108Z" fill="#BA804A" mask="url(#path-38-inside-2_289_440)"/>
<path d="M275.575 218.295C273.837 218.641 272.03 218.661 270.582 217.902C271.076 216.502 272.153 215.024 273.487 213.75C274.914 212.387 276.593 211.298 278.072 210.802C280.896 209.854 283.913 209.781 286.955 209.782C284.636 214.111 280.333 217.338 275.575 218.295Z" stroke="#BA804A" stroke-width="0.8"/>
<path d="M293.297 176.199C293.4 176.305 292.589 177.302 291.131 178.746C289.675 180.199 287.594 182.11 285.222 184.149C280.492 188.228 276.378 191.211 276.184 190.954C276.011 190.724 279.791 187.379 284.513 183.312C286.873 181.28 289.032 179.467 290.613 178.171C292.2 176.879 293.189 176.091 293.297 176.199Z" fill="#BA804A"/>
<path d="M287.471 208.881C287.612 209.153 283.914 211.457 279.211 214.038C274.509 216.618 270.582 218.492 270.442 218.22C270.301 217.948 273.999 215.645 278.702 213.064C283.404 210.484 287.331 208.609 287.471 208.881Z" fill="#BA804A"/>
<path d="M255.677 199.158C255.917 198.963 258.823 202.279 262.172 206.553C265.519 210.833 268.042 214.46 267.799 214.646C267.559 214.842 264.653 211.525 261.298 207.248C257.957 202.971 255.434 199.344 255.677 199.158Z" fill="#BA804A"/>
<path d="M261.567 166.38C261.738 166.342 262.008 167.625 262.889 169.477C263.321 170.405 263.929 171.466 264.675 172.599C265.424 173.727 266.334 174.925 267.319 176.159C268.314 177.391 269.28 178.569 270.118 179.672C270.962 180.779 271.679 181.819 272.216 182.733C273.302 184.566 273.677 185.849 273.548 185.904C273.395 185.974 272.783 184.843 271.563 183.175C270.96 182.338 270.196 181.377 269.323 180.321C268.45 179.266 267.461 178.114 266.459 176.869C265.454 175.616 264.548 174.374 263.816 173.165C263.087 171.966 262.526 170.81 262.167 169.795C261.435 167.764 261.438 166.396 261.567 166.38Z" fill="#BA804A"/>
<path d="M233.229 215.831C233.535 215.742 235.08 220.757 237.199 226.842C239.305 232.936 241.188 237.82 240.894 237.953C240.626 238.08 238.278 233.367 236.155 227.225C234.023 221.086 232.948 215.903 233.229 215.831Z" fill="#BA804A"/>
<path d="M271.912 243.459C271.81 243.75 266.841 242.302 260.821 240.221C254.801 238.14 250.002 236.22 250.104 235.929C250.206 235.638 255.171 237.091 261.195 239.167C267.215 241.248 272.014 243.168 271.912 243.459Z" fill="#BA804A"/>
<path d="M247.832 215.196C248.129 215.186 248.386 218.6 248.012 222.805C247.648 227.007 246.8 230.342 246.507 230.294C246.2 230.245 246.553 226.873 246.913 222.729C247.283 218.583 247.52 215.205 247.832 215.196Z" fill="#BA804A"/>
<path d="M254.098 247.853C253.889 248.059 251.965 246.37 250.341 243.677C248.704 240.991 248.087 238.479 248.367 238.383C248.666 238.267 249.717 240.507 251.283 243.083C252.842 245.67 254.332 247.631 254.098 247.853Z" fill="#BA804A"/>
<path d="M268.565 227.612C268.692 227.883 266.395 229.228 263.312 230.253C260.232 231.287 257.608 231.574 257.556 231.278C257.497 230.969 259.971 230.207 262.985 229.195C265.999 228.199 268.44 227.326 268.565 227.612Z" fill="#BA804A"/>
<path d="M270.458 232.281C270.5 232.427 270.359 232.619 270.068 232.785C269.778 232.951 269.339 233.076 268.845 233.078C268.35 233.081 267.909 232.954 267.624 232.788C267.339 232.623 267.205 232.43 267.249 232.289C267.355 231.992 268.059 231.975 268.856 231.966C269.657 231.975 270.359 231.987 270.458 232.281Z" fill="#BA804A"/>
<path d="M279.251 203.775C279.475 203.981 278.418 205.544 277.022 207.381C275.621 209.215 274.398 210.651 274.142 210.488C273.892 210.327 274.723 208.588 276.153 206.717C277.576 204.834 279.027 203.569 279.251 203.775Z" fill="#BA804A"/>
<path d="M281.835 205.731C282 205.986 281.604 206.54 280.959 206.957C280.31 207.379 279.659 207.51 279.494 207.255C279.329 206.999 279.725 206.445 280.37 206.029C281.019 205.606 281.67 205.475 281.835 205.731Z" fill="#BA804A"/>
<path d="M259.174 213.862C259.256 213.567 260.743 213.707 262.494 214.176C264.245 214.646 265.602 215.266 265.517 215.567C265.436 215.862 263.949 215.722 262.198 215.252C260.446 214.783 259.089 214.162 259.174 213.862Z" fill="#BA804A"/>
<path d="M268.43 202.076C268.737 202.049 269.075 203.356 269.309 204.984C269.538 206.609 269.576 207.97 269.281 208.042C268.985 208.114 268.459 206.834 268.219 205.165C267.982 203.49 268.128 202.106 268.43 202.076Z" fill="#BA804A"/>
<path d="M262.124 184.674C262.226 184.383 264.404 184.864 266.98 185.751C269.562 186.642 271.57 187.595 271.468 187.886C271.366 188.177 269.188 187.696 266.607 186.805C264.027 185.924 262.023 184.965 262.124 184.674Z" fill="#BA804A"/>
<path d="M265.673 193.04C265.55 192.763 266.633 191.992 268.098 191.321C269.56 190.656 270.844 190.336 270.967 190.613C271.09 190.89 270.007 191.661 268.542 192.332C267.08 192.997 265.796 193.317 265.673 193.04Z" fill="#BA804A"/>
<path d="M275.263 173.119C275.569 173.145 275.673 174.56 275.505 176.289C275.335 178.009 274.95 179.391 274.653 179.363C274.352 179.34 274.243 177.922 274.411 176.193C274.581 174.473 274.965 173.091 275.263 173.119Z" fill="#BA804A"/>
<path d="M282.063 175.518C282.332 175.659 282.091 176.638 281.522 177.708C280.957 178.772 280.279 179.527 280.015 179.39C279.746 179.249 279.986 178.269 280.556 177.2C281.119 176.127 281.793 175.377 282.063 175.518Z" fill="#BA804A"/>
<path d="M288.688 193.909C288.661 194.213 286.187 194.267 283.173 194.031C280.153 193.791 277.729 193.35 277.756 193.046C277.783 192.742 280.257 192.687 283.277 192.927C286.291 193.163 288.719 193.599 288.688 193.909Z" fill="#BA804A"/>
<path d="M254.2 223.027C254.427 223.228 253.559 224.619 252.258 226.138C250.957 227.658 249.714 228.732 249.487 228.531C249.26 228.331 250.127 226.94 251.428 225.42C252.729 223.901 253.969 222.833 254.2 223.027Z" fill="#BA804A"/>
<path d="M231.387 241.347C231.389 241.036 232.869 240.777 234.691 240.762C236.514 240.748 237.992 240.982 237.99 241.293C237.989 241.604 236.509 241.864 234.686 241.878C232.863 241.892 231.38 241.655 231.387 241.347Z" fill="#BA804A"/>
<path d="M245.598 244.879C245.292 244.892 245.032 244.17 245.017 243.271C245.001 242.371 245.233 241.638 245.539 241.626C245.845 241.613 246.105 242.335 246.121 243.234C246.136 244.134 245.904 244.867 245.598 244.879Z" fill="#BA804A"/>
<path d="M19.8464 166.907C19.8525 166.866 20.2294 166.901 20.9471 166.998C21.654 167.156 22.7163 167.375 23.9747 167.99C25.229 168.585 26.7039 169.501 28.1413 170.885C28.8748 171.557 29.5763 172.369 30.2792 173.249C30.9629 174.146 31.6185 175.151 32.2194 176.255C33.4131 178.476 34.3089 181.087 34.9532 183.947C35.5975 186.807 35.9604 189.904 36.2745 193.15C36.5999 196.389 36.871 199.781 37.5375 203.227C38.1887 206.659 39.2517 210.175 41.1712 213.315C43.1018 216.448 45.7392 218.996 48.441 221.227C51.1516 223.461 53.9424 225.444 56.5112 227.455C59.0881 229.455 61.4902 231.447 63.6028 233.454C65.7211 235.458 67.5539 237.495 69.0523 239.481C70.5597 241.47 71.7215 243.413 72.6107 245.179C73.4888 246.951 74.0751 248.563 74.4636 249.895C74.8611 251.229 75.0383 252.295 75.1445 253.015C75.225 253.742 75.2489 254.122 75.2143 254.127C75.105 254.144 74.9394 252.617 74.0534 250.023C73.612 248.729 72.9771 247.175 72.0649 245.46C71.1416 243.752 69.9577 241.874 68.4405 239.959C66.9289 238.042 65.1007 236.077 62.9829 234.126C60.8707 232.173 58.4778 230.235 55.9028 228.265C53.3301 226.286 50.538 224.327 47.7676 222.067C45.015 219.812 42.2683 217.189 40.2398 213.884C38.2224 210.573 37.1334 206.921 36.4833 203.412C35.8177 199.89 35.5617 196.459 35.2718 193.23C34.9842 189.992 34.653 186.937 34.0671 184.127C33.4787 181.326 32.6445 178.771 31.539 176.614C30.9778 175.54 30.3699 174.553 29.7305 173.668C29.072 172.801 28.4171 171.993 27.7303 171.324C26.3807 169.95 24.9885 169.01 23.8015 168.377C21.3729 167.119 19.8168 167.038 19.8464 166.907Z" fill="#BA804A"/>
<path d="M44.6424 184.556C40.5793 183.405 37.5654 180.436 35.7491 178.464C38.8553 175.746 43.2611 174.565 47.3408 175.387C51.4412 176.217 55.1332 179.054 57.0551 182.823C53.4228 185.086 48.8087 185.736 44.6424 184.556Z" stroke="#BA804A" stroke-width="0.8"/>
<path d="M28.1168 198.957L28.1167 198.958C24.947 201.816 20.6405 203.216 16.3115 203.521L16.3115 203.521L16.3091 203.521C15.9911 203.545 15.7975 203.531 15.6722 203.446C15.5746 203.38 15.5035 203.264 15.4694 203.067C15.4347 202.866 15.4473 202.625 15.4823 202.381L15.4824 202.381C16.117 197.909 18.4372 193.736 21.8628 190.883C23.576 189.456 25.1639 188.627 26.8732 188.176C28.5083 187.744 30.2753 187.653 32.4051 187.739C33.0683 191.862 31.2145 196.166 28.1168 198.957Z" stroke="#BA804A" stroke-width="0.8"/>
<path d="M61.4999 211.652L61.4988 211.653C58.9046 214.246 55.2611 215.745 51.579 215.74C47.9732 215.731 45.2139 215.445 42.6846 213.179C47.9455 209.517 54.9025 208.395 61.112 210.241C61.3325 210.308 61.5355 210.384 61.6923 210.483C61.8461 210.581 61.9218 210.68 61.9496 210.783L61.9495 210.783L61.9513 210.789C61.9809 210.893 61.9659 211.014 61.8836 211.169C61.799 211.329 61.6604 211.492 61.4999 211.652Z" stroke="#BA804A" stroke-width="0.8"/>
<path d="M58.265 232.576C58.4105 232.664 58.5827 232.795 58.7805 232.976C59.1431 233.309 59.5456 233.769 59.9689 234.314C60.8145 235.405 61.7127 236.799 62.5026 238.111C65.4338 242.99 65.5651 249.117 62.5863 253.837C62.5581 253.879 62.5315 253.919 62.506 253.958C59.7355 250.833 57.4571 247.19 56.8473 243.148C56.5328 241.064 56.9085 238.333 57.3782 236.088C57.6115 234.972 57.8652 233.99 58.0605 233.287C58.1403 233 58.2102 232.759 58.265 232.576Z" stroke="#BA804A" stroke-width="0.8"/>
<mask id="path-68-inside-3_289_440" fill="white">
<path d="M64.069 232.512C64.3705 234.03 66.8204 234.609 68.3243 234.925C71.4499 235.58 74.6363 236.185 77.7998 235.917C80.9665 235.655 84.1618 234.414 86.1591 231.947C79.5238 227.711 70.3757 228.047 64.2125 232.764"/>
</mask>
<path d="M68.3243 234.925L68.1599 235.708L68.1602 235.708L68.3243 234.925ZM77.7998 235.917L77.7337 235.12L77.7322 235.12L77.7998 235.917ZM86.1591 231.947L86.7808 232.45L87.3443 231.755L86.5896 231.273L86.1591 231.947ZM63.2843 232.668C63.5159 233.834 64.5352 234.505 65.4198 234.9C66.3448 235.313 67.4102 235.55 68.1599 235.708L68.4887 234.142C67.7345 233.983 66.823 233.774 66.0716 233.439C65.2799 233.086 64.9236 232.709 64.8536 232.357L63.2843 232.668ZM68.1602 235.708C71.279 236.362 74.5723 236.994 77.8673 236.714L77.7322 235.12C74.7002 235.377 71.6209 234.798 68.4885 234.142L68.1602 235.708ZM77.8658 236.715C81.1723 236.441 84.6038 235.139 86.7808 232.45L85.5373 231.444C83.7198 233.688 80.7606 234.869 77.7337 235.12L77.8658 236.715ZM86.5896 231.273C79.6769 226.86 70.1622 227.203 63.7263 232.129L64.6987 233.399C70.5893 228.891 79.3707 228.562 85.7286 232.621L86.5896 231.273Z" fill="#BA804A" mask="url(#path-68-inside-3_289_440)"/>
<path d="M35.0286 218.143C35.6014 216.466 36.4912 214.893 37.8745 214.022C38.8375 215.152 39.5753 216.824 40.0079 218.617C40.4708 220.536 40.5703 222.535 40.2572 224.063C39.6594 226.981 38.2088 229.628 36.6813 232.258C34.1008 228.08 33.4684 222.739 35.0286 218.143Z" stroke="#BA804A" stroke-width="0.8"/>
<path d="M62.5448 254.597C62.4019 254.633 61.9459 253.431 61.4291 251.445C60.9035 249.457 60.2946 246.698 59.721 243.623C58.566 237.485 58.051 232.429 58.371 232.39C58.6564 232.356 59.6525 237.304 60.801 243.431C61.3736 246.491 61.8587 249.268 62.1859 251.286C62.5074 253.308 62.6934 254.558 62.5448 254.597Z" fill="#BA804A"/>
<path d="M37.2001 233.156C36.8942 233.141 36.7572 228.787 36.8852 223.424C37.0132 218.062 37.3625 213.725 37.6683 213.739C37.9742 213.754 38.1112 218.109 37.9832 223.472C37.8552 228.834 37.5059 233.171 37.2001 233.156Z" fill="#BA804A"/>
<path d="M61.5677 210.537C61.6159 210.843 57.2894 211.692 51.9112 212.444C46.5298 213.191 42.1262 213.553 42.0869 213.25C42.0386 212.944 46.3652 212.095 51.7489 211.34C57.1247 210.596 61.5283 210.234 61.5677 210.537Z" fill="#BA804A"/>
<path d="M86.9636 232.078C86.9102 232.245 85.6646 231.835 83.6211 231.668C82.6016 231.576 81.3785 231.57 80.024 231.646C78.6728 231.728 77.18 231.914 75.6175 232.146C74.0527 232.388 72.5491 232.633 71.1744 232.804C69.7942 232.979 68.534 233.077 67.4743 233.083C65.3437 233.103 64.0457 232.783 64.0632 232.644C64.0787 232.476 65.3649 232.515 67.4191 232.296C68.4467 232.195 69.6612 232.016 71.012 231.791C72.3629 231.565 73.8559 231.288 75.4351 231.046C77.0233 230.806 78.5525 230.645 79.9653 230.619C81.3692 230.59 82.6502 230.684 83.7083 230.883C85.8324 231.269 87.0142 231.959 86.9636 232.078Z" fill="#BA804A"/>
<path d="M58.4084 182.754C58.332 183.063 53.2188 181.883 46.8918 180.661C40.5639 179.425 35.3948 178.603 35.4269 178.281C35.452 177.986 40.7066 178.32 47.0845 179.566C53.4647 180.803 58.4867 182.474 58.4084 182.754Z" fill="#BA804A"/>
<path d="M15.097 202.348C14.8965 202.114 18.6425 198.542 23.4638 194.38C28.2852 190.217 32.3545 187.029 32.555 187.263C32.7556 187.498 29.0063 191.063 24.1882 195.232C19.3669 199.394 15.2976 202.582 15.097 202.348Z" fill="#BA804A"/>
<path d="M51.6313 195.702C51.4909 195.964 48.4087 194.473 44.9595 192.04C41.5079 189.616 39.0478 187.209 39.2367 186.98C39.4336 186.739 42.1729 188.736 45.576 191.127C48.9767 193.527 51.7797 195.428 51.6313 195.702Z" fill="#BA804A"/>
<path d="M20.2412 184.734C20.1682 184.45 22.5943 183.633 25.7393 183.58C28.8834 183.512 31.3659 184.239 31.3086 184.529C31.2587 184.846 28.794 184.632 25.7802 184.693C22.7599 184.743 20.3161 185.047 20.2412 184.734Z" fill="#BA804A"/>
<path d="M30.4874 207.407C30.1894 207.38 30.1792 204.718 30.8391 201.538C31.4903 198.354 32.5586 195.941 32.841 196.045C33.1379 196.148 32.5557 198.67 31.9177 201.786C31.2676 204.892 30.7975 207.442 30.4874 207.407Z" fill="#BA804A"/>
<path d="M25.4971 206.699C25.3495 206.662 25.2545 206.444 25.2567 206.109C25.2589 205.775 25.3705 205.332 25.6166 204.903C25.8628 204.475 26.1942 204.157 26.4802 203.994C26.7662 203.83 27.0002 203.81 27.1 203.92C27.3039 204.16 26.9651 204.778 26.573 205.471C26.1631 206.16 25.8001 206.761 25.4971 206.699Z" fill="#BA804A"/>
<path d="M45.7418 228.609C45.4512 228.699 44.6301 227.001 43.7413 224.871C42.858 222.738 42.2294 220.96 42.4995 220.821C42.764 220.685 43.8514 222.277 44.7519 224.453C45.6668 226.628 46.0324 228.519 45.7418 228.609Z" fill="#BA804A"/>
<path d="M42.7533 229.863C42.4493 229.877 42.1692 229.256 42.1327 228.489C42.0929 227.716 42.3061 227.087 42.6101 227.072C42.9142 227.058 43.1942 227.678 43.2307 228.446C43.2705 229.219 43.0574 229.848 42.7533 229.863Z" fill="#BA804A"/>
<path d="M47.0932 206.182C47.3073 206.4 46.4398 207.616 45.155 208.895C43.8703 210.174 42.6523 211.036 42.4349 210.812C42.2208 210.593 43.0884 209.378 44.3731 208.099C45.6578 206.819 46.8758 205.957 47.0932 206.182Z" fill="#BA804A"/>
<path d="M52.6412 220.103C52.5106 220.382 51.2098 220.019 49.6842 219.405C48.1642 218.787 46.9675 218.137 47.0537 217.845C47.14 217.554 48.5109 217.741 50.0753 218.371C51.6429 219.006 52.7662 219.827 52.6412 220.103Z" fill="#BA804A"/>
<path d="M70.8572 223.384C71.0578 223.618 69.549 225.26 67.4884 227.043C65.4223 228.829 63.5902 230.087 63.3896 229.853C63.1891 229.619 64.6979 227.977 66.764 226.191C68.8213 224.402 70.6566 223.15 70.8572 223.384Z" fill="#BA804A"/>
<path d="M61.8398 222.253C62.141 222.285 62.2648 223.609 62.1099 225.213C61.9517 226.811 61.5843 228.082 61.2831 228.05C60.9819 228.017 60.8581 226.693 61.013 225.089C61.1711 223.491 61.5386 222.22 61.8398 222.253Z" fill="#BA804A"/>
<path d="M74.2606 240.545C74.0848 240.797 72.8086 240.177 71.3973 239.164C69.995 238.154 68.9924 237.128 69.1659 236.885C69.3362 236.636 70.618 237.253 72.0292 238.266C73.4316 239.276 74.4342 240.302 74.2606 240.545Z" fill="#BA804A"/>
<path d="M68.7727 245.224C68.5156 245.386 67.7892 244.687 67.1495 243.658C66.5131 242.634 66.1998 241.669 66.4512 241.51C66.7083 241.348 67.4347 242.048 68.0744 243.077C68.7197 244.102 69.0297 245.062 68.7727 245.224Z" fill="#BA804A"/>
<path d="M49.5412 241.726C49.292 241.55 50.4862 239.383 52.2032 236.894C53.9259 234.403 55.5247 232.527 55.7739 232.703C56.0231 232.879 54.8289 235.046 53.1062 237.538C51.3892 240.027 49.7937 241.908 49.5412 241.726Z" fill="#BA804A"/>
<path d="M41.661 197.279C41.3737 197.375 40.606 195.927 39.9443 194.039C39.2827 192.151 38.978 190.536 39.2653 190.44C39.5527 190.344 40.3203 191.793 40.982 193.681C41.6436 195.569 41.9451 197.178 41.661 197.279Z" fill="#BA804A"/>
<path d="M37.2645 168.355C37.5329 168.512 37.0144 169.922 36.1118 171.506C35.2093 173.09 34.2656 174.25 33.9972 174.093C33.7288 173.935 34.2473 172.525 35.1499 170.941C36.0524 169.358 37.0017 168.194 37.2645 168.355Z" fill="#BA804A"/>
<path d="M27.0765 178.873C27.2192 178.602 27.9742 178.739 28.7598 179.177C29.5453 179.615 30.0632 180.184 29.9204 180.455C29.7777 180.725 29.0226 180.588 28.2371 180.15C27.4515 179.712 26.9338 179.144 27.0765 178.873Z" fill="#BA804A"/>
</svg>
