<svg width="41" height="37" viewBox="0 0 41 37" fill="none" xmlns="http://www.w3.org/2000/svg">
<path d="M25.5447 1.87342C28.2236 4.05907 30.4389 7.02532 32.1905 10.7722C33.839 14.4149 34.6118 18.1617 34.5088 22.0127C33.4784 21.3882 32.345 21.0759 31.1086 21.0759C28.7388 21.0759 26.8842 21.8045 25.5447 23.2616C24.1022 24.6146 23.381 26.488 23.381 28.8819C23.381 31.2757 24.1537 33.2532 25.6992 34.8144C27.1417 36.2715 29.1509 37 31.7268 37C34.6118 37 36.8786 35.9592 38.5272 33.8776C40.1757 31.692 41 28.6737 41 24.8228C41 19.9311 39.7636 15.1435 37.2907 10.4599C34.8179 5.77637 31.6753 2.28973 27.863 0L25.5447 1.87342Z" fill="#61391A" fill-opacity="0.75"/>
<path d="M2.6404 1.87342C5.31932 4.05907 7.53458 7.02532 9.28618 10.7722C10.9347 14.4149 11.7075 18.1617 11.6045 22.0127C10.5741 21.3882 9.44073 21.0759 8.20431 21.0759C5.83449 21.0759 3.97986 21.8045 2.6404 23.2616C1.1979 24.6146 0.476656 26.488 0.476656 28.8819C0.476656 31.2757 1.24942 33.2532 2.79495 34.8144C4.23745 36.2715 6.24664 37 8.82252 37C11.7075 37 13.9743 35.9592 15.6229 33.8776C17.2714 31.692 18.0957 28.6737 18.0957 24.8228C18.0957 19.9311 16.8593 15.1435 14.3864 10.4599C11.9136 5.77637 8.771 2.28973 4.95869 0L2.6404 1.87342Z" fill="#61391A" fill-opacity="0.75"/>
</svg>
