<svg width="52" height="50" viewBox="0 0 52 50" fill="none" xmlns="http://www.w3.org/2000/svg">
<path d="M34.9467 42.0331C34.5999 42.0319 34.2586 41.9473 33.9513 41.7858L26.1959 37.6789C26.0602 37.6119 25.9011 37.6119 25.7653 37.6789L18.0154 41.7858C17.5439 42.0343 16.9967 42.0974 16.4815 41.9626C15.9659 41.8274 15.5189 41.5045 15.2279 41.0561C14.9365 40.6082 14.8223 40.067 14.9065 39.5388L16.3882 30.8476C16.4105 30.6956 16.3609 30.542 16.2541 30.4318L9.98044 24.2518C9.59743 23.876 9.36887 23.3693 9.33923 22.8325C9.30958 22.2952 9.4812 21.7662 9.82013 21.35C10.1595 20.9339 10.6415 20.6603 11.1716 20.5835L19.8493 19.3193C20.0007 19.2969 20.1317 19.2029 20.2019 19.0665L24.0769 11.1619H24.0765C24.2516 10.7998 24.5254 10.4945 24.8655 10.2817C25.206 10.0693 25.5992 9.95764 26.0001 9.96C26.4007 9.95804 26.7938 10.0701 27.1339 10.2829C27.4744 10.4953 27.7478 10.8002 27.9237 11.1619L31.7987 19.0665H31.7983C31.8662 19.2025 31.9957 19.297 32.1451 19.3193L40.8119 20.589C41.3412 20.6669 41.8225 20.9413 42.1607 21.3578C42.4988 21.7744 42.6697 22.303 42.6396 22.8396C42.6092 23.3765 42.3803 23.882 41.9973 24.2578L35.7291 30.4378L35.7295 30.4374C35.6187 30.5452 35.5684 30.7008 35.5953 30.8532L37.0716 39.5444H37.0712C37.141 39.9402 37.0981 40.3477 36.9475 40.7204C36.7974 41.0931 36.5458 41.4156 36.2213 41.6511C35.8469 41.9098 35.4007 42.0434 34.9467 42.0332L34.9467 42.0331ZM26.0001 35.9433C26.3484 35.9441 26.6916 36.0291 27.0009 36.1902L34.7508 40.2912V40.2916C34.9052 40.3778 35.0959 40.3645 35.2371 40.2579C35.3818 40.1525 35.4536 39.9734 35.4216 39.797L33.9177 31.1118C33.8003 30.4139 34.03 29.7026 34.5328 29.2073L40.8009 23.0273H40.8005C40.9316 22.9039 40.9776 22.7142 40.9179 22.5441C40.8696 22.374 40.7241 22.2498 40.549 22.2294L31.8821 20.9598C31.1832 20.8575 30.579 20.4166 30.2662 19.7802L26.3916 11.9038C26.3163 11.7431 26.154 11.6416 25.9777 11.6451C25.8018 11.6447 25.6411 11.745 25.5639 11.9038L21.6889 19.8084C21.3789 20.4444 20.7763 20.886 20.0785 20.988L11.4116 22.2576C11.2361 22.2788 11.089 22.4022 11.0372 22.5723C10.9802 22.7424 11.0259 22.9305 11.1546 23.0555L17.4282 29.2355V29.2351C17.9321 29.7297 18.1603 30.4429 18.0378 31.1396L16.5616 39.797C16.5269 39.9738 16.599 40.1544 16.7461 40.2579C16.8873 40.3645 17.078 40.3778 17.2324 40.2916L24.9823 36.1906V36.1902C25.2963 36.0256 25.6458 35.9405 25.9999 35.9433L26.0001 35.9433Z" fill="#61391A"/>
<path d="M26.0007 6.69644C25.5373 6.69644 25.1621 6.31945 25.1621 5.8539V0.84254C25.1621 0.377379 25.5373 0 26.0007 0C26.464 0 26.8392 0.377379 26.8392 0.84254V5.8539C26.8392 6.07727 26.7511 6.29163 26.5939 6.44956C26.4363 6.60787 26.223 6.69644 26.0007 6.69644Z" fill="#61391A"/>
<path d="M51.1617 23.5224H46.1852C45.7219 23.5224 45.3467 23.145 45.3467 22.6795C45.3467 22.2143 45.7219 21.8369 46.1852 21.8369H51.1617C51.625 21.8369 52.0002 22.2143 52.0002 22.6795C52.0002 23.145 51.625 23.5224 51.1617 23.5224Z" fill="#61391A"/>
<path d="M5.81497 23.5224H0.838561C0.375208 23.5224 0 23.145 0 22.6795C0 22.2143 0.375208 21.8369 0.838561 21.8369H5.81497C6.27833 21.8369 6.65353 22.2143 6.65353 22.6795C6.65353 23.145 6.27833 23.5224 5.81497 23.5224Z" fill="#61391A"/>
<path d="M5.54658 44.9896C5.32387 44.9908 5.11013 44.9018 4.95373 44.7427C4.63001 44.4124 4.63001 43.8818 4.95373 43.5514L8.47067 40.012L8.47106 40.0124C8.79829 39.682 9.3303 39.6804 9.65905 40.0096C9.98785 40.3384 9.98901 40.8729 9.66178 41.2033L6.13905 44.7427H6.13944C5.98382 44.9034 5.76968 44.9928 5.54658 44.9896Z" fill="#61391A"/>
<path d="M40.0452 10.2642C39.709 10.2584 39.4079 10.0526 39.2792 9.7403C39.1504 9.42797 39.2183 9.06861 39.4523 8.82604L42.9751 5.28108C43.3074 5.00715 43.7918 5.02988 44.0972 5.33398C44.4026 5.63769 44.4299 6.12441 44.1603 6.46059L40.6434 10.0056C40.4858 10.1678 40.2705 10.2607 40.0451 10.2642L40.0452 10.2642Z" fill="#61391A"/>
<path d="M11.2167 11.3041C10.994 11.3045 10.7806 11.2155 10.6238 11.0568L7.10109 7.51184C6.77386 7.18149 6.77503 6.64696 7.10382 6.31822C7.43301 5.98904 7.96501 5.99061 8.29221 6.32096L11.8091 9.86592C11.9675 10.0231 12.0568 10.2374 12.0568 10.4612C12.0568 10.685 11.9675 10.8997 11.8091 11.0568C11.6516 11.2144 11.4386 11.3033 11.2167 11.3041Z" fill="#61391A"/>
<path d="M45.7158 46.0286C45.4938 46.0317 45.2801 45.9443 45.1229 45.7868L41.606 42.2473V42.2477C41.3318 41.915 41.3521 41.4279 41.6532 41.1195C41.9543 40.8115 42.4383 40.7817 42.7744 41.0509L46.2914 44.5904C46.4501 44.7475 46.5391 44.9619 46.5391 45.1856C46.5391 45.4094 46.4501 45.6242 46.2914 45.7813C46.1401 45.9377 45.933 46.027 45.7158 46.0286Z" fill="#61391A"/>
<path d="M26.0007 50.0002C25.5373 50.0002 25.1621 49.6228 25.1621 49.1576V44.1463C25.1621 43.6807 25.5373 43.3037 26.0007 43.3037C26.464 43.3037 26.8392 43.6807 26.8392 44.1463V49.1576C26.8392 49.6228 26.464 50.0002 26.0007 50.0002Z" fill="#61391A"/>
</svg>
