<svg width="280" height="42" viewBox="0 0 280 42" fill="none" xmlns="http://www.w3.org/2000/svg">
<path fill-rule="evenodd" clip-rule="evenodd" d="M0 31.2951H113.5C124.862 31.2951 137.146 27.5816 137.368 15.8063C137.527 7.74453 130.1 2.57102 122.482 2.57102C116.007 2.53928 110.389 6.475 110.643 11.9342C110.865 16.7585 116.356 16.9489 117.943 13.8385C119.023 11.7437 119.594 9.64891 122.419 10.2202C123.403 10.4106 124.259 11.1407 124.45 12.5689C125.085 17.0124 120.292 21.0751 115.785 21.0116C102.74 20.8212 103.089 -0.0633342 122.45 0.000144415C132.448 0.0318837 139.558 6.12584 139.526 16.0285C139.494 28.9147 125.878 32.4695 114.071 32.5647C115.849 33.4851 116.991 34.9451 117.15 36.9447C117.372 39.6743 114.547 41.7057 111.945 41.9596C109.247 42.2453 106.612 41.0074 106.422 38.5317C106.136 35.1038 111.564 34.12 112.611 37.2939C109.723 36.1513 108.136 37.3891 108.104 38.6904C108.072 39.7696 108.993 40.8804 111.722 40.7217C113.754 40.6265 116.134 39.3251 115.944 37.0082C115.499 32.1203 107.215 31.8982 104.105 33.2947C102.74 33.9295 102.074 34.7547 101.217 35.8338C100.106 34.6595 99.4394 34.0564 97.8206 33.4534C96.7098 33.0408 95.4719 32.5647 94.1705 32.5647H23.5823C20.5988 32.5647 19.234 33.6121 17.9327 35.7704L17.3931 35.1356C14.3779 31.6442 4.82438 31.7712 0 31.2951Z" fill="#61391A"/>
<path fill-rule="evenodd" clip-rule="evenodd" d="M17.3935 24.8524L17.9331 24.2175L18.3775 24.9158C18.8536 25.7093 19.5518 26.3124 20.4405 26.7567C21.3292 27.1693 22.3766 27.4232 23.6145 27.4232H102.709C108.454 27.4232 117.372 27.3915 122.609 22.9797C126.006 20.0915 129.053 23.6463 126.164 26.0902C123.847 28.0581 117.69 28.6293 114.77 28.6293H102.709H23.6145H11.7439H4.03125C8.28432 27.9311 14.5369 28.2802 17.3935 24.8524Z" fill="#61391A"/>
<path fill-rule="evenodd" clip-rule="evenodd" d="M105.217 21.2965C104.106 20.5031 102.677 20.757 102.043 21.5822C101.535 22.217 101.344 23.2326 102.043 23.8674C102.614 24.3753 103.757 24.5339 104.36 23.8674C104.614 23.5818 104.74 23.1691 104.677 22.7565C105.978 23.3596 105.47 25.0418 104.137 25.5496C103.153 25.9305 102.201 25.7083 101.535 25.1052C100.551 24.2482 100.075 22.5026 100.995 21.0743C101.567 20.2174 102.582 19.7413 103.757 19.6778C102.392 17.8052 101.249 14.2187 97.6308 14.4091C94.679 14.5678 93.7904 17.0435 94.4252 18.8209C94.9013 20.1857 96.2977 21.1378 98.3291 20.3761C99.2495 20.0269 99.6622 18.7891 99.2813 17.9322C98.3609 15.8691 95.663 17.2656 96.8691 18.9795C95.1869 18.5987 95.3139 16.7895 96.4248 16.0278C97.5674 15.2661 99.6939 15.4248 100.456 17.6148C100.995 19.1383 100.234 20.7252 98.8052 21.4235C96.6787 22.4709 94.0443 21.5187 93.1873 19.297C92.2669 16.8848 93.7586 13.3935 97.3769 13.1713C100.487 12.9808 102.36 15.2661 103.788 17.6148C104.867 19.3922 106.01 21.2013 110.136 22.0583C108.613 22.6296 106.518 22.217 105.217 21.2965Z" fill="#61391A"/>
<path fill-rule="evenodd" clip-rule="evenodd" d="M138.891 36.9763C137.304 34.4689 135.177 33.3897 132.353 32.7549L129.877 32.2154L132.353 31.6124C135.241 30.8824 137.304 29.6128 138.923 27.0737L140.034 25.3279V27.391V36.6907V38.7537L138.891 36.9763Z" fill="#61391A"/>
<path fill-rule="evenodd" clip-rule="evenodd" d="M130.671 21.7421C134.289 16.156 132.131 10.2525 126.101 7.80859C128.037 10.3795 128.164 13.2678 127.053 16.3465C129.973 17.5843 130.29 19.4569 130.671 21.7421Z" fill="#61391A"/>
<path fill-rule="evenodd" clip-rule="evenodd" d="M43.3555 30.5645C43.7047 30.5645 43.9903 30.2789 43.9903 29.9297C43.9903 29.5806 43.7047 29.2949 43.3555 29.2949C43.0064 29.2949 42.7207 29.5806 42.7207 29.9297C42.7207 30.2789 43.0064 30.5645 43.3555 30.5645Z" fill="#61391A"/>
<path fill-rule="evenodd" clip-rule="evenodd" d="M49.419 30.5645C49.7681 30.5645 50.0537 30.2789 50.0537 29.9297C50.0537 29.5806 49.7681 29.2949 49.419 29.2949C49.0699 29.2949 48.7842 29.5806 48.7842 29.9297C48.7842 30.2789 49.0699 30.5645 49.419 30.5645Z" fill="#61391A"/>
<path fill-rule="evenodd" clip-rule="evenodd" d="M55.4795 30.5645C55.8286 30.5645 56.1143 30.2789 56.1143 29.9297C56.1143 29.5806 55.8286 29.2949 55.4795 29.2949C55.1303 29.2949 54.8447 29.5806 54.8447 29.9297C54.8447 30.2789 55.0986 30.5645 55.4795 30.5645Z" fill="#61391A"/>
<path fill-rule="evenodd" clip-rule="evenodd" d="M61.5118 30.5645C61.8609 30.5645 62.1465 30.2789 62.1465 29.9297C62.1465 29.5806 61.8609 29.2949 61.5118 29.2949C61.1626 29.2949 60.877 29.5806 60.877 29.9297C60.877 30.2789 61.1626 30.5645 61.5118 30.5645Z" fill="#61391A"/>
<path fill-rule="evenodd" clip-rule="evenodd" d="M67.5723 30.5645C67.9215 30.5645 68.2071 30.2789 68.2071 29.9297C68.2071 29.5806 67.9215 29.2949 67.5723 29.2949C67.2232 29.2949 66.9375 29.5806 66.9375 29.9297C66.9375 30.2789 67.2232 30.5645 67.5723 30.5645Z" fill="#61391A"/>
<path fill-rule="evenodd" clip-rule="evenodd" d="M73.6347 30.5645C73.9839 30.5645 74.2696 30.2789 74.2696 29.9297C74.2696 29.5806 73.9839 29.2949 73.6347 29.2949C73.2856 29.2949 73 29.5806 73 29.9297C73 30.2789 73.2856 30.5645 73.6347 30.5645Z" fill="#61391A"/>
<path fill-rule="evenodd" clip-rule="evenodd" d="M79.6982 30.5645C80.0473 30.5645 80.333 30.2789 80.333 29.9297C80.333 29.5806 80.0473 29.2949 79.6982 29.2949C79.3491 29.2949 79.0635 29.5806 79.0635 29.9297C79.0635 30.2789 79.3491 30.5645 79.6982 30.5645Z" fill="#61391A"/>
<path fill-rule="evenodd" clip-rule="evenodd" d="M279.972 31.2951H166.472C155.109 31.2951 142.826 27.5816 142.604 15.8063C142.446 7.74453 149.873 2.57102 157.49 2.57102C163.965 2.53928 169.583 6.475 169.36 11.9342C169.138 16.7585 163.647 16.9489 162.06 13.8385C160.981 11.7437 160.41 9.64891 157.585 10.2202C156.601 10.4106 155.744 11.1407 155.554 12.5689C154.919 17.0124 159.712 21.0751 164.219 21.0116C177.295 20.8212 176.914 -0.0633342 157.553 0.000144415C147.556 0.0318837 140.446 6.12584 140.478 16.0285C140.509 28.9147 154.126 32.4695 165.933 32.5647C164.155 33.4851 163.013 34.9451 162.854 36.9447C162.632 39.6743 165.457 41.7057 168.059 41.9596C170.757 42.2453 173.391 41.0074 173.582 38.5317C173.867 35.1038 168.44 34.12 167.393 37.2939C170.281 36.1513 171.868 37.3891 171.9 38.6904C171.931 39.7696 171.011 40.8804 168.281 40.7217C166.25 40.6265 163.87 39.3251 164.06 37.0082C164.473 32.1203 172.788 31.8982 175.899 33.2947C177.264 33.9295 177.93 34.7547 178.787 35.8338C179.898 34.6595 180.564 34.0564 182.183 33.4534C183.294 33.0408 184.532 32.5647 185.833 32.5647H256.422C259.405 32.5647 260.77 33.6121 262.071 35.7704L262.611 35.1356C265.594 31.6442 275.179 31.7712 279.972 31.2951Z" fill="#61391A"/>
<path fill-rule="evenodd" clip-rule="evenodd" d="M262.578 24.8522L262.039 24.2173L261.594 24.9156C261.118 25.7091 260.42 26.3122 259.531 26.7566C258.643 27.1692 257.595 27.4231 256.357 27.4231H177.231C171.518 27.4231 162.568 27.3913 157.331 22.9796C153.935 20.0913 150.888 23.6461 153.776 26.0901C156.093 28.0579 162.25 28.6292 165.17 28.6292H177.231H256.357H268.228H275.941C271.719 27.9309 265.435 28.28 262.578 24.8522Z" fill="#61391A"/>
<path fill-rule="evenodd" clip-rule="evenodd" d="M174.757 21.2965C175.868 20.5031 177.296 20.757 177.931 21.5822C178.439 22.217 178.629 23.2326 177.931 23.8674C177.36 24.3753 176.217 24.5339 175.646 23.8674C175.392 23.5818 175.265 23.1691 175.328 22.7565C174.027 23.3596 174.535 25.0418 175.868 25.5496C176.852 25.9305 177.804 25.7083 178.47 25.1052C179.454 24.2482 179.931 22.5026 179.01 21.0743C178.439 20.2174 177.423 19.7413 176.249 19.6778C177.614 17.8052 178.788 14.2187 182.374 14.4091C185.326 14.5678 186.215 17.0435 185.58 18.8209C185.104 20.1857 183.707 21.1378 181.676 20.3761C180.756 20.0269 180.343 18.7891 180.724 17.9322C181.644 15.8691 184.342 17.2656 183.136 18.9795C184.818 18.5987 184.691 16.7895 183.581 16.0278C182.438 15.2661 180.311 15.4248 179.55 17.6148C179.01 19.1383 179.772 20.7252 181.2 21.4235C183.327 22.4709 185.961 21.5187 186.818 19.297C187.738 16.8848 186.247 13.3935 182.628 13.1713C179.518 12.9808 177.645 15.2661 176.217 17.6148C175.138 19.3922 173.995 21.2013 169.869 22.0583C171.361 22.6296 173.456 22.217 174.757 21.2965Z" fill="#61391A"/>
<path fill-rule="evenodd" clip-rule="evenodd" d="M141.081 36.9763C142.668 34.4689 144.826 33.3897 147.619 32.7549L150.095 32.2154L147.619 31.6124C144.731 30.8824 142.668 29.6128 141.049 27.0737L139.938 25.3279V27.391V36.6907V38.7537L141.081 36.9763Z" fill="#61391A"/>
<path fill-rule="evenodd" clip-rule="evenodd" d="M149.301 21.7411C145.683 16.155 147.873 10.2515 153.872 7.80762C151.936 10.3785 151.809 13.2668 152.92 16.3455C150.031 17.5833 149.682 19.4559 149.301 21.7411Z" fill="#61391A"/>
<path fill-rule="evenodd" clip-rule="evenodd" d="M236.615 30.5645C236.964 30.5645 237.25 30.2789 237.25 29.9297C237.25 29.5806 236.964 29.2949 236.615 29.2949C236.266 29.2949 235.98 29.5806 235.98 29.9297C235.98 30.2789 236.266 30.5645 236.615 30.5645Z" fill="#61391A"/>
<path fill-rule="evenodd" clip-rule="evenodd" d="M230.555 30.5645C230.904 30.5645 231.19 30.2789 231.19 29.9297C231.19 29.5806 230.904 29.2949 230.555 29.2949C230.206 29.2949 229.92 29.5806 229.92 29.9297C229.92 30.2789 230.206 30.5645 230.555 30.5645Z" fill="#61391A"/>
<path fill-rule="evenodd" clip-rule="evenodd" d="M224.524 30.5645C224.873 30.5645 225.159 30.2789 225.159 29.9297C225.159 29.5806 224.873 29.2949 224.524 29.2949C224.175 29.2949 223.889 29.5806 223.889 29.9297C223.857 30.2789 224.143 30.5645 224.524 30.5645Z" fill="#61391A"/>
<path fill-rule="evenodd" clip-rule="evenodd" d="M218.461 30.5645C218.81 30.5645 219.096 30.2789 219.096 29.9297C219.096 29.5806 218.81 29.2949 218.461 29.2949C218.112 29.2949 217.826 29.5806 217.826 29.9297C217.826 30.2789 218.112 30.5645 218.461 30.5645Z" fill="#61391A"/>
<path fill-rule="evenodd" clip-rule="evenodd" d="M212.398 30.5645C212.748 30.5645 213.033 30.2789 213.033 29.9297C213.033 29.5806 212.748 29.2949 212.398 29.2949C212.049 29.2949 211.764 29.5806 211.764 29.9297C211.764 30.2789 212.049 30.5645 212.398 30.5645Z" fill="#61391A"/>
<path fill-rule="evenodd" clip-rule="evenodd" d="M206.336 30.5645C206.685 30.5645 206.971 30.2789 206.971 29.9297C206.971 29.5806 206.685 29.2949 206.336 29.2949C205.987 29.2949 205.701 29.5806 205.701 29.9297C205.701 30.2789 205.987 30.5645 206.336 30.5645Z" fill="#61391A"/>
<path fill-rule="evenodd" clip-rule="evenodd" d="M200.274 30.5645C200.624 30.5645 200.909 30.2789 200.909 29.9297C200.909 29.5806 200.624 29.2949 200.274 29.2949C199.925 29.2949 199.64 29.5806 199.64 29.9297C199.64 30.2789 199.925 30.5645 200.274 30.5645Z" fill="#61391A"/>
</svg>
