<svg viewBox="0 0 240 156" xmlns="http://www.w3.org/2000/svg">
    <path
        d="M240 124.711C238.869 126.822 237.062 127.457 234.743 127.389C231.249 127.276 227.748 127.358 224.067 127.358C223.691 135.168 220.792 141.577 214.69 146.324C210.152 149.855 204.94 151.481 199.189 151.282C189.325 150.945 177.217 143.614 176.186 127.532C148.114 127.532 120.034 127.532 91.7496 127.532C91.3806 135.461 88.287 142.007 81.8172 146.747C77.241 150.098 72.0654 151.568 66.4086 151.257C57.1512 150.746 45.0309 143.963 43.8808 127.358C43.0806 127.358 42.2555 127.358 41.4304 127.358C35.8047 127.358 30.179 127.389 24.5532 127.351C19.1275 127.314 16.0084 124.169 15.9646 118.756C15.9458 116.364 15.9584 113.972 15.9584 111.319C12.4391 111.319 9.17622 111.325 5.91329 111.313C4.97566 111.313 4.02554 111.35 3.10667 111.219C1.23767 110.945 0.175035 109.73 0.0187643 107.924C-0.150007 105.987 0.82512 104.623 2.72537 104.087C3.46297 103.876 4.26932 103.857 5.04442 103.857C16.2146 103.844 27.3911 103.844 38.5613 103.85C39.1051 103.85 39.6615 103.844 40.199 103.931C42.2743 104.268 43.6307 105.856 43.537 107.781C43.4432 109.724 41.993 111.232 39.8552 111.269C35.3234 111.356 30.7915 111.307 26.2597 111.313C25.4221 111.313 24.5845 111.313 23.6093 111.313C23.6093 114.215 23.6093 116.825 23.6093 119.64C24.1844 119.715 24.772 119.864 25.3658 119.864C31.4604 119.883 37.555 119.833 43.6495 119.908C44.9809 119.921 45.4872 119.391 46.0248 118.251C50.3316 109.083 57.6263 103.969 67.7778 103.944C78.0228 103.925 85.3986 109.014 89.7054 118.32C90.2496 119.497 90.8682 119.902 92.1498 119.902C116.915 119.864 141.688 119.876 166.453 119.87C166.984 119.87 167.516 119.783 168.304 119.721C168.304 118.793 168.304 117.965 168.304 117.13C168.304 109.269 168.304 101.403 168.304 93.5418C168.304 92.919 168.272 92.2902 168.322 91.6734C168.503 89.481 170.06 87.918 172.035 87.8862C174.135 87.8556 175.773 89.4564 175.786 91.8102C175.835 100.219 175.81 108.628 175.81 117.037C175.81 117.578 175.711 118.152 175.848 118.663C175.967 119.092 176.329 119.734 176.635 119.771C177.048 119.815 177.554 119.41 177.929 119.092C178.136 118.918 178.148 118.525 178.286 118.245C182.642 109.095 189.919 103.982 200.064 103.95C210.315 103.919 217.678 109.039 222.004 118.32C222.554 119.503 223.141 119.958 224.429 119.908C226.993 119.821 229.561 119.883 232.306 119.883C232.306 114.377 232.306 109.051 232.306 103.327C230.999 103.327 229.63 103.358 228.261 103.321C221.372 103.135 216.585 98.2884 216.484 91.4124C216.448 89.0016 216.448 86.5842 216.484 84.174C216.535 81.2652 217.872 79.9326 220.835 79.8954C224.348 79.8516 227.861 79.8822 231.686 79.8822C231.118 77.4096 229.886 75.4602 227.986 74.3394C225.836 73.0686 223.342 71.6232 220.972 71.5866C206.29 71.337 191.594 71.4552 176.905 71.4552C176.611 71.4552 176.317 71.5488 175.798 71.6358C175.798 73.0002 175.848 74.3016 175.786 75.6036C175.673 77.8458 174.191 79.347 172.141 79.3842C170.116 79.422 168.541 77.9328 168.328 75.7284C168.259 75.0306 168.297 74.3268 168.297 73.629C168.297 52.6073 168.297 31.5855 168.297 10.5638C168.297 9.64194 168.297 8.71386 168.297 7.63632C120.034 7.63632 71.9406 7.63632 23.4656 7.63632C23.4656 8.52084 23.4656 9.41772 23.4656 10.3147C23.4656 31.4111 23.4656 52.5138 23.4656 73.6104C23.4656 74.3892 23.5031 75.174 23.4218 75.9462C23.2093 78.033 21.9653 79.2222 19.9214 79.3536C17.9648 79.4778 16.6522 78.3942 16.1459 76.5252C15.9271 75.7158 15.9584 74.8314 15.9584 73.9782C15.9521 52.3332 15.9458 30.6886 15.9521 9.04404C15.9709 2.99598 18.9775 0 25.0408 0C72.3096 0 119.584 0 166.853 0C172.835 0 175.804 2.93993 175.823 8.85096C175.829 11.0995 175.823 13.3418 175.823 15.8208C176.811 15.8644 177.636 15.9391 178.46 15.9391C186.506 15.9454 194.563 16.1074 202.601 15.9018C212.709 15.6464 221.535 22.5913 219.772 36.2633C219.61 37.509 218.285 38.5991 217.197 40.2247C218.979 47.3379 220.897 55.1049 222.91 62.841C223.066 63.4392 223.76 64.1928 224.342 64.3422C232.73 66.4974 237.819 71.7666 239.669 80.1816C239.719 80.4 239.887 80.586 239.994 80.7918C240 95.4354 240 110.073 240 124.711ZM215.228 63.8442C215.097 63.1152 215.015 62.511 214.872 61.9194C213.209 55.2109 211.484 48.515 209.89 41.7881C209.484 40.0752 208.808 39.4212 206.939 39.4461C197.42 39.552 187.894 39.4897 178.367 39.5022C177.604 39.5022 176.848 39.5707 176.03 39.6081C176.03 47.805 176.03 55.8275 176.03 63.8502C189.181 63.8442 202.12 63.8442 215.228 63.8442ZM200.239 143.826C209.122 143.789 216.472 136.426 216.466 127.57C216.46 118.706 209.115 111.4 200.195 111.368C191.206 111.337 183.737 118.812 183.849 127.725C183.961 136.613 191.35 143.87 200.239 143.826ZM67.8774 143.826C76.785 143.819 84.0918 136.545 84.1422 127.631C84.1986 118.775 76.9164 111.462 67.9584 111.368C58.9889 111.275 51.5255 118.693 51.563 127.663C51.6068 136.526 58.9827 143.833 67.8774 143.826ZM175.967 23.4571C175.967 26.4594 175.967 29.0691 175.967 31.7849C188.149 31.7849 200.195 31.7849 212.234 31.7849C212.371 26.9452 208.846 23.5256 203.72 23.4696C198.101 23.4136 192.481 23.4571 186.868 23.4571C183.287 23.4571 179.717 23.4571 175.967 23.4571ZM232.362 87.525C229.549 87.525 226.867 87.525 224.21 87.525C223.286 94.707 225.242 96.6372 232.362 95.5908C232.362 93 232.362 90.384 232.362 87.525Z" />
    <path
        d="M92.007 70.3464C101.383 60.978 110.597 51.7783 119.81 42.5785C121.573 40.8158 123.311 39.0158 125.124 37.3029C126.905 35.6149 129.006 35.5464 130.562 37.0101C132.156 38.5112 132.175 40.822 130.393 42.6034C118.542 54.4628 106.666 66.3036 94.7574 78.1068C92.8698 79.9818 90.9192 79.9194 88.9878 78.0132C82.4928 71.6046 76.0362 65.1576 69.5916 58.6921C67.7412 56.8298 67.6536 54.6933 69.2166 53.105C70.8546 51.442 72.9978 51.5478 74.9922 53.5099C80.043 58.4928 85.056 63.5196 90.0876 68.5272C90.6258 69.063 91.2006 69.5802 92.007 70.3464Z" />
    <path
        d="M127.945 111.319C119.194 111.319 110.449 111.319 101.698 111.312C100.916 111.312 100.129 111.337 99.3607 111.225C97.3663 110.932 96.2977 109.618 96.2161 107.731C96.1345 105.937 97.0789 104.579 98.8975 104.093C99.7105 103.875 100.598 103.85 101.448 103.85C119.182 103.838 136.909 103.838 154.643 103.844C155.186 103.844 155.743 103.832 156.28 103.9C158.48 104.199 159.924 105.838 159.793 107.83C159.668 109.768 158.212 111.2 156.061 111.275C153.255 111.368 150.436 111.312 147.629 111.312C141.065 111.325 134.509 111.319 127.945 111.319Z" />
    <path
        d="M35.8181 95.3436C28.092 95.3436 20.3597 95.3496 12.6337 95.3376C9.68339 95.331 7.97063 93.93 7.98941 91.6068C8.00819 89.3268 9.78965 87.8814 12.7025 87.8754C28.1608 87.8628 43.619 87.8754 59.0773 87.8628C60.8526 87.8628 62.5338 88.2924 63.1092 90.018C63.4776 91.1208 63.459 92.8896 62.7966 93.6492C61.9776 94.596 60.315 95.25 59.0023 95.2752C51.2763 95.418 43.544 95.3436 35.8181 95.3436Z" />
    <path
        d="M200.183 119.909C204.503 119.922 207.947 123.353 207.922 127.62C207.904 131.843 204.347 135.368 200.133 135.356C195.902 135.344 192.401 131.812 192.407 127.577C192.42 123.285 195.858 119.897 200.183 119.909Z" />
    <path
        d="M67.7873 119.908C72.1373 119.87 75.5441 123.209 75.5759 127.532C75.6065 131.823 72.1937 135.311 67.9307 135.355C63.7367 135.399 60.1361 131.867 60.0797 127.663C60.0173 123.433 63.4871 119.939 67.7873 119.908Z" />
</svg>