<svg viewBox="0 0 260 227" xmlns="http://www.w3.org/2000/svg">
    <path
        d="M166.864 101.944C174.037 101.954 179.876 96.122 179.876 88.9611C179.876 81.8036 174.042 75.9692 166.884 75.9692C119.036 75.9692 82.8937 89.7688 56.137 107.401C56.3507 105.918 56.6081 104.43 56.9134 102.937C63.0619 72.899 87.1169 48.5312 117.014 41.5774C130.019 38.5652 142.53 38.8237 154.064 41.568C183.263 48.5133 216.048 37.7594 232.504 9.27679C232.865 8.64977 233.452 8.37051 234.046 8.38784C234.611 8.40437 235.033 8.66411 235.277 9.20735C243.032 26.4263 247.432 47.6905 247.432 68.2067C247.432 128.713 214.355 178.74 165.594 194.862L165.451 194.909L165.311 194.965C156.122 198.605 146.153 200.67 135.708 200.67C106.035 200.67 78.4202 183.966 64.4523 157.422L61.3022 151.436L56.33 156.022C29.2577 180.994 21.6364 209.502 21.2025 211.3C20.4943 214.264 17.8344 216.28 14.8908 216.28C14.4071 216.28 13.8916 216.223 13.3592 216.099C9.88119 215.254 7.73539 211.744 8.56568 208.267C10.6963 199.508 21.2645 172.811 45.8771 148.369C70.3303 124.085 108.712 101.945 166.864 101.944Z"
        stroke-width="9" />
</svg>