<svg xmlns="http://www.w3.org/2000/svg">
	<symbol id="leaf" viewBox="0 0 25 23" fill="none">
		<path d="M10.2357 7.16388C8.43209 5.59039 6.7818 4.32403 5.09329 3.28784C4.86295 3.13428 4.55606 3.21106 4.44097 3.44139C4.28742 3.67173 4.36419 3.97863 4.59453 4.09371C6.20629 5.09143 7.85653 6.35799 9.6219 7.85451C11.7326 9.69664 13.0373 11.3852 13.8817 13.4193C14.8794 15.8369 15.4934 18.5234 15.7621 21.8618C15.8004 22.1305 15.9924 22.284 16.2225 22.284H16.2608C16.5295 22.2457 16.7213 22.0154 16.683 21.7851C16.4144 18.3697 15.7621 15.6063 14.7259 13.0739C13.843 10.9248 12.423 9.0824 10.2357 7.16388Z" fill="#0DA487" />
		<path d="M23.7441 3.21094C23.5523 3.21094 23.3219 3.24923 23.1301 3.24923L22.8615 3.28772C21.7869 3.40279 20.6739 3.55635 19.5995 3.97852C18.4482 4.4007 17.5655 5.12979 16.9515 6.16604C16.0305 7.70105 15.5315 9.38956 15.4165 11.1549V11.5003V11.8072C15.3397 12.0758 15.4932 12.3444 15.7234 12.4212C15.992 12.498 16.2606 12.3445 16.3374 12.1143C16.4142 11.884 16.4142 11.6539 16.3757 11.462V11.2317C16.4525 9.61992 16.9513 8.08492 17.7956 6.70332C18.2946 5.85896 18.9852 5.2834 19.9447 4.938C20.8656 4.59259 21.8251 4.43903 22.9381 4.32396L23.2067 4.28567C23.3603 4.28567 23.4753 4.24738 23.6289 4.24738C23.5906 4.5543 23.5906 4.86142 23.5521 5.16834C23.4753 5.97422 23.3986 6.7801 23.3218 7.58598C23.1682 8.92909 22.8996 9.96534 22.4774 10.848C22.0937 11.6923 21.5565 12.2296 20.8657 12.4982C20.4052 12.6901 19.9062 12.8051 19.369 12.8436C19.0621 12.8819 18.7167 12.8819 18.3713 12.8436C18.0259 12.8053 17.7189 12.7668 17.4118 12.7286C17.1432 12.6903 16.9129 12.8436 16.8363 13.1122C16.798 13.3809 16.9513 13.6112 17.22 13.6878C17.5654 13.7646 17.9108 13.8029 18.333 13.8414H18.8702C19.1005 13.8414 19.2924 13.8414 19.4842 13.8031C20.0983 13.7263 20.7123 13.6112 21.2496 13.3809C22.1705 12.9972 22.8613 12.3064 23.3986 11.2702C23.8976 10.2725 24.1662 9.12113 24.3196 7.70126C24.3963 6.89538 24.4731 6.0895 24.5499 5.28362C24.5882 4.93821 24.6267 4.55449 24.665 4.2091C24.7033 3.94047 24.6267 3.71013 24.4731 3.55678C24.2432 3.28775 24.0129 3.21097 23.7442 3.21097L23.7441 3.21094Z" fill="#0DA487" />
		<path d="M4.05737 10.4638C4.326 10.7707 4.63293 11.0779 4.94006 11.3465C5.40053 11.7302 5.8995 12.0373 6.39825 12.306C7.7799 12.9968 9.27637 13.1118 10.658 13.1503H11.3871H11.6558C11.9244 13.1503 12.1162 12.92 12.1162 12.6513C12.1162 12.3827 11.8859 12.1909 11.6173 12.1909H10.6578C9.353 12.1526 8.00983 12.0373 6.7818 11.4233C6.32132 11.1929 5.89911 10.9243 5.51544 10.5789C5.24681 10.3486 4.9782 10.0799 4.74783 9.8113C3.75012 8.66002 2.98251 7.35518 2.40695 5.85845C1.90799 4.59209 1.56259 3.21045 1.33243 1.59869C1.40921 1.59869 1.52428 1.59869 1.63935 1.63698H1.75442C3.0214 1.75245 4.4796 1.90581 5.93779 2.2129C6.16813 2.25119 6.39827 2.32797 6.62859 2.36646L7.12755 2.51982C8.5092 2.90351 9.9674 3.28742 11.2338 3.97801C12.2315 4.51525 13.0373 5.24437 13.5363 6.08873C13.8817 6.66429 14.0735 7.31681 14.0735 8.00761C14.0735 8.27624 14.0735 8.65993 14.0353 9.04381C13.997 9.31244 14.1888 9.54278 14.4574 9.58104C14.7261 9.61933 14.9564 9.42749 14.9947 9.15886C15.033 8.73667 15.033 8.27617 15.033 8.00758C15.033 7.12489 14.8026 6.31902 14.3422 5.58994C13.7281 4.59223 12.8072 3.74782 11.6559 3.13383C10.3128 2.4047 8.81605 2.02082 7.35785 1.59882L6.85889 1.44527C6.62855 1.36848 6.35992 1.3302 6.12976 1.25342C4.63309 0.9463 3.13636 0.792944 1.83152 0.716184L1.75474 0.677693C1.60118 0.677693 1.44782 0.639404 1.29426 0.639404C0.987344 0.677693 0.757026 0.792962 0.565138 0.984814C0.411581 1.17666 0.373291 1.44529 0.373291 1.67561C0.603629 3.36418 0.987334 4.86085 1.52457 6.20397C2.17688 7.81572 2.98276 9.19717 4.05729 10.4637L4.05737 10.4638Z" fill="#0DA487" />
	</symbol>
</svg>