<svg width="82" height="25" viewBox="0 0 82 25" fill="none" xmlns="http://www.w3.org/2000/svg">
<path d="M23.5122 13.82C23.5122 12.9 23.6456 12.0933 23.9122 11.4C24.1922 10.7067 24.5589 10.1333 25.0122 9.68C25.4656 9.21333 25.9856 8.86667 26.5722 8.64C27.1589 8.4 27.7589 8.28 28.3722 8.28C29.8122 8.28 30.9322 8.72667 31.7322 9.62C32.5456 10.5133 32.9522 11.8467 32.9522 13.62C32.9522 13.7533 32.9456 13.9067 32.9322 14.08C32.9322 14.24 32.9256 14.3867 32.9122 14.52H26.0122C26.0789 15.36 26.3722 16.0133 26.8922 16.48C27.4256 16.9333 28.1922 17.16 29.1922 17.16C29.7789 17.16 30.3122 17.1067 30.7922 17C31.2856 16.8933 31.6722 16.78 31.9522 16.66L32.2722 18.64C32.1389 18.7067 31.9522 18.78 31.7122 18.86C31.4856 18.9267 31.2189 18.9867 30.9122 19.04C30.6189 19.1067 30.2989 19.16 29.9522 19.2C29.6056 19.24 29.2522 19.26 28.8922 19.26C27.9722 19.26 27.1722 19.1267 26.4922 18.86C25.8122 18.58 25.2522 18.2 24.8122 17.72C24.3722 17.2267 24.0456 16.6533 23.8322 16C23.6189 15.3333 23.5122 14.6067 23.5122 13.82ZM30.5322 12.74C30.5322 12.4067 30.4856 12.0933 30.3922 11.8C30.2989 11.4933 30.1589 11.2333 29.9722 11.02C29.7989 10.7933 29.5789 10.62 29.3122 10.5C29.0589 10.3667 28.7522 10.3 28.3922 10.3C28.0189 10.3 27.6922 10.3733 27.4122 10.52C27.1322 10.6533 26.8922 10.8333 26.6922 11.06C26.5056 11.2867 26.3589 11.5467 26.2522 11.84C26.1456 12.1333 26.0722 12.4333 26.0322 12.74H30.5322ZM37.418 13.5C37.418 14.5267 37.638 15.28 38.078 15.76C38.5314 16.2267 39.1114 16.46 39.818 16.46C40.2047 16.46 40.5647 16.4067 40.898 16.3C41.2447 16.1933 41.5247 16.0667 41.738 15.92V10.5C41.5647 10.46 41.3514 10.4267 41.098 10.4C40.8447 10.36 40.5247 10.34 40.138 10.34C39.258 10.34 38.5847 10.6333 38.118 11.22C37.6514 11.7933 37.418 12.5533 37.418 13.5ZM44.158 17.94C44.158 19.6067 43.7314 20.8267 42.878 21.6C42.038 22.3733 40.7447 22.76 38.998 22.76C38.358 22.76 37.7314 22.7067 37.118 22.6C36.518 22.4933 35.9714 22.3533 35.478 22.18L35.918 20.12C36.3314 20.2933 36.798 20.4333 37.318 20.54C37.8514 20.6467 38.4247 20.7 39.038 20.7C40.0114 20.7 40.7047 20.5 41.118 20.1C41.5314 19.7 41.738 19.1067 41.738 18.32V17.92C41.498 18.04 41.178 18.16 40.778 18.28C40.3914 18.4 39.9447 18.46 39.438 18.46C38.7714 18.46 38.158 18.3533 37.598 18.14C37.0514 17.9267 36.578 17.6133 36.178 17.2C35.7914 16.7867 35.4847 16.2733 35.258 15.66C35.0447 15.0333 34.938 14.3133 34.938 13.5C34.938 12.74 35.0514 12.04 35.278 11.4C35.518 10.76 35.858 10.2133 36.298 9.76C36.7514 9.30667 37.298 8.95333 37.938 8.7C38.578 8.44667 39.3047 8.32 40.118 8.32C40.9047 8.32 41.6514 8.38 42.358 8.5C43.0647 8.62 43.6647 8.74667 44.158 8.88V17.94ZM50.9168 17.3C51.6634 17.3 52.2301 17.26 52.6168 17.18V14.5C52.4834 14.46 52.2901 14.42 52.0368 14.38C51.7834 14.34 51.5034 14.32 51.1968 14.32C50.9301 14.32 50.6568 14.34 50.3768 14.38C50.1101 14.42 49.8634 14.4933 49.6368 14.6C49.4234 14.7067 49.2501 14.86 49.1168 15.06C48.9834 15.2467 48.9168 15.4867 48.9168 15.78C48.9168 16.3533 49.0968 16.7533 49.4568 16.98C49.8168 17.1933 50.3034 17.3 50.9168 17.3ZM50.7168 8.28C51.5168 8.28 52.1901 8.38 52.7368 8.58C53.2834 8.78 53.7168 9.06 54.0368 9.42C54.3701 9.78 54.6034 10.22 54.7368 10.74C54.8834 11.2467 54.9568 11.8067 54.9568 12.42V18.76C54.5834 18.84 54.0168 18.9333 53.2568 19.04C52.5101 19.16 51.6634 19.22 50.7168 19.22C50.0901 19.22 49.5168 19.16 48.9968 19.04C48.4768 18.92 48.0301 18.7267 47.6568 18.46C47.2968 18.1933 47.0101 17.8467 46.7968 17.42C46.5968 16.9933 46.4968 16.4667 46.4968 15.84C46.4968 15.24 46.6101 14.7333 46.8368 14.32C47.0768 13.9067 47.3968 13.5733 47.7968 13.32C48.1968 13.0533 48.6568 12.8667 49.1768 12.76C49.7101 12.64 50.2634 12.58 50.8368 12.58C51.1034 12.58 51.3834 12.6 51.6768 12.64C51.9701 12.6667 52.2834 12.72 52.6168 12.8V12.4C52.6168 12.12 52.5834 11.8533 52.5168 11.6C52.4501 11.3467 52.3301 11.1267 52.1568 10.94C51.9968 10.74 51.7768 10.5867 51.4968 10.48C51.2301 10.3733 50.8901 10.32 50.4768 10.32C49.9168 10.32 49.4034 10.36 48.9368 10.44C48.4701 10.52 48.0901 10.6133 47.7968 10.72L47.4968 8.76C47.8034 8.65333 48.2501 8.54667 48.8368 8.44C49.4234 8.33333 50.0501 8.28 50.7168 8.28ZM60.3404 12.62C60.647 12.3 60.9737 11.96 61.3204 11.6C61.667 11.2267 62.007 10.86 62.3404 10.5C62.6737 10.1267 62.987 9.77333 63.2804 9.44C63.587 9.09333 63.847 8.79333 64.0604 8.54H66.9204C66.2537 9.28667 65.547 10.06 64.8004 10.86C64.067 11.66 63.327 12.44 62.5804 13.2C62.9804 13.5333 63.4004 13.94 63.8404 14.42C64.2804 14.8867 64.707 15.3867 65.1204 15.92C65.5337 16.4533 65.9204 16.9867 66.2804 17.52C66.6404 18.0533 66.9404 18.5467 67.1804 19H64.3804C64.1404 18.5867 63.8604 18.1533 63.5404 17.7C63.2337 17.2467 62.9004 16.8067 62.5404 16.38C62.1804 15.9533 61.8137 15.5533 61.4404 15.18C61.067 14.7933 60.7004 14.4667 60.3404 14.2V19H57.9204V3.88L60.3404 3.48V12.62ZM71.376 19H68.956V8.54H71.376V19ZM71.636 5.48C71.636 5.93333 71.4893 6.29333 71.196 6.56C70.9027 6.82667 70.556 6.96 70.156 6.96C69.7427 6.96 69.3893 6.82667 69.096 6.56C68.8027 6.29333 68.656 5.93333 68.656 5.48C68.656 5.01333 68.8027 4.64667 69.096 4.38C69.3893 4.11333 69.7427 3.98 70.156 3.98C70.556 3.98 70.9027 4.11333 71.196 4.38C71.4893 4.64667 71.636 5.01333 71.636 5.48ZM74.3433 5.78L76.7633 5.38V8.54H80.4833V10.56H76.7633V14.82C76.7633 15.66 76.8967 16.26 77.1633 16.62C77.43 16.98 77.8833 17.16 78.5233 17.16C78.9633 17.16 79.35 17.1133 79.6833 17.02C80.03 16.9267 80.3033 16.84 80.5033 16.76L80.9033 18.68C80.6233 18.8 80.2567 18.92 79.8033 19.04C79.35 19.1733 78.8167 19.24 78.2033 19.24C77.4567 19.24 76.83 19.14 76.3233 18.94C75.83 18.74 75.4367 18.4533 75.1433 18.08C74.85 17.6933 74.6433 17.2333 74.5233 16.7C74.4033 16.1533 74.3433 15.5333 74.3433 14.84V5.78Z" fill="white"/>
<path d="M11.9046 13.67C11.8781 13.3524 11.8481 13.0354 11.8124 12.7189C11.7955 12.5708 11.7782 12.4233 11.7592 12.2752C11.7509 12.2179 11.7428 12.1606 11.7343 12.1031C11.6539 11.5652 11.5598 11.0288 11.4354 10.4994C11.3997 10.347 11.3609 10.195 11.3201 10.0432C11.3149 10.0599 11.3086 10.076 11.3034 10.093C11.0613 10.8475 10.8709 11.6187 10.7054 12.3942C10.3285 14.1573 10.1028 15.9468 9.74882 17.7142C9.56976 18.6097 9.38593 19.5289 9.04704 20.3805C8.74147 21.149 8.36148 21.9019 7.51364 22.1751C5.89539 22.6965 5.13419 20.7445 4.76664 19.5811C4.33534 18.2166 4.04132 16.8101 3.70021 15.4211C3.63534 15.1565 3.56903 14.8921 3.50094 14.628C3.1205 16.4634 2.9239 18.3565 2.21235 20.092C2.20702 20.1051 2.20113 20.1189 2.1958 20.1319L8.43868 23.7492C9.08703 24.1248 9.96985 24.2858 10.8206 24.2338C10.8468 24.1822 10.8731 24.1311 10.8976 24.0788C10.9192 24.0328 10.9402 23.9871 10.9609 23.9409C11.0523 23.711 11.137 23.4779 11.211 23.2414C11.3875 22.6775 11.5271 22.1019 11.6359 21.521C11.6946 21.2084 11.7472 20.8943 11.7915 20.5793C11.7917 20.5779 11.7917 20.577 11.7923 20.5757C11.8008 20.5071 11.8096 20.4389 11.8176 20.3702C11.837 20.2049 11.8556 20.0394 11.8718 19.8734C11.9387 19.1942 11.9833 18.5123 12.0053 17.8298C12.0499 16.4435 12.0195 15.0527 11.9046 13.67Z" fill="#CDEAE2"/>
<path d="M14.7074 17.9164C14.6477 19.5208 14.5245 21.2241 14.1452 22.843L19.0549 19.9857C20.1939 19.3255 21.1044 17.7086 21.1044 16.3922V16.0019L13.0547 7.29614C13.581 7.9877 13.8405 8.94517 14.0329 9.78034C14.6423 12.4215 14.8079 15.2139 14.7074 17.9164Z" fill="#CDEAE2"/>
<path d="M19.0549 5.2586L12.5698 1.49492C11.4307 0.835025 9.57236 0.835025 8.43328 1.49492L2.00436 5.2586C0.865389 5.91872 0 7.53587 0 8.85189V16.3922C0 16.8013 0.0261031 17.2393 0.184385 17.6686C0.45652 16.5455 0.610583 15.4046 0.842841 14.2723C1.01856 13.4148 1.18162 12.5294 1.52118 11.7189C1.81108 11.0261 2.21107 10.169 3.04113 10.0068C3.93151 9.83335 4.64828 10.269 5.09514 11.0239L7.69941 13.7925C7.92867 12.4345 8.18359 11.0799 8.57724 9.76015C8.86215 8.80435 9.22159 7.49455 10.0451 6.83809C11.1156 5.98448 12.2544 6.24384 13.0548 7.29617L21.1043 16.0019V8.85189C21.1043 7.53587 20.1938 5.91872 19.0549 5.2586Z" fill="white"/>
<path d="M6.30881 14.7021C6.54584 15.6698 6.76044 16.6466 7.01513 17.6115C7.18186 16.8559 7.31637 16.0921 7.44278 15.3304C7.52775 14.8185 7.61094 14.3053 7.69758 13.7924L5.09131 11.0237C5.73921 12.1187 6.00946 13.4804 6.30881 14.7021Z" fill="#CDEAE2"/>
</svg>
