<svg width="0" height="0" fill="none" style="visibility: hidden; position: absolute;" aria-hidden="true">
    <symbol id="bezier" viewBox="0 0 44 44" xmlns="http://www.w3.org/2000/svg">
        <path d="M5.4987 16.4998C7.52374 16.4998 9.16536 14.8582 9.16536 12.8332C9.16536 10.8081 7.52374 9.1665 5.4987 9.1665C3.47365 9.1665 1.83203 10.8081 1.83203 12.8332C1.83203 14.8582 3.47365 16.4998 5.4987 16.4998Z"/>
        <path d="M38.4987 16.4998C40.5237 16.4998 42.1654 14.8582 42.1654 12.8332C42.1654 10.8081 40.5237 9.1665 38.4987 9.1665C36.4737 9.1665 34.832 10.8081 34.832 12.8332C34.832 14.8582 36.4737 16.4998 38.4987 16.4998Z"/>
        <path d="M34.8333 12.8333H27.5" stroke-width="1.5" stroke-miterlimit="10" stroke-linecap="round" stroke-linejoin="round"/>
        <path d="M16.4974 12.8333H9.16406" stroke-width="1.5" stroke-miterlimit="10" stroke-linecap="round" stroke-linejoin="round"/>
        <path d="M13.7487 30.25V33.9167C13.7487 35.035 13.0704 36.0066 12.117 36.41C11.7687 36.575 11.402 36.6667 10.9987 36.6667H7.33203C5.81036 36.6667 4.58203 35.4383 4.58203 33.9167V30.25C4.58203 28.7283 5.81036 27.5 7.33203 27.5H10.9987C12.5204 27.5 13.7487 28.7283 13.7487 30.25Z"/>
        <path d="M39.4167 30.25V33.9167C39.4167 35.4383 38.1883 36.6667 36.6667 36.6667H33C32.5967 36.6667 32.23 36.575 31.8817 36.41C30.9283 36.0066 30.25 35.035 30.25 33.9167V30.25C30.25 28.7283 31.4783 27.5 33 27.5H36.6667C38.1883 27.5 39.4167 28.7283 39.4167 30.25Z"/>
        <path d="M27.5 10.0833V15.5833C27.5 17.0866 26.2533 18.3333 24.75 18.3333H19.25C17.7467 18.3333 16.5 17.0866 16.5 15.5833V10.0833C16.5 8.57992 17.7467 7.33325 19.25 7.33325H24.75C26.2533 7.33325 27.5 8.57992 27.5 10.0833Z"/>
        <path d="M27.5 14.1716C31.845 16.3716 34.8333 21.1017 34.8333 26.5833C34.8333 26.895 34.815 27.1883 34.7783 27.5" stroke-width="1.5" stroke-miterlimit="10" stroke-linecap="round" stroke-linejoin="round"/>
        <path d="M9.21906 27.5C9.1824 27.1883 9.16406 26.895 9.16406 26.5833C9.16406 21.1017 12.1524 16.3716 16.4974 14.1716" stroke-width="1.5" stroke-miterlimit="10" stroke-linecap="round" stroke-linejoin="round"/>
    </symbol>
    <symbol id="html-3" viewBox="0 0 44 44" xmlns="http://www.w3.org/2000/svg">
        <path d="M7.51693 3.66675H36.4836C37.5836 3.66675 38.5003 4.58341 38.3169 5.68341L35.0169 35.3834C35.0169 36.1167 34.4669 36.6668 33.7336 37.0334L22.5503 40.1501C22.1836 40.3334 21.8169 40.3334 21.6336 40.1501L10.4503 37.0334C9.71693 36.8501 9.16693 36.3001 9.16693 35.3834L5.68359 5.68341C5.68359 4.58341 6.41693 3.66675 7.51693 3.66675Z" stroke-width="1.5" stroke-miterlimit="10" stroke-linecap="round" stroke-linejoin="round"/>
        <path d="M13.75 12.8333H30.25L28.4167 29.3333L22 31.1666L15.5833 29.3333L14.6667 25.6666" stroke-width="1.5" stroke-miterlimit="10" stroke-linecap="round" stroke-linejoin="round"/>
        <path d="M14.668 20.1667H29.518" stroke-width="1.5" stroke-miterlimit="10" stroke-linecap="round" stroke-linejoin="round"/>
    </symbol>
    <symbol id="like-shapes" viewBox="0 0 50 50" xmlns="http://www.w3.org/2000/svg">
        <g id="vuesax/linear/like-shapes__like-shapes">
            <g id="like-shapes__like-shapes">
                <path id="Vector__like-shapes" d="M22.3984 5.10352C23.8359 3.87435 26.1901 3.87435 27.6484 5.10352L30.9401 7.93707C31.5651 8.47874 32.7317 8.91618 33.5651 8.91618H37.1068C39.3151 8.91618 41.1276 10.7285 41.1276 12.9369V16.4787C41.1276 17.2912 41.5651 18.4787 42.1067 19.1037L44.9401 22.3953C46.1693 23.8328 46.1693 26.187 44.9401 27.6453L42.1067 30.9369C41.5651 31.5619 41.1276 32.7286 41.1276 33.5619V37.1037C41.1276 39.3121 39.3151 41.1244 37.1068 41.1244H33.5651C32.7526 41.1244 31.5651 41.5619 30.9401 42.1035L27.6484 44.9368C26.2109 46.166 23.8568 46.166 22.3984 44.9368L19.1068 42.1035C18.4818 41.5619 17.3151 41.1244 16.4818 41.1244H12.8776C10.6693 41.1244 8.85677 39.3121 8.85677 37.1037V33.5411C8.85677 32.7286 8.41928 31.5619 7.89845 30.9369L5.08594 27.6245C3.8776 26.187 3.8776 23.8536 5.08594 22.4161L7.89845 19.1037C8.41928 18.4787 8.85677 17.312 8.85677 16.4995V12.9369C8.85677 10.7285 10.6693 8.91618 12.8776 8.91618H16.4818C17.2943 8.91618 18.4818 8.47874 19.1068 7.93707L22.3984 5.10352Z" stroke-width="2" stroke-linecap="round" stroke-linejoin="round"/>
                <g id="Group__like-shapes">
                    <path id="Vector_2__like-shapes" d="M20.6042 30.8742L23.625 33.2075C24.0208 33.6033 24.8959 33.7909 25.4792 33.7909H29.1667C30.3333 33.7909 31.6042 32.9159 31.8958 31.7492L34.2292 24.6242C34.7083 23.27 33.8334 22.0825 32.375 22.0825H28.4792C27.8959 22.0825 27.4167 21.6035 27.5 20.916L27.9792 17.791C28.1667 16.916 27.5834 15.9368 26.7084 15.6451C25.9375 15.3535 24.9584 15.7492 24.5625 16.3325L20.5625 22.27" stroke-width="2" stroke-miterlimit="10"/>
                    <path id="Vector_3__like-shapes" d="M15.625 30.8741V21.3325C15.625 19.9575 16.2083 19.4783 17.5833 19.4783H18.5625C19.9167 19.4783 20.5208 19.9575 20.5208 21.3325V30.8741C20.5208 32.2282 19.9375 32.7283 18.5625 32.7283H17.5833C16.2083 32.7283 15.625 32.2491 15.625 30.8741Z" stroke-width="2" stroke-linecap="round" stroke-linejoin="round"/>
                </g>
            </g>
        </g>
    </symbol>
    <symbol id="medal-star" viewBox="0 0 50 50" xmlns="http://www.w3.org/2000/svg">
        <g id="vuesax/linear/medal-star__medal-star">
            <g id="vuesax/linear/medal-star_2__medal-star">
                <g id="medal-star__medal-star">
                    <path id="Vector__medal-star" d="M39.5846 18.75C39.5846 21.7708 38.6888 24.5417 37.1471 26.8542C34.8971 30.1875 31.3346 32.5417 27.1888 33.1458C26.4805 33.2708 25.7513 33.3333 25.0013 33.3333C24.2513 33.3333 23.5221 33.2708 22.8138 33.1458C18.668 32.5417 15.1055 30.1875 12.8555 26.8542C11.3138 24.5417 10.418 21.7708 10.418 18.75C10.418 10.6875 16.9388 4.16667 25.0013 4.16667C33.0638 4.16667 39.5846 10.6875 39.5846 18.75Z" stroke-width="2" stroke-linecap="round" stroke-linejoin="round"/>
                    <path id="Vector_2__medal-star" d="M44.2721 38.4792L40.8346 39.2916C40.0637 39.4791 39.4596 40.0625 39.2929 40.8333L38.5637 43.8958C38.1679 45.5625 36.0429 46.0625 34.9387 44.75L25.0012 33.3333L15.0637 44.7708C13.9596 46.0833 11.8346 45.5833 11.4387 43.9166L10.7096 40.8541C10.5221 40.0833 9.91789 39.4792 9.16789 39.3125L5.73039 38.5C4.14706 38.125 3.58456 36.1458 4.73039 35L12.8554 26.875C15.1054 30.2083 18.6679 32.5625 22.8137 33.1667C23.5221 33.2917 24.2512 33.3542 25.0012 33.3542C25.7512 33.3542 26.4804 33.2917 27.1887 33.1667C31.3346 32.5625 34.8971 30.2083 37.1471 26.875L45.2721 35C46.4179 36.125 45.8554 38.1042 44.2721 38.4792Z" stroke-width="2" stroke-linecap="round" stroke-linejoin="round"/>
                    <path id="Vector_3__medal-star" d="M26.2071 12.4583L27.4363 14.9167C27.603 15.25 28.0405 15.5833 28.4363 15.6458L30.6655 16.0208C32.0821 16.25 32.4155 17.2917 31.3946 18.3125L29.6655 20.0416C29.3738 20.3333 29.2071 20.8958 29.3113 21.3125L29.8113 23.4583C30.2071 25.1458 29.3113 25.8125 27.8113 24.9166L25.728 23.6875C25.353 23.4583 24.728 23.4583 24.353 23.6875L22.2696 24.9166C20.7696 25.7916 19.8738 25.1458 20.2696 23.4583L20.7696 21.3125C20.853 20.9167 20.7071 20.3333 20.4155 20.0416L18.6863 18.3125C17.6655 17.2917 17.9988 16.2708 19.4155 16.0208L21.6446 15.6458C22.0196 15.5833 22.4571 15.25 22.6238 14.9167L23.853 12.4583C24.4571 11.125 25.5405 11.125 26.2071 12.4583Z" stroke-width="2" stroke-linecap="round" stroke-linejoin="round"/>
                </g>
            </g>
        </g>
    </symbol>
    <symbol id="messages" viewBox="0 0 50 50" xmlns="http://www.w3.org/2000/svg">
        <g id="vuesax/linear/messages__messages">
            <g id="vuesax/linear/messages_2__messages">
                <g id="messages__messages">
                    <g id="Group__messages">
                        <path id="Vector__messages" d="M37.4558 22.4792V30.8125C37.4558 31.3542 37.4349 31.875 37.3724 32.375C36.8932 38 33.5807 40.7916 27.4766 40.7916H26.6432C26.1224 40.7916 25.6224 41.0417 25.3099 41.4583L22.8099 44.7917C21.7058 46.2708 19.9141 46.2708 18.8099 44.7917L16.3099 41.4583C16.039 41.1042 15.4349 40.7916 14.9766 40.7916H14.1432C7.49741 40.7916 4.16406 39.1459 4.16406 30.8125V22.4792C4.16406 16.375 6.97658 13.0625 12.5807 12.5834C13.0807 12.5209 13.6016 12.5 14.1432 12.5H27.4766C34.1224 12.5 37.4558 15.8334 37.4558 22.4792Z" stroke-width="2" stroke-miterlimit="10" stroke-linecap="round" stroke-linejoin="round"/>
                    </g>
                    <path id="Vector_2__messages" d="M45.7943 14.1459V22.4792C45.7943 28.6042 42.9818 31.8959 37.3776 32.375C37.4401 31.875 37.4609 31.3542 37.4609 30.8125V22.4792C37.4609 15.8334 34.1276 12.5 27.4818 12.5H14.1484C13.6068 12.5 13.0859 12.5209 12.5859 12.5834C13.0651 6.9792 16.3776 4.16669 22.4818 4.16669H35.8151C42.4609 4.16669 45.7943 7.50004 45.7943 14.1459Z" stroke-width="2" stroke-miterlimit="10" stroke-linecap="round" stroke-linejoin="round"/>
                    <path id="Vector_3__messages" d="M28.1182 27.6042H28.137" stroke-width="3" stroke-linecap="round" stroke-linejoin="round"/>
                    <path id="Vector_4__messages" d="M20.8214 27.6042H20.8401" stroke-width="3" stroke-linecap="round" stroke-linejoin="round"/>
                    <path id="Vector_5__messages" d="M13.5323 27.6042H13.551" stroke-width="3" stroke-linecap="round" stroke-linejoin="round"/>
                </g>
            </g>
        </g>
    </symbol>
    <symbol id="user-tag" viewBox="0 0 50 50" xmlns="http://www.w3.org/2000/svg">
        <g id="vuesax/linear/user-tag__user-tag">
            <g id="vuesax/linear/user-tag_2__user-tag">
                <g id="user-tag__user-tag">
                    <path id="Vector__user-tag" d="M37.5 39.2916H35.9166C34.25 39.2916 32.6667 39.9375 31.5 41.1041L27.9374 44.625C26.3124 46.2291 23.6667 46.2291 22.0417 44.625L18.4792 41.1041C17.3125 39.9375 15.7083 39.2916 14.0625 39.2916H12.5C9.04167 39.2916 6.25 36.5209 6.25 33.1042V10.375C6.25 6.95829 9.04167 4.18752 12.5 4.18752H37.5C40.9583 4.18752 43.75 6.95829 43.75 10.375V33.1042C43.75 36.5 40.9583 39.2916 37.5 39.2916Z" stroke-width="2" stroke-miterlimit="10" stroke-linecap="round" stroke-linejoin="round"/>
                    <g id="Group__user-tag">
                        <path id="Vector_2__user-tag" d="M25.0026 20.8333C27.6835 20.8333 29.8568 18.66 29.8568 15.9791C29.8568 13.2983 27.6835 11.1251 25.0026 11.1251C22.3218 11.1251 20.1484 13.2983 20.1484 15.9791C20.1484 18.66 22.3218 20.8333 25.0026 20.8333Z" stroke-width="2" stroke-linecap="round" stroke-linejoin="round"/>
                        <path id="Vector_3__user-tag" d="M33.3346 32.6249C33.3346 28.8749 29.6055 25.8334 25.0013 25.8334C20.3971 25.8334 16.668 28.8749 16.668 32.6249" stroke-width="2" stroke-linecap="round" stroke-linejoin="round"/>
                    </g>
                </g>
            </g>
        </g>
    </symbol>
</svg>