<svg width="38" height="42" viewBox="0 0 38 42" fill="none" xmlns="http://www.w3.org/2000/svg">
<mask id="path-1-inside-1_782_362" fill="white">
<path d="M16.5 4C12.1239 4 7.92709 5.79107 4.83274 8.97918C1.73839 12.1673 3.82568e-07 16.4913 0 21C-3.82568e-07 25.5087 1.73839 29.8327 4.83274 33.0208C7.92709 36.2089 12.1239 38 16.5 38L16.5 21V4Z"/>
</mask>
<path d="M16.5 4C12.1239 4 7.92709 5.79107 4.83274 8.97918C1.73839 12.1673 3.82568e-07 16.4913 0 21C-3.82568e-07 25.5087 1.73839 29.8327 4.83274 33.0208C7.92709 36.2089 12.1239 38 16.5 38L16.5 21V4Z" fill="#CDFC65" stroke="#0E0D0D" stroke-width="2" mask="url(#path-1-inside-1_782_362)"/>
<mask id="path-2-inside-2_782_362" fill="white">
<path d="M38 0C32.6957 -6.64162e-08 27.6086 2.21249 23.8579 6.15076C20.1071 10.089 18 15.4305 18 21C18 26.5695 20.1071 31.911 23.8579 35.8492C27.6086 39.7875 32.6957 42 38 42L38 21V0Z"/>
</mask>
<path d="M38 0C32.6957 -6.64162e-08 27.6086 2.21249 23.8579 6.15076C20.1071 10.089 18 15.4305 18 21C18 26.5695 20.1071 31.911 23.8579 35.8492C27.6086 39.7875 32.6957 42 38 42L38 21V0Z" fill="#0E0D0D" stroke="#0E0D0D" stroke-width="2" mask="url(#path-2-inside-2_782_362)"/>
</svg>
