<svg width="255" height="210" viewBox="0 0 255 210" fill="none" xmlns="http://www.w3.org/2000/svg">
<path fill-rule="evenodd" clip-rule="evenodd" d="M24.1638 70.1819C30.7297 77.9162 37.3239 85.6278 43.9463 93.3165C45.0454 94.3814 46.2152 95.3707 47.4478 96.2777C47.8272 95.0036 48.2732 93.7503 48.7837 92.5229C49.782 89.7861 51.0699 87.1639 52.6255 84.7009C58.2704 77.5738 64.9516 71.3331 72.4465 66.1867C78.0457 62.1701 83.6698 57.9238 89.2801 53.8051C91.3619 52.1869 93.541 50.6979 95.8051 49.3463C97.8125 47.9701 100.197 47.2507 102.631 47.2874C105.065 47.324 107.427 48.1149 109.392 49.551C110.23 50.1581 111.161 50.6204 111.937 51.0916C114.324 50.2653 115.148 48.8567 114.087 46.7277C113.335 45.3141 112.431 43.9868 111.391 42.7692C104.005 33.7066 93.498 17.205 86.14 8.11968C78.778 6.47102 57.9005 10.6424 39.6367 25.5032C26.7755 36.0163 14.7354 61.8539 14.465 62.4444C15.3983 63.6041 23.0884 68.9035 24.1638 70.1819Z" fill="white"/>
<path fill-rule="evenodd" clip-rule="evenodd" d="M171.785 171.24C166.744 177.254 163.747 177.988 158.487 174.811C153.566 171.575 149.113 167.678 145.253 163.231C143.569 161.567 141.79 160.003 139.923 158.548C139.683 158.445 139.42 158.404 139.16 158.43C138.9 158.456 138.65 158.548 138.435 158.697C137.918 159.183 137.288 159.993 137.383 160.546C137.557 161.845 138.053 163.08 138.828 164.137C142.403 168.087 146.061 171.995 149.873 175.661C151.995 177.511 154.222 179.235 156.545 180.824C155.531 182.316 154.966 183.959 153.809 184.634C152.416 185.4 150.797 185.646 149.24 185.328C144.216 184.361 139.615 181.86 136.07 178.17C133.59 175.32 131.339 172.494 128.909 169.649C127.925 168.483 126.743 167.477 125.762 166.519C123.091 167.341 122.523 169.009 123.552 170.954C125.971 176.343 129.745 181.013 134.506 184.508C136.217 185.649 137.831 186.96 139.28 188.124C139.121 189.255 138.589 190.301 137.769 191.097C136.949 191.892 135.887 192.391 134.751 192.514C132.91 192.729 131.052 192.309 129.482 191.325C125.571 188.557 121.932 185.422 118.616 181.963C106.859 169.153 96.0986 155.463 86.4296 141.011C85.5125 139.689 84.6872 138.306 83.9596 136.87C80.7036 130.444 76.7611 124.39 72.201 118.813C65.6363 110.511 65.6648 107.622 73.8534 99.9602C80.1336 94.1839 86.4649 88.413 92.93 82.8374C100.456 76.8331 108.767 71.8851 117.633 68.1309C119.152 67.6911 120.751 67.6079 122.307 67.8878C133.538 68.6849 144.465 71.8928 154.344 77.2931C159.236 79.8108 163.014 84.2737 167.124 88.0497C176.761 96.8392 186.18 105.967 195.868 114.762C198.807 117.43 202.396 119.342 205.596 121.754C206.118 122.069 206.56 122.5 206.891 123.012C207.221 123.525 207.429 124.106 207.501 124.711C207.572 125.317 207.505 125.931 207.303 126.506C207.101 127.081 206.771 127.603 206.337 128.032C205.205 129.436 203.792 130.588 202.189 131.416C200.586 132.243 198.828 132.726 197.027 132.835C195.226 132.944 193.423 132.676 191.732 132.049C190.041 131.421 188.499 130.447 187.206 129.19C182.353 124.636 177.681 119.844 172.918 115.171C170.581 112.904 168.375 110.625 166.027 108.46C165.241 107.765 164.306 107.258 163.295 106.977C162.919 106.919 162.535 106.944 162.171 107.052C161.806 107.16 161.471 107.348 161.187 107.601C160.746 108.096 160.455 109.355 160.774 109.751C162.288 111.94 164.046 113.949 166.014 115.741C170.934 120.218 175.539 125.03 179.794 130.144C185.884 136.871 192.259 143.345 198.753 149.677C207.163 157.869 215.808 165.803 224.39 173.833C227.071 176.066 229.125 178.958 230.351 182.224C230.847 183.338 230.929 184.592 230.585 185.761C230.241 186.93 229.493 187.938 228.473 188.606C226.352 190.481 223.756 191.735 220.969 192.231C218.182 192.726 215.312 192.445 212.675 191.416C207.395 189.534 202.369 187.004 197.712 183.884C184.143 173.971 170.53 163.977 160.315 150.27C159.999 149.849 159.632 149.189 159.246 149.173C158.275 149.02 157.28 149.136 156.369 149.508C156.117 149.791 155.94 150.133 155.855 150.503C155.77 150.873 155.779 151.259 155.882 151.624C156.48 152.804 157.229 153.901 158.112 154.887C162.641 160.283 167.079 165.566 171.785 171.24Z" fill="white"/>
<path fill-rule="evenodd" clip-rule="evenodd" d="M171.785 171.24C166.744 177.254 163.747 177.988 158.487 174.811C153.566 171.575 149.113 167.678 145.253 163.231C143.569 161.567 141.79 160.003 139.923 158.548C139.683 158.445 139.42 158.404 139.16 158.43C138.9 158.456 138.65 158.548 138.435 158.697C137.918 159.183 137.288 159.993 137.383 160.546C137.557 161.845 138.053 163.08 138.828 164.137C142.403 168.087 146.061 171.995 149.873 175.661C151.995 177.511 154.222 179.235 156.545 180.824C155.531 182.316 154.966 183.959 153.809 184.634C152.416 185.4 150.797 185.646 149.24 185.328C144.216 184.361 139.615 181.86 136.07 178.17C133.59 175.32 131.339 172.494 128.909 169.649C127.925 168.483 126.743 167.477 125.762 166.519C123.091 167.341 122.523 169.009 123.552 170.954C125.971 176.343 129.745 181.013 134.506 184.508C136.217 185.649 137.831 186.96 139.28 188.124C139.121 189.255 138.589 190.301 137.769 191.097C136.949 191.892 135.887 192.391 134.751 192.514C132.91 192.729 131.052 192.309 129.482 191.325C125.571 188.557 121.932 185.422 118.616 181.963C106.859 169.153 96.0986 155.463 86.4296 141.011C85.5125 139.689 84.6872 138.306 83.9596 136.87C80.7036 130.444 76.7611 124.39 72.201 118.813C65.6363 110.511 65.6648 107.622 73.8534 99.9602C80.1336 94.1839 86.4649 88.413 92.93 82.8374C100.456 76.8331 108.767 71.8851 117.633 68.1309C119.152 67.6911 120.751 67.6079 122.307 67.8878C133.538 68.6849 144.465 71.8928 154.344 77.2931C159.236 79.8108 163.014 84.2737 167.124 88.0497C176.761 96.8392 186.18 105.967 195.868 114.762C198.807 117.43 202.396 119.342 205.596 121.754C206.118 122.069 206.56 122.5 206.891 123.012C207.221 123.525 207.429 124.106 207.501 124.711C207.572 125.317 207.505 125.931 207.303 126.506C207.101 127.081 206.771 127.603 206.337 128.032C205.205 129.436 203.792 130.588 202.189 131.416C200.586 132.243 198.828 132.726 197.027 132.835C195.226 132.944 193.423 132.676 191.732 132.049C190.041 131.421 188.499 130.447 187.206 129.19C182.353 124.636 177.681 119.844 172.918 115.171C170.581 112.904 168.375 110.625 166.027 108.46C165.241 107.765 164.306 107.257 163.295 106.977C162.919 106.919 162.535 106.944 162.171 107.052C161.806 107.16 161.471 107.348 161.187 107.601C160.746 108.096 160.455 109.355 160.774 109.751C162.288 111.94 164.046 113.949 166.014 115.741C170.934 120.218 175.539 125.03 179.794 130.144C185.884 136.871 192.259 143.345 198.753 149.677C207.163 157.869 215.808 165.803 224.39 173.833C227.071 176.066 229.125 178.958 230.351 182.224C230.847 183.338 230.929 184.592 230.585 185.761C230.241 186.93 229.493 187.938 228.473 188.606C226.352 190.481 223.756 191.735 220.969 192.231C218.182 192.726 215.312 192.445 212.675 191.416C207.395 189.534 202.369 187.004 197.712 183.884C184.143 173.971 170.53 163.977 160.315 150.27C159.999 149.849 159.632 149.189 159.246 149.173C158.275 149.02 157.28 149.136 156.369 149.508C156.117 149.791 155.94 150.133 155.855 150.503C155.77 150.873 155.779 151.259 155.882 151.624C156.48 152.804 157.229 153.901 158.112 154.887C162.641 160.283 167.079 165.566 171.785 171.24Z" fill="white"/>
<path fill-rule="evenodd" clip-rule="evenodd" d="M100.161 53.484C97.3988 55.1477 95.0034 57.2384 92.4715 59.1595C87.5829 62.814 82.7598 66.5788 77.8001 70.174C71.2568 74.7646 65.2233 80.0419 59.8025 85.9158C52.6529 93.9997 55.3101 95.2168 59.177 101.006C59.8888 102.065 60.7987 102.964 62.3066 104.78C65.9938 97.4314 72.0724 93.5183 77.3378 88.7684C81.2882 85.1932 85.2869 81.649 89.4422 78.3284C92.5746 75.8803 95.8703 73.6485 99.3063 71.6486C103.903 69.0213 108.719 66.7534 113.639 64.2386C112.054 60.525 109.649 57.2188 106.603 54.5683C106.258 54.0659 105.815 53.6382 105.301 53.3104C104.787 52.9827 104.213 52.7617 103.612 52.6605C103.011 52.5593 102.396 52.5801 101.803 52.7216C101.21 52.8631 100.652 53.1223 100.161 53.484Z" fill="#CDFC65"/>
<path fill-rule="evenodd" clip-rule="evenodd" d="M52.1869 102.832C49.7303 102.893 47.291 102.406 45.0454 101.409C42.7998 100.411 40.8039 98.9267 39.2021 97.0633C31.6479 88.7572 24.1588 80.4066 16.7348 72.0114C15.3994 70.316 14.2815 68.46 13.4073 66.4867C12.9755 65.8027 12.8327 64.9753 13.01 64.186C13.1874 63.3968 13.6705 62.7101 14.3535 62.2766C15.0654 61.8907 15.892 61.7726 16.6835 61.9435C17.475 62.1144 18.1792 62.563 18.6685 63.2082C20.6254 65.4083 22.2967 67.8617 24.1744 70.079C30.7403 77.8133 37.3345 85.5248 43.9569 93.2135C45.056 94.2785 46.2258 95.2678 47.4584 96.1747C47.8378 94.9006 48.2837 93.6474 48.7943 92.42C49.7926 89.6832 51.0805 87.061 52.636 84.598C58.281 77.4709 64.9622 71.2302 72.4571 66.0838C78.0563 62.0672 83.6804 57.8209 89.2906 53.7022C91.3725 52.084 93.5516 50.595 95.8157 49.2434C97.823 47.8672 100.208 47.1478 102.642 47.1845C105.075 47.2211 107.437 48.012 109.402 49.448C110.241 50.0551 111.172 50.5175 111.947 50.9887C114.335 50.1624 115.159 48.7538 114.098 46.6248C113.346 45.2112 112.441 43.8838 111.401 42.6662C103.967 33.5726 96.4785 24.499 89.075 15.3571C87.7634 13.7086 86.5972 11.9494 85.5896 10.0994C85.5089 9.73271 85.5178 9.35196 85.6154 8.98943C85.7131 8.6269 85.8966 8.29329 86.1506 8.01678C86.4441 7.77173 86.7851 7.59004 87.1522 7.48311C87.5193 7.37617 87.9045 7.34625 88.2837 7.39534C89.3208 7.5909 90.2928 8.04225 91.1114 8.70841C92.8737 10.3382 94.5222 12.0869 96.0455 13.9421C102.735 22.2837 109.314 30.6908 115.944 39.1034C116.445 39.7257 116.918 40.3708 117.362 41.0386C121.454 47.1366 121.401 48.3446 116.799 54.3542C116.533 54.8054 116.317 55.2842 116.154 55.7822C116.248 57.2758 116.88 58.685 117.933 59.7485C118.986 60.8121 120.388 61.4579 121.881 61.5664C125.843 62.1758 129.731 63.242 133.67 63.8232C147.607 65.4904 160.438 72.239 169.709 82.7771C180.308 94.847 193.16 104.708 205.316 115.035C207.239 116.465 209.027 118.068 210.66 119.822C211.478 120.71 212.114 121.75 212.529 122.883C212.945 124.017 213.132 125.221 213.081 126.428C213.03 127.634 212.741 128.818 212.23 129.912C211.72 131.006 210.999 131.989 210.107 132.803C208.125 134.542 205.943 136.04 203.608 137.265C201.998 138.075 200.327 138.758 198.61 139.306C199.395 140.642 200.285 141.912 201.272 143.106C207.1 148.902 213.082 154.713 218.813 160.705C223.246 165.316 227.589 170.047 231.623 175.002C233.547 177.553 235.069 180.383 236.139 183.393C236.744 184.906 236.843 186.574 236.421 188.148C236 189.723 235.08 191.118 233.799 192.126C230.829 195.067 227.095 197.118 223.019 198.046C218.944 198.974 214.69 198.743 210.739 197.378C203.86 195.135 197.408 191.748 191.655 187.36C186.887 183.694 181.979 179.883 176.76 175.858C174.548 177.691 172.193 179.345 169.717 180.803C166.961 181.868 164.124 182.709 161.233 183.32C158.098 188.429 153.46 192.395 145.965 190.061C144.255 191.786 142.819 193.361 141.278 194.718C139.14 196.777 136.377 198.066 133.426 198.383C130.474 198.699 127.501 198.025 124.975 196.466C121.788 194.51 118.884 192.128 116.342 189.386C106.544 178.789 97.5121 167.508 89.3156 155.629C83.089 146.589 77.6861 137.095 72.1473 127.665C69.8054 124.097 67.1928 120.715 64.3327 117.549C60.4912 112.717 56.5312 108.028 52.1869 102.832ZM171.785 171.24C167.079 165.566 162.641 160.283 158.234 154.951C157.351 153.966 156.602 152.869 156.004 151.689C155.901 151.323 155.892 150.938 155.977 150.568C156.062 150.198 156.239 149.856 156.492 149.572C157.402 149.201 158.397 149.085 159.368 149.238C159.751 149.279 160.122 149.913 160.438 150.335C170.653 164.042 184.265 174.036 197.834 183.948C202.491 187.068 207.517 189.598 212.797 191.481C215.434 192.509 218.304 192.791 221.091 192.295C223.878 191.8 226.474 190.546 228.595 188.671C229.615 188.003 230.363 186.994 230.708 185.825C231.052 184.656 230.969 183.403 230.474 182.289C229.247 179.022 227.193 176.131 224.512 173.897C215.93 165.867 207.285 157.934 198.875 149.742C192.381 143.41 186.006 136.936 179.917 130.208C175.661 125.095 171.057 120.283 166.136 115.806C164.168 114.014 162.41 112.004 160.896 109.816C160.577 109.42 160.869 108.16 161.31 107.666C161.593 107.412 161.929 107.225 162.293 107.117C162.658 107.009 163.042 106.983 163.417 107.042C164.429 107.322 165.363 107.829 166.149 108.525C168.497 110.69 170.831 112.983 173.041 115.236C177.701 119.898 182.475 124.701 187.328 129.254C188.621 130.512 190.163 131.486 191.854 132.113C193.545 132.741 195.349 133.009 197.149 132.9C198.95 132.791 200.708 132.307 202.311 131.48C203.914 130.653 205.327 129.5 206.459 128.096C206.893 127.668 207.223 127.146 207.425 126.571C207.627 125.995 207.695 125.382 207.623 124.776C207.552 124.171 207.343 123.589 207.013 123.077C206.683 122.564 206.24 122.134 205.718 121.818C202.519 119.406 198.929 117.494 195.99 114.827C186.303 106.031 176.878 96.955 167.247 88.1144C163.136 84.3385 159.282 79.8672 154.466 77.3578C144.587 71.9575 133.66 68.7496 122.43 67.9525C120.873 67.6726 119.274 67.7558 117.755 68.1956C108.889 71.9498 100.578 76.8977 93.0522 82.9021C86.5843 88.5032 80.2558 94.2485 73.9755 100.025C65.6594 107.673 65.7585 110.576 72.3232 118.878C76.8489 124.481 80.7544 130.557 83.9714 137.001C84.699 138.436 85.5243 139.819 86.4414 141.141C96.1163 155.567 106.879 169.232 118.637 182.017C121.953 185.476 125.591 188.61 129.502 191.378C131.072 192.363 132.93 192.783 134.771 192.568C135.907 192.444 136.969 191.945 137.789 191.15C138.609 190.355 139.141 189.309 139.3 188.177C137.723 187 136.109 185.689 134.527 184.562C129.672 181.042 125.83 176.307 123.384 170.832C122.355 168.888 122.821 167.208 125.594 166.397C126.575 167.356 127.758 168.362 128.742 169.527C131.171 172.372 133.4 175.402 135.903 178.049C139.447 181.739 144.048 184.239 149.073 185.206C150.63 185.524 152.249 185.278 153.641 184.513C154.799 183.837 155.372 182.118 156.377 180.703C154.055 179.113 151.827 177.389 149.706 175.539C145.898 171.822 142.241 167.914 138.66 164.015C137.886 162.958 137.389 161.723 137.215 160.424C137.12 159.872 137.75 159.062 138.268 158.576C138.483 158.426 138.732 158.334 138.992 158.308C139.253 158.282 139.515 158.323 139.756 158.427C141.622 159.882 143.402 161.445 145.085 163.109C148.946 167.557 153.399 171.453 158.319 174.689C163.747 177.988 166.744 177.254 171.785 171.24ZM113.638 64.2382C112.053 60.5247 109.648 57.2184 106.602 54.5679C106.251 54.0703 105.803 53.6484 105.286 53.3271C104.769 53.0059 104.192 52.792 103.59 52.698C102.989 52.604 102.374 52.6318 101.783 52.78C101.193 52.9281 100.638 53.1934 100.152 53.5602C97.3895 55.2239 94.9941 57.3147 92.4622 59.2357C87.5736 62.8902 82.7505 66.6551 77.7908 70.2502C71.2475 74.8408 65.214 80.1181 59.7932 85.992C52.6436 94.0759 55.3008 95.293 59.1677 101.083C59.8795 102.141 60.7894 103.04 62.2972 104.856C65.9844 97.5077 72.0631 93.5945 77.3284 88.8446C81.2789 85.2694 85.2776 81.7252 89.4328 78.4046C92.5653 75.9565 95.861 73.7247 99.297 71.7248C103.91 68.9444 108.828 66.6875 113.647 64.1617L113.638 64.2382Z" fill="#0E0D0D"/>
</svg>
