<svg width="33" height="33" viewBox="0 0 33 33" fill="none" xmlns="http://www.w3.org/2000/svg">
<path d="M29.2954 24.4416C29.2954 24.9216 29.1887 25.415 28.962 25.895C28.7353 26.3751 28.442 26.8284 28.0553 27.2551C27.4019 27.9752 26.6819 28.4952 25.8685 28.8286C25.0684 29.1619 24.2017 29.3353 23.2683 29.3353C21.9082 29.3353 20.4548 29.0152 18.9213 28.3619C17.3879 27.7085 15.8545 26.8284 14.3343 25.7217C12.8009 24.6016 11.3475 23.3615 9.96071 21.9881C8.58728 20.6013 7.3472 19.1479 6.24045 17.6278C5.14704 16.1077 4.26698 14.5876 3.62694 13.0808C2.98689 11.5607 2.66687 10.1073 2.66687 8.7205C2.66687 7.81377 2.82688 6.94705 3.1469 6.14699C3.46693 5.3336 3.97363 4.58688 4.68034 3.92017C5.53374 3.08011 6.46713 2.66675 7.45387 2.66675C7.82723 2.66675 8.20059 2.74675 8.53394 2.90676C8.88064 3.06678 9.18732 3.30679 9.42734 3.65348L12.5209 8.01379C12.7609 8.34714 12.9343 8.65383 13.0543 8.94719C13.1743 9.2272 13.2409 9.50722 13.2409 9.76058C13.2409 10.0806 13.1476 10.4006 12.9609 10.7073C12.7876 11.014 12.5342 11.334 12.2142 11.654L11.2008 12.7074C11.0541 12.8541 10.9874 13.0275 10.9874 13.2408C10.9874 13.3475 11.0008 13.4408 11.0275 13.5475C11.0675 13.6542 11.1075 13.7342 11.1341 13.8142C11.3741 14.2542 11.7875 14.8276 12.3742 15.521C12.9743 16.2144 13.6143 16.9211 14.3077 17.6278C15.0277 18.3345 15.7211 18.9879 16.4278 19.5879C17.1212 20.1746 17.6946 20.5747 18.1479 20.8147C18.2146 20.8413 18.2946 20.8813 18.388 20.9214C18.4946 20.9614 18.6013 20.9747 18.7213 20.9747C18.948 20.9747 19.1213 20.8947 19.268 20.748L20.2814 19.7479C20.6148 19.4146 20.9348 19.1612 21.2415 19.0012C21.5482 18.8145 21.8549 18.7212 22.1882 18.7212C22.4416 18.7212 22.7083 18.7745 23.0016 18.8945C23.295 19.0146 23.6017 19.1879 23.935 19.4146L28.3487 22.5481C28.6953 22.7881 28.9354 23.0682 29.082 23.4015C29.2154 23.7349 29.2954 24.0682 29.2954 24.4416Z" stroke="#FD5632" stroke-width="2" stroke-miterlimit="10"/>
</svg>
