<svg width="39" height="39" viewBox="0 0 39 39" fill="none" xmlns="http://www.w3.org/2000/svg">
<path d="M37.479 0H0.614409C0.276484 0 0 0.279607 0 0.621348V26.718C0 27.0597 0.276484 27.3393 0.614409 27.3393H13.7382C13.5906 26.9415 13.5292 26.5066 13.5662 26.078C13.1424 25.5746 12.9027 24.9161 12.9027 24.2326C12.9027 23.7976 13.0009 23.3688 13.1852 22.9899H7.32362C7.05948 21.4304 5.843 20.1999 4.30065 19.9328L4.30093 7.4064C5.84299 7.13928 7.05973 5.90906 7.32389 4.3493H30.7698C31.0339 5.90877 32.2504 7.13926 33.7927 7.4064V19.9328C32.2507 20.1999 31.0339 21.4301 30.7698 22.9899H24.9145C25.0928 23.3688 25.191 23.7976 25.191 24.2326C25.191 24.9161 24.9512 25.5684 24.5274 26.078C24.5642 26.5069 24.5028 26.9418 24.3555 27.3393H37.4793C37.8172 27.3393 38.0937 27.0597 38.0937 26.718V0.621348C38.0937 0.279607 37.8172 0 37.4793 0H37.479Z" fill="white"/>
<path d="M15.4742 22.3675L15.4918 22.439L15.495 22.4523L15.4949 22.4523C15.5723 22.7971 15.4761 23.1881 15.1848 23.4509L15.1772 23.4586L15.1517 23.4844L15.1236 23.5072L15.1053 23.5221C14.9143 23.6958 14.7985 23.9555 14.7985 24.2325C14.7985 24.5138 14.9179 24.7773 15.1142 24.9509L15.1174 24.9537L15.1174 24.9537L15.1662 24.9975C15.4722 25.2602 15.5743 25.6606 15.4952 26.0127L15.4922 26.026L15.492 26.026L15.4737 26.1006L15.4733 26.102L15.4683 26.123V26.1455L15.4612 26.1939C15.4239 26.4465 15.4857 26.6931 15.6236 26.8768L15.6352 26.8922L15.6353 26.8924L15.6408 26.898L15.6646 26.9284C15.7821 27.0785 15.9472 27.1863 16.1363 27.2314L16.146 27.2338L16.1557 27.2364C16.2189 27.2535 16.264 27.2614 16.303 27.264C16.7391 27.2883 17.0501 27.5919 17.185 27.9329L17.1881 27.9408L17.1911 27.9489C17.2622 28.1431 17.3924 28.2988 17.5571 28.4017L17.5687 28.4089L17.5686 28.409C17.624 28.4451 17.6832 28.473 17.7411 28.4905L17.7505 28.4934L17.7504 28.4934C18.011 28.5764 18.2795 28.5395 18.5004 28.3929C18.8349 28.1695 19.2619 28.17 19.596 28.3942C19.7357 28.4871 19.9011 28.5366 20.0732 28.5366C20.1634 28.5366 20.2542 28.5224 20.3413 28.4943L20.3533 28.4904L20.3533 28.4905C20.411 28.4731 20.4611 28.4481 20.5022 28.4188L20.5237 28.4033L20.5464 28.3897C20.6942 28.3007 20.8308 28.1457 20.9184 27.9157L15.4742 22.3675ZM15.4742 22.3675C15.4075 22.0834 15.467 21.7979 15.6247 21.5865L15.629 21.5807L15.6332 21.5748C15.7902 21.3544 16.0272 21.2239 16.2783 21.2068L16.2783 21.2068L16.2869 21.2061C16.6789 21.1743 17.0299 20.9354 17.1763 20.5467L16.5524 20.3117M15.4742 22.3675L15.0902 21.188C15.3603 20.8088 15.7781 20.5727 16.2329 20.5417C16.3865 20.5292 16.5033 20.4421 16.5524 20.3117M16.5524 20.3117C16.7367 19.8271 17.0931 19.4854 17.5478 19.3362C17.9962 19.1933 18.4754 19.2554 18.8688 19.5165M16.5524 20.3117L17.1755 20.5487C17.2916 20.2437 17.5001 20.0543 17.753 19.9705M18.8688 19.5165L18.4958 20.069C18.4968 20.0697 18.4978 20.0704 18.4988 20.071M18.8688 19.5165L18.5001 20.0719C18.4997 20.0716 18.4992 20.0713 18.4988 20.071M18.8688 19.5165C18.9793 19.5911 19.1145 19.5911 19.2251 19.5165C19.4832 19.3489 19.772 19.2618 20.0668 19.2618C20.2268 19.2618 20.3864 19.2868 20.546 19.3362M18.4988 20.071C18.2789 19.9257 18.012 19.8888 17.753 19.9705M18.4988 20.071C18.832 20.2943 19.2573 20.2951 19.5912 20.0736M17.753 19.9705C17.7539 19.9702 17.7548 19.9699 17.7557 19.9696L17.5478 19.3362L17.7502 19.9714C17.7511 19.9711 17.752 19.9708 17.753 19.9705ZM19.5912 20.0736C19.7447 19.9747 19.9071 19.9285 20.0668 19.9285C20.1546 19.9285 20.2462 19.9418 20.3436 19.9714M19.5912 20.0736C19.5935 20.0721 19.5958 20.0705 19.5981 20.069L19.2251 19.5165L19.5881 20.0756C19.5891 20.075 19.5902 20.0743 19.5912 20.0736ZM20.546 19.3362L20.3385 19.9697C20.3402 19.9703 20.3419 19.9708 20.3436 19.9714M20.546 19.3362L20.349 19.9731C20.3472 19.9725 20.3454 19.972 20.3436 19.9714M20.546 19.3362C21.0008 19.4851 21.3571 19.8269 21.5291 20.2868C21.5905 20.4421 21.7074 20.5292 21.8303 20.5353M20.3436 19.9714C20.6008 20.0573 20.8033 20.2494 20.9047 20.5203L20.9045 20.5203L20.9092 20.532C21.0434 20.8713 21.3521 21.1737 21.7849 21.2005M21.7849 21.2005C21.7831 21.2003 21.7812 21.2002 21.7793 21.2L21.8303 20.5353M21.7849 21.2005C22.0749 21.2242 22.3087 21.3616 22.4611 21.5751L22.4609 21.5751L22.4693 21.5863C22.6268 21.7976 22.6864 22.0831 22.6197 22.3673M21.7849 21.2005C21.789 21.2007 21.7931 21.201 21.7972 21.2012L21.8303 20.5353M21.8303 20.5353C22.3155 20.5725 22.7332 20.8088 23.0037 21.1877L22.6197 22.3673M22.6197 22.3673L22.6021 22.4388L22.602 22.4388L22.599 22.4521C22.5189 22.8086 22.6245 23.2145 22.9395 23.477L22.9394 23.4771L22.9458 23.4823L22.949 23.4849L22.9638 23.4998L22.9799 23.514C23.1762 23.6877 23.2956 23.9511 23.2956 24.2324C23.2956 24.5139 23.1762 24.7772 22.9802 24.9504L22.9802 24.9504L22.9768 24.9534L22.928 24.9971C22.6219 25.2599 22.5199 25.6603 22.599 26.0124L22.5988 26.0124L22.6021 26.0257L22.6205 26.1003L22.6208 26.1017L22.6258 26.1227V26.1452L22.633 26.1936C22.6702 26.4458 22.6084 26.6928 22.4704 26.8767L22.4589 26.892L22.4589 26.8921L22.6197 22.3673Z" fill="white" stroke="white" stroke-width="1.33333"/>
<path d="M21.0997 30.9568L21.4522 30.8438V37.8217L19.347 36.7602L19.0469 36.6088L18.7467 36.7602L16.6415 37.8217L16.6418 30.8247C16.7544 30.8742 16.8669 30.9161 16.9776 30.9513L16.9776 30.9513L16.9795 30.9519C17.3202 31.0589 17.67 31.1129 18.0271 31.1129C18.3755 31.1129 18.7183 31.0587 19.0467 30.9549C19.3759 31.0588 19.7197 31.1129 20.0727 31.1129C20.4265 31.1129 20.7783 31.0598 21.0997 30.9568Z" fill="white" stroke="white" stroke-width="1.33333"/>
<path d="M12.2885 9.32033H25.8055C26.1445 9.32033 26.4199 9.04183 26.4199 8.69898C26.4199 8.35614 26.1445 8.07764 25.8055 8.07764H12.2885C11.9495 8.07764 11.6741 8.35614 11.6741 8.69898C11.6741 9.04183 11.9495 9.32033 12.2885 9.32033Z" fill="white"/>
<path d="M12.2885 12.4268H25.8055C26.1445 12.4268 26.4199 12.1483 26.4199 11.8054C26.4199 11.4626 26.1445 11.1841 25.8055 11.1841H12.2885C11.9495 11.1841 11.6741 11.4626 11.6741 11.8054C11.6741 12.1483 11.9495 12.4268 12.2885 12.4268Z" fill="white"/>
<path d="M23.348 14.291H14.7462C14.4072 14.291 14.1318 14.5695 14.1318 14.9124C14.1318 15.2552 14.4072 15.5337 14.7462 15.5337H23.348C23.687 15.5337 23.9624 15.2552 23.9624 14.9124C23.9624 14.5695 23.687 14.291 23.348 14.291Z" fill="white"/>
</svg>
