<svg width="28" height="41" viewBox="0 0 28 41" fill="none" xmlns="http://www.w3.org/2000/svg">
<path d="M24.1818 15.6449C26.3392 15.3243 28 13.4211 28 11.1188V2.61619C28 2.25646 27.7136 1.96214 27.3636 1.96214H24.1818V0.654047C24.1818 0.294321 23.8955 0 23.5455 0H4.45455C4.10455 0 3.81818 0.294321 3.81818 0.654047V1.96214H0.636364C0.286364 1.96214 0 2.25646 0 2.61619V11.1188C0 13.4211 1.6608 15.3243 3.81818 15.6449V17.0052C3.81818 19.2681 4.70909 21.3873 6.10284 22.9439H0.636364C0.407389 22.9439 0.197157 23.0683 0.0826693 23.2709C-0.0255707 23.4735 -0.0255707 23.7223 0.0826693 23.925L2.45001 28.124L0.0826693 32.3753C-0.0255707 32.5779 -0.0255707 32.8267 0.0826693 33.0294C0.197157 33.232 0.407382 33.3564 0.636364 33.3564H7.63636V34.0104C7.63636 34.3702 7.92273 34.6645 8.27273 34.6645V36.6266H7C5.94996 36.6266 5.09091 37.5095 5.09091 38.5888V39.8968C5.09091 40.2566 5.37727 40.5509 5.72727 40.5509H22.2727C22.6227 40.5509 22.9091 40.2566 22.9091 39.8968V38.5888C22.9091 37.5095 22.05 36.6266 21 36.6266H19.7273V34.6645C20.0773 34.6645 20.3636 34.3702 20.3636 34.0104V33.3564H27.3636C27.5926 33.3564 27.8028 33.232 27.9173 33.0294C28.0256 32.8267 28.0256 32.5779 27.9173 32.3753L25.55 28.124L27.9173 23.925C28.0256 23.7223 28.0256 23.4803 27.9173 23.2773C27.8028 23.0747 27.5929 22.9503 27.3702 22.9439L21.9293 22.9048C23.3037 21.3482 24.1819 19.2485 24.1819 17.0052L24.1818 15.6449ZM24.1818 3.27031H26.7273V11.1189C26.7273 12.695 25.6327 14.0163 24.1818 14.3237V3.27031ZM3.81818 14.3241C2.36735 14.0166 1.27273 12.6954 1.27273 11.1192V3.27068H3.81818V14.3241ZM12.2756 8.69284L13.5484 7.38475C13.733 7.20167 14.0066 7.14269 14.2421 7.24752C14.4836 7.34533 14.6364 7.58739 14.6364 7.84901V15.0435H15.2728C15.6228 15.0435 15.9092 15.3378 15.9092 15.6976C15.9092 16.0573 15.6228 16.3516 15.2728 16.3516H12.7273C12.3773 16.3516 12.091 16.0573 12.091 15.6976C12.091 15.3378 12.3773 15.0435 12.7273 15.0435H13.3637V9.42515L13.179 9.62136C12.9307 9.87656 12.5236 9.87656 12.2753 9.62136C12.0273 9.36646 12.0273 8.94775 12.2756 8.69284ZM19.091 33.3568H8.90916V24.9715C9.71738 25.3117 10.57 25.5079 11.4546 25.5079H16.5455C17.4302 25.5079 18.2828 25.3117 19.091 24.9715V33.3568Z" fill="white"/>
</svg>
