<svg width="42" height="32" viewBox="0 0 42 32" fill="none" xmlns="http://www.w3.org/2000/svg">
<path d="M26.9865 1.38687V0.993998L27.3682 0.901065C30.1341 0.227689 32.4861 0.389672 34.3602 1.4839C36.1777 2.54505 37.5866 4.10757 38.5897 6.1501C39.5772 8.11103 40.2761 10.2728 40.6895 12.6321L40.6896 12.6321L40.6912 12.6427C41.0496 14.9805 41.2297 17.1716 41.2297 19.2152V31V31.5H40.7297H27.4865H26.9865V31V1.38687ZM0.500008 1.38687V0.993998L0.881733 0.901065C3.64764 0.227689 5.9996 0.389672 7.87373 1.4839C9.69124 2.54505 11.1002 4.10759 12.1032 6.15014C13.0907 8.11105 13.7896 10.2728 14.203 12.6321L14.2031 12.6321L14.2047 12.6427C14.5631 14.9805 14.7433 17.1716 14.7433 19.2152V31V31.5H14.2433H1.00001H0.500008V31V1.38687Z" stroke="#FD5632"/>
</svg>
