<svg width="39" height="40" viewBox="0 0 39 40" fill="none" xmlns="http://www.w3.org/2000/svg">
<path d="M38.8193 32.7072L32.1011 25.8967C32.1388 25.8392 32.1702 25.782 32.2143 25.7245C32.334 25.5523 32.4786 25.4057 32.6673 25.259C32.9377 25.0296 33.2649 24.8508 33.6485 24.7233C34.2963 24.5129 34.869 24.1556 35.3342 23.6901C35.391 23.703 35.4474 23.7092 35.5041 23.722C35.5418 23.7283 35.5797 23.7283 35.6173 23.7283C35.7684 23.7283 35.9066 23.6773 36.02 23.5817C36.1646 23.4604 36.2464 23.2819 36.2464 23.0906V16.8988C36.2464 16.8797 36.2402 16.8606 36.2402 16.835C36.234 16.5352 36.0388 16.2673 35.7369 16.2101C35.5985 16.1845 35.4601 16.1654 35.3219 16.1401C35.4101 15.8403 35.5482 15.5533 35.7369 15.2983C36.2528 14.6031 36.5233 13.7869 36.5233 12.9388C36.5233 11.1852 35.3722 9.62909 33.6485 9.07456C33.0571 8.88325 32.5538 8.53252 32.2017 8.06052C31.8495 7.58852 31.6544 7.04022 31.6482 6.4663C31.6229 4.25349 29.7357 2.44886 27.4397 2.44886C27.0182 2.44886 26.5967 2.51263 26.1878 2.63391C24.98 2.9909 23.659 2.58921 22.9041 1.61988C22.0984 0.593014 20.8717 0 19.5382 0C18.2045 0 16.9779 0.592992 16.1728 1.61988C15.6255 2.32759 14.7513 2.74862 13.8265 2.76145L11.7318 2.45541C11.7003 2.44915 11.675 2.44915 11.6436 2.44915C9.34753 2.44915 7.46038 4.25377 7.42896 6.47286C7.42279 7.04052 7.23408 7.58878 6.87546 8.06708C6.52331 8.53253 6.02628 8.88325 5.42865 9.07455C3.71138 9.6294 2.55386 11.1852 2.55386 12.9388C2.55386 13.7869 2.83075 14.6031 3.34631 15.3045C3.53503 15.5533 3.67348 15.8403 3.76137 16.1398C3.62292 16.1654 3.48448 16.1845 3.33985 16.2098C3.04414 16.2673 2.84279 16.5349 2.84279 16.8347C2.84279 16.8603 2.83015 16.8794 2.83015 16.8985V23.0903C2.83015 23.2816 2.91187 23.4601 3.05649 23.5814C3.20112 23.7027 3.3963 23.7536 3.57855 23.7217C3.63527 23.7089 3.68554 23.7027 3.74198 23.6898C4.2076 24.1553 4.77995 24.5126 5.42776 24.723C5.81137 24.8505 6.14499 25.029 6.44043 25.2778C6.60386 25.4054 6.74231 25.552 6.87458 25.737C6.90604 25.7689 6.92485 25.8136 6.95013 25.8517L0.181704 32.7072C0.00562774 32.8922 -0.0511017 33.1663 0.0497187 33.4024C0.144076 33.6446 0.376881 33.7978 0.628501 33.7978H5.66089V38.8993C5.66089 39.1544 5.81198 39.3904 6.05096 39.486C6.1265 39.5242 6.20822 39.537 6.28994 39.537C6.45338 39.537 6.61711 39.4732 6.73645 39.3519L14.7753 31.1961C15.3288 31.3874 15.8194 31.7253 16.1719 32.1783C16.977 33.2048 18.2037 33.7981 19.5373 33.7981C20.8709 33.7981 22.0975 33.2051 22.9088 32.1783C23.2486 31.7381 23.7139 31.4068 24.2425 31.2217L32.2627 39.3521C32.3823 39.4734 32.5458 39.5371 32.7092 39.5371C32.7909 39.5371 32.8726 39.5243 32.9482 39.4862C33.1872 39.3905 33.3382 39.1545 33.3382 38.8994V33.7979H38.3706C38.6223 33.7979 38.8551 33.6448 38.9494 33.4025C39.0514 33.1662 38.9949 32.8921 38.8188 32.7073L38.8193 32.7072ZM6.91899 37.3623V33.1598C6.91899 32.8091 6.63591 32.5221 6.28994 32.5221H2.1444L7.41575 27.1784C7.42193 27.2293 7.42839 27.2803 7.42839 27.3315C7.45984 29.5444 9.34703 31.349 11.643 31.349C12.0581 31.349 12.4796 31.2852 12.9011 31.1577C12.9578 31.1449 13.0143 31.1386 13.071 31.1195L6.91899 37.3623ZM4.08827 22.3252V17.3704C4.22671 17.3447 4.37134 17.3194 4.50979 17.2938H4.54742C4.56005 17.2938 4.57887 17.2875 4.59151 17.281C14.6886 15.4635 24.9044 15.4954 34.9886 17.3704V22.3252C24.7347 20.4441 14.3486 20.4441 4.08827 22.3252ZM32.7111 32.5217C32.3651 32.5217 32.082 32.8087 32.082 33.1594V37.3619L25.9047 31.0997C25.999 31.1188 26.0934 31.1316 26.1816 31.1635C26.5966 31.2847 27.0182 31.3485 27.4397 31.3485C29.7357 31.3485 31.6229 29.5439 31.6481 27.3311C31.6481 27.3054 31.6543 27.2801 31.6543 27.2545L36.8566 32.5216L32.7111 32.5217Z" fill="white"/>
</svg>
