<svg width="34" height="34" viewBox="0 0 34 34" fill="none" xmlns="http://www.w3.org/2000/svg">
<path fill-rule="evenodd" clip-rule="evenodd" d="M16.6303 2.83337C24.2378 2.83337 30.4258 9.02137 30.4258 16.6289C30.4258 20.2181 29.0484 23.4916 26.7944 25.9484L31.2296 30.3744C31.6447 30.7895 31.6461 31.461 31.231 31.876C31.0242 32.0857 30.7508 32.1891 30.4788 32.1891C30.2082 32.1891 29.9362 32.0857 29.7279 31.8789L25.2392 27.4026C22.8779 29.2937 19.8839 30.4258 16.6303 30.4258C9.02279 30.4258 2.83337 24.2364 2.83337 16.6289C2.83337 9.02137 9.02279 2.83337 16.6303 2.83337ZM16.6303 4.95837C10.1944 4.95837 4.95837 10.193 4.95837 16.6289C4.95837 23.0648 10.1944 28.3008 16.6303 28.3008C23.0648 28.3008 28.3008 23.0648 28.3008 16.6289C28.3008 10.193 23.0648 4.95837 16.6303 4.95837Z" fill="white"/>
</svg>
