<svg width="34" height="34" viewBox="0 0 34 34" fill="none" xmlns="http://www.w3.org/2000/svg">
<path d="M31.0678 18.2183C31.0394 18.4875 30.9969 18.7425 30.9261 18.9975C29.4528 17.7508 27.5403 17 25.4578 17C20.7686 17 16.9578 20.8108 16.9578 25.5C16.9578 27.5825 17.7086 29.495 18.9553 30.9683C18.7003 31.0392 18.4453 31.0817 18.1761 31.11C16.9719 31.2233 15.7394 31.1667 14.4644 30.9542C8.64194 29.9625 3.95277 25.245 2.98944 19.4083C1.3886 9.70417 9.66194 1.43084 19.3661 3.03167C25.2028 3.99501 29.9203 8.68417 30.9119 14.5067C31.1244 15.7817 31.1811 17.0142 31.0678 18.2183Z" stroke="white" stroke-width="2" stroke-linecap="round" stroke-linejoin="round"/>
<path d="M30.9254 18.9975C30.727 19.6917 30.3587 20.315 29.8345 20.8392L20.7962 29.8775C20.272 30.4017 19.6487 30.77 18.9545 30.9683C17.7079 29.495 16.957 27.5825 16.957 25.5C16.957 20.8108 20.7679 17 25.457 17C27.5395 17 29.452 17.7508 30.9254 18.9975Z" stroke="white" stroke-width="2" stroke-linecap="round" stroke-linejoin="round"/>
</svg>
