<svg width="36" height="36" viewBox="0 0 36 36" fill="none" xmlns="http://www.w3.org/2000/svg">
<path d="M24.5534 27.604C23.3253 27.8469 22.0023 27.4936 21.0497 26.5414C19.5335 25.0251 19.5335 22.5664 21.0497 21.0496C22.5668 19.5331 25.0255 19.5334 26.5414 21.0496C27.4936 22.0021 27.8476 23.3251 27.6041 24.5533L28.3715 25.3208L35.9985 17.6937L29.4501 11.1463C30.7117 11.1839 31.9847 10.7256 32.9478 9.7625C34.8007 7.90891 34.8016 4.90452 32.9478 3.05039C31.0939 1.19656 28.0889 1.19741 26.2356 3.05039C25.2726 4.01343 24.8146 5.28704 24.8519 6.54778L18.3044 0L10.6771 7.62701L11.4445 8.39443C12.6733 8.15096 13.996 8.50488 14.9482 9.45709C16.4644 10.9733 16.4644 13.4321 14.9479 14.9485C13.4314 16.4651 10.9729 16.4651 9.45647 14.9485C8.50429 13.996 8.15036 12.6737 8.39381 11.4451L7.62639 10.6777L0 18.3047L6.54839 24.8528C5.28681 24.8152 4.01382 25.2738 3.05077 26.2369C1.1978 28.0899 1.19695 31.0949 3.05077 32.949C4.90459 34.8026 7.9096 34.802 9.76288 32.9487C10.7259 31.9856 11.1846 30.7127 11.1467 29.4519L17.6951 36L25.3221 28.373L24.5534 27.604Z" fill="white"/>
</svg>
