<svg width="36" height="36" viewBox="0 0 36 36" fill="none" xmlns="http://www.w3.org/2000/svg">
<path d="M29.7504 18C29.7504 17.447 30.1989 16.9984 30.7519 16.9984H36C35.4994 7.84012 28.1599 0.50075 19.0016 0V5.24806C19.0016 5.80105 18.553 6.24963 18 6.24963C17.447 6.24963 16.9984 5.80106 16.9984 5.24806V0C7.84012 0.500642 0.50075 7.84012 0 16.9984H5.24806C5.80105 16.9984 6.24963 17.447 6.24963 18C6.24963 18.553 5.80106 19.0016 5.24806 19.0016H0C0.500906 28.1599 7.84012 35.4992 16.9984 36V30.7519C16.9984 30.1992 17.447 29.7504 18 29.7504C18.553 29.7504 19.0016 30.1992 19.0016 30.7519V36C28.1599 35.4991 35.4992 28.1599 36 19.0016H30.7519C30.199 19.0016 29.7504 18.553 29.7504 18ZM22.5071 19.0016H19.0015V22.5072C19.0015 23.0601 18.5529 23.5087 17.9999 23.5087C17.4469 23.5087 16.9984 23.0602 16.9984 22.5072V19.0016H13.4928C12.9398 19.0016 12.4912 18.553 12.4912 18C12.4912 17.447 12.9398 16.9984 13.4928 16.9984H16.9984V13.4928C16.9984 12.9399 17.4469 12.4913 17.9999 12.4913C18.5529 12.4913 19.0015 12.9398 19.0015 13.4928V16.9984H22.5071C23.0601 16.9984 23.5087 17.447 23.5087 18C23.5087 18.553 23.0598 19.0016 22.5071 19.0016Z" fill="white"/>
</svg>
