<svg width="39" height="40" viewBox="0 0 39 40" fill="none" xmlns="http://www.w3.org/2000/svg">
<mask id="path-1-inside-1_92_224" fill="white">
<path d="M38.8193 32.8058L32.1011 25.9954C32.1388 25.9379 32.1702 25.8806 32.2143 25.8231C32.334 25.6509 32.4786 25.5043 32.6673 25.3577C32.9377 25.1282 33.2649 24.9494 33.6485 24.8219C34.2963 24.6115 34.869 24.2542 35.3342 23.7888C35.391 23.8016 35.4474 23.8078 35.5041 23.8207C35.5418 23.8269 35.5797 23.8269 35.6173 23.8269C35.7684 23.8269 35.9066 23.776 36.02 23.6803C36.1646 23.559 36.2464 23.3805 36.2464 23.1892V16.9974C36.2464 16.9783 36.2402 16.9592 36.2402 16.9336C36.234 16.6338 36.0388 16.366 35.7369 16.3087C35.5985 16.2831 35.4601 16.264 35.3219 16.2387C35.4101 15.9389 35.5482 15.652 35.7369 15.3969C36.2528 14.7017 36.5233 13.8855 36.5233 13.0374C36.5233 11.2838 35.3722 9.72772 33.6485 9.17319C33.0571 8.98188 32.5538 8.63115 32.2017 8.15916C31.8495 7.68715 31.6544 7.13885 31.6482 6.56493C31.6229 4.35212 29.7357 2.5475 27.4397 2.5475C27.0182 2.5475 26.5967 2.61126 26.1878 2.73254C24.98 3.08953 23.659 2.68785 22.9041 1.71851C22.0984 0.691647 20.8717 0.0986328 19.5382 0.0986328C18.2045 0.0986328 16.9779 0.691625 16.1728 1.71851C15.6255 2.42623 14.7513 2.84725 13.8265 2.86008L11.7318 2.55405C11.7003 2.54778 11.675 2.54778 11.6436 2.54778C9.34753 2.54778 7.46038 4.35241 7.42896 6.57149C7.42279 7.13915 7.23408 7.68741 6.87546 8.16571C6.52331 8.63117 6.02628 8.98188 5.42865 9.17319C3.71138 9.72803 2.55386 11.2838 2.55386 13.0374C2.55386 13.8855 2.83075 14.7017 3.34631 15.4032C3.53503 15.652 3.67348 15.9389 3.76137 16.2384C3.62292 16.264 3.48448 16.2831 3.33985 16.3084C3.04414 16.366 2.84279 16.6336 2.84279 16.9333C2.84279 16.9589 2.83015 16.978 2.83015 16.9971V23.1889C2.83015 23.3802 2.91187 23.5587 3.05649 23.68C3.20112 23.8013 3.3963 23.8523 3.57855 23.8204C3.63527 23.8076 3.68554 23.8013 3.74198 23.7885C4.2076 24.2539 4.77995 24.6112 5.42776 24.8216C5.81137 24.9491 6.14499 25.1276 6.44043 25.3765C6.60386 25.504 6.74231 25.6506 6.87458 25.8357C6.90604 25.8675 6.92485 25.9122 6.95013 25.9504L0.181704 32.8058C0.00562774 32.9908 -0.0511017 33.265 0.0497187 33.501C0.144076 33.7432 0.376881 33.8964 0.628501 33.8964H5.66089V38.9979C5.66089 39.253 5.81198 39.489 6.05096 39.5847C6.1265 39.6228 6.20822 39.6356 6.28994 39.6356C6.45338 39.6356 6.61711 39.5718 6.73645 39.4506L14.7753 31.2947C15.3288 31.486 15.8194 31.8239 16.1719 32.2769C16.977 33.3035 18.2037 33.8968 19.5373 33.8968C20.8709 33.8968 22.0975 33.3038 22.9088 32.2769C23.2486 31.8368 23.7139 31.5054 24.2425 31.3204L32.2627 39.4507C32.3823 39.572 32.5458 39.6358 32.7092 39.6358C32.7909 39.6358 32.8726 39.6229 32.9482 39.5848C33.1872 39.4891 33.3382 39.2531 33.3382 38.9981V33.8966H38.3706C38.6223 33.8966 38.8551 33.7434 38.9494 33.5011C39.0514 33.2648 38.9949 32.9907 38.8188 32.8059L38.8193 32.8058ZM6.91899 37.4609V33.2585C6.91899 32.9077 6.63591 32.6208 6.28994 32.6208H2.1444L7.41575 27.277C7.42193 27.328 7.42839 27.3789 7.42839 27.4302C7.45984 29.643 9.34703 31.4476 11.643 31.4476C12.0581 31.4476 12.4796 31.3838 12.9011 31.2563C12.9578 31.2435 13.0143 31.2372 13.071 31.2182L6.91899 37.4609ZM4.08827 22.4239V17.469C4.22671 17.4434 4.37134 17.418 4.50979 17.3924H4.54742C4.56005 17.3924 4.57887 17.3862 4.59151 17.3796C14.6886 15.5622 24.9044 15.5941 34.9886 17.469V22.4239C24.7347 20.5427 14.3486 20.5427 4.08827 22.4239ZM32.7111 32.6203C32.3651 32.6203 32.082 32.9073 32.082 33.258V37.4605L25.9047 31.1983C25.999 31.2174 26.0934 31.2302 26.1816 31.2621C26.5966 31.3834 27.0182 31.4471 27.4397 31.4471C29.7357 31.4471 31.6229 29.6425 31.6481 27.4297C31.6481 27.4041 31.6543 27.3787 31.6543 27.3531L36.8566 32.6203L32.7111 32.6203Z"/>
</mask>
<path d="M38.8193 32.8058L39.1469 34.0983L41.4031 33.5265L39.7685 31.8695L38.8193 32.8058ZM32.1011 25.9954L30.9855 25.2653L30.3963 26.1657L31.1519 26.9317L32.1011 25.9954ZM32.2143 25.8231L33.2725 26.6344L33.2915 26.6095L33.3094 26.5838L32.2143 25.8231ZM32.6673 25.3577L33.4853 26.4106L33.508 26.393L33.5299 26.3744L32.6673 25.3577ZM33.6485 24.8219L33.2367 23.5537L33.2278 23.5567L33.6485 24.8219ZM35.3342 23.7888L35.628 22.4882L34.9109 22.3263L34.3912 22.8462L35.3342 23.7888ZM35.5041 23.8207L35.2104 25.1212L35.2476 25.1296L35.2852 25.1359L35.5041 23.8207ZM36.02 23.6803L35.1633 22.6586L35.1606 22.6609L36.02 23.6803ZM36.2402 16.9336H37.5735V16.9199L37.5732 16.9061L36.2402 16.9336ZM35.7369 16.3087L35.9852 14.9987L35.9796 14.9977L35.7369 16.3087ZM35.3219 16.2387L34.0428 15.8624L33.6249 17.2831L35.0814 17.5502L35.3219 16.2387ZM35.7369 15.3969L34.6662 14.6023L34.6651 14.6039L35.7369 15.3969ZM33.6485 9.17319L33.2381 10.4418L33.2402 10.4425L33.6485 9.17319ZM32.2017 8.15916L33.2704 7.36188L33.2704 7.36184L32.2017 8.15916ZM31.6482 6.56493L32.9814 6.55059L32.9814 6.54971L31.6482 6.56493ZM26.1878 2.73254L26.5657 4.0112L26.567 4.01082L26.1878 2.73254ZM22.9041 1.71851L23.9561 0.899287L23.9531 0.895462L22.9041 1.71851ZM16.1728 1.71851L15.1235 0.895818L15.1181 0.902818L16.1728 1.71851ZM13.8265 2.86008L13.6337 4.17941L13.7388 4.19476L13.845 4.19328L13.8265 2.86008ZM11.7318 2.55405L11.4714 3.86171L11.5051 3.86841L11.539 3.87337L11.7318 2.55405ZM7.42896 6.57149L6.09576 6.55262L6.09571 6.55698L7.42896 6.57149ZM6.87546 8.16571L7.93877 8.97019L7.94225 8.96555L6.87546 8.16571ZM5.42865 9.17319L5.02215 7.90332L5.01871 7.90443L5.42865 9.17319ZM3.34631 15.4032L2.27196 16.1928L2.2779 16.2009L2.28397 16.2089L3.34631 15.4032ZM3.76137 16.2384L4.004 17.5495L5.45681 17.2806L5.04075 15.8629L3.76137 16.2384ZM3.33985 16.3084L3.10977 14.9951L3.09753 14.9973L3.08533 14.9996L3.33985 16.3084ZM3.57855 23.8204L3.80832 25.1338L3.84045 25.1281L3.87226 25.1209L3.57855 23.8204ZM3.74198 23.7885L4.68463 22.8455L4.16432 22.3254L3.44686 22.4882L3.74198 23.7885ZM5.42776 24.8216L5.84843 23.5563L5.83963 23.5535L5.42776 24.8216ZM6.44043 25.3765L5.58151 26.3963L5.60054 26.4123L5.62016 26.4276L6.44043 25.3765ZM6.87458 25.8357L5.78987 26.611L5.85125 26.6969L5.92537 26.772L6.87458 25.8357ZM6.95013 25.9504L7.89894 26.8871L8.65973 26.1166L8.0616 25.2139L6.95013 25.9504ZM0.181704 32.8058L-0.767105 31.869L-0.775747 31.8778L-0.784226 31.8867L0.181704 32.8058ZM0.0497187 33.501L1.29214 33.0171L1.28432 32.997L1.27585 32.9772L0.0497187 33.501ZM5.66089 33.8964H6.99423V32.5631H5.66089V33.8964ZM6.05096 39.5847L6.65198 38.3945L6.60024 38.3683L6.54642 38.3468L6.05096 39.5847ZM6.73645 39.4506L5.78686 38.5146L5.78611 38.5153L6.73645 39.4506ZM14.7753 31.2947L15.2109 30.0345L14.4161 29.7598L13.8257 30.3587L14.7753 31.2947ZM16.1719 32.2769L15.1196 33.0957L15.1227 33.0997L16.1719 32.2769ZM22.9088 32.2769L23.955 33.1035L23.9597 33.0976L23.9642 33.0917L22.9088 32.2769ZM24.2425 31.3204L25.1917 30.384L24.5988 29.7829L23.8019 30.0619L24.2425 31.3204ZM32.2627 39.4507L33.2119 38.5144L33.2119 38.5144L32.2627 39.4507ZM32.9482 39.5848L32.4527 38.3469L32.3989 38.3685L32.3472 38.3946L32.9482 39.5848ZM33.3382 33.8966V32.5632H32.0049V33.8966H33.3382ZM38.9494 33.5011L37.7252 32.9729L37.7157 32.9949L37.707 33.0172L38.9494 33.5011ZM38.8188 32.8059L38.4913 31.5135L36.2795 32.074L37.8536 33.7258L38.8188 32.8059ZM6.91899 37.4609H5.58565V40.7135L7.86867 38.3968L6.91899 37.4609ZM2.1444 32.6208L1.19518 31.6844L-1.04376 33.9541H2.1444V32.6208ZM7.41575 27.277L8.73939 27.1165L8.40685 24.3737L6.46654 26.3407L7.41575 27.277ZM7.42839 27.4302H6.09506V27.4396L6.09519 27.4491L7.42839 27.4302ZM12.9011 31.2563L12.6074 29.9557L12.5607 29.9663L12.515 29.9801L12.9011 31.2563ZM13.071 31.2182L14.0207 32.154L12.6461 29.9543L13.071 31.2182ZM4.08827 22.4239H2.75493V24.0239L4.32871 23.7353L4.08827 22.4239ZM4.08827 17.469L3.84564 16.1579L2.75493 16.3598V17.469H4.08827ZM4.50979 17.3924V16.0591H4.38744L4.26714 16.0813L4.50979 17.3924ZM4.59151 17.3796L4.35531 16.0674L4.15701 16.1031L3.97811 16.1957L4.59151 17.3796ZM34.9886 17.469H36.3219V16.3607L35.2323 16.1581L34.9886 17.469ZM34.9886 22.4239L34.748 23.7353L36.3219 24.0241V22.4239H34.9886ZM32.7111 32.6203L32.7111 33.9537L32.7111 33.9537L32.7111 32.6203ZM32.082 37.4605L31.1328 38.3969L33.4154 40.7108V37.4605H32.082ZM25.9047 31.1983L26.1689 29.8914L21.8892 29.0263L24.9555 32.1347L25.9047 31.1983ZM26.1816 31.2621L25.7282 32.516L25.7675 32.5302L25.8076 32.5419L26.1816 31.2621ZM31.6481 27.4297L32.9814 27.4449L32.9815 27.4373V27.4297H31.6481ZM31.6543 27.3531L32.6029 26.4162L30.321 24.1057V27.3531H31.6543ZM36.8566 32.6203L36.8566 33.9536L40.0475 33.9536L37.8052 31.6833L36.8566 32.6203ZM39.7685 31.8695L33.0504 25.059L31.1519 26.9317L37.8701 33.7422L39.7685 31.8695ZM33.2168 26.7255C33.2347 26.6982 33.25 26.6736 33.2606 26.6567C33.2737 26.6357 33.2769 26.6304 33.2833 26.6202C33.2926 26.6054 33.2866 26.616 33.2725 26.6344L31.1562 25.0119C31.098 25.0878 31.0542 25.1557 31.0273 25.1983C31.0157 25.2168 31.0012 25.2402 30.9965 25.2478C30.9891 25.2596 30.9864 25.2638 30.9855 25.2653L33.2168 26.7255ZM33.3094 26.5838C33.3376 26.5432 33.3813 26.4914 33.4853 26.4106L31.8493 24.3048C31.5759 24.5172 31.3303 24.7586 31.1192 25.0625L33.3094 26.5838ZM33.5299 26.3744C33.6537 26.2693 33.8254 26.1682 34.0691 26.0871L33.2278 23.5567C32.7044 23.7307 32.2217 23.9871 31.8047 24.341L33.5299 26.3744ZM34.0603 26.0901C34.912 25.8135 35.6658 25.3431 36.2772 24.7314L34.3912 22.8462C34.0722 23.1654 33.6807 23.4096 33.2367 23.5538L34.0603 26.0901ZM35.0405 25.0894C35.1106 25.1052 35.175 25.1157 35.1976 25.1195C35.2316 25.1252 35.2238 25.1243 35.2104 25.1212L35.7978 22.5201C35.7278 22.5042 35.6634 22.4937 35.6408 22.4899C35.6068 22.4842 35.6146 22.4852 35.628 22.4882L35.0405 25.0894ZM35.2852 25.1359C35.4495 25.1632 35.5976 25.1603 35.6173 25.1603V22.4936C35.6068 22.4936 35.6043 22.4936 35.6029 22.4936C35.6023 22.4936 35.6074 22.4936 35.616 22.494C35.6326 22.4946 35.6715 22.4968 35.723 22.5054L35.2852 25.1359ZM35.6173 25.1603C36.0829 25.1603 36.5255 24.9981 36.8794 24.6997L35.1606 22.6609C35.2876 22.5538 35.4539 22.4936 35.6173 22.4936V25.1603ZM36.8768 24.702C37.3314 24.3207 37.5797 23.7644 37.5797 23.1892H34.913C34.913 22.9967 34.9979 22.7973 35.1633 22.6587L36.8768 24.702ZM37.5797 23.1892V16.9974H34.913V23.1892H37.5797ZM37.5797 16.9974C37.5797 16.922 37.5736 16.861 37.5694 16.8255C37.5673 16.8075 37.5652 16.7928 37.564 16.7845C37.5634 16.7802 37.5628 16.7765 37.5625 16.7745C37.562 16.7708 37.5623 16.7728 37.562 16.7713C37.5616 16.7687 37.5735 16.8407 37.5735 16.9336H34.9069C34.9069 17.0521 34.9218 17.1465 34.9245 17.1647C34.9247 17.1659 34.9249 17.167 34.925 17.1677C34.9251 17.1685 34.9251 17.1688 34.9252 17.1691C34.9253 17.1696 34.9251 17.1685 34.9248 17.1667C34.9244 17.1634 34.923 17.1536 34.9214 17.1404C34.9183 17.1147 34.913 17.0633 34.913 16.9974H37.5797ZM37.5732 16.9061C37.5559 16.0656 36.9902 15.1892 35.9852 14.9987L35.4887 17.6188C35.0874 17.5427 34.9121 17.2021 34.9071 16.9611L37.5732 16.9061ZM35.9796 14.9977C35.8927 14.9816 35.8084 14.9681 35.7412 14.9572C35.6691 14.9456 35.6147 14.9368 35.5624 14.9272L35.0814 17.5502C35.1673 17.5659 35.2511 17.5793 35.3174 17.59C35.3885 17.6015 35.4428 17.6103 35.4943 17.6198L35.9796 14.9977ZM36.601 16.615C36.6481 16.4549 36.7192 16.311 36.8088 16.1899L34.6651 14.6039C34.3772 14.993 34.172 15.4229 34.0428 15.8624L36.601 16.615ZM36.8077 16.1914C37.4918 15.2695 37.8566 14.1755 37.8566 13.0374H35.19C35.19 13.5955 35.0139 14.1338 34.6662 14.6023L36.8077 16.1914ZM37.8566 13.0374C37.8566 10.6849 36.3126 8.62965 34.0568 7.90393L33.2402 10.4425C34.4317 10.8258 35.19 11.8827 35.19 13.0374H37.8566ZM34.0589 7.90457C33.7111 7.79208 33.4455 7.59656 33.2704 7.36188L31.133 8.95644C31.6622 9.66575 32.4031 10.1717 33.2381 10.4418L34.0589 7.90457ZM33.2704 7.36184C33.0754 7.10053 32.9844 6.82312 32.9814 6.55059L30.3149 6.57928C30.3243 7.45459 30.6237 8.27377 31.133 8.95647L33.2704 7.36184ZM32.9814 6.54971C32.9473 3.56378 30.4227 1.21416 27.4397 1.21416V3.88083C29.0488 3.88083 30.2985 5.14045 30.3149 6.58016L32.9814 6.54971ZM27.4397 1.21416C26.8838 1.21416 26.3346 1.29824 25.8086 1.45426L26.567 4.01082C26.8587 3.92429 27.1527 3.88083 27.4397 3.88083V1.21416ZM25.8099 1.45389C25.1016 1.66325 24.3576 1.41487 23.9561 0.899293L21.8521 2.53772C22.9604 3.96083 24.8584 4.51582 26.5657 4.0112L25.8099 1.45389ZM23.9531 0.895462C22.8901 -0.459346 21.2738 -1.2347 19.5382 -1.2347V1.43197C20.4697 1.43197 21.3068 1.84264 21.8551 2.54155L23.9531 0.895462ZM19.5382 -1.2347C17.8026 -1.2347 16.1861 -0.459414 15.1235 0.895836L17.2221 2.54118C17.7697 1.84266 18.6065 1.43197 19.5382 1.43197V-1.2347ZM15.1181 0.902818C14.8329 1.27152 14.3494 1.51936 13.808 1.52687L13.845 4.19328C15.1531 4.17514 16.418 3.58093 17.2275 2.5342L15.1181 0.902818ZM14.0192 1.54075L11.9245 1.23472L11.539 3.87337L13.6337 4.17941L14.0192 1.54075ZM11.9922 1.24639C11.8159 1.2113 11.6686 1.21445 11.6436 1.21445V3.88112C11.6815 3.88112 11.5847 3.88427 11.4714 3.86171L11.9922 1.24639ZM11.6436 1.21445C8.65837 1.21445 6.13806 3.56537 6.09576 6.55262L8.76216 6.59036C8.78271 5.13945 10.0367 3.88112 11.6436 3.88112V1.21445ZM6.09571 6.55698C6.09275 6.82939 6.00446 7.10474 5.80867 7.36587L7.94225 8.96555C8.46369 8.27008 8.75283 7.44891 8.76222 6.586L6.09571 6.55698ZM5.81216 7.36124C5.6331 7.59791 5.36995 7.792 5.02216 7.90333L5.83514 10.443C6.68261 10.1718 7.41351 9.66442 7.93876 8.97018L5.81216 7.36124ZM5.01871 7.90443C2.77311 8.62999 1.22052 10.6825 1.22052 13.0374H3.88719C3.88719 11.8852 4.64965 10.8261 5.83858 10.4419L5.01871 7.90443ZM1.22052 13.0374C1.22052 14.1831 1.59634 15.2736 2.27196 16.1928L4.42067 14.6135C4.06517 14.1298 3.88719 13.5879 3.88719 13.0374H1.22052ZM2.28397 16.2089C2.36526 16.3161 2.43504 16.4539 2.482 16.6139L5.04075 15.8629C4.91192 15.424 4.7048 14.9879 4.40866 14.5974L2.28397 16.2089ZM3.51875 14.9273C3.34399 14.9597 3.36222 14.9509 3.10977 14.9951L3.56994 17.6218C3.60673 17.6153 3.90186 17.5684 4.004 17.5495L3.51875 14.9273ZM3.08533 14.9996C2.10668 15.1899 1.50945 16.0546 1.50945 16.9333H4.17612C4.17612 17.2125 3.9816 17.542 3.59437 17.6173L3.08533 14.9996ZM1.50945 16.9333C1.50945 16.8288 1.52252 16.7418 1.53548 16.6796C1.54184 16.6491 1.54822 16.6243 1.5528 16.6076C1.55719 16.5916 1.56083 16.5797 1.56117 16.5786C1.5613 16.5781 1.56137 16.5779 1.5612 16.5785C1.56112 16.5787 1.5607 16.5801 1.56031 16.5814C1.55951 16.584 1.55778 16.5897 1.55574 16.5965C1.55183 16.6097 1.5444 16.6354 1.53657 16.6676C1.52863 16.7002 1.51883 16.7454 1.511 16.7997C1.50311 16.8544 1.49682 16.9211 1.49682 16.9971H4.16348C4.16348 17.0683 4.15759 17.1302 4.15039 17.1802C4.14325 17.2296 4.13444 17.27 4.12769 17.2978C4.12104 17.3251 4.11499 17.3458 4.11256 17.354C4.11126 17.3584 4.1103 17.3615 4.11027 17.3616C4.11027 17.3616 4.11024 17.3617 4.11056 17.3607C4.11078 17.36 4.11124 17.3585 4.11177 17.3567C4.11369 17.3505 4.11891 17.3333 4.12478 17.3119C4.13084 17.2898 4.13861 17.2594 4.14614 17.2232C4.16148 17.1496 4.17612 17.0506 4.17612 16.9333H1.50945ZM1.49682 16.9971V23.1889H4.16348V16.9971H1.49682ZM1.49682 23.1889C1.49682 23.7641 1.74514 24.3204 2.19976 24.7017L3.91323 22.6584C4.0786 22.797 4.16348 22.9964 4.16348 23.1889H1.49682ZM2.19976 24.7017C2.64827 25.0778 3.2418 25.2329 3.80832 25.1338L3.34877 22.507C3.55079 22.4716 3.75396 22.5248 3.91323 22.6584L2.19976 24.7017ZM3.87226 25.1209C3.86655 25.1222 3.86423 25.1224 3.89468 25.117C3.91809 25.1128 3.97419 25.103 4.0371 25.0887L3.44686 22.4882C3.45334 22.4868 3.45608 22.4865 3.42607 22.4918C3.40309 22.4959 3.34727 22.5057 3.28484 22.5198L3.87226 25.1209ZM2.79933 24.7314C3.41079 25.3427 4.16405 25.8131 5.01589 26.0897L5.83963 23.5535C5.39586 23.4094 5.0044 23.1652 4.68463 22.8455L2.79933 24.7314ZM5.00711 26.0868C5.25109 26.168 5.43099 26.2695 5.58151 26.3963L7.29934 24.3566C6.859 23.9858 6.37165 23.7303 5.84842 23.5564L5.00711 26.0868ZM5.62016 26.4276C5.6728 26.4687 5.7244 26.5194 5.78987 26.611L7.95929 25.0603C7.76022 24.7818 7.53493 24.5393 7.26069 24.3253L5.62016 26.4276ZM5.92537 26.772C5.87114 26.717 5.83287 26.6673 5.80894 26.6336C5.78557 26.6007 5.77066 26.5756 5.76727 26.5698C5.76535 26.5666 5.76453 26.5651 5.76659 26.5687C5.76716 26.5697 5.7732 26.5803 5.77768 26.588C5.78771 26.6054 5.80967 26.6431 5.83866 26.6869L8.0616 25.2139C8.07795 25.2386 8.08808 25.2564 8.08648 25.2537C8.08516 25.2514 8.08544 25.2518 8.08023 25.2427C8.07652 25.2363 8.0699 25.2247 8.06208 25.2115C8.03627 25.1679 7.95714 25.0345 7.8238 24.8993L5.92537 26.772ZM6.00132 25.0136L-0.767105 31.869L1.13051 33.7426L7.89894 26.8871L6.00132 25.0136ZM-0.784226 31.8867C-1.30688 32.436 -1.49793 33.2722 -1.17642 34.0248L1.27585 32.9772C1.39573 33.2578 1.31814 33.5457 1.14763 33.7249L-0.784226 31.8867ZM-1.1927 33.9849C-0.894748 34.7499 -0.161303 35.2297 0.628501 35.2297V32.5631C0.915066 32.5631 1.1829 32.7366 1.29214 33.0171L-1.1927 33.9849ZM0.628501 35.2297H5.66089V32.5631H0.628501V35.2297ZM4.32756 33.8964V38.9979H6.99423V33.8964H4.32756ZM4.32756 38.9979C4.32756 39.7694 4.78433 40.5138 5.5555 40.8225L6.54642 38.3468C6.83962 38.4641 6.99423 38.7366 6.99423 38.9979H4.32756ZM5.44994 40.7748C5.76824 40.9356 6.07341 40.9689 6.28994 40.9689V38.3023C6.34304 38.3023 6.48477 38.31 6.65198 38.3945L5.44994 40.7748ZM6.28994 40.9689C6.7921 40.9689 7.30405 40.7747 7.6868 40.3858L5.78611 38.5153C5.93016 38.369 6.11466 38.3023 6.28994 38.3023V40.9689ZM7.68605 40.3865L15.7249 32.2307L13.8257 30.3587L5.78686 38.5146L7.68605 40.3865ZM14.3398 32.5549C14.6685 32.6685 14.9377 32.8619 15.1196 33.0957L17.2242 31.458C16.7012 30.786 15.9892 30.3035 15.2109 30.0345L14.3398 32.5549ZM15.1227 33.0997C16.1852 34.4544 17.8016 35.2301 19.5373 35.2301V32.5634C18.6058 32.5634 17.7689 32.1526 17.2211 31.4541L15.1227 33.0997ZM19.5373 35.2301C21.2737 35.2301 22.8878 34.4543 23.955 33.1035L21.8626 31.4503C21.3073 32.1532 20.468 32.5634 19.5373 32.5634V35.2301ZM23.9642 33.0917C24.1421 32.8613 24.3915 32.6809 24.6831 32.5788L23.8019 30.0619C23.0364 30.3299 22.3551 30.8123 21.8534 31.4621L23.9642 33.0917ZM23.2933 32.2567L31.3135 40.3871L33.2119 38.5144L25.1917 30.384L23.2933 32.2567ZM31.3135 40.3871C31.6954 40.7743 32.2061 40.9691 32.7092 40.9691V38.3024C32.8854 38.3024 33.0692 38.3697 33.2119 38.5144L31.3135 40.3871ZM32.7092 40.9691C32.9257 40.9691 33.2309 40.9357 33.5492 40.775L32.3472 38.3946C32.5144 38.3102 32.6561 38.3024 32.7092 38.3024V40.9691ZM33.4436 40.8227C34.2148 40.514 34.6716 39.7696 34.6716 38.9981H32.0049C32.0049 38.7367 32.1595 38.4643 32.4527 38.3469L33.4436 40.8227ZM34.6716 38.9981V33.8966H32.0049V38.9981H34.6716ZM33.3382 35.2299H38.3706V32.5632H33.3382V35.2299ZM38.3706 35.2299C39.1604 35.2299 39.8939 34.75 40.1918 33.985L37.707 33.0172C37.8162 32.7367 38.0841 32.5632 38.3706 32.5632V35.2299ZM40.1737 34.0293C40.4988 33.2757 40.3088 32.4367 39.7841 31.8861L37.8536 33.7258C37.681 33.5447 37.6039 33.2539 37.7252 32.9729L40.1737 34.0293ZM39.1464 34.0984L39.1469 34.0983L38.4918 31.5133L38.4913 31.5135L39.1464 34.0984ZM8.25232 37.4609V33.2585H5.58565V37.4609H8.25232ZM8.25232 33.2585C8.25232 32.1886 7.38938 31.2874 6.28994 31.2874V33.9541C5.88245 33.9541 5.58565 33.6269 5.58565 33.2585H8.25232ZM6.28994 31.2874H2.1444V33.9541H6.28994V31.2874ZM3.09361 33.5571L8.36497 28.2134L6.46654 26.3407L1.19518 31.6844L3.09361 33.5571ZM6.09211 27.4375C6.09304 27.4451 6.09362 27.4499 6.09432 27.4557C6.09495 27.4609 6.09544 27.465 6.09584 27.4685C6.09665 27.4755 6.09687 27.4779 6.09685 27.4777C6.09682 27.4773 6.09638 27.4727 6.09596 27.4649C6.09553 27.4571 6.09506 27.4453 6.09506 27.4302H8.76172C8.76172 27.2826 8.74304 27.1466 8.73939 27.1165L6.09211 27.4375ZM6.09519 27.4491C6.13758 30.4313 8.65919 32.7809 11.643 32.7809V30.1143C10.0349 30.1143 8.78211 28.8546 8.76159 27.4112L6.09519 27.4491ZM11.643 32.7809C12.1956 32.7809 12.7472 32.6959 13.2873 32.5325L12.515 29.9801C12.2121 30.0718 11.9205 30.1143 11.643 30.1143V32.7809ZM13.1948 32.5569C13.1866 32.5587 13.1831 32.5593 13.1922 32.5576C13.1927 32.5575 13.2244 32.5516 13.2428 32.548C13.2907 32.5386 13.3855 32.5191 13.4959 32.482L12.6461 29.9543C12.6742 29.9449 12.6969 29.9388 12.7111 29.9354C12.7247 29.932 12.7327 29.9305 12.7294 29.9312C12.7277 29.9315 12.725 29.932 12.7189 29.9332C12.7146 29.934 12.7038 29.936 12.695 29.9377C12.6758 29.9413 12.644 29.9475 12.6074 29.9557L13.1948 32.5569ZM12.1213 30.2823L5.9693 36.5251L7.86867 38.3968L14.0207 32.154L12.1213 30.2823ZM5.4216 22.4239V17.469H2.75493V22.4239H5.4216ZM4.33089 18.7801C4.39637 18.768 4.4639 18.7558 4.53526 18.7429C4.60544 18.7303 4.67945 18.717 4.75243 18.7035L4.26714 16.0813C4.20167 16.0935 4.13414 16.1056 4.0628 16.1185C3.99261 16.1311 3.91861 16.1444 3.84564 16.1579L4.33089 18.7801ZM4.50979 18.7257H4.54742V16.0591H4.50979V18.7257ZM4.54742 18.7257C4.86331 18.7257 5.10286 18.6163 5.2049 18.5635L3.97811 16.1957C4.04873 16.1592 4.11718 16.1323 4.18257 16.1125C4.21745 16.1019 4.26248 16.09 4.31604 16.0801C4.36625 16.0709 4.44687 16.0591 4.54742 16.0591V18.7257ZM4.82771 18.6918C14.7659 16.903 24.819 16.9344 34.7449 18.7799L35.2323 16.1581C24.9898 14.2538 14.6114 14.2213 4.35531 16.0674L4.82771 18.6918ZM33.6553 17.469V22.4239H36.3219V17.469H33.6553ZM35.2292 21.1124C24.8162 19.2021 14.2671 19.2021 3.84782 21.1124L4.32871 23.7353C14.4301 21.8833 24.6533 21.8834 34.748 23.7353L35.2292 21.1124ZM32.7111 31.287C31.6116 31.287 30.7487 32.1881 30.7487 33.258H33.4154C33.4154 33.6265 33.1186 33.9537 32.7111 33.9537V31.287ZM30.7487 33.258V37.4605H33.4154V33.258H30.7487ZM33.0312 36.5241L26.8539 30.262L24.9555 32.1347L31.1328 38.3969L33.0312 36.5241ZM25.6405 32.5052C25.676 32.5124 25.7103 32.5187 25.7309 32.5226C25.7553 32.5271 25.767 32.5294 25.7761 32.5312C25.7841 32.5329 25.7824 32.5327 25.7749 32.5307C25.7671 32.5287 25.7506 32.5241 25.7282 32.516L26.635 30.0082C26.5048 29.9612 26.389 29.9349 26.3148 29.9196C26.2775 29.9119 26.2424 29.9053 26.2198 29.9011C26.1935 29.8962 26.1806 29.8938 26.1689 29.8914L25.6405 32.5052ZM25.8076 32.5419C26.3355 32.6962 26.8829 32.7805 27.4397 32.7805V30.1138C27.1534 30.1138 26.8578 30.0706 26.5555 29.9823L25.8076 32.5419ZM27.4397 32.7805C30.4227 32.7805 32.9473 30.4309 32.9814 27.4449L30.3149 27.4145C30.2985 28.8542 29.0488 30.1138 27.4397 30.1138V32.7805ZM32.9815 27.4297C32.9815 27.4759 32.9787 27.5119 32.977 27.5311C32.9761 27.541 32.9753 27.5483 32.9749 27.5515C32.9746 27.5541 32.9744 27.5559 32.9749 27.5519C32.9751 27.5495 32.9761 27.5414 32.9772 27.5324C32.9782 27.5228 32.9797 27.5091 32.9812 27.4929C32.9841 27.4609 32.9876 27.4121 32.9876 27.3531H30.321C30.321 27.307 30.3237 27.2709 30.3255 27.2517C30.3264 27.2418 30.3272 27.2345 30.3275 27.2313C30.3278 27.2287 30.3281 27.2269 30.3276 27.2309C30.3273 27.2333 30.3263 27.2414 30.3253 27.2504C30.3242 27.26 30.3227 27.2737 30.3212 27.29C30.3183 27.3219 30.3148 27.3707 30.3148 27.4297H32.9815ZM30.7057 28.2901L35.9079 33.5572L37.8052 31.6833L32.6029 26.4162L30.7057 28.2901ZM36.8566 31.2869L32.7111 31.287L32.7111 33.9537L36.8566 33.9536L36.8566 31.2869Z" fill="#FD5632" mask="url(#path-1-inside-1_92_224)"/>
</svg>
