<svg width="28" height="41" viewBox="0 0 28 41" fill="none" xmlns="http://www.w3.org/2000/svg">
<path d="M23.5152 2.60364V2.62881V3.27031V14.3237V15.07L23.5151 15.07L23.5152 15.1464V15.6449L23.5152 17.0052C23.5152 17.0052 23.5152 17.0052 23.5152 17.0052C23.5152 19.0754 22.7037 21.0205 21.4296 22.4635L20.4606 23.5609L21.9245 23.5714L27.3294 23.6103L24.9693 27.7966L24.7858 28.122L24.9675 28.4483L27.3293 32.6897H20.3636H19.7576V24.9715V23.9676L18.8324 24.357C18.0947 24.6675 17.3298 24.8412 16.5455 24.8412H11.4546C10.6703 24.8412 9.90548 24.6675 9.16778 24.357L8.2425 23.9676V24.9715V32.6897H7.63636H0.670652L3.03247 28.4483L3.2142 28.122L3.03075 27.7966L0.670732 23.6105H6.10284H7.59463L6.5995 22.4992C5.30862 21.0575 4.48485 19.0943 4.48485 17.0052V15.6449V15.1468V15.07V14.3241V3.27068V2.62881V2.60402V1.96214V0.666667H23.5152V1.96214V2.60364ZM19.0606 34.0234V34.6645V36.6266V37.2933H19.7273H21C21.6647 37.2933 22.2424 37.8604 22.2424 38.5888V39.8842H5.75758V38.5888C5.75758 37.8604 6.33526 37.2933 7 37.2933H8.27273H8.93939V36.6266V34.6645V34.0234H19.0606ZM13.079 6.91131L13.0789 6.91123L13.0705 6.91985L11.7981 8.22767C11.798 8.22776 11.7979 8.22785 11.7978 8.22794C11.2977 8.74167 11.2977 9.57259 11.7975 10.0863L11.7975 10.0863C12.045 10.3406 12.3698 10.4715 12.697 10.4791V14.3772C11.9765 14.3937 11.4243 14.9968 11.4243 15.6976C11.4243 16.4081 11.992 17.0183 12.7273 17.0183H15.2728C16.0081 17.0183 16.5758 16.4081 16.5758 15.6976C16.5758 14.9968 16.0236 14.3937 15.3031 14.3772V7.84901C15.3031 7.3384 15.0068 6.84316 14.5028 6.63389C14.0004 6.41551 13.4417 6.55174 13.079 6.91131Z" stroke="#FD5632" stroke-width="1.33333"/>
</svg>
