<svg width="39" height="39" viewBox="0 0 39 39" fill="none" xmlns="http://www.w3.org/2000/svg">
<path d="M6.66631 23.3126L6.76038 23.868H7.32362H12.2829C12.2518 24.0577 12.236 24.2505 12.236 24.444C12.236 25.1881 12.4675 25.9118 12.8892 26.5033C12.888 26.6307 12.8938 26.7578 12.9062 26.8841H0.666667V0.878092H37.427V26.8841H25.1873C25.1997 26.7574 25.2055 26.6297 25.2044 26.5019C25.6245 25.9093 25.8576 25.191 25.8576 24.444C25.8576 24.2501 25.8418 24.0573 25.811 23.868H30.7698H31.333L31.4271 23.3126C31.6447 22.0276 32.6469 21.0193 33.9065 20.8011L34.4594 20.7053V20.1442V7.61783V7.0567L33.9065 6.96094C32.6467 6.74274 31.6447 5.73425 31.4271 4.44939L31.333 3.89406H30.7698H7.32389H6.76064L6.66659 4.4494C6.44895 5.73447 5.44673 6.74275 4.18714 6.96094L3.63427 7.05671L3.63426 7.61781L3.63399 20.1442L3.63398 20.7053L4.18688 20.8011C5.44666 21.0193 6.44869 22.0278 6.66631 23.3126ZM37.4793 0.878092C37.4792 0.878092 37.4791 0.878093 37.479 0.878092H37.4793Z" stroke="#FD5632" stroke-width="1.33333"/>
<path d="M22.9394 23.6885L22.9395 23.6885C22.6245 23.426 22.5189 23.02 22.599 22.6635L22.602 22.6502L22.6021 22.6502L22.6197 22.5787C22.6864 22.2945 22.6268 22.009 22.4693 21.7977L22.4609 21.7866L22.4611 21.7865C22.3087 21.5731 22.0749 21.4356 21.7849 21.4119C21.3521 21.3851 21.0434 21.0828 20.9092 20.7434L20.9045 20.7318L20.9047 20.7317C20.8033 20.4608 20.6008 20.2687 20.3437 20.1828C20.2462 20.1532 20.1546 20.1399 20.0668 20.1399C19.9071 20.1399 19.7447 20.1862 19.5912 20.285C19.2573 20.5065 18.832 20.5057 18.4988 20.2825C18.2789 20.1371 18.012 20.1003 17.753 20.1819C17.5001 20.2658 17.2916 20.4551 17.1755 20.7602L22.9394 23.6885ZM22.9394 23.6885L22.9458 23.6937M22.9394 23.6885L22.9458 23.6937M22.9458 23.6937L22.949 23.6963L22.9638 23.7112L22.9799 23.7255C23.1762 23.8991 23.2956 24.1625 23.2956 24.4439C23.2956 24.7253 23.1762 24.9886 22.9802 25.1618L22.9802 25.1618L22.9767 25.1649L22.928 25.2086C22.6219 25.4713 22.5199 25.8717 22.599 26.2238L22.5988 26.2239L22.6021 26.2371L22.6205 26.3117L22.6208 26.3131L22.6258 26.3341V26.3566L22.633 26.405C22.6702 26.6573 22.6084 26.9042 22.4704 27.0882L22.4589 27.1035L22.4589 27.1035L22.9458 23.6937ZM15.4918 22.6505L15.4742 22.579L20.9184 28.1272C20.8308 28.3572 20.6942 28.5121 20.5464 28.6011L20.5237 28.6148L20.5022 28.6302C20.4611 28.6596 20.411 28.6845 20.3533 28.702L20.3533 28.7018L20.3413 28.7057C20.2542 28.7339 20.1634 28.748 20.0732 28.748C19.9011 28.748 19.7357 28.6985 19.596 28.6057C19.2619 28.3814 18.8349 28.381 18.5004 28.6043C18.2795 28.7509 18.011 28.7878 17.7504 28.7049L17.7505 28.7048L17.7411 28.702C17.6832 28.6844 17.624 28.6566 17.5686 28.6204L17.5687 28.6203L17.5571 28.6131C17.3924 28.5102 17.2622 28.3545 17.1911 28.1603L17.1881 28.1522L17.185 28.1443C17.0501 27.8033 16.7391 27.4997 16.303 27.4754C16.2641 27.4728 16.2189 27.4649 16.1557 27.4478L16.146 27.4452L16.1362 27.4429C15.9472 27.3977 15.7821 27.2899 15.6646 27.1398L15.6408 27.1094L15.6353 27.1038L15.6352 27.1036L15.6236 27.0882C15.4857 26.9046 15.4239 26.6579 15.4612 26.4053L15.4683 26.3569V26.3344L15.4733 26.3135L15.4737 26.3121L15.492 26.2374L15.4922 26.2375L15.4952 26.2241C15.5743 25.872 15.4722 25.4716 15.1661 25.2089L15.1174 25.1652L15.1174 25.1652L15.1142 25.1623C14.9179 24.9887 14.7985 24.7253 14.7985 24.4439C14.7985 24.1669 14.9143 23.9072 15.1053 23.7336L15.1236 23.7187L15.1517 23.6958L15.1772 23.6701L15.1848 23.6623C15.4761 23.3995 15.5723 23.0085 15.4949 22.6638L15.495 22.6637L15.4918 22.6505Z" stroke="#FD5632" stroke-width="1.33333"/>
<path d="M21.0997 31.168L21.4522 31.055V38.0329L19.347 36.9713L19.0469 36.82L18.7467 36.9713L16.6415 38.0329L16.6418 31.0359C16.7544 31.0853 16.8669 31.1273 16.9776 31.1625L16.9776 31.1625L16.9795 31.1631C17.3202 31.27 17.67 31.3241 18.0271 31.3241C18.3755 31.3241 18.7183 31.2699 19.0467 31.1661C19.3759 31.27 19.7197 31.3241 20.0727 31.3241C20.4265 31.3241 20.7783 31.271 21.0997 31.168Z" stroke="#FD5632" stroke-width="1.33333"/>
<path d="M12.2885 9.53151H25.8055C26.1445 9.53151 26.4199 9.25302 26.4199 8.91017C26.4199 8.56732 26.1445 8.28882 25.8055 8.28882H12.2885C11.9495 8.28882 11.6741 8.56732 11.6741 8.91017C11.6741 9.25302 11.9495 9.53151 12.2885 9.53151Z" fill="#FD5632"/>
<path d="M12.2885 12.6384H25.8055C26.1445 12.6384 26.4199 12.3599 26.4199 12.0171C26.4199 11.6743 26.1445 11.3958 25.8055 11.3958H12.2885C11.9495 11.3958 11.6741 11.6743 11.6741 12.0171C11.6741 12.3599 11.9495 12.6384 12.2885 12.6384Z" fill="#FD5632"/>
<path d="M23.348 14.5022H14.7462C14.4072 14.5022 14.1318 14.7807 14.1318 15.1235C14.1318 15.4664 14.4072 15.7449 14.7462 15.7449H23.348C23.687 15.7449 23.9624 15.4664 23.9624 15.1235C23.9624 14.7807 23.687 14.5022 23.348 14.5022Z" fill="#FD5632"/>
</svg>
