<svg width="34" height="34" viewBox="0 0 34 34" fill="none" xmlns="http://www.w3.org/2000/svg">
<path d="M25.5 26.7182H24.4233C23.29 26.7182 22.2133 27.1574 21.42 27.9507L18.9975 30.3449C17.8925 31.4357 16.0934 31.4357 14.9884 30.3449L12.5658 27.9507C11.7725 27.1574 10.6817 26.7182 9.5625 26.7182H8.5C6.14833 26.7182 4.25 24.8341 4.25 22.5108V7.05487C4.25 4.73154 6.14833 2.84741 8.5 2.84741H25.5C27.8517 2.84741 29.75 4.73154 29.75 7.05487V22.5108C29.75 24.8199 27.8517 26.7182 25.5 26.7182Z" stroke="white" stroke-width="2" stroke-miterlimit="10" stroke-linecap="round" stroke-linejoin="round"/>
<path d="M17.0001 14.1666C18.8231 14.1666 20.3009 12.6887 20.3009 10.8657C20.3009 9.04271 18.8231 7.56494 17.0001 7.56494C15.1771 7.56494 13.6992 9.04271 13.6992 10.8657C13.6992 12.6887 15.1771 14.1666 17.0001 14.1666Z" stroke="white" stroke-width="2" stroke-linecap="round" stroke-linejoin="round"/>
<path d="M22.6663 22.1849C22.6663 19.6349 20.1305 17.5667 16.9997 17.5667C13.8688 17.5667 11.333 19.6349 11.333 22.1849" stroke="white" stroke-width="2" stroke-linecap="round" stroke-linejoin="round"/>
</svg>
