<svg width="36" height="36" viewBox="0 0 36 36" fill="none" xmlns="http://www.w3.org/2000/svg">
<path d="M21 6C21 4.34315 19.6569 3 18 3C16.3431 3 15 4.34315 15 6C15 7.65685 16.3431 9 18 9C19.6569 9 21 7.65685 21 6Z" stroke="#091E88" stroke-width="1.5" stroke-linecap="round" stroke-linejoin="round"/>
<path d="M9 6C9 4.34315 7.65685 3 6 3C4.34315 3 3 4.34315 3 6C3 7.65685 4.34315 9 6 9C7.65685 9 9 7.65685 9 6Z" stroke="#091E88" stroke-width="1.5" stroke-linecap="round" stroke-linejoin="round"/>
<path d="M33 6C33 4.34315 31.6569 3 30 3C28.3431 3 27 4.34315 27 6C27 7.65685 28.3431 9 30 9C31.6569 9 33 7.65685 33 6Z" stroke="#091E88" stroke-width="1.5" stroke-linecap="round" stroke-linejoin="round"/>
<path d="M21 30C21 28.3431 19.6569 27 18 27C16.3431 27 15 28.3431 15 30C15 31.6569 16.3431 33 18 33C19.6569 33 21 31.6569 21 30Z" stroke="#091E88" stroke-width="1.5" stroke-linecap="round" stroke-linejoin="round"/>
<path d="M18 27L18 9" stroke="#FB4A6A" stroke-width="1.5" stroke-linecap="round" stroke-linejoin="round"/>
<path d="M6 9L6 15C6 18 7.5 19.5 10.5 19.5L25.5 19.5C28.5 19.5 30 18 30 15L30 9" stroke="#FB4A6A" stroke-width="1.5" stroke-linecap="round" stroke-linejoin="round"/>
</svg>
