<svg width="36" height="36" viewBox="0 0 36 36" fill="none" xmlns="http://www.w3.org/2000/svg">
<path d="M14.25 20.6244C14.25 22.0794 15.375 23.2494 16.755 23.2494H19.575C20.775 23.2494 21.75 22.2294 21.75 20.9544C21.75 19.5894 21.15 19.0944 20.265 18.7794L15.75 17.2044C14.865 16.8894 14.265 16.4094 14.265 15.0294C14.265 13.7694 15.24 12.7344 16.44 12.7344H19.26C20.64 12.7344 21.765 13.9044 21.765 15.3594" stroke="#FB4A6A" stroke-width="1.5" stroke-linecap="round" stroke-linejoin="round"/>
<path d="M18 11.25V24.75" stroke="#FB4A6A" stroke-width="1.5" stroke-linecap="round" stroke-linejoin="round"/>
<path d="M33 18C33 26.28 26.28 33 18 33C9.72 33 3 26.28 3 18C3 9.72 9.72 3 18 3" stroke="#091E88" stroke-width="1.5" stroke-linecap="round" stroke-linejoin="round"/>
<path d="M33 9V3H27" stroke="#091E88" stroke-width="1.5" stroke-linecap="round" stroke-linejoin="round"/>
<path d="M25.5 10.5L33 3" stroke="#091E88" stroke-width="1.5" stroke-linecap="round" stroke-linejoin="round"/>
</svg>
