<svg width="80" height="50" viewBox="0 0 80 50" fill="none" xmlns="http://www.w3.org/2000/svg">
<rect x="12.5703" y="44.9863" width="66.9306" height="4.38889" fill="#F4F5F7"/>
<path d="M65.5781 6.91406H55.6953V46.2701H65.5781V6.91406Z" fill="#FB4A6A"/>
<path d="M49.3163 3.92188H39.4336V46.2705H49.3163V3.92188Z" fill="#FB4A6A"/>
<path d="M33.5507 9.17578H23.668V46.2692H33.5507V9.17578Z" fill="#FB4A6A"/>
<path d="M17.5508 14.9551H7.66797V46.2677H17.5508V14.9551Z" fill="#FB4A6A"/>
<path d="M73.081 46.4225C73.081 46.6269 56.8335 46.8021 36.7905 46.8021C16.7476 46.8021 0.5 46.6269 0.5 46.4225C0.5 46.2182 16.7476 46.043 36.7905 46.043C56.8335 46.043 73.081 46.2036 73.081 46.4225Z" fill="#FB4A6A"/>
<path d="M68.9497 9.33772C68.9351 9.41071 67.8111 9.22094 65.782 9.33772C63.7821 9.4837 60.7895 9.96544 57.6509 11.7902C56.089 12.6807 54.527 13.9069 53.1256 15.5127C51.7242 17.1038 50.4541 19.0162 48.9505 20.9431C47.4615 22.8408 45.5931 24.7969 43.0822 25.9064C40.6006 27.045 37.7977 27.3954 34.9949 27.4976C32.1775 27.5997 29.4623 27.4538 26.8493 27.5706C24.2363 27.6873 21.74 27.9939 19.4189 28.5778C14.7768 29.7165 10.9959 32.1543 8.85003 35.0593C6.64574 37.9351 5.9596 40.9131 5.90121 42.913C5.88661 44.9421 6.29538 46.0224 6.19319 46.0516C6.19319 46.0516 5.6677 45.0005 5.59471 42.913C5.56552 40.8547 6.19322 37.7599 8.41211 34.7382C9.52155 33.2492 10.9813 31.7748 12.8352 30.6069C14.6746 29.4245 16.8643 28.5194 19.2291 27.8917C21.594 27.2786 24.1487 26.9428 26.8055 26.8115C29.4623 26.6801 32.1921 26.8115 34.9512 26.7093C37.7102 26.6071 40.4107 26.2567 42.761 25.2057C45.1259 24.1838 46.8923 22.3591 48.3813 20.4905C49.8703 18.622 51.1694 16.6951 52.6292 15.0747C54.089 13.4398 55.724 12.1843 57.359 11.3085C60.6289 9.49831 63.6944 9.08957 65.7382 9.03118C66.7746 9.01658 67.563 9.08956 68.1031 9.16255C68.6724 9.26474 68.9497 9.32312 68.9497 9.33772Z" fill="white"/>
<path d="M1.79948 0C2.00385 0 2.17904 10.5543 2.17904 23.5903C2.17904 36.6116 2.00385 47.1806 1.79948 47.1806C1.59511 47.1806 1.41992 36.6262 1.41992 23.5903C1.41992 10.5543 1.59511 0 1.79948 0Z" fill="#FB4A6A"/>
</svg>
