<svg width="69" height="68" viewBox="0 0 69 68" fill="none" xmlns="http://www.w3.org/2000/svg">
<path d="M24.8165 33.8037C26.8153 38.026 25.0208 43.0662 20.7863 45.0779C16.564 47.0767 11.5238 45.2822 9.51207 41.0477C7.51326 36.8254 9.30776 31.7853 13.5422 29.7735C17.7646 27.7747 22.8047 29.5692 24.8165 33.8037Z" fill="#9397AC"/>
<path d="M38.9806 8.34666C40.9794 12.569 39.1849 17.6091 34.9504 19.6209C30.7281 21.6197 25.6879 19.8252 23.6762 15.5907C21.6774 11.3684 23.4718 6.32823 27.7063 4.31649C31.9286 2.31768 36.9818 4.12434 38.9806 8.34666Z" fill="#9397AC"/>
<path d="M54.3618 40.7469C56.5476 45.3404 54.8756 50.6908 50.6662 52.7018C46.4438 54.7006 41.2562 52.5966 39.0703 48.0031C36.8845 43.4097 38.5566 38.0593 42.766 36.0483C46.9883 34.0495 52.176 36.1535 54.3618 40.7469Z" fill="#9397AC"/>
<path d="M43.9895 44.465C43.883 45.0961 37.4381 44.6125 29.5765 43.3805C21.715 42.1484 15.4147 40.6306 15.5212 39.9994C15.6277 39.3682 22.0726 39.8519 29.9342 41.0839C37.7958 42.3159 44.096 43.8338 43.9895 44.465Z" fill="#9397AC"/>
<path d="M29.4893 12.1879C30.0634 12.4845 27.8559 17.9893 24.5601 24.4689C21.2522 30.9614 18.1261 35.9915 17.552 35.6948C16.9779 35.3982 19.1983 29.9056 22.4811 23.4139C25.764 16.9221 28.903 11.9042 29.4893 12.1879Z" fill="#9397AC"/>
</svg>
