<svg width="93" height="93" viewBox="0 0 93 93" fill="none" xmlns="http://www.w3.org/2000/svg">
<path d="M58.9207 33.635C58.9207 33.635 52.8019 35.9717 40.5183 33.6925C28.2348 31.4134 18.3836 24.1391 17.4974 24.7879C16.6039 25.4412 11.3619 26.2195 14.6679 47.8732C17.9739 69.5268 23.5219 71.4058 25.0265 70.3745C26.5311 69.3432 34.9579 59.6641 41.8883 56.1515C48.8186 52.6389 59.3188 50.5391 59.3188 50.5391L58.9207 33.635Z" fill="#091E88"/>
<path d="M76.2374 35.2212L76.6983 39.885L76.9027 41.9716C77.1851 44.8346 75.1764 47.4251 72.3272 47.8599L58.2476 51.4094L54.896 31.7958L70.354 30.3609C73.3096 30.0817 75.9419 32.2556 76.2374 35.2212Z" fill="#E0E3F1"/>
<path d="M73.2854 45.1156L74.3467 54.6688L72.189 55.3598L66.6566 72.9049L59.0315 68.5789C59.0315 68.5789 64.0759 60.9118 63.7278 57.536C63.3725 54.1648 61.4944 54.5923 61.4944 54.5923L62.3307 48.6432L73.2854 45.1156Z" fill="#E0E3F1"/>
<path d="M15.4841 47.7786C17.349 59.4602 20.9385 68.5961 23.5065 68.1945C26.0701 67.7856 26.6457 57.9842 24.7808 46.3027C22.916 34.6211 19.3265 25.4852 16.7584 25.8868C14.1904 26.2885 13.6193 36.0971 15.4841 47.7786Z" fill="#E0E3F1"/>
<path d="M80.5131 39.58L76.7687 40.649L76.2853 35.7375L79.5692 35.6475L80.5131 39.58Z" fill="#9397AC"/>
<g opacity="0.3">
<path d="M62.043 50.6836L73.8853 50.5097L73.5814 47.7907L62.043 50.6836Z" fill="#9397AC"/>
</g>
<path d="M74.7002 37.9875C74.7195 38.1163 72.7753 38.5345 70.3597 38.9223C67.9395 39.3029 65.9573 39.5132 65.9379 39.3843C65.9186 39.2555 67.8628 38.8373 70.2784 38.4495C72.7058 38.0644 74.6808 37.8586 74.7002 37.9875Z" fill="#9397AC"/>
<path d="M75.0023 41.0614C75.0192 41.1214 74.5959 41.2826 73.8886 41.4888C73.5363 41.5861 73.1096 41.7092 72.6402 41.8286C72.1664 41.9406 71.642 42.0035 71.0812 42.0889C68.8599 42.4169 67.0623 42.5029 67.0401 42.3858C67.0236 42.2452 68.8095 41.9451 71.0045 41.6233C71.5535 41.5352 72.0796 41.4914 72.5552 41.3984C73.019 41.3026 73.4464 41.2293 73.8094 41.1657C74.5281 41.0429 74.9808 40.9942 75.0023 41.0614Z" fill="#9397AC"/>
<path d="M22.4589 40.3199C22.4589 40.3199 15.922 40.501 17.5058 48.4435C19.0941 56.3933 24.6618 54.2064 24.6618 54.2064C24.6223 49.7848 23.9037 45.1596 22.4589 40.3199Z" fill="#9397AC"/>
<path d="M22.4692 29.5887C22.5028 29.578 22.7101 30.0432 23.0725 30.9054C23.4276 31.7721 23.955 33.015 24.5617 34.5811C24.8074 35.3847 25.079 36.2628 25.3675 37.2008C25.5104 37.6757 25.6578 38.1579 25.8069 38.6592C25.8837 38.9134 25.9606 39.1677 26.0374 39.4219C26.1069 39.6807 26.1546 39.9529 26.2214 40.2234C26.4576 41.3045 26.699 42.4427 26.9556 43.6218C27.0168 43.9159 27.0825 44.2172 27.1438 44.5113C27.2095 44.8126 27.2298 45.1219 27.2765 45.425C27.3552 46.0402 27.443 46.6699 27.5235 47.3041C27.604 47.9383 27.6873 48.5607 27.7706 49.1832C27.8027 49.4952 27.8611 49.8011 27.8769 50.1031C27.8928 50.4052 27.9058 50.719 27.9172 51.0137C27.976 52.2146 28.0314 53.3773 28.0816 54.4829C28.0912 54.7586 28.1126 55.0371 28.1132 55.2982C28.0993 55.5684 28.0926 55.834 28.086 56.0997C28.0681 56.6237 28.0531 57.136 28.0363 57.6292C27.9982 58.6083 27.9623 59.5258 27.9312 60.3699C27.7512 62.0303 27.5655 63.3723 27.4415 64.294C27.3103 65.2201 27.2218 65.7275 27.191 65.7264C27.1602 65.7254 27.1825 65.2086 27.2594 64.2759C27.3418 63.3196 27.4586 61.9799 27.5976 60.3348C27.6142 59.4997 27.6238 58.5885 27.6428 57.6111C27.6523 57.1223 27.6601 56.6146 27.6707 56.095C27.6773 55.8294 27.6812 55.5755 27.6834 55.3026C27.6783 55.0342 27.6541 54.7675 27.6445 54.4917C27.587 53.3907 27.5171 52.2369 27.451 51.0406C27.4351 50.7386 27.4193 50.4365 27.4035 50.1345C27.3876 49.8325 27.3292 49.5266 27.3016 49.2218C27.2228 48.6067 27.1395 47.9842 27.0562 47.3618C26.9757 46.7276 26.897 46.1124 26.8182 45.4973C26.7715 45.1942 26.7512 44.8849 26.6855 44.5835C26.6243 44.2895 26.5586 43.9881 26.4974 43.694C26.257 42.525 26.0201 41.3941 25.7957 40.3158C25.7407 40.048 25.693 39.7758 25.6234 39.517C25.5466 39.2628 25.4771 39.004 25.4048 38.757C25.2557 38.2558 25.1155 37.7691 24.9844 37.297C24.7149 36.3573 24.4669 35.4847 24.2402 34.6793C23.6807 33.1244 23.2249 31.8673 22.9017 30.9708C22.5993 30.0917 22.4429 29.5949 22.4692 29.5887Z" fill="#9397AC"/>
</svg>
