<svg width="42" height="41" viewBox="0 0 42 41" fill="none" xmlns="http://www.w3.org/2000/svg">
<path d="M8.01133 9.17695C7.63496 9.26504 7.8752 9.24902 7.56289 9.28906C6.22559 9.57734 7.21855 9.83359 8.01133 9.17695ZM31.5303 9.71348C31.6264 9.64941 31.9627 9.32109 30.9137 9.00078C30.9777 9.3291 30.6975 9.29707 30.6975 9.48125C31.4742 10.1859 31.7945 11.4111 32.7875 11.6674C32.9797 10.7865 31.9066 10.3541 31.5303 9.71348ZM7.29863 8.9207C7.41875 9.6334 7.95527 8.16797 7.96328 7.64746C7.75508 7.76758 7.54688 7.8877 7.33066 7.98379C7.83516 8.24004 7.39473 8.5123 6.8502 8.9207C5.74512 10.298 7.8832 7.84766 7.29863 8.9207ZM21 0C9.67695 0 0.5 9.17695 0.5 20.5C0.5 31.815 9.67695 41 21 41C32.323 41 41.5 31.815 41.5 20.5C41.5 9.17695 32.323 0 21 0ZM21.5445 6.8707L21.6406 6.90273C21.2562 7.39922 23.6426 8.84863 21.9289 8.96875C20.3273 9.4252 22.6016 8.55234 21.3604 8.70449C22.017 7.7916 20.8398 7.77559 21.5445 6.8707ZM11.823 8.18398C11.2465 7.70352 9.43672 8.84063 10.0693 8.56836C11.6389 7.95176 10.1734 8.63242 10.5418 9.36914C10.2055 10.0658 10.4297 8.68047 9.59687 9.50527C8.99629 9.64141 7.52285 11.0027 7.70703 10.5863C7.65898 11.235 5.95332 12.0037 5.72109 13.0848C5.16055 14.5822 5.58496 13.0287 5.48086 12.4441C4.68008 11.4271 3.22266 14.1658 3.65508 15.2469C4.38379 13.9656 4.32773 15.1107 3.79922 15.6793C4.33574 16.6643 3.31074 17.9455 4.32773 18.6742C4.77617 18.7783 5.67305 17.1688 5.28066 18.8424C5.55293 17.393 6.0334 19.1867 6.81016 18.7863C6.8582 19.5471 7.33066 19.1947 7.43477 20.1156C8.73203 20.0195 9.91719 22.2137 8.37168 22.6301C8.60391 22.566 9.06035 22.9744 9.58887 22.6621C10.4857 23.3748 12.848 23.4629 12.9121 25.2246C11.2865 26.0014 12.5117 28.1314 11.1023 28.8922C9.48477 28.652 10.5498 30.8861 9.86914 30.6299C10.1414 32.2395 8.23555 30.4217 8.97227 31.3105C10.3256 32.1434 8.37969 31.9752 8.98828 32.5838C8.30762 32.4396 9.4127 33.849 9.59687 34.3695C10.5738 35.9551 8.75605 34.0172 8.21953 33.4887C7.70703 32.4637 6.49785 30.5018 6.16152 28.8922C5.96934 26.5539 4.15957 24.9844 3.74316 22.7021C3.32676 21.4289 4.88828 19.3869 4.04746 18.6742C3.31875 18.1057 3.61504 16.1598 3.18262 15.1348C4.26367 10.4502 7.69902 6.50234 11.823 4.16406C11.3986 4.47637 14.2494 3.35527 13.9211 3.62754C13.833 3.82773 15.5867 2.8668 16.6438 2.72266C16.5316 2.73867 13.8971 3.68359 14.6258 3.55547C13.4967 4.10801 14.5137 3.7957 15.0742 3.51543C13.9531 4.34023 13.0883 4.10801 11.815 4.83672C10.5338 5.17305 10.798 6.50234 9.88516 7.16699C10.4217 7.26309 11.767 5.78164 12.5518 5.26113C14.3535 4.38828 11.6389 6.84668 13.3525 5.78965C12.776 6.32617 12.8961 7.18301 12.5437 7.42324C12.3676 7.3752 13.2404 7.83965 11.823 8.18398ZM14.6258 4.50039C14.4416 4.74863 14.1854 5.28516 14.0332 4.95684C13.825 5.06094 13.7449 5.50938 13.3525 5.14902C13.5848 4.98086 13.825 4.58047 13.3686 4.82871C13.5768 4.60449 15.4346 3.97187 15.3305 3.73164C15.6588 3.52344 15.6268 3.41934 15.2504 3.54746C15.0582 3.4834 15.7068 2.93887 16.5717 2.8668C16.6918 2.8668 16.7398 2.94688 16.5236 2.92285C15.2184 3.32324 15.7789 3.21113 16.6598 2.92285C16.3234 3.11504 16.0912 3.17109 16.0352 3.25918C16.916 2.93887 15.9871 3.49141 16.1873 3.45137C15.9391 3.57949 16.2273 3.61953 15.7469 3.80371C15.835 3.73164 14.9621 4.32422 15.4826 4.14805C14.9781 4.62852 14.7539 4.63652 14.6258 4.50039ZM15.3945 5.64551C15.4105 4.87676 16.5156 4.38828 16.3795 4.34824C17.7408 3.70762 15.907 4.37227 16.9801 3.7957C17.3805 3.75566 18.2293 2.47441 19.4064 2.39434C20.7037 2.00195 20.1031 2.41836 21.0641 2.05L20.8719 2.21016C20.7037 2.23418 20.9119 2.53047 20.3033 2.97891C20.2393 3.67559 19.1422 3.35527 19.6867 4.1C19.3344 3.59551 18.8059 4.08398 19.4705 4.13203C18.7578 4.67656 17.1002 4.77266 16.3074 5.67754C15.7949 6.41426 15.3225 6.18203 15.3945 5.64551ZM21.0881 8.20801C20.5436 9.52129 20.015 8.01582 20.976 7.77559C21.2162 7.90371 21.3123 7.94375 21.0881 8.20801ZM19.0381 5.58145C18.8779 4.98887 19.0061 5.30117 19.959 5.0209C20.6156 5.49336 19.3744 5.80566 19.0381 5.58145ZM33.9486 29.0844C33.1959 27.7871 34.8615 26.5859 35.4221 25.4969C35.35 26.7701 35.1898 28.0273 33.9486 29.0844ZM36.7834 14.2619C35.9666 14.326 35.2299 14.5182 34.4932 14.0537C32.7955 12.1959 34.8055 16.1518 35.366 14.5342C37.384 15.3029 35.334 18.6182 34.0607 18.2738C33.348 16.7363 32.4672 15.0467 30.9137 14.2939C32.1068 15.6152 32.6994 17.2408 33.9807 18.434C34.0688 20.0996 35.7584 17.8254 35.6543 19.1146C35.8145 21.3328 33.1479 22.6621 33.6123 24.8883C34.6053 26.9143 31.6984 27.2826 32.0268 29.1004C30.8576 30.4057 29.6084 32.1674 27.5104 31.8871C27.5104 30.782 26.9498 29.8451 26.8217 28.708C25.6846 27.2666 28.0229 25.7211 26.5734 24.2156C24.8998 23.8393 26.9178 21.533 25.1961 21.7492C24.1631 20.7162 22.6496 21.7172 21.1682 21.7252C19.3104 21.9014 17.3965 19.443 18.2213 17.7053C17.5646 15.8955 20.3033 15.367 20.3754 13.7734C21.6887 12.6764 23.5545 12.8125 25.3322 12.5563C25.2041 13.8295 26.5494 13.8375 27.5664 14.2619C28.135 12.8846 29.9047 14.4861 31.1139 13.6133C31.5303 11.5793 29.9367 12.8045 29.0238 12.1559C27.9188 10.5383 31.3861 11.323 31.0258 10.4742C29.6805 10.4662 30.4412 8.8166 29.4883 9.7375C30.3451 9.88965 29.3361 10.5623 29.3602 9.79355C28.0629 9.41719 29.3121 11.267 28.6555 11.4432C27.6545 11.0268 28.127 11.9156 28.2311 12.0518C27.7986 12.9887 27.2701 10.6744 26.0449 10.7385C24.8277 9.62539 25.5645 11.243 26.6215 11.5072C26.3973 11.5713 26.7496 12.4922 26.4693 12.0998C25.5965 10.8986 23.9389 10.0979 22.9539 11.5713C22.8498 12.9486 20.0471 13.341 20.4955 11.7314C19.8389 10.0658 22.5295 11.6834 22.2812 10.3541C20.5516 9.20898 22.7537 9.57734 23.3383 8.5043C24.6676 8.54434 23.3943 7.41523 24.0189 7.08691C23.9549 8.31211 25.0359 8.07988 25.8928 7.84766C25.6846 7.14297 26.4053 7.16699 25.9648 6.58242C27.9508 5.78965 24.4514 6.95078 25.1561 5.21309C24.2992 4.62051 24.7957 6.51836 25.1561 6.71855C25.1801 7.30313 24.6836 8.02383 24.0029 6.79863C23.01 7.44727 23.1141 6.14199 23.05 6.27813C22.9379 5.77363 23.8027 5.74961 23.8107 4.86875C23.7387 4.3082 23.7547 4.01191 24.1551 3.97988C24.1871 4.05996 25.7967 4.08398 26.3652 4.74863C24.8117 4.43633 26.133 5.00488 26.8297 5.3252C26.085 4.74062 27.126 5.3252 26.5174 4.66055C26.7576 4.70859 25.8527 3.74766 26.7816 4.58848C26.2771 3.98789 27.7666 4.16406 26.8857 3.71563C28.175 4.07598 27.4143 3.74766 26.6535 3.41934C24.5555 2.17012 30.3611 5.10898 27.9908 3.80371C29.5043 4.13203 24.7557 2.63457 26.9178 3.29121C26.093 2.93086 26.8937 3.13105 27.6385 3.36328C26.3012 2.94688 24.2992 2.17012 24.3793 2.13809C24.8438 2.17012 25.3002 2.27422 25.7406 2.40234C27.11 2.81074 25.3482 2.30625 25.7246 2.31426C30.4332 3.52344 34.5572 6.67852 37.0637 10.8025C37.6482 11.4191 39.2418 15.4951 38.409 13.6854C38.7854 15.1268 38.8414 16.6803 39.0416 18.1537C38.6252 17.6893 38.1607 15.9756 37.7604 15.0227C37.5922 15.391 37.4 14.5021 36.7834 14.2619Z" fill="#4AB0FD"/>
</svg>
