<svg width="36" height="36" viewBox="0 0 36 36" fill="none" xmlns="http://www.w3.org/2000/svg">
<path d="M26.9972 10.74C26.9072 10.725 26.8022 10.725 26.7122 10.74C24.6422 10.665 22.9922 8.97 22.9922 6.87C22.9922 4.725 24.7172 3 26.8622 3C29.0072 3 30.7322 4.74 30.7322 6.87C30.7172 8.97 29.0672 10.665 26.9972 10.74Z" stroke="#091E88" stroke-width="1.5" stroke-linecap="round" stroke-linejoin="round"/>
<path d="M25.4513 21.66C27.5063 22.005 29.7713 21.645 31.3613 20.58C33.4763 19.17 33.4763 16.86 31.3613 15.45C29.7563 14.385 27.4613 14.025 25.4062 14.385" stroke="#091E88" stroke-width="1.5" stroke-linecap="round" stroke-linejoin="round"/>
<path d="M8.94985 10.74C9.03985 10.725 9.14484 10.725 9.23484 10.74C11.3048 10.665 12.9548 8.97 12.9548 6.87C12.9548 4.725 11.2298 3 9.08485 3C6.93985 3 5.21484 4.74 5.21484 6.87C5.22984 8.97 6.87985 10.665 8.94985 10.74Z" stroke="#091E88" stroke-width="1.5" stroke-linecap="round" stroke-linejoin="round"/>
<path d="M10.4962 21.66C8.44125 22.005 6.17625 21.645 4.58625 20.58C2.47125 19.17 2.47125 16.86 4.58625 15.45C6.19125 14.385 8.48625 14.025 10.5412 14.385" stroke="#091E88" stroke-width="1.5" stroke-linecap="round" stroke-linejoin="round"/>
<path d="M17.9972 21.945C17.9072 21.93 17.8022 21.93 17.7122 21.945C15.6422 21.87 13.9922 20.175 13.9922 18.075C13.9922 15.93 15.7172 14.205 17.8622 14.205C20.0072 14.205 21.7322 15.945 21.7322 18.075C21.7172 20.175 20.0672 21.885 17.9972 21.945Z" stroke="#FB4A6A" stroke-width="1.5" stroke-linecap="round" stroke-linejoin="round"/>
<path d="M13.6331 26.6709C11.5181 28.0809 11.5181 30.3909 13.6331 31.8009C16.0331 33.4059 19.9631 33.4059 22.3631 31.8009C24.4781 30.3909 24.4781 28.0809 22.3631 26.6709C19.9781 25.0809 16.0331 25.0809 13.6331 26.6709Z" stroke="#FB4A6A" stroke-width="1.5" stroke-linecap="round" stroke-linejoin="round"/>
</svg>
