<svg viewBox="0 0 22 23" id="bag" xmlns="http://www.w3.org/2000/svg">
    <path
        d="M13.8784 22.9999C9.80901 22.9999 5.73962 22.9999 1.67597 22.9999C1.62431 22.9827 1.56692 22.9655 1.51526 22.954C0.809286 22.776 0.332898 22.3398 0.0918339 21.6568C0.0516566 21.5478 0.0286981 21.4387 0 21.3297C0 18.1786 0 15.0276 0 11.8765C0.172189 11.5034 0.464909 11.3944 0.866683 11.4001C3.3175 11.4116 5.76258 11.4059 8.2134 11.4059C10.4232 11.4059 12.6386 11.4059 14.8484 11.4059C15.2731 11.4059 15.5544 11.6641 15.5544 12.0717C15.5544 15.0907 15.5601 18.1155 15.5486 21.1345C15.5486 21.9381 14.9861 22.667 14.2285 22.9138C14.1137 22.9425 13.9989 22.9712 13.8784 22.9999ZM11.6055 15.085C11.6055 14.9357 11.6113 14.7865 11.6055 14.6315C11.594 14.2527 11.3128 13.9715 10.9569 13.9772C10.6068 13.9829 10.3313 14.2584 10.3198 14.6258C10.3141 14.8554 10.3198 15.085 10.3198 15.3145C10.3026 16.5313 9.38428 17.6046 8.20192 17.7998C6.95642 18.0064 5.77406 17.3291 5.33211 16.1697C5.1427 15.6819 5.1714 15.171 5.16566 14.666C5.16566 14.2642 4.8959 13.9772 4.52856 13.9772C4.16123 13.9772 3.88572 14.2642 3.87998 14.6602C3.87998 14.8898 3.87998 15.1194 3.87998 15.349C3.91442 17.9318 6.51447 19.7627 8.95955 18.942C10.4289 18.4484 11.6686 17.0077 11.6055 15.085Z" />
    <path
        d="M16.2028 22.9999C16.5185 22.5178 16.771 22.007 16.8227 21.4215C16.8399 21.2666 16.8457 21.1059 16.8457 20.9509C16.8457 18.0237 16.8457 15.0965 16.8457 12.1635C16.8457 10.9238 16.0306 10.1087 14.7851 10.1087C12.0703 10.1087 9.35546 10.1087 6.64062 10.1087C6.55452 10.1087 6.46843 10.1087 6.37085 10.1087C6.36511 10.0341 6.35938 9.97099 6.35938 9.90786C6.35938 8.92638 6.35938 7.94491 6.35938 6.96343C6.35938 6.49278 6.61766 6.24024 7.09405 6.24024C8.08126 6.24024 9.06848 6.24024 10.0614 6.24024C10.136 6.24024 10.2164 6.24024 10.314 6.24024C10.314 5.75811 10.3082 5.29894 10.314 4.83403C10.3255 3.8296 10.6641 2.9457 11.3586 2.22825C12.4721 1.08606 13.8266 0.701507 15.3476 1.18937C16.8801 1.68298 17.764 2.78499 18.0108 4.3806C18.0395 4.56427 18.0452 4.75368 18.0452 4.93735C18.051 5.36208 18.0452 5.78107 18.0452 6.2345C18.1256 6.2345 18.206 6.2345 18.2806 6.2345C19.2735 6.2345 20.2722 6.2345 21.2652 6.2345C21.7416 6.2345 21.9998 6.48704 21.9998 6.95769C21.9998 11.6412 21.9998 16.3248 21.9998 21.0083C21.9998 22.007 21.3857 22.7474 20.4042 22.9598C20.3755 22.9655 20.3526 22.9827 20.3239 22.9942C18.9521 22.9999 17.5746 22.9999 16.2028 22.9999ZM16.7596 6.2345C16.7596 5.75811 16.7653 5.30468 16.7596 4.84551C16.7481 3.53114 15.7551 2.44635 14.435 2.29712C13.1953 2.15937 11.9612 2.99736 11.703 4.24285C11.5709 4.88569 11.6111 5.55723 11.571 6.22876C13.3273 6.2345 15.0262 6.2345 16.7596 6.2345Z" />
</svg>