<svg viewBox="0 0 15 17" id="bid" xmlns="http://www.w3.org/2000/svg">
    <path
        d="M4.73949 8.23221C4.14705 7.62008 3.59546 7.05543 3.04899 6.49079C2.19608 5.59897 2.19608 4.40636 3.0592 3.51454C3.9734 2.56995 4.8876 1.62535 5.8018 0.680764C6.67514 -0.221611 7.82938 -0.226888 8.69761 0.67021C9.24408 1.23485 9.79056 1.7995 10.3779 2.40636C10.6281 2.13195 10.8631 1.86282 11.1082 1.60952C11.5475 1.15042 12.1348 1.12931 12.5383 1.55148C12.9366 1.96309 12.9111 2.57522 12.4719 3.02905C12.2267 3.28235 11.9765 3.53037 11.716 3.78894C12.2829 4.37469 12.8243 4.93406 13.3656 5.49343C14.2492 6.40636 14.2543 7.59369 13.3759 8.50134C12.4617 9.44594 11.5475 10.3905 10.6333 11.3351C9.76502 12.2322 8.61078 12.2269 7.73744 11.3246C7.19097 10.7599 6.64449 10.1953 6.05716 9.58842C5.99076 9.6834 5.93969 9.77311 5.8733 9.83644C4.48923 11.2665 3.10517 12.6966 1.72621 14.1267C1.44531 14.4169 1.12866 14.5594 0.735402 14.4644C-0.00514926 14.2744 -0.24519 13.3509 0.296179 12.7758C0.842655 12.1953 1.39935 11.6306 1.95604 11.0607C2.80384 10.1847 3.65164 9.30873 4.49945 8.43274C4.56584 8.36414 4.64245 8.31137 4.73949 8.23221ZM4.42284 4.99211C6.01119 6.63855 7.60976 8.29554 9.19301 9.93142C10.1327 8.96045 11.0929 7.97364 12.0224 7.01322C10.4341 5.37206 8.8304 3.71506 7.24715 2.07918C6.30741 3.04488 5.35236 4.03169 4.42284 4.99211Z" />
    <path
        d="M10.6588 14.0053C11.7875 14.0053 12.9213 14 14.05 14.0106C14.5403 14.0158 14.9182 14.3747 14.9897 14.8813C15.051 15.3245 14.7803 15.7889 14.3564 15.9367C14.2288 15.9789 14.0909 16 13.9581 16C11.7466 16.0053 9.53519 16.0053 7.32375 16C6.75685 16 6.3687 15.6517 6.2972 15.1082C6.23591 14.6544 6.52702 14.19 6.96625 14.0528C7.09393 14.0158 7.23182 14.0053 7.36972 14.0053C8.46267 14 9.56073 14.0053 10.6588 14.0053Z" />
</svg>