<svg viewBox="0 0 21 21" id="dribbble" xmlns="http://www.w3.org/2000/svg">
	<path d="M0.706909 10.163C0.706909 8.36082 1.15083 6.69783 2.03863 5.17397C2.92645 3.6501 4.1323 2.44427 5.65614 1.55645C7.18001 0.668632 8.84302 0.224731 10.6451 0.224731C12.4473 0.224731 14.1103 0.668632 15.6341 1.55645C17.158 2.44427 18.3638 3.6501 19.2516 5.17397C20.1395 6.69783 20.5834 8.36082 20.5834 10.163C20.5834 11.9651 20.1395 13.6281 19.2516 15.1519C18.3638 16.6758 17.158 17.8816 15.6341 18.7695C14.1103 19.6573 12.4473 20.1012 10.6451 20.1012C8.84302 20.1012 7.18001 19.6573 5.65614 18.7695C4.1323 17.8816 2.92645 16.6758 2.03863 15.1519C1.15083 13.6281 0.706909 11.9651 0.706909 10.163ZM2.35665 10.163C2.35665 12.2301 3.05233 14.0521 4.44368 15.629C5.07973 14.3834 6.08681 13.1974 7.4649 12.0711C8.84302 10.9448 10.188 10.2358 11.4998 9.94431C11.3011 9.48054 11.1089 9.06313 10.9234 8.6921C8.64425 9.42091 6.17957 9.7853 3.52936 9.7853C3.01258 9.7853 2.62831 9.77868 2.37653 9.76543C2.37653 9.81844 2.37323 9.88469 2.36659 9.96419C2.35997 10.0437 2.35665 10.1099 2.35665 10.163ZM2.61505 8.11568C2.90658 8.14218 3.33724 8.15543 3.90702 8.15543C6.11994 8.15543 8.22021 7.85729 10.2079 7.26099C9.20079 5.47211 8.09433 3.98138 6.88848 2.78879C5.84167 3.31884 4.94391 4.05427 4.19523 4.99508C3.44656 5.93589 2.91983 6.97611 2.61505 8.11568ZM5.57664 16.7023C7.07401 17.8684 8.76351 18.4514 10.6451 18.4514C11.6257 18.4514 12.5997 18.2659 13.567 17.8949C13.302 15.629 12.7852 13.436 12.0166 11.3158C10.7975 11.5808 9.56851 12.25 8.32953 13.3233C7.09057 14.3966 6.17293 15.523 5.57664 16.7023ZM8.61774 2.15275C9.78383 3.35859 10.8638 4.86256 11.8576 6.6647C13.6597 5.9094 15.018 4.94871 15.9323 3.78262C14.3952 2.51052 12.6328 1.87448 10.6451 1.87448C9.96933 1.87448 9.29354 1.96724 8.61774 2.15275ZM12.5731 8.07593C12.7719 8.49995 12.9972 9.03662 13.2489 9.68592C14.2295 9.59316 15.2962 9.54679 16.4491 9.54679C17.2706 9.54679 18.0856 9.56666 18.8939 9.60641C18.7879 7.80428 18.1386 6.20092 16.946 4.79631C16.0847 6.08167 14.6271 7.17487 12.5731 8.07593ZM13.7459 11.0773C14.4217 13.0384 14.8788 15.0526 15.1173 17.1197C16.1642 16.4439 17.0189 15.576 17.6814 14.5159C18.344 13.4558 18.7415 12.3096 18.874 11.0773C17.9067 11.011 17.0255 10.9779 16.2304 10.9779C15.5016 10.9779 14.6734 11.011 13.7459 11.0773Z" />
</svg>
