<svg viewBox="0 0 15 15" id="filter" fill="none" xmlns="http://www.w3.org/2000/svg">
    <path
        d="M9.423 11.3462C9.423 12.8331 10.6284 14.0385 12.1153 14.0385C13.6022 14.0385 14.8076 12.8331 14.8076 11.3462C14.8076 9.85926 13.6022 8.65387 12.1153 8.65387C10.6284 8.65387 9.423 9.85926 9.423 11.3462Z"
        fill="#fff" />
    <path
        d="M0.192532 3.65386C0.192532 5.14078 1.39792 6.34616 2.88484 6.34616C4.37176 6.34616 5.57715 5.14078 5.57715 3.65386C5.57715 2.16694 4.37176 0.961548 2.88484 0.961548C1.39792 0.961548 0.192532 2.16694 0.192532 3.65386Z"
        fill="#fff" />
    <path
        d="M0.000300382 11.3461C0.000300389 11.1931 0.0610828 11.0464 0.169277 10.9382C0.277471 10.83 0.424214 10.7692 0.577223 10.7692L5.19261 10.7692C5.34562 10.7692 5.49236 10.83 5.60055 10.9382C5.70875 11.0464 5.76953 11.1931 5.76953 11.3461C5.76953 11.4992 5.70875 11.6459 5.60055 11.7541C5.49236 11.8623 5.34562 11.9231 5.19261 11.9231L0.577223 11.9231C0.424214 11.9231 0.277471 11.8623 0.169277 11.7541C0.0610828 11.6459 0.000300376 11.4992 0.000300382 11.3461Z"
        fill="#8E9CBE" />
    <path
        d="M9.23077 3.65386C9.23077 3.50085 9.29155 3.35411 9.39975 3.24591C9.50794 3.13772 9.65468 3.07693 9.80769 3.07693L14.4231 3.07693C14.5761 3.07693 14.7228 3.13772 14.831 3.24591C14.9392 3.35411 15 3.50085 15 3.65386C15 3.80687 14.9392 3.95361 14.831 4.0618C14.7228 4.17 14.5761 4.23078 14.4231 4.23078L9.80769 4.23078C9.65468 4.23078 9.50794 4.17 9.39975 4.0618C9.29155 3.95361 9.23077 3.80687 9.23077 3.65386Z"
        fill="#8E9CBE" />
</svg>