<svg viewBox="0 0 15 18" id="fire" fill="none" xmlns="http://www.w3.org/2000/svg">
    <path fill-rule="evenodd" clip-rule="evenodd"
        d="M14.5646 12.1006C14.5646 17.3535 9.31165 18 9.31165 18H5.3981C5.3981 18 5.13488 17.9884 4.72069 17.9265H4.71681C3.34262 17.729 0.350363 16.9935 0.0406855 14.3652C-0.203185 12.2981 0.683266 11.2684 1.79036 9.88645C2.66133 8.80645 2.02262 7.21548 1.98391 7.11871C2.07294 7.16516 3.49359 7.96258 3.84198 8.64C4.02349 8.97186 4.16884 9.32226 4.27552 9.68516C4.27552 9.68516 3.94262 7.08387 5.28198 5.34581C6.62133 3.60774 6.90004 3.06968 6.92714 2.17935C6.87129 1.42257 6.67298 0.683155 6.34262 0C7.28897 0.538688 8.12021 1.25813 8.78907 2.11742C8.78907 2.11742 9.04843 2.46194 9.16068 2.63226C9.31165 2.84903 9.43552 3.03484 9.55552 3.2129C10.1879 4.23131 10.5417 5.398 10.5813 6.59613C10.9294 6.25288 11.2012 5.84001 11.3787 5.38452C11.514 4.8654 11.5443 4.32451 11.4678 3.79355L12.2846 5.17548C13.202 6.85548 14.5646 9.7471 14.5646 12.1006Z"
        fill="#FF953F" />
    <path fill-rule="evenodd" clip-rule="evenodd"
        d="M10.8638 14.8336C10.8019 17.4698 9.16833 18.0001 9.16833 18.0001H5.39801C5.39801 18.0001 5.13478 17.9885 4.72059 17.9265H4.71672C3.84188 17.5085 3.34252 16.3782 3.27285 15.7356C3.22245 15.3973 3.24088 15.0524 3.32704 14.7214C3.48504 14.1219 3.80201 13.5763 4.24446 13.142C5.37478 11.9304 6.09865 11.4775 6.39285 10.1149C6.49542 9.52698 6.51367 8.9274 6.44704 8.33429C7.14177 8.7754 7.73007 9.36502 8.16962 10.0607C8.51508 10.6046 8.70639 11.2321 8.72317 11.8762C8.91046 11.692 9.05687 11.4704 9.15284 11.2259C9.22396 10.9439 9.23973 10.6507 9.1993 10.3627C9.1993 10.3627 10.9103 12.7317 10.8638 14.8336Z"
        fill="#FCAC44" />
    <path fill-rule="evenodd" clip-rule="evenodd"
        d="M9.33706 11.0044C9.37584 11.2674 9.36149 11.5355 9.29487 11.7929C9.20742 12.0172 9.07398 12.2206 8.90313 12.3902C8.88676 11.8 8.71201 11.2251 8.39719 10.7257C7.99405 10.0885 7.45498 9.5484 6.81861 9.14401C6.87899 9.68765 6.86218 10.2371 6.76867 10.776C6.5008 12.0256 5.83538 12.4382 4.803 13.5476C4.68804 13.6635 4.5806 13.7866 4.48132 13.9161C4.21902 14.2266 4.03952 14.5984 3.95951 14.9969C3.88048 15.3001 3.8635 15.6161 3.90958 15.9259C3.97732 16.5523 4.49642 17.688 5.40106 17.9996H9.3119C9.3119 17.9996 10.8057 17.5161 10.863 15.0983C10.9071 13.1721 9.33706 11.0044 9.33706 11.0044Z"
        fill="#FCCA6E" />
</svg>