<svg viewBox="0 0 14 14" id="listing" xmlns="http://www.w3.org/2000/svg">
    <path
        d="M12.8813 6.7375L7.25625 1.1125C7.03125 0.8875 6.71875 0.75 6.375 0.75H2C1.3125 0.75 0.75 1.3125 0.75 2V6.375C0.75 6.71875 0.8875 7.03125 1.11875 7.2625L6.74375 12.8875C6.96875 13.1125 7.28125 13.25 7.625 13.25C7.96875 13.25 8.28125 13.1125 8.50625 12.8813L12.8813 8.50625C13.1125 8.28125 13.25 7.96875 13.25 7.625C13.25 7.28125 13.1062 6.9625 12.8813 6.7375ZM7.625 12.0063L2 6.375V2H6.375V1.99375L12 7.61875L7.625 12.0063Z" />
    <path
        d="M3.5625 4.5C4.08027 4.5 4.5 4.08027 4.5 3.5625C4.5 3.04473 4.08027 2.625 3.5625 2.625C3.04473 2.625 2.625 3.04473 2.625 3.5625C2.625 4.08027 3.04473 4.5 3.5625 4.5Z" />
</svg>