<svg viewBox="0 0 17 14" id="twitter" xmlns="http://www.w3.org/2000/svg">
    <path
        d="M16.0528 2.15895C15.4761 2.41412 14.8645 2.58171 14.2383 2.65616C14.8984 2.26129 15.3924 1.63982 15.6283 0.907588C15.0088 1.27635 14.3297 1.53478 13.6219 1.67457C13.1465 1.1657 12.5163 0.828217 11.8293 0.714584C11.1423 0.60095 10.437 0.717536 9.82314 1.04621C9.20924 1.37489 8.72109 1.89725 8.43458 2.53208C8.14807 3.16691 8.07926 3.87864 8.23884 4.55662C6.98268 4.49364 5.75379 4.1671 4.63197 3.59821C3.51015 3.02931 2.52048 2.23077 1.7272 1.25443C1.44641 1.73688 1.29885 2.28531 1.29964 2.84356C1.29964 3.93926 1.85713 4.90725 2.7047 5.47398C2.20312 5.45819 1.71257 5.32269 1.27395 5.07878V5.11807C1.27411 5.8478 1.52654 6.55503 1.98846 7.11983C2.45038 7.68464 3.09335 8.07227 3.80836 8.21699C3.34273 8.34322 2.85451 8.36182 2.38063 8.2714C2.58223 8.89952 2.97515 9.44885 3.50437 9.84248C4.0336 10.2361 4.67265 10.4543 5.33202 10.4666C4.67669 10.9814 3.92634 11.362 3.12387 11.5866C2.3214 11.8111 1.48254 11.8753 0.655273 11.7754C2.09939 12.7044 3.78048 13.1976 5.49746 13.196C11.3088 13.196 14.4868 8.38021 14.4868 4.20374C14.4868 4.06772 14.4831 3.93019 14.477 3.79568C15.0956 3.34847 15.6295 2.79446 16.0536 2.1597L16.0528 2.15895Z" />
</svg>