<svg width="18" height="18" viewBox="0 0 18 18" fill="none" xmlns="http://www.w3.org/2000/svg">
<path d="M17.7648 7.59554L17.357 8.6056C17.2282 8.94946 17.2282 9.3148 17.357 9.65865L17.7648 10.6687C18.0009 11.2705 17.8077 11.9582 17.2711 12.345L16.3695 12.9682C16.069 13.1831 15.8758 13.5055 15.79 13.8493L15.5968 14.9239C15.468 15.5686 14.9313 16.0414 14.2874 16.0629L13.1926 16.1059C12.8277 16.1274 12.4843 16.2778 12.2267 16.5357L11.4754 17.3308C11.0246 17.8036 10.3162 17.9111 9.75814 17.5887L8.81365 17.03C8.49167 16.8366 8.12675 16.7936 7.76184 16.8795L6.68856 17.1374C6.06606 17.2879 5.40063 16.987 5.10011 16.4067L4.6064 15.4182C4.43467 15.0958 4.15562 14.8379 3.81217 14.7305L2.78183 14.3866C2.15932 14.1717 1.77294 13.57 1.83734 12.9252L1.94467 11.8292C1.9876 11.4639 1.88027 11.0985 1.64415 10.8192L0.957252 9.95952C0.549406 9.44374 0.549406 8.73455 0.957252 8.21877L1.64415 7.35914C1.88027 7.07976 1.9876 6.71442 1.94467 6.34908L1.83734 5.25305C1.77294 4.60832 2.15932 4.00658 2.78183 3.79168L3.81217 3.44782C4.15562 3.34037 4.43467 3.08248 4.6064 2.76012L5.10011 1.77154C5.40063 1.19129 6.04459 0.890424 6.68856 1.04086L7.76184 1.29875C8.10529 1.38471 8.49167 1.34173 8.81365 1.14831L9.75814 0.589554C10.3162 0.267192 11.0246 0.353155 11.4754 0.847442L12.2267 1.6426C12.4843 1.90049 12.8277 2.07242 13.1926 2.07242L14.2874 2.1154C14.9313 2.13689 15.4894 2.60968 15.5968 3.25441L15.79 4.32894C15.8544 4.69429 16.069 5.01665 16.3695 5.21007L17.2711 5.8333C17.8077 6.30609 18.0224 6.9938 17.7648 7.59554Z" fill="#FDBF00"/>
<g opacity="0.15">
<path d="M5.72261 16.3422L5.2289 15.3536C5.05718 15.0312 4.77812 14.7733 4.43467 14.6659L3.40433 14.322C2.78183 14.1071 2.39545 13.5054 2.45984 12.8607L2.56717 11.7646C2.6101 11.3993 2.50277 11.0339 2.26665 10.7546L1.57975 9.89494C1.17191 9.37916 1.17191 8.66996 1.57975 8.15419L2.26665 7.29456C2.50277 7.01518 2.6101 6.64983 2.56717 6.28449L2.45984 5.18846C2.39545 4.54374 2.78183 3.942 3.40433 3.72709L4.43467 3.38324C4.77812 3.27578 5.05718 3.0179 5.2289 2.69553L5.72261 1.70696C5.89433 1.36311 6.19485 1.12671 6.51683 1.01926C5.93726 0.933292 5.35769 1.23416 5.10011 1.77143L4.6064 2.76001C4.43467 3.08237 4.15562 3.34026 3.81217 3.44771L2.78183 3.79156C2.15932 4.00647 1.77294 4.60821 1.83734 5.25293L1.94467 6.34896C1.9876 6.71431 1.88027 7.07965 1.64415 7.35903L0.957252 8.21866C0.549406 8.73444 0.549406 9.44363 0.957252 9.95941L1.64415 10.819C1.88027 11.0984 1.9876 11.4638 1.94467 11.8291L1.83734 12.9251C1.77294 13.5699 2.15932 14.1716 2.78183 14.3865L3.81217 14.7304C4.15562 14.8378 4.43467 15.0957 4.6064 15.4181L5.10011 16.4066C5.40063 16.9869 6.04459 17.2878 6.68856 17.1373L6.81735 17.1158C6.34511 17.0299 5.93726 16.772 5.72261 16.3422Z" fill="black"/>
<path d="M9.41427 1.08456L10.3588 0.525272C10.4446 0.48225 10.5305 0.439228 10.6163 0.417717C10.3158 0.374695 9.99384 0.439228 9.73625 0.589805L8.79177 1.14909C8.7059 1.19211 8.62004 1.23513 8.53418 1.25665C8.8347 1.29967 9.13522 1.25665 9.41427 1.08456Z" fill="black"/>
<path d="M13.7937 16.0201C13.6864 16.0201 13.579 16.0416 13.4932 16.0631L14.2659 16.0201C14.3733 16.0201 14.4591 15.9985 14.5664 15.977L13.7937 16.0201Z" fill="black"/>
<path d="M10.3595 17.5028L9.41498 16.9442C9.093 16.7508 8.72808 16.7078 8.36317 16.7938L8.23438 16.8153C8.42757 16.8367 8.59929 16.9012 8.77101 16.9872L9.7155 17.5458C10.0804 17.7607 10.4883 17.7822 10.8746 17.6533C10.7029 17.6533 10.5312 17.6103 10.3595 17.5028Z" fill="black"/>
</g>
<path d="M5.85132 7.76695L8.53452 10.8386L14.0297 6.4137" fill="#FDBF00"/>
<path d="M7.8907 12.431C7.59018 12.431 7.28966 12.302 7.07501 12.0656L4.39181 8.99245C4.00543 8.54115 4.04836 7.87493 4.47767 7.46661C4.92845 7.07978 5.59388 7.12276 6.00173 7.55257L8.01949 9.85208L12.7205 6.06971C13.1712 5.70437 13.8581 5.76884 14.223 6.24164C14.588 6.71443 14.5236 7.38065 14.0513 7.74599L8.55613 12.1946C8.36294 12.345 8.12682 12.431 7.8907 12.431Z" fill="white"/>
</svg>
