<svg viewBox="0 0 250 250" id="apple" fill="none" xmlns="http://www.w3.org/2000/svg">
	<path d="M222.637 173.75C217.246 185.723 214.648 191.074 207.715 201.641C198.008 216.406 184.316 234.844 167.402 234.961C152.344 235.098 148.457 225.137 128.008 225.312C107.578 225.41 103.32 235.156 88.2421 235C71.3085 234.844 58.3593 218.242 48.6522 203.496C21.5038 162.148 18.6327 113.672 35.4101 87.8906C47.2851 69.6094 66.0546 58.8672 83.6913 58.8672C101.66 58.8672 112.949 68.7305 127.793 68.7305C142.207 68.7305 150.976 58.8477 171.758 58.8477C187.461 58.8477 204.062 67.4023 215.937 82.168C177.109 103.457 183.418 158.906 222.637 173.75ZM155.976 42.3438C163.535 32.6367 169.277 18.9453 167.187 5C154.863 5.83985 140.449 13.7109 132.031 23.9062C124.394 33.2031 118.066 46.9922 120.527 60.332C133.984 60.7617 147.91 52.7344 155.976 42.3438Z" fill="black" />
</svg>
