<svg viewBox="0 0 19 18" id="clock" xmlns="http://www.w3.org/2000/svg">
    <path
        d="M9.83301 18C4.86231 18 0.833008 13.9707 0.833008 9C0.833008 4.0293 4.86231 0 9.83301 0C14.8037 0 18.833 4.0293 18.833 9C18.833 13.9707 14.8037 18 9.83301 18ZM9.83301 16.2C11.7426 16.2 13.5739 15.4414 14.9242 14.0912C16.2744 12.7409 17.033 10.9096 17.033 9C17.033 7.09044 16.2744 5.25909 14.9242 3.90883C13.5739 2.55857 11.7426 1.8 9.83301 1.8C7.92345 1.8 6.0921 2.55857 4.74184 3.90883C3.39158 5.25909 2.63301 7.09044 2.63301 9C2.63301 10.9096 3.39158 12.7409 4.74184 14.0912C6.0921 15.4414 7.92345 16.2 9.83301 16.2ZM10.733 9H14.333V10.8H8.93301V4.5H10.733V9Z" />
</svg>