<svg viewBox="0 0 18 20" id="copy" xmlns="http://www.w3.org/2000/svg">
    <path
        d="M4.41667 4.49999V1.74999C4.41667 1.50688 4.51324 1.27372 4.68515 1.10181C4.85706 0.929905 5.09022 0.833328 5.33333 0.833328H16.3333C16.5764 0.833328 16.8096 0.929905 16.9815 1.10181C17.1534 1.27372 17.25 1.50688 17.25 1.74999V14.5833C17.25 14.8264 17.1534 15.0596 16.9815 15.2315C16.8096 15.4034 16.5764 15.5 16.3333 15.5H13.5833V18.25C13.5833 18.756 13.1708 19.1667 12.6603 19.1667H1.67308C1.5522 19.1674 1.43236 19.1442 1.32046 19.0985C1.20856 19.0528 1.1068 18.9854 1.02102 18.9002C0.935244 18.815 0.867144 18.7137 0.820633 18.6021C0.774123 18.4906 0.750119 18.3709 0.75 18.25L0.75275 5.41666C0.75275 4.91066 1.16525 4.49999 1.67583 4.49999H4.41667ZM6.25 4.49999H13.5833V13.6667H15.4167V2.66666H6.25V4.49999ZM4.41667 9.08333V10.9167H9.91667V9.08333H4.41667ZM4.41667 12.75V14.5833H9.91667V12.75H4.41667Z" />
</svg>