<svg viewBox="0 0 13 13" id="offer" xmlns="http://www.w3.org/2000/svg">
    <path
        d="M7.80749 5.78857C7.80749 6.58305 7.80749 7.35462 7.80749 8.15674C5.21014 8.15674 2.62808 8.15674 0.0078125 8.15674C0.00781247 7.38517 0.00781243 6.59833 0.0078124 5.78857C2.58988 5.78857 5.17958 5.78857 7.80749 5.78857Z" />
    <path
        d="M0 12.985C-3.50618e-08 12.1829 -6.8788e-08 11.4114 -1.0385e-07 10.6092C2.60498 10.6092 5.18705 10.6092 7.79967 10.6092C7.79967 11.4037 7.79967 12.1829 7.79967 12.985C5.20233 12.985 2.61262 12.985 0 12.985Z" />
    <path
        d="M7.79221 3.34343C5.19486 3.34343 2.62044 3.34343 0.0078125 3.34343C0.00781247 2.55659 0.00781243 1.77738 0.0078124 0.967622C2.58224 0.967622 5.17195 0.967622 7.79221 0.967622C7.79221 1.73919 7.79221 2.51839 7.79221 3.34343Z" />
    <path
        d="M12.0393 11.7929C12.0393 12.4499 11.4816 13.0076 10.8247 12.9999C10.1677 12.9999 9.61003 12.4346 9.62531 11.7776C9.64059 11.1359 10.1753 10.5936 10.817 10.5859C11.4816 10.5859 12.0393 11.1359 12.0393 11.7929Z" />
    <path
        d="M12.0391 6.98038C12.0314 7.63736 11.4661 8.19503 10.8168 8.17975C10.1751 8.17211 9.63272 7.62208 9.62508 6.98038C9.61744 6.32341 10.1751 5.7581 10.8321 5.7581C11.4891 5.76574 12.0467 6.32341 12.0391 6.98038Z" />
    <path
        d="M12.0391 2.15873C12.0314 2.81571 11.4661 3.37337 10.8168 3.35809C10.1751 3.35045 9.63272 2.80043 9.62508 2.15873C9.61744 1.50175 10.1751 0.944089 10.8321 0.944089C11.4967 0.944089 12.0467 1.49411 12.0391 2.15873Z" />
</svg>