<svg viewBox="0 0 19 20" id="reply" xmlns="http://www.w3.org/2000/svg">
    <path
        d="M14.6577 13.5833H8.08333C6.62464 13.5833 5.2257 13.0038 4.19425 11.9724C3.1628 10.9409 2.58333 9.542 2.58333 8.08331C2.58333 6.62462 3.1628 5.22567 4.19425 4.19422C5.2257 3.16277 6.62464 2.58331 8.08333 2.58331H16.3333V0.749975H8.08333C6.13841 0.749975 4.27315 1.52259 2.89788 2.89786C1.52262 4.27313 0.75 6.13839 0.75 8.08331C0.75 10.0282 1.52262 11.8935 2.89788 13.2688C4.27315 14.644 6.13841 15.4166 8.08333 15.4166H14.6577L12.333 17.7413L13.6292 19.0375L18.1667 14.5L13.6292 9.96248L12.333 11.2586L14.6577 13.5833Z" />
</svg>