<svg width="25" height="25" viewBox="0 0 25 25" fill="none" xmlns="http://www.w3.org/2000/svg">
<path d="M11.5091 15.5736L9.58203 17.5007C9.17578 17.9069 8.52995 17.9069 8.11328 17.5111C7.9987 17.3965 7.88411 17.2923 7.76953 17.1777C6.69661 16.0944 5.72786 14.959 4.86328 13.7715C4.00911 12.584 3.32161 11.3965 2.82161 10.2194C2.33203 9.0319 2.08203 7.89648 2.08203 6.81315C2.08203 6.10482 2.20703 5.42773 2.45703 4.80273C2.70703 4.16732 3.10286 3.58398 3.65495 3.06315C4.32161 2.4069 5.05078 2.08398 5.82161 2.08398C6.11328 2.08398 6.40495 2.14648 6.66536 2.27148C6.9362 2.39648 7.17578 2.58398 7.36328 2.85482L9.77995 6.26107C9.96745 6.52148 10.1029 6.76107 10.1966 6.99023C10.2904 7.20898 10.3424 7.42773 10.3424 7.62565C10.3424 7.87565 10.2695 8.12565 10.1237 8.36523C9.98828 8.60482 9.79036 8.85482 9.54036 9.10482L8.7487 9.92773C8.63411 10.0423 8.58203 10.1777 8.58203 10.3444C8.58203 10.4277 8.59245 10.5007 8.61328 10.584C8.64453 10.6673 8.67578 10.7298 8.69661 10.7923C8.88411 11.1361 9.20703 11.584 9.66536 12.1257C10.1341 12.6673 10.6341 13.2194 11.1758 13.7715C11.2799 13.8757 11.3945 13.9798 11.4987 14.084C11.9154 14.4902 11.9258 15.1569 11.5091 15.5736Z" fill="#FB4A6A"/>
<path d="M22.8854 19.0938C22.8854 19.3854 22.8333 19.6875 22.7292 19.9792C22.6979 20.0625 22.6667 20.1458 22.625 20.2292C22.4479 20.6042 22.2188 20.9583 21.9167 21.2917C21.4063 21.8542 20.8438 22.2604 20.2083 22.5208C20.1979 22.5208 20.1875 22.5312 20.1771 22.5312C19.5625 22.7812 18.8958 22.9167 18.1771 22.9167C17.1146 22.9167 15.9792 22.6667 14.7812 22.1562C13.5833 21.6458 12.3854 20.9583 11.1979 20.0938C10.7917 19.7917 10.3854 19.4896 10 19.1667L13.4062 15.7604C13.6979 15.9792 13.9583 16.1458 14.1771 16.2604C14.2292 16.2812 14.2917 16.3125 14.3646 16.3437C14.4479 16.375 14.5312 16.3854 14.625 16.3854C14.8021 16.3854 14.9375 16.3229 15.0521 16.2083L15.8438 15.4271C16.1042 15.1667 16.3542 14.9688 16.5938 14.8438C16.8333 14.6979 17.0729 14.625 17.3333 14.625C17.5312 14.625 17.7396 14.6667 17.9688 14.7604C18.1979 14.8542 18.4375 14.9896 18.6979 15.1667L22.1458 17.6146C22.4167 17.8021 22.6042 18.0208 22.7188 18.2812C22.8229 18.5417 22.8854 18.8021 22.8854 19.0938Z" fill="#FB4A6A"/>
</svg>
