<svg width="34" height="34" viewBox="0 0 34 34" fill="none" xmlns="http://www.w3.org/2000/svg">
<circle cx="17" cy="17" r="17" fill="white"/>
<path d="M34 17.0896C33.9963 13.8231 33.0635 10.6259 31.3119 7.87586C29.5603 5.12585 27.063 2.93795 24.1153 1.57075C21.1677 0.203536 17.8927 -0.28584 14.6774 0.16044C11.4622 0.60672 8.4411 1.97001 5.97116 4.08919C3.50121 6.20838 1.68567 8.99489 0.739072 12.1194C-0.207526 15.2439 -0.245609 18.5759 0.629328 21.7215C1.50426 24.8671 3.25565 27.6949 5.67651 29.8707C8.09736 32.0465 11.0865 33.4794 14.2907 34V22.0398H9.97674V17.0896H14.2907V13.3447C14.2907 9.06156 16.8372 6.68591 20.7209 6.68591C21.995 6.70393 23.2659 6.81737 24.5233 7.02529V11.2383H22.3721C22.0068 11.1897 21.6353 11.2242 21.285 11.3392C20.9347 11.4542 20.6145 11.6468 20.3478 11.9028C20.0812 12.1587 19.875 12.4716 19.7444 12.8184C19.6138 13.1651 19.562 13.537 19.593 13.9065V17.0896H24.3139L23.5349 22.0398H19.6046V34C23.6125 33.3698 27.2651 31.3198 29.9043 28.2195C32.5435 25.1192 33.996 21.1722 34 17.0896Z" fill="url(#paint0_linear_1504_10532)"/>
<defs>
<linearGradient id="paint0_linear_1504_10532" x1="4.93022" y1="5.00073" x2="29.1308" y2="29.0351" gradientUnits="userSpaceOnUse">
<stop stop-color="#4676ED"/>
<stop offset="0.19" stop-color="#436DE4"/>
<stop offset="0.49" stop-color="#3C55CD"/>
<stop offset="0.87" stop-color="#302EA8"/>
<stop offset="1" stop-color="#2B1E99"/>
</linearGradient>
</defs>
</svg>
