<svg width="34" height="34" viewBox="0 0 34 34" fill="none" xmlns="http://www.w3.org/2000/svg">
<path d="M3.89704 26.4208C3.31621 26.4208 2.83454 25.9392 2.83454 25.3583V17.2833C2.76371 13.4442 4.19454 9.81751 6.85787 7.09751C9.52121 4.39168 13.0912 2.90417 16.9304 2.90417C24.7787 2.90417 31.1679 9.29334 31.1679 17.1417V25.2167C31.1679 25.7975 30.6862 26.2792 30.1054 26.2792C29.5245 26.2792 29.0429 25.7975 29.0429 25.2167V17.1417C29.0429 10.4692 23.617 5.02917 16.9304 5.02917C13.6579 5.02917 10.6262 6.29001 8.37371 8.58501C6.10704 10.8942 4.90287 13.9683 4.95954 17.255V25.3442C4.95954 25.9392 4.49204 26.4208 3.89704 26.4208Z" fill="#FB4A6A"/>
<path d="M8.4137 17.6375H8.22953C5.25453 17.6375 2.83203 20.06 2.83203 23.035V25.6983C2.83203 28.6733 5.25453 31.0958 8.22953 31.0958H8.4137C11.3887 31.0958 13.8112 28.6733 13.8112 25.6983V23.035C13.8112 20.06 11.3887 17.6375 8.4137 17.6375Z" fill="#FB4A6A"/>
<path d="M25.7692 17.6375H25.585C22.61 17.6375 20.1875 20.06 20.1875 23.035V25.6983C20.1875 28.6733 22.61 31.0958 25.585 31.0958H25.7692C28.7442 31.0958 31.1667 28.6733 31.1667 25.6983V23.035C31.1667 20.06 28.7442 17.6375 25.7692 17.6375Z" fill="#FB4A6A"/>
</svg>
