<svg width="34" height="34" viewBox="0 0 34 34" fill="none" xmlns="http://www.w3.org/2000/svg">
<path d="M17 34C26.3888 34 34 26.3888 34 17C34 7.61116 26.3888 0 17 0C7.61116 0 0 7.61116 0 17C0 26.3888 7.61116 34 17 34Z" fill="url(#paint0_linear_1504_10536)"/>
<path d="M17 34C26.3888 34 34 26.3888 34 17C34 7.61116 26.3888 0 17 0C7.61116 0 0 7.61116 0 17C0 26.3888 7.61116 34 17 34Z" fill="black" fill-opacity="0.2"/>
<path d="M22.2761 10.5706C22.0461 10.5706 21.8213 10.6387 21.6301 10.7665C21.4388 10.8943 21.2898 11.0759 21.2018 11.2884C21.1138 11.5008 21.0908 11.7346 21.1356 11.9602C21.1805 12.1858 21.2912 12.3929 21.4539 12.5556C21.6165 12.7182 21.8237 12.8289 22.0492 12.8738C22.2748 12.9187 22.5086 12.8956 22.7211 12.8076C22.9335 12.7196 23.1151 12.5706 23.2429 12.3794C23.3707 12.1881 23.4389 11.9633 23.4389 11.7333C23.4389 11.425 23.3164 11.1292 23.0983 10.9111C22.8802 10.6931 22.5845 10.5706 22.2761 10.5706Z" fill="white"/>
<path d="M17.0785 12.0894C16.1038 12.0871 15.1503 12.3745 14.3392 12.9151C13.528 13.4557 12.8958 14.2252 12.5228 15.1258C12.1498 16.0264 12.0528 17.0175 12.2441 17.9733C12.4354 18.9291 12.9064 19.8066 13.5973 20.4942C14.2882 21.1818 15.1679 21.6487 16.1246 21.8354C17.0813 22.0222 18.072 21.9205 18.9708 21.5432C19.8696 21.1659 20.636 20.5301 21.1728 19.7164C21.7096 18.9027 21.9924 17.9478 21.9855 16.9731C21.9763 15.6767 21.4557 14.4363 20.5368 13.5217C19.6178 12.6072 18.375 12.0924 17.0785 12.0894ZM17.0785 20.1475C16.4548 20.1498 15.8444 19.967 15.3247 19.6221C14.805 19.2772 14.3993 18.7859 14.159 18.2103C13.9187 17.6347 13.8546 17.0008 13.9749 16.3887C14.0952 15.7767 14.3944 15.2141 14.8346 14.7723C15.2748 14.3304 15.8363 14.0291 16.4479 13.9066C17.0595 13.7841 17.6936 13.8458 18.2701 14.084C18.8466 14.3221 19.3394 14.726 19.6862 15.2445C20.033 15.7629 20.2181 16.3726 20.2181 16.9963C20.209 17.8251 19.8749 18.6172 19.2878 19.2021C18.7006 19.7871 17.9073 20.1182 17.0785 20.1243V20.1475Z" fill="white"/>
<path d="M20.977 26.9507H13.0235C11.4363 26.9476 9.91488 26.3157 8.79251 25.1933C7.67014 24.0709 7.03823 22.5495 7.03516 20.9623V12.9972C7.03823 11.4099 7.67014 9.88851 8.79251 8.76614C9.91488 7.64377 11.4363 7.01186 13.0235 7.00879H20.977C22.5643 7.01186 24.0857 7.64377 25.208 8.76614C26.3304 9.88851 26.9623 11.4099 26.9654 12.9972V20.9623C26.9623 22.5495 26.3304 24.0709 25.208 25.1933C24.0857 26.3157 22.5643 26.9476 20.977 26.9507ZM13.0235 8.88088C11.9328 8.88395 10.8876 9.31861 10.1163 10.0899C9.34498 10.8612 8.91032 11.9064 8.90725 12.9972V20.9623C8.91033 22.052 9.34537 23.096 10.117 23.8654C10.8886 24.6349 11.9338 25.0669 13.0235 25.0669H20.977C22.0667 25.0669 23.1119 24.6349 23.8836 23.8654C24.6552 23.096 25.0902 22.052 25.0933 20.9623V12.9972C25.0902 11.9064 24.6556 10.8612 23.8843 10.0899C23.113 9.31861 22.0678 8.88395 20.977 8.88088H13.0235Z" fill="white"/>
<defs>
<linearGradient id="paint0_linear_1504_10536" x1="29.0233" y1="4.97675" x2="4.97675" y2="29.0233" gradientUnits="userSpaceOnUse">
<stop stop-color="#FBE18A"/>
<stop offset="0.21" stop-color="#FCBB45"/>
<stop offset="0.38" stop-color="#F75274"/>
<stop offset="0.52" stop-color="#D53692"/>
<stop offset="0.74" stop-color="#8F39CE"/>
<stop offset="1" stop-color="#5B4FE9"/>
</linearGradient>
</defs>
</svg>
