<svg width="34" height="34" viewBox="0 0 34 34" fill="none" xmlns="http://www.w3.org/2000/svg">
<path d="M17 34C26.3888 34 34 26.3888 34 17C34 7.61116 26.3888 0 17 0C7.61116 0 0 7.61116 0 17C0 26.3888 7.61116 34 17 34Z" fill="url(#paint0_linear_1504_10554)"/>
<path d="M9.8695 13.8353H13.1137V24.4167H9.8695V13.8353ZM11.509 8.6144C11.8886 8.60983 12.261 8.71866 12.5783 8.92695C12.8957 9.13525 13.1437 9.43354 13.2905 9.78361C13.4374 10.1337 13.4764 10.5196 13.4026 10.892C13.3288 11.2644 13.1455 11.6062 12.8762 11.8738C12.607 12.1414 12.264 12.3226 11.8911 12.3941C11.5183 12.4656 11.1326 12.4242 10.7835 12.2752C10.4343 12.1262 10.1376 11.8763 9.93125 11.5577C9.72492 11.239 9.6184 10.866 9.62532 10.4865C9.6314 9.98986 9.83218 9.51545 10.1845 9.16534C10.5367 8.81524 11.0124 8.61741 11.509 8.6144Z" fill="white"/>
<path d="M15.2188 13.8351H18.3815V15.2769C18.7016 14.741 19.1595 14.3008 19.7077 14.0022C20.2558 13.7036 20.874 13.5575 21.4978 13.5793C24.8234 13.5793 25.4397 15.7653 25.4397 18.6141V24.4281H22.1955V19.2769C22.1955 18.1141 22.1955 16.4746 20.4862 16.4746C18.7769 16.4746 18.5094 17.8118 18.5094 19.1955V24.4281H15.2188V13.8351Z" fill="white"/>
<defs>
<linearGradient id="paint0_linear_1504_10554" x1="29.0233" y1="4.97675" x2="4.97675" y2="29.0233" gradientUnits="userSpaceOnUse">
<stop stop-color="#007AB5"/>
<stop offset="1" stop-color="#0046E5"/>
</linearGradient>
</defs>
</svg>
