<svg width="34" height="34" viewBox="0 0 34 34" fill="none" xmlns="http://www.w3.org/2000/svg">
<path d="M17 34C26.3888 34 34 26.3888 34 17C34 7.61116 26.3888 0 17 0C7.61116 0 0 7.61116 0 17C0 26.3888 7.61116 34 17 34Z" fill="url(#paint0_linear_1504_10547)"/>
<path d="M26.3964 11.177C25.7977 11.4344 25.1686 11.6141 24.5243 11.7118C24.8266 11.7118 25.2685 11.1188 25.4429 10.8979C25.7244 10.5538 25.9375 10.1592 26.0708 9.7351C26.0708 9.7351 26.0708 9.66533 26.0708 9.64208C26.0567 9.63391 26.0406 9.62961 26.0243 9.62961C26.008 9.62961 25.9919 9.63391 25.9778 9.64208C25.2726 10.0186 24.5224 10.3039 23.7452 10.4909C23.7222 10.5042 23.6962 10.5112 23.6696 10.5112C23.6431 10.5112 23.6171 10.5042 23.5941 10.4909C23.5382 10.4195 23.4759 10.3534 23.408 10.2932C23.0831 10.022 22.7183 9.80241 22.3266 9.64208C21.8042 9.42677 21.2391 9.33524 20.6755 9.37464C20.127 9.41021 19.5922 9.56076 19.1057 9.8165C18.6076 10.0738 18.1697 10.4338 17.821 10.8728C17.4722 11.3117 17.2205 11.8196 17.0824 12.363C16.9778 12.8889 16.9778 13.4302 17.0824 13.956C17.0824 14.0491 17.0824 14.0607 17.001 14.0491C14.0581 13.7478 11.3338 12.3586 9.36152 10.1537C9.28012 10.0607 9.23361 10.0607 9.15221 10.1537C8.75637 10.8874 8.60709 11.7289 8.72645 12.5539C8.84581 13.379 9.22747 14.1437 9.815 14.7351C9.96617 14.8746 10.1173 15.0142 10.2801 15.1421C9.77011 15.1019 9.27265 14.9637 8.815 14.7351C8.72198 14.7351 8.67547 14.7351 8.66384 14.8049C8.65277 14.9519 8.65277 15.0996 8.66384 15.2467C8.75205 15.9331 9.02153 16.5837 9.44458 17.1314C9.86762 17.6791 10.429 18.1042 11.0708 18.363C11.2257 18.4361 11.3901 18.4869 11.5592 18.5142C11.0824 18.5997 10.5941 18.5997 10.1173 18.5142C10.0127 18.5142 9.96616 18.5142 10.0127 18.6537C10.2604 19.3 10.6693 19.8721 11.2005 20.3158C11.7317 20.7595 12.3675 21.0599 13.0476 21.1886C13.1871 21.1886 13.3266 21.1886 13.4662 21.1886C13.4662 21.1886 13.6057 21.1886 13.4662 21.1886C12.8732 21.7216 12.1585 22.1009 11.3848 22.2932C10.3759 22.6542 9.30104 22.793 8.23361 22.7002C8.07082 22.7002 8.03593 22.7002 7.98942 22.7002C7.94291 22.7002 7.98942 22.77 7.98942 22.8049C8.19961 22.9476 8.41694 23.0796 8.64058 23.2002C9.31019 23.5537 10.0158 23.8344 10.7452 24.0374C12.6252 24.6045 14.6212 24.6677 16.5334 24.2208C18.4455 23.7739 20.2067 22.8325 21.6406 21.4909C22.6633 20.3864 23.457 19.0902 23.9759 17.6771C24.4948 16.2641 24.7286 14.7623 24.6638 13.2584C24.6638 13.1421 24.8034 13.0723 24.8964 13.0142C25.4604 12.5723 25.9578 12.0515 26.3731 11.4677C26.4428 11.3871 26.4801 11.2835 26.4778 11.177C26.4778 11.177 26.4778 11.1421 26.3964 11.177Z" fill="white"/>
<defs>
<linearGradient id="paint0_linear_1504_10547" x1="29.0233" y1="4.97675" x2="4.97675" y2="29.0233" gradientUnits="userSpaceOnUse">
<stop stop-color="#33CCFF"/>
<stop offset="1" stop-color="#337FFF"/>
</linearGradient>
</defs>
</svg>
