<svg width="59" height="35" viewBox="0 0 59 35" fill="none" xmlns="http://www.w3.org/2000/svg">
<rect x="0.9711" width="57.6069" height="34.9133" rx="2.6185" fill="#F7F7F7"/>
<rect x="1.40752" y="0.436416" width="56.7341" height="34.0405" rx="2.18208" stroke="#4A5568" stroke-opacity="0.2" stroke-width="0.872832"/>
<g clip-path="url(#clip0_36_3683)">
<path d="M26.865 24.2375H23.3297L25.5409 10.7188H29.076L26.865 24.2375Z" fill="#4A5568"/>
<path d="M39.6806 11.0492C38.9833 10.7756 37.8773 10.4736 36.5097 10.4736C33.0185 10.4736 30.5601 12.3144 30.545 14.9461C30.516 16.8878 32.3052 17.9663 33.6434 18.6137C35.0111 19.2753 35.4761 19.7071 35.4761 20.2968C35.4621 21.2024 34.3708 21.6199 33.353 21.6199C31.9415 21.6199 31.1853 21.4047 30.036 20.9008L29.5705 20.6848L29.0757 23.7195C29.9049 24.093 31.4325 24.4244 33.0185 24.439C36.728 24.439 39.143 22.6267 39.1716 19.8221C39.1857 18.2832 38.2409 17.104 36.2041 16.1404C34.9676 15.5219 34.2104 15.1048 34.2104 14.4719C34.2249 13.8965 34.8508 13.3072 36.2466 13.3072C37.3959 13.2784 38.2404 13.5515 38.8801 13.8249L39.1998 13.9684L39.6806 11.0492Z" fill="#4A5568"/>
<path d="M44.3795 19.4483C44.6706 18.6717 45.7909 15.6659 45.7909 15.6659C45.7762 15.6947 46.0815 14.8749 46.2561 14.3716L46.5031 15.5365C46.5031 15.5365 47.1726 18.7724 47.318 19.4483C46.7655 19.4483 45.0778 19.4483 44.3795 19.4483ZM48.7433 10.7188H46.0088C45.1655 10.7188 44.5249 10.963 44.161 11.8404L38.9098 24.2374H42.6193C42.6193 24.2374 43.23 22.5688 43.3613 22.2095C43.7682 22.2095 47.3767 22.2095 47.9003 22.2095C48.0017 22.6841 48.3221 24.2374 48.3221 24.2374H51.5954L48.7433 10.7188Z" fill="#4A5568"/>
<path d="M20.377 10.7188L16.9148 19.9373L16.5365 18.0677C15.8964 15.9103 13.8889 13.5665 11.6487 12.401L14.82 24.2232H18.5584L24.1153 10.7188H20.377Z" fill="#4A5568"/>
<path d="M13.6998 10.7188H8.01186L7.95367 10.9919C12.3906 12.1138 15.3291 14.8179 16.5364 18.0682L15.2999 11.8551C15.0963 10.9917 14.4707 10.7472 13.6998 10.7188Z" fill="#FAA61A"/>
</g>
<defs>
<clipPath id="clip0_36_3683">
<rect width="43.6416" height="13.9653" fill="white" transform="translate(7.95367 10.4741)"/>
</clipPath>
</defs>
</svg>
