<svg width="56" height="35" viewBox="0 0 56 35" fill="none" xmlns="http://www.w3.org/2000/svg">
<rect width="55.8613" height="34.9133" rx="2.6185" fill="#F7F7F7"/>
<rect x="0.436416" y="0.436416" width="54.9884" height="34.0405" rx="2.18208" stroke="#4A5568" stroke-opacity="0.2" stroke-width="0.872832"/>
<path d="M12.0821 12.2202H8.77679C8.5506 12.2202 8.35824 12.3849 8.32296 12.6086L6.98614 21.1015C6.95955 21.269 7.08908 21.4201 7.25872 21.4201H8.83672C9.0629 21.4201 9.25526 21.2555 9.29054 21.0313L9.65109 18.7406C9.68589 18.5164 9.87873 18.3517 10.1044 18.3517H11.1508C13.3281 18.3517 14.5847 17.296 14.9128 15.2039C15.0607 14.2886 14.9191 13.5694 14.4914 13.0658C14.0216 12.5127 13.1884 12.2202 12.0821 12.2202ZM12.4634 15.322C12.2827 16.5105 11.3765 16.5105 10.5003 16.5105H10.0015L10.3514 14.291C10.3722 14.1569 10.4882 14.0581 10.6235 14.0581H10.8521C11.449 14.0581 12.012 14.0581 12.303 14.399C12.4765 14.6024 12.5297 14.9046 12.4634 15.322Z" fill="#4A5568"/>
<path d="M21.9625 15.2834H20.3797C20.2448 15.2834 20.1284 15.3822 20.1076 15.5164L20.0375 15.96L19.9268 15.7992C19.5842 15.3009 18.8201 15.1343 18.0574 15.1343C16.3083 15.1343 14.8144 16.4617 14.5235 18.3238C14.3722 19.2526 14.5873 20.1408 15.1131 20.7602C15.5954 21.3297 16.2856 21.567 17.1067 21.567C18.516 21.567 19.2976 20.659 19.2976 20.659L19.227 21.0997C19.2004 21.2682 19.3299 21.4193 19.4986 21.4193H20.9244C21.151 21.4193 21.3424 21.2546 21.3782 21.0304L22.2336 15.6021C22.2607 15.435 22.1317 15.2834 21.9625 15.2834ZM19.7562 18.3703C19.6035 19.2763 18.8858 19.8846 17.9704 19.8846C17.5108 19.8846 17.1435 19.7369 16.9076 19.457C16.6737 19.179 16.5848 18.7833 16.6592 18.3427C16.8018 17.4443 17.5316 16.8162 18.4329 16.8162C18.8824 16.8162 19.2478 16.9658 19.4885 17.2482C19.7296 17.5334 19.8253 17.9315 19.7562 18.3703Z" fill="#4A5568"/>
<path d="M30.3921 15.2842H28.8016C28.6498 15.2842 28.5072 15.3597 28.4212 15.4861L26.2275 18.724L25.2976 15.6125C25.2391 15.4178 25.0598 15.2842 24.8568 15.2842H23.2938C23.1039 15.2842 22.9719 15.4701 23.0323 15.6493L24.7843 20.8011L23.1372 23.131C23.0077 23.3146 23.1382 23.5669 23.362 23.5669H24.9506C25.1014 23.5669 25.2425 23.4933 25.3281 23.3693L30.6183 15.7176C30.745 15.5346 30.6149 15.2842 30.3921 15.2842Z" fill="#4A5568"/>
<path d="M35.6582 12.2202H32.3524C32.1267 12.2202 31.9343 12.3849 31.899 12.6086L30.5622 21.1015C30.5356 21.269 30.6651 21.4201 30.8338 21.4201H32.5302C32.6878 21.4201 32.8226 21.3049 32.8473 21.148L33.2267 18.7406C33.2615 18.5164 33.4543 18.3517 33.68 18.3517H34.7259C36.9037 18.3517 38.1598 17.296 38.4884 15.2039C38.6368 14.2886 38.4942 13.5694 38.0665 13.0658C37.5972 12.5127 36.7645 12.2202 35.6582 12.2202ZM36.0395 15.322C35.8592 16.5105 34.953 16.5105 34.0763 16.5105H33.578L33.9284 14.291C33.9492 14.1569 34.0642 14.0581 34.2 14.0581H34.4286C35.025 14.0581 35.5886 14.0581 35.8795 14.399C36.053 14.6024 36.1057 14.9046 36.0395 15.322Z" fill="#4A5568"/>
<path d="M45.5382 15.2834H43.9563C43.8205 15.2834 43.705 15.3822 43.6847 15.5164L43.6146 15.96L43.5035 15.7992C43.1608 15.3009 42.3972 15.1343 41.6345 15.1343C39.8854 15.1343 38.392 16.4617 38.1011 18.3238C37.9503 19.2526 38.1644 20.1408 38.6902 20.7602C39.1735 21.3297 39.8627 21.567 40.6839 21.567C42.0932 21.567 42.8747 20.659 42.8747 20.659L42.8041 21.0997C42.7776 21.2682 42.9071 21.4193 43.0767 21.4193H44.502C44.7277 21.4193 44.9201 21.2546 44.9553 21.0304L45.8113 15.6021C45.8374 15.435 45.7078 15.2834 45.5382 15.2834ZM43.3319 18.3703C43.1802 19.2763 42.4615 19.8846 41.5461 19.8846C41.0874 19.8846 40.7192 19.7369 40.4833 19.457C40.2494 19.179 40.1614 18.7833 40.2349 18.3427C40.3784 17.4443 41.1072 16.8162 42.0086 16.8162C42.4581 16.8162 42.8235 16.9658 43.0642 17.2482C43.3063 17.5334 43.402 17.9315 43.3319 18.3703Z" fill="#4A5568"/>
<path d="M47.4041 12.4532L46.0475 21.1015C46.0209 21.269 46.1504 21.4201 46.3191 21.4201H47.683C47.9097 21.4201 48.102 21.2555 48.1368 21.0313L49.4746 12.5389C49.5012 12.3713 49.3717 12.2197 49.203 12.2197H47.6757C47.5409 12.2202 47.4249 12.319 47.4041 12.4532Z" fill="#4A5568"/>
</svg>
