<svg width="56" height="35" viewBox="0 0 56 35" fill="none" xmlns="http://www.w3.org/2000/svg">
<rect x="0.138733" width="55.8613" height="34.9133" rx="2.6185" fill="#F7F7F7"/>
<rect x="0.575149" y="0.436416" width="54.9884" height="34.0405" rx="2.18208" stroke="#4A5568" stroke-opacity="0.2" stroke-width="0.872832"/>
<g clip-path="url(#clip0_36_3662)">
<path d="M14.1626 25.3143V18.1362H21.6924L22.5003 19.1997L23.3354 18.1362H50.6495V24.8193C50.6495 24.8193 49.9369 25.3051 49.1108 25.3143H33.9832L33.071 24.1821V25.3143H30.089V23.38C30.089 23.38 29.6805 23.6504 28.8 23.6504H27.7833V25.3143H23.2673L22.4594 24.228L21.6425 25.3143H14.1626Z" fill="white"/>
<path d="M5.3757 12.7231L7.07319 8.72607H10.0097L10.972 10.9629V8.72607H14.6211L15.193 10.3441L15.7467 8.72607H32.127V9.53739C32.127 9.53739 32.9893 8.72607 34.4009 8.72607L39.7157 8.74441L40.6643 10.9538V8.72607H43.7189L44.5585 9.99576V8.72607H47.6403V15.9087H44.5585L43.7552 14.6345V15.9087H39.2709L38.8216 14.7766H37.6143L37.1695 15.9087H34.1285C32.9122 15.9087 32.1315 15.1112 32.1315 15.1112V15.9087H27.5383L26.626 14.7766V15.9087H9.57403L9.12469 14.7766H7.92193L7.47259 15.9087H5.3757V12.7231Z" fill="white"/>
<path d="M7.67238 9.61523L5.38486 14.9919H6.87356L7.29566 13.9147H9.75111L10.1732 14.9919H11.6982L9.41071 9.61523H7.67238ZM8.52112 10.862L9.27001 12.7413H7.77223L8.52112 10.862Z" fill="#4A5568"/>
<path d="M11.8525 14.9875V9.61084L13.9721 9.62001L15.2021 13.0853L16.4048 9.61084H18.5063V14.9875H17.1764V11.0272L15.7649 14.9875H14.5984L13.1823 11.0272V14.9875H11.8525Z" fill="#4A5568"/>
<path d="M19.4186 14.9875V9.61084H23.7621V10.8118H20.7666V11.7331H23.6895V12.8653H20.762V13.8187H23.7576V14.9875H19.4186Z" fill="#4A5568"/>
<path d="M24.5292 9.61523V14.9919H25.8591V13.0805H26.4173L28.0149 14.9919H29.6398L27.8879 13.0118C28.605 12.9522 29.3493 12.3288 29.3493 11.3616C29.3493 10.2295 28.4688 9.61982 27.4885 9.61982L24.5292 9.61523ZM25.8591 10.8162H27.3795C27.7426 10.8162 28.0104 11.1049 28.0104 11.38C28.0104 11.7375 27.6655 11.9438 27.3977 11.9438H25.8591V10.8162Z" fill="#4A5568"/>
<path d="M31.2509 14.9875H29.8939V9.61084H31.2509V14.9875Z" fill="#4A5568"/>
<path d="M34.4736 14.9873H34.1786C32.758 14.9873 31.9001 13.8597 31.9001 12.3242C31.9001 10.752 32.7534 9.61523 34.5417 9.61523H36.0122V10.8895H34.4918C33.7656 10.8895 33.2481 11.4625 33.2481 12.3379C33.2481 13.3784 33.8382 13.8139 34.6824 13.8139H35.0319L34.4736 14.9873Z" fill="#4A5568"/>
<path d="M37.3692 9.61543L35.0816 14.9875H36.5703L36.9924 13.9104H39.4479L39.87 14.9875H41.3905L39.103 9.61084L37.3692 9.61543ZM38.2134 10.8622L38.9623 12.7415H37.4645L38.2134 10.8622Z" fill="#4A5568"/>
<path d="M41.5448 14.9875V9.61084H43.2377L45.3981 12.989V9.61084H46.728V14.9875H45.0895L42.8746 11.5222V14.9875H41.5448Z" fill="#4A5568"/>
<path d="M15.0749 24.3933V19.0166H19.4185V20.2175H16.4229V21.1389H19.3504V22.271H16.4229V23.2244H19.4185V24.3933H15.0749Z" fill="#4A5568"/>
<path d="M36.3481 24.3933V19.0166H40.6916V20.2175H37.6961V21.1389H40.6099V22.271H37.6961V23.2244H40.6916V24.3933H36.3481Z" fill="#4A5568"/>
<path d="M19.5866 24.3933L21.7016 21.7393L19.5367 19.0166H21.2114L22.5004 20.6988L23.794 19.0166H25.4052L23.2675 21.7026L25.3871 24.3887H23.7123L22.4596 22.734L21.2387 24.3887L19.5866 24.3933Z" fill="#4A5568"/>
<path d="M25.5459 19.021V24.3977H26.9121V22.7017H28.3145C29.4991 22.7017 30.3978 22.0646 30.3978 20.8316C30.3978 19.8094 29.6943 19.0256 28.487 19.0256H25.5459V19.021ZM26.9121 20.2357H28.3871C28.7684 20.2357 29.0453 20.474 29.0453 20.8545C29.0453 21.212 28.7729 21.4733 28.3826 21.4733H26.9121V20.2357Z" fill="#4A5568"/>
<path d="M30.9695 19.0166V24.3933H32.2994V22.4819H32.8577L34.4553 24.3933H36.0801L34.3282 22.4131C35.0453 22.3535 35.7897 21.7302 35.7897 20.763C35.7897 19.6308 34.9092 19.0212 33.9288 19.0212L30.9695 19.0166ZM32.3039 20.2221H33.8244C34.1875 20.2221 34.4553 20.5109 34.4553 20.7859C34.4553 21.1434 34.1103 21.3497 33.8426 21.3497H32.3039V20.2221Z" fill="#4A5568"/>
<path d="M41.3089 24.3931V23.2242H43.9731C44.368 23.2242 44.5359 23.0088 44.5359 22.775C44.5359 22.5504 44.368 22.3213 43.9731 22.3213H42.7704C41.7265 22.3213 41.141 21.6795 41.141 20.7124C41.141 19.8506 41.6765 19.021 43.2288 19.021H45.8204L45.2621 20.2311H43.02C42.5934 20.2311 42.4617 20.4603 42.4617 20.6757C42.4617 20.9003 42.6251 21.1432 42.9519 21.1432H44.2137C45.3801 21.1432 45.8839 21.8125 45.8839 22.688C45.8839 23.6276 45.3211 24.3977 44.1501 24.3977H41.3089V24.3931Z" fill="#4A5568"/>
<path d="M46.1926 24.3931V23.2242H48.8568C49.2517 23.2242 49.4196 23.0088 49.4196 22.775C49.4196 22.5504 49.2517 22.3213 48.8568 22.3213H47.654C46.6101 22.3213 46.0246 21.6795 46.0246 20.7124C46.0246 19.8506 46.5602 19.021 48.1124 19.021H50.7041L50.1458 20.2311H47.9037C47.477 20.2311 47.3454 20.4603 47.3454 20.6757C47.3454 20.9003 47.5088 21.1432 47.8356 21.1432H49.0973C50.2638 21.1432 50.7676 21.8125 50.7676 22.688C50.7676 23.6276 50.2048 24.3977 49.0338 24.3977H46.1926V24.3931Z" fill="#4A5568"/>
</g>
<defs>
<clipPath id="clip0_36_3662">
<rect width="45.3873" height="16.5838" fill="white" transform="translate(5.37573 8.72852)"/>
</clipPath>
</defs>
</svg>
