<svg width="62" height="37" viewBox="0 0 62 37" fill="none" xmlns="http://www.w3.org/2000/svg">
<path d="M6.41907 1.92143L11.4408 0L22.1129 28.3375H16.369L6.41907 1.92143Z" fill="#FFA800"/>
<path d="M0 4.82101V0H11.3554V4.82101H0Z" fill="#FFA800"/>
<path d="M21.6268 23.7482L32.6649 11.8751H17.1074L15.2769 7.06226H38.722L40.0908 10.497L27.9686 23.4447H44.9112L46.5994 28.2554H23.3088L21.6268 23.7482Z" fill="#FFA800"/>
<path d="M47.8889 28.2431L40.0908 7.06226H46.0624L51.074 20.4159L55.7846 7.06431H61.8864L51.4056 34.9999H45.0129L47.8889 28.2431Z" fill="#FFA800"/>
<path d="M31.916 32.9717C32.2679 31.5369 31.3996 30.0863 29.9765 29.7315C28.5535 29.3767 27.1146 30.2521 26.7627 31.6869C26.4108 33.1216 27.2791 34.5723 28.7021 34.9271C30.1252 35.2819 31.5641 34.4064 31.916 32.9717Z" fill="#FFA800"/>
<path d="M40.4323 34.2162C41.4689 33.1712 41.4689 31.4768 40.4323 30.4317C39.3958 29.3866 37.7152 29.3866 36.6786 30.4317C35.6421 31.4768 35.6421 33.1712 36.6786 34.2162C37.7152 35.2613 39.3958 35.2613 40.4323 34.2162Z" fill="#FFA800"/>
</svg>
