<svg width="58" height="58" viewBox="0 0 58 58" fill="none" xmlns="http://www.w3.org/2000/svg">
<path d="M27.9159 25.154C28.0156 24.9517 28.17 24.7813 28.3615 24.6621C28.5531 24.543 28.7742 24.4798 28.9998 24.4798C29.2254 24.4798 29.4464 24.543 29.638 24.6621C29.8295 24.7813 29.9839 24.9517 30.0836 25.154L33.6905 32.462C33.7771 32.6379 33.9051 32.7901 34.0637 32.9055C34.2222 33.0209 34.4064 33.0959 34.6004 33.1242L42.666 34.2963C42.8889 34.3289 43.0983 34.4231 43.2705 34.5684C43.4427 34.7137 43.5708 34.9042 43.6405 35.1185C43.7101 35.3328 43.7184 35.5623 43.6645 35.781C43.6106 35.9998 43.4966 36.1991 43.3354 36.3565L37.4992 42.0453C37.3588 42.182 37.2538 42.3508 37.1932 42.5371C37.1326 42.7234 37.1181 42.9216 37.1512 43.1147L38.5287 51.1477C38.5666 51.3698 38.5417 51.598 38.4567 51.8066C38.3718 52.0153 38.2303 52.196 38.048 52.3285C37.8658 52.4609 37.6502 52.5398 37.4256 52.5562C37.2009 52.5726 36.9761 52.5259 36.7766 52.4213L29.5628 48.6295C29.3894 48.5383 29.1963 48.4906 29.0004 48.4906C28.8044 48.4906 28.6113 48.5383 28.4379 48.6295L21.2241 52.4213C21.0245 52.5265 20.7995 52.5738 20.5744 52.5577C20.3493 52.5417 20.1333 52.4629 19.9507 52.3303C19.7681 52.1978 19.6262 52.0167 19.5412 51.8077C19.4562 51.5987 19.4314 51.3701 19.4696 51.1477L20.8471 43.1147C20.8803 42.9217 20.8661 42.7235 20.8057 42.5372C20.7453 42.3509 20.6405 42.1821 20.5003 42.0453L14.6641 36.3565C14.5025 36.1991 14.3882 35.9997 14.3341 35.7808C14.28 35.5619 14.2883 35.3322 14.3579 35.1177C14.4276 34.9032 14.5558 34.7125 14.7283 34.5671C14.9007 34.4217 15.1103 34.3275 15.3335 34.2951L23.3991 33.123C23.593 33.0948 23.7771 33.02 23.9357 32.9048C24.0942 32.7897 24.2223 32.6377 24.309 32.462L27.9159 25.154ZM43.4998 4.8335H14.4998V16.9168L28.9998 22.9585L43.4998 16.9168V4.8335Z" stroke="white" stroke-width="2" stroke-linecap="round" stroke-linejoin="round"/>
<g clip-path="url(#clip0_94_1065)">
<path d="M27.9159 25.154C28.0156 24.9517 28.17 24.7813 28.3615 24.6621C28.5531 24.543 28.7742 24.4798 28.9998 24.4798C29.2254 24.4798 29.4464 24.543 29.638 24.6621C29.8295 24.7813 29.9839 24.9517 30.0836 25.154L33.6905 32.462C33.7771 32.6379 33.9051 32.7901 34.0637 32.9055C34.2222 33.0209 34.4064 33.0959 34.6004 33.1242L42.666 34.2963C42.8889 34.3289 43.0983 34.4231 43.2705 34.5684C43.4427 34.7137 43.5709 34.9042 43.6405 35.1185C43.7101 35.3328 43.7184 35.5623 43.6645 35.781C43.6106 35.9998 43.4966 36.1991 43.3354 36.3565L37.4992 42.0453C37.3588 42.182 37.2538 42.3508 37.1932 42.5371C37.1326 42.7234 37.1181 42.9216 37.1512 43.1147L38.5287 51.1477C38.5666 51.3698 38.5417 51.598 38.4567 51.8066C38.3718 52.0153 38.2303 52.196 38.048 52.3285C37.8658 52.4609 37.6502 52.5398 37.4256 52.5562C37.2009 52.5726 36.9761 52.5259 36.7766 52.4213L29.5628 48.6295C29.3894 48.5383 29.1963 48.4906 29.0004 48.4906C28.8044 48.4906 28.6113 48.5383 28.4379 48.6295L21.2241 52.4213C21.0245 52.5265 20.7995 52.5738 20.5744 52.5577C20.3493 52.5417 20.1333 52.4629 19.9507 52.3303C19.7681 52.1978 19.6262 52.0167 19.5412 51.8077C19.4562 51.5987 19.4314 51.3701 19.4696 51.1477L20.8471 43.1147C20.8803 42.9217 20.8661 42.7235 20.8057 42.5372C20.7453 42.3509 20.6405 42.1821 20.5003 42.0453L14.6641 36.3565C14.5025 36.1992 14.3882 35.9997 14.3341 35.7808C14.28 35.5619 14.2883 35.3322 14.3579 35.1177C14.4276 34.9032 14.5558 34.7125 14.7283 34.5671C14.9007 34.4217 15.1103 34.3275 15.3335 34.2951L23.3991 33.123C23.593 33.0948 23.7771 33.02 23.9357 32.9048C24.0942 32.7897 24.2223 32.6377 24.309 32.462L27.9159 25.154ZM43.4998 4.8335H14.4998V16.9168L28.9998 22.9585L43.4998 16.9168V4.8335Z" fill="white"/>
</g>
<defs>
<clipPath id="clip0_94_1065">
<rect width="30" height="19" fill="white" transform="translate(14 5)"/>
</clipPath>
</defs>
</svg>
