<svg width="58" height="58" viewBox="0 0 58 58" fill="none" xmlns="http://www.w3.org/2000/svg">
<path d="M28.9997 28.9998C31.5634 28.9998 34.0222 27.9814 35.835 26.1685C37.6479 24.3557 38.6663 21.8969 38.6663 19.3332C38.6663 16.7694 37.6479 14.3107 35.835 12.4978C34.0222 10.685 31.5634 9.6665 28.9997 9.6665C26.4359 9.6665 23.9772 10.685 22.1643 12.4978C20.3515 14.3107 19.333 16.7694 19.333 19.3332C19.333 21.8969 20.3515 24.3557 22.1643 26.1685C23.9772 27.9814 26.4359 28.9998 28.9997 28.9998Z" stroke="white" stroke-width="2" stroke-linecap="round" stroke-linejoin="round"/>
<path d="M12.083 48.3334V45.9167C12.0824 43.0626 12.804 40.2547 14.1805 37.7544C15.5571 35.2542 17.5438 33.1428 19.9559 31.617C22.3679 30.0911 25.1268 29.2004 27.9757 29.0276C30.8246 28.8548 33.6709 29.4057 36.2497 30.6289M40.2009 39.6697L42.7118 34.3457C42.7798 34.1936 42.8903 34.0643 43.0301 33.9736C43.1699 33.8829 43.333 33.8346 43.4997 33.8346C43.6663 33.8346 43.8294 33.8829 43.9692 33.9736C44.109 34.0643 44.2196 34.1936 44.2875 34.3457L46.8008 39.6697L52.4148 40.53C53.1349 40.6387 53.4201 41.5667 52.8981 42.0984L48.8381 46.2382L49.7951 52.0889C49.9183 52.8405 49.1668 53.4132 48.5215 53.058L43.4997 50.2957L38.4778 53.058C37.8326 53.4132 37.081 52.8405 37.2043 52.0913L38.1613 46.2382L34.1013 42.0984C33.5793 41.5667 33.8644 40.6387 34.5846 40.5276L40.2009 39.6697Z" fill="white"/>
</svg>
