<svg width="58" height="58" viewBox="0 0 58 58" fill="none" xmlns="http://www.w3.org/2000/svg">
<path d="M41.8333 7.57143H49C50.1046 7.57143 51 8.46686 51 9.57143V50.4286C51 51.3758 50.6137 52.2842 49.9261 52.954C49.2384 53.6237 48.3058 54 47.3333 54H10.6667C9.69421 54 8.76158 53.6237 8.07394 52.954C7.38631 52.2842 7 51.3758 7 50.4286V9.57143C7 8.46686 7.89543 7.57143 9 7.57143H16.1667M19.8333 32.5714L25.675 38.2613C26.4889 39.0541 27.799 39.0104 28.5583 38.1652L40 25.4286M18 4H40V11.1429C40 12.0901 39.6137 12.9985 38.9261 13.6682C38.2384 14.338 37.3058 14.7143 36.3333 14.7143H21.6667C20.6942 14.7143 19.7616 14.338 19.0739 13.6682C18.3863 12.9985 18 12.0901 18 11.1429V4Z" stroke="white" stroke-width="2"/>
<path d="M17 3H41V4C41 9.65685 41 12.4853 39.2426 14.2426C37.4853 16 34.6569 16 29 16C23.3431 16 20.5147 16 18.7574 14.2426C17 12.4853 17 9.65685 17 4V3Z" fill="white"/>
</svg>
