<svg width="68" height="54" viewBox="0 0 68 54" fill="none" xmlns="http://www.w3.org/2000/svg">
<path d="M67.0555 35.3899C66.5521 34.8745 65.8821 34.5427 65.1581 34.4505C64.4341 34.3587 63.6994 34.5117 63.0767 34.884C58.0185 37.9071 48.0605 43.7369 48.0605 43.7369C46.8172 44.473 45.3975 44.8778 43.9432 44.9107L32.6293 44.9583C32.2383 44.9408 31.9255 44.6354 31.9096 44.2537C31.8932 43.8724 32.1789 43.5425 32.567 43.494L44.144 43.2916C45.0814 43.2615 45.9368 42.7612 46.405 41.9686C46.8737 41.1765 46.8891 40.204 46.4455 39.3978C46.0024 38.592 45.163 38.0662 44.2271 38.0084L37.3762 37.5156C34.5076 37.2859 31.6804 36.7032 28.9619 35.7816C20.2566 32.6441 15.1221 34.2567 12.3542 35.1067H12.3537C12.0409 34.6412 11.6069 34.2651 11.0967 34.0161C10.586 33.7671 10.0169 33.6546 9.44732 33.6899L3.46148 33.953H3.46197C2.51782 33.9686 1.61954 34.3536 0.969321 35.0205C0.318653 35.6879 -0.0298494 36.5822 0.00200682 37.5019L0.694194 50.4572L0.693711 50.4577C0.757909 51.3736 1.19088 52.2278 1.899 52.8337C2.60711 53.4394 3.53197 53.7468 4.47221 53.6898L10.4856 53.4197C11.6137 53.3773 12.6346 52.756 13.1704 51.7869C13.5923 52.146 14.1329 52.3451 14.6928 52.347H14.7965L40.179 54H41.1545H41.155C44.4977 53.9995 47.7601 53.0012 50.5037 51.1393L66.6543 40.0733V40.0728C67.4078 39.5622 67.8943 38.7549 67.9846 37.8645C68.0754 36.974 67.7611 36.0896 67.125 35.4443L67.0555 35.3899ZM6.72763 50.6671C6.21115 50.6384 5.72701 50.4125 5.38048 50.0378C5.03342 49.6636 4.85242 49.1708 4.87559 48.6667C4.89924 48.1626 5.12562 47.6882 5.50599 47.346C5.88587 47.0038 6.38931 46.8212 6.90628 46.8386C7.42324 46.856 7.91269 47.0711 8.26802 47.4383C8.62328 47.8049 8.81587 48.2935 8.8038 48.798C8.78208 49.3144 8.55135 49.801 8.1623 50.1511C7.77326 50.5018 7.25725 50.6872 6.72778 50.667L6.72763 50.6671ZM48.6548 41.2208C48.7919 40.2093 48.5698 39.1833 48.0249 38.3125L57.4085 33.5893C57.9563 33.2956 58.5848 33.1765 59.2051 33.249C59.8258 33.3215 60.4075 33.5822 60.8684 33.9941C56.6613 36.4567 51.8797 39.3315 48.6616 41.2411L48.6548 41.2208ZM44.3506 36.187L43.181 36.106L52.0317 32.7323C52.9725 32.3185 54.0663 32.4131 54.9173 32.9817L46.6825 36.9631C45.9927 36.5009 45.1862 36.2326 44.3506 36.187H44.3506ZM40.9322 29.6555V31.0727V31.7477V31.7472C40.965 32.1247 40.8342 32.4979 40.5706 32.7765C40.3076 33.0547 39.9364 33.2129 39.5483 33.2114H37.1957C36.7897 33.2317 36.3949 33.0815 36.1106 32.7991C35.8263 32.5163 35.6795 32.1284 35.7075 31.7335V30.2086C35.7186 29.9667 35.7003 29.7243 35.6525 29.4866C35.4271 29.4164 35.1954 29.3689 34.9603 29.3449C33.4967 29.1529 32.0699 28.7528 30.7252 28.1574C29.5006 27.5771 29.2791 27.0979 29.6319 25.8229C29.8535 25.0401 30.0678 24.2639 30.3241 23.495C30.4554 23.0902 30.6977 22.3413 31.4521 22.3413V22.3409C31.7857 22.3649 32.1086 22.4665 32.3929 22.6379C33.7661 23.309 35.2524 23.7322 36.7801 23.886C37.7045 24.0131 38.6463 23.8945 39.5068 23.542C40.1406 23.3066 40.6011 22.7635 40.7179 22.1116C40.7893 21.4447 40.4949 20.7904 39.9427 20.3909C39.46 20.0195 38.9266 19.7155 38.358 19.4867C37.8806 19.2843 37.396 19.0956 36.9187 18.9064C35.7916 18.4969 34.6993 18.0003 33.6528 17.4224C30.8155 15.7624 29.5006 13.6099 29.6874 10.8433C29.8882 7.59748 31.7012 5.35055 35.0781 4.14985C35.9986 3.82603 35.9986 3.82603 36.0054 2.91529V2.46297V1.61953C36.0054 0.405214 36.4065 0.0404853 37.6523 0H38.8219C40.9877 0 41.147 0.344065 41.1538 2.50346C41.1538 3.52905 41.1538 3.52905 42.2055 3.69097C43.3606 3.87124 44.4863 4.19788 45.5545 4.66243C45.9204 4.7801 46.2216 5.03803 46.3886 5.37644C46.5556 5.71486 46.5745 6.10505 46.4403 6.45758L46.2187 7.19984C46.0319 7.8343 45.8519 8.46175 45.6443 9.08915C45.4923 9.56171 45.1737 10.6682 43.6097 9.93259H43.6102C42.1042 9.22141 40.4365 8.89853 38.7664 8.99454C38.3585 8.99925 37.955 9.07691 37.5761 9.22375C37.0456 9.41061 36.6556 9.85727 36.5518 10.3981C36.5089 10.9285 36.756 11.4416 37.2025 11.7475C37.8353 12.2233 38.5342 12.6097 39.2786 12.8945L39.756 13.0903C40.9931 13.5591 42.2018 14.0975 43.3752 14.7028C45.4971 15.8174 46.9987 17.7966 47.4718 20.101C47.8869 22.258 47.2961 24.4839 45.8591 26.1735C44.7614 27.491 43.2646 28.4355 41.5829 28.8728C41.0776 29.0347 40.9323 29.19 40.9323 29.6555L40.9322 29.6555Z" fill="#FFD249"/>
</svg>
