<svg width="61" height="64" viewBox="0 0 61 64" fill="none" xmlns="http://www.w3.org/2000/svg">
<path d="M36.2667 30.4336C35.5364 29.017 35.072 27.3987 35.072 25.7126C35.072 25.173 35.1382 24.6334 35.2049 24.0938H31.1555L26.1767 18.563C24.7162 16.9442 22.6583 16 20.5338 16H14.9577C12.435 16 10.1118 17.2138 8.65133 19.3723L0.61864 31.378C-0.111607 32.4572 -0.244494 33.941 0.485741 35.0198C1.14977 36.0313 2.14534 36.4364 3.14086 36.4364C4.13643 36.4364 5.1325 35.964 5.72983 35.0876L9.91214 28.8826V60.6493C9.91214 62.2004 10.9744 63.6842 12.5011 63.8866C14.4927 64.2239 16.0856 62.6728 16.0856 60.7838L16.0861 39.8084C16.0861 39.4711 16.3514 39.2015 16.6834 39.2015H18.4759C18.8079 39.2015 19.0732 39.4711 19.0732 39.8084V60.7164C19.0732 62.2675 20.1355 63.7513 21.6622 63.9536C23.5871 64.291 25.2467 62.7399 25.2467 60.8509L25.2472 26.9934L27.3717 29.4215C27.969 30.0961 28.8321 30.5007 29.6954 30.5007H36.2667L36.2667 30.4336Z" fill="#FFD249"/>
<path d="M24.5346 6.9331C24.5346 10.7626 21.4306 13.8667 17.6011 13.8667C13.772 13.8667 10.668 10.7626 10.668 6.9331C10.668 3.10405 13.772 0 17.6011 0C21.4306 0 24.5346 3.10405 24.5346 6.9331Z" fill="#FFD249"/>
<path d="M51.1982 25.5995C51.1982 29.1337 48.5718 31.9992 45.3315 31.9992C42.0917 31.9992 39.4648 29.1337 39.4648 25.5995C39.4648 22.0647 42.0917 19.1992 45.3315 19.1992C48.5718 19.1992 51.1982 22.0647 51.1982 25.5995Z" fill="#FFD249"/>
<path d="M59.9287 42.4364L52.4045 35.8738C51.0806 34.7354 49.4784 34.1328 47.7367 34.1328H41.8846C40.1429 34.1328 38.4707 34.7354 37.2168 35.8738L29.6926 42.4364C28.5777 43.4407 28.5082 45.048 29.4836 46.1196C30.5284 47.1912 32.2007 47.258 33.3155 46.3205L37.9833 42.2355V61.3878C37.9833 62.8611 39.2371 63.9995 40.7004 63.9995C42.1637 63.9995 43.4175 62.7943 43.4175 61.3878V50.0704H46.065V61.3878C46.065 62.8611 47.3188 63.9995 48.7821 63.9995C50.2454 63.9995 51.4992 62.7943 51.4992 61.3878V42.1686L56.167 46.2535C56.7244 46.7225 57.3513 46.9233 57.9783 46.9233C58.7446 46.9233 59.4416 46.6557 59.9984 46.0526C61.1137 45.0479 61.0437 43.3738 59.9289 42.4362L59.9287 42.4364Z" fill="#FFD249"/>
</svg>
