<svg width="57" height="64" viewBox="0 0 57 64" fill="none" xmlns="http://www.w3.org/2000/svg">
<path d="M50.751 30.8909C50.4145 32.0349 49.607 33.8521 48.732 35.8035C49.2704 37.1494 49.2033 38.8318 48.2607 40.7161C48.0588 41.1874 47.7222 41.6583 47.3857 42.1296C46.5107 43.3407 45.3666 44.6195 44.0208 46.0329L43.7518 46.3018C43.4152 46.6384 42.8768 46.7732 42.5407 46.5037C42.0694 46.1671 41.9351 45.4944 42.3388 45.0902C42.4736 44.9555 42.5407 44.8884 42.6754 44.7536C44.3579 42.9365 45.9731 41.1869 46.6459 39.841C47.9246 37.3512 47.0496 35.7359 45.8384 34.9956C44.8292 34.39 43.4828 34.39 42.7425 35.5341C41.6656 37.1493 40.1851 38.8318 38.7044 40.5142C37.022 42.3985 35.4067 44.4174 34.4646 45.9652C33.3877 47.7148 32.0418 51.9546 31.7729 56.3287C31.6382 58.4825 31.571 60.9724 31.5039 62.4529C31.5039 63.1932 32.1095 63.8664 32.8497 63.8664H41.5309C42.2712 63.8664 42.8767 63.2609 42.8767 62.5206V60.0307C42.8767 59.4251 43.1457 58.8867 43.617 58.5502C46.7129 56.3964 49.6065 53.8395 51.2217 51.9551C54.7885 47.7828 56.0672 35.5345 56.269 31.9005C56.4714 28.4009 51.8278 27.5259 50.7509 30.8907L50.751 30.8909Z" fill="#FFD249"/>
<path d="M21.8115 46.0326C20.8694 44.4173 19.1869 42.4658 17.5716 40.5816C16.0911 38.9664 14.6104 37.2167 13.5336 35.6015C12.7933 34.4575 11.3798 34.4575 10.4376 35.063C9.22652 35.8033 8.35153 37.4187 9.63021 39.9085C10.3034 41.2543 11.9182 43.0044 13.6006 44.8211C13.6678 44.9558 13.8025 45.0229 13.9372 45.1576C14.3409 45.5614 14.2738 46.2345 13.7354 46.5711C13.3317 46.8401 12.7932 46.7059 12.5243 46.3693C12.4571 46.3021 12.3224 46.1674 12.2553 46.1003C10.9765 44.6868 9.76538 43.4086 8.89039 42.197C8.55381 41.7257 8.21722 41.2549 8.01538 40.7835C7.00611 38.8992 7.00611 37.1497 7.54407 35.8709C6.66906 33.9196 5.86163 32.1024 5.52502 30.9583C4.44815 27.5263 -0.195505 28.4009 0.00638717 32.0352C0.208244 35.669 1.48693 47.9174 5.0537 52.0899C6.66896 53.9742 9.62969 56.5316 12.6584 58.6849C13.1297 59.0215 13.3987 59.5599 13.3987 60.1654V62.6553C13.3987 63.3956 14.0043 64.0012 14.7446 64.0012H23.4257C24.166 64.0012 24.7715 63.3956 24.7715 62.5877C24.7044 61.1071 24.6368 58.6172 24.5025 56.4635C24.2336 52.0222 22.8876 47.8499 21.8112 46.0327L21.8115 46.0326Z" fill="#FFD249"/>
<path d="M18.2431 32.7738H37.9613C39.8456 32.7738 41.3262 31.2932 41.3262 29.4089L41.3267 15.411C41.3267 13.5267 39.8461 12.0461 37.9618 12.0461H37.0196V7.5372C37.0196 3.36488 33.6548 0 29.4824 0H26.7231C22.5508 0 19.1859 3.36488 19.1859 7.5372V12.0461H18.2438C16.3595 12.0461 14.8789 13.5267 14.8789 15.411V29.4089C14.8784 31.2932 16.359 32.7738 18.2433 32.7738H18.2431ZM30.2894 26.7843C30.3565 27.1209 30.0875 27.5246 29.751 27.5246H26.4533C26.0495 27.5246 25.7801 27.188 25.9148 26.7843L26.9917 22.4772C26.0495 22.0735 25.444 21.1314 25.444 20.0545C25.444 18.574 26.6551 17.3629 28.1356 17.3629C29.6162 17.3629 30.8273 18.574 30.8273 20.0545C30.8273 21.1314 30.1541 22.0736 29.2796 22.4772L30.2894 26.7843ZM23.6944 7.5372C23.6944 5.85476 25.0402 4.50893 26.7226 4.50893H29.4143C31.0967 4.50893 32.4426 5.85476 32.4426 7.5372V12.0461H23.6938L23.6944 7.5372Z" fill="#FFD249"/>
</svg>
