<svg width="70" height="64" viewBox="0 0 70 64" fill="none" xmlns="http://www.w3.org/2000/svg">
<path d="M67.6074 53.0413H65.8824V17.2341C65.8824 15.5352 64.5051 14.1579 62.8063 14.1579H45.3258C44.8157 13.344 44.2068 12.5836 43.5009 11.894C41.1376 9.58561 38.0186 8.35931 34.7073 8.43501C31.5786 8.50871 28.6273 9.78061 26.3971 12.0164C25.7428 12.6725 25.174 13.3918 24.6918 14.1578H7.19373C5.49486 14.1578 4.11756 15.5351 4.11756 17.234V23.4644C4.11756 24.0259 4.55027 24.5155 5.1115 24.5323C5.69215 24.5496 6.16834 24.0841 6.16834 23.5073V17.2341C6.16834 16.6678 6.62744 16.2087 7.19373 16.2087H23.6579C23.1495 17.5136 22.8663 18.9058 22.8361 20.3354C22.7717 23.3704 23.8321 26.3002 25.8218 28.5846C27.2219 30.1924 28.2732 32.1955 28.8686 34.3881C28.8999 34.5035 28.9149 34.6231 28.9149 34.7427V41.8703C28.9149 45.2753 31.7014 48.1206 35.1058 48.0623C38.4125 48.0055 41.0849 45.2981 41.0849 41.9781V34.7341C41.0849 34.6201 41.0994 34.5065 41.128 34.396C41.6801 32.2674 42.735 30.279 44.2634 28.4858C44.9452 27.6858 45.5211 26.801 45.9748 25.8554C46.2007 25.3849 46.0559 24.8023 45.6147 24.5231C45.0851 24.1879 44.3983 24.3968 44.1365 24.9459C43.7575 25.7405 43.275 26.4838 42.7025 27.1555C41.0844 29.054 39.9324 31.1547 39.274 33.406H30.7207C30.0263 31.0893 28.875 28.968 27.3682 27.2379C25.7143 25.3389 24.833 22.9031 24.8865 20.379C24.9218 18.7133 25.3687 17.1074 26.1725 15.6782C26.1738 15.6756 26.1755 15.6732 26.177 15.6706C26.6263 14.8734 27.1853 14.1306 27.8492 13.465C29.7046 11.605 32.1575 10.5468 34.7558 10.4857C37.5056 10.4178 40.1032 11.4424 42.0681 13.3614C42.7707 14.0476 43.358 14.818 43.8259 15.6488C43.8434 15.6832 43.8622 15.7165 43.8834 15.7484C44.6884 17.2171 45.1162 18.8729 45.1162 20.5987C45.1162 20.7536 45.1127 20.9096 45.1057 21.0628C45.0799 21.6285 45.5175 22.108 46.0831 22.134C46.649 22.1582 47.1285 21.7222 47.1543 21.1566C47.1628 20.9725 47.167 20.7848 47.167 20.5989C47.167 19.0709 46.8852 17.5898 46.3522 16.2093H62.8065C63.3728 16.2093 63.8319 16.6684 63.8319 17.2346V53.0418H20.347C19.7855 53.0418 19.2959 53.4745 19.2791 54.0358C19.2618 54.6164 19.7273 55.0926 20.3041 55.0926H25.9275V56.9799C25.9275 58.3013 26.9987 59.3725 28.3201 59.3725H41.6801C43.0015 59.3725 44.0727 58.3013 44.0727 56.9799V55.0926H67.6074C67.7962 55.0926 67.9492 55.2456 67.9492 55.4344V59.2088C67.9492 60.5302 66.878 61.6014 65.5566 61.6014H4.44336C3.12197 61.6014 2.05078 60.5302 2.05078 59.2088V55.4344C2.05078 55.2456 2.20377 55.0926 2.39258 55.0926H15.7922C16.3538 55.0926 16.8433 54.6599 16.8602 54.0987C16.8775 53.518 16.412 53.0418 15.8352 53.0418H6.16834V28.0196C6.16834 27.4581 5.73562 26.9685 5.17439 26.9517C4.59375 26.9343 4.11756 27.3998 4.11756 27.9766V53.0418H2.39258C1.07119 53.0418 0 54.113 0 55.4344V59.2088C0 61.6628 1.98939 63.6522 4.44336 63.6522H65.5566C68.0106 63.6522 70 61.6628 70 59.2088V55.4344C70 54.1125 68.9288 53.0413 67.6074 53.0413ZM30.9657 40.821V39.1642H39.0343V40.821H30.9657ZM39.0343 37.1133H30.9657V35.4565H39.0343V37.1133ZM35 46.0123C33.0827 46.0123 31.4746 44.6674 31.0667 42.8716H38.9333C38.5254 44.6674 36.9173 46.0123 35 46.0123ZM42.0217 56.9793C42.0217 57.1679 41.8685 57.3211 41.6799 57.3211H28.3199C28.1314 57.3211 27.9781 57.1679 27.9781 56.9793V55.0921H42.0217V56.9793Z" fill="#091E88"/>
<path d="M35 5.89516C35.5664 5.89516 36.0254 5.4362 36.0254 4.86977V1.37305C36.0254 0.806626 35.5664 0.347656 35 0.347656C34.4336 0.347656 33.9746 0.806626 33.9746 1.37305V4.86977C33.9746 5.4362 34.4336 5.89516 35 5.89516Z" fill="#FB4A6A"/>
<path d="M23.3481 7.90615C23.5291 8.26215 23.8894 8.46725 24.263 8.46725C24.4193 8.46725 24.578 8.43135 24.7269 8.35585C25.2317 8.09925 25.4329 7.48195 25.1764 6.97704L23.5921 3.85972C23.3354 3.35509 22.7184 3.15384 22.2133 3.41019C21.7086 3.66681 21.5073 4.28409 21.7638 4.789L23.3481 7.90615Z" fill="#FB4A6A"/>
<path d="M45.274 8.35599C45.4229 8.43159 45.5814 8.46739 45.7379 8.46739C46.1115 8.46739 46.4718 8.26229 46.6528 7.90629L48.2371 4.78896C48.4936 4.28405 48.2923 3.66677 47.7875 3.41015C47.2829 3.15394 46.6655 3.35491 46.4087 3.85968L44.8244 6.977C44.5678 7.48219 44.7691 8.09949 45.274 8.35599Z" fill="#FB4A6A"/>
<path d="M34.9989 13.4121C30.9135 13.4121 27.5898 16.7357 27.5898 20.8211C27.5898 24.9066 30.9136 28.2302 34.9989 28.2302C39.0842 28.2302 42.408 24.9064 42.408 20.8211C42.408 16.7358 39.0843 13.4121 34.9989 13.4121ZM34.9989 26.1795C32.0444 26.1795 29.6406 23.7758 29.6406 20.8213C29.6406 17.8668 32.0444 15.463 34.9989 15.463C37.9534 15.463 40.3572 17.8668 40.3572 20.8213C40.3572 23.7758 37.9534 26.1795 34.9989 26.1795Z" fill="#FB4A6A"/>
<path d="M37.1459 18.7846L34.3592 21.5715L32.8394 20.119C32.4299 19.7278 31.7811 19.7425 31.3896 20.1518C30.9983 20.5611 31.013 21.2103 31.4224 21.6016L33.667 23.7465C33.8653 23.9362 34.1203 24.0306 34.3753 24.0306C34.6381 24.0306 34.9006 23.9303 35.1006 23.7304L38.5961 20.2349C38.9965 19.8343 38.9965 19.1852 38.5961 18.7847C38.1955 18.3843 37.5464 18.3843 37.1459 18.7846Z" fill="#FB4A6A"/>
</svg>
