<svg width="72" height="70" viewBox="0 0 72 70" fill="none" xmlns="http://www.w3.org/2000/svg">
<g clip-path="url(#clip0_1427_15270)">
<path d="M4.91444 57.5588H3.18946C1.87026 57.5588 0.796875 58.6321 0.796875 59.9513V63.7257C0.796875 66.1759 2.79024 68.1691 5.24024 68.1691H66.3535C68.8036 68.1691 70.7968 66.1759 70.7968 63.7257V59.9513C70.7968 58.6321 69.7235 57.5588 68.4043 57.5588H66.6793V21.7516C66.6793 20.0555 65.2993 18.6754 63.6031 18.6754H46.0353C45.3658 12.39 42.2977 6.54437 37.3321 2.39003C36.4426 1.64614 35.1511 1.64587 34.2618 2.39017C29.2961 6.5445 26.228 12.39 25.5585 18.6754H7.99061C6.29434 18.6754 4.91444 20.0555 4.91444 21.7516V28.0249C4.91444 28.5913 5.37354 29.0503 5.93983 29.0503C6.50612 29.0503 6.96522 28.5913 6.96522 28.0249V21.7516C6.96522 21.1861 7.42514 20.7262 7.99061 20.7262H25.4284C25.4032 21.8297 25.449 22.9419 25.5738 24.0571L26.3999 31.4378L17.1276 43.391C16.7247 43.9104 16.654 44.5999 16.9432 45.1902C17.2325 45.7806 17.8205 46.1474 18.478 46.1474H24.4841V46.9076C21.7398 47.12 19.1474 48.1801 17.0397 49.9604C15.3301 49.1764 13.45 48.7646 11.5591 48.7646C9.99026 48.7646 8.42838 49.049 6.96522 49.5935V32.4936C6.96522 31.9271 6.50612 31.4682 5.93983 31.4682C5.37354 31.4682 4.91444 31.9271 4.91444 32.4936V57.5588ZM63.6031 20.7262C64.1686 20.7262 64.6285 21.1861 64.6285 21.7516V49.5934C63.1653 49.049 61.6035 48.7645 60.0346 48.7645C58.1437 48.7645 56.2635 49.1763 54.5538 49.9602C52.4462 48.18 49.8537 47.12 47.1095 46.9074V46.1473H53.1157C53.7732 46.1473 54.3611 45.7805 54.6505 45.1902C54.9397 44.5999 54.8691 43.9104 54.4661 43.3909L51.2525 39.2483C50.9054 38.8007 50.2611 38.7196 49.8139 39.0666C49.3665 39.4137 49.2851 40.0578 49.6322 40.5052L52.418 44.0965H47.1096V42.5095C47.1096 40.7294 45.9732 39.21 44.388 38.6379L44.8666 34.3616L46.9227 37.0121C47.1247 37.2727 47.4275 37.409 47.7336 37.409C47.9533 37.409 48.1745 37.3388 48.3614 37.1938C48.8089 36.8468 48.8903 36.2026 48.5431 35.7553L45.1939 31.4377L46.02 24.0571C46.1448 22.9419 46.1908 21.8295 46.1655 20.7262H63.6031ZM42.9947 40.4454C44.1327 40.4454 45.0587 41.3713 45.0587 42.5096V49.08H40.9306V42.5096C40.9306 41.3713 41.8565 40.4454 42.9947 40.4454ZM35.5775 3.96312C35.7046 3.85675 35.8889 3.85661 36.0161 3.96298C41.8499 8.8437 44.8277 16.2704 43.9818 23.8292L42.3458 38.4463C40.3842 38.7584 38.8797 40.4614 38.8797 42.5096V46.5314H32.7137V42.5096C32.7137 40.4614 31.2094 38.7584 29.2476 38.4463L27.6118 23.8292C26.7659 16.2701 29.7438 8.84357 35.5775 3.96312ZM35.7968 51.8357C34.9261 50.7417 33.8813 49.7862 32.7138 49.018V48.582H38.8799V49.018C37.7124 49.7862 36.6677 50.7417 35.7968 51.8357ZM26.5348 42.5095C26.5348 41.3713 27.4608 40.4453 28.599 40.4453C29.7372 40.4453 30.6631 41.3711 30.6631 42.5095V49.0799H26.5348V42.5095ZM19.1758 44.0966L26.7272 34.362L27.2057 38.638C25.6205 39.2103 24.4842 40.7295 24.4842 42.5096V44.0966H19.1758ZM68.7461 63.7259C68.7461 65.0452 67.6727 66.1185 66.3535 66.1185H5.24024C3.92104 66.1185 2.84766 65.0452 2.84766 63.7259V59.9515C2.84766 59.7629 3.00106 59.6097 3.18946 59.6097H16.632C17.1983 59.6097 17.6574 59.1507 17.6574 58.5843C17.6574 58.0179 17.1983 57.5589 16.632 57.5589H6.96522V51.8106C8.39885 51.1584 9.9744 50.8154 11.5591 50.8154C13.3587 50.8154 15.146 51.2569 16.7277 52.0919C16.8788 52.1718 17.0431 52.2106 17.2062 52.2106C17.4619 52.2106 17.7147 52.1152 17.9095 51.9317C19.7236 50.2233 22.0276 49.1899 24.4841 48.9642V49.4218C24.4841 50.3642 25.2506 51.1308 26.193 51.1308H31.0049C31.311 51.1308 31.5978 51.0489 31.8466 50.9074C33.0764 51.7674 34.1327 52.8774 34.9265 54.1517C35.3194 54.7842 36.274 54.7837 36.6672 54.1519C37.4611 52.8775 38.5174 51.7674 39.7471 50.9074C39.9958 51.0489 40.2827 51.1308 40.5888 51.1308H45.4005C46.3429 51.1308 47.1095 50.3642 47.1095 49.4218V48.9642C49.5661 49.1899 51.8701 50.2233 53.6842 51.9318C53.879 52.1153 54.1317 52.2107 54.3875 52.2107C54.5506 52.2107 54.715 52.1719 54.866 52.0921C56.4477 51.257 58.2351 50.8155 60.0348 50.8155C61.6438 50.8155 63.1861 51.1504 64.6286 51.8099V57.559H21.1008C20.5345 57.559 20.0754 58.018 20.0754 58.5844C20.0754 59.1509 20.5345 59.6098 21.1008 59.6098H26.7242V61.4971C26.7242 62.8163 27.7976 63.8897 29.1168 63.8897H42.4768C43.796 63.8897 44.8694 62.8163 44.8694 61.4971V59.6098H68.4043C68.5928 59.6098 68.7461 59.7631 68.7461 59.9516V63.7259ZM28.7751 59.6096H42.8187V61.4968C42.8187 61.6854 42.6655 61.8386 42.4769 61.8386H29.1169C28.9285 61.8386 28.7751 61.6854 28.7751 61.4968V59.6096Z" fill="#091E88"/>
<path d="M35.7968 23.8259C38.8101 23.8259 41.2617 21.3744 41.2617 18.3611C41.2617 15.3478 38.8101 12.8963 35.7968 12.8963C32.7835 12.8963 30.332 15.348 30.332 18.3612C30.332 21.3745 32.7835 23.8259 35.7968 23.8259ZM35.7968 14.9471C37.6793 14.9471 39.2109 16.4786 39.2109 18.3612C39.2109 20.2437 37.6794 21.7752 35.7968 21.7752C33.9143 21.7752 32.3828 20.2437 32.3828 18.3612C32.3828 16.4786 33.9143 14.9471 35.7968 14.9471Z" fill="#FB4A6A"/>
</g>
<defs>
<clipPath id="clip0_1427_15270">
<rect width="71" height="70" fill="white" transform="translate(0.132812)"/>
</clipPath>
</defs>
</svg>
