<svg width="72" height="70" viewBox="0 0 72 70" fill="none" xmlns="http://www.w3.org/2000/svg">
<g clip-path="url(#clip0_1427_15284)">
<path d="M68.8105 49.1372H67.0855V13.33C67.0855 11.6338 65.7055 10.2539 64.0094 10.2539H8.39686C6.70072 10.2539 5.32068 11.6338 5.32068 13.33V49.1372H3.5957C2.27651 49.1372 1.20312 50.2106 1.20312 51.5298V55.3042C1.20312 57.7542 3.19635 59.7475 5.64649 59.7475H52.1288C52.6951 59.7475 53.1542 59.2884 53.1542 58.7222C53.1542 58.1559 52.6951 57.6968 52.1288 57.6968H5.64649C4.32729 57.6968 3.25391 56.6234 3.25391 55.3042V51.5298C3.25391 51.3414 3.40717 51.188 3.5957 51.188H15.8816C16.4481 51.188 16.907 50.7289 16.907 50.1626C16.907 49.5963 16.4481 49.1372 15.8816 49.1372H7.37147V13.33C7.37147 12.7647 7.83139 12.3046 8.39686 12.3046H64.0094C64.5748 12.3046 65.0348 12.7647 65.0348 13.33V49.1372H20.3506C19.7841 49.1372 19.3252 49.5963 19.3252 50.1626C19.3252 50.7289 19.7841 51.188 20.3506 51.188H27.1306V53.0753C27.1306 54.3946 28.204 55.4678 29.5232 55.4678H42.8832C44.2024 55.4678 45.2758 54.3946 45.2758 53.0753V51.188H68.8105C68.9991 51.188 69.1523 51.3414 69.1523 51.5298V55.3042C69.1523 56.6234 68.0789 57.6968 66.7597 57.6968H56.5977C56.0313 57.6968 55.5723 58.1559 55.5723 58.7222C55.5723 59.2884 56.0313 59.7475 56.5977 59.7475H66.7597C69.2099 59.7475 71.2031 57.7542 71.2031 55.3042V51.5298C71.2031 50.2106 70.1297 49.1372 68.8105 49.1372ZM43.2248 53.0753C43.2248 53.2638 43.0716 53.4171 42.883 53.4171H29.523C29.3345 53.4171 29.1812 53.2638 29.1812 53.0753V51.188H43.2248V53.0753Z" fill="#091E88"/>
<path d="M45.9095 43.6979C46.7011 43.6979 47.345 43.0539 47.345 42.2624V15.6171C47.345 14.8255 46.7011 14.1816 45.9095 14.1816H39.9824C39.1908 14.1816 38.5469 14.8255 38.5469 15.6171V42.2624C38.5469 43.0539 39.1908 43.6979 39.9824 43.6979H45.9095ZM40.5978 16.2324H45.2944V41.6472H40.5978V16.2324Z" fill="#FB4A6A" stroke="#F4F5F7" stroke-width="0.5"/>
<path d="M56.4096 28.6377C56.976 28.6377 57.4349 28.1786 57.4349 27.6123V24.5274C57.4349 23.7358 56.791 23.0918 55.9994 23.0918H50.0722C49.2806 23.0918 48.6367 23.7358 48.6367 24.5274V42.2624C48.6367 43.0538 49.2806 43.6979 50.0722 43.6979H55.9994C56.791 43.6979 57.4349 43.0538 57.4349 42.2624V32.0812C57.4349 31.5149 56.976 31.0558 56.4096 31.0558C55.8431 31.0558 55.3842 31.5149 55.3842 32.0812V41.6471H50.6875V25.1425H55.3842V27.6121C55.3842 28.1786 55.8431 28.6377 56.4096 28.6377Z" fill="#FB4A6A" stroke="#F4F5F7" stroke-width="0.5"/>
<path d="M24.9362 22H18.8007C17.9813 22 17.3147 22.6705 17.3147 23.4948V32.3089C15.1197 33.8411 13.7444 36.4406 13.8758 39.3169C14.0638 43.4311 17.4148 46.8021 21.5046 46.9911C21.6313 46.997 21.7571 47 21.8831 47C23.8727 46.9998 25.7655 46.2711 27.2478 44.9262C27.7786 44.4446 28.2351 43.9014 28.6142 43.313C28.8063 43.4043 29.02 43.4568 29.246 43.4568H35.3811C36.2006 43.4568 36.8672 42.7861 36.8672 41.9621V25.9124C36.8672 25.0881 36.2006 24.4177 35.3811 24.4177H29.246C28.4265 24.4177 27.76 25.0881 27.76 25.9124V27.6796C27.3285 27.5432 26.8813 27.4435 26.4221 27.3822V23.495C26.4222 22.6707 25.7557 22 24.9362 22ZM27.7601 37.8702H26.4222V36.4395H27.7601V37.8702ZM19.4376 24.1355H24.2993V37.8701H22.9433V32.5826C22.9433 32.1109 22.7443 31.6582 22.3975 31.3404C22.0514 31.0239 21.5865 30.8673 21.1215 30.9115C20.5378 30.9669 19.9751 31.086 19.4378 31.2581V24.1355H19.4376ZM20.8204 33.1068V38.4956L17.0406 42.2979C16.428 41.4116 16.0485 40.3539 15.9965 39.219C15.8596 36.2209 17.9448 33.6294 20.8204 33.1068ZM21.6024 44.858C20.4743 44.8057 19.4226 44.4241 18.5416 43.8077L22.3214 40.0055H27.6776C27.1557 42.8685 24.5641 44.9941 21.6024 44.858ZM29.883 26.553H34.7444V41.3216H29.883V36.4395H31.8752C32.2849 36.4395 32.6805 36.2672 32.9609 35.9666C33.2395 35.6681 33.3846 35.2632 33.3591 34.8554C33.1986 32.3086 31.8579 30.0812 29.8832 28.7188V26.553H29.883ZM31.157 34.304H26.4222V29.5413C28.823 29.9811 30.7197 31.889 31.157 34.304Z" fill="#091E88" stroke="#F4F5F7" stroke-width="0.5"/>
</g>
<defs>
<clipPath id="clip0_1427_15284">
<rect width="71" height="70" fill="white" transform="translate(0.871094)"/>
</clipPath>
</defs>
</svg>
