<svg width="71" height="70" viewBox="0 0 71 70" fill="none" xmlns="http://www.w3.org/2000/svg">
<g clip-path="url(#clip0_1427_15256)">
<path d="M66.0878 34.8824C66.6541 34.8824 67.1132 34.4235 67.1132 33.857V25.7733C67.1132 25.2068 66.6541 24.7479 66.0878 24.7479C65.5216 24.7479 65.0625 25.2068 65.0625 25.7733V33.857C65.0625 34.4233 65.5216 34.8824 66.0878 34.8824Z" fill="#FB4A6A"/>
<path fill-rule="evenodd" clip-rule="evenodd" d="M66.5527 1.15234H5.43945C2.98945 1.15234 0.996094 3.14557 0.996094 5.5957V54.0359C0.996094 56.4861 2.98945 58.4793 5.43945 58.4793H11.0779C11.6442 58.4793 12.1033 58.0203 12.1033 57.4539C12.1033 56.8875 11.6442 56.4285 11.0779 56.4285H5.43945C4.12025 56.4285 3.04687 55.3551 3.04687 54.0359V5.5957C3.04687 4.2765 4.12025 3.20312 5.43945 3.20312H66.5527C67.8719 3.20312 68.9453 4.2765 68.9453 5.5957V21.1785C68.1399 20.5996 67.1535 20.2572 66.0882 20.2572C65.0229 20.2572 64.0364 20.5994 63.2312 21.1783V7.93127C63.2312 6.61207 62.1578 5.53869 60.8386 5.53869H48.924C48.3577 5.53869 47.8986 5.99765 47.8986 6.56408C47.8986 7.13051 48.3577 7.58947 48.924 7.58947H60.8386C61.027 7.58947 61.1804 7.74273 61.1804 7.93127V51.7002C61.1804 51.8888 61.027 52.042 60.8386 52.042H49.8382V45.3145C49.8382 43.3057 48.2039 41.6714 46.195 41.6714C45.7894 41.6714 45.3884 41.7388 45.0022 41.8723C44.6598 41.9909 44.3436 42.1574 44.06 42.3626C43.4175 41.3241 42.2681 40.6309 40.9597 40.6309C40.5896 40.6309 40.2332 40.6885 39.8964 40.7914C41.9674 38.4579 43.1309 35.4343 43.1309 32.2792C43.1309 25.2086 37.3786 19.4565 30.3082 19.4565C24.1661 19.4565 18.8699 23.8283 17.7152 29.8515C17.6085 30.4077 17.9729 30.945 18.5292 31.0516C19.0847 31.157 19.6227 30.7936 19.7293 30.2376C20.6992 25.1788 25.1483 21.5073 30.3083 21.5073C36.2481 21.5073 41.0803 26.3396 41.0803 32.2792C41.0803 35.2675 39.838 38.1157 37.6609 40.1506C37.0994 39.7967 36.4358 39.5905 35.7243 39.5905C35.1536 39.5905 34.6133 39.7224 34.1321 39.9573V39.4342L34.1319 36.9809V32.3668C34.1319 30.358 32.4976 28.7238 30.4888 28.7238C28.48 28.7238 26.8458 30.358 26.8458 32.3668V37.2564L26.8459 39.6174V42.4813C23.2605 41.2628 20.5216 38.1965 19.7551 34.4514C19.6417 33.8966 19.0993 33.5393 18.545 33.6524C17.9902 33.7659 17.6324 34.3077 17.7461 34.8626C18.7049 39.5483 22.2564 43.3421 26.8459 44.6278V45.696L25.2676 46.1125C24.263 46.3776 23.5175 47.2134 23.3682 48.2417L22.8165 52.0422H7.77515C7.58675 52.0422 7.43336 51.8889 7.43336 51.7004V7.93127C7.43336 7.74273 7.58675 7.58947 7.77515 7.58947H44.455C45.0213 7.58947 45.4804 7.13051 45.4804 6.56408C45.4804 5.99765 45.0213 5.53869 44.455 5.53869H7.77515C6.45595 5.53869 5.38257 6.61207 5.38257 7.93127V51.7002C5.38257 53.0194 6.45595 54.0928 7.77515 54.0928H22.5188L22.1916 56.3467C22.1893 56.3626 22.1878 56.3784 22.1863 56.3943C22.1853 56.4057 22.1842 56.4171 22.1829 56.4285H15.5467C14.9804 56.4285 14.5213 56.8875 14.5213 57.4539C14.5213 58.0203 14.9804 58.4793 15.5467 58.4793H22.5337C22.8286 59.0735 23.2848 59.5885 23.8734 59.9523L28.6785 62.9235V66.8044C28.6785 67.9317 29.5957 68.849 30.7231 68.849H43.7244C44.8519 68.849 45.7692 67.9317 45.7692 66.8044V63.4025L48.0267 61.8155C49.1195 61.0473 49.7861 59.8086 49.8337 58.4793H66.5527C69.0027 58.4793 70.9961 56.4861 70.9961 54.0359V5.5957C70.9961 3.14557 69.0027 1.15234 66.5527 1.15234ZM47.7874 58.3274C47.7874 59.0471 47.4359 59.7238 46.8472 60.1377L44.1541 62.0311C43.8811 62.2231 43.7185 62.536 43.7185 62.87L43.7245 66.7982L30.7294 66.8044V62.352C30.7294 61.9967 30.5455 61.6666 30.2432 61.4799L24.9521 58.2082C24.4179 57.8779 24.1311 57.2629 24.2213 56.6414L25.3977 48.5361C25.4286 48.3233 25.5829 48.1503 25.7909 48.0954L26.8459 47.8169V53.8855C26.8459 54.452 27.305 54.9109 27.8713 54.9109C28.4376 54.9109 28.8967 54.452 28.8967 53.8855V46.4856V32.3668C28.8967 31.4888 29.6111 30.7746 30.4889 30.7746C31.3669 30.7746 32.0813 31.489 32.0813 32.3668V43.2335C32.0813 43.7999 32.5404 44.2589 33.1067 44.2589C33.673 44.2589 34.1321 43.7999 34.1321 43.2335C34.1321 42.3555 34.8464 41.6411 35.7243 41.6411C36.6022 41.6411 37.3167 42.3555 37.3167 43.2335V44.2739C37.3167 44.8404 37.7758 45.2993 38.3421 45.2993C38.9083 45.2993 39.3674 44.8404 39.3674 44.2739C39.3674 43.3959 40.0818 42.6817 40.9598 42.6817C41.8378 42.6817 42.5522 43.3961 42.5522 44.2739V45.3144C42.5522 45.8808 43.0113 46.3398 43.5776 46.3398C44.1439 46.3398 44.603 45.8808 44.603 45.3144C44.603 44.6365 45.0333 44.0318 45.6728 43.8102C45.8399 43.7525 46.0205 43.722 46.1952 43.722C47.0732 43.722 47.7875 44.4364 47.7875 45.3144L47.7874 58.3274ZM66.0882 22.308C67.6636 22.308 68.9453 23.5898 68.9453 25.165V34.4663C68.9453 36.0416 67.6636 37.3233 66.0882 37.3233C64.5128 37.3233 63.2312 36.0416 63.2312 34.4663V25.165C63.2312 23.5898 64.5128 22.308 66.0882 22.308ZM66.5527 56.4284H49.8382V54.0927H60.8386C62.1578 54.0927 63.2312 53.0193 63.2312 51.7001V38.453C64.0366 39.0319 65.0229 39.3741 66.0882 39.3741C67.1535 39.3741 68.1399 39.0317 68.9453 38.4529V54.0357C68.9453 55.3551 67.8719 56.4284 66.5527 56.4284Z" fill="#091E88"/>
<path d="M38.4205 32.2788C38.4205 27.8055 34.7812 24.1661 30.3079 24.1661C25.8346 24.1661 22.1953 27.8055 22.1953 32.2788C22.1953 35.1773 23.7257 37.8129 26.172 39.2599V36.7128C24.9643 35.5874 24.246 33.9948 24.246 32.2786C24.246 28.9361 26.9653 26.2168 30.3078 26.2168C33.6503 26.2168 36.3696 28.9361 36.3696 32.2786C36.3696 33.83 35.7674 35.3 34.744 36.4047V39.0697C37.0076 37.5852 38.4205 35.0278 38.4205 32.2788Z" fill="#FB4A6A"/>
</g>
<defs>
<clipPath id="clip0_1427_15256">
<rect width="70" height="70" fill="white" transform="translate(0.996094)"/>
</clipPath>
</defs>
</svg>
