<svg width="49" height="61" viewBox="0 0 49 61" fill="none" xmlns="http://www.w3.org/2000/svg">
<g id="Standard Collection 15">
<path id="Vector" d="M44.1823 61C43.4877 60.9995 42.8023 60.8451 42.1771 60.5479C41.5515 60.2508 41.0023 59.8187 40.57 59.2838C39.2324 57.8626 28.8949 47.8708 22.5603 41.779C22.1219 41.3632 21.7714 40.8662 21.5291 40.3164C21.2867 39.7668 21.1573 39.1753 21.1482 38.5762C21.1391 37.9771 21.2505 37.3821 21.4761 36.8255C21.7017 36.2689 22.0369 35.7618 22.4625 35.3332C22.8881 34.9048 23.3957 34.5633 23.9559 34.3286C24.5162 34.0938 25.1181 33.9707 25.727 33.9658C26.3359 33.9609 26.9397 34.0748 27.5037 34.3005C28.0678 34.5265 28.5807 34.8599 29.0133 35.2817C29.0585 35.3253 33.6207 39.7132 38.1488 44.0965L39.5676 45.4703V24.1335C39.5676 15.8358 32.7637 9.08502 24.4 9.08502C16.0364 9.08502 9.23243 15.8358 9.23243 24.1335V56.4571C9.23243 57.6619 8.74607 58.8173 7.88037 59.6692C7.01467 60.521 5.8405 60.9995 4.6162 60.9995C3.3919 60.9995 2.21777 60.521 1.35206 59.6692C0.48635 58.8173 0 57.6619 0 56.4571V24.1335C0 10.8261 10.9458 0 24.4 0C37.8541 0 48.8 10.8261 48.8 24.1335V56.4571C48.7994 57.6619 48.3128 58.8173 47.4469 59.6694C46.581 60.5213 45.4067 60.9997 44.1823 61ZM39.9855 58.3446L39.9874 58.3487L39.9855 58.3446Z" fill="#33CEFF"/>
<path id="Vector_2" d="M24.4008 28.4991C27.3145 28.4991 29.6764 26.1749 29.6764 23.3077C29.6764 20.4405 27.3145 18.1162 24.4008 18.1162C21.487 18.1162 19.125 20.4405 19.125 23.3077C19.125 26.1749 21.487 28.4991 24.4008 28.4991Z" fill="#33CEFF"/>
</g>
</svg>
