<svg width="624" height="120" viewBox="0 0 624 120" fill="none" xmlns="http://www.w3.org/2000/svg">
<path d="M533 1V118H548.494V35.9422M548.494 35.9422V13.6166L623 94.9105M548.494 35.9422L623 118M623 94.9105V1.49787H607.505V78.0043L623 94.9105Z" stroke="#33CEFF"/>
<path d="M492.556 21.493C487.364 14.8823 480.902 9.81418 473.17 6.28851C465.438 2.76284 456.988 1 447.82 1C439.425 1 431.637 2.48739 424.458 5.46218C417.388 8.43697 411.202 12.6237 405.9 18.0224C400.598 23.4211 396.456 29.7012 393.474 36.8627C390.491 43.9141 389 51.5714 389 59.8347C389 68.098 390.491 75.8104 393.474 82.9719C396.456 90.1334 400.543 96.4135 405.735 101.812C411.037 107.211 417.167 111.453 424.126 114.538C431.195 117.512 438.762 119 446.826 119C457.54 119 467.04 116.741 475.324 112.224C483.719 107.707 490.236 100.986 494.875 92.0615C499.625 83.027 502 71.844 502 58.5126V56.1988H444.451M481.786 32.2353C478.141 26.9468 473.336 22.9253 467.371 20.1709C461.406 17.3062 454.889 15.8739 447.82 15.8739C439.425 15.8739 431.969 17.747 425.452 21.493C419.045 25.239 414.019 30.4173 410.374 37.028C406.839 43.6386 405.072 51.2409 405.072 59.8347C405.072 68.5387 406.894 76.196 410.54 82.8066C414.185 89.4173 419.1 94.5956 425.286 98.3416C431.472 102.088 438.541 103.961 446.494 103.961C454.558 103.961 461.517 102.418 467.371 99.3332C473.336 96.2483 477.684 92.9496 480.887 87C484.091 80.9402 485.386 75 485.386 70.4117M500.393 70.4117H444.451" stroke="white" stroke-opacity="0.85"/>
<path d="M360 1V55.8683M360 55.8683V67.7674M360 55.8683H345V1M360 67.7674V119M360 67.7674H345V119" stroke="#33CEFF"/>
<path d="M314 1H278.746C271.968 1 265.847 2.26704 260.381 4.80112C255.025 7.22502 250.761 10.7507 247.591 15.3781C244.53 19.8954 243 25.4043 243 31.9047C243 37.7441 243.984 42.5919 245.952 46.4481C248.028 50.3043 250.707 53.4444 253.986 55.8683C257.266 58.182 260.873 60.1652 264.808 61.8179C268.744 63.3604 272.679 64.8477 276.614 66.2801C280.55 67.6022 284.157 69.1447 287.437 70.9075C290.825 72.5602 293.503 74.7086 295.471 77.3529C297.439 79.9971 298.423 83.4677 298.423 87.7646C298.423 92.943 296.346 97.0195 292.192 99.9943C288.147 102.969 282.736 104.456 275.958 104.456H243M314 15.3781L278.418 15.5434C272.296 15.5434 267.432 16.9206 263.824 19.6751C260.217 22.3193 258.413 26.0653 258.413 30.9131C258.413 34.7694 259.397 37.9094 261.365 40.3333C263.442 42.647 266.12 44.6302 269.4 46.2829C272.679 47.9355 276.286 49.478 280.222 50.9103C284.266 52.2325 288.256 53.7198 292.192 55.3725C296.127 57.0252 299.734 59.1185 303.014 61.6526C306.293 64.1867 308.917 67.492 310.885 71.5686C312.962 75.5349 314 80.548 314 86.6078C314 96.7441 310.502 104.677 303.506 110.406C296.619 116.135 287.273 119 275.467 119L243 118.959" stroke="white" stroke-opacity="0.85"/>
<path d="M152.194 101.482V118.5H213V101.482H152.194ZM152.194 101.482V63.8011M134.64 50.2492V119V63.8011H152.194M134.64 50.2492H207.547V63.8011H152.194M134.64 50.2492V15.2129H152.194M134 1.5L212.174 1V15.2129H152.194M152.194 49.2577V15.2129" stroke="white" stroke-opacity="0.85"/>
<path d="M19.2282 118.49V104.302H45.5272C53.9824 104.302 61.3945 102.487 67.7634 98.8576C74.1322 95.1181 79.0736 90.0038 82.5874 83.5146C86.2111 77.0254 88.0229 69.5464 88.0229 61.0775C88.0229 52.7186 86.2111 45.2945 82.5874 38.8053C78.9638 32.3162 73.9675 27.2568 67.5986 23.6273C61.2298 19.9977 53.8726 18.183 45.5272 18.183L1 17.9149M19.2282 118.49H46.1861C54.4217 118.49 62.0533 117.06 69.081 114.201C76.2186 111.341 82.3678 107.327 87.5288 102.157C92.6898 96.9879 96.6978 90.9387 99.5528 84.0096C102.518 76.9705 104 69.3814 104 61.2425C104 52.9935 102.518 43.8666 99.5528 36.9375C96.9023 29.4505 93.2937 23.0842 88.0229 17.9149C82.862 12.7455 76.0539 8.14908 68.9163 5.28944C61.8886 2.42981 54.202 1 45.8566 1H1M19.2282 118.49V17.9149H1M1 17.9149V119" stroke="#33CEFF"/>
</svg>
