<svg width="32" height="25" viewBox="0 0 32 25" fill="none" xmlns="http://www.w3.org/2000/svg">
<path d="M2.75448 12.4607C3.93181 11.4162 5.41674 10.8053 6.97257 10.7254C8.5284 10.6455 10.0656 11.1012 11.3391 12.0198C12.6125 12.9385 13.549 14.2672 13.9992 15.7941C14.4494 17.3211 14.3875 18.9584 13.8232 20.4451C13.2589 21.9318 12.2248 23.1823 10.8857 23.9972C9.54655 24.8122 7.97954 25.1447 6.43441 24.9417C4.88929 24.7387 3.455 24.012 2.36016 22.8774C1.26532 21.7427 0.572973 20.2654 0.393467 18.681C-0.227302 15.4494 -0.220327 11.5983 1.20256 8.1471C2.70566 4.50486 5.73801 1.43395 10.9152 0.0466881C11.0819 0.000263214 11.2559 -0.0118771 11.4273 0.0109692C11.5986 0.0338173 11.7638 0.091198 11.9134 0.1798C12.0629 0.2684 12.1938 0.386465 12.2985 0.52717C12.4033 0.667877 12.4797 0.828436 12.5235 0.999573C12.5673 1.17071 12.5775 1.34903 12.5536 1.52423C12.5296 1.69944 12.472 1.86805 12.3841 2.02033C12.2962 2.17261 12.1796 2.30554 12.0412 2.41144C11.9028 2.51734 11.7453 2.59412 11.5778 2.63732C7.16438 3.82105 4.79116 6.33313 3.6124 9.18979C3.18726 10.2367 2.8988 11.3365 2.75448 12.4607Z" fill="#33CEFF"/>
<path d="M20.4576 12.4607C21.6349 11.4162 23.1199 10.8053 24.6757 10.7254C26.2315 10.6455 27.7687 11.1012 29.0422 12.0198C30.3157 12.9385 31.2521 14.2672 31.7024 15.7941C32.1526 17.3211 32.0906 18.9584 31.5263 20.4451C30.962 21.9318 29.9279 23.1823 28.5888 23.9972C27.2497 24.8122 25.6827 25.1447 24.1375 24.9417C22.5924 24.7387 21.1581 24.012 20.0633 22.8774C18.9684 21.7427 18.2761 20.2654 18.0966 18.681C17.4758 15.4494 17.4828 11.5983 18.9057 8.1471C20.4088 4.50486 23.4411 1.43395 28.6183 0.0466881C28.785 0.000263214 28.9591 -0.0118771 29.1304 0.0109692C29.3017 0.0338173 29.4669 0.091198 29.6165 0.1798C29.766 0.2684 29.8969 0.386465 30.0017 0.52717C30.1064 0.667877 30.1829 0.828436 30.2266 0.999573C30.2704 1.17071 30.2806 1.34903 30.2567 1.52423C30.2328 1.69944 30.1752 1.86805 30.0872 2.02033C29.9993 2.17261 29.8828 2.30554 29.7444 2.41144C29.606 2.51734 29.4484 2.59412 29.2809 2.63732C24.8675 3.82105 22.4943 6.33313 21.3155 9.18979C20.8904 10.2367 20.6019 11.3365 20.4576 12.4607Z" fill="#33CEFF"/>
</svg>
