<svg width="32" height="25" viewBox="0 0 32 25" fill="none" xmlns="http://www.w3.org/2000/svg">
<path d="M29.2455 12.4609C28.0682 11.4164 26.5833 10.8055 25.0274 10.7257C23.4716 10.6458 21.9344 11.1014 20.6609 12.0201C19.3875 12.9387 18.451 14.2674 18.0008 15.7944C17.5506 17.3213 17.6125 18.9586 18.1768 20.4453C18.7411 21.932 19.7752 23.1825 21.1143 23.9975C22.4535 24.8124 24.0205 25.1449 25.5656 24.9419C27.1107 24.739 28.545 24.0123 29.6398 22.8776C30.7347 21.7429 31.427 20.2657 31.6065 18.6813C32.2273 15.4497 32.2203 11.5985 30.7974 8.14735C29.2943 4.50511 26.262 1.4342 21.0848 0.0469322C20.9181 0.000507355 20.7441 -0.0116329 20.5727 0.0112133C20.4014 0.0340614 20.2362 0.0914421 20.0866 0.180044C19.9371 0.268644 19.8062 0.386709 19.7015 0.527414C19.5967 0.668121 19.5203 0.82868 19.4765 0.999817C19.4327 1.17095 19.4225 1.34927 19.4464 1.52448C19.4704 1.69968 19.528 1.86829 19.6159 2.02057C19.7038 2.17285 19.8204 2.30579 19.9588 2.41169C20.0972 2.51759 20.2547 2.59436 20.4222 2.63757C24.8356 3.82129 27.2088 6.33337 28.3876 9.19003C28.8127 10.237 29.1012 11.3367 29.2455 12.4609Z" fill="#33CEFF"/>
<path d="M11.5424 12.4609C10.3651 11.4164 8.88014 10.8055 7.32431 10.7257C5.76848 10.6458 4.2313 11.1014 2.95782 12.0201C1.68434 12.9387 0.747853 14.2674 0.297642 15.7944C-0.152569 17.3213 -0.0905882 18.9586 0.473704 20.4453C1.038 21.932 2.07212 23.1825 3.41122 23.9975C4.75033 24.8124 6.31734 25.1449 7.86246 24.9419C9.40759 24.739 10.8419 24.0123 11.9367 22.8776C13.0316 21.7429 13.7239 20.2657 13.9034 18.6813C14.5242 15.4497 14.5172 11.5985 13.0943 8.14735C11.5912 4.50511 8.55886 1.4342 3.38172 0.0469322C3.215 0.000507355 3.04094 -0.0116329 2.86961 0.0112133C2.69828 0.0340614 2.53307 0.0914421 2.38352 0.180044C2.23398 0.268644 2.10306 0.386709 1.99833 0.527414C1.89361 0.668121 1.81715 0.82868 1.77338 0.999817C1.7296 1.17095 1.71939 1.34927 1.74331 1.52448C1.76723 1.69968 1.82483 1.86829 1.91276 2.02057C2.0007 2.17285 2.11723 2.30579 2.25563 2.41169C2.39403 2.51759 2.55156 2.59436 2.7191 2.63757C7.13249 3.82129 9.50571 6.33337 10.6845 9.19003C11.1096 10.237 11.3981 11.3367 11.5424 12.4609Z" fill="#33CEFF"/>
</svg>
