<svg width="88" height="24" viewBox="0 0 88 24" fill="none" xmlns="http://www.w3.org/2000/svg">
<g clip-path="url(#clip0_687_2536)">
<path d="M35.5456 0H11.8672V24H35.5456V0Z" fill="white"/>
<path d="M47.3846 12.0282L35.5454 0V24.0282L47.3846 12.0282Z" fill="#DB0011"/>
<path d="M23.7064 12.0282L35.5456 0H11.8672L23.7064 12.0282Z" fill="#DB0011"/>
<path d="M0 12.0282L11.867 24.0282V0L0 12.0282Z" fill="#DB0011"/>
<path d="M23.7064 12.0282L11.8672 24.0282H35.5456L23.7064 12.0282Z" fill="#DB0011"/>
<path d="M57.7753 12.7341H53.4853V17.0259H51.3403V6.97412H53.4853V11.0965H57.7753V6.97412H59.9203V17.0259H57.7753V12.7341Z" fill="black"/>
<path d="M65.1017 17.2235C62.9567 17.2235 61.2017 16.3482 61.1738 13.9482H63.3188C63.3467 15.0212 63.9595 15.6706 65.1295 15.6706C65.9931 15.6706 66.9959 15.2188 66.9959 14.2306C66.9959 13.44 66.3274 13.2141 65.2131 12.8753L64.4888 12.6776C62.9288 12.2259 61.3688 11.6047 61.3688 9.79763C61.3688 7.56704 63.4302 6.80469 65.2966 6.80469C67.2188 6.80469 68.8902 7.48233 68.918 9.71292H66.7731C66.6895 8.80939 66.1602 8.27292 65.1574 8.27292C64.3495 8.27292 63.5695 8.69645 63.5695 9.59998C63.5695 10.3341 64.2381 10.56 65.6309 11.0117L66.4666 11.2659C68.1659 11.8023 69.2523 12.3953 69.2523 14.0894C69.2245 16.3482 67.0516 17.2235 65.1017 17.2235Z" fill="black"/>
<path d="M70.4502 7.00237H73.9045C74.5452 6.97414 75.2137 7.00237 75.8544 7.11531C77.0523 7.39767 77.9716 8.18825 77.9716 9.54355C77.9716 10.8424 77.1637 11.4918 75.9937 11.8024C77.3309 12.0565 78.3337 12.7341 78.3337 14.2306C78.3337 16.5177 76.1052 17.0259 74.378 17.0259H70.4781L70.4502 7.00237ZM73.9045 11.1812C74.8516 11.1812 75.8266 10.9835 75.8266 9.8259C75.8266 8.78119 74.9352 8.49884 74.0437 8.49884H72.5395V11.1812H73.9045V11.1812ZM74.0995 15.5294C75.1023 15.5294 76.0773 15.3035 76.0773 14.0612C76.0773 12.8188 75.2416 12.593 74.2109 12.593H72.5116V15.5294H74.0995Z" fill="black"/>
<path d="M83.905 17.2235C80.7015 17.2235 79.2808 15.1624 79.2808 12.0847C79.2808 9.00708 80.8686 6.77649 84.0164 6.77649C85.9943 6.77649 87.9164 7.68002 87.9721 9.93884H85.7436C85.6321 8.92237 84.9636 8.41414 84.0164 8.41414C82.0665 8.41414 81.4815 10.5318 81.4815 12.1412C81.4815 13.7506 82.0664 15.6141 83.9329 15.6141C84.9079 15.6141 85.6321 15.0777 85.7714 14.0612H88C87.7771 16.3765 85.9664 17.2235 83.905 17.2235Z" fill="black"/>
</g>
<defs>
<clipPath id="clip0_687_2536">
<rect width="88" height="24" fill="white"/>
</clipPath>
</defs>
</svg>
