<svg width="109" height="22" viewBox="0 0 109 22" fill="none" xmlns="http://www.w3.org/2000/svg">
<path d="M19.9326 21.6027H23.6053L26.4845 10.824H22.8495L19.9326 21.6027Z" fill="#323131"/>
<path d="M38.7622 21.6027H42.4349L45.3141 10.824H41.6414L38.7622 21.6027Z" fill="#323131"/>
<path d="M57.626 21.6027H61.2627L64.1076 10.824H60.4349L57.626 21.6027Z" fill="#323131"/>
<path d="M35.3411 14.5133H39.0138C39.5176 12.0911 37.9701 10.8619 34.3694 10.8619C30.1928 10.8619 27.3856 12.9226 26.4139 16.4311C25.5844 19.6848 27.2776 21.6388 31.2005 21.6388C35.1611 21.6388 37.5004 20.4097 38.4739 17.6242H34.8012C34.2614 18.8533 33.3257 19.4679 32.03 19.4679C30.2648 19.4679 29.545 18.3833 30.0848 16.3227C30.6607 14.1879 32.03 12.9949 33.7935 12.9949C34.9452 12.9949 35.449 13.501 35.3411 14.5133" fill="#323131"/>
<path d="M54.2066 14.5133H57.8793C58.3832 12.0911 56.7979 10.8619 53.1971 10.8619C49.0566 10.8619 46.2134 12.9226 45.2777 16.4311C44.4139 19.6848 46.1054 21.6388 50.0301 21.6388C53.9547 21.6388 56.294 20.4097 57.3017 17.6242H53.6308C53.1252 18.8533 52.1534 19.4679 50.8578 19.4679C49.0943 19.4679 48.3746 18.3833 48.9486 16.3227C49.4902 14.1879 50.8578 12.9949 52.6213 12.9949C53.7748 12.9949 54.3146 13.501 54.2066 14.5133" fill="#323131"/>
<path d="M5.7832 4.85897C10.6796 -0.0233516 16.6196 -1.29047 18.9967 2.03731C21.3738 5.36509 19.2846 12.0912 14.3883 16.9735C9.49191 21.8919 3.55188 23.1573 1.13879 19.7933C-1.20052 16.4312 0.88866 9.73947 5.7832 4.85897" fill="#F06321"/>
<path d="M9.0241 2.25427C8.48427 2.65194 7.94442 3.12192 7.40458 3.62985C3.12005 7.89578 1.31878 13.7542 3.44395 16.6843C5.63929 19.6126 10.8955 18.5281 15.288 14.2242C17.6651 11.9104 19.2486 9.2334 19.8965 6.73892C20.0764 4.89517 19.8245 3.26652 18.9967 2.03736C17.1253 -0.565581 13.0927 -0.350478 9.0241 2.25427" fill="#AE282E"/>
<path d="M15.2162 2.79644V2.90489C15.1803 3.51948 14.8203 4.27866 14.1725 4.9294C13.2008 5.86935 11.9052 6.23087 11.3635 5.6904C10.7517 5.11197 11.1134 3.84484 12.0851 2.83259C13.0929 1.85649 14.3885 1.53112 14.9283 2.10955C15.1082 2.29031 15.2162 2.50722 15.2162 2.79644V2.79644ZM11.4733 19.3956C9.1682 21.1309 6.7929 22.0003 4.48779 21.6388C5.4595 21.675 6.25306 20.5886 6.90086 19.1425C7.54868 17.6603 7.90857 16.2865 8.23246 14.9832C8.70033 12.9226 8.73633 11.4765 8.4844 11.1511C8.08851 10.6432 7.22477 10.7535 6.21527 11.3319C5.71142 11.6211 5.06362 11.4404 5.82119 10.5004C6.61296 9.56046 9.67205 7.31723 10.7517 6.95571C11.9772 6.63035 13.3448 7.10032 12.8769 8.43795C12.5512 9.41405 8.30446 20.5525 11.4733 19.3956" fill="white"/>
<path d="M69.6159 19.9018L70.4436 16.7928H72.4591V15.1298H70.9115L71.6313 12.4889H72.4591V10.8602H69.7221L66.8789 21.6389H72.4591V19.9018H69.6159ZM72.4591 16.7928H72.8549C74.6922 16.7928 75.5559 17.1181 75.196 18.3834C74.9081 19.5042 74.0084 19.9018 72.4591 19.9018V21.6389C73.9724 21.6389 75.0881 21.4943 76.2037 20.7333C76.9595 20.2272 77.5012 19.468 77.7171 18.6004C78.1112 17.1181 77.4634 16.1041 75.7719 15.889C77.3554 15.5997 78.3649 14.7664 78.687 13.465C78.9749 12.4889 78.7229 11.7658 78.0392 11.2959C77.4634 10.8982 76.4917 10.8602 75.196 10.8602H72.4591V12.4889H73.8644C75.5919 12.4889 76.3837 12.7058 76.1318 13.7903C75.8079 14.8387 74.8721 15.1298 73.1087 15.1298H72.4591V16.7928Z" fill="#323131"/>
<path d="M82.5393 14.0814V15.4172C82.2514 15.5636 81.9995 15.8166 81.8915 16.1782H79.7322C80.0902 15.1298 81.0637 14.4049 82.5393 14.0814ZM82.5393 20.4097C82.2874 20.4821 81.9995 20.5182 81.7116 20.5182C80.7399 20.5182 80.308 20.1187 80.5239 19.3957C80.7398 18.5642 81.3876 18.275 82.5393 18.1665V16.9012C80.0543 17.082 78.6867 17.7327 78.2548 19.3595C77.8589 20.8418 78.7964 21.8197 80.7399 21.8197C81.3877 21.8197 81.9995 21.7112 82.5393 21.4943V20.4097ZM84.6285 18.1665L84.5924 18.275C84.3045 19.3957 83.547 20.1567 82.5393 20.4097V21.4943C83.0791 21.2756 83.547 20.9882 83.9788 20.5905L83.7989 21.6389H85.9601C86.068 21.131 86.176 20.5525 86.3199 19.9741L87.1477 16.9374C87.2197 16.6843 87.2557 16.4312 87.2557 16.1782V15.8166C87.1837 14.5857 86.14 13.9349 84.1966 13.9349C83.583 13.9349 83.0431 14.0072 82.5393 14.0814V15.4172C82.8632 15.2382 83.2591 15.1659 83.7647 15.1659C84.8786 15.1659 85.3123 15.6702 84.9866 16.7566L84.9524 16.865H83.7989C83.3688 16.865 82.9352 16.9012 82.5393 16.9012V18.1665L84.6285 18.1665Z" fill="#323131"/>
<path d="M87.9038 21.6389H90.101L91.1446 17.7688C91.5045 16.3951 92.7642 15.4172 94.0958 15.4172C95.3914 15.4172 95.861 16.1782 95.4292 17.6965L94.3837 21.6389H96.5809L97.8045 17.0458C98.3083 15.0936 97.3366 13.9349 95.1773 13.9349C93.7719 13.9349 92.6562 14.4411 91.6845 15.4533L91.9364 14.1157H89.7411C89.5251 15.3087 89.3812 16.0336 89.3074 16.3228L87.9038 21.6389Z" fill="#323131"/>
<path d="M98.5239 21.6388H100.685L101.765 17.588L104.682 21.6388H107.669L104.356 17.3349L108.82 14.1156H106.049L101.909 17.118L103.564 10.8619H101.405L98.5239 21.6388Z" fill="#323131"/>
</svg>
