<svg width="127" height="27" viewBox="0 0 127 27" fill="none" xmlns="http://www.w3.org/2000/svg">
<path d="M43.493 18.5182C43.493 22.566 41.1571 24.3366 37.5518 24.3366C33.9464 24.3366 31.6816 22.5459 31.6816 18.6085V11.145H35.2515V18.5534C35.2515 20.344 36.1756 21.2017 37.5873 21.2017C38.999 21.2017 39.9232 20.3941 39.9232 18.6436V11.145H43.493V18.5182V18.5182ZM48.8198 18.9295C48.8198 17.8562 49.4342 17.2844 50.267 17.2844C51.0846 17.2844 51.6431 17.8562 51.6431 18.9295V24.1359H55.086V17.8361C55.086 15.6342 53.8368 14.2749 51.7498 14.2749C50.3533 14.2749 49.4495 15.0072 48.8147 15.8147V14.4555H45.3718V24.1359H48.8147V18.9295H48.8198ZM56.9344 24.1359H60.3772V14.4555H56.9344V24.1359ZM56.9344 13.352H60.3772V11.145H56.9344V13.352ZM67.0294 24.3315C70.1828 24.3315 72.4628 22.0594 72.4628 19.2857C72.4628 16.5119 70.198 14.2749 67.0649 14.2749C63.9115 14.2749 61.6315 16.547 61.6315 19.3208C61.6264 22.0945 63.8912 24.3315 67.0294 24.3315ZM67.0294 17.1389C68.243 17.1389 69.1114 18.1069 69.1114 19.3208C69.1114 20.5195 68.3344 21.4675 67.0649 21.4675C65.8513 21.4675 64.983 20.4995 64.983 19.2857C64.983 18.0869 65.7599 17.1389 67.0294 17.1389ZM77.0685 18.9295C77.0685 17.8562 77.683 17.2844 78.5157 17.2844C79.3282 17.2844 79.8919 17.8562 79.8919 18.9295V24.1359H83.3347V17.8361C83.3347 15.6342 82.0856 14.2749 79.9985 14.2749C78.6021 14.2749 77.6982 15.0072 77.0634 15.8147V14.4555H73.6206V24.1359H77.0634V18.9295H77.0685ZM93.8665 17.3947C95.2426 17.8863 96.3547 18.8092 96.3496 20.4794V20.5145C96.3496 21.6481 95.857 22.571 94.9988 23.1879C94.1407 23.8099 92.9372 24.1359 91.5001 24.1359H85.5995V11.145H91.2614C92.7645 11.145 93.9731 11.5714 94.7551 12.3187C95.3187 12.8855 95.6336 13.6078 95.6336 14.4605V14.4956C95.6336 16.0053 94.7805 16.8981 93.8665 17.3947ZM87.3717 16.7828H91.0177C91.8708 16.7828 92.5766 16.5922 93.059 16.2411C93.5415 15.89 93.8157 15.3884 93.8157 14.6912V14.6561C93.8055 13.5175 92.9321 12.7752 91.1294 12.7601H87.3768V16.7828H87.3717ZM94.5317 20.3891C94.5266 19.7471 94.2676 19.2756 93.7395 18.9295C93.2063 18.5834 92.3786 18.3878 91.2767 18.3878H87.3768V22.5208H91.5357C93.4501 22.5058 94.5317 21.7233 94.5367 20.4293V20.3891H94.5317ZM101.722 14.31C103.098 14.31 104.195 14.6812 104.921 15.3884C105.622 16.0756 105.967 17.0336 105.967 18.2574V24.1409H104.226V23.0224C103.525 23.7397 102.469 24.3315 100.976 24.3315H100.971C100.046 24.3315 99.1221 24.0757 98.4214 23.5641C97.7206 23.0525 97.2433 22.265 97.2433 21.2569V21.2218C97.2433 20.1735 97.6851 19.3458 98.4468 18.8041C99.2034 18.2624 100.26 17.9966 101.488 17.9966C102.616 17.9966 103.443 18.137 104.231 18.3427V18.2725C104.231 17.475 103.987 16.8981 103.55 16.5069C103.108 16.1207 102.453 15.91 101.585 15.91C100.488 15.91 99.635 16.1709 98.7616 16.5621L98.594 16.6373L98.0507 15.1827L98.1929 15.1175C99.2491 14.641 100.295 14.305 101.722 14.31ZM104.241 19.7923C103.565 19.6067 102.702 19.4361 101.631 19.4361C99.8991 19.4462 99.0206 20.1484 99.0206 21.1515V21.1866C99.0206 21.7233 99.2643 22.1296 99.6655 22.4255C100.067 22.7165 100.63 22.882 101.245 22.882C102.088 22.882 102.844 22.6312 103.383 22.2199C103.921 21.8036 104.246 21.2268 104.246 20.5396V19.7923H104.241ZM112.538 14.2548C111.091 14.2498 110.106 14.8768 109.446 15.7094V14.4555H107.689V24.1409H109.446V18.6186C109.456 16.9433 110.578 15.8649 112.132 15.8549C113.721 15.8699 114.579 16.8329 114.595 18.5082V24.1359H116.352V18.1621C116.352 17.0185 116.006 16.0354 115.346 15.3432C114.691 14.6511 113.726 14.2548 112.538 14.2548ZM122.73 18.6487L126.909 14.4504H124.664L119.769 19.4662V11.14H118.007V24.1309H119.769V21.5929L121.516 19.8625L124.857 24.1359H126.98L122.73 18.6487Z" fill="#2C479E"/>
<path d="M21.815 7.08224V16.7778C21.815 24.7579 14.523 27.7724 7.86577 26.7943C10.2016 26.2075 12.3598 24.6576 12.3598 20.4393V15.9953C12.3598 11.8021 13.6851 7.78445 21.815 7.08224ZM0.0253906 0.0250244V16.9082C0.0253906 24.5673 4.67173 25.7159 6.18497 25.9516C7.77437 26.2024 9.80556 25.4601 10.6891 24.1359C9.58213 23.4738 9.48057 21.2468 9.48057 18.6286V8.63714C9.48057 2.19185 4.85454 0.0250244 0.0253906 0.0250244Z" fill="#DA2128"/>
</svg>
