<svg width="28" height="28" viewBox="0 0 28 28" fill="none" xmlns="http://www.w3.org/2000/svg">
<path d="M15.1666 2.36841V4.72507C20.2883 5.35507 23.9166 10.0101 23.2866 15.1317C22.7499 19.3784 19.4133 22.7501 15.1666 23.2517V25.5851C21.5833 24.9434 26.2499 19.2501 25.6083 12.8334C25.0833 7.29174 20.6849 2.91674 15.1666 2.36841ZM12.8333 2.40341C10.5583 2.62507 8.38827 3.50007 6.61494 4.97007L8.28327 6.69674C9.58994 5.64674 11.1649 4.97007 12.8333 4.73674V2.40341ZM4.96994 6.61507C3.5112 8.38531 2.6135 10.5503 2.3916 12.8334H4.72494C4.9466 11.1767 5.59994 9.60174 6.63827 8.28341L4.96994 6.61507ZM18.0833 9.91674L12.3899 15.6101L9.9166 13.1367L8.67994 14.3734L12.3899 18.0834L19.3199 11.1534L18.0833 9.91674ZM2.40327 15.1667C2.6366 17.4534 3.53494 19.6117 4.9816 21.3851L6.63827 19.7167C5.60802 18.3979 4.95122 16.8264 4.7366 15.1667H2.40327ZM8.28327 21.4317L6.61494 23.0301C8.38218 24.5032 10.5458 25.4206 12.8333 25.6667V23.3334C11.1736 23.1188 9.60207 22.462 8.28327 21.4317Z" fill="#7060FE"/>
</svg>
