<svg width="54" height="45" viewBox="0 0 54 45" fill="none" xmlns="http://www.w3.org/2000/svg">
<path d="M5.64864 43.2641L5.86542 43.6126L6.24948 43.4679C9.56289 42.2195 12.4647 40.3454 14.9505 37.8479C17.1639 35.624 19.154 32.6528 20.9288 28.9509C22.8698 25.1864 23.8221 20.276 23.8221 14.2524C23.8221 10.0886 22.7159 6.76055 20.445 4.3333C18.1918 1.78901 15.4215 0.5 12.161 0.5C8.91856 0.5 6.15233 1.6389 3.89246 3.90942C1.63269 6.17983 0.5 8.95797 0.5 12.2136C0.5 15.4382 1.40982 18.083 3.27087 20.0966L3.28344 20.1102L3.29698 20.1229C5.30155 21.993 7.93519 22.9078 11.1464 22.9078C12.0112 22.9078 13.0008 22.7633 14.1092 22.4849C14.4455 22.4005 14.7525 22.2877 15.0206 22.1401L15.1632 22.4267C15.2846 22.6707 15.4114 22.987 15.5421 23.3807L15.5532 23.4144L15.569 23.4461C15.6525 23.6137 15.7196 23.9283 15.7196 24.4466C15.7196 26.9368 15.0691 29.0757 13.7828 30.885L13.7757 30.895L13.7691 30.9053C12.575 32.7715 11.2556 34.2929 9.81424 35.4778L9.81419 35.4778L9.80789 35.4831C8.08583 36.9471 6.09437 38.2153 3.8302 39.2858L3.32304 39.5256L3.61936 40.002L5.64864 43.2641ZM44.6985 22.1401L44.8411 22.4267L45.2887 22.2039L44.8411 22.4267C44.9626 22.6707 45.0894 22.987 45.22 23.3807L45.2312 23.4144L45.247 23.4461C45.3304 23.6137 45.3975 23.9283 45.3975 24.4466C45.3975 26.9368 44.7471 29.0757 43.4607 30.885L43.4537 30.895L43.4471 30.9053C42.253 32.7715 40.9336 34.2929 39.4922 35.4778L39.4921 35.4778L39.4858 35.4831C37.7638 36.9471 35.7723 38.2153 33.5081 39.2858L33.001 39.5256L33.2973 40.002L35.3266 43.2641L35.5434 43.6126L35.9274 43.4679C39.2408 42.2195 42.1426 40.3454 44.6285 37.8479C46.8419 35.624 48.832 32.6528 50.6067 28.9509C52.5477 25.1863 53.5 20.276 53.5 14.2524C53.5 10.0886 52.3938 6.76051 50.1229 4.33326C47.8697 1.78899 45.0994 0.5 41.839 0.5C38.5965 0.5 35.8303 1.6389 33.5704 3.90942C31.3106 6.17983 30.1779 8.95797 30.1779 12.2136C30.1779 15.4382 31.0878 18.083 32.9488 20.0966L32.9614 20.1102L32.9749 20.1229C34.9795 21.993 37.6131 22.9078 40.8243 22.9078C41.6892 22.9078 42.6787 22.7633 43.7871 22.4849C44.1234 22.4005 44.4305 22.2877 44.6985 22.1401Z" stroke="#9697A1" stroke-opacity="0.4"/>
</svg>
