<svg width="416" height="426" viewBox="0 0 416 426" fill="none" xmlns="http://www.w3.org/2000/svg">
<path d="M44.0355 375.488C58.2236 395.115 67.8448 418.545 58.6795 443.165C54.0968 455.476 45.2988 465.464 34.0572 471.909C29.0169 474.077 22.7547 474.474 21.472 468.823C19.7925 456.91 21.3816 444.049 12.0041 436.137C-16.1285 412.401 -52.4169 382.524 -32.538 342.542C-30.1795 336.864 -28.8505 332.157 -26.6234 327.614C-24.9004 323.289 -22.4289 319.101 -19.148 315.139C-12.2593 307.121 -1.56802 311.251 8.83586 319.894C12.315 322.854 15.8003 326.202 19.0808 329.822C24.1664 340.04 29.1145 351.007 35.4311 361.683C38.1862 366.058 41.1246 370.698 44.0355 375.488Z" stroke="url(#paint0_linear_93_6930)" stroke-opacity="0.07" stroke-miterlimit="10"/>
<path d="M60.7598 377.942C74.6273 394.26 81.8658 418.026 76.0486 439.161C75.0525 444.162 73.751 448.719 72.0004 453.195C66.9199 466.11 58.0576 477.711 45.8323 486.141C37.6821 491.761 28.637 495.515 19.4728 497.39C15.2451 498.084 10.8005 498.273 7.086 497.436C3.37153 496.598 0.414664 494.585 -0.211367 490.834C6.4151 473.716 9.65415 451.875 -5.77144 438.983C-38.1194 412.925 -49.756 375.199 -45.2728 335.638C-46.3112 330.341 -47.2609 324.983 -47.9724 319.592C-48.6839 314.2 -49.3068 308.747 -49.6914 303.261C-50.21 289.24 -32.3095 288.66 -20.3352 290.86C-1.15193 295.932 13.9896 307.843 26.6629 322.241C29.7937 325.833 32.7475 329.548 35.3743 333.357C40.4813 343.038 44.2076 352.232 49.6079 361.58C53.4015 367.461 57.2226 373.191 60.7598 377.942Z" stroke="url(#paint1_linear_93_6930)" stroke-opacity="0.07" stroke-miterlimit="10"/>
<path d="M79.3782 375.559C107.724 416.665 97.384 472.944 56.2786 501.29C46.0022 508.376 34.8524 513.058 23.278 515.419C11.7036 517.78 0.00416077 517.874 -11.3714 515.784C-12.8985 509.778 -14.4255 503.773 -15.9801 497.917C-16.8473 492.11 -16.0071 486.694 -14.8674 481.333C-11.6381 472.178 -13.8676 463.258 -17.258 456.446C-34.4849 423.882 -59.4099 395.32 -56.7321 356.742C-57.3854 349.35 -58.8575 343.045 -60.6839 336.984C-64.3642 325.013 -68.2553 312.925 -72.235 300.898C-80.0844 276.247 -44.9551 270.322 -24.2751 275.669C10.212 285.873 35.076 310.556 52.8743 339.589C55.4462 343.698 57.9509 347.33 60.2998 350.547C62.499 353.736 64.7532 356.626 66.9464 359.427C71.5709 364.996 75.835 370.421 79.3782 375.559Z" stroke="url(#paint2_linear_93_6930)" stroke-opacity="0.07" stroke-miterlimit="10"/>
<path d="M94.4387 365.174C128.466 414.519 116.036 482.173 66.6917 516.2C50.2141 527.563 31.7451 533.763 13.1695 535.07C-5.4948 536.437 -24.1161 532.939 -33.5331 520.609C-33.1815 514.485 -33.0407 508.244 -33.2542 502.248C-32.9576 496.422 -32.9604 490.542 -31.5489 485.386C-31.1331 477.648 -26.4895 469.218 -29.6049 460.909C-45.946 427.734 -65.4946 399.385 -69.4915 363.45C-71.6448 357.484 -73.9141 351.729 -76.1835 345.973C-80.8108 334.524 -85.2884 323.102 -89.5614 311.409C-95.1813 295.677 -93.714 275.058 -78.9288 266.169C-32.8016 238.282 18.9124 281.05 49.1613 316.007C59.1343 329.521 67.3633 336.526 74.8164 343.543C82.1077 349.757 88.7574 356.936 94.4387 365.174Z" stroke="url(#paint3_linear_93_6930)" stroke-opacity="0.07" stroke-miterlimit="10"/>
<path d="M109.41 354.85C149.179 412.522 134.659 491.552 76.988 531.321C48.1079 551.237 13.9988 557.503 -17.9713 551.707C-28.5985 549.754 -38.9782 546.455 -48.8721 541.775C-50.2765 524.574 -51.6808 507.373 -53.4731 490.178C-53.8577 484.691 -54.2423 479.205 -53.9275 474.544C-54.3457 468.819 -52.3598 462.221 -53.6425 456.57C-62.4387 428.649 -72.1208 401.34 -77.3429 372.916C-79.2182 367.542 -81.3318 362.203 -83.534 356.924C-90.2291 341.149 -98.2317 325.753 -108.134 311.014C-113.632 303.041 -120.352 293.296 -119.313 283.429C-114.088 254.99 -84.3961 244.973 -57.2398 244.546C-7.08176 245.251 30.4284 276.9 58.8262 311.825C68.659 316.417 78.0061 322.389 86.5956 329.538C95.0964 336.747 102.751 345.194 109.41 354.85Z" stroke="url(#paint4_linear_93_6930)" stroke-opacity="0.07" stroke-miterlimit="10"/>
<path d="M124.47 344.465C169.982 410.464 153.372 500.87 87.3735 546.382C54.4183 569.107 15.2506 576.379 -21.271 569.669C-33.395 567.441 -45.3051 563.628 -56.6408 558.374C-67.5764 553.889 -77.3358 546.371 -73.1044 532.603C-69.0407 513.854 -68.0471 495.391 -69.3475 477.204C-69.7718 471.091 -70.4619 465.162 -71.4513 459.178C-72.8253 447.707 -76.2766 437.016 -79.3583 425.154C-81.3129 418.528 -83.2951 412.052 -85.4484 406.086C-95.9032 377.088 -110.048 348.804 -124.657 321.363C-135.104 302.423 -139.073 277.71 -125.021 260.177C-70.5221 195.145 16.9616 253.769 66.6289 295.465C77.9647 300.72 88.6374 307.477 98.3479 315.682C107.997 323.799 116.834 333.391 124.47 344.465Z" stroke="url(#paint5_linear_93_6930)" stroke-opacity="0.07" stroke-miterlimit="10"/>
<path d="M139.53 334.08C190.784 408.406 172.024 510.099 97.786 561.292C48.2646 595.442 -13.5045 598.56 -64.2938 574.762C-76.9827 568.872 -88.1503 561.018 -94.7541 551.062C-77.5339 469.124 -89.9622 380.965 -148.915 314.43C-169.563 292.069 -152.547 254.192 -128.017 238.583C-80.1787 205.595 -16.9168 223.407 28.2729 253.681C47.6512 267.376 61.6476 272.888 74.3976 278.866C99.6869 290.708 122.425 309.275 139.53 334.08Z" stroke="url(#paint6_linear_93_6930)" stroke-opacity="0.07" stroke-miterlimit="10"/>
<path d="M154.59 323.695C211.526 406.26 190.736 519.417 108.171 576.352C46.2475 619.054 -32.8691 618.057 -92.5683 580.011C-102.548 573.691 -111.32 566.276 -118.676 557.885C-91.6195 478.837 -107.316 391.624 -160.557 327.687C-181.266 301.446 -178.271 264.087 -153.863 240.72C-100.067 187.938 -15.3 206.606 37.975 248.036C49.3506 250.126 60.5947 253.353 71.4967 257.599C103.876 270.433 133.209 292.688 154.59 323.695Z" stroke="url(#paint7_linear_93_6930)" stroke-opacity="0.07" stroke-miterlimit="10"/>
<path d="M169.562 313.371C185.262 336.138 195.561 360.93 200.796 386.34C203.413 399.044 204.491 412.549 203.824 427.126C201.177 463.853 199.739 505.366 173.687 534.311C166.725 545.255 158.621 555.681 149.367 565.199C140.175 574.805 129.896 583.593 118.557 591.413C39.0035 646.271 -66.2639 635.596 -133.272 571.218C-141.443 562.212 -142.914 552.117 -138.219 541.297C-114.68 494.87 -119.473 436.739 -147.299 394.491C-182.792 339.23 -214.007 252.261 -140.295 213.195C-81.0939 181.521 -14.1666 204.648 41.2474 230.225C53.8204 232.535 66.1734 236.042 78.1568 240.719C113.807 254.696 146.042 279.264 169.562 313.371Z" stroke="url(#paint8_linear_93_6930)" stroke-opacity="0.07" stroke-miterlimit="10"/>
<path d="M184.622 302.985C193.175 315.388 200.304 328.38 205.976 341.723C211.648 355.066 215.863 368.761 218.798 382.684C218.162 439.199 224.574 505.364 189.165 552.395C181.577 559.589 172.583 568.536 162.582 577.916C152.537 588.372 141.256 597.981 128.853 606.534C90.8487 632.741 47.5538 645.212 4.62924 645.139C-1.48931 645.176 -7.61395 644.824 -13.7111 644.323C-36.6974 638.475 -62.9678 638.29 -84.3837 626C-90.0348 623.492 -95.4811 620.712 -100.9 617.782C-117.129 608.844 -132.259 597.708 -146.016 584.582C-155.424 574.73 -164.014 563.791 -165.116 552.525C-118.155 471.254 -175.854 389.477 -200.074 310.756C-212.658 269.762 -187.943 227.883 -150.95 207.601C-105.983 181.822 -51.3349 183.352 -4.97153 200.922C15.8825 207.848 30.661 209.944 44.3429 212.535C99.33 222.328 150.412 253.375 184.622 302.985Z" stroke="url(#paint9_linear_93_6930)" stroke-opacity="0.07" stroke-miterlimit="10"/>
<path d="M199.682 292.6C208.968 306.065 216.68 320.093 222.758 334.594C228.837 349.095 233.546 363.886 236.588 378.912C223.571 451.024 253.197 550.853 175.969 592.212C165.055 602.353 152.643 612.22 139.266 621.444C102.679 646.674 61.5189 660.156 20.1887 662.775C14.3145 663.165 8.40673 663.318 2.46535 663.232C-25.6741 654.271 -55.213 655.033 -85.4238 651.03C-92.2968 650.541 -99.5058 647.669 -104.188 640.31C-107.108 636.834 -111.043 633.403 -115.57 630.251C-130.995 621.15 -145.465 610.213 -158.679 597.496C-169.984 586.599 -180.443 574.466 -189.728 561C-156.312 480.181 -179.31 403.232 -214.283 324.083C-231.906 285.257 -212.018 240.17 -179.026 212.191C-128.652 169.611 -57.3247 168.79 1.44661 189.567C17.5418 189.971 32.7572 191.374 47.6364 194.185C107.27 205.219 162.601 238.826 199.682 292.6Z" stroke="url(#paint10_linear_93_6930)" stroke-opacity="0.07" stroke-miterlimit="10"/>
<path d="M214.654 282.276C222.657 293.881 229.502 305.892 235.366 318.188C241.231 330.483 245.937 343.185 249.63 355.932C235.363 441.585 282.766 570.985 182.099 611.906C171.991 620.184 161.168 628.563 149.563 636.565C112.71 661.979 71.5347 676.386 29.957 680.352C23.9667 680.953 18.0925 681.344 12.1236 681.408C-22.1617 668.842 -56.191 668.78 -93.7639 671.16C-108.671 672.29 -118.72 659.612 -126.689 648.246C-130.132 643.822 -134.903 640.315 -139.409 636.625C-164.273 619.523 -186.495 597.724 -204.638 571.413C-212.641 559.808 -218.344 548.316 -217.115 539.103C-194.805 509.47 -189.763 469.393 -198.681 433.714C-214.838 374.269 -249.781 316.014 -223.324 252.019C-191.673 176.6 -104.858 154.641 -32.5265 170.251C-14.6505 171.911 -0.86162 171.814 12.2186 172.205C90.489 174.439 166.699 212.733 214.654 282.276Z" stroke="url(#paint11_linear_93_6930)" stroke-opacity="0.07" stroke-miterlimit="10"/>
<path d="M229.714 271.891C238.267 284.293 245.723 297.19 251.899 310.317C258.136 323.532 263.243 337.003 267.219 350.731C259.738 414.189 260.713 476.26 262.359 543.097C265.137 586.932 233.977 617.569 195.426 626.114C184.365 634.527 172.378 642.923 159.976 651.476C120.465 678.722 76.3206 694.131 31.734 698.472C25.3558 699.08 19.005 699.538 12.5596 699.669C-24.5722 676.91 -61.9623 690.929 -103.476 689.491C-118.108 689.124 -129.318 678.554 -136.474 665.712C-140.03 659.798 -145.106 655.848 -149.978 651.626C-176.624 633.269 -200.422 609.942 -219.909 581.682C-228.462 569.28 -235.707 556.498 -241.339 543.781C-213.954 481.892 -226.353 414.627 -242.295 349.805C-258.512 286.481 -236.332 216.285 -178.688 180.456C-133.447 153.18 -79.6842 155.321 -29.5597 155.787C-17.2858 154.251 -4.99981 153.491 7.27089 153.657C44.0219 154.065 80.4396 161.761 114.312 176.572C119.964 179.08 125.648 181.827 131.339 184.961C147.217 196.234 165.239 203.413 180.277 216.311C183.912 219.687 187.525 223.6 191.86 227.8C205.794 240.805 218.474 255.59 229.714 271.891Z" stroke="url(#paint12_linear_93_6930)" stroke-opacity="0.07" stroke-miterlimit="10"/>
<path d="M244.774 261.505C253.877 274.705 261.794 288.461 268.492 302.534C275.19 316.607 280.581 331.059 284.781 345.679C268.841 419.807 280.69 490.066 281.022 568.266C280.47 609.168 245.309 632.107 210.436 642.953C196.65 648.93 183.649 657.373 170.361 666.536C126.243 696.959 76.625 713.528 26.7447 717.207C20.5436 717.692 14.3914 717.49 8.2332 716.9C-7.2568 709.412 -24.7292 699.239 -42.2938 702.202C-82.1885 708.798 -131.003 717.624 -151.623 672.367C-156.959 668.988 -162.18 665.399 -167.284 661.599C-192.86 642.897 -215.794 619.496 -234.792 591.945C-243.895 578.745 -251.812 564.99 -258.51 550.916C-264.481 537.518 -269.206 523.653 -268.296 513.221C-236.743 446.758 -262.002 377.904 -259.555 305.63C-256.862 210.965 -175.879 140.742 -85.7809 143.447C-63.1761 142.107 -47.429 139.352 -31.7247 137.673C14.6886 131.81 61.8773 137.308 105.589 153.307C111.023 155.311 116.525 157.792 122.06 160.511C144.493 178.636 171.496 187.465 197.674 200.785C204.608 205.153 208.609 212.851 212.375 218.882C214.443 223.207 217.947 227.719 221.988 232.252C230.042 241.469 237.627 251.14 244.774 261.505Z" stroke="url(#paint13_linear_93_6930)" stroke-opacity="0.07" stroke-miterlimit="10"/>
<defs>
<linearGradient id="paint0_linear_93_6930" x1="-32.2324" y1="323.605" x2="58.5553" y2="455.26" gradientUnits="userSpaceOnUse">
<stop stop-color="white"/>
<stop offset="1" stop-color="white" stop-opacity="0"/>
</linearGradient>
<linearGradient id="paint1_linear_93_6930" x1="-58.3779" y1="302.57" x2="60.9981" y2="475.683" gradientUnits="userSpaceOnUse">
<stop stop-color="white"/>
<stop offset="1" stop-color="white" stop-opacity="0"/>
</linearGradient>
<linearGradient id="paint2_linear_93_6930" x1="-75.327" y1="287.126" x2="67.175" y2="493.776" gradientUnits="userSpaceOnUse">
<stop stop-color="white"/>
<stop offset="1" stop-color="white" stop-opacity="0"/>
</linearGradient>
<linearGradient id="paint3_linear_93_6930" x1="-87.418" y1="271.961" x2="76.3922" y2="509.511" gradientUnits="userSpaceOnUse">
<stop stop-color="white"/>
<stop offset="1" stop-color="white" stop-opacity="0"/>
</linearGradient>
<linearGradient id="paint4_linear_93_6930" x1="-101.842" y1="256.732" x2="84.1194" y2="526.404" gradientUnits="userSpaceOnUse">
<stop stop-color="white"/>
<stop offset="1" stop-color="white" stop-opacity="0"/>
</linearGradient>
<linearGradient id="paint5_linear_93_6930" x1="-111.102" y1="246.546" x2="92.9889" y2="542.509" gradientUnits="userSpaceOnUse">
<stop stop-color="white"/>
<stop offset="1" stop-color="white" stop-opacity="0"/>
</linearGradient>
<linearGradient id="paint6_linear_93_6930" x1="-121.442" y1="234.002" x2="102.168" y2="558.27" gradientUnits="userSpaceOnUse">
<stop stop-color="white"/>
<stop offset="1" stop-color="white" stop-opacity="0"/>
</linearGradient>
<linearGradient id="paint7_linear_93_6930" x1="-131.875" y1="223.51" x2="110.386" y2="574.825" gradientUnits="userSpaceOnUse">
<stop stop-color="white"/>
<stop offset="1" stop-color="white" stop-opacity="0"/>
</linearGradient>
<linearGradient id="paint8_linear_93_6930" x1="-140.529" y1="212.475" x2="120.064" y2="590.373" gradientUnits="userSpaceOnUse">
<stop stop-color="white"/>
<stop offset="1" stop-color="white" stop-opacity="0"/>
</linearGradient>
<linearGradient id="paint9_linear_93_6930" x1="-146.948" y1="204.157" x2="129.986" y2="605.753" gradientUnits="userSpaceOnUse">
<stop stop-color="white"/>
<stop offset="1" stop-color="white" stop-opacity="0"/>
</linearGradient>
<linearGradient id="paint10_linear_93_6930" x1="-155.01" y1="194.794" x2="139.222" y2="621.475" gradientUnits="userSpaceOnUse">
<stop stop-color="white"/>
<stop offset="1" stop-color="white" stop-opacity="0"/>
</linearGradient>
<linearGradient id="paint11_linear_93_6930" x1="-162.181" y1="184.395" x2="150.121" y2="637.28" gradientUnits="userSpaceOnUse">
<stop stop-color="white"/>
<stop offset="1" stop-color="white" stop-opacity="0"/>
</linearGradient>
<linearGradient id="paint12_linear_93_6930" x1="-169.479" y1="173.908" x2="163.506" y2="656.785" gradientUnits="userSpaceOnUse">
<stop stop-color="white"/>
<stop offset="1" stop-color="white" stop-opacity="0"/>
</linearGradient>
<linearGradient id="paint13_linear_93_6930" x1="-175.278" y1="165.309" x2="176.113" y2="674.878" gradientUnits="userSpaceOnUse">
<stop stop-color="white"/>
<stop offset="1" stop-color="white" stop-opacity="0"/>
</linearGradient>
</defs>
</svg>
