<svg width="155" height="155" viewBox="0 0 155 155" fill="none" xmlns="http://www.w3.org/2000/svg">
<g style="mix-blend-mode:multiply" opacity="0.1">
<path opacity="0.01" d="M114.805 46.5562H86.2375C64.5996 46.5562 47.0586 64.1453 47.0586 85.8425V114.489C47.0586 136.186 64.5996 153.775 86.2375 153.775H114.805C136.443 153.775 153.984 136.186 153.984 114.489V85.8425C153.984 64.1453 136.443 46.5562 114.805 46.5562Z" fill="#FAFAFA"/>
<path opacity="0.01" d="M114.341 46.0892H85.7727C64.1348 46.0892 46.5938 63.6784 46.5938 85.3756V114.022C46.5938 135.719 64.1348 153.308 85.7727 153.308H114.341C135.979 153.308 153.52 135.719 153.52 114.022V85.3756C153.52 63.6784 135.979 46.0892 114.341 46.0892Z" fill="#F7F7F7"/>
<path opacity="0.02" d="M113.872 45.6198H85.3039C63.666 45.6198 46.125 63.2089 46.125 84.9062V113.552C46.125 135.25 63.666 152.839 85.3039 152.839H113.872C135.51 152.839 153.051 135.25 153.051 113.552V84.9062C153.051 63.2089 135.51 45.6198 113.872 45.6198Z" fill="#F5F5F5"/>
<path opacity="0.02" d="M113.403 45.1503H84.8352C63.1973 45.1503 45.6562 62.7394 45.6562 84.4367V113.083C45.6562 134.78 63.1973 152.369 84.8352 152.369H113.403C135.041 152.369 152.582 134.78 152.582 113.083V84.4367C152.582 62.7394 135.041 45.1503 113.403 45.1503Z" fill="#F2F2F2"/>
<path opacity="0.03" d="M112.938 44.6832H84.3703C62.7324 44.6832 45.1914 62.2723 45.1914 83.9696V112.616C45.1914 134.313 62.7324 151.902 84.3703 151.902H112.938C134.576 151.902 152.117 134.313 152.117 112.616V83.9696C152.117 62.2723 134.576 44.6832 112.938 44.6832Z" fill="#F0F0F0"/>
<path opacity="0.03" d="M112.47 44.2137H83.9016C62.2637 44.2137 44.7227 61.8028 44.7227 83.5001V112.146C44.7227 133.844 62.2637 151.433 83.9016 151.433H112.47C134.107 151.433 151.648 133.844 151.648 112.146V83.5001C151.648 61.8028 134.107 44.2137 112.47 44.2137Z" fill="#EDEDED"/>
<path opacity="0.04" d="M112.001 43.7441H83.4328C61.7949 43.7441 44.2539 61.3333 44.2539 83.0305V111.677C44.2539 133.374 61.7949 150.963 83.4328 150.963H112.001C133.639 150.963 151.18 133.374 151.18 111.677V83.0305C151.18 61.3333 133.639 43.7441 112.001 43.7441Z" fill="#EBEBEB"/>
<path opacity="0.04" d="M111.536 43.2748H82.968C61.3301 43.2748 43.7891 60.8639 43.7891 82.5612V111.207C43.7891 132.905 61.3301 150.494 82.968 150.494H111.536C133.174 150.494 150.715 132.905 150.715 111.207V82.5612C150.715 60.8639 133.174 43.2748 111.536 43.2748Z" fill="#E8E8E8"/>
<path opacity="0.05" d="M111.067 42.8076H82.4993C60.8613 42.8076 43.3203 60.3967 43.3203 82.094V110.74C43.3203 132.438 60.8613 150.027 82.4993 150.027H111.067C132.705 150.027 150.246 132.438 150.246 110.74V82.094C150.246 60.3967 132.705 42.8076 111.067 42.8076Z" fill="#E6E6E6"/>
<path opacity="0.05" d="M110.598 42.3382H82.0305C60.3926 42.3382 42.8516 59.9273 42.8516 81.6246V110.271C42.8516 131.968 60.3926 149.557 82.0305 149.557H110.598C132.236 149.557 149.777 131.968 149.777 110.271V81.6246C149.777 59.9273 132.236 42.3382 110.598 42.3382Z" fill="#E3E3E3"/>
<path opacity="0.06" d="M110.13 41.8687H81.5618C59.9238 41.8687 42.3828 59.4578 42.3828 81.1551V109.801C42.3828 131.499 59.9238 149.088 81.5618 149.088H110.13C131.768 149.088 149.309 131.499 149.309 109.801V81.1551C149.309 59.4578 131.768 41.8687 110.13 41.8687Z" fill="#E1E1E1"/>
<path opacity="0.06" d="M109.665 41.4017H81.0969C59.459 41.4017 41.918 58.9908 41.918 80.6881V109.334C41.918 131.032 59.459 148.621 81.0969 148.621H109.665C131.303 148.621 148.844 131.032 148.844 109.334V80.6881C148.844 58.9908 131.303 41.4017 109.665 41.4017Z" fill="#DEDEDE"/>
<path opacity="0.07" d="M109.2 40.9322H80.6321C58.9941 40.9322 41.4531 58.5213 41.4531 80.2186V108.865C41.4531 130.562 58.9941 148.151 80.6321 148.151H109.2C130.838 148.151 148.379 130.562 148.379 108.865V80.2186C148.379 58.5213 130.838 40.9322 109.2 40.9322Z" fill="#DCDCDC"/>
<path opacity="0.07" d="M108.731 40.4628H80.1633C58.5254 40.4628 40.9844 58.0519 40.9844 79.7492V108.396C40.9844 130.093 58.5254 147.682 80.1633 147.682H108.731C130.369 147.682 147.91 130.093 147.91 108.396V79.7492C147.91 58.0519 130.369 40.4628 108.731 40.4628Z" fill="#D9D9D9"/>
<path opacity="0.08" d="M108.262 39.9957H79.6946C58.0566 39.9957 40.5156 57.5848 40.5156 79.2821V107.928C40.5156 129.626 58.0566 147.215 79.6946 147.215H108.262C129.9 147.215 147.441 129.626 147.441 107.928V79.2821C147.441 57.5848 129.9 39.9957 108.262 39.9957Z" fill="#D7D7D7"/>
<path opacity="0.08" d="M107.794 39.5262H79.2258C57.5879 39.5262 40.0469 57.1154 40.0469 78.8126V107.459C40.0469 129.156 57.5879 146.745 79.2258 146.745H107.794C129.432 146.745 146.973 129.156 146.973 107.459V78.8126C146.973 57.1154 129.432 39.5262 107.794 39.5262Z" fill="#D4D4D4"/>
<path opacity="0.09" d="M107.325 39.0567H78.7571C57.1191 39.0567 39.5781 56.6458 39.5781 78.3431V106.989C39.5781 128.687 57.1191 146.276 78.7571 146.276H107.325C128.963 146.276 146.504 128.687 146.504 106.989V78.3431C146.504 56.6458 128.963 39.0567 107.325 39.0567Z" fill="#D2D2D2"/>
<path opacity="0.09" d="M106.86 38.5872H78.2922C56.6543 38.5872 39.1133 56.1763 39.1133 77.8736V106.52C39.1133 128.217 56.6543 145.806 78.2922 145.806H106.86C128.498 145.806 146.039 128.217 146.039 106.52V77.8736C146.039 56.1763 128.498 38.5872 106.86 38.5872Z" fill="#CFCFCF"/>
<path opacity="0.1" d="M106.391 38.1202H77.8235C56.1855 38.1202 38.6445 55.7093 38.6445 77.4066V106.053C38.6445 127.75 56.1855 145.339 77.8235 145.339H106.391C128.029 145.339 145.57 127.75 145.57 106.053V77.4066C145.57 55.7093 128.029 38.1202 106.391 38.1202Z" fill="#CDCDCD"/>
<path opacity="0.1" d="M105.927 37.6507H77.3586C55.7207 37.6507 38.1797 55.2398 38.1797 76.9371V105.583C38.1797 127.281 55.7207 144.87 77.3586 144.87H105.927C127.564 144.87 145.106 127.281 145.106 105.583V76.9371C145.106 55.2398 127.564 37.6507 105.927 37.6507Z" fill="#CACACA"/>
<path opacity="0.11" d="M105.458 37.1812H76.8899C55.2519 37.1812 37.7109 54.7704 37.7109 76.4676V105.114C37.7109 126.811 55.2519 144.4 76.8899 144.4H105.458C127.096 144.4 144.637 126.811 144.637 105.114V76.4676C144.637 54.7704 127.096 37.1812 105.458 37.1812Z" fill="#C7C7C7"/>
<path opacity="0.11" d="M104.993 36.7142H76.425C54.7871 36.7142 37.2461 54.3033 37.2461 76.0006V104.647C37.2461 126.344 54.7871 143.933 76.425 143.933H104.993C126.631 143.933 144.172 126.344 144.172 104.647V76.0006C144.172 54.3033 126.631 36.7142 104.993 36.7142Z" fill="#C5C5C5"/>
<path opacity="0.12" d="M104.524 36.2448H75.9563C54.3184 36.2448 36.7773 53.8339 36.7773 75.5311V104.177C36.7773 125.875 54.3184 143.464 75.9563 143.464H104.524C126.162 143.464 143.703 125.875 143.703 104.177V75.5311C143.703 53.8339 126.162 36.2448 104.524 36.2448Z" fill="#C2C2C2"/>
<path opacity="0.12" d="M104.055 35.7753H75.4875C53.8496 35.7753 36.3086 53.3644 36.3086 75.0617V103.708C36.3086 125.405 53.8496 142.994 75.4875 142.994H104.055C125.693 142.994 143.234 125.405 143.234 103.708V75.0617C143.234 53.3644 125.693 35.7753 104.055 35.7753Z" fill="#C0C0C0"/>
<path opacity="0.13" d="M103.587 35.3081H75.0188C53.3809 35.3081 35.8398 52.8973 35.8398 74.5945V103.241C35.8398 124.938 53.3809 142.527 75.0188 142.527H103.587C125.225 142.527 142.766 124.938 142.766 103.241V74.5945C142.766 52.8973 125.225 35.3081 103.587 35.3081Z" fill="#BDBDBD"/>
<path opacity="0.13" d="M103.122 34.8388H74.5539C52.916 34.8388 35.375 52.4279 35.375 74.1252V102.771C35.375 124.469 52.916 142.058 74.5539 142.058H103.122C124.76 142.058 142.301 124.469 142.301 102.771V74.1252C142.301 52.4279 124.76 34.8388 103.122 34.8388Z" fill="#BBBBBB"/>
<path opacity="0.14" d="M102.653 34.3692H74.0852C52.4473 34.3692 34.9062 51.9583 34.9062 73.6556V102.302C34.9062 123.999 52.4473 141.588 74.0852 141.588H102.653C124.291 141.588 141.832 123.999 141.832 102.302V73.6556C141.832 51.9583 124.291 34.3692 102.653 34.3692Z" fill="#B8B8B8"/>
<path opacity="0.14" d="M102.184 33.8997H73.6165C51.9785 33.8997 34.4375 51.4889 34.4375 73.1861V101.832C34.4375 123.53 51.9785 141.119 73.6165 141.119H102.184C123.822 141.119 141.363 123.53 141.363 101.832V73.1861C141.363 51.4889 123.822 33.8997 102.184 33.8997Z" fill="#B6B6B6"/>
<path opacity="0.15" d="M101.72 33.4327H73.1516C51.5137 33.4327 33.9727 51.0218 33.9727 72.7191V101.365C33.9727 123.063 51.5137 140.652 73.1516 140.652H101.72C123.357 140.652 140.898 123.063 140.898 101.365V72.7191C140.898 51.0218 123.357 33.4327 101.72 33.4327Z" fill="#B3B3B3"/>
<path opacity="0.15" d="M101.251 32.9633H72.6828C51.0449 32.9633 33.5039 50.5524 33.5039 72.2496V100.896C33.5039 122.593 51.0449 140.182 72.6828 140.182H101.251C122.889 140.182 140.43 122.593 140.43 100.896V72.2496C140.43 50.5524 122.889 32.9633 101.251 32.9633Z" fill="#B1B1B1"/>
<path opacity="0.16" d="M100.782 32.4938H72.2141C50.5762 32.4938 33.0352 50.0829 33.0352 71.7802V100.426C33.0352 122.124 50.5762 139.713 72.2141 139.713H100.782C122.42 139.713 139.961 122.124 139.961 100.426V71.7802C139.961 50.0829 122.42 32.4938 100.782 32.4938Z" fill="#AEAEAE"/>
<path opacity="0.16" d="M100.317 32.0267H71.7493C50.1113 32.0267 32.5703 49.6159 32.5703 71.3131V99.9594C32.5703 121.657 50.1113 139.246 71.7493 139.246H100.317C121.955 139.246 139.496 121.657 139.496 99.9594V71.3131C139.496 49.6159 121.955 32.0267 100.317 32.0267Z" fill="#ACACAC"/>
<path opacity="0.17" d="M99.8484 31.5573H71.2805C49.6426 31.5573 32.1016 49.1464 32.1016 70.8437V99.49C32.1016 121.187 49.6426 138.776 71.2805 138.776H99.8484C121.486 138.776 139.027 121.187 139.027 99.49V70.8437C139.027 49.1464 121.486 31.5573 99.8484 31.5573Z" fill="#A9A9A9"/>
<path opacity="0.17" d="M99.3797 31.0877H70.8118C49.1738 31.0877 31.6328 48.6768 31.6328 70.3741V99.0204C31.6328 120.718 49.1738 138.307 70.8118 138.307H99.3797C121.018 138.307 138.559 120.718 138.559 99.0204V70.3741C138.559 48.6768 121.018 31.0877 99.3797 31.0877Z" fill="#A7A7A7"/>
<path opacity="0.18" d="M98.9109 30.6183H70.343C48.7051 30.6183 31.1641 48.2074 31.1641 69.9046V98.5509C31.1641 120.248 48.7051 137.837 70.343 137.837H98.9109C120.549 137.837 138.09 120.248 138.09 98.5509V69.9046C138.09 48.2074 120.549 30.6183 98.9109 30.6183Z" fill="#A4A4A4"/>
<path opacity="0.18" d="M98.4461 30.1512H69.8782C48.2402 30.1512 30.6992 47.7403 30.6992 69.4376V98.0839C30.6992 119.781 48.2402 137.37 69.8782 137.37H98.4461C120.084 137.37 137.625 119.781 137.625 98.0839V69.4376C137.625 47.7403 120.084 30.1512 98.4461 30.1512Z" fill="#A2A2A2"/>
<path opacity="0.19" d="M97.9773 29.6816H69.4094C47.7715 29.6816 30.2305 47.2708 30.2305 68.968V97.6143C30.2305 119.312 47.7715 136.901 69.4094 136.901H97.9773C119.615 136.901 137.156 119.312 137.156 97.6143V68.968C137.156 47.2708 119.615 29.6816 97.9773 29.6816Z" fill="#9F9F9F"/>
<path opacity="0.19" d="M97.5086 29.2122H68.9407C47.3027 29.2122 29.7617 46.8013 29.7617 68.4986V97.1449C29.7617 118.842 47.3027 136.431 68.9407 136.431H97.5086C119.147 136.431 136.688 118.842 136.688 97.1449V68.4986C136.688 46.8013 119.147 29.2122 97.5086 29.2122Z" fill="#9D9D9D"/>
<path opacity="0.2" d="M97.0437 28.7453H68.4758C46.8379 28.7453 29.2969 46.3344 29.2969 68.0317V96.6779C29.2969 118.375 46.8379 135.964 68.4758 135.964H97.0437C118.682 135.964 136.223 118.375 136.223 96.6779V68.0317C136.223 46.3344 118.682 28.7453 97.0437 28.7453Z" fill="#9A9A9A"/>
<path opacity="0.2" d="M96.575 28.2758H68.0071C46.3691 28.2758 28.8281 45.8649 28.8281 67.5622V96.2085C28.8281 117.906 46.3691 135.495 68.0071 135.495H96.575C118.213 135.495 135.754 117.906 135.754 96.2085V67.5622C135.754 45.8649 118.213 28.2758 96.575 28.2758Z" fill="#979797"/>
<path opacity="0.21" d="M96.1062 27.8063H67.5383C45.9004 27.8063 28.3594 45.3955 28.3594 67.0927V95.739C28.3594 117.436 45.9004 135.025 67.5383 135.025H96.1062C117.744 135.025 135.285 117.436 135.285 95.739V67.0927C135.285 45.3955 117.744 27.8063 96.1062 27.8063Z" fill="#959595"/>
<path opacity="0.21" d="M95.6414 27.3392H67.0735C45.4355 27.3392 27.8945 44.9283 27.8945 66.6256V95.2718C27.8945 116.969 45.4355 134.558 67.0735 134.558H95.6414C117.279 134.558 134.82 116.969 134.82 95.2718V66.6256C134.82 44.9283 117.279 27.3392 95.6414 27.3392Z" fill="#929292"/>
<path opacity="0.22" d="M95.1726 26.8698H66.6047C44.9668 26.8698 27.4258 44.4589 27.4258 66.1561V94.8024C27.4258 116.5 44.9668 134.089 66.6047 134.089H95.1726C116.811 134.089 134.352 116.5 134.352 94.8024V66.1561C134.352 44.4589 116.811 26.8698 95.1726 26.8698Z" fill="#909090"/>
<path opacity="0.22" d="M94.7039 26.4003H66.136C44.498 26.4003 26.957 43.9894 26.957 65.6867V94.3329C26.957 116.03 44.498 133.619 66.136 133.619H94.7039C116.342 133.619 133.883 116.03 133.883 94.3329V65.6867C133.883 43.9894 116.342 26.4003 94.7039 26.4003Z" fill="#8D8D8D"/>
<path opacity="0.23" d="M94.2352 25.9308H65.6672C44.0293 25.9308 26.4883 43.5199 26.4883 65.2172V93.8635C26.4883 115.561 44.0293 133.15 65.6672 133.15H94.2352C115.873 133.15 133.414 115.561 133.414 93.8635V65.2172C133.414 43.5199 115.873 25.9308 94.2352 25.9308Z" fill="#8B8B8B"/>
<path opacity="0.23" d="M93.7703 25.4638H65.2024C43.5644 25.4638 26.0234 43.0529 26.0234 64.7502V93.3964C26.0234 115.094 43.5644 132.683 65.2024 132.683H93.7703C115.408 132.683 132.949 115.094 132.949 93.3964V64.7502C132.949 43.0529 115.408 25.4638 93.7703 25.4638Z" fill="#888888"/>
<path opacity="0.24" d="M93.3016 24.9942H64.7336C43.0957 24.9942 25.5547 42.5833 25.5547 64.2806V92.9269C25.5547 114.624 43.0957 132.213 64.7336 132.213H93.3016C114.939 132.213 132.48 114.624 132.48 92.9269V64.2806C132.48 42.5833 114.939 24.9942 93.3016 24.9942Z" fill="#868686"/>
<path opacity="0.24" d="M92.8328 24.5247H64.2649C42.627 24.5247 25.0859 42.1139 25.0859 63.8111V92.4574C25.0859 114.155 42.627 131.744 64.2649 131.744H92.8328C114.471 131.744 132.012 114.155 132.012 92.4574V63.8111C132.012 42.1139 114.471 24.5247 92.8328 24.5247Z" fill="#838383"/>
<path opacity="0.25" d="M92.368 24.0577H63.8C42.1621 24.0577 24.6211 41.6468 24.6211 63.3441V91.9903C24.6211 113.688 42.1621 131.277 63.8 131.277H92.368C114.006 131.277 131.547 113.688 131.547 91.9903V63.3441C131.547 41.6468 114.006 24.0577 92.368 24.0577Z" fill="#818181"/>
<path opacity="0.25" d="M91.8992 23.5882H63.3313C41.6934 23.5882 24.1523 41.1773 24.1523 62.8746V91.5209C24.1523 113.218 41.6934 130.807 63.3313 130.807H91.8992C113.537 130.807 131.078 113.218 131.078 91.5209V62.8746C131.078 41.1773 113.537 23.5882 91.8992 23.5882Z" fill="#7E7E7E"/>
<path opacity="0.26" d="M91.4344 23.1189H62.8664C41.2285 23.1189 23.6875 40.708 23.6875 62.4053V91.0516C23.6875 112.749 41.2285 130.338 62.8664 130.338H91.4344C113.072 130.338 130.613 112.749 130.613 91.0516V62.4053C130.613 40.708 113.072 23.1189 91.4344 23.1189Z" fill="#7C7C7C"/>
<path opacity="0.26" d="M90.9656 22.6517H62.3977C40.7598 22.6517 23.2188 40.2409 23.2188 61.9381V90.5844C23.2188 112.282 40.7598 129.871 62.3977 129.871H90.9656C112.604 129.871 130.145 112.282 130.145 90.5844V61.9381C130.145 40.2409 112.604 22.6517 90.9656 22.6517Z" fill="#797979"/>
<path opacity="0.27" d="M90.5008 22.1823H61.9328C40.2949 22.1823 22.7539 39.7714 22.7539 61.4687V90.115C22.7539 111.812 40.2949 129.401 61.9328 129.401H90.5008C112.139 129.401 129.68 111.812 129.68 90.115V61.4687C129.68 39.7714 112.139 22.1823 90.5008 22.1823Z" fill="#777777"/>
<path opacity="0.27" d="M90.032 21.7127H61.4641C39.8262 21.7127 22.2852 39.3018 22.2852 60.9991V89.6454C22.2852 111.343 39.8262 128.932 61.4641 128.932H90.032C111.67 128.932 129.211 111.343 129.211 89.6454V60.9991C129.211 39.3018 111.67 21.7127 90.032 21.7127Z" fill="#747474"/>
<path opacity="0.28" d="M89.5633 21.2432H60.9954C39.3574 21.2432 21.8164 38.8323 21.8164 60.5296V89.1759C21.8164 110.873 39.3574 128.462 60.9954 128.462H89.5633C111.201 128.462 128.742 110.873 128.742 89.1759V60.5296C128.742 38.8323 111.201 21.2432 89.5633 21.2432Z" fill="#727272"/>
<path opacity="0.28" d="M89.0984 20.7763H60.5305C38.8926 20.7763 21.3516 38.3654 21.3516 60.0627V88.709C21.3516 110.406 38.8926 127.995 60.5305 127.995H89.0984C110.736 127.995 128.277 110.406 128.277 88.709V60.0627C128.277 38.3654 110.736 20.7763 89.0984 20.7763Z" fill="#6F6F6F"/>
<path opacity="0.29" d="M88.6297 20.3067H60.0618C38.4238 20.3067 20.8828 37.8959 20.8828 59.5931V88.2394C20.8828 109.937 38.4238 127.526 60.0618 127.526H88.6297C110.268 127.526 127.809 109.937 127.809 88.2394V59.5931C127.809 37.8959 110.268 20.3067 88.6297 20.3067Z" fill="#6D6D6D"/>
<path opacity="0.29" d="M88.1609 19.8373H59.593C37.9551 19.8373 20.4141 37.4264 20.4141 59.1237V87.77C20.4141 109.467 37.9551 127.056 59.593 127.056H88.1609C109.799 127.056 127.34 109.467 127.34 87.77V59.1237C127.34 37.4264 109.799 19.8373 88.1609 19.8373Z" fill="#6A6A6A"/>
<path opacity="0.3" d="M87.6922 19.3702H59.1243C37.4863 19.3702 19.9453 36.9594 19.9453 58.6566V87.3029C19.9453 109 37.4863 126.589 59.1243 126.589H87.6922C109.33 126.589 126.871 109 126.871 87.3029V58.6566C126.871 36.9594 109.33 19.3702 87.6922 19.3702Z" fill="#686868"/>
<path opacity="0.3" d="M87.2273 18.9008H58.6594C37.0215 18.9008 19.4805 36.4899 19.4805 58.1872V86.8335C19.4805 108.531 37.0215 126.12 58.6594 126.12H87.2273C108.865 126.12 126.406 108.531 126.406 86.8335V58.1872C126.406 36.4899 108.865 18.9008 87.2273 18.9008Z" fill="#656565"/>
<path opacity="0.31" d="M86.7586 18.4313H58.1907C36.5527 18.4313 19.0117 36.0205 19.0117 57.7177V86.364C19.0117 108.061 36.5527 125.65 58.1907 125.65H86.7586C108.397 125.65 125.938 108.061 125.938 86.364V57.7177C125.938 36.0205 108.397 18.4313 86.7586 18.4313Z" fill="#626262"/>
<path opacity="0.31" d="M86.2937 17.9643H57.7258C36.0879 17.9643 18.5469 35.5534 18.5469 57.2507V85.897C18.5469 107.594 36.0879 125.183 57.7258 125.183H86.2937C107.932 125.183 125.473 107.594 125.473 85.897V57.2507C125.473 35.5534 107.932 17.9643 86.2937 17.9643Z" fill="#606060"/>
<path opacity="0.32" d="M85.825 17.4948H57.2571C35.6191 17.4948 18.0781 35.0839 18.0781 56.7812V85.4275C18.0781 107.125 35.6191 124.714 57.2571 124.714H85.825C107.463 124.714 125.004 107.125 125.004 85.4275V56.7812C125.004 35.0839 107.463 17.4948 85.825 17.4948Z" fill="#5D5D5D"/>
<path opacity="0.32" d="M85.3562 17.0253H56.7883C35.1504 17.0253 17.6094 34.6144 17.6094 56.3117V84.9579C17.6094 106.655 35.1504 124.244 56.7883 124.244H85.3562C106.994 124.244 124.535 106.655 124.535 84.9579V56.3117C124.535 34.6144 106.994 17.0253 85.3562 17.0253Z" fill="#5B5B5B"/>
<path opacity="0.33" d="M84.8875 16.5558H56.3196C34.6816 16.5558 17.1406 34.1449 17.1406 55.8422V84.4885C17.1406 106.186 34.6816 123.775 56.3196 123.775H84.8875C106.525 123.775 124.066 106.186 124.066 84.4885V55.8422C124.066 34.1449 106.525 16.5558 84.8875 16.5558Z" fill="#585858"/>
<path opacity="0.33" d="M84.4226 16.0888H55.8547C34.2168 16.0888 16.6758 33.6779 16.6758 55.3752V84.0215C16.6758 105.719 34.2168 123.308 55.8547 123.308H84.4226C106.061 123.308 123.602 105.719 123.602 84.0215V55.3752C123.602 33.6779 106.061 16.0888 84.4226 16.0888Z" fill="#565656"/>
<path opacity="0.34" d="M83.9539 15.6193H55.386C33.748 15.6193 16.207 33.2084 16.207 54.9057V83.552C16.207 105.249 33.748 122.838 55.386 122.838H83.9539C105.592 122.838 123.133 105.249 123.133 83.552V54.9057C123.133 33.2084 105.592 15.6193 83.9539 15.6193Z" fill="#535353"/>
<path opacity="0.34" d="M83.4851 15.1498H54.9172C33.2793 15.1498 15.7383 32.739 15.7383 54.4362V83.0825C15.7383 104.78 33.2793 122.369 54.9172 122.369H83.4851C105.123 122.369 122.664 104.78 122.664 83.0825V54.4362C122.664 32.739 105.123 15.1498 83.4851 15.1498Z" fill="#515151"/>
<path opacity="0.35" d="M83.0203 14.6828H54.4524C32.8144 14.6828 15.2734 32.2719 15.2734 53.9692V82.6155C15.2734 104.313 32.8144 121.902 54.4524 121.902H83.0203C104.658 121.902 122.199 104.313 122.199 82.6155V53.9692C122.199 32.2719 104.658 14.6828 83.0203 14.6828Z" fill="#4E4E4E"/>
<path opacity="0.35" d="M82.5516 14.2133H53.9836C32.3457 14.2133 14.8047 31.8024 14.8047 53.4997V82.146C14.8047 103.843 32.3457 121.432 53.9836 121.432H82.5516C104.189 121.432 121.73 103.843 121.73 82.146V53.4997C121.73 31.8024 104.189 14.2133 82.5516 14.2133Z" fill="#4C4C4C"/>
<path opacity="0.36" d="M82.0828 13.7438H53.5149C31.8769 13.7438 14.3359 31.333 14.3359 53.0302V81.6765C14.3359 103.374 31.8769 120.963 53.5149 120.963H82.0828C103.721 120.963 121.262 103.374 121.262 81.6765V53.0302C121.262 31.333 103.721 13.7438 82.0828 13.7438Z" fill="#494949"/>
<path opacity="0.36" d="M81.618 13.2768H53.05C31.4121 13.2768 13.8711 30.8659 13.8711 52.5632V81.2095C13.8711 102.907 31.4121 120.496 53.05 120.496H81.618C103.256 120.496 120.797 102.907 120.797 81.2095V52.5632C120.797 30.8659 103.256 13.2768 81.618 13.2768Z" fill="#474747"/>
<path opacity="0.37" d="M81.1492 12.8073H52.5813C30.9434 12.8073 13.4023 30.3964 13.4023 52.0936V80.7399C13.4023 102.437 30.9434 120.026 52.5813 120.026H81.1492C102.787 120.026 120.328 102.437 120.328 80.7399V52.0936C120.328 30.3964 102.787 12.8073 81.1492 12.8073Z" fill="#444444"/>
<path opacity="0.37" d="M80.6805 12.3377H52.1125C30.4746 12.3377 12.9336 29.9269 12.9336 51.6241V80.2704C12.9336 101.968 30.4746 119.557 52.1125 119.557H80.6805C102.318 119.557 119.859 101.968 119.859 80.2704V51.6241C119.859 29.9269 102.318 12.3377 80.6805 12.3377Z" fill="#424242"/>
<path opacity="0.38" d="M80.2117 11.8683H51.6438C30.0059 11.8683 12.4648 29.4575 12.4648 51.1547V79.801C12.4648 101.498 30.0059 119.087 51.6438 119.087H80.2117C101.85 119.087 119.391 101.498 119.391 79.801V51.1547C119.391 29.4575 101.85 11.8683 80.2117 11.8683Z" fill="#3F3F3F"/>
<path opacity="0.38" d="M79.7469 11.4014H51.1789C29.541 11.4014 12 28.9905 12 50.6878V79.334C12 101.031 29.541 118.62 51.1789 118.62H79.7469C101.385 118.62 118.926 101.031 118.926 79.334V50.6878C118.926 28.9905 101.385 11.4014 79.7469 11.4014Z" fill="#3D3D3D"/>
<path opacity="0.39" d="M79.2781 10.9318H50.7102C29.0723 10.9318 11.5312 28.5209 11.5312 50.2182V78.8645C11.5312 100.562 29.0723 118.151 50.7102 118.151H79.2781C100.916 118.151 118.457 100.562 118.457 78.8645V50.2182C118.457 28.5209 100.916 10.9318 79.2781 10.9318Z" fill="#3A3A3A"/>
<path opacity="0.39" d="M78.8094 10.4624H50.2414C28.6035 10.4624 11.0625 28.0515 11.0625 49.7488V78.3951C11.0625 100.092 28.6035 117.681 50.2414 117.681H78.8094C100.447 117.681 117.988 100.092 117.988 78.3951V49.7488C117.988 28.0515 100.447 10.4624 78.8094 10.4624Z" fill="#383838"/>
<path opacity="0.4" d="M78.3445 9.99536H49.7766C28.1387 9.99536 10.5977 27.5845 10.5977 49.2818V77.928C10.5977 99.6253 28.1387 117.214 49.7766 117.214H78.3445C99.9825 117.214 117.523 99.6253 117.523 77.928V49.2818C117.523 27.5845 99.9825 9.99536 78.3445 9.99536Z" fill="#353535"/>
<path opacity="0.4" d="M77.8758 9.52576H49.3078C27.6699 9.52576 10.1289 27.1149 10.1289 48.8121V77.4584C10.1289 99.1557 27.6699 116.745 49.3078 116.745H77.8758C99.5137 116.745 117.055 99.1557 117.055 77.4584V48.8121C117.055 27.1149 99.5137 9.52576 77.8758 9.52576Z" fill="#323232"/>
<path opacity="0.41" d="M77.407 9.05637H48.8391C27.2012 9.05637 9.66016 26.6455 9.66016 48.3428V76.989C9.66016 98.6863 27.2012 116.275 48.8391 116.275H77.407C99.045 116.275 116.586 98.6863 116.586 76.989V48.3428C116.586 26.6455 99.045 9.05637 77.407 9.05637Z" fill="#303030"/>
<path opacity="0.41" d="M76.9422 8.58939H48.3743C26.7363 8.58939 9.19531 26.1785 9.19531 47.8758V76.522C9.19531 98.2193 26.7363 115.808 48.3743 115.808H76.9422C98.5801 115.808 116.121 98.2193 116.121 76.522V47.8758C116.121 26.1785 98.5801 8.58939 76.9422 8.58939Z" fill="#2D2D2D"/>
<path opacity="0.42" d="M76.4734 8.11987H47.9055C26.2676 8.11987 8.72656 25.709 8.72656 47.4063V76.0525C8.72656 97.7498 26.2676 115.339 47.9055 115.339H76.4734C98.1114 115.339 115.652 97.7498 115.652 76.0525V47.4063C115.652 25.709 98.1114 8.11987 76.4734 8.11987Z" fill="#2B2B2B"/>
<path opacity="0.42" d="M76.0086 7.6503H47.4407C25.8027 7.6503 8.26172 25.2394 8.26172 46.9367V75.583C8.26172 97.2803 25.8027 114.869 47.4407 114.869H76.0086C97.6465 114.869 115.188 97.2803 115.188 75.583V46.9367C115.188 25.2394 97.6465 7.6503 76.0086 7.6503Z" fill="#282828"/>
<path opacity="0.43" d="M75.5398 7.18079H46.9719C25.334 7.18079 7.79297 24.7699 7.79297 46.4672V75.1135C7.79297 96.8107 25.334 114.4 46.9719 114.4H75.5398C97.1778 114.4 114.719 96.8107 114.719 75.1135V46.4672C114.719 24.7699 97.1778 7.18079 75.5398 7.18079Z" fill="#262626"/>
<path opacity="0.43" d="M75.075 6.71387H46.5071C24.8691 6.71387 7.32812 24.303 7.32812 46.0003V74.6465C7.32812 96.3438 24.8691 113.933 46.5071 113.933H75.075C96.7129 113.933 114.254 96.3438 114.254 74.6465V46.0003C114.254 24.303 96.7129 6.71387 75.075 6.71387Z" fill="#232323"/>
<path opacity="0.44" d="M74.6062 6.24438H46.0383C24.4004 6.24438 6.85938 23.8335 6.85938 45.5308V74.1771C6.85938 95.8743 24.4004 113.463 46.0383 113.463H74.6062C96.2442 113.463 113.785 95.8743 113.785 74.1771V45.5308C113.785 23.8335 96.2442 6.24438 74.6062 6.24438Z" fill="#212121"/>
<path opacity="0.44" d="M74.1375 5.77493H45.5696C23.9316 5.77493 6.39062 23.364 6.39062 45.0613V73.7076C6.39062 95.4049 23.9316 112.994 45.5696 112.994H74.1375C95.7754 112.994 113.316 95.4049 113.316 73.7076V45.0613C113.316 23.364 95.7754 5.77493 74.1375 5.77493Z" fill="#1E1E1E"/>
<path opacity="0.45" d="M73.6687 5.30786H45.1008C23.4629 5.30786 5.92188 22.897 5.92188 44.5943V73.2405C5.92188 94.9378 23.4629 112.527 45.1008 112.527H73.6687C95.3067 112.527 112.848 94.9378 112.848 73.2405V44.5943C112.848 22.897 95.3067 5.30786 73.6687 5.30786Z" fill="#1C1C1C"/>
<path opacity="0.45" d="M73.2 4.83844H44.6321C22.9941 4.83844 5.45312 22.4276 5.45312 44.1248V72.7711C5.45312 94.4684 22.9941 112.058 44.6321 112.058H73.2C94.8379 112.058 112.379 94.4684 112.379 72.7711V44.1248C112.379 22.4276 94.8379 4.83844 73.2 4.83844Z" fill="#191919"/>
<path opacity="0.46" d="M72.7351 4.3688H44.1672C22.5293 4.3688 4.98828 21.9579 4.98828 43.6552V72.3015C4.98828 93.9988 22.5293 111.588 44.1672 111.588H72.7351C94.3731 111.588 111.914 93.9988 111.914 72.3015V43.6552C111.914 21.9579 94.3731 4.3688 72.7351 4.3688Z" fill="#171717"/>
<path opacity="0.46" d="M72.2664 3.89935H43.6985C22.0605 3.89935 4.51953 21.4885 4.51953 43.1857V71.832C4.51953 93.5293 22.0605 111.118 43.6985 111.118H72.2664C93.9043 111.118 111.445 93.5293 111.445 71.832V43.1857C111.445 21.4885 93.9043 3.89935 72.2664 3.89935Z" fill="#141414"/>
<path opacity="0.47" d="M71.8016 3.43237H43.2336C21.5957 3.43237 4.05469 21.0215 4.05469 42.7188V71.365C4.05469 93.0623 21.5957 110.651 43.2336 110.651H71.8016C93.4395 110.651 110.98 93.0623 110.98 71.365V42.7188C110.98 21.0215 93.4395 3.43237 71.8016 3.43237Z" fill="#121212"/>
<path opacity="0.47" d="M71.3328 2.96289H42.7649C21.1269 2.96289 3.58594 20.552 3.58594 42.2493V70.8956C3.58594 92.5928 21.1269 110.182 42.7649 110.182H71.3328C92.9707 110.182 110.512 92.5928 110.512 70.8956V42.2493C110.512 20.552 92.9707 2.96289 71.3328 2.96289Z" fill="#0F0F0F"/>
<path opacity="0.48" d="M70.8641 2.49335H42.2961C20.6582 2.49335 3.11719 20.0825 3.11719 41.7797V70.426C3.11719 92.1233 20.6582 109.712 42.2961 109.712H70.8641C92.502 109.712 110.043 92.1233 110.043 70.426V41.7797C110.043 20.0825 92.502 2.49335 70.8641 2.49335Z" fill="#0D0D0D"/>
<path opacity="0.48" d="M70.3992 2.0264H41.8313C20.1934 2.0264 2.65234 19.6155 2.65234 41.3128V69.9591C2.65234 91.6563 20.1934 109.245 41.8313 109.245H70.3992C92.0371 109.245 109.578 91.6563 109.578 69.9591V41.3128C109.578 19.6155 92.0371 2.0264 70.3992 2.0264Z" fill="#0A0A0A"/>
<path opacity="0.49" d="M69.9305 1.55688H41.3625C19.7246 1.55688 2.18359 19.146 2.18359 40.8433V69.4896C2.18359 91.1868 19.7246 108.776 41.3625 108.776H69.9305C91.5684 108.776 109.109 91.1868 109.109 69.4896V40.8433C109.109 19.146 91.5684 1.55688 69.9305 1.55688Z" fill="#080808"/>
<path opacity="0.49" d="M69.4617 1.0874H40.8938C19.2559 1.0874 1.71484 18.6765 1.71484 40.3738V69.0201C1.71484 90.7174 19.2559 108.306 40.8938 108.306H69.4617C91.0996 108.306 108.641 90.7174 108.641 69.0201V40.3738C108.641 18.6765 91.0996 1.0874 69.4617 1.0874Z" fill="#050505"/>
<path opacity="0.5" d="M68.9969 0.620361H40.4289C18.791 0.620361 1.25 18.2095 1.25 39.9068V68.553C1.25 90.2503 18.791 107.839 40.4289 107.839H68.9969C90.6348 107.839 108.176 90.2503 108.176 68.553V39.9068C108.176 18.2095 90.6348 0.620361 68.9969 0.620361Z" fill="#030303"/>
<path opacity="0.5" d="M68.5281 0.150879H39.9602C18.3223 0.150879 0.78125 17.74 0.78125 39.4373V68.0835C0.78125 89.7808 18.3223 107.37 39.9602 107.37H68.5281C90.166 107.37 107.707 89.7808 107.707 68.0835V39.4373C107.707 17.74 90.166 0.150879 68.5281 0.150879Z" fill="black"/>
</g>
</svg>
