<svg width="471" height="144" viewBox="0 0 471 144" fill="none" xmlns="http://www.w3.org/2000/svg">
<path d="M131.181 70.8619L130.505 70.1245L131.181 70.8619ZM260.199 96.9987L259.245 96.699L260.199 96.9987ZM238.115 34.2706L237.626 33.3983L238.115 34.2706ZM375.851 80.1551L376.847 80.2443L376.836 80.3656L376.797 80.4808L375.851 80.1551ZM470.198 79.1749C470.739 79.2842 471.09 79.8117 470.98 80.3531L469.198 89.1749C469.089 89.7162 468.561 90.0664 468.02 89.9571C467.479 89.8477 467.129 89.3203 467.238 88.7789L468.822 80.9373L460.98 79.3533C460.439 79.244 460.089 78.7165 460.198 78.1751C460.307 77.6338 460.835 77.2836 461.376 77.3929L470.198 79.1749ZM1.81686 113.265C2.36933 114.048 2.94582 114.795 3.54582 115.506L2.01694 116.795C1.37925 116.039 0.767861 115.247 0.183142 114.419L1.81686 113.265ZM7.55717 119.461C9.01687 120.651 10.5786 121.688 12.2392 122.575L11.2975 124.339C9.52363 123.392 7.85405 122.283 6.2937 121.012L7.55717 119.461ZM17.4333 124.754C19.1835 125.309 21.0219 125.73 22.9461 126.016L22.652 127.995C20.6284 127.694 18.6856 127.249 16.8282 126.66L17.4333 124.754ZM28.6162 126.463C30.4593 126.49 32.3674 126.409 34.3386 126.221L34.5287 128.212C32.4899 128.406 30.5087 128.491 28.5878 128.463L28.6162 126.463ZM39.9988 125.416C41.8275 125.075 43.7024 124.651 45.6222 124.143L46.1335 126.077C44.1689 126.596 42.2456 127.031 40.3655 127.382L39.9988 125.416ZM51.1347 122.496C52.9088 121.908 54.7167 121.253 56.557 120.533L57.2858 122.396C55.4144 123.128 53.5736 123.794 51.7645 124.395L51.1347 122.496ZM61.8942 118.301C63.6177 117.535 65.367 116.714 67.1411 115.84L68.0254 117.634C66.2286 118.519 64.4554 119.351 62.7067 120.128L61.8942 118.301ZM72.2968 113.183C73.9639 112.288 75.6511 111.347 77.3577 110.361L78.3584 112.092C76.6345 113.088 74.9292 114.039 73.2432 114.945L72.2968 113.183ZM82.335 107.389C83.953 106.393 85.5871 105.357 87.2368 104.283L88.3284 105.958C86.6649 107.042 85.0165 108.086 83.3838 109.092L82.335 107.389ZM92.0601 101.06C93.6296 99.9848 95.2122 98.8759 96.8076 97.7328L97.9725 99.3586C96.3658 100.51 94.7716 101.627 93.1901 102.71L92.0601 101.06ZM101.488 94.3089C103.016 93.168 104.555 91.9967 106.105 90.795L107.33 92.3755C105.771 93.5845 104.222 94.7632 102.684 95.9115L101.488 94.3089ZM110.664 87.1969C112.156 85.9984 113.658 84.7726 115.168 83.5193L116.445 85.0585C114.927 86.3185 113.417 87.5511 111.916 88.7563L110.664 87.1969ZM119.623 79.766C121.077 78.5221 122.539 77.2534 124.009 75.9599L125.33 77.4612C123.854 78.7608 122.384 80.0357 120.923 81.2858L119.623 79.766ZM128.337 72.0983C129.058 71.4462 129.781 70.7883 130.505 70.1245L131.856 71.5992C131.129 72.2659 130.403 72.9268 129.678 73.5817L128.337 72.0983ZM130.505 70.1245C131.246 69.4463 131.987 68.7742 132.728 68.1084L134.064 69.5965C133.328 70.2579 132.592 70.9255 131.856 71.5992L130.505 70.1245ZM137.183 64.1883C138.704 62.8773 140.226 61.5927 141.749 60.3346L143.023 61.8763C141.511 63.1255 140 64.4012 138.489 65.7031L137.183 64.1883ZM146.369 56.5991C147.94 55.3573 149.509 54.1441 151.078 52.9598L152.283 54.5559C150.727 55.7312 149.169 56.9353 147.61 58.1679L146.369 56.5991ZM155.884 49.4172C157.509 48.2486 159.131 47.1116 160.749 46.0064L161.877 47.658C160.272 48.7539 158.664 49.8817 157.052 51.0409L155.884 49.4172ZM165.707 42.7121C167.401 41.6176 169.089 40.5588 170.771 39.536L171.81 41.2448C170.144 42.258 168.471 43.3072 166.792 44.392L165.707 42.7121ZM175.904 36.514C177.648 35.5212 179.383 34.5683 181.107 33.6558L182.043 35.4236C180.337 36.3262 178.62 37.2692 176.893 38.2521L175.904 36.514ZM186.439 30.9466C188.262 30.0592 190.071 29.2188 191.865 28.4259L192.674 30.2551C190.903 31.0378 189.116 31.8679 187.315 32.7448L186.439 30.9466ZM197.375 26.1196C199.263 25.3749 201.131 24.6855 202.976 24.0523L203.625 25.944C201.81 26.5671 199.97 27.246 198.109 27.9801L197.375 26.1196ZM208.672 22.2558C210.634 21.693 212.567 21.198 214.467 20.772L214.905 22.7236C213.045 23.1406 211.15 23.6257 209.224 24.1783L208.672 22.2558ZM220.36 19.6569C222.398 19.3454 224.392 19.1208 226.339 18.9848L226.478 20.98C224.589 21.1119 222.649 21.3302 220.662 21.6339L220.36 19.6569ZM232.375 18.8535C234.453 18.9147 236.466 19.0913 238.406 19.3861L238.106 21.3634C236.251 21.0816 234.319 20.9117 232.316 20.8527L232.375 18.8535ZM244.326 20.7256C246.308 21.3365 248.19 22.0976 249.965 23.0129L249.048 24.7904C247.385 23.9324 245.612 23.2149 243.737 22.6368L244.326 20.7256ZM255.102 26.3437C256.684 27.6147 258.136 29.0497 259.451 30.6505L257.905 31.9195C256.678 30.425 255.323 29.0873 253.849 27.9027L255.102 26.3437ZM262.856 35.7449C263.786 37.4685 264.596 39.3241 265.28 41.3124L263.389 41.9631C262.739 40.0722 261.972 38.3172 261.096 36.695L262.856 35.7449ZM266.847 47.1496C267.226 49.0429 267.511 51.0322 267.699 53.1183L265.707 53.2976C265.525 51.2784 265.25 49.3605 264.886 47.5423L266.847 47.1496ZM267.967 59.1326C267.972 61.0676 267.904 63.0744 267.76 65.1534L265.765 65.0154C265.905 62.9811 265.972 61.0221 265.967 59.1376L267.967 59.1326ZM267.164 71.1214C266.919 73.0202 266.617 74.973 266.257 76.9801L264.288 76.6266C264.643 74.6503 264.94 72.7301 265.18 70.8656L267.164 71.1214ZM265.075 82.8265C264.647 84.7352 264.171 86.6889 263.645 88.6879L261.711 88.1787C262.231 86.2027 262.701 84.2731 263.123 82.3896L265.075 82.8265ZM262.05 94.3693C261.762 95.3358 261.463 96.3122 261.154 97.2984L259.245 96.699C259.552 95.7222 259.848 94.7554 260.133 93.7987L262.05 94.3693ZM261.154 97.2984C260.833 98.3191 260.502 99.3213 260.16 100.305L258.271 99.6489C258.606 98.6842 258.931 97.701 259.245 96.699L261.154 97.2984ZM257.99 105.988C257.165 107.959 256.295 109.847 255.384 111.651L253.599 110.75C254.488 108.989 255.338 107.145 256.145 105.215L257.99 105.988ZM252.393 117.051C251.298 118.855 250.159 120.559 248.98 122.167L247.367 120.985C248.51 119.424 249.618 117.768 250.684 116.013L252.393 117.051ZM245.11 126.953C243.689 128.545 242.224 130.017 240.724 131.372L239.383 129.888C240.829 128.582 242.243 127.161 243.618 125.621L245.11 126.953ZM235.878 135.269C234.146 136.5 232.382 137.593 230.596 138.552L229.65 136.79C231.361 135.871 233.055 134.822 234.719 133.639L235.878 135.269ZM224.931 141.128C222.949 141.873 220.956 142.465 218.964 142.911L218.527 140.959C220.428 140.533 222.332 139.968 224.227 139.256L224.931 141.128ZM212.801 143.833C210.696 143.994 208.61 143.996 206.559 143.847L206.704 141.852C208.656 141.994 210.643 141.992 212.649 141.839L212.801 143.833ZM200.376 142.92C198.322 142.449 196.327 141.821 194.41 141.045L195.159 139.191C196.978 139.927 198.872 140.523 200.823 140.971L200.376 142.92ZM188.821 138.232C187.031 137.135 185.344 135.891 183.783 134.511L185.108 133.013C186.58 134.314 188.173 135.489 189.866 136.527L188.821 138.232ZM179.478 129.949C178.195 128.31 177.059 126.547 176.091 124.67L177.869 123.753C178.778 125.517 179.846 127.174 181.053 128.715L179.478 129.949ZM173.757 118.852C173.176 116.891 172.763 114.84 172.534 112.709L174.522 112.495C174.739 114.508 175.128 116.44 175.674 118.284L173.757 118.852ZM172.392 106.459C172.51 104.453 172.783 102.392 173.223 100.283L175.181 100.691C174.761 102.708 174.501 104.671 174.388 106.576L172.392 106.459ZM174.881 94.3023C175.53 92.4219 176.309 90.5102 177.224 88.5707L179.032 89.4239C178.147 91.3007 177.396 93.1455 176.772 94.9548L174.881 94.3023ZM180.134 83.0932C181.156 81.3627 182.286 79.6137 183.529 77.8484L185.164 78.9999C183.951 80.7234 182.849 82.4277 181.856 84.1104L180.134 83.0932ZM187.19 73.0105C188.44 71.4672 189.776 69.9134 191.201 68.3505L192.679 69.6983C191.279 71.2333 189.968 72.7573 188.745 74.2689L187.19 73.0105ZM195.517 63.8651C196.91 62.4897 198.374 61.1083 199.909 59.722L201.249 61.2064C199.735 62.5735 198.294 63.9344 196.923 65.2883L195.517 63.8651ZM204.635 55.6313C206.139 54.3821 207.702 53.1296 209.326 51.8745L210.549 53.457C208.943 54.6981 207.398 55.9359 205.913 57.1696L204.635 55.6313ZM214.335 48.1364C215.92 46.993 217.557 45.8481 219.247 44.7021L220.369 46.3572C218.695 47.4927 217.074 48.6266 215.505 49.7585L214.335 48.1364ZM224.473 41.2616C226.122 40.2077 227.817 39.1534 229.557 38.099L230.593 39.8095C228.866 40.8558 227.186 41.9017 225.55 42.9468L224.473 41.2616ZM234.868 34.9648C235.776 34.4426 236.695 33.9204 237.626 33.3983L238.604 35.1429C237.679 35.6614 236.766 36.1799 235.865 36.6985L234.868 34.9648ZM237.626 33.3983C238.53 32.8918 239.428 32.3915 240.321 31.8974L241.289 33.6473C240.4 34.1397 239.505 34.6382 238.604 35.1429L237.626 33.3983ZM245.617 29.0064C247.418 28.037 249.197 27.0938 250.954 26.1763L251.88 27.9492C250.13 28.8627 248.359 29.802 246.565 30.7675L245.617 29.0064ZM256.31 23.4257C258.146 22.4987 259.957 21.6011 261.744 20.7324L262.619 22.5312C260.841 23.3953 259.039 24.2885 257.211 25.2111L256.31 23.4257ZM267.144 18.1612C269.024 17.2848 270.876 16.442 272.7 15.6325L273.511 17.4605C271.699 18.2649 269.858 19.1026 267.989 19.974L267.144 18.1612ZM278.215 13.2496C280.115 12.4518 281.983 11.6919 283.819 10.9693L284.551 12.8304C282.73 13.5473 280.876 14.3015 278.989 15.0936L278.215 13.2496ZM289.503 8.81522C291.437 8.11118 293.333 7.45108 295.194 6.8343L295.823 8.73268C293.982 9.34312 292.103 9.99684 290.187 10.6945L289.503 8.81522ZM300.94 5.03204C302.946 4.44006 304.907 3.90196 306.824 3.41689L307.315 5.35573C305.425 5.83412 303.489 6.3653 301.506 6.95029L300.94 5.03204ZM312.75 2.05565C314.799 1.63528 316.793 1.28067 318.733 0.990646L319.029 2.96866C317.126 3.25307 315.168 3.60129 313.152 4.01485L312.75 2.05565ZM324.775 0.279999C326.874 0.10379 328.904 0.0113678 330.866 0.00105286L330.876 2.00102C328.97 2.01105 326.993 2.10088 324.942 2.27299L324.775 0.279999ZM336.972 0.251816C339.08 0.443039 341.097 0.742508 343.027 1.14771L342.617 3.10504C340.767 2.71672 338.826 2.42827 336.791 2.24362L336.972 0.251816ZM348.942 2.81474C350.933 3.53313 352.811 4.38538 354.579 5.36714L353.608 7.11568C351.937 6.18748 350.156 5.37918 348.263 4.69603L348.942 2.81474ZM359.707 8.81721C361.312 10.1112 362.799 11.5379 364.171 13.091L362.672 14.4151C361.372 12.9441 359.967 11.5957 358.452 10.3743L359.707 8.81721ZM367.881 18.0182C368.969 19.7141 369.958 21.516 370.852 23.4182L369.042 24.2691C368.183 22.4406 367.235 20.7158 366.197 19.0983L367.881 18.0182ZM373.14 29.0847C373.786 30.9612 374.359 32.915 374.861 34.9426L372.92 35.4238C372.43 33.4493 371.874 31.5523 371.249 29.7357L373.14 29.0847ZM376.106 40.9124C376.441 42.8652 376.723 44.8757 376.952 46.9414L374.964 47.1616C374.739 45.1329 374.463 43.1621 374.135 41.2515L376.106 40.9124ZM377.465 52.9964C377.584 54.9734 377.661 56.9946 377.698 59.058L375.698 59.0936C375.662 57.0567 375.586 55.0638 375.468 53.1167L377.465 52.9964ZM377.693 65.1154C377.657 67.097 377.587 69.1135 377.485 71.1633L375.488 71.0641C375.589 69.034 375.658 67.0383 375.694 65.0786L377.693 65.1154ZM377.101 77.1999C377.024 78.2075 376.939 79.2223 376.847 80.2443L374.855 80.0658C374.946 79.0519 375.03 78.0453 375.107 77.0463L377.101 77.1999ZM376.797 80.4808C376.473 81.4202 376.181 82.3412 375.919 83.2433L373.998 82.6864C374.269 81.7511 374.572 80.7985 374.906 79.8293L376.797 80.4808ZM374.65 88.8423C374.333 90.855 374.2 92.742 374.244 94.4974L372.245 94.5472C372.197 92.6561 372.341 90.6474 372.675 88.5311L374.65 88.8423ZM375.077 99.9955C375.637 101.838 376.47 103.46 377.566 104.855L375.993 106.091C374.733 104.486 373.789 102.639 373.164 100.576L375.077 99.9955ZM381.701 108.397C383.189 109.255 384.91 109.928 386.867 110.399L386.4 112.344C384.28 111.834 382.376 111.095 380.702 110.13L381.701 108.397ZM392.474 111.152C394.255 111.231 396.166 111.184 398.208 111.006L398.382 112.998C396.263 113.183 394.263 113.233 392.386 113.15L392.474 111.152ZM403.912 110.221C405.719 109.89 407.607 109.471 409.574 108.962L410.076 110.898C408.066 111.418 406.131 111.848 404.273 112.189L403.912 110.221ZM415.128 107.349C416.904 106.78 418.734 106.146 420.62 105.445L421.317 107.319C419.405 108.031 417.545 108.675 415.738 109.254L415.128 107.349ZM426.037 103.305C427.776 102.579 429.557 101.801 431.378 100.97L432.209 102.789C430.368 103.63 428.567 104.416 426.807 105.151L426.037 103.305ZM436.644 98.4693C438.344 97.6323 440.077 96.7513 441.842 95.8256L442.771 97.5968C440.992 98.5302 439.244 99.4189 437.527 100.264L436.644 98.4693ZM446.979 93.0544C448.647 92.1302 450.342 91.168 452.063 90.1673L453.069 91.8963C451.336 92.9038 449.629 93.8727 447.948 94.8039L446.979 93.0544ZM457.103 87.1725C458.737 86.1809 460.393 85.1561 462.071 84.0976L463.138 85.7893C461.45 86.8537 459.784 87.8846 458.141 88.8823L457.103 87.1725ZM466.97 80.953C467.791 80.4171 468.616 79.8734 469.447 79.322L470.553 80.9882C469.718 81.5424 468.888 82.0889 468.063 82.6276L466.97 80.953Z" fill="white" fill-opacity="0.2"/>
</svg>
