<svg width="46" height="45" viewBox="0 0 46 45" fill="none" xmlns="http://www.w3.org/2000/svg">
<path d="M37.0504 5.15771V24.7063C37.0504 32.512 30.7385 38.838 22.9508 38.838H22.1092C14.3224 38.838 8.00956 32.512 8.00956 24.7063V5.15771C3.11341 9.29974 3.05176e-05 15.4929 3.05176e-05 22.4178C3.05176e-05 34.8895 10.087 45.0001 22.5304 45.0001C34.9735 45.0001 45.0604 34.8895 45.0604 22.4178C45.0599 15.4929 41.947 9.29974 37.0504 5.15771Z" fill="#9C9D9B"/>
<path d="M19.8459 33.4523V0.000244141C17.458 0.286877 15.1852 0.943674 13.0859 1.91722V24.7064C13.0859 28.9091 15.9639 32.4404 19.8459 33.4523Z" fill="#9C9D9B"/>
<path d="M31.9744 24.7064V1.91722C29.8756 0.943674 27.6024 0.286877 25.2148 0.000244141V33.4523C29.0964 32.4404 31.9744 28.9091 31.9744 24.7064Z" fill="#9C9D9B"/>
</svg>
