<svg width="59" height="43" viewBox="0 0 59 43" fill="none" xmlns="http://www.w3.org/2000/svg">
<path d="M29.2306 27.5035C32.5454 27.5035 35.2327 24.8145 35.2327 21.4975C35.2327 18.1804 32.5454 15.4915 29.2306 15.4915C25.9157 15.4915 23.2285 18.1804 23.2285 21.4975C23.2285 24.8145 25.9157 27.5035 29.2306 27.5035Z" fill="#9C9D9B"/>
<path d="M58.3636 12.3045C57.5669 9.77765 53.4664 7.53936 46.0116 8.05699C42.0733 3.14575 36.0262 0.000244141 29.2436 0.000244141C18.074 0.000244141 8.89607 8.52954 7.85788 19.436C2.32984 23.4454 -0.665796 28.1872 0.125469 30.6942C0.875277 33.0713 5.62106 34.6982 12.0233 34.3573C15.9417 39.604 22.1962 43.0002 29.2454 43.0002C40.3105 43.0002 49.42 34.6315 50.6006 23.8747C57.8337 18.316 59.2847 15.2264 58.3636 12.3045ZM29.2436 39.3173C24.1987 39.3173 19.6457 37.2142 16.4068 33.8397C20.7813 33.0551 25.6027 31.394 30.3107 28.5659C21.3779 31.1487 13.4328 30.4489 12.2684 26.8885C12.2918 26.9607 12.3171 27.0328 12.3405 27.105C12.3135 27.0256 12.2846 26.9481 12.2594 26.8669C12.2612 26.8741 12.2648 26.8795 12.2666 26.8867C12.263 26.8723 12.2576 26.8579 12.2522 26.8453C12.254 26.8489 12.254 26.8507 12.254 26.8543C11.7223 25.1625 11.4339 23.3643 11.4339 21.4975C11.4339 11.6552 19.406 3.67781 29.2418 3.67781C34.0543 3.67781 38.4198 5.59145 41.6227 8.69547C37.1347 9.70911 31.2425 11.9546 27.5548 14.6131C36.7381 11.8157 45.0293 12.4614 46.2189 16.1065C46.1882 16.0073 46.154 15.9099 46.1215 15.8125C46.1576 15.9172 46.1936 16.02 46.2279 16.1264C46.2261 16.1192 46.2225 16.1137 46.2207 16.1065C46.2243 16.121 46.2297 16.1336 46.2351 16.148C46.2333 16.1444 46.2333 16.1426 46.2333 16.139C46.765 17.8308 47.0534 19.629 47.0534 21.4957C47.0516 31.3399 39.0795 39.3173 29.2436 39.3173Z" fill="#9C9D9B"/>
</svg>
