<svg width="780" height="88" viewBox="0 0 780 88" fill="none" xmlns="http://www.w3.org/2000/svg">
<g opacity="0.2" filter="url(#filter0_f_2395_723)">
<path d="M754.117 35.3095L754.251 36.0338L754.785 35.5267L765.199 25.6455L759.019 38.6027L758.702 39.2676L759.432 39.1715L773.665 37.2982L761.049 44.1485L760.402 44.5L761.049 44.8515L773.665 51.7018L759.432 49.8285L758.702 49.7324L759.019 50.3973L765.199 63.3545L754.785 53.4733L754.251 52.9662L754.117 53.6905L751.5 67.8055L748.883 53.6905L748.749 52.9662L748.215 53.4733L737.801 63.3545L743.981 50.3973L744.298 49.7324L743.568 49.8285L729.335 51.7018L741.951 44.8515L742.598 44.5L741.951 44.1485L729.335 37.2982L743.568 39.1715L744.298 39.2676L743.981 38.6027L737.801 25.6455L748.215 35.5267L748.749 36.0338L748.883 35.3095L751.5 21.1945L754.117 35.3095Z" stroke="url(#paint0_linear_2395_723)" stroke-width="0.8"/>
</g>
<g opacity="0.15">
<path d="M48.2097 43.6667C48.2097 55.656 45.4982 66.4855 41.1396 74.3001C36.7719 82.1312 30.8172 86.8333 24.3548 86.8333C17.8925 86.8333 11.9378 82.1312 7.57004 74.3001C3.2115 66.4855 0.5 55.656 0.5 43.6667C0.5 31.6774 3.2115 20.8478 7.57004 13.0332C11.9378 5.2021 17.8925 0.5 24.3548 0.5C30.8172 0.5 36.7719 5.2021 41.1396 13.0332C45.4982 20.8478 48.2097 31.6774 48.2097 43.6667Z" stroke="url(#paint1_linear_2395_723)"/>
<path d="M68.9206 43.6667C68.9206 55.656 66.2091 66.4855 61.8506 74.3001C57.4828 82.1312 51.5281 86.8333 45.0658 86.8333C38.6034 86.8333 32.6487 82.1312 28.281 74.3001C23.9224 66.4855 21.2109 55.656 21.2109 43.6667C21.2109 31.6774 23.9224 20.8478 28.281 13.0332C32.6487 5.2021 38.6034 0.5 45.0658 0.5C51.5281 0.5 57.4828 5.2021 61.8506 13.0332C66.2091 20.8478 68.9206 31.6774 68.9206 43.6667Z" stroke="url(#paint2_linear_2395_723)"/>
<path d="M89.6296 43.6667C89.6296 55.656 86.9181 66.4855 82.5596 74.3001C78.1918 82.1312 72.2371 86.8333 65.7748 86.8333C59.3124 86.8333 53.3577 82.1312 48.99 74.3001C44.6314 66.4855 41.9199 55.656 41.9199 43.6667C41.9199 31.6774 44.6314 20.8478 48.99 13.0332C53.3577 5.2021 59.3124 0.5 65.7748 0.5C72.2371 0.5 78.1918 5.2021 82.5596 13.0332C86.9181 20.8478 89.6296 31.6774 89.6296 43.6667Z" stroke="url(#paint3_linear_2395_723)"/>
<path d="M110.339 43.6667C110.339 55.656 107.627 66.4855 103.269 74.3001C98.9008 82.1312 92.9461 86.8333 86.4837 86.8333C80.0214 86.8333 74.0667 82.1312 69.6989 74.3001C65.3404 66.4855 62.6289 55.656 62.6289 43.6667C62.6289 31.6774 65.3404 20.8478 69.6989 13.0332C74.0667 5.2021 80.0214 0.5 86.4837 0.5C92.9461 0.5 98.9008 5.2021 103.269 13.0332C107.627 20.8478 110.339 31.6774 110.339 43.6667Z" stroke="url(#paint4_linear_2395_723)"/>
<path d="M131.05 43.6667C131.05 55.656 128.338 66.4855 123.979 74.3001C119.612 82.1312 113.657 86.8333 107.195 86.8333C100.732 86.8333 94.7776 82.1312 90.4099 74.3001C86.0513 66.4855 83.3398 55.656 83.3398 43.6667C83.3398 31.6774 86.0513 20.8478 90.4099 13.0332C94.7776 5.2021 100.732 0.5 107.195 0.5C113.657 0.5 119.612 5.2021 123.979 13.0332C128.338 20.8478 131.05 31.6774 131.05 43.6667Z" stroke="url(#paint5_linear_2395_723)"/>
<path d="M151.759 43.6667C151.759 55.656 149.047 66.4855 144.688 74.3001C140.321 82.1312 134.366 86.8333 127.904 86.8333C121.441 86.8333 115.487 82.1312 111.119 74.3001C106.76 66.4855 104.049 55.656 104.049 43.6667C104.049 31.6774 106.76 20.8478 111.119 13.0332C115.487 5.2021 121.441 0.5 127.904 0.5C134.366 0.5 140.321 5.2021 144.688 13.0332C149.047 20.8478 151.759 31.6774 151.759 43.6667Z" stroke="url(#paint6_linear_2395_723)"/>
<path d="M172.467 43.6667C172.467 55.656 169.756 66.4855 165.397 74.3001C161.03 82.1312 155.075 86.8333 148.613 86.8333C142.15 86.8333 136.196 82.1312 131.828 74.3001C127.469 66.4855 124.758 55.656 124.758 43.6667C124.758 31.6774 127.469 20.8478 131.828 13.0332C136.196 5.2021 142.15 0.5 148.613 0.5C155.075 0.5 161.03 5.2021 165.397 13.0332C169.756 20.8478 172.467 31.6774 172.467 43.6667Z" stroke="url(#paint7_linear_2395_723)"/>
<path d="M193.178 43.6667C193.178 55.656 190.467 66.4855 186.108 74.3001C181.741 82.1312 175.786 86.8333 169.324 86.8333C162.861 86.8333 156.907 82.1312 152.539 74.3001C148.18 66.4855 145.469 55.656 145.469 43.6667C145.469 31.6774 148.18 20.8478 152.539 13.0332C156.907 5.2021 162.861 0.5 169.324 0.5C175.786 0.5 181.741 5.2021 186.108 13.0332C190.467 20.8478 193.178 31.6774 193.178 43.6667Z" stroke="url(#paint8_linear_2395_723)"/>
</g>
<path d="M178 43.5L173 41.1132L173 46.8868L178 44.5L178 43.5ZM749.333 43.9999C749.333 45.4727 750.527 46.6666 752 46.6666C753.473 46.6666 754.667 45.4727 754.667 43.9999C754.667 42.5272 753.473 41.3333 752 41.3333C750.527 41.3333 749.333 42.5272 749.333 43.9999ZM177.5 44.5L752 44.4999L752 43.4999L177.5 43.5L177.5 44.5Z" fill="url(#paint9_linear_2395_723)" fill-opacity="0.1"/>
<defs>
<filter id="filter0_f_2395_723" x="723.248" y="15" width="56.5039" height="59" filterUnits="userSpaceOnUse" color-interpolation-filters="sRGB">
<feFlood flood-opacity="0" result="BackgroundImageFix"/>
<feBlend mode="normal" in="SourceGraphic" in2="BackgroundImageFix" result="shape"/>
<feGaussianBlur stdDeviation="2" result="effect1_foregroundBlur_2395_723"/>
</filter>
<linearGradient id="paint0_linear_2395_723" x1="722.029" y1="-83.7286" x2="827.142" y2="-49.5099" gradientUnits="userSpaceOnUse">
<stop stop-color="#159F36"/>
<stop offset="1" stop-color="#CBDA1B"/>
</linearGradient>
<linearGradient id="paint1_linear_2395_723" x1="-3.79276" y1="-175.914" x2="103.696" y2="-156.398" gradientUnits="userSpaceOnUse">
<stop stop-color="#159F36"/>
<stop offset="1" stop-color="#CBDA1B"/>
</linearGradient>
<linearGradient id="paint2_linear_2395_723" x1="16.9182" y1="-175.914" x2="124.407" y2="-156.398" gradientUnits="userSpaceOnUse">
<stop stop-color="#159F36"/>
<stop offset="1" stop-color="#CBDA1B"/>
</linearGradient>
<linearGradient id="paint3_linear_2395_723" x1="37.6272" y1="-175.914" x2="145.116" y2="-156.398" gradientUnits="userSpaceOnUse">
<stop stop-color="#159F36"/>
<stop offset="1" stop-color="#CBDA1B"/>
</linearGradient>
<linearGradient id="paint4_linear_2395_723" x1="58.3361" y1="-175.914" x2="165.825" y2="-156.398" gradientUnits="userSpaceOnUse">
<stop stop-color="#159F36"/>
<stop offset="1" stop-color="#CBDA1B"/>
</linearGradient>
<linearGradient id="paint5_linear_2395_723" x1="79.0471" y1="-175.914" x2="186.536" y2="-156.398" gradientUnits="userSpaceOnUse">
<stop stop-color="#159F36"/>
<stop offset="1" stop-color="#CBDA1B"/>
</linearGradient>
<linearGradient id="paint6_linear_2395_723" x1="99.7561" y1="-175.914" x2="207.245" y2="-156.398" gradientUnits="userSpaceOnUse">
<stop stop-color="#159F36"/>
<stop offset="1" stop-color="#CBDA1B"/>
</linearGradient>
<linearGradient id="paint7_linear_2395_723" x1="120.465" y1="-175.914" x2="227.954" y2="-156.398" gradientUnits="userSpaceOnUse">
<stop stop-color="#159F36"/>
<stop offset="1" stop-color="#CBDA1B"/>
</linearGradient>
<linearGradient id="paint8_linear_2395_723" x1="141.176" y1="-175.914" x2="248.664" y2="-156.398" gradientUnits="userSpaceOnUse">
<stop stop-color="#159F36"/>
<stop offset="1" stop-color="#CBDA1B"/>
</linearGradient>
<linearGradient id="paint9_linear_2395_723" x1="173" y1="43.277" x2="173.049" y2="50.252" gradientUnits="userSpaceOnUse">
<stop stop-color="#29CA50"/>
<stop offset="1" stop-color="#9DF812"/>
</linearGradient>
</defs>
</svg>
