<svg width="198" height="37" viewBox="0 0 198 37" fill="none" xmlns="http://www.w3.org/2000/svg">
<path d="M3.432 36C2.664 36 2.04 35.776 1.56 35.328C1.112 34.848 0.888 34.256 0.888 33.552V4.848C0.888 4.144 1.128 3.568 1.608 3.12C2.088 2.64 2.664 2.4 3.336 2.4H19.56C20.264 2.4 20.84 2.624 21.288 3.072C21.768 3.52 22.008 4.08 22.008 4.752C22.008 5.36 21.768 5.888 21.288 6.336C20.84 6.784 20.264 7.008 19.56 7.008H5.544L5.88 6.528V17.232L5.592 16.656H17.4C18.104 16.656 18.68 16.88 19.128 17.328C19.608 17.776 19.848 18.336 19.848 19.008C19.848 19.616 19.608 20.144 19.128 20.592C18.68 21.04 18.104 21.264 17.4 21.264H5.496L5.88 20.88V33.552C5.88 34.256 5.64 34.848 5.16 35.328C4.68 35.776 4.104 36 3.432 36ZM47.1574 10.368C47.8614 10.368 48.4374 10.608 48.8854 11.088C49.3334 11.536 49.5574 12.112 49.5574 12.816V33.552C49.5574 34.256 49.3334 34.848 48.8854 35.328C48.4374 35.776 47.8614 36 47.1574 36C46.4854 36 45.9094 35.776 45.4294 35.328C44.9814 34.848 44.7574 34.256 44.7574 33.552V30.096L45.7654 30.24C45.7654 30.816 45.5254 31.456 45.0454 32.16C44.5974 32.864 43.9734 33.552 43.1734 34.224C42.3734 34.864 41.4294 35.408 40.3414 35.856C39.2534 36.272 38.0854 36.48 36.8374 36.48C34.6294 36.48 32.6454 35.92 30.8854 34.8C29.1254 33.648 27.7334 32.08 26.7094 30.096C25.6854 28.112 25.1734 25.856 25.1734 23.328C25.1734 20.736 25.6854 18.464 26.7094 16.512C27.7334 14.528 29.1094 12.976 30.8374 11.856C32.5974 10.736 34.5494 10.176 36.6934 10.176C38.0694 10.176 39.3334 10.4 40.4854 10.848C41.6694 11.296 42.6934 11.872 43.5574 12.576C44.4214 13.28 45.0774 14.032 45.5254 14.832C46.0054 15.6 46.2454 16.336 46.2454 17.04L44.7574 17.184V12.816C44.7574 12.144 44.9814 11.568 45.4294 11.088C45.9094 10.608 46.4854 10.368 47.1574 10.368ZM37.3654 32.064C38.8694 32.064 40.1974 31.68 41.3494 30.912C42.5014 30.144 43.3974 29.104 44.0374 27.792C44.6774 26.448 44.9974 24.96 44.9974 23.328C44.9974 21.664 44.6774 20.176 44.0374 18.864C43.3974 17.552 42.5014 16.512 41.3494 15.744C40.1974 14.976 38.8694 14.592 37.3654 14.592C35.8934 14.592 34.5814 14.976 33.4294 15.744C32.3094 16.512 31.4134 17.552 30.7414 18.864C30.1014 20.176 29.7814 21.664 29.7814 23.328C29.7814 24.96 30.1014 26.448 30.7414 27.792C31.4134 29.104 32.3094 30.144 33.4294 30.912C34.5814 31.68 35.8934 32.064 37.3654 32.064ZM54.7939 32.064C54.5059 31.616 54.3779 31.104 54.4099 30.528C54.4419 29.92 54.7779 29.408 55.4179 28.992C55.8659 28.704 56.3299 28.592 56.8099 28.656C57.3219 28.688 57.8019 28.928 58.2499 29.376C59.1459 30.368 60.1379 31.152 61.2259 31.728C62.3459 32.304 63.6899 32.592 65.2579 32.592C65.8979 32.56 66.5539 32.464 67.2259 32.304C67.8979 32.112 68.4739 31.792 68.9539 31.344C69.4339 30.864 69.6739 30.176 69.6739 29.28C69.6739 28.48 69.4179 27.84 68.9059 27.36C68.3939 26.88 67.7219 26.496 66.8899 26.208C66.0579 25.888 65.1619 25.6 64.2019 25.344C63.1779 25.056 62.1379 24.736 61.0819 24.384C60.0579 24.032 59.1299 23.584 58.2979 23.04C57.4659 22.464 56.7779 21.728 56.2339 20.832C55.7219 19.936 55.4659 18.832 55.4659 17.52C55.4659 16.016 55.8819 14.72 56.7139 13.632C57.5779 12.544 58.6819 11.696 60.0259 11.088C61.4019 10.48 62.8899 10.176 64.4899 10.176C65.4179 10.176 66.3939 10.304 67.4179 10.56C68.4419 10.784 69.4339 11.152 70.3939 11.664C71.3539 12.176 72.1859 12.848 72.8899 13.68C73.2099 14.096 73.3859 14.592 73.4179 15.168C73.4819 15.744 73.2259 16.256 72.6499 16.704C72.2659 17.024 71.8019 17.168 71.2579 17.136C70.7139 17.104 70.2659 16.928 69.9139 16.608C69.3059 15.84 68.5219 15.248 67.5619 14.832C66.6019 14.384 65.5139 14.16 64.2979 14.16C63.6899 14.16 63.0499 14.256 62.3779 14.448C61.7379 14.608 61.1939 14.912 60.7459 15.36C60.2979 15.808 60.0739 16.464 60.0739 17.328C60.0739 18.128 60.3299 18.768 60.8419 19.248C61.3859 19.728 62.0899 20.128 62.9539 20.448C63.8179 20.768 64.7619 21.056 65.7859 21.312C66.7779 21.568 67.7539 21.872 68.7139 22.224C69.7059 22.576 70.5859 23.04 71.3539 23.616C72.1539 24.16 72.7939 24.88 73.2739 25.776C73.7859 26.64 74.0419 27.744 74.0419 29.088C74.0419 30.656 73.5779 32 72.6499 33.12C71.7539 34.208 70.6019 35.04 69.1939 35.616C67.8179 36.192 66.3619 36.48 64.8259 36.48C63.0019 36.48 61.1779 36.16 59.3539 35.52C57.5619 34.848 56.0419 33.696 54.7939 32.064ZM78.8678 11.04H90.1478C90.7878 11.04 91.3158 11.264 91.7318 11.712C92.1798 12.128 92.4038 12.656 92.4038 13.296C92.4038 13.904 92.1798 14.416 91.7318 14.832C91.3158 15.248 90.7878 15.456 90.1478 15.456H78.8678C78.2278 15.456 77.6838 15.248 77.2358 14.832C76.8198 14.384 76.6118 13.856 76.6118 13.248C76.6118 12.608 76.8198 12.08 77.2358 11.664C77.6838 11.248 78.2278 11.04 78.8678 11.04ZM83.9078 4.8C84.6118 4.8 85.1878 5.04 85.6358 5.52C86.0838 5.968 86.3078 6.544 86.3078 7.248V29.52C86.3078 30.096 86.4038 30.56 86.5958 30.912C86.7878 31.264 87.0438 31.504 87.3638 31.632C87.7158 31.76 88.0678 31.824 88.4198 31.824C88.7718 31.824 89.0758 31.76 89.3318 31.632C89.6198 31.504 89.9558 31.44 90.3398 31.44C90.7238 31.44 91.0758 31.616 91.3958 31.968C91.7158 32.32 91.8758 32.8 91.8758 33.408C91.8758 34.176 91.4598 34.8 90.6278 35.28C89.7958 35.76 88.8998 36 87.9398 36C87.3958 36 86.7558 35.952 86.0198 35.856C85.2838 35.76 84.5638 35.52 83.8598 35.136C83.1878 34.752 82.6278 34.144 82.1797 33.312C81.7318 32.448 81.5078 31.248 81.5078 29.712V7.248C81.5078 6.544 81.7318 5.968 82.1797 5.52C82.6597 5.04 83.2358 4.8 83.9078 4.8ZM100.503 36C99.8314 36 99.2554 35.776 98.7754 35.328C98.3274 34.848 98.1034 34.256 98.1034 33.552V2.928C98.1034 2.224 98.3274 1.648 98.7754 1.2C99.2554 0.719999 99.8314 0.48 100.503 0.48C101.207 0.48 101.783 0.719999 102.231 1.2C102.679 1.648 102.903 2.224 102.903 2.928V33.552C102.903 34.256 102.679 34.848 102.231 35.328C101.783 35.776 101.207 36 100.503 36ZM116.151 10.656C116.759 10.656 117.287 10.912 117.735 11.424C118.183 11.936 118.407 12.448 118.407 12.96C118.407 13.6 118.103 14.192 117.495 14.736L102.471 28.176L102.279 22.656L114.375 11.424C114.887 10.912 115.479 10.656 116.151 10.656ZM116.727 35.952C116.055 35.952 115.479 35.68 114.999 35.136L105.399 25.008L109.047 21.648L118.407 31.776C118.919 32.32 119.175 32.928 119.175 33.6C119.175 34.304 118.887 34.88 118.311 35.328C117.767 35.744 117.239 35.952 116.727 35.952ZM144.986 10.368C145.69 10.368 146.266 10.608 146.714 11.088C147.161 11.536 147.385 12.112 147.385 12.816V33.552C147.385 34.256 147.161 34.848 146.714 35.328C146.266 35.776 145.69 36 144.986 36C144.314 36 143.738 35.776 143.258 35.328C142.81 34.848 142.586 34.256 142.586 33.552V30.096L143.594 30.24C143.594 30.816 143.354 31.456 142.874 32.16C142.426 32.864 141.802 33.552 141.002 34.224C140.202 34.864 139.258 35.408 138.17 35.856C137.082 36.272 135.914 36.48 134.666 36.48C132.458 36.48 130.474 35.92 128.714 34.8C126.954 33.648 125.562 32.08 124.538 30.096C123.514 28.112 123.002 25.856 123.002 23.328C123.002 20.736 123.514 18.464 124.538 16.512C125.562 14.528 126.938 12.976 128.666 11.856C130.426 10.736 132.378 10.176 134.522 10.176C135.898 10.176 137.162 10.4 138.314 10.848C139.498 11.296 140.522 11.872 141.386 12.576C142.25 13.28 142.906 14.032 143.354 14.832C143.834 15.6 144.074 16.336 144.074 17.04L142.586 17.184V12.816C142.586 12.144 142.81 11.568 143.258 11.088C143.738 10.608 144.314 10.368 144.986 10.368ZM135.194 32.064C136.698 32.064 138.026 31.68 139.178 30.912C140.33 30.144 141.226 29.104 141.866 27.792C142.506 26.448 142.826 24.96 142.826 23.328C142.826 21.664 142.506 20.176 141.866 18.864C141.226 17.552 140.33 16.512 139.178 15.744C138.026 14.976 136.698 14.592 135.194 14.592C133.722 14.592 132.41 14.976 131.258 15.744C130.138 16.512 129.242 17.552 128.57 18.864C127.93 20.176 127.61 21.664 127.61 23.328C127.61 24.96 127.93 26.448 128.57 27.792C129.242 29.104 130.138 30.144 131.258 30.912C132.41 31.68 133.722 32.064 135.194 32.064ZM156.51 36C155.806 36 155.23 35.776 154.782 35.328C154.334 34.848 154.11 34.256 154.11 33.552V13.2C154.11 12.496 154.334 11.92 154.782 11.472C155.23 10.992 155.806 10.752 156.51 10.752C157.182 10.752 157.742 10.992 158.19 11.472C158.67 11.92 158.91 12.496 158.91 13.2V18.576L158.43 16.512C158.686 15.616 159.07 14.784 159.582 14.016C160.126 13.248 160.766 12.576 161.502 12C162.238 11.424 163.054 10.976 163.95 10.656C164.878 10.336 165.838 10.176 166.83 10.176C167.662 10.176 168.382 10.4 168.99 10.848C169.598 11.296 169.902 11.856 169.902 12.528C169.902 13.392 169.678 14.032 169.23 14.448C168.782 14.832 168.286 15.024 167.742 15.024C167.262 15.024 166.798 14.928 166.35 14.736C165.902 14.512 165.374 14.4 164.766 14.4C164.094 14.4 163.406 14.576 162.702 14.928C161.998 15.28 161.358 15.808 160.782 16.512C160.206 17.184 159.742 17.984 159.39 18.912C159.07 19.84 158.91 20.88 158.91 22.032V33.552C158.91 34.256 158.67 34.848 158.19 35.328C157.742 35.776 157.182 36 156.51 36ZM173.837 11.04H185.117C185.757 11.04 186.285 11.264 186.701 11.712C187.149 12.128 187.373 12.656 187.373 13.296C187.373 13.904 187.149 14.416 186.701 14.832C186.285 15.248 185.757 15.456 185.117 15.456H173.837C173.197 15.456 172.653 15.248 172.205 14.832C171.789 14.384 171.581 13.856 171.581 13.248C171.581 12.608 171.789 12.08 172.205 11.664C172.653 11.248 173.197 11.04 173.837 11.04ZM178.877 4.8C179.581 4.8 180.157 5.04 180.605 5.52C181.053 5.968 181.277 6.544 181.277 7.248V29.52C181.277 30.096 181.373 30.56 181.565 30.912C181.757 31.264 182.013 31.504 182.333 31.632C182.685 31.76 183.037 31.824 183.389 31.824C183.741 31.824 184.045 31.76 184.301 31.632C184.589 31.504 184.925 31.44 185.309 31.44C185.693 31.44 186.045 31.616 186.365 31.968C186.685 32.32 186.845 32.8 186.845 33.408C186.845 34.176 186.429 34.8 185.597 35.28C184.765 35.76 183.869 36 182.909 36C182.365 36 181.725 35.952 180.989 35.856C180.253 35.76 179.533 35.52 178.829 35.136C178.157 34.752 177.597 34.144 177.148 33.312C176.701 32.448 176.477 31.248 176.477 29.712V7.248C176.477 6.544 176.701 5.968 177.148 5.52C177.628 5.04 178.205 4.8 178.877 4.8ZM194.512 35.952C193.712 35.952 193.088 35.728 192.64 35.28C192.224 34.832 192.016 34.208 192.016 33.408V32.544C192.016 31.744 192.224 31.12 192.64 30.672C193.088 30.224 193.712 30 194.512 30H195.04C195.84 30 196.448 30.224 196.864 30.672C197.28 31.12 197.488 31.744 197.488 32.544V33.408C197.488 34.208 197.28 34.832 196.864 35.28C196.448 35.728 195.84 35.952 195.04 35.952H194.512Z" fill="white"/>
</svg>
