<svg width="0" height="0" fill="none" style="visibility: hidden; position: absolute;" aria-hidden="true">
    <symbol id="clean" viewBox="0 0 37 29" xmlns="http://www.w3.org/2000/svg">
        <path d="M0.710244 15.4968C1.68701 15.4977 2.62354 15.886 3.31421 16.5767C4.00489 17.2674 4.39326 18.2039 4.39407 19.1807V25.8128C4.39487 26.5941 4.70568 27.3432 5.25825 27.8955C5.81082 28.4479 6.56001 28.7585 7.34133 28.759H9.55203C9.65099 28.7627 9.74967 28.7464 9.84218 28.711C9.93468 28.6757 10.0191 28.6221 10.0904 28.5534C10.1617 28.4846 10.2185 28.4023 10.2572 28.3111C10.2959 28.22 10.3159 28.122 10.3159 28.023C10.3159 27.9239 10.2959 27.8259 10.2572 27.7348C10.2185 27.6437 10.1617 27.5613 10.0904 27.4926C10.0191 27.4239 9.93468 27.3702 9.84218 27.3349C9.74967 27.2996 9.65099 27.2832 9.55203 27.2869H7.34133C6.95062 27.2864 6.57609 27.1309 6.29991 26.8545C6.02373 26.5781 5.86847 26.2035 5.86821 25.8128V19.1807C5.86774 18.2905 5.63695 17.4156 5.19826 16.641C4.75957 15.8664 4.12791 15.2185 3.3647 14.7603C4.12752 14.3014 4.75884 13.6532 5.19746 12.8786C5.63608 12.1039 5.86713 11.2291 5.86821 10.3389V3.70678C5.86847 3.31617 6.02376 2.94163 6.29997 2.66542C6.57618 2.38922 6.95071 2.23393 7.34133 2.23366H9.55203C9.74278 2.22659 9.92337 2.14583 10.0558 2.00838C10.1883 1.87093 10.2623 1.68748 10.2623 1.49659C10.2623 1.30571 10.1883 1.12225 10.0558 0.9848C9.92337 0.847346 9.74278 0.766595 9.55203 0.759521H7.34133C6.55991 0.760326 5.81073 1.0711 5.25819 1.62364C4.70565 2.17619 4.39487 2.92537 4.39407 3.70678V10.3389C4.39273 11.3155 4.00418 12.2517 3.31362 12.9423C2.62306 13.6328 1.68684 14.0214 0.710244 14.0227C0.51949 14.0298 0.338907 14.1105 0.206456 14.248C0.0740041 14.3854 0 14.5689 0 14.7598C0 14.9507 0.0740041 15.1341 0.206456 15.2716C0.338907 15.409 0.51949 15.4898 0.710244 15.4968Z"/>
        <path d="M27.2336 2.23366H29.4443C29.835 2.23393 30.2097 2.38918 30.486 2.66536C30.7624 2.94154 30.9179 3.31608 30.9184 3.70678V10.3389C30.9194 11.229 31.1503 12.1038 31.5887 12.8784C32.0272 13.653 32.6583 14.3013 33.4209 14.7603C32.6579 15.2186 32.0265 15.8666 31.5879 16.6411C31.1494 17.4157 30.9188 18.2906 30.9184 19.1807V25.8128C30.9176 26.2034 30.762 26.5778 30.4857 26.8539C30.2094 27.13 29.8349 27.2854 29.4443 27.2859H27.2336C27.1346 27.2822 27.036 27.2985 26.9435 27.3339C26.8509 27.3692 26.7665 27.4228 26.6952 27.4915C26.6239 27.5603 26.5672 27.6426 26.5284 27.7338C26.4897 27.8249 26.4697 27.9229 26.4697 28.0219C26.4697 28.121 26.4897 28.219 26.5284 28.3101C26.5672 28.4012 26.6239 28.4836 26.6952 28.5523C26.7665 28.6211 26.8509 28.6747 26.9435 28.71C27.036 28.7454 27.1346 28.7617 27.2336 28.758H29.4443C30.2256 28.7575 30.9748 28.4469 31.5274 27.8945C32.08 27.3422 32.3908 26.5931 32.3916 25.8118V19.1807C32.3929 18.2039 32.7816 17.2675 33.4724 16.5769C34.1631 15.8863 35.0996 15.4979 36.0764 15.4968C36.2672 15.4898 36.4477 15.409 36.5802 15.2716C36.7126 15.1341 36.7866 14.9507 36.7866 14.7598C36.7866 14.5689 36.7126 14.3854 36.5802 14.248C36.4477 14.1105 36.2672 14.0298 36.0764 14.0227C35.0996 14.0216 34.1631 13.6332 33.4724 12.9426C32.7816 12.252 32.3929 11.3157 32.3916 10.3389V3.70678C32.3908 2.92537 32.08 2.17619 31.5274 1.62364C30.9749 1.0711 30.2257 0.760326 29.4443 0.759521H27.2336C27.0428 0.766595 26.8623 0.847346 26.7298 0.9848C26.5974 1.12225 26.5234 1.30571 26.5234 1.49659C26.5234 1.68748 26.5974 1.87093 26.7298 2.00838C26.8623 2.14583 27.0428 2.22659 27.2336 2.23366Z"/>
        <path d="M8.06836 9.23478C8.06849 9.33151 8.08768 9.42726 8.12481 9.51658C8.16195 9.60589 8.21632 9.68701 8.28481 9.75531C8.3533 9.82362 8.43457 9.87776 8.52399 9.91465C8.6134 9.95155 8.70921 9.97047 8.80594 9.97033C10.0758 9.97194 11.2931 10.4772 12.191 11.3752C13.0888 12.2732 13.5938 13.4907 13.5951 14.7605C13.5951 14.9559 13.6727 15.1432 13.8108 15.2813C13.949 15.4195 14.1363 15.4971 14.3317 15.4971C14.527 15.4971 14.7144 15.4195 14.8525 15.2813C14.9906 15.1432 15.0682 14.9559 15.0682 14.7605C15.0696 13.4905 15.5747 12.2729 16.4727 11.3748C17.3708 10.4768 18.5884 9.97167 19.8584 9.97033C20.0492 9.96326 20.2298 9.88251 20.3622 9.74505C20.4947 9.6076 20.5687 9.42415 20.5687 9.23326C20.5687 9.04238 20.4947 8.85893 20.3622 8.72147C20.2298 8.58402 20.0492 8.50327 19.8584 8.4962C18.5886 8.49486 17.3711 7.98988 16.4731 7.09206C15.5751 6.19423 15.0698 4.97687 15.0682 3.70702C15.0682 3.51167 14.9906 3.32432 14.8525 3.18619C14.7144 3.04806 14.527 2.97046 14.3317 2.97046C14.1363 2.97046 13.949 3.04806 13.8108 3.18619C13.6727 3.32432 13.5951 3.51167 13.5951 3.70702C13.5938 4.97678 13.0888 6.19414 12.1909 7.092C11.2931 7.98985 10.0757 8.49485 8.80594 8.4962C8.70899 8.4962 8.613 8.51531 8.52344 8.55244C8.43389 8.58957 8.35253 8.64399 8.28403 8.71258C8.21553 8.78118 8.16122 8.86261 8.12421 8.95221C8.08721 9.04182 8.06823 9.13784 8.06836 9.23478ZM14.3317 6.65327C14.9193 7.74881 15.8169 8.64676 16.9122 9.23478C15.8164 9.82119 14.9185 10.7187 14.3317 11.8143C13.7445 10.7189 12.8468 9.82149 11.7512 9.23478C12.8463 8.64646 13.7438 7.74859 14.3317 6.65327Z"/>
        <path d="M19.865 23.6013C19.0835 23.6005 18.3342 23.2898 17.7815 22.7372C17.2288 22.1847 16.9178 21.4355 16.9168 20.654C16.9168 20.4587 16.8392 20.2713 16.701 20.1332C16.5629 19.9951 16.3755 19.9175 16.1802 19.9175C15.9849 19.9175 15.7975 19.9951 15.6594 20.1332C15.5212 20.2713 15.4436 20.4587 15.4436 20.654C15.4428 21.4355 15.1321 22.1846 14.5795 22.7372C14.027 23.2897 13.2778 23.6005 12.4964 23.6013C12.3056 23.6084 12.125 23.6891 11.9926 23.8266C11.8601 23.964 11.7861 24.1475 11.7861 24.3384C11.7861 24.5293 11.8601 24.7127 11.9926 24.8502C12.125 24.9876 12.3056 25.0684 12.4964 25.0754C13.2778 25.0762 14.027 25.387 14.5795 25.9396C15.1321 26.4921 15.4428 27.2413 15.4436 28.0227C15.4436 28.2181 15.5212 28.4054 15.6594 28.5435C15.7975 28.6817 15.9849 28.7593 16.1802 28.7593C16.3755 28.7593 16.5629 28.6817 16.701 28.5435C16.8392 28.4054 16.9168 28.2181 16.9168 28.0227C16.9178 27.2412 17.2288 26.492 17.7815 25.9395C18.3342 25.387 19.0835 25.0762 19.865 25.0754C20.0558 25.0684 20.2364 24.9876 20.3688 24.8502C20.5013 24.7127 20.5753 24.5293 20.5753 24.3384C20.5753 24.1475 20.5013 23.964 20.3688 23.8266C20.2364 23.6891 20.0558 23.6084 19.865 23.6013ZM16.1802 25.581C15.8528 25.0888 15.4305 24.6669 14.9381 24.3399C15.4306 24.0117 15.8529 23.5888 16.1802 23.0957C16.5081 23.5887 16.9307 24.0115 17.4233 24.3399C16.9307 24.667 16.5082 25.0889 16.1802 25.581Z"/>
        <path d="M19.1357 17.3377C19.1357 17.4345 19.1548 17.5303 19.1918 17.6196C19.2288 17.709 19.2831 17.7902 19.3515 17.8586C19.4199 17.927 19.5011 17.9812 19.5904 18.0182C19.6798 18.0553 19.7756 18.0743 19.8723 18.0743C20.7515 18.0751 21.5945 18.4247 22.2162 19.0464C22.8379 19.6682 23.1875 20.5111 23.1884 21.3904C23.1847 21.4894 23.201 21.5883 23.2364 21.6809C23.2718 21.7735 23.3255 21.8581 23.3943 21.9295C23.4631 22.0009 23.5456 22.0577 23.6369 22.0965C23.7281 22.1353 23.8263 22.1553 23.9254 22.1553C24.0246 22.1553 24.1227 22.1353 24.214 22.0965C24.3052 22.0577 24.3877 22.0009 24.4565 21.9295C24.5253 21.8581 24.579 21.7735 24.6144 21.6809C24.6498 21.5883 24.6662 21.4894 24.6625 21.3904C24.6633 20.5113 25.0128 19.6685 25.6343 19.0468C26.2558 18.4251 27.0985 18.0754 27.9775 18.0743C28.1729 18.0743 28.3602 17.9967 28.4984 17.8586C28.6365 17.7204 28.7141 17.5331 28.7141 17.3377C28.7141 17.1424 28.6365 16.955 28.4984 16.8169C28.3602 16.6788 28.1729 16.6012 27.9775 16.6012C27.0987 16.6001 26.2561 16.2505 25.6346 15.629C25.0132 15.0076 24.6636 14.165 24.6625 13.2861C24.6662 13.1871 24.6498 13.0882 24.6144 12.9956C24.579 12.903 24.5253 12.8184 24.4565 12.747C24.3877 12.6756 24.3052 12.6188 24.214 12.58C24.1227 12.5412 24.0246 12.5212 23.9254 12.5212C23.8263 12.5212 23.7281 12.5412 23.6369 12.58C23.5456 12.6188 23.4631 12.6756 23.3943 12.747C23.3255 12.8184 23.2718 12.903 23.2364 12.9956C23.201 13.0882 23.1847 13.1871 23.1884 13.2861C23.1873 14.1652 22.8375 15.0079 22.2159 15.6294C21.5942 16.2509 20.7514 16.6004 19.8723 16.6012C19.677 16.6012 19.4896 16.6788 19.3515 16.8169C19.2133 16.955 19.1357 17.1424 19.1357 17.3377ZM23.9249 15.8373C24.3081 16.4433 24.8213 16.9566 25.4274 17.3398C24.8216 17.7232 24.3084 18.2364 23.9249 18.8423C23.542 18.236 23.0287 17.7227 22.4224 17.3398C23.0289 16.9571 23.5423 16.4438 23.9249 15.8373Z"/>
    </symbol>
    <symbol id="documention" viewBox="0 0 26 31" xmlns="http://www.w3.org/2000/svg">
        <path d="M8 22.2595H7C6.72387 22.2595 6.5 22.4834 6.5 22.7595C6.5 23.0356 6.72387 23.2595 7 23.2595H8C8.27612 23.2595 8.5 23.0356 8.5 22.7595C8.5 22.4834 8.27612 22.2595 8 22.2595Z"/>
        <path d="M22 22.2595H10C9.72387 22.2595 9.5 22.4834 9.5 22.7595C9.5 23.0356 9.72387 23.2595 10 23.2595H22C22.2761 23.2595 22.5 23.0356 22.5 22.7595C22.5 22.4834 22.2761 22.2595 22 22.2595Z"/>
        <path d="M8 19.2595H7C6.72387 19.2595 6.5 19.4834 6.5 19.7595C6.5 20.0356 6.72387 20.2595 7 20.2595H8C8.27612 20.2595 8.5 20.0356 8.5 19.7595C8.5 19.4834 8.27612 19.2595 8 19.2595Z"/>
        <path d="M22 19.2595H10C9.72387 19.2595 9.5 19.4834 9.5 19.7595C9.5 20.0356 9.72387 20.2595 10 20.2595H22C22.2761 20.2595 22.5 20.0356 22.5 19.7595C22.5 19.4834 22.2761 19.2595 22 19.2595Z"/>
        <path d="M8 16.2595H7C6.72387 16.2595 6.5 16.4834 6.5 16.7595C6.5 17.0356 6.72387 17.2595 7 17.2595H8C8.27612 17.2595 8.5 17.0356 8.5 16.7595C8.5 16.4834 8.27612 16.2595 8 16.2595Z"/>
        <path d="M22 16.2595H10C9.72387 16.2595 9.5 16.4834 9.5 16.7595C9.5 17.0356 9.72387 17.2595 10 17.2595H22C22.2761 17.2595 22.5 17.0356 22.5 16.7595C22.5 16.4834 22.2761 16.2595 22 16.2595Z"/>
        <path d="M8 13.2595H7C6.72387 13.2595 6.5 13.4834 6.5 13.7595C6.5 14.0356 6.72387 14.2595 7 14.2595H8C8.27612 14.2595 8.5 14.0356 8.5 13.7595C8.5 13.4834 8.27612 13.2595 8 13.2595Z"/>
        <path d="M22 13.2595H10C9.72387 13.2595 9.5 13.4834 9.5 13.7595C9.5 14.0356 9.72387 14.2595 10 14.2595H22C22.2761 14.2595 22.5 14.0356 22.5 13.7595C22.5 13.4834 22.2761 13.2595 22 13.2595Z"/>
        <path d="M8 10.2595H7C6.72387 10.2595 6.5 10.4834 6.5 10.7595C6.5 11.0356 6.72387 11.2595 7 11.2595H8C8.27612 11.2595 8.5 11.0356 8.5 10.7595C8.5 10.4834 8.27612 10.2595 8 10.2595Z"/>
        <path d="M22 10.2595H10C9.72387 10.2595 9.5 10.4834 9.5 10.7595C9.5 11.0356 9.72387 11.2595 10 11.2595H22C22.2761 11.2595 22.5 11.0356 22.5 10.7595C22.5 10.4834 22.2761 10.2595 22 10.2595Z"/>
        <path d="M25.4945 8.22802C25.492 8.18421 25.4834 8.14096 25.469 8.09952C25.4635 8.08352 25.4595 8.06802 25.4525 8.05252C25.4282 7.99815 25.3943 7.94852 25.3525 7.90602L18.3525 0.906021C18.31 0.864209 18.2604 0.830334 18.206 0.806021C18.1905 0.799021 18.175 0.795021 18.1595 0.789521C18.1177 0.775146 18.0741 0.766396 18.03 0.763521C18.0215 0.765021 18.012 0.759521 18.001 0.759521H4.00098C3.72485 0.759521 3.50098 0.983396 3.50098 1.25952V2.75952H1.00098C0.724852 2.75952 0.500977 2.9834 0.500977 3.25952V30.2595C0.500977 30.5356 0.724852 30.7595 1.00098 30.7595H22.001C22.2771 30.7595 22.501 30.5356 22.501 30.2595V27.7595H25.001C25.2771 27.7595 25.501 27.5356 25.501 27.2595V8.25952C25.501 8.24852 25.4955 8.23902 25.4945 8.22802ZM18.501 2.46652L23.794 7.75952H18.501V2.46652ZM21.501 29.7595H1.50098V3.75952H3.50098V27.2595C3.50098 27.5356 3.72485 27.7595 4.00098 27.7595H21.501V29.7595ZM24.501 26.7595H4.50098V1.75952H17.501V8.25952C17.501 8.53565 17.7249 8.75952 18.001 8.75952H24.501V26.7595Z"/>
        <path d="M10 5.25952H7C6.72387 5.25952 6.5 5.4834 6.5 5.75952V8.75952C6.5 9.03565 6.72387 9.25952 7 9.25952H10C10.2761 9.25952 10.5 9.03565 10.5 8.75952V5.75952C10.5 5.4834 10.2761 5.25952 10 5.25952ZM9.5 8.25952H7.5V6.25952H9.5V8.25952Z"/>
    </symbol>
    <symbol id="integration" viewBox="0 0 29 29" xmlns="http://www.w3.org/2000/svg">
        <path d="M13.0887 15.1035L15.1031 13.0889C15.1426 13.0495 15.174 13.0026 15.1954 12.9509C15.2168 12.8993 15.2278 12.844 15.2278 12.7881C15.2278 12.7322 15.2168 12.6769 15.1954 12.6252C15.174 12.5736 15.1426 12.5267 15.1031 12.4872L14.03 11.4141C14.2505 11.0099 14.4274 10.5833 14.5575 10.1416H16.0742C16.1871 10.1416 16.2954 10.0968 16.3752 10.0169C16.455 9.93712 16.4999 9.82886 16.4999 9.71597V6.86738C16.4999 6.7545 16.455 6.64624 16.3752 6.56641C16.2954 6.48659 16.1871 6.44175 16.0742 6.44175H14.5609C14.4307 5.99941 14.2533 5.57238 14.0317 5.16801L15.1031 4.09638C15.1426 4.05687 15.174 4.00995 15.1954 3.95831C15.2168 3.90666 15.2278 3.8513 15.2278 3.79539C15.2278 3.73949 15.2168 3.68413 15.1954 3.63248C15.174 3.58084 15.1426 3.53392 15.1031 3.49441L13.0887 1.47982C13.0492 1.44027 13.0023 1.40889 12.9507 1.38749C12.8991 1.36608 12.8437 1.35506 12.7878 1.35506C12.732 1.35506 12.6766 1.36608 12.625 1.38749C12.5734 1.40889 12.5265 1.44027 12.487 1.47982L11.4154 2.55169C11.011 2.3301 10.5839 2.15267 10.1416 2.02244V0.508643C10.1416 0.452738 10.1307 0.397376 10.1093 0.345721C10.0879 0.294067 10.0565 0.247132 10.017 0.207602C9.97748 0.168072 9.93055 0.136721 9.87889 0.115342C9.82724 0.0939635 9.77188 0.0829759 9.71597 0.0830079H6.86714C6.81124 0.0829759 6.75587 0.0939635 6.70422 0.115342C6.65256 0.136721 6.60563 0.168072 6.5661 0.207602C6.52657 0.247132 6.49522 0.294067 6.47384 0.345721C6.45246 0.397376 6.44147 0.452738 6.4415 0.508643V2.02512C5.99988 2.15539 5.57338 2.33232 5.16922 2.55291L4.09638 1.47982C4.05687 1.44026 4.00995 1.40888 3.95831 1.38747C3.90666 1.36606 3.8513 1.35504 3.79539 1.35504C3.73949 1.35504 3.68413 1.36606 3.63248 1.38747C3.58084 1.40888 3.53392 1.44026 3.49441 1.47982L1.47982 3.49441C1.44026 3.53392 1.40888 3.58084 1.38747 3.63248C1.36606 3.68413 1.35504 3.73949 1.35504 3.79539C1.35504 3.8513 1.36606 3.90666 1.38747 3.95831C1.40888 4.00995 1.44026 4.05687 1.47982 4.09638L2.55242 5.16922C2.33185 5.57347 2.15492 6.00005 2.02463 6.44175H0.508643C0.452738 6.44172 0.397376 6.4527 0.345721 6.47408C0.294067 6.49546 0.247132 6.52681 0.207602 6.56634C0.168072 6.60587 0.136721 6.65281 0.115342 6.70446C0.0939635 6.75612 0.0829759 6.81148 0.0830079 6.86738V9.71597C0.0829759 9.77188 0.0939635 9.82724 0.115342 9.87889C0.136721 9.93055 0.168072 9.97748 0.207602 10.017C0.247132 10.0565 0.294067 10.0879 0.345721 10.1093C0.397376 10.1307 0.452738 10.1416 0.508643 10.1416H2.0222C2.15249 10.584 2.33001 11.011 2.55169 11.4154L1.47982 12.4872C1.44027 12.5267 1.40889 12.5736 1.38749 12.6252C1.36608 12.6769 1.35506 12.7322 1.35506 12.7881C1.35506 12.844 1.36608 12.8993 1.38749 12.9509C1.40889 13.0026 1.44027 13.0495 1.47982 13.0889L3.49392 15.1035C3.57381 15.1832 3.68205 15.228 3.79491 15.228C3.90776 15.228 4.01601 15.1832 4.09589 15.1035L5.16752 14.0317C5.572 14.2533 5.99911 14.4308 6.4415 14.5612V16.075C6.4415 16.1878 6.48635 16.2961 6.56617 16.3759C6.64599 16.4557 6.75425 16.5006 6.86714 16.5006H9.71597C9.82886 16.5006 9.93712 16.4557 10.0169 16.3759C10.0968 16.2961 10.1416 16.1878 10.1416 16.075V14.5582C10.5832 14.428 11.0097 14.251 11.4139 14.0305L12.487 15.1035C12.5668 15.1833 12.675 15.2281 12.7878 15.2281C12.9007 15.2281 13.0089 15.1833 13.0887 15.1035ZM11.7848 13.1974C11.7172 13.1297 11.6287 13.0868 11.5337 13.0755C11.4387 13.0643 11.3427 13.0855 11.2611 13.1356C10.7526 13.4483 10.1977 13.6782 9.61698 13.8167C9.52406 13.839 9.44133 13.8919 9.38209 13.9669C9.32285 14.0418 9.29053 14.1346 9.29034 14.2301V15.6481H7.29277V14.234C7.29264 14.1384 7.26029 14.0456 7.20094 13.9705C7.14159 13.8955 7.0587 13.8427 6.96564 13.8206C6.38505 13.6817 5.83039 13.4509 5.32269 13.1369C5.24111 13.0865 5.14494 13.0652 5.04973 13.0764C4.95453 13.0875 4.86586 13.1304 4.79807 13.1982L3.79527 14.2002L2.38314 12.7876L3.3852 11.7853C3.45291 11.7175 3.49579 11.6289 3.50691 11.5337C3.51803 11.4386 3.49675 11.3425 3.4465 11.2609C3.13249 10.7529 2.90184 10.1979 2.76329 9.61698C2.74115 9.52393 2.68832 9.44104 2.6133 9.38169C2.53829 9.32234 2.44547 9.28999 2.34982 9.28985H0.934277V7.29277H2.35201C2.44758 7.29262 2.54033 7.26032 2.61533 7.20108C2.69032 7.14183 2.74321 7.05907 2.76548 6.96613C2.90381 6.38557 3.1337 5.83073 3.4465 5.32245C3.49654 5.24083 3.51766 5.14475 3.50645 5.04967C3.49524 4.9546 3.45236 4.86606 3.38472 4.79831L2.38314 3.79527L3.79527 2.38314L4.79831 3.38618C4.86599 3.45384 4.9545 3.49674 5.04954 3.50795C5.14459 3.51915 5.24064 3.49802 5.32221 3.44795C5.83065 3.1353 6.38554 2.90543 6.96613 2.76694C7.05905 2.74463 7.14178 2.69173 7.20102 2.61674C7.26026 2.54176 7.29258 2.44903 7.29277 2.35347V0.934277H9.29034V2.34957C9.29047 2.44523 9.32283 2.53805 9.38218 2.61306C9.44153 2.68807 9.52441 2.74091 9.61747 2.76305C10.1984 2.90155 10.7534 3.13212 11.2614 3.44601C11.3429 3.49647 11.4391 3.51788 11.5343 3.50675C11.6295 3.49563 11.7181 3.45262 11.7858 3.38472L12.7878 2.38265L14.2002 3.79527L13.1982 4.79758C13.1305 4.86542 13.0876 4.95408 13.0765 5.04926C13.0654 5.14444 13.0866 5.24059 13.1369 5.32221C13.4509 5.8301 13.6814 6.38503 13.8198 6.96589C13.842 7.05894 13.8948 7.14183 13.9698 7.20118C14.0448 7.26053 14.1376 7.29288 14.2333 7.29302H15.6486V9.29034H14.2306C14.135 9.29055 14.0423 9.3229 13.9673 9.38218C13.8923 9.44147 13.8394 9.52426 13.8171 9.61723C13.6787 10.1978 13.4488 10.7527 13.1361 11.2611C13.086 11.3427 13.0648 11.4387 13.076 11.5337C13.0872 11.6287 13.1302 11.7172 13.1979 11.7848L14.2002 12.7881L12.7878 14.2002L11.7848 13.1974Z"/>
        <path d="M8.29098 4.60718C7.56225 4.60718 6.84988 4.82327 6.24397 5.22813C5.63805 5.633 5.16579 6.20844 4.88692 6.8817C4.60804 7.55496 4.53508 8.2958 4.67724 9.01053C4.81941 9.72526 5.17033 10.3818 5.68562 10.8971C6.20091 11.4124 6.85744 11.7633 7.57217 11.9055C8.2869 12.0476 9.02773 11.9747 9.701 11.6958C10.3743 11.4169 10.9497 10.9447 11.3546 10.3387C11.7594 9.73282 11.9755 9.02045 11.9755 8.29171C11.9744 7.31485 11.5859 6.37831 10.8951 5.68756C10.2044 4.99681 9.26785 4.60827 8.29098 4.60718ZM8.29098 11.1255C7.73064 11.1255 7.18287 10.9593 6.71696 10.648C6.25104 10.3367 5.88789 9.89424 5.67343 9.37656C5.45897 8.85887 5.40284 8.28922 5.51212 7.73964C5.6214 7.19005 5.8912 6.68521 6.28739 6.28895C6.68358 5.89269 7.18838 5.62281 7.73794 5.51343C8.28751 5.40406 8.85717 5.46009 9.37489 5.67446C9.89261 5.88883 10.3351 6.2519 10.6465 6.71777C10.9579 7.18363 11.1242 7.73137 11.1243 8.29171C11.1234 9.04287 10.8246 9.763 10.2934 10.2941C9.76227 10.8253 9.04214 11.1241 8.29098 11.125V11.1255Z"/>
        <path d="M28.5728 18.9398H27.059C26.9288 18.4975 26.7513 18.0704 26.5297 17.6661L27.6013 16.5942C27.6409 16.5547 27.6723 16.5078 27.6937 16.4562C27.7151 16.4045 27.7261 16.3492 27.7261 16.2933C27.7261 16.2374 27.7151 16.1821 27.6937 16.1305C27.6723 16.0788 27.6409 16.0319 27.6013 15.9925L25.587 13.9784C25.5475 13.9388 25.5006 13.9074 25.4489 13.886C25.3973 13.8646 25.3419 13.8536 25.286 13.8536C25.2301 13.8536 25.1747 13.8646 25.1231 13.886C25.0714 13.9074 25.0245 13.9388 24.985 13.9784L23.9134 15.0497C23.5091 14.8282 23.0821 14.6507 22.6399 14.5202V13.0064C22.6399 12.8936 22.5951 12.7853 22.5152 12.7055C22.4354 12.6257 22.3271 12.5808 22.2143 12.5808H19.3654C19.2525 12.5808 19.1443 12.6257 19.0645 12.7055C18.9846 12.7853 18.9398 12.8936 18.9398 13.0064V14.5232C18.4981 14.6534 18.0715 14.8303 17.6673 15.051L16.5944 13.9784C16.5549 13.9388 16.508 13.9074 16.4564 13.886C16.4048 13.8646 16.3495 13.8536 16.2936 13.8536C16.2377 13.8536 16.1823 13.8646 16.1307 13.886C16.0791 13.9074 16.0322 13.9388 15.9927 13.9784L13.9781 15.9925C13.8984 16.0723 13.8535 16.1805 13.8535 16.2933C13.8535 16.4062 13.8984 16.5144 13.9781 16.5942L15.0514 17.6673C14.8308 18.0714 14.6539 18.498 14.5239 18.9398H13.0067C12.8938 18.9398 12.7855 18.9846 12.7057 19.0645C12.6259 19.1443 12.5811 19.2525 12.5811 19.3654V22.214C12.5811 22.3269 12.6259 22.4352 12.7057 22.515C12.7855 22.5948 12.8938 22.6397 13.0067 22.6397H14.5205C14.6507 23.082 14.8282 23.509 15.0497 23.9134L13.9781 24.985C13.8983 25.0649 13.8535 25.1731 13.8535 25.286C13.8535 25.3989 13.8983 25.5071 13.9781 25.587L15.9927 27.6016C16.0322 27.6411 16.0791 27.6725 16.1307 27.6939C16.1823 27.7153 16.2377 27.7263 16.2936 27.7263C16.3495 27.7263 16.4048 27.7153 16.4564 27.6939C16.508 27.6725 16.5549 27.6411 16.5944 27.6016L17.6661 26.5314C18.0704 26.753 18.4974 26.9305 18.9398 27.0607V28.5745C18.9398 28.6304 18.9507 28.6857 18.9721 28.7374C18.9935 28.789 19.0249 28.836 19.0644 28.8755C19.1039 28.915 19.1509 28.9464 19.2025 28.9678C19.2542 28.9891 19.3095 29.0001 19.3654 29.0001H22.214C22.2699 29.0001 22.3253 28.9891 22.3769 28.9678C22.4286 28.9464 22.4755 28.915 22.5151 28.8755C22.5546 28.836 22.5859 28.789 22.6073 28.7374C22.6287 28.6857 22.6397 28.6304 22.6397 28.5745V27.058C23.0814 26.9277 23.508 26.7507 23.9122 26.53L24.985 27.6028C25.0245 27.6424 25.0714 27.6737 25.1231 27.6951C25.1747 27.7166 25.2301 27.7276 25.286 27.7276C25.3419 27.7276 25.3973 27.7166 25.4489 27.6951C25.5006 27.6737 25.5475 27.6424 25.587 27.6028L27.6013 25.5887C27.6409 25.5492 27.6723 25.5023 27.6937 25.4506C27.7151 25.399 27.7261 25.3436 27.7261 25.2877C27.7261 25.2318 27.7151 25.1764 27.6937 25.1248C27.6723 25.0732 27.6409 25.0262 27.6013 24.9867L26.5285 23.9136C26.7491 23.5095 26.926 23.083 27.0563 22.6414H28.5728C28.6287 22.6414 28.684 22.6304 28.7357 22.609C28.7873 22.5876 28.8343 22.5563 28.8738 22.5168C28.9133 22.4772 28.9447 22.4303 28.9661 22.3786C28.9874 22.327 28.9984 22.2716 28.9984 22.2157V19.3654C28.9984 19.3095 28.9874 19.2542 28.9661 19.2025C28.9447 19.1509 28.9133 19.1039 28.8738 19.0644C28.8343 19.0249 28.7873 18.9935 28.7357 18.9721C28.684 18.9507 28.6287 18.9398 28.5728 18.9398ZM28.1471 21.7886H26.7294C26.6338 21.7888 26.5411 21.8211 26.4661 21.8803C26.3911 21.9396 26.3382 22.0223 26.3159 22.1153C26.1774 22.6959 25.9476 23.2508 25.6349 23.7592C25.5849 23.8408 25.5638 23.9368 25.575 24.0319C25.5862 24.1269 25.6291 24.2154 25.6967 24.2831L26.7 25.2864L25.2876 26.6985L24.2845 25.6955C24.2168 25.6279 24.1283 25.5851 24.0333 25.5739C23.9383 25.5627 23.8423 25.5838 23.7607 25.6337C23.2521 25.9463 22.6971 26.1762 22.1165 26.3147C22.0235 26.337 21.9408 26.3899 21.8815 26.4649C21.8223 26.5399 21.79 26.6326 21.7898 26.7282V28.1459H19.7911V26.7306C19.7909 26.635 19.7586 26.5421 19.6992 26.4671C19.6399 26.3921 19.557 26.3393 19.4639 26.3171C18.883 26.1786 18.328 25.9481 17.82 25.6342C17.7385 25.5838 17.6423 25.5624 17.5471 25.5735C17.4519 25.5846 17.3633 25.6276 17.2956 25.6955L16.2936 26.6975L14.8812 25.2861L15.8832 24.2838C15.9511 24.2161 15.994 24.1274 16.0051 24.0322C16.0162 23.9369 15.9949 23.8408 15.9445 23.7592C15.6307 23.2512 15.4002 22.6963 15.2618 22.1155C15.2397 22.0225 15.1869 21.9396 15.1118 21.8802C15.0368 21.8209 14.944 21.7885 14.8483 21.7884H13.4323V19.7911H14.8501C14.9457 19.7909 15.0384 19.7585 15.1134 19.6992C15.1884 19.6399 15.2413 19.5571 15.2635 19.4642C15.402 18.8836 15.6319 18.3287 15.9445 17.8203C15.9947 17.7388 16.0158 17.6427 16.0046 17.5477C15.9934 17.4527 15.9505 17.3642 15.8828 17.2966L14.8812 16.2933L16.2936 14.8812L17.2966 15.8842C17.3642 15.952 17.4526 15.995 17.5477 16.0062C17.6427 16.0174 17.7388 15.9962 17.8203 15.946C18.3288 15.6333 18.8838 15.4035 19.4644 15.265C19.5573 15.2427 19.6401 15.1898 19.6993 15.1148C19.7586 15.0398 19.7909 14.9471 19.7911 14.8515V13.4335H21.7886V14.8488C21.7888 14.9445 21.8211 15.0373 21.8805 15.1123C21.9398 15.1873 22.0227 15.2402 22.1158 15.2623C22.6966 15.401 23.2515 15.6316 23.7594 15.9455C23.841 15.996 23.9372 16.0173 24.0324 16.0062C24.1277 15.9951 24.2163 15.9521 24.2841 15.8842L25.2861 14.8812L26.6985 16.2936L25.6962 17.2959C25.6285 17.3636 25.5855 17.4522 25.5744 17.5474C25.5633 17.6426 25.5846 17.7387 25.6349 17.8203C25.9488 18.3282 26.1793 18.8831 26.3176 19.4639C26.3397 19.557 26.3925 19.64 26.4675 19.6994C26.5426 19.7588 26.6354 19.7912 26.7311 19.7913H28.1464L28.1471 21.7886Z"/>
        <path d="M20.79 17.1052C20.0613 17.1052 19.3489 17.3213 18.743 17.7262C18.1371 18.131 17.6648 18.7065 17.3859 19.3798C17.1071 20.053 17.0341 20.7938 17.1763 21.5086C17.3184 22.2233 17.6694 22.8798 18.1846 23.3951C18.6999 23.9104 19.3565 24.2613 20.0712 24.4035C20.7859 24.5457 21.5268 24.4727 22.2 24.1938C22.8733 23.915 23.4487 23.4427 23.8536 22.8368C24.2585 22.2309 24.4745 21.5185 24.4745 20.7898C24.4735 19.8129 24.0849 18.8764 23.3942 18.1856C22.7034 17.4949 21.7669 17.1063 20.79 17.1052ZM20.79 23.6235C20.2296 23.6235 19.6819 23.4573 19.2159 23.146C18.75 22.8347 18.3869 22.3922 18.1724 21.8745C17.958 21.3568 17.9019 20.7871 18.0112 20.2375C18.1205 19.6879 18.3903 19.1831 18.7866 18.7868C19.1828 18.3906 19.6877 18.1207 20.2373 18.0114C20.7869 17.9021 21.3565 17.9582 21.8743 18.1726C22.392 18.3871 22.8345 18.7502 23.1458 19.2162C23.4571 19.6821 23.6233 20.2299 23.6233 20.7902C23.6223 21.5413 23.3235 22.2614 22.7923 22.7924C22.2612 23.3235 21.5411 23.6222 20.79 23.623V23.6235Z"/>
        <path d="M17.6323 4.04758C20.1053 4.7756 22.241 6.35501 23.6615 8.50629C23.3208 8.81467 23.1054 9.23753 23.0563 9.6944C23.0071 10.1513 23.1277 10.6103 23.3949 10.9841C23.6622 11.3578 24.0576 11.6203 24.5058 11.7215C24.954 11.8227 25.4238 11.7556 25.8258 11.533C26.2278 11.3103 26.5338 10.9476 26.6858 10.514C26.8377 10.0803 26.8249 9.60593 26.6498 9.18109C26.4747 8.75625 26.1495 8.41061 25.7362 8.20994C25.3228 8.00927 24.8501 7.96759 24.4079 8.09282C22.8777 5.74606 20.5605 4.02217 17.8729 3.2311C17.8189 3.2141 17.7621 3.20802 17.7058 3.21324C17.6494 3.21845 17.5947 3.23484 17.5448 3.26145C17.4948 3.28806 17.4507 3.32435 17.415 3.36821C17.3793 3.41207 17.3526 3.46262 17.3367 3.51689C17.3207 3.57116 17.3157 3.62807 17.322 3.6843C17.3282 3.74052 17.3457 3.79493 17.3732 3.84435C17.4008 3.89376 17.4379 3.93718 17.4824 3.97208C17.527 4.00697 17.578 4.03264 17.6326 4.04758H17.6323ZM25.9234 9.889C25.9234 10.0897 25.8639 10.2859 25.7524 10.4527C25.6409 10.6196 25.4825 10.7497 25.297 10.8265C25.1116 10.9033 24.9076 10.9234 24.7108 10.8842C24.5139 10.8451 24.3331 10.7484 24.1912 10.6065C24.0493 10.4646 23.9527 10.2838 23.9135 10.087C23.8744 9.89012 23.8945 9.6861 23.9713 9.50068C24.0481 9.31527 24.1781 9.15679 24.345 9.04529C24.5119 8.93379 24.708 8.87428 24.9087 8.87428C25.1778 8.87454 25.4357 8.98153 25.626 9.17177C25.8162 9.36201 25.9232 9.61996 25.9234 9.889Z"/>
        <path d="M11.4486 25.0339C8.97605 24.3056 6.8408 22.7262 5.42063 20.5752C5.7613 20.2668 5.97671 19.844 6.02586 19.3871C6.07501 18.9302 5.95448 18.4712 5.6872 18.0974C5.41992 17.7236 5.02455 17.4612 4.57632 17.36C4.1281 17.2588 3.6583 17.3259 3.25634 17.5485C2.85438 17.7712 2.5483 18.1338 2.39636 18.5675C2.24442 19.0012 2.25721 19.4756 2.43231 19.9004C2.60741 20.3252 2.93259 20.6709 3.34597 20.8715C3.75935 21.0722 4.23208 21.1139 4.67419 20.9887C6.2041 23.3352 8.52088 25.0591 11.2081 25.8504C11.2471 25.8619 11.2877 25.8678 11.3284 25.8677C11.4307 25.8674 11.5294 25.8304 11.6066 25.7634C11.6838 25.6964 11.7343 25.6038 11.7488 25.5026C11.7634 25.4014 11.741 25.2984 11.6859 25.2123C11.6307 25.1263 11.5464 25.0629 11.4484 25.0339H11.4486ZM3.15747 19.1925C3.15757 18.9918 3.21716 18.7957 3.32872 18.6289C3.44028 18.4621 3.59879 18.3321 3.78421 18.2554C3.96963 18.1786 4.17364 18.1586 4.37045 18.1978C4.56725 18.237 4.74801 18.3337 4.88987 18.4756C5.03173 18.6176 5.12833 18.7984 5.16744 18.9952C5.20655 19.192 5.18643 19.396 5.10961 19.5814C5.0328 19.7668 4.90274 19.9252 4.73588 20.0367C4.56902 20.1482 4.37286 20.2077 4.17219 20.2077C3.90306 20.2074 3.64504 20.1004 3.45479 19.91C3.26454 19.7197 3.1576 19.4616 3.15747 19.1925Z"/>
    </symbol>
    <symbol id="optimize" viewBox="0 0 32 30" xmlns="http://www.w3.org/2000/svg">
        <path d="M16 23.5C20.687 23.5 24.5 19.687 24.5 15C24.5 10.313 20.687 6.5 16 6.5C11.313 6.5 7.5 10.313 7.5 15C7.5 19.687 11.313 23.5 16 23.5ZM16 7.5C20.1355 7.5 23.5 10.8645 23.5 15C23.5 19.1355 20.1355 22.5 16 22.5C11.8645 22.5 8.5 19.1355 8.5 15C8.5 10.8645 11.8645 7.5 16 7.5Z"/>
        <path d="M19 18.5H21C21.276 18.5 21.5 18.276 21.5 18V11.5C21.5 11.224 21.276 11 21 11H19C18.724 11 18.5 11.224 18.5 11.5V18C18.5 18.276 18.724 18.5 19 18.5ZM19.5 12H20.5V17.5H19.5V12Z"/>
        <path d="M15 18.5H17C17.276 18.5 17.5 18.276 17.5 18V13C17.5 12.724 17.276 12.5 17 12.5H15C14.724 12.5 14.5 12.724 14.5 13V18C14.5 18.276 14.724 18.5 15 18.5ZM15.5 13.5H16.5V17.5H15.5V13.5Z"/>
        <path d="M13 18.5C13.276 18.5 13.5 18.276 13.5 18V15C13.5 14.724 13.276 14.5 13 14.5H11C10.724 14.5 10.5 14.724 10.5 15V18C10.5 18.276 10.724 18.5 11 18.5H13ZM11.5 15.5H12.5V17.5H11.5V15.5Z"/>
        <path d="M5.9385 11.8901C5.8405 12.2301 5.5935 12.4941 5.2775 12.5966L3.9375 13.0321C3.752 13.0926 3.619 13.2546 3.5955 13.4481C3.532 13.9786 3.5 14.5006 3.5 15.0001C3.5 15.4996 3.532 16.0216 3.596 16.5521C3.619 16.7456 3.7525 16.9076 3.938 16.9681L5.278 17.4036C5.594 17.5061 5.841 17.7706 5.939 18.1106C5.9875 18.2786 6.04 18.4451 6.096 18.6101C6.212 18.9521 6.16 19.3266 5.956 19.6116L5.157 20.7286C5.0445 20.8861 5.0325 21.0941 5.127 21.2636C5.6375 22.1761 6.2605 23.0246 6.978 23.7856C7.114 23.9301 7.3215 23.9796 7.5075 23.9141L8.716 23.4896C9.0245 23.3816 9.3665 23.4426 9.6305 23.6526C9.7625 23.7576 9.897 23.8596 10.0335 23.9581C10.3145 24.1601 10.4795 24.4921 10.4755 24.8461L10.4615 26.0666C10.4595 26.2626 10.5715 26.4416 10.7485 26.5251C11.7035 26.9751 12.716 27.3006 13.757 27.4926C13.7865 27.4976 13.8165 27.5001 13.8465 27.5001C14.01 27.5001 14.1655 27.4196 14.2595 27.2816L14.9065 26.3326C15.098 26.0516 15.4135 25.9021 15.7425 25.8966C15.9135 25.9011 16.0855 25.9011 16.2575 25.8966C16.5905 25.8781 16.9015 26.0516 17.093 26.3326L17.7395 27.2816C17.851 27.4456 18.048 27.5281 18.2435 27.4916C19.2845 27.2996 20.2965 26.9741 21.252 26.5241C21.429 26.4406 21.541 26.2616 21.539 26.0661L21.525 24.8456C21.521 24.4916 21.686 24.1596 21.9665 23.9576C22.103 23.8591 22.2375 23.7576 22.3695 23.6526C22.6335 23.4426 22.975 23.3806 23.2845 23.4896L24.493 23.9141C24.679 23.9791 24.887 23.9296 25.0225 23.7856C25.74 23.0251 26.3625 22.1766 26.873 21.2636C26.9675 21.0946 26.956 20.8861 26.8435 20.7286L26.0445 19.6116C25.8405 19.3266 25.788 18.9521 25.9045 18.6101C25.9605 18.4451 26.013 18.2786 26.0615 18.1106C26.1595 17.7706 26.4065 17.5066 26.7225 17.4041L28.0625 16.9686C28.248 16.9081 28.381 16.7461 28.4045 16.5526C28.468 16.0216 28.5 15.4996 28.5 15.0001C28.5 14.5006 28.468 13.9786 28.404 13.4481C28.381 13.2546 28.2475 13.0926 28.062 13.0321L26.722 12.5966C26.406 12.4941 26.159 12.2296 26.061 11.8896C26.0125 11.7216 25.96 11.5551 25.904 11.3901C25.788 11.0481 25.84 10.6736 26.044 10.3886L26.843 9.27161C26.9555 9.11411 26.9675 8.90611 26.873 8.73661C26.3625 7.82411 25.7395 6.97561 25.022 6.21461C24.8865 6.07061 24.678 6.02011 24.4925 6.08611L23.284 6.51061C22.976 6.61961 22.634 6.55811 22.3695 6.34761C22.2375 6.24261 22.103 6.14061 21.9665 6.04211C21.6855 5.84011 21.5205 5.50811 21.5245 5.15411L21.5385 3.93361C21.5405 3.73761 21.4285 3.55861 21.2515 3.47511C20.2965 3.02511 19.284 2.69961 18.243 2.50761C18.049 2.47261 17.8505 2.55461 17.7395 2.71761L17.0925 3.66661C16.901 3.94761 16.592 4.10361 16.2565 4.10261C16.0855 4.09811 15.9135 4.09811 15.7415 4.10261C15.398 4.11061 15.0975 3.94761 14.906 3.66661L14.2595 2.71761C14.148 2.55411 13.9515 2.47161 13.7555 2.50761C12.7145 2.69961 11.7025 3.02511 10.747 3.47511C10.57 3.55861 10.458 3.73761 10.46 3.93311L10.474 5.15361C10.478 5.50761 10.313 5.83961 10.0325 6.04161C9.896 6.14011 9.7615 6.24161 9.6295 6.34661C9.3655 6.55661 9.0235 6.61761 8.7145 6.50961L7.506 6.08511C7.3195 6.01961 7.112 6.07011 6.9765 6.21361C6.259 6.97411 5.6365 7.82261 5.126 8.73561C5.0315 8.90461 5.043 9.11311 5.1555 9.27061L5.9545 10.3876C6.1585 10.6726 6.2105 11.0471 6.094 11.3891C6.04 11.5556 5.9875 11.7221 5.9385 11.8901ZM6.7695 9.80761L6.1575 8.95211C6.5415 8.30661 6.9875 7.69911 7.487 7.13911L8.384 7.45411C9.0195 7.67711 9.718 7.55561 10.253 7.13011C10.3725 7.03511 10.494 6.94311 10.6175 6.85411C11.162 6.46161 11.4825 5.82211 11.4745 5.14311L11.464 4.24861C12.1565 3.94611 12.879 3.71361 13.619 3.55511L14.079 4.23061C14.463 4.79411 15.097 5.11711 15.766 5.10311C15.9215 5.09961 16.078 5.09961 16.232 5.10311C16.909 5.12461 17.5355 4.79411 17.919 4.23061L18.38 3.55511C19.1205 3.71361 19.843 3.94611 20.5355 4.24861L20.525 5.14311C20.5175 5.82211 20.838 6.46161 21.3825 6.85411C21.506 6.94311 21.6275 7.03511 21.747 7.13011C22.2825 7.55611 22.981 7.67761 23.6165 7.45411L24.5135 7.13911C25.0135 7.69911 25.459 8.30711 25.843 8.95211L25.231 9.80711C24.84 10.3536 24.738 11.0656 24.958 11.7121C25.009 11.8626 25.0565 12.0141 25.101 12.1676C25.291 12.8266 25.782 13.3426 26.4135 13.5481L27.4455 13.8831C27.4815 14.2651 27.5 14.6396 27.5 15.0001C27.5 15.3606 27.4815 15.7351 27.445 16.1171L26.4135 16.4521C25.7815 16.6571 25.291 17.1731 25.1005 17.8326C25.0565 17.9861 25.0085 18.1376 24.9575 18.2876C24.7375 18.9336 24.84 19.6461 25.2305 20.1926L25.842 21.0481C25.458 21.6936 25.012 22.3011 24.5125 22.8611L23.6155 22.5461C22.979 22.3226 22.2815 22.4441 21.7465 22.8701C21.627 22.9651 21.5055 23.0571 21.382 23.1461C20.8375 23.5386 20.517 24.1781 20.525 24.8571L20.5355 25.7516C19.843 26.0541 19.1205 26.2866 18.3805 26.4451L17.9205 25.7696C17.546 25.2201 16.937 24.8966 16.284 24.8966C16.267 24.8966 16.2505 24.8966 16.2335 24.8971C16.078 24.9006 15.9215 24.9006 15.7675 24.8971C15.0865 24.8816 14.464 25.2061 14.0805 25.7696L13.62 26.4451C12.8795 26.2866 12.157 26.0541 11.4645 25.7516L11.475 24.8571C11.4825 24.1781 11.162 23.5386 10.6175 23.1461C10.494 23.0571 10.3725 22.9651 10.253 22.8701C9.7175 22.4441 9.019 22.3221 8.3835 22.5461L7.4865 22.8611C6.9865 22.3011 6.541 21.6931 6.157 21.0481L6.769 20.1931C7.16 19.6466 7.262 18.9346 7.042 18.2881C6.991 18.1376 6.9435 17.9861 6.899 17.8326C6.709 17.1736 6.218 16.6576 5.5865 16.4521L4.5545 16.1171C4.5185 15.7351 4.5 15.3606 4.5 15.0001C4.5 14.6396 4.5185 14.2651 4.555 13.8831L5.587 13.5481C6.219 13.3426 6.7095 12.8266 6.8995 12.1676C6.9435 12.0141 6.9915 11.8626 7.0425 11.7126C7.2625 11.0666 7.1605 10.3541 6.7695 9.80761Z"/>
        <path d="M30.8415 9.0255L29.884 9.3445C27.597 3.7375 22.0885 0 15.9995 0C9.73501 0 4.07502 3.9495 1.91602 9.8275L2.85452 10.172C4.87002 4.686 10.1525 1 15.9995 1C21.661 1 26.7845 4.4615 28.934 9.6615L27.8415 10.0255C27.668 10.0835 27.5395 10.232 27.5075 10.412C27.4755 10.5925 27.5445 10.776 27.6875 10.8905L30.1875 12.8905C30.2775 12.9625 30.3875 13 30.4995 13C30.56 13 30.6205 12.9895 30.678 12.967C30.8435 12.9035 30.9635 12.757 30.9925 12.582L31.4925 9.582C31.5215 9.409 31.4575 9.2335 31.324 9.1195C31.1905 9.0055 31.0075 8.9695 30.8415 9.0255ZM30.1465 11.577L29.0295 10.6835L30.37 10.237L30.1465 11.577Z"/>
        <path d="M1.08275 20.493L1.98675 20.3425C4.19275 26.125 9.79775 30 16.0003 30C22.2647 30 27.9248 26.0505 30.0837 20.1725L29.1453 19.828C27.1298 25.314 21.8472 29 16.0003 29C10.2788 29 5.10625 25.466 2.99775 20.174L4.08225 19.993C4.25725 19.964 4.40375 19.844 4.46725 19.6785C4.53025 19.5125 4.50125 19.326 4.39075 19.1875L2.39075 16.6875C2.27625 16.544 2.09225 16.474 1.91225 16.5075C1.73225 16.5395 1.58375 16.668 1.52575 16.8415L0.525753 19.8415C0.470253 20.008 0.505753 20.191 0.619753 20.3245C0.716253 20.437 0.855253 20.5 1.00025 20.5C1.02775 20.5 1.05475 20.498 1.08275 20.493ZM2.18375 18.03L3.07725 19.147L1.73725 19.3705L2.18375 18.03Z"/>
    </symbol>
    <symbol id="scss" xmlns="http://www.w3.org/2000/svg" viewBox="0 0 24 24">
        <path d="M20.657,13.355c-0.838,0.004-1.564,0.206-2.173,0.506c-0.223-0.444-0.448-0.835-0.486-1.126 c-0.044-0.339-0.095-0.542-0.042-0.946c0.053-0.404,0.287-0.976,0.284-1.019c-0.003-0.043-0.052-0.249-0.536-0.252 c-0.484-0.003-0.897,0.093-0.946,0.221c-0.049,0.128-0.142,0.415-0.2,0.715c-0.085,0.438-0.965,2.002-1.465,2.82 c-0.164-0.319-0.303-0.601-0.332-0.823c-0.044-0.339-0.095-0.542-0.042-0.946c0.053-0.404,0.287-0.976,0.284-1.019 c-0.003-0.043-0.052-0.249-0.536-0.252c-0.484-0.003-0.897,0.093-0.946,0.221c-0.049,0.128-0.101,0.426-0.2,0.715 c-0.099,0.289-1.27,2.897-1.576,3.573c-0.156,0.344-0.292,0.621-0.388,0.81c0,0-0.001-0.001-0.001-0.001s-0.006,0.013-0.016,0.034 c-0.082,0.161-0.131,0.25-0.131,0.25s0.001,0.001,0.001,0.003c-0.065,0.118-0.135,0.228-0.17,0.228 c-0.024,0-0.073-0.314,0.011-0.746c0.174-0.905,0.593-2.316,0.588-2.364c-0.002-0.025,0.078-0.271-0.273-0.399 c-0.341-0.125-0.463,0.083-0.494,0.084c-0.03,0.001-0.053,0.074-0.053,0.074s0.38-1.587-0.725-1.587 c-0.691,0-1.648,0.756-2.12,1.441c-0.298,0.162-0.935,0.51-1.61,0.881c-0.26,0.143-0.524,0.288-0.776,0.427 c-0.017-0.019-0.034-0.038-0.052-0.057c-1.34-1.43-3.818-2.441-3.713-4.363c0.038-0.699,0.281-2.539,4.76-4.771 c3.669-1.828,6.607-1.325,7.114-0.21c0.725,1.593-1.57,4.554-5.38,4.981c-1.452,0.163-2.216-0.4-2.406-0.609 c-0.2-0.221-0.23-0.231-0.305-0.189c-0.122,0.067-0.045,0.262,0,0.378c0.114,0.296,0.581,0.821,1.377,1.082 c0.7,0.23,2.405,0.356,4.466-0.441c2.309-0.893,4.112-3.377,3.582-5.454c-0.539-2.112-4.04-2.806-7.355-1.629 C5.706,4.293,3.571,5.393,2.036,6.829c-1.825,1.707-2.117,3.194-1.997,3.815c0.426,2.206,3.467,3.643,4.685,4.708 c-0.06,0.033-0.116,0.064-0.168,0.093c-0.611,0.302-2.929,1.515-3.509,2.797c-0.658,1.454,0.105,2.497,0.609,2.638 c1.564,0.435,3.169-0.348,4.031-1.634c0.862-1.286,0.757-2.961,0.361-3.725c-0.005-0.009-0.01-0.019-0.015-0.028 c0.158-0.093,0.318-0.188,0.478-0.282c0.311-0.182,0.616-0.353,0.88-0.497c-0.148,0.406-0.257,0.892-0.313,1.595 C7.013,17.133,7.352,18.2,7.794,18.62c0.195,0.185,0.429,0.189,0.578,0.189c0.515,0,0.75-0.428,1.009-0.935 c0.317-0.622,0.599-1.345,0.599-1.345s-0.353,1.955,0.61,1.955c0.351,0,0.704-0.455,0.861-0.687c0,0.003,0.001,0.004,0.001,0.004 s0.009-0.015,0.027-0.045c0.036-0.056,0.057-0.091,0.057-0.091s0.001-0.004,0.002-0.01c0.141-0.245,0.454-0.803,0.923-1.724 c0.606-1.19,1.187-2.68,1.187-2.68s0.054,0.364,0.231,0.967c0.104,0.354,0.326,0.746,0.5,1.122 c-0.141,0.195-0.227,0.307-0.227,0.307s0.001,0.002,0.002,0.006c-0.112,0.149-0.238,0.31-0.37,0.467 c-0.478,0.57-1.048,1.22-1.124,1.408c-0.09,0.221-0.069,0.384,0.105,0.515c0.127,0.096,0.353,0.11,0.589,0.095 c0.43-0.029,0.732-0.136,0.882-0.2c0.233-0.082,0.504-0.212,0.758-0.399c0.469-0.345,0.752-0.839,0.725-1.492 c-0.015-0.36-0.13-0.717-0.275-1.054c0.043-0.061,0.085-0.123,0.128-0.186c0.74-1.081,1.314-2.27,1.314-2.27 s0.054,0.364,0.231,0.967c0.09,0.305,0.266,0.638,0.426,0.964c-0.696,0.565-1.127,1.222-1.277,1.653 c-0.277,0.797-0.06,1.158,0.347,1.24c0.184,0.037,0.445-0.047,0.64-0.13c0.244-0.081,0.536-0.215,0.81-0.416 c0.469-0.345,0.92-0.828,0.893-1.482c-0.012-0.298-0.093-0.593-0.203-0.877c0.59-0.246,1.353-0.382,2.325-0.269 c2.086,0.244,2.495,1.546,2.417,2.091c-0.078,0.545-0.516,0.845-0.662,0.935c-0.146,0.09-0.191,0.122-0.179,0.189 c0.018,0.098,0.085,0.094,0.21,0.073c0.172-0.029,1.095-0.443,1.135-1.45C24.049,14.746,22.825,13.343,20.657,13.355z M4.578,18.775 c-0.691,0.754-1.656,1.039-2.07,0.799c-0.447-0.259-0.27-1.369,0.578-2.169c0.517-0.487,1.184-0.936,1.627-1.213 c0.101-0.061,0.249-0.15,0.429-0.257c0.03-0.017,0.047-0.026,0.047-0.026l-0.001-0.001c0.035-0.021,0.07-0.042,0.107-0.064 C5.603,16.982,5.303,17.984,4.578,18.775z M9.612,15.353c-0.241,0.587-0.744,2.088-1.051,2.007c-0.263-0.069-0.423-1.21-0.053-2.333 c0.187-0.565,0.585-1.241,0.82-1.503c0.377-0.422,0.792-0.56,0.893-0.389C10.35,13.354,9.763,14.986,9.612,15.353z M13.77,17.338 c-0.102,0.053-0.196,0.087-0.239,0.061c-0.032-0.019,0.042-0.089,0.042-0.089s0.52-0.56,0.725-0.814 c0.119-0.148,0.257-0.324,0.408-0.521c0.001,0.02,0.002,0.039,0.002,0.058C14.707,16.703,14.059,17.156,13.77,17.338z M16.974,16.607c-0.076-0.054-0.063-0.229,0.187-0.774c0.098-0.214,0.322-0.574,0.712-0.919c0.045,0.142,0.073,0.277,0.072,0.404 C17.94,16.162,17.338,16.477,16.974,16.607z"/>
    </symbol>
    <symbol id="support" viewBox="0 0 30 30" xmlns="http://www.w3.org/2000/svg">
        <path d="M25.7319 5.69242C25.0207 6.40363 23.8677 6.40363 23.1565 5.69242C22.4452 4.98121 22.4452 3.82815 23.1565 3.11693C23.8677 2.40572 25.0207 2.40572 25.7319 3.11693C26.4432 3.82815 26.4432 4.98121 25.7319 5.69242Z" stroke-width="1.2" stroke-miterlimit="10" stroke-linecap="round" stroke-linejoin="round"/>
        <path d="M6.84327 26.4021C6.13206 27.1133 4.97899 27.1133 4.26778 26.4021C3.55657 25.6909 3.55657 24.5379 4.26778 23.8267C4.97899 23.1154 6.13206 23.1154 6.84327 23.8267C7.55448 24.5379 7.55448 25.6909 6.84327 26.4021Z" stroke-width="1.2" stroke-miterlimit="10" stroke-linecap="round" stroke-linejoin="round"/>
        <path d="M12.2383 28.4873C13.1309 28.6658 14.0541 28.7595 14.9992 28.7595C22.7312 28.7595 28.9992 22.4915 28.9992 14.7595C28.9992 11.3842 27.8045 8.28806 25.8152 5.87033" stroke-width="1.2" stroke-miterlimit="10" stroke-linecap="round" stroke-linejoin="round"/>
        <path d="M17.7875 1.03728C16.8866 0.855279 15.9545 0.759726 15 0.759726C7.26802 0.759726 1 7.02774 1 14.7597C1 18.135 2.19467 21.2312 4.18398 23.6489" stroke-width="1.2" stroke-miterlimit="10" stroke-linecap="round" stroke-linejoin="round"/>
        <path d="M14.9995 18.8929C12.7167 18.8929 10.8661 17.0423 10.8661 14.7595C10.8661 12.4767 12.7167 10.6261 14.9995 10.6261C17.2823 10.6261 19.133 12.4767 19.133 14.7595C19.133 17.0423 17.2823 18.8929 14.9995 18.8929ZM23.2422 12.9752C23.0254 11.966 22.6283 11.0239 22.0858 10.1844L23.1762 9.09392L20.6591 6.57865L19.5695 7.6682C18.73 7.12567 17.7879 6.7286 16.7788 6.51183V4.97087H13.2203V6.51183C12.2112 6.7286 11.2691 7.12567 10.4296 7.6682L9.34002 6.57865L6.82292 9.09392L7.91333 10.1844C7.3708 11.0239 6.97373 11.966 6.7569 12.9752H5.2119L5.20996 16.5336H6.75685C6.97368 17.5427 7.37074 18.4849 7.91327 19.3244L6.81871 20.419L9.33398 22.9362L10.4295 21.8406C11.269 22.3832 12.2112 22.7803 13.2203 22.9971V24.5481H16.7788V22.9971C17.7879 22.7803 18.7301 22.3832 19.5696 21.8406L20.6651 22.9362L23.1804 20.419L22.0858 19.3244C22.6283 18.4849 23.0254 17.5427 23.2422 16.5336H24.7891V12.9752H23.2422Z" stroke-width="1.2" stroke-miterlimit="10" stroke-linecap="round" stroke-linejoin="round"/>
    </symbol>
    <symbol id="w3c" xmlns="http://www.w3.org/2000/svg" viewBox="0 0 50 50">
        <path d="M 0 13.019531 L 8 38.980469 L 13.089844 22.980469 L 18 38.980469 L 25.367188 16.015625 L 31.625 16.015625 L 26 24.46875 L 26 26 L 27.308594 26 C 32.457031 26 33 29.140625 33 30.691406 C 33 35.234375 29.980469 35.984375 29.0625 35.984375 C 28.191406 35.984375 27.433594 35.511719 26.792969 34.949219 C 26.148438 34.386719 25.628906 33.617188 25.234375 32.640625 L 22.550781 33.722656 C 23.097656 35.335938 23.9375 36.617188 25.074219 37.5625 C 26.207031 38.507813 27.535156 38.980469 29.0625 38.980469 C 31.09375 38.980469 32.746094 38.183594 34.023438 36.59375 C 35.300781 35 35.9375 33.035156 35.9375 30.695313 C 35.9375 28.371094 34.875 24.128906 30 23.261719 L 36 14.730469 L 36 13.019531 L 22.746094 13.019531 L 18 28.875 L 13.253906 13.019531 L 9.820313 13.019531 L 11.390625 18.296875 L 8.179688 28.875 L 3.4375 13.019531 Z M 49 13.019531 L 47.3125 16.414063 C 47.3125 16.414063 46.480469 14.914063 45.65625 14.230469 C 44.875 13.578125 43.859375 12.976563 42.574219 13.105469 C 41.332031 13.230469 39.933594 14.292969 38.988281 16.066406 C 37.921875 18.082031 37.554688 20.125 37.546875 22.378906 C 37.539063 25.535156 38.734375 27.691406 38.734375 27.691406 C 38.734375 27.691406 38.460938 26.6875 38.503906 24.992188 C 38.535156 23.933594 38.542969 22.785156 39.359375 20.40625 C 40.046875 18.417969 41.617188 16.804688 43.003906 16.527344 C 44.082031 16.308594 44.769531 16.46875 45.828125 17.191406 C 47.085938 18.054688 48 19.613281 48 19.613281 L 50 15.941406 Z M 36.332031 31.347656 C 36.332031 31.347656 36.820313 32.878906 37.125 33.53125 C 37.296875 33.90625 37.835938 35.050781 38.597656 36.046875 C 39.308594 36.976563 40.6875 38.578125 42.785156 38.9375 C 44.886719 39.300781 46.328125 38.382813 46.6875 38.160156 C 47.042969 37.9375 47.796875 37.324219 48.269531 36.828125 C 48.769531 36.308594 49.238281 35.648438 49.5 35.253906 C 49.6875 34.964844 50 34.378906 50 34.378906 L 49.5 31.832031 C 49.5 31.832031 48.628906 33.347656 48.085938 33.933594 C 47.542969 34.519531 46.570313 35.546875 45.375 36.0625 C 44.175781 36.574219 43.542969 36.671875 42.359375 36.5625 C 41.175781 36.449219 40.074219 35.78125 39.6875 35.503906 C 39.304688 35.226563 38.320313 34.40625 37.761719 33.640625 C 37.203125 32.875 36.332031 31.347656 36.332031 31.347656 Z"/>
    </symbol>
    <symbol id="widget" viewBox="0 0 28 28" xmlns="http://www.w3.org/2000/svg">
        <path d="M10.1 16.2529H1.70937C0.779414 16.2529 0.03125 17.0011 0.03125 17.9311V26.3217C0.03125 27.2516 0.779414 27.9998 1.70937 27.9998H10.1C11.03 27.9998 11.7781 27.2516 11.7781 26.3217V17.9311C11.7781 17.0011 11.03 16.2529 10.1 16.2529ZM10.6594 26.3217C10.6594 26.6293 10.4077 26.8811 10.1 26.8811H1.70937C1.40172 26.8811 1.15 26.6293 1.15 26.3217V17.9311C1.15 17.6234 1.40172 17.3717 1.70937 17.3717H10.1C10.4077 17.3717 10.6594 17.6234 10.6594 17.9311V26.3217Z"/>
        <path d="M23.5248 16.2529H15.1342C14.2042 16.2529 13.4561 17.0011 13.4561 17.9311V26.3217C13.4561 27.2516 14.2042 27.9998 15.1342 27.9998H23.5248C24.4548 27.9998 25.2029 27.2516 25.2029 26.3217V17.9311C25.2029 17.0011 24.4548 16.2529 23.5248 16.2529ZM24.0842 26.3217C24.0842 26.6293 23.8325 26.8811 23.5248 26.8811H15.1342C14.8265 26.8811 14.5748 26.6293 14.5748 26.3217V17.9311C14.5748 17.6234 14.8265 17.3717 15.1342 17.3717H23.5248C23.8325 17.3717 24.0842 17.6234 24.0842 17.9311V26.3217Z"/>
        <path d="M10.1 2.82812H1.70937C0.779414 2.82812 0.03125 3.57629 0.03125 4.50625V12.8969C0.03125 13.8268 0.779414 14.575 1.70937 14.575H10.1C11.03 14.575 11.7781 13.8268 11.7781 12.8969V4.50625C11.7781 3.57629 11.03 2.82812 10.1 2.82812ZM10.6594 12.8969C10.6594 13.2045 10.4077 13.4563 10.1 13.4563H1.70937C1.40172 13.4563 1.15 13.2045 1.15 12.8969V4.50625C1.15 4.19859 1.40172 3.94687 1.70937 3.94687H10.1C10.4077 3.94687 10.6594 4.19859 10.6594 4.50625V12.8969Z"/>
        <path d="M26.3217 0.03125H15.1342C14.2042 0.03125 13.4561 0.779414 13.4561 1.70937V12.8969C13.4561 13.8268 14.2042 14.575 15.1342 14.575H26.3217C27.2516 14.575 27.9998 13.8268 27.9998 12.8969V1.70937C27.9998 0.779414 27.2516 0.03125 26.3217 0.03125ZM26.8811 12.8969C26.8811 13.2045 26.6293 13.4562 26.3217 13.4562H15.1342C14.8265 13.4562 14.5748 13.2045 14.5748 12.8969V1.70937C14.5748 1.40172 14.8265 1.15 15.1342 1.15H26.3217C26.6293 1.15 26.8811 1.40172 26.8811 1.70937V12.8969Z"/>
        <path d="M24.2453 4.38717L19.6094 9.02999L17.2111 6.63167C16.9874 6.41491 16.6378 6.4219 16.421 6.64565C16.2112 6.86241 16.2112 7.20503 16.421 7.42178L19.2179 10.2187C19.4346 10.4354 19.7912 10.4354 20.008 10.2187L25.0424 5.18428C25.2591 4.96053 25.2521 4.61092 25.0284 4.39417C24.8116 4.17741 24.462 4.17741 24.2453 4.38717Z"/>
    </symbol>
</svg>