<svg width="38" height="38" viewBox="0 0 38 38" fill="none" xmlns="http://www.w3.org/2000/svg">
<path d="M27.8977 17.0204C27.2169 17.0204 26.6785 16.4662 26.6785 15.8012C26.6785 15.2154 26.0927 13.9962 25.111 12.9354C24.1452 11.9062 23.0843 11.3045 22.1977 11.3045C21.5168 11.3045 20.9785 10.7504 20.9785 10.0854C20.9785 9.42038 21.5327 8.86621 22.1977 8.86621C23.781 8.86621 25.4435 9.72121 26.9002 11.257C28.2618 12.6979 29.1327 14.487 29.1327 15.7854C29.1327 16.4662 28.5785 17.0204 27.8977 17.0204Z" fill="url(#paint0_linear_2594_1371)"/>
<path d="M33.6143 17.0212C32.9334 17.0212 32.3951 16.467 32.3951 15.802C32.3951 10.1812 27.8193 5.62116 22.2143 5.62116C21.5334 5.62116 20.9951 5.06699 20.9951 4.40199C20.9951 3.73699 21.5335 3.16699 22.1985 3.16699C29.1651 3.16699 34.8335 8.83532 34.8335 15.802C34.8335 16.467 34.2793 17.0212 33.6143 17.0212Z" fill="url(#paint1_linear_2594_1371)"/>
<path d="M17.4952 23.6712L14.566 26.6003C13.9485 27.2178 12.9668 27.2178 12.3335 26.6162C12.1593 26.442 11.9852 26.2837 11.811 26.1095C10.1802 24.4628 8.70768 22.737 7.39352 20.932C6.09518 19.127 5.05018 17.322 4.29018 15.5328C3.54602 13.7278 3.16602 12.002 3.16602 10.3553C3.16602 9.27866 3.35602 8.24949 3.73602 7.29949C4.11602 6.33366 4.71768 5.44699 5.55685 4.65533C6.57018 3.65783 7.67852 3.16699 8.85018 3.16699C9.29352 3.16699 9.73685 3.26199 10.1327 3.45199C10.5443 3.64199 10.9085 3.92699 11.1935 4.33866L14.8668 9.51616C15.1518 9.91199 15.3577 10.2762 15.5002 10.6245C15.6427 10.957 15.7218 11.2895 15.7218 11.5903C15.7218 11.9703 15.611 12.3503 15.3893 12.7145C15.1835 13.0787 14.8827 13.4587 14.5027 13.8387L13.2993 15.0895C13.1252 15.2637 13.046 15.4695 13.046 15.7228C13.046 15.8495 13.0618 15.9603 13.0935 16.087C13.141 16.2137 13.1885 16.3087 13.2202 16.4037C13.5052 16.9262 13.996 17.607 14.6927 18.4303C15.4052 19.2537 16.1652 20.0928 16.9885 20.932C17.1468 21.0903 17.321 21.2487 17.4793 21.407C18.1127 22.0245 18.1285 23.0378 17.4952 23.6712Z" fill="url(#paint2_linear_2594_1371)"/>
<path d="M34.786 29.023C34.786 29.4663 34.7069 29.9255 34.5485 30.3688C34.501 30.4955 34.4535 30.6221 34.3902 30.7488C34.121 31.3188 33.7727 31.8571 33.3135 32.3638C32.5377 33.2188 31.6827 33.8363 30.7169 34.2321C30.701 34.2321 30.6852 34.248 30.6694 34.248C29.7352 34.628 28.7219 34.8338 27.6294 34.8338C26.0144 34.8338 24.2885 34.4538 22.4677 33.678C20.6469 32.9021 18.826 31.8571 17.021 30.543C16.4035 30.0838 15.786 29.6246 15.2002 29.1338L20.3777 23.9563C20.821 24.2888 21.2169 24.5421 21.5494 24.7163C21.6285 24.748 21.7235 24.7955 21.8344 24.843C21.961 24.8905 22.0877 24.9063 22.2302 24.9063C22.4994 24.9063 22.7052 24.8113 22.8794 24.6371L24.0827 23.4496C24.4785 23.0538 24.8585 22.753 25.2227 22.563C25.5869 22.3413 25.951 22.2305 26.3469 22.2305C26.6477 22.2305 26.9644 22.2938 27.3127 22.4363C27.661 22.5788 28.0252 22.7846 28.421 23.0538L33.6619 26.7746C34.0735 27.0596 34.3585 27.3921 34.5327 27.788C34.691 28.1838 34.786 28.5796 34.786 29.023Z" fill="url(#paint3_linear_2594_1371)"/>
<defs>
<linearGradient id="paint0_linear_2594_1371" x1="20.3436" y1="-7.55861" x2="37.1497" y2="-2.08753" gradientUnits="userSpaceOnUse">
<stop stop-color="#159F36"/>
<stop offset="1" stop-color="#CBDA1B"/>
</linearGradient>
<linearGradient id="paint1_linear_2594_1371" x1="19.9176" y1="-24.7393" x2="48.4452" y2="-15.4629" gradientUnits="userSpaceOnUse">
<stop stop-color="#159F36"/>
<stop offset="1" stop-color="#CBDA1B"/>
</linearGradient>
<linearGradient id="paint2_linear_2594_1371" x1="2.01391" y1="-44.9713" x2="34.425" y2="-38.4388" gradientUnits="userSpaceOnUse">
<stop stop-color="#159F36"/>
<stop offset="1" stop-color="#CBDA1B"/>
</linearGradient>
<linearGradient id="paint3_linear_2594_1371" x1="13.6752" y1="-3.15625" x2="49.2226" y2="14.8271" gradientUnits="userSpaceOnUse">
<stop stop-color="#159F36"/>
<stop offset="1" stop-color="#CBDA1B"/>
</linearGradient>
</defs>
</svg>
