<svg version="1.2" xmlns="http://www.w3.org/2000/svg" viewBox="0 0 11 572" width="11" height="572">
	<title>contact-line-svg</title>
	<defs>
		<clipPath clipPathUnits="userSpaceOnUse" id="cp1">
			<path d="m1 9.5c0 5.25 4.25 9.5 9.5 9.5q0.25 0 0.5-0.01v4.02q-0.25-0.01-0.5-0.01c-5.25 0-9.5 4.25-9.5 9.5 0 5.25 4.25 9.5 9.5 9.5q0.25 0 0.5-0.01v4.02q-0.25-0.01-0.5-0.01c-5.25 0-9.5 4.25-9.5 9.5 0 5.25 4.25 9.5 9.5 9.5q0.25 0 0.5-0.01v4.02q-0.25-0.01-0.5-0.01c-5.25 0-9.5 4.25-9.5 9.5 0 5.25 4.25 9.5 9.5 9.5q0.25 0 0.5-0.01v4.02q-0.25-0.01-0.5-0.01c-5.25 0-9.5 4.25-9.5 9.5 0 5.25 4.25 9.5 9.5 9.5q0.25 0 0.5-0.01v4.02q-0.25-0.01-0.5-0.01c-5.25 0-9.5 4.25-9.5 9.5 0 5.25 4.25 9.5 9.5 9.5q0.25 0 0.5-0.01v4.02q-0.25-0.01-0.5-0.01c-5.25 0-9.5 4.25-9.5 9.5 0 5.25 4.25 9.5 9.5 9.5q0.25 0 0.5-0.01v4.02q-0.25-0.01-0.5-0.01c-5.25 0-9.5 4.25-9.5 9.5 0 5.25 4.25 9.5 9.5 9.5q0.25 0 0.5-0.01v4.02q-0.25-0.01-0.5-0.01c-5.25 0-9.5 4.25-9.5 9.5 0 5.25 4.25 9.5 9.5 9.5q0.25 0 0.5-0.01v4.02q-0.25-0.01-0.5-0.01c-5.25 0-9.5 4.25-9.5 9.5 0 5.25 4.25 9.5 9.5 9.5q0.25 0 0.5-0.01v4.02q-0.25-0.01-0.5-0.01c-5.25 0-9.5 4.25-9.5 9.5 0 5.25 4.25 9.5 9.5 9.5q0.25 0 0.5-0.01v4.02q-0.25-0.01-0.5-0.01c-5.25 0-9.5 4.25-9.5 9.5 0 5.25 4.25 9.5 9.5 9.5q0.25 0 0.5-0.01v4.02q-0.25-0.01-0.5-0.01c-5.25 0-9.5 4.25-9.5 9.5 0 5.25 4.25 9.5 9.5 9.5q0.25 0 0.5-0.01v4.02q-0.25-0.01-0.5-0.01c-5.25 0-9.5 4.25-9.5 9.5 0 5.25 4.25 9.5 9.5 9.5q0.25 0 0.5-0.01v4.02q-0.25-0.01-0.5-0.01c-5.25 0-9.5 4.25-9.5 9.5 0 5.25 4.25 9.5 9.5 9.5q0.25 0 0.5-0.01v4.02q-0.25-0.01-0.5-0.01c-5.25 0-9.5 4.25-9.5 9.5 0 5.25 4.25 9.5 9.5 9.5q0.25 0 0.5-0.01v4.02q-0.25-0.01-0.5-0.01c-5.25 0-9.5 4.25-9.5 9.5 0 5.25 4.25 9.5 9.5 9.5q0.25 0 0.5-0.01v4.02q-0.25-0.01-0.5-0.01c-5.25 0-9.5 4.25-9.5 9.5 0 5.25 4.25 9.5 9.5 9.5q0.25 0 0.5-0.01v4.02q-0.25-0.01-0.5-0.01c-5.25 0-9.5 4.25-9.5 9.5 0 5.25 4.25 9.5 9.5 9.5q0.25 0 0.5-0.01v4.02q-0.25-0.01-0.5-0.01c-5.25 0-9.5 4.25-9.5 9.5 0 5.25 4.25 9.5 9.5 9.5q0.25 0 0.5-0.01v4.02q-0.25-0.01-0.5-0.01c-5.25 0-9.5 4.25-9.5 9.5 0 5.25 4.25 9.5 9.5 9.5q0.25 0 0.5-0.01v4.02q-0.25-0.01-0.5-0.01c-5.25 0-9.5 4.25-9.5 9.5 0 5.25 4.25 9.5 9.5 9.5q0.25 0 0.5-0.01v4.02q-0.25-0.01-0.5-0.01c-5.25 0-9.5 4.25-9.5 9.5 0 5.25 4.25 9.5 9.5 9.5q0.25 0 0.5-0.01v4.02q-0.25-0.01-0.5-0.01c-5.25 0-9.5 4.25-9.5 9.5 0 5.25 4.25 9.5 9.5 9.5q0.25 0 0.5-0.01v4.02q-0.25-0.01-0.5-0.01c-5.25 0-9.5 4.25-9.5 9.5 0 5.25 4.25 9.5 9.5 9.5q0.25 0 0.5-0.01v1.01h-12v-572h11.5c-5.25 0-9.5 4.25-9.5 9.5zm10-9.5v0.01q-0.25-0.01-0.5-0.01z"/>
		</clipPath>
	</defs>
	<style>
		.s0 { fill: #f8f8f8 } 
		.s1 { fill: #e7e7e7 } 
	</style>
	<path id="Layer" fill-rule="evenodd" class="s0" d="m1 9.5c0 5.2 4.3 9.5 9.5 9.5q0.3 0 0.5 0v4q-0.2 0-0.5 0c-5.2 0-9.5 4.3-9.5 9.5 0 5.2 4.3 9.5 9.5 9.5q0.3 0 0.5 0v4q-0.2 0-0.5 0c-5.2 0-9.5 4.3-9.5 9.5 0 5.2 4.3 9.5 9.5 9.5q0.3 0 0.5 0v4q-0.2 0-0.5 0c-5.2 0-9.5 4.3-9.5 9.5 0 5.2 4.3 9.5 9.5 9.5q0.3 0 0.5 0v4q-0.2 0-0.5 0c-5.2 0-9.5 4.3-9.5 9.5 0 5.2 4.3 9.5 9.5 9.5q0.3 0 0.5 0v4q-0.2 0-0.5 0c-5.2 0-9.5 4.3-9.5 9.5 0 5.2 4.3 9.5 9.5 9.5q0.3 0 0.5 0v4q-0.2 0-0.5 0c-5.2 0-9.5 4.3-9.5 9.5 0 5.2 4.3 9.5 9.5 9.5q0.3 0 0.5 0v4q-0.2 0-0.5 0c-5.2 0-9.5 4.3-9.5 9.5 0 5.2 4.3 9.5 9.5 9.5q0.3 0 0.5 0v4q-0.2 0-0.5 0c-5.2 0-9.5 4.3-9.5 9.5 0 5.2 4.3 9.5 9.5 9.5q0.3 0 0.5 0v4q-0.2 0-0.5 0c-5.2 0-9.5 4.3-9.5 9.5 0 5.2 4.3 9.5 9.5 9.5q0.3 0 0.5 0v4q-0.2 0-0.5 0c-5.2 0-9.5 4.3-9.5 9.5 0 5.2 4.3 9.5 9.5 9.5q0.3 0 0.5 0v4q-0.2 0-0.5 0c-5.2 0-9.5 4.3-9.5 9.5 0 5.2 4.3 9.5 9.5 9.5q0.3 0 0.5 0v4q-0.2 0-0.5 0c-5.2 0-9.5 4.3-9.5 9.5 0 5.2 4.3 9.5 9.5 9.5q0.3 0 0.5 0v4q-0.2 0-0.5 0c-5.2 0-9.5 4.3-9.5 9.5 0 5.2 4.3 9.5 9.5 9.5q0.3 0 0.5 0v4q-0.2 0-0.5 0c-5.2 0-9.5 4.3-9.5 9.5 0 5.2 4.3 9.5 9.5 9.5q0.3 0 0.5 0v4q-0.2 0-0.5 0c-5.2 0-9.5 4.3-9.5 9.5 0 5.2 4.3 9.5 9.5 9.5q0.3 0 0.5 0v4q-0.2 0-0.5 0c-5.2 0-9.5 4.3-9.5 9.5 0 5.2 4.3 9.5 9.5 9.5q0.3 0 0.5 0v4q-0.2 0-0.5 0c-5.2 0-9.5 4.3-9.5 9.5 0 5.2 4.3 9.5 9.5 9.5q0.3 0 0.5 0v4q-0.2 0-0.5 0c-5.2 0-9.5 4.3-9.5 9.5 0 5.2 4.3 9.5 9.5 9.5q0.3 0 0.5 0v4q-0.2 0-0.5 0c-5.2 0-9.5 4.3-9.5 9.5 0 5.2 4.3 9.5 9.5 9.5q0.3 0 0.5 0v4q-0.2 0-0.5 0c-5.2 0-9.5 4.3-9.5 9.5 0 5.2 4.3 9.5 9.5 9.5q0.3 0 0.5 0v4q-0.2 0-0.5 0c-5.2 0-9.5 4.3-9.5 9.5 0 5.2 4.3 9.5 9.5 9.5q0.3 0 0.5 0v4q-0.2 0-0.5 0c-5.2 0-9.5 4.3-9.5 9.5 0 5.2 4.3 9.5 9.5 9.5q0.3 0 0.5 0v4q-0.2 0-0.5 0c-5.2 0-9.5 4.3-9.5 9.5 0 5.2 4.3 9.5 9.5 9.5q0.3 0 0.5 0v4q-0.2 0-0.5 0c-5.2 0-9.5 4.3-9.5 9.5 0 5.2 4.3 9.5 9.5 9.5q0.3 0 0.5 0v1h-12v-572h11.5c-5.2 0-9.5 4.3-9.5 9.5zm10-9.5q-0.2 0-0.5 0z"/>
	<g id="Clip-Path" clip-path="url(#cp1)">
		<path id="Layer" fill-rule="evenodd" class="s1" d="m-1 0v-1h-1v1zm0 572h-1v1h1zm12 0v1h1v-1zm0-1h1v-1.1l-1.1 0.1zm0-19v1l1 0.1v-1.1zm0-4h1v-1.1l-1 0.1zm0-19l-0.1 1 1.1 0.1v-1.1zm0-4h1v-1.1l-1.1 0.1zm0-19v1l1 0.1v-1.1zm0-4h1v-1.1l-1 0.1zm0-19l-0.1 1 1.1 0.1v-1.1zm0-4h1v-1.1l-1.1 0.1zm0-19v1l1 0.1v-1.1zm0-4h1v-1.1l-1 0.1zm0-19l-0.1 1 1.1 0.1v-1.1zm0-4h1v-1.1l-1.1 0.1zm0-19v1l1 0.1v-1.1zm0-4h1v-1.1l-1 0.1zm0-19l-0.1 1 1.1 0.1v-1.1zm0-4h1v-1.1l-1.1 0.1zm0-19v1l1 0.1v-1.1zm0-4h1v-1.1l-1 0.1zm0-19l-0.1 1 1.1 0.1v-1.1zm0-4h1v-1.1l-1.1 0.1zm0-19v1l1 0.1v-1.1zm0-4h1v-1.1l-1 0.1zm0-19l-0.1 1 1.1 0.1v-1.1zm0-4h1v-1.1l-1.1 0.1zm0-19v1l1 0.1v-1.1zm0-4h1v-1.1l-1 0.1zm0-19l-0.1 1 1.1 0.1v-1.1zm0-4h1v-1.1l-1.1 0.1zm0-19v1l1 0.1v-1.1zm0-4h1v-1.1l-1 0.1zm0-19l-0.1 1 1.1 0.1v-1.1zm0-4h1v-1h-1.1zm0-19v1l1 0.1v-1.1zm0-4h1v-1h-1zm0-19l-0.1 1 1.1 0.1v-1.1zm0-4h1v-1h-1.1zm0-19v1l1 0.1v-1.1zm0-4h1v-1h-1zm0-19l-0.1 1 1.1 0.1v-1.1zm0-4h1v-1h-1.1zm0-19v1l1 0.1v-1.1zm0-4h1v-1h-1zm0-19l-0.1 1 1.1 0.1v-1.1zm0-4h1v-1h-1.1zm0-19v1l1 0.1v-1.1zm0-4h1v-1h-1zm0-19l-0.1 1 1.1 0.1v-1.1zm0-4h1v-1h-1.1zm0-19v1l1 0.1v-1.1zm0 0h1v-1h-1zm-0.5-1h-2.9v2h2.9zm-8.6 0h-2.9v2h2.9zm-3.9 1v2h2v-2zm0 6v4h2v-4zm0 7.9v4h2v-4zm0 8v3.9h2v-3.9zm0 7.9v4h2v-4zm0 8v3.9h2v-3.9zm0 7.9v4h2v-4zm0 8v3.9h2v-3.9zm0 7.9v4h2v-4zm0 7.9v4h2v-4zm0 8v4h2v-4zm0 7.9v4h2v-4zm0 8v3.9h2v-3.9zm0 7.9v4h2v-4zm0 8v3.9h2v-3.9zm0 7.9v4h2v-4zm0 8v3.9h2v-3.9zm0 7.9v4h2v-4zm0 7.9v4h2v-4zm0 8v4h2v-4zm0 7.9v4h2v-4zm0 8v3.9h2v-3.9zm0 7.9v4h2v-4zm0 8v3.9h2v-3.9zm0 7.9v4h2v-4zm0 8v3.9h2v-3.9zm0 7.9v4h2v-4zm0 7.9v4h2v-4zm0 8v4h2v-4zm0 7.9v4h2v-4zm0 8v3.9h2v-3.9zm0 7.9v4h2v-4zm0 8v3.9h2v-3.9zm0 7.9v4h2v-4zm0 8v3.9h2v-3.9zm0 7.9v4h2v-4zm0 7.9v4h2v-4zm0 8v4h2v-4zm0 7.9v4h2v-4zm0 8v3.9h2v-3.9zm0 7.9v4h2v-4zm0 8v3.9h2v-3.9zm0 7.9v4h2v-4zm0 8v3.9h2v-3.9zm0 7.9v4h2v-4zm0 7.9v4h2v-4zm0 8v4h2v-4zm0 7.9v4h2v-4zm0 8v3.9h2v-3.9zm0 7.9v4h2v-4zm0 8v3.9h2v-3.9zm0 7.9v4h2v-4zm0 8v3.9h2v-3.9zm0 7.9v4h2v-4zm0 7.9v4h2v-4zm0 8v4h2v-4zm0 7.9v4h2v-4zm0 8v3.9h2v-3.9zm0 7.9v4h2v-4zm0 8v3.9h2v-3.9zm0 7.9v4h2v-4zm0 8v3.9h2v-3.9zm0 7.9v4h2v-4zm0 7.9v4h2v-4zm0 8v4h2v-4zm0 7.9v4h2v-4zm0 8v3.9h2v-3.9zm0 7.9v4h2v-4zm0 8v3.9h2v-3.9zm0 7.9v4h2v-4zm0 8v3.9h2v-3.9zm0 7.9v4h2v-4zm0 7.9v2h2v-2zm1 3h1.5v-2h-1.5zm4.5 0h3v-2h-3zm6 0h1.5v-2h-1.5zm2.5-1v-0.2h-2v0.2zm0-0.7v-0.3h-2v0.3zm-1-1.3q-0.1 0-0.2 0l0.1 2q0.1 0 0.2 0zm-0.4 0q0 0-0.1 0v2q0.1 0 0.1 0zm-0.1 0q-0.8 0-1.6-0.1l-0.4 1.9q1 0.2 2 0.2zm-4.7-1.4c-0.9-0.6-1.7-1.4-2.3-2.4l-1.7 1.2c0.8 1.1 1.8 2.1 2.9 2.9zm-3.6-5.5q-0.2-0.8-0.2-1.6h-2q0 1 0.2 2zm-0.1-1.6q0-0.9 0.1-1.7l-1.9-0.4q-0.2 1-0.2 2.1zm1.4-4.7c0.6-1 1.4-1.8 2.3-2.4l-1.1-1.7c-1.1 0.8-2.1 1.8-2.9 2.9zm5.4-3.6q0.8-0.1 1.7-0.1v-2q-1.1 0-2 0.2zm1.6-0.2q0.1 0 0.1 0v-2q0 0-0.1 0zm0.3 0q0.1 0 0.2 0l0.1-2q-0.1 0-0.2 0zm1.2-1v-1h-2v1zm0-3v-1h-2v1zm-1.1-2q0 0-0.1 0l0.1 2q0.1 0 0.1 0zm-0.3 0q-0.1 0-0.1 0v2q0.1 0 0.1 0zm-0.1 0q-0.8 0-1.6-0.2l-0.4 2q1 0.2 2 0.2zm-4.7-1.4c-0.9-0.7-1.7-1.5-2.4-2.4l-1.6 1.1c0.8 1.2 1.7 2.2 2.9 2.9zm-3.6-5.4q-0.2-0.8-0.2-1.6h-2q0 1 0.2 2zm-0.2-1.7q0-0.8 0.2-1.6l-2-0.4q-0.2 1-0.2 2zm1.5-4.7c0.6-0.9 1.4-1.7 2.3-2.3l-1.1-1.7c-1.1 0.8-2.1 1.8-2.9 2.9zm5.4-3.6q0.8-0.2 1.7-0.2v-2q-1.1 0-2.1 0.2zm1.7-0.1q0 0 0.1 0v-2q0 0-0.1 0zm0.3 0q0.1 0 0.1 0l0.1-2q0 0-0.1 0zm1.2-1v-1h-2v1zm0-3v-1h-2v1zm-1.1-2q0 0-0.1 0l0.1 2q0.1 0 0.1 0zm-0.3 0q-0.1 0-0.1 0v2q0 0 0.1 0zm-0.1 0q-0.9 0-1.7-0.2l-0.3 2q0.9 0.2 2 0.2zm-4.7-1.5c-0.9-0.6-1.7-1.4-2.4-2.3l-1.6 1.1c0.7 1.2 1.7 2.1 2.9 2.9zm-3.7-5.4q-0.1-0.8-0.1-1.7h-2q0 1.1 0.2 2.1zm-0.2-1.7q0-0.8 0.2-1.6l-2-0.4q-0.2 1-0.2 2zm1.5-4.7c0.6-0.9 1.4-1.7 2.3-2.3l-1.1-1.7c-1.2 0.8-2.1 1.7-2.9 2.9zm5.4-3.6q0.8-0.2 1.7-0.2v-2q-1.1 0-2.1 0.2zm1.7-0.2q0 0 0.1 0v-2q-0.1 0-0.1 0zm0.3 0.1q0.1 0 0.1 0l0.1-2q0 0-0.1 0zm1.2-1v-1h-2v1zm0-3.1v-1h-2v1zm-1.1-2q-0.1 0-0.1 0l0.1 2q0 0 0.1 0zm-0.3 0q-0.1 0-0.1 0v2q0 0 0.1 0zm-0.1 0q-0.9 0-1.7-0.1l-0.4 1.9q1 0.2 2.1 0.2zm-4.7-1.4c-1-0.6-1.8-1.4-2.4-2.3l-1.6 1.1c0.7 1.1 1.7 2.1 2.8 2.9zm-3.6-5.4q-0.1-0.8-0.1-1.7h-2q0 1.1 0.2 2.1zm-0.2-1.7q0-0.9 0.2-1.7l-2-0.4q-0.2 1-0.2 2.1zm1.4-4.7c0.7-1 1.5-1.8 2.4-2.4l-1.1-1.6c-1.2 0.7-2.2 1.7-2.9 2.9zm5.4-3.7q0.8-0.1 1.6-0.1v-2q-1 0-2 0.2zm1.7-0.2q0 0 0.1 0v-2q-0.1 0-0.1 0zm0.3 0q0.1 0 0.1 0l0.1-2q-0.1 0-0.1 0zm1.1-1v-1h-2v1zm0-3v-1h-2v1zm-1-2q-0.1 0-0.1 0v2q0.1 0 0.2 0zm-0.3 0q-0.1 0-0.2 0v2q0.1 0 0.2 0zm-0.1 0q-0.9 0-1.7-0.1l-0.4 1.9q1 0.2 2.1 0.2zm-4.8-1.4c-0.9-0.6-1.7-1.4-2.3-2.4l-1.7 1.2c0.8 1.1 1.8 2.1 2.9 2.9zm-3.6-5.5q-0.1-0.8-0.1-1.6h-2q0 1 0.2 2zm-0.2-1.6q0-0.9 0.2-1.7l-2-0.4q-0.2 1-0.2 2.1zm1.4-4.8c0.6-0.9 1.4-1.7 2.4-2.3l-1.1-1.7c-1.2 0.8-2.2 1.8-2.9 2.9zm5.4-3.6q0.8-0.1 1.6-0.1v-2q-1 0-2 0.2zm1.6-0.2q0.1 0 0.2 0v-2q-0.1 0-0.2 0zm0.4 0q0 0 0.1 0l0.1-2q-0.1 0-0.1 0zm1.1-1v-1h-2v1zm0-3v-1h-2v1zm-1-2q-0.1 0-0.1 0v2q0.1 0 0.2 0zm-0.4 0q0 0-0.1 0v2q0.1 0 0.2 0zm-0.2 0q-0.8 0-1.6-0.2l-0.4 2q1 0.2 2 0.2zm-4.7-1.4c-0.9-0.7-1.7-1.5-2.3-2.4l-1.7 1.1c0.8 1.2 1.8 2.2 2.9 2.9zm-3.6-5.4q-0.2-0.8-0.2-1.6h-2q0 1 0.2 2zm-0.1-1.7q0-0.8 0.1-1.6l-1.9-0.4q-0.2 1-0.2 2zm1.4-4.7c0.6-0.9 1.4-1.7 2.4-2.3l-1.2-1.7c-1.1 0.8-2.1 1.8-2.9 2.9zm5.5-3.6q0.8-0.2 1.6-0.2v-2q-1 0-2 0.2zm1.6-0.1q0.1 0 0.1 0l0.1-2q-0.1 0-0.2 0zm0.4 0q0 0 0.1 0l0.1-2q-0.1 0-0.2 0zm1.2-1v-1h-2v1zm0-3v-1h-2v1zm-1.1-2q0 0-0.1 0l0.1 2q0.1 0 0.2 0zm-0.4 0q0 0-0.1 0v2q0.1 0 0.1 0zm-0.1 0q-0.8 0-1.6-0.2l-0.4 2q1 0.2 2 0.2zm-4.7-1.5c-0.9-0.6-1.7-1.4-2.3-2.3l-1.7 1.1c0.8 1.1 1.7 2.1 2.9 2.9zm-3.6-5.4q-0.2-0.8-0.2-1.7h-2q0 1.1 0.2 2.1zm-0.1-1.7q0-0.8 0.1-1.6l-1.9-0.4q-0.2 1-0.2 2zm1.4-4.7c0.6-0.9 1.4-1.7 2.3-2.4l-1.1-1.6c-1.1 0.8-2.1 1.7-2.9 2.9zm5.4-3.6q0.8-0.2 1.7-0.2v-2q-1.1 0-2.1 0.2zm1.7-0.2q0.1 0 0.1 0v-2q0 0-0.1 0zm0.3 0.1q0.1 0 0.2 0l0.1-2q-0.1 0-0.2 0zm1.2-1v-1h-2v1zm0-3.1v-1h-2v1zm-1.1-2q0 0-0.1 0l0.1 2q0.1 0 0.1 0zm-0.3 0q-0.1 0-0.1 0v2q0.1 0 0.1 0zm-0.1 0q-0.8 0-1.6-0.1l-0.4 1.9q1 0.2 2 0.2zm-4.7-1.4c-0.9-0.6-1.7-1.4-2.4-2.3l-1.6 1.1c0.7 1.1 1.7 2.1 2.9 2.9zm-3.6-5.4q-0.2-0.8-0.2-1.7h-2q0 1.1 0.2 2.1zm-0.2-1.7q0-0.9 0.2-1.7l-2-0.4q-0.2 1-0.2 2.1zm1.5-4.7c0.6-1 1.4-1.8 2.3-2.4l-1.1-1.6c-1.1 0.7-2.1 1.7-2.9 2.9zm5.4-3.7q0.8-0.1 1.7-0.1v-2q-1.1 0-2.1 0.2zm1.7-0.2q0 0 0.1 0v-2q0 0-0.1 0zm0.3 0q0.1 0 0.1 0l0.1-2q0 0-0.1 0zm1.2-1v-1h-2v1zm0-3v-1h-2v1zm-1.1-2q0 0-0.1 0l0.1 2q0 0 0.1 0zm-0.3 0q-0.1 0-0.1 0v2q0 0 0.1 0zm-0.1 0q-0.9 0-1.7-0.1l-0.4 1.9q1 0.2 2.1 0.2zm-4.7-1.4c-1-0.6-1.8-1.4-2.4-2.4l-1.6 1.2c0.7 1.1 1.7 2.1 2.9 2.8zm-3.7-5.4q-0.1-0.8-0.1-1.6h-2q0 1 0.2 2zm-0.2-1.6q0-0.9 0.2-1.7l-2-0.4q-0.2 1-0.2 2.1zm1.5-4.8c0.6-0.9 1.4-1.7 2.3-2.3l-1.1-1.7c-1.2 0.8-2.1 1.8-2.9 2.9zm5.4-3.6q0.8-0.1 1.7-0.1v-2q-1.1 0-2.1 0.2zm1.7-0.2q0 0 0.1 0v-2q-0.1 0-0.1 0zm0.3 0q0.1 0 0.1 0l0.1-2q0 0-0.1 0zm1.1-1v-1h-2v1zm0-3v-1h-2v1zm-1-2q-0.1 0-0.1 0l0.1 2q0 0 0.1 0zm-0.3 0q-0.1 0-0.2 0v2q0.1 0 0.2 0zm-0.1 0q-0.9 0-1.7-0.2l-0.4 2q1 0.2 2.1 0.2zm-4.7-1.4c-1-0.7-1.8-1.5-2.4-2.4l-1.7 1.1c0.8 1.2 1.8 2.2 2.9 2.9zm-3.6-5.4q-0.1-0.8-0.1-1.6h-2q0 1 0.2 2zm-0.2-1.7q0-0.8 0.2-1.6l-2-0.4q-0.2 1-0.2 2zm1.4-4.7c0.7-0.9 1.5-1.7 2.4-2.3l-1.1-1.7c-1.2 0.8-2.2 1.8-2.9 2.9zm5.4-3.6q0.8-0.2 1.6-0.2v-2q-1 0-2 0.2zm1.7-0.1q0 0 0.1 0v-2q-0.1 0-0.1 0zm0.3 0q0 0 0.1 0l0.1-2q-0.1 0-0.1 0zm1.1-1v-1h-2v1zm0-3v-1h-2v1zm-1-2q-0.1 0-0.1 0v2q0.1 0 0.2 0zm-0.4 0q0 0-0.1 0v2q0.1 0 0.2 0zm-0.1 0q-0.9 0-1.7-0.2l-0.4 2q1 0.2 2.1 0.2zm-4.8-1.5c-0.9-0.6-1.7-1.4-2.3-2.3l-1.7 1.1c0.8 1.1 1.8 2.1 2.9 2.9zm-3.6-5.4q-0.2-0.8-0.2-1.7h-2q0 1.1 0.2 2.1zm-0.1-1.7q0-0.8 0.1-1.6l-1.9-0.4q-0.2 1-0.2 2zm1.4-4.7c0.6-0.9 1.4-1.7 2.4-2.4l-1.2-1.6c-1.1 0.7-2.1 1.7-2.8 2.9zm5.4-3.6q0.8-0.2 1.6-0.2v-2q-1 0-2 0.2zm1.6-0.2q0.1 0 0.1 0l0.1-2q-0.1 0-0.2 0zm0.4 0q0 0 0.1 0.1l0.1-2q-0.1 0-0.2-0.1zm1.2-0.9v-1.1h-2v1.1zm0-3.1v-1h-2v1zm-1-2q-0.1 0-0.2 0l0.1 2q0.1 0 0.2 0zm-0.4 0q0 0-0.1 0v2q0.1 0 0.2 0zm-0.2 0q-0.8 0-1.6-0.1l-0.4 1.9q1 0.2 2 0.2zm-4.7-1.4c-0.9-0.6-1.7-1.4-2.3-2.3l-1.7 1.1c0.8 1.1 1.8 2.1 2.9 2.9zm-3.6-5.4q-0.2-0.8-0.2-1.7h-2q0 1.1 0.2 2zm-0.1-1.6q0-0.9 0.1-1.7l-1.9-0.4q-0.2 1-0.2 2.1zm1.4-4.7c0.6-1 1.4-1.8 2.3-2.4l-1.1-1.6c-1.1 0.7-2.1 1.7-2.9 2.9zm5.4-3.7q0.8-0.1 1.7-0.1v-2q-1 0-2 0.2zm1.6-0.2q0.1 0 0.1 0l0.1-2q-0.1 0-0.2 0zm0.4 0q0 0 0.1 0l0.1-2q-0.1 0-0.2 0zm1.2-1v-1h-2v1zm0-3v-1h-2v1zm-1.1-2q0 0-0.1 0l0.1 2q0.1 0 0.1 0zm-0.3 0q0 0-0.1 0v2q0.1 0 0.1 0zm-0.1 0q-0.8 0-1.6-0.1l-0.4 1.9q1 0.2 2 0.2zm-4.7-1.4c-0.9-0.6-1.7-1.4-2.3-2.4l-1.7 1.1c0.8 1.2 1.7 2.2 2.9 2.9zm-3.6-5.4q-0.2-0.8-0.2-1.6h-2q0 1 0.2 2zm-0.2-1.6q0-0.9 0.2-1.7l-2-0.4q-0.2 1-0.2 2.1zm1.5-4.8c0.6-0.9 1.4-1.7 2.3-2.3l-1.1-1.7c-1.1 0.8-2.1 1.8-2.9 2.9zm5.4-3.6q0.8-0.1 1.7-0.2v-2q-1.1 0.1-2.1 0.2zm1.7-0.1q0.1 0 0.1 0v-2q0 0-0.1 0zm0.3 0q0.1 0 0.1 0l0.1-2q0 0-0.1 0zm1.2-1v-1h-2v1zm0-3v-1h-2v1zm-1.1-2q0 0-0.1 0l0.1 2q0.1 0 0.1 0zm-0.3 0q-0.1 0-0.1 0v2q0 0 0.1 0zm-0.1 0q-0.9 0-1.7-0.2l-0.3 2q1 0.2 2 0.2zm-4.7-1.4c-0.9-0.7-1.7-1.5-2.4-2.4l-1.6 1.1c0.7 1.2 1.7 2.2 2.9 2.9zm-3.6-5.4q-0.2-0.8-0.2-1.7h-2q0 1.1 0.2 2.1zm-0.2-1.7q0-0.8 0.2-1.6l-2-0.4q-0.2 1-0.2 2zm1.5-4.7c0.6-0.9 1.4-1.7 2.3-2.3l-1.1-1.7c-1.1 0.8-2.1 1.8-2.9 2.9zm5.4-3.6q0.8-0.2 1.7-0.2v-2q-1.1 0-2.1 0.2zm1.7-0.1q0 0 0.1 0v-2q-0.1 0-0.1 0zm0.3 0q0.1 0 0.1 0l0.1-2q0 0-0.1 0zm1.2-1v-1h-2v1zm0-3v-1.1h-2v1.1zm-1.1-2q-0.1 0-0.1 0l0.1 2q0 0 0.1-0.1zm-0.3 0.1q-0.1 0-0.1 0v2q0 0 0.1 0zm-0.1 0q-0.9 0-1.7-0.2l-0.4 2q1 0.2 2.1 0.2zm-4.7-1.5c-1-0.6-1.8-1.4-2.4-2.3l-1.6 1.1c0.7 1.1 1.7 2.1 2.9 2.9zm-3.7-5.4q-0.1-0.8-0.1-1.7h-2q0 1.1 0.2 2.1zm-0.2-1.7q0-0.8 0.2-1.6l-2-0.4q-0.2 1-0.2 2zm1.4-4.7c0.7-0.9 1.5-1.7 2.4-2.4l-1.1-1.6c-1.2 0.7-2.2 1.7-2.9 2.9zm5.4-3.6q0.8-0.2 1.7-0.2v-2q-1.1 0-2.1 0.2zm1.7-0.2q0 0 0.1 0v-2q-0.1 0-0.1 0zm0.3 0q0.1 0 0.1 0l0.1-2q-0.1 0-0.1 0zm1.1-1v-1h-2v1zm0-3v-1h-2v1zm-1-2q-0.1 0-0.1 0l0.1 2q0 0 0.1 0zm-0.3 0q-0.1 0-0.2 0v2q0.1 0 0.2 0zm-0.1 0q-0.9 0-1.7-0.1l-0.4 1.9q1 0.2 2.1 0.2zm-4.8-1.4c-0.9-0.6-1.7-1.4-2.3-2.3l-1.7 1.1c0.8 1.1 1.8 2.1 2.9 2.9zm-3.6-5.4q-0.1-0.8-0.1-1.7h-2q0 1 0.2 2zm-0.2-1.6q0-0.9 0.2-1.7l-2-0.4q-0.2 1-0.2 2.1zm1.4-4.7c0.6-1 1.4-1.8 2.4-2.4l-1.1-1.6c-1.2 0.7-2.2 1.7-2.9 2.8zm5.4-3.6q0.8-0.1 1.6-0.1v-2q-1 0-2 0.2zm1.6-0.2q0.1 0 0.2 0v-2q-0.1 0-0.2 0zm0.4 0q0 0 0.1 0l0.1-2q-0.1 0-0.1 0zm1.1-1v-1h-2v1zm0-3v-1h-2v1zm-1-2q-0.1 0-0.1 0v2q0.1 0 0.2 0zm-0.4 0q0 0-0.1 0v2q0.1 0 0.2 0zm-0.1 0q-0.9 0-1.7-0.2l-0.4 2q1 0.2 2.1 0.2zm-4.8-1.4c-0.9-0.6-1.7-1.4-2.3-2.4l-1.7 1.1c0.8 1.2 1.8 2.2 2.9 2.9zm-3.6-5.4q-0.2-0.8-0.2-1.6h-2q0 1 0.2 2zm-0.1-1.6q0-0.9 0.1-1.7l-1.9-0.4q-0.2 1-0.2 2.1zm1.4-4.8c0.6-0.9 1.4-1.7 2.4-2.3l-1.2-1.7c-1.1 0.8-2.1 1.8-2.9 2.9zm5.5-3.6q0.8-0.2 1.6-0.2v-2q-1 0-2 0.2zm1.6-0.1q0.1 0 0.1 0l0.1-2q-0.1 0-0.2 0zm0.4 0q0 0 0.1 0l0.1-2q-0.1 0-0.2 0zm1.2-1v-1h-2v1zm0-3v-1h-2v1zm-1-2q-0.1 0-0.2 0l0.1 2q0.1 0 0.2 0zm-0.4 0q0 0-0.1 0v2q0.1 0 0.1 0zm-0.1 0q-0.8 0-1.6-0.2l-0.4 2q1 0.2 2 0.2zm-4.7-1.4c-0.9-0.7-1.7-1.5-2.3-2.4l-1.7 1.1c0.8 1.2 1.8 2.1 2.9 2.9zm-3.6-5.4q-0.2-0.8-0.2-1.7h-2q0 1.1 0.2 2.1zm-0.1-1.7q0-0.8 0.1-1.6l-1.9-0.4q-0.2 1-0.2 2zm1.4-4.7c0.6-0.9 1.4-1.7 2.3-2.3l-1.1-1.7c-1.1 0.8-2.1 1.8-2.9 2.9zm5.4-3.6q0.8-0.2 1.7-0.2v-2q-1.1 0-2.1 0.2zm1.7-0.1q0.1 0 0.1 0v-2q0 0-0.1 0zm0.3 0q0.1 0 0.2 0l0.1-2q-0.1 0-0.2 0zm1.2-1v-1h-2v1zm0-3v-1.1h-2v1.1zm-1.1-2.1q0 0-0.1 0.1l0.1 2q0.1-0.1 0.1-0.1zm-0.3 0.1q-0.1 0-0.1 0v2q0.1 0 0.1 0zm-0.1 0q-0.8 0-1.6-0.2l-0.4 2q1 0.2 2 0.2zm-4.7-1.5c-0.9-0.6-1.7-1.4-2.4-2.3l-1.6 1.1c0.8 1.1 1.7 2.1 2.9 2.9zm-3.6-5.4q-0.2-0.8-0.2-1.7h-2q0 1.1 0.2 2.1zm-0.2-1.7q0-0.8 0.2-1.7l-2-0.3q-0.2 1-0.2 2zm1.5-4.7c0.6-0.9 1.4-1.7 2.3-2.4l-1.1-1.6c-1.1 0.7-2.1 1.7-2.9 2.9zm5.4-3.6q0.8-0.2 1.7-0.2v-2q-1.1 0-2.1 0.2zm1.7-0.2q0 0 0.1 0v-2q0 0-0.1 0zm0.3 0q0.1 0 0.1 0l0.1-2q0 0-0.1 0zm1.2-1v-1h-2v1zm0-3v-1h-2v1zm-1.1-2q0 0-0.1 0l0.1 2q0.1 0 0.1 0zm-0.3 0q-0.1 0-0.1 0v2q0 0 0.1 0zm-0.1 0q-0.9 0-1.7-0.1l-0.3 1.9q0.9 0.2 2 0.2zm-4.7-1.4c-1-0.6-1.7-1.4-2.4-2.3l-1.6 1.1c0.7 1.1 1.7 2.1 2.9 2.9zm-3.7-5.4q-0.1-0.9-0.1-1.7h-2q0 1 0.2 2zm-0.2-1.6q0-0.9 0.2-1.7l-2-0.4q-0.2 1-0.2 2.1zm1.5-4.7c0.6-1 1.4-1.8 2.3-2.4l-1.1-1.7c-1.2 0.8-2.1 1.8-2.9 2.9zm5.4-3.6q0.8-0.1 1.7-0.1v-2q-1.1 0-2.1 0.2zm1.7-0.2q0 0 0.1 0v-2q-0.1 0-0.1 0zm0.3 0q0.1 0 0.1 0l0.1-2q0 0-0.1 0zm1.2-1v-1h-2v1zm0-3v-1h-2v1zm-1.1-2q-0.1 0-0.1 0l0.1 2q0 0 0.1 0zm-0.3 0q-0.1 0-0.1 0v2q0 0 0.1 0zm-0.1 0q-0.9 0-1.7-0.2l-0.4 2q1 0.2 2.1 0.2zm-4.7-1.4c-1-0.6-1.8-1.4-2.4-2.4l-1.6 1.1c0.7 1.2 1.7 2.2 2.8 2.9zm-3.6-5.4q-0.1-0.8-0.1-1.6h-2q0 1 0.2 2zm-0.2-1.6q0-0.9 0.2-1.7l-2-0.4q-0.2 1-0.2 2.1zm1.4-4.8c0.7-0.9 1.5-1.7 2.4-2.3l-1.1-1.7c-1.2 0.8-2.2 1.8-2.9 2.9zm5.4-3.6q0.8-0.2 1.6-0.2v-2q-1 0-2 0.2zm1.7-0.1q0 0 0.1 0v-2q-0.1 0-0.1 0zm0.3 0q0 0 0.1 0l0.1-2q-0.1 0-0.1 0zm1.1-1v-1h-2v1zm0-3v-1h-2v1zm-1-2q-0.1 0-0.1 0v2q0.1 0 0.2 0zm-0.3 0q-0.1 0-0.2 0v2q0.1 0 0.2 0zm-0.1 0q-0.9 0-1.7-0.2l-0.4 2q1 0.2 2.1 0.2zm-4.8-1.5c-0.9-0.6-1.7-1.4-2.3-2.3l-1.7 1.1c0.8 1.2 1.8 2.1 2.9 2.9zm-3.6-5.4q-0.1-0.8-0.1-1.7h-2q0 1.1 0.2 2.1zm-0.2-1.7q0-0.8 0.2-1.6l-2-0.4q-0.2 1-0.2 2zm1.4-4.7c0.6-0.9 1.4-1.7 2.4-2.3l-1.1-1.7c-1.2 0.8-2.2 1.7-2.9 2.9zm5.4-3.6q0.8-0.2 1.6-0.2v-2q-1 0-2 0.2zm1.6-0.1q0.1 0 0.2 0v-2q-0.1 0-0.2 0zm0.4 0q0 0 0.1 0l0.1-2q-0.1 0-0.1 0zm1.1-1v-1h-2v1zm0-3.1v-1h-2v1zm-1-2q-0.1 0-0.1 0v2q0.1 0 0.2 0zm-0.4 0.1q0 0-0.1 0v2q0.1 0 0.2 0zm-0.2 0q-0.8 0-1.6-0.2l-0.4 2q1 0.2 2 0.2zm-4.7-1.5c-0.9-0.6-1.7-1.4-2.3-2.3l-1.7 1.1c0.8 1.1 1.8 2.1 2.9 2.9zm-3.6-5.4q-0.2-0.8-0.2-1.7h-2q0 1.1 0.2 2.1zm-0.1-1.7q0-0.9 0.1-1.7l-1.9-0.3q-0.2 1-0.2 2zm1.4-4.7c0.6-0.9 1.4-1.7 2.3-2.4l-1.1-1.6c-1.1 0.7-2.1 1.7-2.9 2.9zm5.4-3.6q0.9-0.2 1.7-0.2v-2q-1 0-2 0.2zm1.6-0.2q0.1 0 0.1 0l0.1-2q-0.1 0-0.2 0zm0.4 0q0 0 0.1 0l0.1-2q-0.1 0-0.2 0zm1.2-1v-1h-2v1zm0-3v-1h-2v1zm-1.1-2q0 0-0.1 0l0.1 2q0.1 0 0.2 0zm-0.4 0q0 0-0.1 0v2q0.1 0 0.1 0zm-0.1 0q-0.8 0-1.6-0.1l-0.4 1.9q1 0.2 2 0.2zm-4.7-1.4c-0.9-0.6-1.7-1.4-2.3-2.4l-1.7 1.2c0.8 1.1 1.7 2.1 2.9 2.9zm-3.6-5.5q-0.2-0.8-0.2-1.6h-2q0 1 0.2 2zm-0.1-1.6q0-0.9 0.1-1.7l-1.9-0.4q-0.2 1-0.2 2.1zm1.4-4.7c0.6-1 1.4-1.8 2.3-2.4l-1.1-1.7c-1.1 0.8-2.1 1.8-2.9 2.9zm5.4-3.6q0.8-0.1 1.7-0.1v-2q-1.1 0-2.1 0.2zm1.7-0.2q0.1 0 0.1 0v-2q0 0-0.1 0zm0.3 0q0.1 0 0.2 0l0.1-2q-0.1 0-0.2 0zm1.2-1v-1h-2v1zm0-3v-1h-2v1zm-1.1-2q0 0-0.1 0l0.1 2q0.1 0 0.1 0zm-0.3 0q-0.1 0-0.1 0v2q0.1 0 0.1 0zm-0.1 0q-0.8 0-1.6-0.2l-0.4 2q1 0.2 2 0.2zm-4.7-1.4c-0.9-0.7-1.7-1.5-2.4-2.4l-1.6 1.1c0.7 1.2 1.7 2.2 2.9 2.9zm-3.6-5.4q-0.2-0.8-0.2-1.6h-2q0 1 0.2 2zm-0.2-1.7q0-0.8 0.2-1.6l-2-0.4q-0.2 1-0.2 2zm1.5-4.7c0.6-0.9 1.4-1.7 2.3-2.3l-1.1-1.7c-1.1 0.8-2.1 1.8-2.9 2.9zm5.4-3.6q0.8-0.2 1.7-0.2v-2q-1.1 0-2.1 0.2zm1.8-2.1q0 0-0.1 0v2q0 0 0.1 0zm0.2 2h0.2v-2h-0.2zm-0.8-1h2zm0 0h2zm1-1q-0.1 0-0.1 0l-0.1 2q0.1 0 0.1 0zm-0.5 2h0.1v-2h-0.1zm-11.5-1v-0.5h-0.5v0.5zm0 572h-0.5v0.5h0.5zm12 0v0.5h0.5v-0.5zm0-1h0.5v-0.6l-0.6 0.1zm0-19v0.5h0.5v-0.5zm0-4h0.5v-0.6l-0.5 0.1zm0-19v0.5h0.5v-0.5zm0-4h0.5v-0.6l-0.5 0.1zm0-19v0.5h0.5v-0.5zm0-4h0.5v-0.6l-0.5 0.1zm0-19l-0.1 0.5h0.6v-0.5zm0-4h0.5v-0.6l-0.6 0.1zm0-19v0.5h0.5v-0.5zm0-4h0.5v-0.6l-0.5 0.1zm0-19v0.5h0.5v-0.5zm0-4h0.5v-0.6l-0.5 0.1zm0-19l-0.1 0.5h0.6v-0.5zm0-4h0.5v-0.6l-0.6 0.1zm0-19v0.5h0.5v-0.5zm0-4h0.5v-0.6l-0.5 0.1zm0-19v0.5h0.5v-0.5zm0-4h0.5v-0.6l-0.5 0.1zm0-19v0.5h0.5v-0.5zm0-4h0.5v-0.6l-0.5 0.1zm0-19l-0.1 0.5h0.6v-0.5zm0-4h0.5v-0.6l-0.6 0.1zm0-19v0.5h0.5v-0.5zm0-4h0.5v-0.6l-0.5 0.1zm0-19v0.5h0.5v-0.5zm0-4h0.5v-0.6l-0.5 0.1zm0-19v0.5h0.5v-0.5zm0-4h0.5v-0.6l-0.5 0.1zm0-19l-0.1 0.5h0.6v-0.5zm0-4h0.5v-0.6l-0.6 0.1zm0-19v0.5h0.5v-0.5zm0-4h0.5v-0.6l-0.5 0.1zm0-19v0.5h0.5v-0.5zm0-4h0.5v-0.6l-0.5 0.1zm0-19v0.5h0.5v-0.5zm0-4h0.5v-0.5h-0.5zm0-19l-0.1 0.5h0.6v-0.5zm0-4h0.5v-0.5h-0.6zm0-19v0.5h0.5v-0.5zm0-4h0.5v-0.5h-0.5zm0-19v0.5h0.5v-0.5zm0-4h0.5v-0.5h-0.5zm0-19v0.5h0.5v-0.5zm0-4h0.5v-0.5h-0.5zm0-19l-0.1 0.5h0.6v-0.5zm0-4h0.5v-0.5h-0.6zm0-19v0.5h0.5v-0.5zm0-4h0.5v-0.5h-0.5zm0-19v0.5h0.5v-0.5zm0 0h0.5v-0.5h-0.5zm-0.5-0.5h-2.9v1h2.9zm-8.6 0h-2.9v1h2.9zm-3.4 0.5v2h1v-2zm0 6v3.9h1v-3.9zm0 7.9v4h1v-4zm0 7.9v4h1v-4zm0 8v4h1v-4zm0 7.9v4h1v-4zm0 8v3.9h1v-3.9zm0 7.9v4h1v-4zm0 8v3.9h1v-3.9zm0 7.9v4h1v-4zm0 8v3.9h1v-3.9zm0 7.9v4h1v-4zm0 7.9v4h1v-4zm0 8v4h1v-4zm0 7.9v4h1v-4zm0 8v3.9h1v-3.9zm0 7.9v4h1v-4zm0 8v3.9h1v-3.9zm0 7.9v4h1v-4zm0 8v3.9h1v-3.9zm0 7.9v4h1v-4zm0 7.9v4h1v-4zm0 8v4h1v-4zm0 7.9v4h1v-4zm0 8v3.9h1v-3.9zm0 7.9v4h1v-4zm0 8v3.9h1v-3.9zm0 7.9v4h1v-4zm0 8v3.9h1v-3.9zm0 7.9v4h1v-4zm0 7.9v4h1v-4zm0 8v4h1v-4zm0 7.9v4h1v-4zm0 8v3.9h1v-3.9zm0 7.9v4h1v-4zm0 8v3.9h1v-3.9zm0 7.9v4h1v-4zm0 8v3.9h1v-3.9zm0 7.9v4h1v-4zm0 7.9v4h1v-4zm0 8v4h1v-4zm0 7.9v4h1v-4zm0 8v3.9h1v-3.9zm0 7.9v4h1v-4zm0 8v3.9h1v-3.9zm0 7.9v4h1v-4zm0 8v3.9h1v-3.9zm0 7.9v4h1v-4zm0 7.9v4h1v-4zm0 8v4h1v-4zm0 7.9v4h1v-4zm0 8v3.9h1v-3.9zm0 7.9v4h1v-4zm0 8v3.9h1v-3.9zm0 7.9v4h1v-4zm0 8v3.9h1v-3.9zm0 7.9v4h1v-4zm0 7.9v4h1v-4zm0 8v4h1v-4zm0 7.9v4h1v-4zm0 8v3.9h1v-3.9zm0 7.9v4h1v-4zm0 8v3.9h1v-3.9zm0 7.9v4h1v-4zm0 8v3.9h1v-3.9zm0 7.9v4h1v-4zm0 7.9v4h1v-4zm0 8v4h1v-4zm0 7.9v4h1v-4zm0 8v3.9h1v-3.9zm0 7.9v4h1v-4zm0 8v3.9h1v-3.9zm0 7.9v2h1v-2zm0.5 2.5h1.5v-1h-1.5zm4.5 0h3v-1h-3zm6 0h1.5v-1h-1.5zm2-0.5v-0.3h-1v0.3zm0-0.8v-0.2h-1v0.2zm-0.5-0.7q-0.1 0-0.1 0v1q0.1 0 0.1 0zm-0.3 0q-0.1 0-0.1 0v1q0 0 0.1 0zm-0.1 0q-0.9 0-1.8-0.2l-0.2 1q1 0.2 2 0.2zm-5-1.5c-1-0.7-1.9-1.5-2.5-2.5l-0.8 0.6c0.7 1 1.6 2 2.7 2.7zm-3.8-5.7q-0.2-0.9-0.2-1.8h-1q0 1 0.2 2zm-0.2-1.8q0-0.9 0.2-1.7l-1-0.2q-0.2 0.9-0.2 1.9zm1.6-5c0.6-1 1.5-1.8 2.4-2.5l-0.5-0.8c-1.1 0.7-2 1.7-2.8 2.8zm5.7-3.9q0.9-0.1 1.8-0.1v-1q-1 0-1.9 0.2zm1.7-0.2q0.1 0 0.1 0v-1q0 0-0.1 0zm0.4 0q0 0 0.1 0v-1q0 0-0.1 0zm0.7-0.5v-1h-1v1zm0-3v-1h-1v1zm-0.6-1.5q0 0-0.1 0v1q0.1 0 0.2 0zm-0.4 0q0 0-0.1 0v1q0.1 0 0.1 0zm-0.1 0q-0.9 0-1.7-0.2l-0.2 1q0.9 0.2 1.9 0.2zm-5-1.5c-1-0.7-1.8-1.5-2.5-2.5l-0.8 0.5c0.7 1.1 1.7 2.1 2.8 2.8zm-3.9-5.7q-0.1-0.9-0.1-1.8h-1q0 1 0.1 2zm-0.1-1.8q0-0.9 0.1-1.8l-0.9-0.1q-0.2 0.9-0.2 1.9zm1.5-5c0.7-1 1.5-1.8 2.5-2.5l-0.6-0.8c-1.1 0.7-2 1.7-2.7 2.7zm5.7-3.8q0.8-0.2 1.7-0.2v-1q-1 0-1.9 0.2zm1.8-0.1q0 0 0.1 0v-1q-0.1 0-0.1 0zm0.3 0q0.1 0 0.1 0l0.1-1q-0.1 0-0.2 0zm0.7-0.5v-1h-1v1zm0-3v-1h-1v1zm-0.5-1.5q-0.1 0-0.2 0l0.1 1q0.1 0 0.1 0zm-0.3 0q-0.1 0-0.2 0v1q0.1 0 0.2 0zm-0.1 0q-0.9 0-1.8-0.2l-0.2 1q1 0.2 2 0.2zm-5-1.6c-1-0.6-1.9-1.5-2.5-2.4l-0.9 0.5c0.8 1.1 1.7 2.1 2.8 2.8zm-3.8-5.7q-0.2-0.9-0.2-1.8h-1q0 1 0.2 1.9zm-0.2-1.7q0-0.9 0.2-1.8l-1-0.2q-0.2 1-0.2 2zm1.5-5c0.7-1 1.5-1.8 2.5-2.5l-0.5-0.8c-1.1 0.7-2.1 1.6-2.8 2.7zm5.7-3.8q0.9-0.2 1.8-0.2v-1q-1 0-2 0.2zm1.8-0.1q0.1 0 0.1 0v-1q0 0-0.1 0zm0.3 0q0.1 0 0.2 0v-1q0 0-0.1 0zm0.6-0.5v-1h-1v1zm0-3.1v-1h-1v1zm-0.5-1.5q-0.1 0-0.1 0v1q0.1 0 0.2 0zm-0.4 0.1q-0.1 0-0.1 0v1q0.1 0 0.1 0zm-0.1 0q-0.9 0-1.8-0.2l-0.2 1q1 0.2 2 0.2zm-5-1.6c-1-0.6-1.8-1.5-2.5-2.4l-0.8 0.5c0.7 1.1 1.7 2 2.7 2.8zm-3.8-5.8q-0.2-0.8-0.2-1.7h-1q0 1 0.2 1.9zm-0.1-1.7q0-0.9 0.1-1.8l-0.9-0.2q-0.2 1-0.2 2zm1.5-5c0.6-1 1.5-1.9 2.5-2.5l-0.6-0.8c-1.1 0.7-2 1.6-2.8 2.7zm5.8-3.8q0.8-0.2 1.7-0.2v-1q-1 0-1.9 0.2zm1.7-0.2q0.1 0 0.2 0v-1q-0.1 0-0.2 0zm0.4 0q0.1 0 0.1 0.1l0.1-1q-0.1-0.1-0.2-0.1zm0.7-0.4v-1.1h-1v1.1zm0-3.1v-1h-1v1zm-0.6-1.5q0 0-0.1 0l0.1 1q0 0 0.1 0zm-0.4 0q0 0-0.1 0v1q0.1 0 0.2 0zm-0.2 0q-0.9 0-1.7-0.1l-0.2 0.9q0.9 0.2 1.9 0.2zm-5-1.5c-0.9-0.6-1.8-1.5-2.4-2.5l-0.9 0.6c0.8 1.1 1.7 2 2.8 2.8zm-3.8-5.8q-0.2-0.8-0.2-1.7h-1q0 1 0.2 1.9zm-0.2-1.7q0-0.9 0.2-1.8l-1-0.2q-0.2 1-0.2 2zm1.5-5c0.7-1 1.5-1.9 2.5-2.5l-0.6-0.9c-1 0.8-2 1.7-2.7 2.8zm5.7-3.8q0.9-0.2 1.8-0.2v-1q-1 0-2 0.2zm1.8-0.2q0 0 0.1 0v-1q-0.1 0-0.1 0zm0.3 0q0.1 0 0.2 0v-1q-0.1 0-0.1 0zm0.6-0.5v-1h-1v1zm0-3v-1h-1v1zm-0.5-1.5q-0.1 0-0.1 0v1q0.1 0 0.1 0zm-0.3 0q-0.1 0-0.1 0v1q0 0 0.1 0zm-0.1 0q-0.9 0-1.8-0.1l-0.2 0.9q1 0.2 2 0.2zm-5-1.5c-1-0.6-1.8-1.5-2.5-2.5l-0.8 0.6c0.7 1.1 1.6 2 2.7 2.7zm-3.8-5.7q-0.2-0.8-0.2-1.7h-1q0 1 0.2 1.9zm-0.2-1.8q0-0.9 0.2-1.7l-1-0.2q-0.2 0.9-0.2 1.9zm1.6-5c0.6-0.9 1.5-1.8 2.4-2.4l-0.5-0.9c-1.1 0.8-2 1.7-2.8 2.8zm5.8-3.8q0.8-0.2 1.7-0.2v-1q-1 0-1.9 0.2zm1.7-0.2q0.1 0 0.1 0v-1q0 0-0.1 0zm0.4 0q0 0 0.1 0v-1q0 0-0.1 0zm0.7-0.5v-1h-1v1zm0-3v-1h-1v1zm-0.6-1.5q0 0-0.1 0l0.1 1q0 0 0.1 0zm-0.4 0q0 0-0.1 0v1q0.1 0 0.1 0zm-0.1 0q-0.9 0-1.7-0.2l-0.2 1q0.9 0.2 1.9 0.2zm-5-1.5c-1-0.7-1.8-1.5-2.5-2.5l-0.8 0.6c0.7 1.1 1.7 2 2.8 2.7zm-3.9-5.7q-0.1-0.9-0.1-1.8h-1q0 1 0.2 2zm-0.2-1.8q0-0.9 0.2-1.7l-1-0.2q-0.2 0.9-0.2 1.9zm1.5-5c0.7-0.9 1.5-1.8 2.5-2.4l-0.6-0.9c-1.1 0.7-2 1.7-2.7 2.8zm5.7-3.9q0.8-0.1 1.8-0.1v-1q-1 0-2 0.2zm1.8-0.2q0 0 0.1 0v-1q-0.1 0-0.1 0zm0.3 0q0.1 0 0.1 0l0.1-1q-0.1 0-0.1 0zm0.6-0.5v-1h-1v1zm0-3v-1h-1v1zm-0.5-1.5q-0.1 0-0.1 0v1q0.1 0 0.1 0zm-0.3 0q-0.1 0-0.2 0v1q0.1 0 0.2 0zm-0.1 0q-0.9 0-1.8-0.2l-0.2 1q1 0.2 2 0.2zm-5-1.5c-1-0.7-1.9-1.5-2.5-2.5l-0.9 0.6c0.8 1 1.7 2 2.8 2.7zm-3.8-5.7q-0.2-0.9-0.2-1.8h-1q0 1 0.2 2zm-0.2-1.8q0-0.9 0.2-1.7l-1-0.2q-0.2 0.9-0.2 1.9zm1.5-5c0.7-1 1.5-1.8 2.5-2.5l-0.5-0.8c-1.1 0.7-2.1 1.7-2.8 2.8zm5.7-3.9q0.9-0.1 1.8-0.1v-1q-1 0-2 0.2zm1.8-0.2q0.1 0 0.1 0v-1q0 0-0.1 0zm0.4 0q0 0 0.1 0v-1q0 0-0.1 0zm0.6-0.5v-1h-1v1zm0-3v-1h-1v1zm-0.5-1.5q0 0-0.1 0v1q0.1 0 0.2 0zm-0.4 0q0 0-0.1 0v1q0.1 0 0.1 0zm-0.1 0q-0.9 0-1.8-0.2l-0.1 1q0.9 0.2 1.9 0.2zm-5-1.5c-1-0.7-1.8-1.5-2.5-2.5l-0.8 0.5c0.7 1.1 1.7 2.1 2.7 2.8zm-3.8-5.7q-0.2-0.9-0.2-1.8h-1q0 1 0.2 2zm-0.1-1.8q0-0.9 0.1-1.8l-0.9-0.1q-0.2 0.9-0.2 1.9zm1.5-5c0.6-1 1.5-1.8 2.5-2.5l-0.6-0.8c-1.1 0.7-2 1.7-2.7 2.7zm5.7-3.8q0.8-0.1 1.7-0.2v-1q-1 0.1-1.9 0.2zm1.7-0.1q0.1 0 0.2 0v-1q-0.1 0-0.2 0zm0.4 0q0.1 0 0.1 0l0.1-1q-0.1 0-0.2 0zm0.7-0.5v-1h-1v1zm0-3v-1h-1v1zm-0.5-1.5q-0.1 0-0.2 0l0.1 1q0 0 0.1 0zm-0.3 0q-0.1 0-0.2 0v1q0.1 0 0.2 0zm-0.2 0q-0.9 0-1.7-0.2l-0.2 1q0.9 0.2 1.9 0.2zm-5-1.5c-0.9-0.7-1.8-1.6-2.4-2.5l-0.9 0.5c0.8 1.1 1.7 2.1 2.8 2.8zm-3.8-5.7q-0.2-0.9-0.2-1.8h-1q0 1 0.2 1.9zm-0.2-1.7q0-0.9 0.2-1.8l-1-0.2q-0.2 1-0.2 2zm1.5-5c0.7-1 1.5-1.8 2.5-2.5l-0.5-0.8c-1.1 0.7-2.1 1.6-2.8 2.7zm5.7-3.8q0.9-0.2 1.8-0.2v-1q-1 0-2 0.2zm1.8-0.1q0 0 0.1 0v-1q-0.1 0-0.1 0zm0.3 0q0.1 0 0.2 0v-1q-0.1 0-0.1 0zm0.6-0.5v-1h-1v1zm0-3.1v-1h-1v1zm-0.5-1.5q-0.1 0-0.1 0v1q0.1 0 0.1 0zm-0.3 0.1q-0.1 0-0.1 0v1q0 0 0.1 0zm-0.1 0q-0.9 0-1.8-0.2l-0.2 1q1 0.2 2 0.2zm-5-1.6c-1-0.6-1.8-1.5-2.5-2.4l-0.8 0.5c0.7 1.1 1.6 2 2.7 2.8zm-3.8-5.8q-0.2-0.8-0.2-1.7h-1q0 1 0.2 1.9zm-0.2-1.7q0-0.9 0.2-1.8l-1-0.2q-0.1 1-0.2 2zm1.6-5c0.6-1 1.5-1.8 2.4-2.5l-0.5-0.8c-1.1 0.7-2 1.6-2.8 2.7zm5.8-3.8q0.8-0.2 1.7-0.2v-1q-1 0-1.9 0.2zm1.7-0.2q0.1 0 0.1 0l0.1-1q-0.1 0-0.2 0zm0.4 0q0 0 0.1 0.1v-1q0 0-0.1-0.1zm0.7-0.4v-1.1h-1v1.1zm0-3.1v-1h-1v1zm-0.6-1.5q0 0-0.1 0l0.1 1q0 0 0.1 0zm-0.4 0q0 0-0.1 0v1q0.1 0 0.1 0zm-0.1 0q-0.9 0-1.7-0.1l-0.2 0.9q0.9 0.2 1.9 0.2zm-5-1.5c-1-0.6-1.8-1.5-2.5-2.5l-0.8 0.6c0.7 1.1 1.7 2 2.8 2.8zm-3.9-5.8q-0.1-0.8-0.1-1.7h-1q0 1 0.2 1.9zm-0.2-1.7q0-0.9 0.2-1.8l-1-0.2q-0.2 1-0.2 2zm1.5-5c0.7-1 1.5-1.9 2.5-2.5l-0.6-0.9c-1.1 0.8-2 1.7-2.7 2.8zm5.7-3.8q0.9-0.2 1.8-0.2v-1q-1 0-2 0.2zm1.8-0.2q0 0 0.1 0v-1q-0.1 0-0.1 0zm0.3 0q0.1 0 0.1 0l0.1-1q-0.1 0-0.1 0zm0.6-0.5v-1h-1v1zm0-3v-1h-1v1zm-0.5-1.5q-0.1 0-0.1 0v1q0.1 0 0.1 0zm-0.3 0q-0.1 0-0.1 0v1q0 0 0.1 0zm-0.1 0q-0.9 0-1.8-0.1l-0.2 0.9q1 0.2 2 0.2zm-5-1.5c-1-0.6-1.9-1.5-2.5-2.5l-0.8 0.6c0.7 1.1 1.6 2 2.7 2.7zm-3.8-5.7q-0.2-0.8-0.2-1.7h-1q0 1 0.2 1.9zm-0.2-1.7q0-1 0.2-1.8l-1-0.2q-0.2 0.9-0.2 2zm1.5-5c0.7-1 1.5-1.9 2.5-2.5l-0.5-0.9c-1.1 0.8-2.1 1.7-2.8 2.8zm5.7-3.8q0.9-0.2 1.8-0.2v-1q-1 0-2 0.2zm1.8-0.2q0.1 0 0.1 0v-1q0 0-0.1 0zm0.4 0q0 0 0.1 0v-1q0 0-0.1 0zm0.6-0.5v-1h-1v1zm0-3v-1h-1v1zm-0.5-1.5q0 0-0.1 0v1q0.1 0 0.2 0zm-0.4 0q0 0-0.1 0v1q0.1 0 0.1 0zm-0.1 0q-0.9 0-1.7-0.2l-0.2 1q0.9 0.2 1.9 0.2zm-5-1.5c-1-0.7-1.8-1.5-2.5-2.5l-0.8 0.6c0.7 1.1 1.7 2 2.8 2.7zm-3.9-5.7q-0.1-0.9-0.1-1.8h-1q0 1 0.1 2zm-0.1-1.8q0-0.9 0.1-1.7l-0.9-0.2q-0.2 0.9-0.2 1.9zm1.5-5c0.6-0.9 1.5-1.8 2.5-2.4l-0.6-0.9c-1.1 0.8-2 1.7-2.7 2.8zm5.7-3.8q0.8-0.2 1.7-0.2v-1q-1 0-1.9 0.2zm1.7-0.2q0.1 0 0.2 0v-1q-0.1 0-0.2 0zm0.4 0q0.1 0 0.1 0l0.1-1q-0.1 0-0.2 0zm0.7-0.5v-1h-1v1zm0-3v-1h-1v1zm-0.5-1.5q-0.1 0-0.2 0l0.1 1q0 0 0.1 0zm-0.3 0q-0.1 0-0.2 0v1q0.1 0 0.2 0zm-0.1 0q-1 0-1.8-0.2l-0.2 1q0.9 0.2 2 0.2zm-5-1.5c-1-0.7-1.9-1.5-2.5-2.5l-0.9 0.6c0.8 1 1.7 2 2.8 2.7zm-3.8-5.7q-0.2-0.9-0.2-1.8h-1q0 1 0.2 2zm-0.2-1.8q0-0.9 0.2-1.7l-1-0.2q-0.2 0.9-0.2 1.9zm1.5-5c0.7-1 1.5-1.8 2.5-2.5l-0.5-0.8c-1.1 0.7-2.1 1.7-2.8 2.8zm5.7-3.9q0.9-0.1 1.8-0.1v-1q-1 0-2 0.2zm1.8-0.2q0 0 0.1 0v-1q0 0-0.1 0zm0.3 0q0.1 0 0.2 0v-1q-0.1 0-0.1 0zm0.6-0.5v-1h-1v1zm0-3v-1h-1v1zm-0.5-1.5q-0.1 0-0.1 0v1q0.1 0 0.2 0zm-0.4 0q-0.1 0-0.1 0v1q0 0 0.1 0zm-0.1 0q-0.9 0-1.8-0.2l-0.2 1q1 0.2 2 0.2zm-5-1.5c-1-0.7-1.8-1.5-2.5-2.5l-0.8 0.5c0.7 1.1 1.6 2.1 2.7 2.8zm-3.8-5.7q-0.2-0.9-0.2-1.8h-1q0 1 0.2 2zm-0.1-1.8q0-0.9 0.1-1.7l-1-0.2q-0.1 0.9-0.1 1.9zm1.5-5c0.6-1 1.5-1.8 2.5-2.5l-0.6-0.8c-1.1 0.7-2 1.7-2.8 2.8zm5.8-3.9q0.8-0.1 1.7-0.1v-1q-1 0-1.9 0.1zm1.7-0.1q0.1 0 0.1 0l0.1-1q-0.1 0-0.2 0zm0.4 0q0 0 0.1 0l0.1-1q-0.1 0-0.2 0zm0.7-0.5v-1h-1v1zm0-3v-1h-1v1zm-0.6-1.5q0 0-0.1 0l0.1 1q0 0 0.1 0zm-0.4 0q0 0-0.1 0v1q0.1 0 0.2 0zm-0.2 0q-0.9 0-1.7-0.2l-0.2 1q0.9 0.2 1.9 0.2zm-5-1.5c-0.9-0.7-1.8-1.5-2.5-2.5l-0.8 0.5c0.7 1.1 1.7 2.1 2.8 2.8zm-3.9-5.7q-0.1-0.9-0.1-1.8h-1q0 1 0.2 2zm-0.2-1.8q0-0.9 0.2-1.8l-1-0.2q-0.2 1-0.2 2zm1.5-5c0.7-1 1.5-1.8 2.5-2.5l-0.6-0.8c-1.1 0.7-2 1.6-2.7 2.7zm5.7-3.8q0.9-0.2 1.8-0.2v-1q-1 0-2 0.2zm1.8-0.1q0 0 0.1 0v-1q-0.1 0-0.1 0zm0.3 0q0.1 0 0.1 0l0.1-1q-0.1 0-0.1 0zm0.6-0.5v-1h-1v1zm0-3v-1.1h-1v1.1zm-0.5-1.6q-0.1 0-0.1 0.1v0.9q0.1 0 0.1 0zm-0.3 0.1q-0.1 0-0.1 0v1q0 0 0.1 0zm-0.1 0q-0.9 0-1.8-0.2l-0.2 1q1 0.2 2 0.2zm-5-1.6c-1-0.6-1.9-1.5-2.5-2.4l-0.8 0.5c0.7 1.1 1.6 2 2.7 2.8zm-3.8-5.8q-0.2-0.8-0.2-1.7h-1q0 1 0.2 1.9zm-0.2-1.7q0-0.9 0.2-1.8l-1-0.2q-0.2 1-0.2 2zm1.6-5c0.6-1 1.5-1.8 2.4-2.5l-0.5-0.8c-1.1 0.7-2 1.6-2.8 2.7zm5.7-3.8q0.9-0.2 1.8-0.2v-1q-1 0-1.9 0.2zm1.7-0.2q0.1 0 0.1 0v-1q0 0-0.1 0zm0.4 0q0 0.1 0.1 0.1v-1q0 0-0.1 0zm0.7-0.5v-1.1h-1v1.1zm0-3.1v-1h-1v1zm-0.6-1.5q0 0-0.1 0v1q0.1 0 0.2 0zm-0.4 0q0 0-0.1 0v1q0.1 0 0.1 0zm-0.1 0q-0.9 0-1.7-0.1l-0.2 1q0.9 0.1 1.9 0.1zm-5-1.5c-1-0.6-1.8-1.5-2.5-2.5l-0.8 0.6c0.7 1.1 1.7 2 2.8 2.8zm-3.9-5.8q-0.1-0.8-0.1-1.7h-1q0 1 0.1 1.9zm-0.1-1.7q0-0.9 0.1-1.8l-0.9-0.2q-0.2 1-0.2 2zm1.5-5c0.7-1 1.5-1.9 2.5-2.5l-0.6-0.8c-1.1 0.7-2 1.6-2.7 2.7zm5.7-3.8q0.8-0.2 1.7-0.2v-1q-1 0-1.9 0.2zm1.8-0.2q0 0 0.1 0v-1q-0.1 0-0.1 0zm0.3 0q0.1 0 0.1 0l0.1-1q-0.1 0-0.2 0zm0.7-0.5v-1h-1v1zm0-3v-1h-1v1zm-0.5-1.5q-0.1 0-0.2 0l0.1 1q0.1 0 0.1 0zm-0.3 0q-0.1 0-0.2 0v1q0.1 0 0.2 0zm-0.1 0q-0.9 0-1.8-0.1l-0.2 0.9q1 0.2 2 0.2zm-5-1.5c-1-0.6-1.9-1.5-2.5-2.5l-0.9 0.6c0.8 1.1 1.7 2 2.8 2.7zm-3.8-5.7q-0.2-0.8-0.2-1.7h-1q0 1 0.2 1.9zm-0.2-1.7q0-1 0.2-1.8l-1-0.2q-0.2 1-0.2 2zm1.5-5c0.7-1 1.5-1.9 2.5-2.5l-0.5-0.9c-1.1 0.8-2.1 1.7-2.8 2.8zm5.7-3.8q0.9-0.2 1.8-0.2v-1q-1 0-2 0.2zm1.8-0.2q0.1 0 0.1 0v-1q0 0-0.1 0zm0.3 0q0.1 0 0.2 0v-1q0 0-0.1 0zm0.6-0.5v-1h-1v1zm0-3v-1h-1v1zm-0.5-1.5q-0.1 0-0.1 0v1q0.1 0 0.2 0zm-0.4 0q-0.1 0-0.1 0v1q0.1 0 0.1 0zm-0.1 0q-0.9 0-1.8-0.2l-0.2 1q1 0.2 2 0.2zm-5-1.5c-1-0.7-1.8-1.5-2.5-2.5l-0.8 0.6c0.7 1.1 1.7 2 2.7 2.7zm-3.8-5.7q-0.2-0.9-0.2-1.8h-1q0 1 0.2 2zm-0.1-1.8q0-0.9 0.1-1.7l-0.9-0.2q-0.2 0.9-0.2 1.9zm1.5-5c0.6-0.9 1.5-1.8 2.5-2.4l-0.6-0.9c-1.1 0.8-2 1.7-2.8 2.8zm5.8-3.8q0.8-0.2 1.7-0.2v-1q-1 0-1.9 0.2zm1.7-0.2q0.1 0 0.2 0v-1q-0.1 0-0.2 0zm0.4 0q0.1 0 0.1 0l0.1-1q-0.1 0-0.2 0zm0.7-0.5v-1h-1v1zm0-3v-1h-1v1zm-0.6-1.5q0 0-0.1 0l0.1 1q0 0 0.1 0zm-0.4 0q0 0-0.1 0v1q0.1 0 0.2 0zm-0.2 0q-0.9 0-1.7-0.2l-0.2 1q0.9 0.2 1.9 0.2zm-5-1.5c-0.9-0.7-1.8-1.5-2.4-2.5l-0.9 0.6c0.8 1 1.7 2 2.8 2.7zm-3.8-5.7q-0.2-0.9-0.2-1.8h-1q0 1 0.2 2zm-0.2-1.8q0-0.9 0.2-1.7l-1-0.2q-0.2 0.9-0.2 1.9zm1.5-5c0.7-1 1.5-1.8 2.5-2.5l-0.6-0.8c-1 0.7-2 1.7-2.7 2.8zm5.7-3.9q0.9-0.1 1.8-0.1v-1q-1 0-2 0.2zm1.8-0.2q0 0 0.1 0v-1q-0.1 0-0.1 0zm0.3 0q0.1 0 0.2 0v-1q-0.1 0-0.1 0zm0.6-0.5v-1h-1v1zm0-3v-1h-1v1zm-0.5-1.5q-0.1 0-0.1 0v1q0.1 0 0.1 0zm-0.3 0q-0.1 0-0.1 0v1q0 0 0.1 0zm-0.1 0q-0.9 0-1.8-0.2l-0.2 1q1 0.2 2 0.2zm-5-1.5c-1-0.7-1.8-1.5-2.5-2.5l-0.8 0.5c0.7 1.1 1.6 2.1 2.7 2.8zm-3.8-5.7q-0.2-0.9-0.2-1.8h-1q0 1 0.2 2zm-0.2-1.8q0-0.9 0.2-1.7l-1-0.2q-0.2 0.9-0.2 1.9zm1.6-5c0.6-1 1.5-1.8 2.4-2.5l-0.5-0.8c-1.1 0.7-2 1.7-2.8 2.8zm5.8-3.9q0.8-0.1 1.7-0.1v-1q-1 0-1.9 0.1zm1.7-0.1q0.1 0 0.1 0v-1q0 0-0.1 0zm0.4 0q0 0 0.1 0v-1q0 0-0.1 0zm0.7-0.5v-1h-1v1zm0-3v-1h-1v1zm-0.6-1.5q0 0-0.1 0l0.1 1q0 0 0.1 0zm-0.4 0q0 0-0.1 0v1q0.1 0 0.1 0zm-0.1 0q-0.9 0-1.7-0.2l-0.2 1q0.9 0.2 1.9 0.2zm-5-1.5c-1-0.7-1.8-1.5-2.5-2.5l-0.8 0.5c0.7 1.1 1.7 2.1 2.8 2.8zm-3.9-5.7q-0.1-0.9-0.1-1.8h-1q0 1 0.2 2zm-0.2-1.8q0-0.9 0.2-1.8l-1-0.2q-0.2 1-0.2 2zm1.5-5c0.7-1 1.5-1.8 2.5-2.5l-0.6-0.8c-1.1 0.7-2 1.7-2.7 2.7zm5.7-3.8q0.8-0.2 1.8-0.2v-1q-1 0-2 0.2zm1.8-0.1q0 0 0.1 0v-1q-0.1 0-0.1 0zm0.3 0q0.1 0 0.1 0l0.1-1q-0.1 0-0.1 0zm0.6-0.5v-1h-1v1zm0-3v-1h-1v1zm-0.5-1.5q-0.1 0-0.1 0v1q0.1 0 0.1 0zm-0.3 0q-0.1 0-0.2 0v1q0.1 0 0.2 0zm-0.1 0q-0.9 0-1.8-0.2l-0.2 1q1 0.2 2 0.2zm-5-1.6c-1-0.6-1.9-1.5-2.5-2.4l-0.9 0.5c0.8 1.1 1.7 2 2.8 2.8zm-3.8-5.7q-0.2-0.9-0.2-1.8h-1q0 1 0.2 1.9zm-0.2-1.7q0-0.9 0.2-1.8l-1-0.2q-0.2 1-0.2 2zm1.5-5c0.7-1 1.5-1.8 2.5-2.5l-0.5-0.8c-1.1 0.7-2.1 1.6-2.8 2.7zm5.7-3.8q0.9-0.2 1.8-0.2v-1q-1 0-2 0.2zm1.9-1.1q0 0-0.1 0v1q0.1 0 0.1 0zm0.3 1h0.1v-1h-0.1zm-0.4-0.5h1zm0 0h1zm0.5-0.5q-0.1 0-0.1 0l-0.1 1q0.1 0 0.2 0zm-0.6 0.9h0.2v-1h-0.2z"/>
	</g>
</svg>