<svg width="38" height="38" viewBox="0 0 38 38" fill="none" xmlns="http://www.w3.org/2000/svg">
<path d="M32.6487 13.3788C30.9862 6.06384 24.6054 2.77051 19.0004 2.77051C19.0004 2.77051 19.0004 2.77051 18.9846 2.77051C13.3954 2.77051 6.99873 6.04801 5.33623 13.363C3.48373 21.533 8.48706 28.4522 13.0154 32.8063C14.6937 34.4213 16.8471 35.2288 19.0004 35.2288C21.1537 35.2288 23.3071 34.4213 24.9696 32.8063C29.4979 28.4522 34.5012 21.5488 32.6487 13.3788ZM19.0004 21.3113C16.2454 21.3113 14.0129 19.0788 14.0129 16.3238C14.0129 13.5688 16.2454 11.3363 19.0004 11.3363C21.7554 11.3363 23.9879 13.5688 23.9879 16.3238C23.9879 19.0788 21.7554 21.3113 19.0004 21.3113Z" fill="url(#paint0_linear_2594_1363)"/>
<defs>
<linearGradient id="paint0_linear_2594_1363" x1="2.75212" y1="-62.6098" x2="62.0993" y2="-45.8816" gradientUnits="userSpaceOnUse">
<stop stop-color="#159F36"/>
<stop offset="1" stop-color="#CBDA1B"/>
</linearGradient>
</defs>
</svg>
