<svg width="38" height="38" viewBox="0 0 38 38" fill="none" xmlns="http://www.w3.org/2000/svg">
<path d="M26.917 5.54199H11.0837C6.33366 5.54199 3.16699 7.91699 3.16699 13.4587V24.542C3.16699 30.0837 6.33366 32.4587 11.0837 32.4587H26.917C31.667 32.4587 34.8337 30.0837 34.8337 24.542V13.4587C34.8337 7.91699 31.667 5.54199 26.917 5.54199ZM27.6612 15.1845L22.7053 19.1428C21.6603 19.982 20.3303 20.3937 19.0003 20.3937C17.6703 20.3937 16.3245 19.982 15.2953 19.1428L10.3395 15.1845C9.83283 14.7728 9.75366 14.0128 10.1495 13.5062C10.5612 12.9995 11.3053 12.9045 11.812 13.3162L16.7678 17.2745C17.9712 18.2403 20.0137 18.2403 21.217 17.2745L26.1728 13.3162C26.6795 12.9045 27.4395 12.9837 27.8353 13.5062C28.247 14.0128 28.1678 14.7728 27.6612 15.1845Z" fill="url(#paint0_linear_2594_1379)"/>
<defs>
<linearGradient id="paint0_linear_2594_1379" x1="0.701282" y1="-48.6759" x2="63.6508" y2="-24.5668" gradientUnits="userSpaceOnUse">
<stop stop-color="#159F36"/>
<stop offset="1" stop-color="#CBDA1B"/>
</linearGradient>
</defs>
</svg>
