<svg width="63" height="63" viewBox="0 0 63 63" fill="none" xmlns="http://www.w3.org/2000/svg">
<path d="M44.6034 58.4528C39.6915 58.4528 35.0738 56.5405 31.601 53.0644C28.1281 49.5884 26.2158 44.9707 26.2158 40.0556C26.2158 37.5229 26.7211 35.0702 27.7156 32.7646C28.6781 30.5389 30.05 28.5466 31.7992 26.8518L32.6914 27.7727C31.0637 29.3525 29.7878 31.204 28.8924 33.2762C27.965 35.422 27.495 37.702 27.495 40.0588C27.495 44.6317 29.2729 48.9296 32.5059 52.1626C35.7358 55.3956 40.0337 57.1768 44.6034 57.1768C49.1731 57.1768 53.4678 55.3956 56.7008 52.1626C59.9306 48.9296 61.7118 44.6317 61.7118 40.0588C61.7118 35.4859 59.9338 31.188 56.7008 27.955C53.471 24.722 49.1731 22.9408 44.6034 22.9408C41.8532 22.9408 39.2278 23.574 36.7974 24.8211L36.2123 23.6795C38.8249 22.3364 41.6486 21.6553 44.6034 21.6553C49.5152 21.6553 54.1329 23.5676 57.6058 27.0436C61.0786 30.5197 62.9909 35.1373 62.9909 40.0524C62.9909 44.9675 61.0786 49.5852 57.6058 53.0612C54.1361 56.5405 49.5152 58.4528 44.6034 58.4528Z" fill="#61391A"/>
<path d="M44.6036 53.899C40.9069 53.899 37.4309 52.46 34.8183 49.8442C32.2056 47.2284 30.7666 43.7523 30.7666 40.0556C30.7666 36.6243 32.0297 33.3338 34.3258 30.7883L35.2787 31.6453C33.197 33.9541 32.0521 36.9409 32.0521 40.0556C32.0521 46.9821 37.6867 52.6199 44.61 52.6199C51.5334 52.6199 57.1679 46.9853 57.1679 40.0556C57.1679 33.1291 51.5334 27.4913 44.61 27.4913C42.7713 27.4913 40.9997 27.8783 39.3464 28.6457L38.8092 27.4817C40.6351 26.6375 42.5858 26.209 44.61 26.209C48.3067 26.209 51.7828 27.648 54.3954 30.2638C57.008 32.8797 58.447 36.3557 58.447 40.0524C58.447 43.7491 57.008 47.2284 54.3954 49.841C51.7764 52.46 48.3003 53.899 44.6036 53.899Z" fill="#61391A"/>
<path d="M20.997 58.4529C15.388 58.4529 10.1147 56.2688 6.14943 52.3002C2.18412 48.3317 0 43.0553 0 37.4463C0 31.8341 2.18412 26.5577 6.14943 22.5892C10.1147 18.6206 15.388 16.4365 20.997 16.4365C26.606 16.4365 31.8792 18.6206 35.8445 22.5892C39.8098 26.5577 41.994 31.8341 41.994 37.4463C41.994 42.3838 40.2479 47.1837 37.0757 50.9572L36.094 50.1321C39.0712 46.5889 40.7116 42.0832 40.7116 37.4463C40.7116 32.1763 38.6618 27.2228 34.9364 23.4973C31.2109 19.7719 26.2606 17.7188 20.9938 17.7188C15.7269 17.7188 10.7767 19.7719 7.0512 23.4973C3.32573 27.2228 1.27593 32.1763 1.27593 37.4463C1.27593 42.7163 3.32573 47.6698 7.0512 51.3953C10.7767 55.1207 15.7269 57.1737 20.9938 57.1737C25.3204 57.1737 29.4233 55.7987 32.8673 53.1988L33.638 54.2222C29.9765 56.9883 25.6018 58.4529 20.997 58.4529Z" fill="#61391A"/>
<path d="M20.9969 53.2307C16.7821 53.2307 12.82 51.5902 9.83961 48.6066C6.85922 45.6231 5.21875 41.6609 5.21875 37.443C5.21875 33.2251 6.85922 29.2629 9.83961 26.2794C12.82 23.299 16.7821 21.6553 20.9969 21.6553C25.2116 21.6553 29.1737 23.299 32.1541 26.2794C35.1345 29.2597 36.775 33.2251 36.775 37.443C36.775 40.8935 35.6813 44.1712 33.6155 46.9214L32.5922 46.1507C34.4917 43.6244 35.4927 40.6121 35.4927 37.443C35.4927 33.5672 33.9833 29.9249 31.2459 27.1875C28.5086 24.4502 24.8662 22.9408 20.9937 22.9408C17.1211 22.9408 13.4788 24.4502 10.7414 27.1875C8.00407 29.9281 6.49468 33.5704 6.49468 37.443C6.49468 41.3188 8.00407 44.9611 10.7414 47.6984C13.4788 50.439 17.1211 51.9452 20.9937 51.9452C24.0252 51.9452 26.9256 51.021 29.388 49.2686L30.1299 50.3143C27.4533 52.2234 24.2938 53.2307 20.9969 53.2307Z" fill="#61391A"/>
<path d="M54.0985 25.1056L53.056 24.3605C53.7276 23.4204 54.348 22.461 54.9076 21.5048C56.6696 18.4797 57.2868 14.8981 56.644 11.4253C56.0364 8.14429 54.3288 5.21508 51.956 3.38591C49.7143 1.65908 47.0185 0.977946 44.1629 1.41925C40.8115 1.9373 37.3835 3.92635 33.9778 7.33205L33.5237 7.78613L33.0695 7.33205C29.8142 4.07665 26.5332 2.11318 23.3161 1.4928C20.566 0.961956 17.931 1.46721 15.6989 2.95101C13.3421 4.51795 11.5673 7.06343 10.7103 10.1206C9.8245 13.2672 10.0132 16.6537 11.238 19.6597L10.0515 20.1426C8.72123 16.8744 8.5166 13.1905 9.47915 9.772C10.4225 6.42067 12.3796 3.61616 14.9922 1.87974C17.5121 0.207269 20.4733 -0.365145 23.5624 0.229652C26.8849 0.86922 30.2331 2.80071 33.5269 5.97616C36.9837 2.64401 40.4917 0.683747 43.9678 0.14651C47.1816 -0.349154 50.2131 0.418322 52.7394 2.3658C55.3585 4.38364 57.2388 7.60066 57.9039 11.1854C58.6043 14.9621 57.9327 18.8538 56.014 22.1444C55.4384 23.1389 54.7924 24.1335 54.0985 25.1056Z" fill="#61391A"/>
<path d="M41.7288 37.1683L40.9805 36.129C44.5237 33.5804 47.6288 30.8174 50.2095 27.917L51.1656 28.7676C48.5242 31.7384 45.3487 34.5653 41.7288 37.1683Z" fill="#61391A"/>
<path d="M33.5263 42.1754L33.2481 42.041C33.2161 42.0251 32.4135 41.6381 31.0928 40.8834L31.7259 39.7706C32.5606 40.2471 33.1873 40.5764 33.5231 40.7459C33.8909 40.5573 34.6072 40.1831 35.5665 39.6299L36.2061 40.7395C34.7383 41.587 33.8397 42.0219 33.8013 42.041L33.5263 42.1754Z" fill="#61391A"/>
<path d="M26.6667 38.1111C22.6342 35.3578 16.9452 30.8137 12.7305 24.7921L13.7794 24.0566C17.8822 29.9183 23.4432 34.3569 27.3862 37.0526L26.6667 38.1111Z" fill="#61391A"/>
<path d="M36.0401 19.4357C35.5125 19.3814 35.1255 18.9113 35.1799 18.3836C35.2343 17.856 35.7043 17.4691 36.232 17.5234C36.7596 17.5778 37.1466 18.0479 37.0922 18.5755C37.041 19.0712 36.6253 19.4421 36.136 19.4421C36.1041 19.4389 36.0721 19.4389 36.0401 19.4357ZM36.3599 16.2475C35.8322 16.1931 35.4453 15.723 35.4997 15.1954C35.554 14.6677 36.0241 14.2808 36.5517 14.3352C37.0794 14.3895 37.4663 14.8596 37.412 15.3873C37.3608 15.8829 36.9451 16.2539 36.4558 16.2539C36.4239 16.2507 36.3919 16.2507 36.3599 16.2475Z" fill="#61391A"/>
<path d="M38.2435 20.5647C37.9749 20.1074 38.1251 19.519 38.5824 19.2472C39.0397 18.9785 39.6282 19.1288 39.8968 19.5861C40.1654 20.0434 40.0151 20.6318 39.5578 20.9036C39.4043 20.9932 39.238 21.0379 39.0717 21.0379C38.7423 21.0379 38.4226 20.8685 38.2435 20.5647ZM41.0032 18.937C40.7346 18.4797 40.8849 17.8913 41.3422 17.6195C41.7995 17.3508 42.3879 17.5011 42.6565 17.9584C42.9251 18.4157 42.7748 19.0041 42.3175 19.2759C42.164 19.3655 41.9977 19.4102 41.8314 19.4102C41.5021 19.4102 41.1823 19.2408 41.0032 18.937Z" fill="#61391A"/>
<path d="M30.6577 62.8305C30.1524 62.6738 29.8678 62.1334 30.0245 61.6282C30.1812 61.1197 30.7216 60.8383 31.2268 60.995C31.7321 61.1517 32.0167 61.6921 31.8601 62.1974C31.7321 62.6099 31.3516 62.8721 30.9423 62.8721C30.8463 62.8753 30.7504 62.8625 30.6577 62.8305ZM31.6074 59.7734C31.1022 59.6167 30.8176 59.0763 30.9742 58.571C31.1309 58.0626 31.6714 57.7812 32.1766 57.9379C32.6819 58.0946 32.9665 58.635 32.8066 59.1402C32.6787 59.5528 32.2981 59.815 31.8888 59.815C31.7993 59.815 31.7033 59.8022 31.6074 59.7734Z" fill="#61391A"/>
<path d="M35.5953 62.3288C35.4354 61.8235 35.7168 61.2831 36.222 61.1232C36.7273 60.9633 37.2677 61.2447 37.4276 61.75C37.5875 62.2552 37.3061 62.7957 36.8009 62.9555C36.7049 62.9843 36.609 63.0003 36.5099 63.0003C36.1037 63.0035 35.7264 62.7413 35.5953 62.3288ZM34.6327 59.2748C34.4728 58.7696 34.7543 58.2291 35.2595 58.0693C35.7648 57.9094 36.3052 58.1908 36.4651 58.696C36.625 59.2013 36.3436 59.7417 35.8383 59.9016C35.7424 59.9304 35.6432 59.9464 35.5473 59.9464C35.138 59.9464 34.7606 59.6842 34.6327 59.2748Z" fill="#61391A"/>
</svg>
