<svg width="69" height="56" viewBox="0 0 69 56" fill="none" xmlns="http://www.w3.org/2000/svg">
<path d="M63.3807 55.9993H4.74904C2.13072 55.9993 0 53.8686 0 51.2502V8.9463C0 6.32798 2.13072 4.19727 4.74904 4.19727H63.3807C65.999 4.19727 68.1298 6.32798 68.1298 8.9463V51.2502C68.1298 53.8652 65.999 55.9993 63.3807 55.9993ZM4.75238 5.5298C2.86879 5.5298 1.33922 7.06275 1.33922 8.943V51.2469C1.33922 53.1305 2.87213 54.6601 4.75238 54.6601H63.3841C65.2676 54.6601 66.7973 53.1272 66.7973 51.2469V8.943C66.7973 7.05941 65.2643 5.5298 63.3841 5.5298H4.75238Z" fill="#61391A"/>
<path d="M7.81441 11.4819V10.146C8.53579 10.146 9.12689 9.55819 9.12689 8.83348V2.64836C9.12689 1.92698 8.53913 1.33588 7.81441 1.33588C7.09304 1.33588 6.50189 1.92364 6.50189 2.64836V4.86258H5.16602V2.64836C5.16602 1.18891 6.35497 0 7.81441 0C9.27386 0 10.4628 1.18891 10.4628 2.64836V8.83348C10.4594 10.2929 9.27386 11.4819 7.81441 11.4819Z" fill="#61391A"/>
<path d="M20.9238 11.4819V10.146C21.6452 10.146 22.2363 9.55819 22.2363 8.83348V2.64836C22.2363 1.92698 21.6485 1.33588 20.9238 1.33588C20.1991 1.33588 19.6113 1.92364 19.6113 2.64836V4.86258H18.2754V2.64836C18.2754 1.18891 19.4643 0 20.9238 0C22.3832 0 23.5721 1.18891 23.5721 2.64836V8.83348C23.5721 10.2929 22.3832 11.4819 20.9238 11.4819Z" fill="#61391A"/>
<path d="M34.0361 11.4819V10.146C34.7574 10.146 35.3486 9.55819 35.3486 8.83348V2.64836C35.3486 1.92698 34.7608 1.33588 34.0361 1.33588C33.3147 1.33588 32.7236 1.92364 32.7236 2.64836V4.86258H31.3877V2.64836C31.3877 1.18891 32.5766 0 34.0361 0C35.4955 0 36.6844 1.18891 36.6844 2.64836V8.83348C36.6811 10.2929 35.4955 11.4819 34.0361 11.4819Z" fill="#61391A"/>
<path d="M47.1425 11.4819V10.146C47.8639 10.146 48.455 9.55819 48.455 8.83348V2.64836C48.455 1.92698 47.8672 1.33588 47.1425 1.33588C46.4178 1.33588 45.83 1.92364 45.83 2.64836V4.86258H44.4941V2.64836C44.4941 1.18891 45.683 0 47.1425 0C48.6019 0 49.7909 1.18891 49.7909 2.64836V8.83348C49.7909 10.2929 48.6019 11.4819 47.1425 11.4819Z" fill="#61391A"/>
<path d="M60.2548 11.4819V10.146C60.9762 10.146 61.5673 9.55819 61.5673 8.83348V2.64836C61.5673 1.92698 60.9795 1.33588 60.2548 1.33588C59.5301 1.33588 58.9423 1.92364 58.9423 2.64836V4.86258H57.6064V2.64836C57.6064 1.18891 58.7954 0 60.2548 0C61.7142 0 62.9032 1.18891 62.9032 2.64836V8.83348C62.8999 10.2929 61.7142 11.4819 60.2548 11.4819Z" fill="#61391A"/>
<path d="M60.0699 15.5117C60.0699 14.9573 60.5174 14.5098 61.0718 14.5098C61.6262 14.5098 62.0737 14.9573 62.0737 15.5117C62.0737 16.0661 61.6262 16.5136 61.0718 16.5136C60.5174 16.5136 60.0699 16.0661 60.0699 15.5117ZM56.7302 15.5117C56.7302 14.9573 57.1777 14.5098 57.7321 14.5098C58.2865 14.5098 58.734 14.9573 58.734 15.5117C58.734 16.0661 58.2865 16.5136 57.7321 16.5136C57.1777 16.5136 56.7302 16.0661 56.7302 15.5117ZM53.3905 15.5117C53.3905 14.9573 53.838 14.5098 54.3924 14.5098C54.9468 14.5098 55.3943 14.9573 55.3943 15.5117C55.3943 16.0661 54.9468 16.5136 54.3924 16.5136C53.838 16.5136 53.3905 16.0661 53.3905 15.5117ZM50.0508 15.5117C50.0508 14.9573 50.4983 14.5098 51.0527 14.5098C51.6071 14.5098 52.0546 14.9573 52.0546 15.5117C52.0546 16.0661 51.6071 16.5136 51.0527 16.5136C50.4983 16.5136 50.0508 16.0661 50.0508 15.5117ZM46.7111 15.5117C46.7111 14.9573 47.1586 14.5098 47.713 14.5098C48.2674 14.5098 48.7149 14.9573 48.7149 15.5117C48.7149 16.0661 48.2674 16.5136 47.713 16.5136C47.1586 16.5136 46.7111 16.0661 46.7111 15.5117ZM43.3714 15.5117C43.3714 14.9573 43.8189 14.5098 44.3733 14.5098C44.9277 14.5098 45.3752 14.9573 45.3752 15.5117C45.3752 16.0661 44.9277 16.5136 44.3733 16.5136C43.8189 16.5136 43.3714 16.0661 43.3714 15.5117ZM40.0317 15.5117C40.0317 14.9573 40.4792 14.5098 41.0336 14.5098C41.588 14.5098 42.0355 14.9573 42.0355 15.5117C42.0355 16.0661 41.588 16.5136 41.0336 16.5136C40.4792 16.5136 40.0317 16.0661 40.0317 15.5117ZM36.692 15.5117C36.692 14.9573 37.1395 14.5098 37.6939 14.5098C38.2483 14.5098 38.6958 14.9573 38.6958 15.5117C38.6958 16.0661 38.2483 16.5136 37.6939 16.5136C37.1395 16.5136 36.692 16.0661 36.692 15.5117ZM33.3523 15.5117C33.3523 14.9573 33.7999 14.5098 34.3542 14.5098C34.9086 14.5098 35.3562 14.9573 35.3562 15.5117C35.3562 16.0661 34.9086 16.5136 34.3542 16.5136C33.7999 16.5136 33.3523 16.0661 33.3523 15.5117ZM30.0126 15.5117C30.0126 14.9573 30.4602 14.5098 31.0145 14.5098C31.5689 14.5098 32.0165 14.9573 32.0165 15.5117C32.0165 16.0661 31.5689 16.5136 31.0145 16.5136C30.4602 16.5136 30.0126 16.0661 30.0126 15.5117ZM26.6729 15.5117C26.6729 14.9573 27.1205 14.5098 27.6748 14.5098C28.2292 14.5098 28.6768 14.9573 28.6768 15.5117C28.6768 16.0661 28.2292 16.5136 27.6748 16.5136C27.1205 16.5136 26.6729 16.0661 26.6729 15.5117ZM23.3332 15.5117C23.3332 14.9573 23.7808 14.5098 24.3352 14.5098C24.8895 14.5098 25.3371 14.9573 25.3371 15.5117C25.3371 16.0661 24.8895 16.5136 24.3352 16.5136C23.7808 16.5136 23.3332 16.0661 23.3332 15.5117ZM19.9935 15.5117C19.9935 14.9573 20.4411 14.5098 20.9955 14.5098C21.5498 14.5098 21.9974 14.9573 21.9974 15.5117C21.9974 16.0661 21.5498 16.5136 20.9955 16.5136C20.4411 16.5136 19.9935 16.0661 19.9935 15.5117ZM16.6539 15.5117C16.6539 14.9573 17.1014 14.5098 17.6558 14.5098C18.2102 14.5098 18.6577 14.9573 18.6577 15.5117C18.6577 16.0661 18.2102 16.5136 17.6558 16.5136C17.1014 16.5136 16.6539 16.0661 16.6539 15.5117ZM13.3142 15.5117C13.3142 14.9573 13.7617 14.5098 14.3161 14.5098C14.8705 14.5098 15.318 14.9573 15.318 15.5117C15.318 16.0661 14.8705 16.5136 14.3161 16.5136C13.7617 16.5136 13.3142 16.0661 13.3142 15.5117ZM9.97446 15.5117C9.97446 14.9573 10.422 14.5098 10.9764 14.5098C11.5308 14.5098 11.9783 14.9573 11.9783 15.5117C11.9783 16.0661 11.5308 16.5136 10.9764 16.5136C10.422 16.5136 9.97446 16.0661 9.97446 15.5117ZM6.63477 15.5117C6.63477 14.9573 7.08228 14.5098 7.63667 14.5098C8.19106 14.5098 8.63858 14.9573 8.63858 15.5117C8.63858 16.0661 8.19106 16.5136 7.63667 16.5136C7.08228 16.5136 6.63477 16.0661 6.63477 15.5117Z" fill="#61391A"/>
<path d="M41.5822 45.9948C34.9229 45.9948 29.5059 40.5778 29.5059 33.9185C29.5059 32.1818 29.8665 30.5087 30.5779 28.939L31.7935 29.49C31.1623 30.886 30.8417 32.3755 30.8417 33.9185C30.8417 39.8397 35.6609 44.6589 41.5822 44.6589C47.5035 44.6589 52.3226 39.8397 52.3226 33.9185C52.3226 27.9972 47.5035 23.178 41.5822 23.178C38.1958 23.178 35.0765 24.7276 33.0259 27.4261C32.8823 27.6131 32.7453 27.8102 32.6151 28.0072L31.4996 27.2725C31.6466 27.052 31.8002 26.8316 31.9605 26.6212C33.0626 25.1685 34.502 23.9662 36.1251 23.1446C37.825 22.283 39.6619 21.8455 41.5822 21.8455C48.2416 21.8455 53.6585 27.2625 53.6585 33.9218C53.6585 40.5778 48.2416 45.9948 41.5822 45.9948Z" fill="#61391A"/>
<path d="M25.9199 45.9949C20.6332 45.9949 16.335 41.6934 16.335 36.41C16.335 31.1233 20.6365 26.8251 25.9199 26.8251C31.2033 26.8251 35.5048 31.1266 35.5048 36.41C35.5048 37.6591 35.2677 38.8714 34.8035 40.0202L33.5645 39.5159C33.9652 38.5307 34.1689 37.4854 34.1689 36.41C34.1689 31.8614 30.4686 28.161 25.9199 28.161C21.3712 28.161 17.6708 31.8614 17.6708 36.41C17.6708 40.9587 21.3712 44.6591 25.9199 44.6591C28.565 44.6591 31.0697 43.3766 32.6193 41.2258L33.7047 42.0074C31.9046 44.5021 28.9958 45.9949 25.9199 45.9949Z" fill="#61391A"/>
</svg>
