<svg width="58" height="56" viewBox="0 0 58 56" fill="none" xmlns="http://www.w3.org/2000/svg">
<path d="M13.8667 55.9999H8.25004C6.65454 55.9999 5.35449 54.7027 5.35449 53.1044C5.35449 51.5061 6.65173 50.2089 8.25004 50.2089H13.8667C15.4622 50.2089 16.7622 51.5061 16.7622 53.1044C16.7622 54.7027 15.4622 55.9999 13.8667 55.9999ZM8.25004 51.3373C7.27361 51.3373 6.48007 52.1308 6.48007 53.1072C6.48007 54.0836 7.27361 54.8772 8.25004 54.8772H13.8667C14.8431 54.8772 15.6366 54.0836 15.6366 53.1072C15.6366 52.1308 14.8431 51.3373 13.8667 51.3373H8.25004Z" fill="#61391A"/>
<path d="M49.1596 56.0001H43.5429C41.9474 56.0001 40.6475 54.7028 40.6475 53.1045C40.6475 51.5062 41.9446 50.209 43.5429 50.209H49.1596C50.7551 50.209 52.0551 51.5062 52.0551 53.1045C52.0551 54.7028 50.7579 56.0001 49.1596 56.0001ZM43.5429 51.3374C42.5665 51.3374 41.773 52.1309 41.773 53.1073C41.773 54.0838 42.5665 54.8773 43.5429 54.8773H49.1596C50.1361 54.8773 50.9295 54.0838 50.9295 53.1073C50.9295 52.1309 50.1361 51.3374 49.1596 51.3374H43.5429Z" fill="#61391A"/>
<path d="M49.7227 51.3374H42.9805V25.3394H44.106V50.2118H48.5971V24.2786H49.7227V51.3374Z" fill="#61391A"/>
<path d="M49.7216 24.2786H48.596C48.596 20.2125 47.3776 16.3011 45.0702 12.9694C42.8162 9.71369 39.6871 7.22618 36.0205 5.77419L36.4341 4.72742C40.3089 6.26101 43.6154 8.88923 45.996 12.3279C48.4357 15.8481 49.7216 19.9818 49.7216 24.2786Z" fill="#61391A"/>
<path d="M8.81405 24.2788H7.68848C7.68848 20.0016 8.966 15.8876 11.3804 12.3758C13.7384 8.94847 17.0195 6.31743 20.8662 4.77258L21.2854 5.81658C17.6442 7.27982 14.5404 9.77015 12.309 13.0146C10.0212 16.3351 8.81405 20.2296 8.81405 24.2788Z" fill="#61391A"/>
<path d="M28.652 14.0668L28.4072 13.9486C28.213 13.8557 23.6179 11.6046 21.2429 7.53C20.5929 6.41569 20.3677 5.10156 20.6041 3.82404C20.8292 2.6056 21.4736 1.511 22.3685 0.82159C23.2464 0.146245 24.2988 -0.121076 25.4131 0.0505737C26.4993 0.21941 27.5883 0.790618 28.6548 1.75298C29.7213 0.790618 30.8103 0.21941 31.8964 0.0505737C33.0108 -0.121076 34.0632 0.146245 34.9411 0.82159C35.836 1.511 36.4804 2.6056 36.7055 3.82404C36.9419 5.10156 36.7139 6.41569 36.0667 7.53C33.6918 11.6046 29.0966 13.8557 28.9024 13.9486L28.652 14.0668ZM24.7688 1.12548C24.1441 1.12548 23.5587 1.32526 23.055 1.71359C21.7606 2.71253 21.0712 5.00309 22.2137 6.9644C24.1131 10.2229 27.6868 12.294 28.652 12.8118C29.6172 12.2968 33.1881 10.2258 35.0903 6.9644C36.2328 5.00309 35.5433 2.71253 34.2489 1.71359C33.6214 1.22959 32.8673 1.04107 32.0625 1.16488C31.0804 1.31683 30.0674 1.91058 29.0487 2.92923L28.652 3.32597L28.2552 2.92923C27.2366 1.91058 26.2207 1.31683 25.2415 1.16488C25.0811 1.13674 24.9235 1.12548 24.7688 1.12548Z" fill="#61391A"/>
<path d="M8.35287 27.6437L8.14746 26.5378C11.3919 25.9356 14.3438 24.7903 16.9213 23.1357C18.9811 21.8132 20.8102 20.1642 22.3578 18.2339C24.9889 14.95 25.8921 11.9756 25.9034 11.9475L26.9812 12.2683C26.9418 12.3977 26.0047 15.4847 23.2358 18.9374C21.6121 20.9634 19.693 22.6967 17.5291 24.084C14.8277 25.8146 11.7409 27.0133 8.35287 27.6437Z" fill="#61391A"/>
<path d="M49.1878 27.6443C45.7998 27.014 42.713 25.8152 40.0116 24.0818C37.8477 22.6946 35.9286 20.9612 34.3049 18.9352C31.536 15.4796 30.599 12.3955 30.5596 12.2661L31.6373 11.9453C31.6542 11.9988 32.5772 14.9985 35.211 18.2711C36.7587 20.193 38.5878 21.8363 40.6447 23.1532C43.2167 24.7994 46.16 25.9362 49.3932 26.5384L49.1878 27.6443Z" fill="#61391A"/>
<path d="M14.4307 51.3374H7.68848V24.2786H8.81405V50.2118H13.3051V25.3957H14.4307V51.3374Z" fill="#61391A"/>
<path d="M0.404297 28.9634L1.60585 22.2803L8.41557 24.3766L8.08354 25.4516L2.48943 23.7294L1.78595 27.6436L8.17357 26.7938L8.32272 27.9081L0.404297 28.9634Z" fill="#61391A"/>
<path d="M1.66583 45.0023C1.48574 45.0023 1.31128 44.9798 1.14526 44.932C0.374238 44.7125 0.078771 44.0737 0.0506316 44.0034L0 43.8852L0.00563337 43.7586C0.227934 38.1673 2.08511 33.9351 3.60463 31.3688C5.25642 28.5774 6.84629 27.1226 6.91383 27.0635L7.66798 27.8992C7.65391 27.9133 6.11466 29.3259 4.5473 31.985C3.12063 34.405 1.37881 38.3839 1.13681 43.6375C1.1959 43.7107 1.30284 43.812 1.46887 43.857C1.82905 43.9499 2.37494 43.7614 2.99963 43.3224C4.0239 42.6048 5.32677 42.5035 6.77313 43.0269C7.80866 43.4012 8.55997 43.9696 8.59092 43.9949L7.90715 44.8898C7.90153 44.8841 7.24307 44.3889 6.36231 44.0765C5.27331 43.6882 4.35596 43.7445 3.64403 44.2454C2.92085 44.7462 2.25676 45.0023 1.66583 45.0023Z" fill="#61391A"/>
<path d="M57.0045 28.9634L49.0862 27.9081L49.2352 26.7938L55.6229 27.6436L54.9194 23.7294L49.3253 25.4516L48.9961 24.3766L55.803 22.2803L57.0045 28.9634Z" fill="#61391A"/>
<path d="M55.7445 45.0023C55.1535 45.0023 54.4894 44.7462 53.7663 44.2397C52.0047 43.0072 49.5257 44.8672 49.5032 44.8869L48.8193 43.9921C48.8503 43.9668 49.6017 43.3984 50.6372 43.0241C52.0836 42.5007 53.3864 42.602 54.4107 43.3196C55.0382 43.7585 55.5812 43.9471 55.9414 43.8542C56.1074 43.812 56.2144 43.7107 56.2735 43.6347C56.0315 38.3811 54.2897 34.405 52.863 31.9822C51.2956 29.3231 49.7592 27.9105 49.7423 27.8964L50.4993 27.0635C50.5669 27.1254 52.1567 28.5774 53.8084 31.3688C55.328 33.9351 57.1824 38.1644 57.4075 43.7586L57.4131 43.8852L57.3625 44.0034C57.3315 44.0765 57.0389 44.7125 56.2679 44.932C56.0991 44.977 55.9246 45.0023 55.7445 45.0023Z" fill="#61391A"/>
<path d="M23.8703 52.1279H20.927C20.1306 52.1279 19.4665 51.506 19.4159 50.7097L18.7715 41.798H26.0286L25.3842 50.7097C25.3308 51.506 24.6667 52.1279 23.8703 52.1279ZM19.9787 42.9235L20.5386 50.6365C20.5527 50.8419 20.7216 51.0023 20.927 51.0023H23.8703C24.0758 51.0023 24.2474 50.8419 24.2587 50.6365V50.6309L24.8158 42.9235H19.9787Z" fill="#61391A"/>
<path d="M25.4842 42.9231H19.3104C18.8686 42.9231 18.4466 42.7346 18.1511 42.4081C17.8556 42.0817 17.7121 41.6456 17.7543 41.2094L18.4578 32.8154C18.5422 31.9769 19.2429 31.3438 20.0843 31.3438H24.7047C25.5489 31.3438 26.2468 31.9769 26.3312 32.8154V32.8239L27.0347 41.2094C27.0769 41.6456 26.9334 42.0817 26.6379 42.4081C26.3481 42.7374 25.926 42.9231 25.4842 42.9231ZM19.5834 32.9252L18.8799 41.3163C18.8686 41.4401 18.908 41.5612 18.9896 41.654C19.0741 41.7469 19.1894 41.7975 19.3132 41.7975H25.487C25.6108 41.7975 25.7262 41.7469 25.8106 41.654C25.895 41.5612 25.9344 41.443 25.9204 41.3163V41.3079L25.2169 32.9252C25.1887 32.6663 24.9721 32.4693 24.7104 32.4693H20.0899C19.8282 32.4721 19.6115 32.6663 19.5834 32.9252Z" fill="#61391A"/>
<path d="M22.3984 32.4716C20.3695 32.4716 18.7178 30.8198 18.7178 28.791C18.7178 26.7621 20.3695 25.1104 22.3984 25.1104C24.4272 25.1104 26.079 26.7621 26.079 28.791C26.079 30.8198 24.4272 32.4716 22.3984 32.4716ZM22.3984 26.2331C20.9886 26.2331 19.8433 27.3784 19.8433 28.7882C19.8433 30.198 20.9886 31.3432 22.3984 31.3432C23.8082 31.3432 24.9534 30.198 24.9534 28.7882C24.9534 27.3784 23.8054 26.2331 22.3984 26.2331Z" fill="#61391A"/>
<path d="M39.8031 52.1286H26.8252L26.8899 51.5067C26.9265 51.1465 27.841 42.6681 31.1418 40.2172L31.2909 40.1074H35.3345L35.4837 40.2172C38.7844 42.6681 39.699 51.1465 39.7356 51.5067L39.8031 52.1286ZM28.0887 51.003H38.5424C38.4327 50.201 38.1991 48.7153 37.7939 47.1169C37.0538 44.1905 36.0746 42.1644 34.9574 41.233H31.6736C30.5537 42.1644 29.5744 44.1961 28.8344 47.131C28.4291 48.7265 28.1984 50.2038 28.0887 51.003Z" fill="#61391A"/>
<path d="M35.7055 40.7634L34.5968 40.5777L35.6126 34.5305C35.0301 34.3758 34.1466 34.252 33.6372 34.6065L33.3165 34.8288L32.9956 34.6065C32.4863 34.2548 31.5971 34.3786 31.0203 34.5305L32.0361 40.5749L30.9274 40.7606L29.7568 33.7849L30.1789 33.616C30.2014 33.6076 30.7108 33.4078 31.3664 33.3065C32.1402 33.1883 32.7959 33.2502 33.3193 33.4922C33.8399 33.2502 34.4955 33.1855 35.2721 33.3065C35.9278 33.4078 36.4399 33.6076 36.4596 33.616L36.8817 33.7849L35.7055 40.7634Z" fill="#61391A"/>
<path d="M33.3146 32.7718C31.6009 32.7718 30.208 31.3789 30.208 29.6652C30.208 27.9515 31.6009 26.5586 33.3146 26.5586C35.0283 26.5586 36.4212 27.9515 36.4212 29.6652C36.4212 31.3789 35.0283 32.7718 33.3146 32.7718ZM33.3146 27.6842C32.2228 27.6842 31.3336 28.5734 31.3336 29.6652C31.3336 30.757 32.2228 31.6462 33.3146 31.6462C34.4064 31.6462 35.2956 30.757 35.2956 29.6652C35.2956 28.5734 34.4092 27.6842 33.3146 27.6842Z" fill="#61391A"/>
<path d="M44.6932 23.3951C44.2796 23.1812 44.1164 22.6719 44.3274 22.2582C44.5413 21.8446 45.0506 21.6786 45.4643 21.8924C45.8779 22.1063 46.0411 22.6156 45.8301 23.0292C45.6809 23.3219 45.3855 23.4879 45.0788 23.4879C44.9493 23.4879 44.817 23.4598 44.6932 23.3951ZM42.186 21.9149C41.8005 21.6532 41.6964 21.1298 41.9581 20.7443C42.2198 20.3588 42.7432 20.2547 43.1287 20.5164C43.5142 20.7781 43.6183 21.3015 43.3566 21.687C43.1934 21.929 42.9261 22.0584 42.6559 22.0584C42.4956 22.0612 42.3296 22.0134 42.186 21.9149ZM39.873 20.1365C39.5213 19.8298 39.4875 19.2951 39.7942 18.9462C40.1009 18.5945 40.6356 18.5607 40.9845 18.8674C41.3362 19.1742 41.37 19.7088 41.0633 20.0577C40.8973 20.2491 40.6637 20.3448 40.4273 20.3448C40.2304 20.3448 40.0334 20.2772 39.873 20.1365ZM37.8047 18.0683C37.498 17.7165 37.5346 17.1847 37.8863 16.878C38.2381 16.5712 38.7699 16.6078 39.0766 16.9596C39.3833 17.3113 39.3468 17.8431 38.995 18.1499C38.8346 18.2906 38.6377 18.3581 38.4407 18.3581C38.2071 18.3553 37.9736 18.2596 37.8047 18.0683ZM36.0376 15.7243C35.7843 15.3331 35.8969 14.8097 36.288 14.5565C36.6792 14.3032 37.2025 14.4158 37.4558 14.8069C37.7091 15.198 37.5965 15.7214 37.2053 15.9747C37.0646 16.0647 36.9043 16.1098 36.7495 16.1098C36.4709 16.1126 36.198 15.9747 36.0376 15.7243ZM34.6419 13.0567C34.4871 12.6177 34.7179 12.1337 35.1597 11.9817C35.5986 11.8269 36.0826 12.0577 36.2345 12.4995C36.3893 12.9385 36.1586 13.4196 35.7168 13.5744C35.6239 13.6054 35.5311 13.6223 35.4382 13.6223C35.0893 13.6194 34.7629 13.4028 34.6419 13.0567Z" fill="#61391A"/>
<path d="M11.804 23.0287C11.5901 22.615 11.7533 22.1057 12.1698 21.8919C12.5834 21.678 13.0927 21.8412 13.3066 22.2577C13.5205 22.6713 13.3573 23.1807 12.9408 23.3945C12.817 23.4564 12.6847 23.4874 12.5553 23.4874C12.2486 23.4874 11.9531 23.3213 11.804 23.0287ZM14.2774 21.6864C14.0157 21.3009 14.1198 20.7748 14.5053 20.5159C14.8909 20.2542 15.4171 20.3583 15.6759 20.7438C15.9376 21.1293 15.8335 21.6555 15.448 21.9144C15.3017 22.0129 15.1385 22.0579 14.9781 22.0579C14.7051 22.0607 14.4406 21.9284 14.2774 21.6864ZM16.5708 20.0572C16.2641 19.7055 16.2978 19.1736 16.6496 18.8669C17.0013 18.5602 17.5332 18.5939 17.8399 18.9457C18.1466 19.2974 18.1128 19.8293 17.7611 20.136C17.6007 20.2767 17.4037 20.3442 17.2039 20.3442C16.9704 20.3442 16.7368 20.2485 16.5708 20.0572ZM18.639 18.1465C18.2873 17.8398 18.2507 17.308 18.5574 16.9562C18.8641 16.6045 19.396 16.5679 19.7477 16.8746C20.0994 17.1813 20.136 17.7132 19.8293 18.0649C19.6633 18.2563 19.4297 18.3548 19.1934 18.3548C18.9964 18.3548 18.7966 18.2872 18.639 18.1465ZM20.4315 15.977C20.0404 15.7237 19.9278 15.2003 20.1811 14.8092C20.4343 14.4181 20.9577 14.3055 21.3489 14.5588C21.74 14.812 21.8526 15.3326 21.5993 15.7265C21.4389 15.977 21.1659 16.1121 20.8902 16.1121C20.7298 16.1121 20.5722 16.067 20.4315 15.977ZM21.9173 13.5711C21.4783 13.4163 21.2447 12.9351 21.3995 12.4961C21.5543 12.0572 22.0355 11.8236 22.4744 11.9784C22.9134 12.1331 23.1469 12.6143 22.9922 13.0533C22.8712 13.4022 22.5448 13.6189 22.1959 13.6189C22.103 13.6189 22.0101 13.6048 21.9173 13.5711Z" fill="#61391A"/>
</svg>
