<svg width="79" height="56" viewBox="0 0 79 56" fill="none" xmlns="http://www.w3.org/2000/svg">
<path d="M74.4652 56.0007H4.03648C1.81237 56.0007 0 54.1922 0 51.9642C0 49.7401 1.80852 47.9277 4.03648 47.9277H74.4652C76.6893 47.9277 78.5017 49.7363 78.5017 51.9642C78.5017 54.1883 76.6931 56.0007 74.4652 56.0007ZM4.04033 49.4669C2.66277 49.4669 1.54302 50.5867 1.54302 51.9642C1.54302 53.3418 2.66277 54.4615 4.04033 54.4615H74.469C75.8466 54.4615 76.9663 53.3418 76.9663 51.9642C76.9663 50.5867 75.8466 49.4669 74.469 49.4669H4.04033Z" fill="#61391A"/>
<path d="M71.756 49.4659H6.74902V36.9063C6.74902 33.3854 9.61192 30.5226 13.1328 30.5226H65.3723C68.8932 30.5226 71.756 33.3854 71.756 36.9063V49.4659ZM8.2882 47.9268H70.2168V36.9063C70.2168 34.2358 68.0428 32.0618 65.3723 32.0618H13.1328C10.4623 32.0618 8.2882 34.2358 8.2882 36.9063V47.9268Z" fill="#61391A"/>
<path d="M64.1676 32.0623H14.3369V19.5026C14.3369 15.9818 17.1998 13.1189 20.7206 13.1189H57.7839C61.3047 13.1189 64.1676 15.9818 64.1676 19.5026V32.0623ZM15.8761 30.5231H62.6285V19.5026C62.6285 16.8322 60.4543 14.6581 57.7839 14.6581H20.7206C18.0502 14.6581 15.8761 16.8322 15.8761 19.5026V30.5231Z" fill="#61391A"/>
<path d="M43.2586 14.6578H35.2473L35.0395 14.4962C32.9539 12.8724 31.3416 11.0947 30.245 9.21302C29.4523 7.8547 29.1752 6.24625 29.4638 4.68399C29.7409 3.19484 30.5258 1.85574 31.6263 1.0092C32.7038 0.178047 33.9967 -0.149013 35.3627 0.0626236C36.671 0.262716 37.9755 0.9438 39.253 2.08279C40.5305 0.9438 41.8388 0.266564 43.1432 0.0626236C44.5092 -0.149013 45.8021 0.178047 46.8796 1.0092C47.9762 1.85574 48.765 3.19484 49.0421 4.68399C49.3307 6.24241 49.0536 7.85085 48.261 9.21302C47.1643 11.0947 45.552 12.8724 43.4664 14.4962L43.2586 14.6578ZM35.7783 13.1186H42.7238C44.5516 11.6603 45.9676 10.0865 46.9296 8.43573C48.2841 6.11542 47.4683 3.40648 45.9407 2.22901C45.2057 1.66337 44.3168 1.44016 43.3779 1.58254C42.2313 1.75954 40.9922 2.48683 39.7955 3.68354L39.253 4.22607L38.7104 3.68354C37.5137 2.48683 36.2746 1.75954 35.128 1.58254C34.1852 1.43632 33.3002 1.65952 32.5653 2.22901C31.0376 3.40648 30.2219 6.11542 31.5763 8.43573C32.5345 10.0865 33.9505 11.6603 35.7783 13.1186Z" fill="#61391A"/>
<path d="M69.7355 42.5791C67.9808 42.5791 66.3686 41.7249 65.3719 40.355C64.3753 41.7287 62.7669 42.5791 61.0084 42.5791C59.2498 42.5791 57.6414 41.7249 56.6448 40.355C55.6482 41.7287 54.0398 42.5791 52.2813 42.5791C50.5228 42.5791 48.9143 41.7249 47.9177 40.355C46.9211 41.7287 45.3126 42.5791 43.5541 42.5791C41.7995 42.5791 40.1872 41.7249 39.1906 40.355C38.194 41.7287 36.5856 42.5791 34.8271 42.5791C33.0724 42.5791 31.4601 41.7249 30.4635 40.355C29.4669 41.7287 27.8584 42.5791 26.0999 42.5791C24.3414 42.5791 22.733 41.7249 21.7364 40.355C20.7398 41.7287 19.1313 42.5791 17.3728 42.5791C15.6143 42.5791 14.0059 41.7249 13.0093 40.355C12.0126 41.7287 10.4042 42.5791 8.64571 42.5791C8.19166 42.5791 7.74146 42.5214 7.30664 42.4098L7.68758 40.9206C7.99926 41.0014 8.32249 41.0399 8.64571 41.0399C10.2849 41.0399 11.7433 40.001 12.282 38.4541C12.3897 38.1425 12.6822 37.9385 13.0093 37.9385C13.3363 37.9385 13.6288 38.1463 13.7365 38.4541C14.2714 40.001 15.7336 41.0399 17.3728 41.0399C19.0121 41.0399 20.4704 40.001 21.0091 38.4541C21.1169 38.1425 21.4093 37.9385 21.7364 37.9385C22.0635 37.9385 22.3559 38.1463 22.4636 38.4541C22.9985 40.001 24.4607 41.0399 26.0999 41.0399C27.7391 41.0399 29.1975 40.001 29.7362 38.4541C29.844 38.1463 30.1364 37.9385 30.4635 37.9385C30.7905 37.9385 31.083 38.1463 31.1907 38.4541C31.7256 40.001 33.1878 41.0399 34.8271 41.0399C36.4663 41.0399 37.9246 40.001 38.4633 38.4541C38.5711 38.1463 38.8635 37.9385 39.1906 37.9385C39.5177 37.9385 39.8101 38.1463 39.9179 38.4541C40.4527 40.001 41.9149 41.0399 43.5541 41.0399C45.1934 41.0399 46.6518 40.001 47.1905 38.4541C47.2982 38.1425 47.5907 37.9385 47.9177 37.9385C48.2448 37.9385 48.5372 38.1463 48.6449 38.4541C49.1798 40.001 50.6421 41.0399 52.2813 41.0399C53.9205 41.0399 55.3788 40.001 55.9175 38.4541C56.0253 38.1425 56.3177 37.9385 56.6448 37.9385C56.9719 37.9385 57.2643 38.1463 57.3721 38.4541C57.9069 40.001 59.3691 41.0399 61.0084 41.0399C62.6476 41.0399 64.106 40.001 64.6447 38.4541C64.7524 38.1425 65.0449 37.9385 65.3719 37.9385C65.699 37.9385 65.9915 38.1463 66.0992 38.4541C66.6341 40.001 68.0963 41.0399 69.7355 41.0399C70.0895 41.0399 70.4396 40.9938 70.7783 40.8976L71.1939 42.379C70.7206 42.5137 70.228 42.5791 69.7355 42.5791Z" fill="#61391A"/>
<path d="M61.0131 25.0968C59.2584 25.0968 57.6462 24.2426 56.6495 22.8727C55.6529 24.2464 54.0445 25.0968 52.286 25.0968C50.5275 25.0968 48.919 24.2426 47.9224 22.8727C46.9258 24.2464 45.3174 25.0968 43.5589 25.0968C41.8042 25.0968 40.1919 24.2426 39.1953 22.8727C38.1987 24.2464 36.5903 25.0968 34.8318 25.0968C33.0771 25.0968 31.4648 24.2426 30.4682 22.8727C29.4716 24.2464 27.8632 25.0968 26.1047 25.0968C24.3462 25.0968 22.7377 24.2426 21.7411 22.8727C20.7445 24.2464 19.1361 25.0968 17.3776 25.0968C16.4425 25.0968 15.519 24.8505 14.7109 24.3888L15.4728 23.0535C16.05 23.3845 16.708 23.5576 17.3776 23.5576C19.0168 23.5576 20.4751 22.5187 21.0139 20.9718C21.1216 20.664 21.414 20.4562 21.7411 20.4562C22.0682 20.4562 22.3606 20.664 22.4684 20.9718C23.0032 22.5187 24.4654 23.5576 26.1047 23.5576C27.7439 23.5576 29.2022 22.5187 29.7409 20.9718C29.8487 20.664 30.1411 20.4562 30.4682 20.4562C30.7953 20.4562 31.0877 20.664 31.1955 20.9718C31.7303 22.5187 33.1926 23.5576 34.8318 23.5576C36.471 23.5576 37.9294 22.5187 38.4681 20.9718C38.5758 20.664 38.8683 20.4562 39.1953 20.4562C39.5224 20.4562 39.8149 20.664 39.9226 20.9718C40.4575 22.5187 41.9197 23.5576 43.5589 23.5576C45.1981 23.5576 46.6565 22.5187 47.1952 20.9718C47.3029 20.664 47.5953 20.4562 47.9224 20.4562C48.2495 20.4562 48.5419 20.664 48.6497 20.9718C49.1845 22.5187 50.6468 23.5576 52.286 23.5576C53.9252 23.5576 55.3836 22.5187 55.9223 20.9718C56.03 20.664 56.3225 20.4562 56.6495 20.4562C56.9766 20.4562 57.2691 20.664 57.3768 20.9718C57.9117 22.5187 59.3739 23.5576 61.0131 23.5576C61.7173 23.5576 62.4061 23.3652 63.0025 23.0035L63.799 24.3195C62.9601 24.8274 61.9982 25.0968 61.0131 25.0968Z" fill="#61391A"/>
<path d="M55.3287 17.8516C55.3287 17.2129 55.8443 16.6973 56.483 16.6973C57.1218 16.6973 57.6374 17.2129 57.6374 17.8516C57.6374 18.4904 57.1218 19.006 56.483 19.006C55.8443 19.006 55.3287 18.4866 55.3287 17.8516ZM51.4807 17.8516C51.4807 17.2129 51.9963 16.6973 52.6351 16.6973C53.2739 16.6973 53.7895 17.2129 53.7895 17.8516C53.7895 18.4904 53.2739 19.006 52.6351 19.006C51.9963 19.006 51.4807 18.4866 51.4807 17.8516ZM47.6328 17.8516C47.6328 17.2129 48.1484 16.6973 48.7872 16.6973C49.4259 16.6973 49.9415 17.2129 49.9415 17.8516C49.9415 18.4904 49.4259 19.006 48.7872 19.006C48.1484 19.006 47.6328 18.4866 47.6328 17.8516ZM43.7849 17.8516C43.7849 17.2129 44.3005 16.6973 44.9392 16.6973C45.578 16.6973 46.0936 17.2129 46.0936 17.8516C46.0936 18.4904 45.578 19.006 44.9392 19.006C44.3005 19.006 43.7849 18.4866 43.7849 17.8516ZM39.9369 17.8516C39.9369 17.2129 40.4525 16.6973 41.0913 16.6973C41.7301 16.6973 42.2457 17.2129 42.2457 17.8516C42.2457 18.4904 41.7301 19.006 41.0913 19.006C40.4525 19.006 39.9369 18.4866 39.9369 17.8516ZM36.089 17.8516C36.089 17.2129 36.6046 16.6973 37.2434 16.6973C37.8821 16.6973 38.3978 17.2129 38.3978 17.8516C38.3978 18.4904 37.8821 19.006 37.2434 19.006C36.6046 19.006 36.089 18.4866 36.089 17.8516ZM32.2411 17.8516C32.2411 17.2129 32.7567 16.6973 33.3954 16.6973C34.0342 16.6973 34.5498 17.2129 34.5498 17.8516C34.5498 18.4904 34.0342 19.006 33.3954 19.006C32.7567 19.006 32.2411 18.4866 32.2411 17.8516ZM28.3931 17.8516C28.3931 17.2129 28.9088 16.6973 29.5475 16.6973C30.1863 16.6973 30.7019 17.2129 30.7019 17.8516C30.7019 18.4904 30.1863 19.006 29.5475 19.006C28.9088 19.006 28.3931 18.4866 28.3931 17.8516ZM24.5452 17.8516C24.5452 17.2129 25.0608 16.6973 25.6996 16.6973C26.3383 16.6973 26.854 17.2129 26.854 17.8516C26.854 18.4904 26.3383 19.006 25.6996 19.006C25.0608 19.006 24.5452 18.4866 24.5452 17.8516ZM20.6973 17.8516C20.6973 17.2129 21.2129 16.6973 21.8516 16.6973C22.4904 16.6973 23.006 17.2129 23.006 17.8516C23.006 18.4904 22.4904 19.006 21.8516 19.006C21.2129 19.006 20.6973 18.4866 20.6973 17.8516Z" fill="#61391A"/>
<path d="M64.9306 35.3021C64.9306 34.6633 65.4462 34.1477 66.085 34.1477C66.7238 34.1477 67.2394 34.6633 67.2394 35.3021C67.2394 35.9408 66.7238 36.4565 66.085 36.4565C65.4501 36.4565 64.9306 35.9408 64.9306 35.3021ZM61.0827 35.3021C61.0827 34.6633 61.5983 34.1477 62.2371 34.1477C62.8758 34.1477 63.3914 34.6633 63.3914 35.3021C63.3914 35.9408 62.8758 36.4565 62.2371 36.4565C61.6022 36.4565 61.0827 35.9408 61.0827 35.3021ZM57.2348 35.3021C57.2348 34.6633 57.7504 34.1477 58.3891 34.1477C59.0279 34.1477 59.5435 34.6633 59.5435 35.3021C59.5435 35.9408 59.0279 36.4565 58.3891 36.4565C57.7542 36.4565 57.2348 35.9408 57.2348 35.3021ZM53.3868 35.3021C53.3868 34.6633 53.9024 34.1477 54.5412 34.1477C55.18 34.1477 55.6956 34.6633 55.6956 35.3021C55.6956 35.9408 55.18 36.4565 54.5412 36.4565C53.9063 36.4565 53.3868 35.9408 53.3868 35.3021ZM49.5389 35.3021C49.5389 34.6633 50.0545 34.1477 50.6933 34.1477C51.332 34.1477 51.8477 34.6633 51.8477 35.3021C51.8477 35.9408 51.332 36.4565 50.6933 36.4565C50.0584 36.4565 49.5389 35.9408 49.5389 35.3021ZM45.691 35.3021C45.691 34.6633 46.2066 34.1477 46.8453 34.1477C47.4841 34.1477 47.9997 34.6633 47.9997 35.3021C47.9997 35.9408 47.4841 36.4565 46.8453 36.4565C46.2104 36.4565 45.691 35.9408 45.691 35.3021ZM41.843 35.3021C41.843 34.6633 42.3587 34.1477 42.9974 34.1477C43.6362 34.1477 44.1518 34.6633 44.1518 35.3021C44.1518 35.9408 43.6362 36.4565 42.9974 36.4565C42.3625 36.4565 41.843 35.9408 41.843 35.3021ZM37.9951 35.3021C37.9951 34.6633 38.5107 34.1477 39.1495 34.1477C39.7882 34.1477 40.3039 34.6633 40.3039 35.3021C40.3039 35.9408 39.7882 36.4565 39.1495 36.4565C38.5146 36.4565 37.9951 35.9408 37.9951 35.3021ZM34.1472 35.3021C34.1472 34.6633 34.6628 34.1477 35.3015 34.1477C35.9403 34.1477 36.4559 34.6633 36.4559 35.3021C36.4559 35.9408 35.9403 36.4565 35.3015 36.4565C34.6666 36.4565 34.1472 35.9408 34.1472 35.3021ZM30.2992 35.3021C30.2992 34.6633 30.8149 34.1477 31.4536 34.1477C32.0924 34.1477 32.608 34.6633 32.608 35.3021C32.608 35.9408 32.0924 36.4565 31.4536 36.4565C30.8187 36.4565 30.2992 35.9408 30.2992 35.3021ZM26.4513 35.3021C26.4513 34.6633 26.9669 34.1477 27.6057 34.1477C28.2444 34.1477 28.7601 34.6633 28.7601 35.3021C28.7601 35.9408 28.2444 36.4565 27.6057 36.4565C26.9708 36.4565 26.4513 35.9408 26.4513 35.3021ZM22.6034 35.3021C22.6034 34.6633 23.119 34.1477 23.7577 34.1477C24.3965 34.1477 24.9121 34.6633 24.9121 35.3021C24.9121 35.9408 24.3965 36.4565 23.7577 36.4565C23.1228 36.4565 22.6034 35.9408 22.6034 35.3021ZM18.7554 35.3021C18.7554 34.6633 19.2711 34.1477 19.9098 34.1477C20.5486 34.1477 21.0642 34.6633 21.0642 35.3021C21.0642 35.9408 20.5486 36.4565 19.9098 36.4565C19.2749 36.4565 18.7554 35.9408 18.7554 35.3021ZM14.9075 35.3021C14.9075 34.6633 15.4231 34.1477 16.0619 34.1477C16.7006 34.1477 17.2163 34.6633 17.2163 35.3021C17.2163 35.9408 16.7006 36.4565 16.0619 36.4565C15.427 36.4565 14.9075 35.9408 14.9075 35.3021ZM11.0596 35.3021C11.0596 34.6633 11.5752 34.1477 12.2139 34.1477C12.8527 34.1477 13.3683 34.6633 13.3683 35.3021C13.3683 35.9408 12.8527 36.4565 12.2139 36.4565C11.579 36.4565 11.0596 35.9408 11.0596 35.3021Z" fill="#61391A"/>
</svg>
