<svg width="62" height="56" viewBox="0 0 62 56" fill="none" xmlns="http://www.w3.org/2000/svg">
<path d="M16.6526 43.6399C11.7623 43.6399 7.25532 40.4141 5.85851 35.4811C4.72645 31.4885 7.09092 29.0296 9.59241 26.4247C10.904 25.0583 12.2583 23.6493 13.223 21.9177C14.775 19.1363 16.3605 16.5922 17.9368 14.3585L18.2533 13.9111L31.5611 21.3365L31.3451 21.8417C30.2708 24.3584 28.9379 27.0424 27.3859 29.8239C26.4212 31.5524 25.9312 33.4483 25.4565 35.2803C24.5527 38.7769 23.7006 42.0818 19.7079 43.2138C18.6884 43.5029 17.663 43.6399 16.6526 43.6399ZM13.7525 22.216L14.285 22.5111C13.2443 24.3766 11.8322 25.8465 10.4689 27.2676C9.27596 28.5092 8.14995 29.6808 7.46828 30.9498C6.74096 32.3041 6.60099 33.64 7.02704 35.1494C8.27474 39.5438 12.2918 42.4226 16.6496 42.4226C17.5504 42.4226 18.4663 42.3009 19.3732 42.0422C20.8826 41.6131 21.9447 40.7945 22.7146 39.4646C23.4358 38.2169 23.8436 36.6436 24.2727 34.976C24.7657 33.0679 25.2739 31.0959 26.3177 29.2304C27.745 26.6711 28.9835 24.1971 30.003 21.866L18.6124 15.5088C17.1639 17.5995 15.7062 19.9518 14.2789 22.5111L13.7525 22.216Z" fill="#61391A"/>
<path d="M0.593175 49.3101L0 50.373L10.0818 55.9993L10.6749 54.9364L0.593175 49.3101Z" fill="#61391A"/>
<path d="M10.9374 41.4201L4.82324 52.3761L5.88616 52.9693L12.0003 42.0132L10.9374 41.4201Z" fill="#61391A"/>
<path d="M10.0601 36.5737C9.61884 36.3272 9.46062 35.7734 9.70712 35.3321C9.95361 34.8908 10.5075 34.7326 10.9488 34.9791C11.39 35.2256 11.5452 35.7795 11.3017 36.2207C11.1344 36.522 10.8239 36.6893 10.5044 36.6893C10.3553 36.6893 10.2031 36.6528 10.0601 36.5737ZM11.5452 33.917C11.1039 33.6705 10.9487 33.1167 11.1921 32.6754C11.4386 32.2342 11.9925 32.0789 12.4338 32.3224C12.875 32.5689 13.0333 33.1228 12.7868 33.564C12.6194 33.8623 12.309 34.0327 11.9895 34.0327C11.8373 34.0327 11.6852 33.9961 11.5452 33.917ZM13.0272 31.2603C12.5859 31.0138 12.4308 30.46 12.6742 30.0187C12.9207 29.5775 13.4746 29.4223 13.9158 29.6657C14.3571 29.9122 14.5153 30.4661 14.2688 30.9073C14.1015 31.2055 13.791 31.376 13.4715 31.376C13.3193 31.376 13.1672 31.3395 13.0272 31.2603Z" fill="#61391A"/>
<path d="M15.1291 35.5105C14.6879 35.264 14.5326 34.7102 14.7761 34.2689C15.0226 33.8277 15.5764 33.6694 16.0177 33.9159C16.459 34.1624 16.6172 34.7163 16.3707 35.1576C16.2033 35.4558 15.8929 35.6262 15.5734 35.6262C15.4243 35.6262 15.2721 35.5897 15.1291 35.5105ZM16.6141 32.8538C16.1729 32.6074 16.0147 32.0535 16.2612 31.6122C16.5077 31.171 17.0615 31.0158 17.5027 31.2592C17.944 31.5057 18.0992 32.0626 17.8558 32.5008C17.6884 32.7991 17.378 32.9695 17.0584 32.9695C16.9063 32.9695 16.7541 32.9299 16.6141 32.8538ZM18.0962 30.1941C17.6549 29.9476 17.4997 29.3938 17.7432 28.9525C17.9896 28.5113 18.5435 28.356 18.9848 28.5995C19.4261 28.846 19.5843 29.4029 19.3378 29.8411C19.1704 30.1393 18.86 30.3098 18.5405 30.3098C18.3914 30.3098 18.2362 30.2732 18.0962 30.1941ZM19.5782 27.5374C19.1369 27.2909 18.9818 26.7341 19.2252 26.2958C19.4717 25.8546 20.0286 25.6994 20.4668 25.9428C20.908 26.1893 21.0633 26.7462 20.8198 27.1844C20.6525 27.4826 20.342 27.6531 20.0225 27.6531C19.8734 27.6531 19.7212 27.6166 19.5782 27.5374Z" fill="#61391A"/>
<path d="M20.2922 34.1715C19.8509 33.925 19.6957 33.3711 19.9391 32.9299C20.1856 32.4886 20.7426 32.3304 21.1808 32.5769C21.622 32.8234 21.7803 33.3772 21.5338 33.8185C21.3664 34.1167 21.056 34.2872 20.7365 34.2872C20.5843 34.2872 20.4322 34.2506 20.2922 34.1715ZM21.7742 31.5148C21.3329 31.2683 21.1747 30.7145 21.4212 30.2732C21.6677 29.8319 22.2216 29.6737 22.6628 29.9202C23.1041 30.1667 23.2593 30.7206 23.0158 31.1618C22.8485 31.4601 22.538 31.6304 22.2185 31.6304C22.0663 31.6304 21.9142 31.5939 21.7742 31.5148ZM23.2562 28.8581C22.815 28.6116 22.6597 28.0578 22.9032 27.6165C23.1497 27.1753 23.7066 27.017 24.1448 27.2635C24.5861 27.51 24.7444 28.0669 24.4979 28.5051C24.3305 28.8034 24.0201 28.9738 23.7005 28.9738C23.5514 28.9738 23.3993 28.9342 23.2562 28.8581Z" fill="#61391A"/>
<path d="M44.8548 43.6399C43.8445 43.6399 42.8189 43.5029 41.7994 43.2138C37.8068 42.0818 36.9547 38.7769 36.0509 35.2803C35.5762 33.4483 35.0892 31.5524 34.1215 29.8239C32.5695 27.0424 31.2366 24.3584 30.1623 21.8417L29.9463 21.3365L43.2541 13.9111L43.5706 14.3585C45.1469 16.5952 46.7324 19.1363 48.2844 21.9177C49.2491 23.6463 50.6064 25.0583 51.9149 26.4247C54.4164 29.0296 56.781 31.4915 55.6489 35.4811C54.2521 40.4141 49.7452 43.6399 44.8548 43.6399ZM31.5013 21.866C32.5208 24.1971 33.7594 26.6711 35.1866 29.2304C36.2274 31.0959 36.7386 33.0679 37.2316 34.976C37.6607 36.6436 38.0685 38.2169 38.7898 39.4646C39.5627 40.7945 40.6248 41.6162 42.1312 42.0422C47.4354 43.5456 52.9739 40.4567 54.4803 35.1494C54.9094 33.64 54.7694 32.3071 54.0391 30.9498C53.3574 29.6808 52.2315 28.5092 51.0385 27.2676C49.6752 25.8465 48.2631 24.3766 47.2224 22.5111C45.7951 19.9518 44.3375 17.5995 42.8889 15.5088L31.5013 21.866Z" fill="#61391A"/>
<path d="M60.8611 49.2956L50.7793 54.9219L51.3725 55.9848L61.4543 50.3585L60.8611 49.2956Z" fill="#61391A"/>
<path d="M50.5346 41.4L49.4717 41.9932L55.5858 52.9492L56.6487 52.356L50.5346 41.4Z" fill="#61391A"/>
<path d="M50.2024 36.2223C49.9559 35.7811 50.1141 35.2241 50.5554 34.9807C50.9967 34.7342 51.5505 34.8924 51.797 35.3337C52.0435 35.775 51.8852 36.3288 51.444 36.5753C51.304 36.6544 51.1518 36.6909 50.9997 36.6909C50.6802 36.6879 50.3698 36.5205 50.2024 36.2223ZM48.7204 33.5626C48.4739 33.1213 48.6321 32.5674 49.0733 32.3209C49.5146 32.0744 50.0685 32.2327 50.315 32.674C50.5615 33.1152 50.4032 33.6721 49.962 33.9156C49.822 33.9947 49.6699 34.0312 49.5177 34.0312C49.1982 34.0312 48.8877 33.8639 48.7204 33.5626ZM47.2384 30.9059C46.9919 30.4646 47.1501 29.9108 47.5913 29.6643C48.0326 29.4178 48.5865 29.576 48.833 30.0173C49.0795 30.4585 48.9212 31.0124 48.4799 31.2589C48.3399 31.338 48.1848 31.3745 48.0356 31.3745C47.7161 31.3745 47.4057 31.2071 47.2384 30.9059Z" fill="#61391A"/>
<path d="M45.1328 35.158C44.8863 34.7168 45.0446 34.1629 45.4858 33.9164C45.9271 33.6699 46.4809 33.8282 46.7274 34.2694C46.9739 34.7107 46.8157 35.2645 46.3744 35.511C46.2344 35.5901 46.0823 35.6267 45.9301 35.6267C45.6106 35.6267 45.3001 35.4563 45.1328 35.158ZM43.6508 32.5013C43.4043 32.0601 43.5625 31.5062 44.0038 31.2597C44.445 31.0132 44.9989 31.1715 45.2454 31.6127C45.4919 32.054 45.3336 32.6078 44.8923 32.8543C44.7523 32.9335 44.6002 32.97 44.448 32.97C44.1285 32.97 43.8181 32.7996 43.6508 32.5013ZM42.1687 29.8446C41.9222 29.4034 42.0805 28.8495 42.5218 28.603C42.963 28.3565 43.5168 28.5148 43.7633 28.9561C44.0098 29.3973 43.8516 29.9512 43.4103 30.1977C43.2704 30.2768 43.1182 30.3133 42.9661 30.3133C42.6465 30.3133 42.3361 30.1429 42.1687 29.8446ZM40.6837 27.1849C40.4372 26.7437 40.5954 26.1898 41.0367 25.9433C41.4779 25.6968 42.0318 25.8551 42.2783 26.2963C42.5248 26.7376 42.3665 27.2914 41.9252 27.5379C41.7853 27.6171 41.6331 27.6536 41.481 27.6536C41.1614 27.6536 40.8511 27.4862 40.6837 27.1849Z" fill="#61391A"/>
<path d="M39.9749 33.8188C39.7284 33.3775 39.8866 32.8236 40.3279 32.5771C40.7691 32.3306 41.323 32.4889 41.5695 32.9301C41.816 33.3714 41.6578 33.9253 41.2165 34.1718C41.0765 34.2509 40.9244 34.2874 40.7722 34.2874C40.4527 34.2874 40.1422 34.12 39.9749 33.8188ZM38.4929 31.1621C38.2464 30.7208 38.4046 30.1669 38.8459 29.9204C39.2871 29.6739 39.841 29.8322 40.0875 30.2734C40.334 30.7147 40.1757 31.2716 39.7345 31.515C39.5945 31.5942 39.4423 31.6307 39.2902 31.6307C38.9706 31.6307 38.6603 31.4633 38.4929 31.1621ZM37.0108 28.5054C36.7643 28.0641 36.9225 27.5102 37.3638 27.2637C37.8051 27.0173 38.3589 27.1755 38.6054 27.6168C38.8519 28.058 38.6937 28.6119 38.2525 28.8584C38.1125 28.9375 37.9573 28.974 37.8082 28.974C37.4886 28.974 37.1752 28.8036 37.0108 28.5054Z" fill="#61391A"/>
<path d="M29.694 23.4111H12.5488V24.6284H29.694V23.4111Z" fill="#61391A"/>
<path d="M48.9568 23.4111H31.8115V24.6284H48.9568V23.4111Z" fill="#61391A"/>
<path d="M30.7833 15.8274L30.5186 15.6996C30.2994 15.5931 25.117 13.055 22.439 8.46289C21.7086 7.21215 21.453 5.73319 21.7208 4.29681C21.9734 2.92738 22.6976 1.69795 23.7049 0.921941C24.6909 0.164191 25.8717 -0.137109 27.1224 0.0576537C28.3488 0.24633 29.5813 0.897599 30.7864 1.9901C31.9915 0.897599 33.2209 0.24633 34.4504 0.0576537C35.7011 -0.134066 36.8819 0.164191 37.8679 0.921941C38.8752 1.69795 39.5964 2.92738 39.849 4.29681C40.1137 5.73014 39.8611 7.21215 39.1307 8.46289C36.4528 13.0581 31.2702 15.5961 31.0511 15.6996L30.7833 15.8274ZM26.3951 1.21712C25.683 1.21712 25.0165 1.4423 24.4444 1.8866C22.9745 3.01866 22.1894 5.6206 23.4889 7.8482C25.6526 11.5578 29.7091 13.895 30.7803 14.4671C31.8515 13.895 35.9141 11.5487 38.0717 7.8482C39.0821 6.1136 39.006 3.34124 37.1162 1.8866C36.4011 1.33579 35.5428 1.11974 34.6299 1.25973C33.5161 1.43015 32.3658 2.10571 31.2124 3.25908L30.7833 3.68817L30.3543 3.25908C29.1979 2.10267 28.0475 1.43015 26.9367 1.25973C26.7511 1.23234 26.5716 1.21712 26.3951 1.21712Z" fill="#61391A"/>
</svg>
