<svg width="58" height="56" viewBox="0 0 58 56" fill="none" xmlns="http://www.w3.org/2000/svg">
<path d="M13.8667 55.9999H8.25004C6.65454 55.9999 5.35449 54.7027 5.35449 53.1044C5.35449 51.5061 6.65173 50.2089 8.25004 50.2089H13.8667C15.4622 50.2089 16.7622 51.5061 16.7622 53.1044C16.7622 54.7027 15.4622 55.9999 13.8667 55.9999ZM8.25004 51.3373C7.27361 51.3373 6.48007 52.1308 6.48007 53.1072C6.48007 54.0836 7.27361 54.8772 8.25004 54.8772H13.8667C14.8431 54.8772 15.6366 54.0836 15.6366 53.1072C15.6366 52.1308 14.8431 51.3373 13.8667 51.3373H8.25004Z" fill="white"/>
<path d="M49.1596 56H43.5429C41.9474 56 40.6475 54.7028 40.6475 53.1044C40.6475 51.5061 41.9446 50.2089 43.5429 50.2089H49.1596C50.7551 50.2089 52.0551 51.5061 52.0551 53.1044C52.0551 54.7028 50.7579 56 49.1596 56ZM43.5429 51.3373C42.5665 51.3373 41.773 52.1308 41.773 53.1073C41.773 54.0837 42.5665 54.8772 43.5429 54.8772H49.1596C50.1361 54.8772 50.9295 54.0837 50.9295 53.1073C50.9295 52.1308 50.1361 51.3373 49.1596 51.3373H43.5429Z" fill="white"/>
<path d="M49.723 51.3373H42.9807V25.3394H44.1063V50.2118H48.5974V24.2785H49.723V51.3373Z" fill="white"/>
<path d="M49.7219 24.2786H48.5963C48.5963 20.2125 47.3778 16.3011 45.0704 12.9694C42.8165 9.71369 39.6873 7.22618 36.0208 5.77419L36.4344 4.72742C40.3092 6.26101 43.6156 8.88923 45.9962 12.3279C48.4359 15.8481 49.7219 19.9818 49.7219 24.2786Z" fill="white"/>
<path d="M8.81381 24.2788H7.68823C7.68823 20.0016 8.96576 15.8876 11.3801 12.3758C13.7382 8.94844 17.0193 6.3174 20.8659 4.77255L21.2852 5.81655C17.644 7.27979 14.5402 9.77011 12.3087 13.0146C10.021 16.335 8.81381 20.2295 8.81381 24.2788Z" fill="white"/>
<path d="M28.6522 14.0668L28.4074 13.9486C28.2132 13.8557 23.6181 11.6046 21.2431 7.53C20.5931 6.41569 20.368 5.10156 20.6044 3.82404C20.8295 2.6056 21.4739 1.511 22.3687 0.82159C23.2467 0.146245 24.2991 -0.121076 25.4134 0.0505737C26.4996 0.21941 27.5885 0.790618 28.655 1.75298C29.7215 0.790618 30.8105 0.21941 31.8967 0.0505737C33.011 -0.121076 34.0634 0.146245 34.9414 0.82159C35.8362 1.511 36.4806 2.6056 36.7057 3.82404C36.9421 5.10156 36.7142 6.41569 36.067 7.53C33.692 11.6046 29.0968 13.8557 28.9027 13.9486L28.6522 14.0668ZM24.769 1.12548C24.1443 1.12548 23.559 1.32526 23.0553 1.71359C21.7609 2.71253 21.0715 5.00309 22.2139 6.9644C24.1133 10.2229 27.687 12.294 28.6522 12.8118C29.6174 12.2968 33.1883 10.2258 35.0905 6.9644C36.233 5.00309 35.5436 2.71253 34.2492 1.71359C33.6217 1.22959 32.8675 1.04107 32.0627 1.16488C31.0807 1.31683 30.0676 1.91058 29.049 2.92923L28.6522 3.32597L28.2554 2.92923C27.2368 1.91058 26.221 1.31683 25.2417 1.16488C25.0813 1.13674 24.9238 1.12548 24.769 1.12548Z" fill="white"/>
<path d="M8.35312 27.6436L8.14771 26.5377C11.3922 25.9356 14.344 24.7903 16.9216 23.1357C18.9814 21.8131 20.8104 20.1642 22.3581 18.2338C24.9891 14.9499 25.8924 11.9756 25.9036 11.9474L26.9814 12.2682C26.942 12.3977 26.0049 15.4846 23.236 18.9373C21.6124 20.9633 19.6933 22.6967 17.5294 24.084C14.828 25.8145 11.7411 27.0133 8.35312 27.6436Z" fill="white"/>
<path d="M49.1878 27.6443C45.7998 27.014 42.713 25.8152 40.0116 24.0818C37.8477 22.6946 35.9286 20.9612 34.3049 18.9352C31.536 15.4796 30.599 12.3955 30.5596 12.2661L31.6373 11.9453C31.6542 11.9988 32.5772 14.9985 35.211 18.2711C36.7587 20.193 38.5878 21.8363 40.6447 23.1532C43.2167 24.7994 46.16 25.9362 49.3932 26.5384L49.1878 27.6443Z" fill="white"/>
<path d="M14.4304 51.3373H7.68823V24.2785H8.81381V50.2118H13.3048V25.3956H14.4304V51.3373Z" fill="white"/>
<path d="M0.404541 28.9634L1.6061 22.2803L8.41581 24.3766L8.08379 25.4516L2.48968 23.7294L1.78619 27.6436L8.17382 26.7938L8.32296 27.9081L0.404541 28.9634Z" fill="white"/>
<path d="M1.66583 45.0023C1.48574 45.0023 1.31128 44.9798 1.14526 44.932C0.374238 44.7125 0.078771 44.0737 0.0506316 44.0034L0 43.8852L0.00563337 43.7586C0.227934 38.1673 2.08511 33.9351 3.60463 31.3688C5.25642 28.5774 6.84629 27.1226 6.91383 27.0635L7.66798 27.8992C7.65391 27.9133 6.11466 29.3259 4.5473 31.985C3.12063 34.405 1.37881 38.3839 1.13681 43.6375C1.1959 43.7107 1.30284 43.812 1.46887 43.857C1.82905 43.9499 2.37494 43.7614 2.99963 43.3224C4.0239 42.6048 5.32677 42.5035 6.77313 43.0269C7.80866 43.4012 8.55997 43.9696 8.59092 43.9949L7.90715 44.8898C7.90153 44.8841 7.24307 44.3889 6.36231 44.0765C5.27331 43.6882 4.35596 43.7445 3.64403 44.2454C2.92085 44.7462 2.25676 45.0023 1.66583 45.0023Z" fill="white"/>
<path d="M57.0048 28.9634L49.0864 27.9081L49.2355 26.7938L55.6232 27.6436L54.9197 23.7294L49.3255 25.4516L48.9963 24.3766L55.8032 22.2803L57.0048 28.9634Z" fill="white"/>
<path d="M55.7445 45.0023C55.1535 45.0023 54.4894 44.7462 53.7663 44.2397C52.0047 43.0072 49.5257 44.8672 49.5032 44.8869L48.8193 43.9921C48.8503 43.9668 49.6017 43.3984 50.6372 43.0241C52.0836 42.5007 53.3864 42.602 54.4107 43.3196C55.0382 43.7585 55.5812 43.9471 55.9414 43.8542C56.1074 43.812 56.2144 43.7107 56.2735 43.6347C56.0315 38.3811 54.2897 34.405 52.863 31.9822C51.2956 29.3231 49.7592 27.9105 49.7423 27.8964L50.4993 27.0635C50.5669 27.1254 52.1567 28.5774 53.8084 31.3688C55.328 33.9351 57.1824 38.1644 57.4075 43.7586L57.4131 43.8852L57.3625 44.0034C57.3315 44.0765 57.0389 44.7125 56.2679 44.932C56.0991 44.977 55.9246 45.0023 55.7445 45.0023Z" fill="white"/>
<path d="M23.8706 52.1279H20.9272C20.1309 52.1279 19.4668 51.506 19.4161 50.7097L18.7717 41.7979H26.0289L25.3845 50.7097C25.331 51.506 24.6669 52.1279 23.8706 52.1279ZM19.9789 42.9235L20.5389 50.6365C20.553 50.8419 20.7218 51.0023 20.9272 51.0023H23.8706C24.076 51.0023 24.2476 50.8419 24.2589 50.6365V50.6309L24.8161 42.9235H19.9789Z" fill="white"/>
<path d="M25.4842 42.9231H19.3104C18.8686 42.9231 18.4466 42.7346 18.1511 42.4081C17.8556 42.0817 17.7121 41.6456 17.7543 41.2094L18.4578 32.8154C18.5422 31.9769 19.2429 31.3438 20.0843 31.3438H24.7047C25.5489 31.3438 26.2468 31.9769 26.3312 32.8154V32.8239L27.0347 41.2094C27.0769 41.6456 26.9334 42.0817 26.6379 42.4081C26.3481 42.7374 25.926 42.9231 25.4842 42.9231ZM19.5834 32.9252L18.8799 41.3163C18.8686 41.4401 18.908 41.5612 18.9896 41.654C19.0741 41.7469 19.1894 41.7975 19.3132 41.7975H25.487C25.6108 41.7975 25.7262 41.7469 25.8106 41.654C25.895 41.5612 25.9344 41.443 25.9204 41.3163V41.3079L25.2169 32.9252C25.1887 32.6663 24.9721 32.4693 24.7104 32.4693H20.0899C19.8282 32.4721 19.6115 32.6663 19.5834 32.9252Z" fill="white"/>
<path d="M22.3984 32.4716C20.3695 32.4716 18.7178 30.8198 18.7178 28.791C18.7178 26.7621 20.3695 25.1104 22.3984 25.1104C24.4272 25.1104 26.079 26.7621 26.079 28.791C26.079 30.8198 24.4272 32.4716 22.3984 32.4716ZM22.3984 26.2331C20.9886 26.2331 19.8433 27.3784 19.8433 28.7882C19.8433 30.198 20.9886 31.3432 22.3984 31.3432C23.8082 31.3432 24.9534 30.198 24.9534 28.7882C24.9534 27.3784 23.8054 26.2331 22.3984 26.2331Z" fill="white"/>
<path d="M39.8033 52.1286H26.8254L26.8902 51.5067C26.9267 51.1465 27.8413 42.6681 31.142 40.2172L31.2912 40.1074H35.3348L35.4839 40.2172C38.7847 42.6681 39.6992 51.1465 39.7358 51.5067L39.8033 52.1286ZM28.0889 51.003H38.5426C38.4329 50.201 38.1994 48.7153 37.7942 47.1169C37.0541 44.1905 36.0748 42.1644 34.9577 41.233H31.6738C30.5539 42.1644 29.5747 44.1961 28.8346 47.131C28.4294 48.7265 28.1986 50.2038 28.0889 51.003Z" fill="white"/>
<path d="M35.7055 40.7634L34.5968 40.5777L35.6126 34.5305C35.0301 34.3758 34.1466 34.252 33.6372 34.6065L33.3165 34.8288L32.9956 34.6065C32.4863 34.2548 31.5971 34.3786 31.0203 34.5305L32.0361 40.5749L30.9274 40.7606L29.7568 33.7849L30.1789 33.616C30.2014 33.6076 30.7108 33.4078 31.3664 33.3065C32.1402 33.1883 32.7959 33.2502 33.3193 33.4922C33.8399 33.2502 34.4955 33.1855 35.2721 33.3065C35.9278 33.4078 36.4399 33.6076 36.4596 33.616L36.8817 33.7849L35.7055 40.7634Z" fill="white"/>
<path d="M33.3146 32.7718C31.6009 32.7718 30.208 31.3789 30.208 29.6652C30.208 27.9515 31.6009 26.5586 33.3146 26.5586C35.0283 26.5586 36.4212 27.9515 36.4212 29.6652C36.4212 31.3789 35.0283 32.7718 33.3146 32.7718ZM33.3146 27.6842C32.2228 27.6842 31.3336 28.5734 31.3336 29.6652C31.3336 30.757 32.2228 31.6462 33.3146 31.6462C34.4064 31.6462 35.2956 30.757 35.2956 29.6652C35.2956 28.5734 34.4092 27.6842 33.3146 27.6842Z" fill="white"/>
<path d="M44.6932 23.3951C44.2796 23.1812 44.1164 22.6719 44.3274 22.2582C44.5413 21.8446 45.0506 21.6786 45.4643 21.8924C45.8779 22.1063 46.0411 22.6156 45.8301 23.0292C45.6809 23.3219 45.3855 23.4879 45.0788 23.4879C44.9493 23.4879 44.817 23.4598 44.6932 23.3951ZM42.186 21.9149C41.8005 21.6532 41.6964 21.1298 41.9581 20.7443C42.2198 20.3588 42.7432 20.2547 43.1287 20.5164C43.5142 20.7781 43.6183 21.3015 43.3566 21.687C43.1934 21.929 42.9261 22.0584 42.6559 22.0584C42.4956 22.0612 42.3296 22.0134 42.186 21.9149ZM39.873 20.1365C39.5213 19.8298 39.4875 19.2951 39.7942 18.9462C40.1009 18.5945 40.6356 18.5607 40.9845 18.8674C41.3362 19.1742 41.37 19.7088 41.0633 20.0577C40.8973 20.2491 40.6637 20.3448 40.4273 20.3448C40.2304 20.3448 40.0334 20.2772 39.873 20.1365ZM37.8047 18.0683C37.498 17.7165 37.5346 17.1847 37.8863 16.878C38.2381 16.5712 38.7699 16.6078 39.0766 16.9596C39.3833 17.3113 39.3468 17.8431 38.995 18.1499C38.8346 18.2906 38.6377 18.3581 38.4407 18.3581C38.2071 18.3553 37.9736 18.2596 37.8047 18.0683ZM36.0376 15.7243C35.7843 15.3331 35.8969 14.8097 36.288 14.5565C36.6792 14.3032 37.2025 14.4158 37.4558 14.8069C37.7091 15.198 37.5965 15.7214 37.2053 15.9747C37.0646 16.0647 36.9043 16.1098 36.7495 16.1098C36.4709 16.1126 36.198 15.9747 36.0376 15.7243ZM34.6419 13.0567C34.4871 12.6177 34.7179 12.1337 35.1597 11.9817C35.5986 11.8269 36.0826 12.0577 36.2345 12.4995C36.3893 12.9385 36.1586 13.4196 35.7168 13.5744C35.6239 13.6054 35.5311 13.6223 35.4382 13.6223C35.0893 13.6194 34.7629 13.4028 34.6419 13.0567Z" fill="white"/>
<path d="M11.804 23.0286C11.5901 22.615 11.7533 22.1057 12.1698 21.8918C12.5834 21.678 13.0927 21.8412 13.3066 22.2576C13.5205 22.6713 13.3573 23.1806 12.9408 23.3945C12.817 23.4564 12.6847 23.4873 12.5553 23.4873C12.2486 23.4873 11.9531 23.3213 11.804 23.0286ZM14.2774 21.6864C14.0157 21.3009 14.1198 20.7747 14.5053 20.5158C14.8909 20.2541 15.4171 20.3582 15.6759 20.7437C15.9376 21.1292 15.8335 21.6554 15.448 21.9143C15.3017 22.0128 15.1385 22.0578 14.9781 22.0578C14.7051 22.0607 14.4406 21.9284 14.2774 21.6864ZM16.5708 20.0571C16.2641 19.7054 16.2978 19.1736 16.6496 18.8668C17.0013 18.5601 17.5332 18.5939 17.8399 18.9456C18.1466 19.2974 18.1128 19.8292 17.7611 20.1359C17.6007 20.2766 17.4037 20.3442 17.2039 20.3442C16.9704 20.3442 16.7368 20.2485 16.5708 20.0571ZM18.639 18.1465C18.2873 17.8397 18.2507 17.3079 18.5574 16.9562C18.8641 16.6044 19.396 16.5678 19.7477 16.8746C20.0994 17.1813 20.136 17.7131 19.8293 18.0648C19.6633 18.2562 19.4297 18.3547 19.1934 18.3547C18.9964 18.3547 18.7966 18.2872 18.639 18.1465ZM20.4315 15.9769C20.0404 15.7237 19.9278 15.2003 20.1811 14.8091C20.4343 14.418 20.9577 14.3054 21.3489 14.5587C21.74 14.8119 21.8526 15.3325 21.5993 15.7265C21.4389 15.9769 21.1659 16.112 20.8902 16.112C20.7298 16.112 20.5722 16.067 20.4315 15.9769ZM21.9173 13.571C21.4783 13.4162 21.2447 12.9351 21.3995 12.4961C21.5543 12.0571 22.0355 11.8235 22.4744 11.9783C22.9134 12.1331 23.1469 12.6143 22.9922 13.0532C22.8712 13.4022 22.5448 13.6188 22.1959 13.6188C22.103 13.6188 22.0101 13.6048 21.9173 13.571Z" fill="white"/>
</svg>
