<svg width="68" height="56" viewBox="0 0 68 56" fill="none" xmlns="http://www.w3.org/2000/svg">
<path d="M33.8785 41.5707L33.5913 41.432C33.3371 41.3098 27.3115 38.3581 24.1947 33.016C23.3495 31.5665 23.0556 29.8563 23.3627 28.1955C23.6565 26.6107 24.4918 25.191 25.654 24.2929C26.7898 23.4179 28.1534 23.0713 29.5996 23.2958C31.0325 23.517 32.4687 24.2797 33.8785 25.564C35.2884 24.2797 36.7246 23.517 38.1575 23.2958C39.6004 23.0713 40.964 23.4179 42.1031 24.2929C43.2653 25.191 44.1006 26.6107 44.3944 28.1955C44.7015 29.8563 44.4076 31.5698 43.5624 33.016C40.4489 38.3581 34.4233 41.3098 34.1658 41.432L33.8785 41.5707ZM28.7675 24.5471C27.9256 24.5471 27.1398 24.8146 26.4629 25.3362C24.7329 26.6701 23.8117 29.7308 25.3371 32.349C27.8794 36.7073 32.6602 39.4477 33.8785 40.0948C35.0969 39.4477 39.8843 36.7006 42.42 32.349C43.6086 30.3086 43.5162 27.0498 41.2941 25.3362C40.4522 24.6858 39.4353 24.4316 38.3556 24.5966C37.0481 24.7981 35.6978 25.5872 34.3441 26.9409L33.8785 27.4064L33.413 26.9409C32.0593 25.5872 30.7089 24.7981 29.4014 24.5966C29.1868 24.5636 28.9755 24.5471 28.7675 24.5471Z" fill="white"/>
<path d="M60.3648 56H6.99296C3.13658 56 0 52.8634 0 49.007V15.1845C0 11.3281 3.13658 8.1915 6.99296 8.1915H17.4924C19.8366 8.1915 21.9694 6.71895 22.7982 4.52332C23.3033 3.18944 24.1882 2.05366 25.3636 1.24144C26.539 0.429223 27.9125 0 29.3388 0H38.019C39.4453 0 40.8221 0.429223 41.9942 1.24144C43.1696 2.05366 44.0545 3.18614 44.5596 4.52332C45.3884 6.71565 47.5213 8.1915 49.8655 8.1915H60.3648C64.2212 8.1915 67.3578 11.3281 67.3578 15.1845V49.0103C67.3578 52.8634 64.2212 56 60.3648 56ZM6.99627 9.51217C3.86956 9.51217 1.32398 12.0578 1.32398 15.1845V49.0103C1.32398 52.137 3.86956 54.6826 6.99627 54.6826H60.3681C63.4948 54.6826 66.0405 52.137 66.0405 49.0103V15.1845C66.0405 12.0578 63.4948 9.51217 60.3681 9.51217H49.8687C48.4424 9.51217 47.0656 9.08295 45.8935 8.27073C44.7181 7.45852 43.8333 6.32604 43.3281 4.98885C42.4994 2.79653 40.3665 1.32068 38.0223 1.32068H29.3421C26.9979 1.32068 24.865 2.79323 24.0363 4.98885C23.5311 6.32274 22.6463 7.45852 21.4709 8.27073C20.2955 9.08295 18.922 9.51217 17.4957 9.51217H6.99627Z" fill="white"/>
<path d="M18.1516 9.51507H6.41406V6.4412C6.41406 4.93232 7.64231 3.7041 9.15118 3.7041H15.4178C16.9267 3.7041 18.1549 4.93232 18.1549 6.4412V9.51507H18.1516ZM7.73143 8.1944H16.8276V6.4412C16.8276 5.662 16.1937 5.02478 15.4112 5.02478H9.14457C8.36537 5.02478 7.72813 5.6587 7.72813 6.4412V8.1944H7.73143Z" fill="white"/>
<path d="M33.6863 51.5084C28.2187 51.5084 23.0779 49.3788 19.2117 45.5125C15.3454 41.6462 13.2158 36.5055 13.2158 31.0379C13.2158 25.5703 15.3454 20.4295 19.2117 16.5632C23.0779 12.697 28.2187 10.5674 33.6863 10.5674C39.1539 10.5674 44.2946 12.697 48.1609 16.5632C52.0272 20.4295 54.1568 25.5703 54.1568 31.0379C54.1568 36.5055 52.0272 41.6462 48.1609 45.5125C44.2946 49.3788 39.1539 51.5084 33.6863 51.5084ZM33.6863 11.8881C28.572 11.8881 23.7614 13.879 20.1461 17.4976C16.5307 21.113 14.5365 25.9235 14.5365 31.0379C14.5365 36.1522 16.5274 40.9628 20.1461 44.5781C23.7614 48.1935 28.572 50.1877 33.6863 50.1877C38.8006 50.1877 43.6112 48.1968 47.2265 44.5781C50.8419 40.9628 52.8361 36.1522 52.8361 31.0379C52.8361 25.9235 50.8452 21.113 47.2265 17.4976C43.6112 13.879 38.8006 11.8881 33.6863 11.8881Z" fill="white"/>
<path d="M33.4963 46.2937C33.4666 45.7489 33.8892 45.2801 34.434 45.2536C34.9788 45.2239 35.4476 45.6465 35.474 46.1913C35.5037 46.7394 35.0811 47.2049 34.5364 47.2313C34.5199 47.2313 34.5 47.2313 34.4835 47.2313C33.9619 47.2346 33.526 46.822 33.4963 46.2937ZM31.0366 47.0399C30.4951 46.9507 30.1319 46.4423 30.2211 45.9008C30.3102 45.3593 30.8187 44.9961 31.3601 45.0819C31.8983 45.1711 32.2648 45.6796 32.1756 46.221C32.0964 46.7064 31.6771 47.0498 31.1984 47.0498C31.1455 47.0531 31.0927 47.0498 31.0366 47.0399ZM36.7848 45.98C36.6396 45.4517 36.9499 44.907 37.4749 44.7617C38.0031 44.6164 38.5479 44.9268 38.6932 45.4518C38.8385 45.98 38.5281 46.5248 38.0031 46.6701C37.914 46.6932 37.8281 46.7064 37.739 46.7064C37.3032 46.7064 36.9037 46.4191 36.7848 45.98ZM27.6556 46.0956C27.1472 45.8909 26.8995 45.3164 27.1042 44.8079C27.309 44.2995 27.8835 44.0518 28.3919 44.2565C28.9004 44.4612 29.1447 45.0357 28.9433 45.5442C28.7881 45.9305 28.415 46.1649 28.0221 46.1649C27.9 46.1682 27.7745 46.1451 27.6556 46.0956ZM39.9247 44.9631C39.6672 44.481 39.8521 43.8801 40.3374 43.6226C40.8195 43.3684 41.4204 43.55 41.6779 44.0353C41.9355 44.5174 41.7506 45.1183 41.2652 45.3758C41.1166 45.455 40.9581 45.4914 40.803 45.4914C40.4464 45.4914 40.103 45.2999 39.9247 44.9631ZM24.5587 44.4447C24.1063 44.1377 23.9908 43.5203 24.2978 43.0679C24.6049 42.6156 25.2223 42.5 25.6746 42.8071C26.127 43.1142 26.2425 43.7316 25.9354 44.1839C25.7439 44.4645 25.4336 44.6164 25.1166 44.6164C24.9218 44.6164 24.7303 44.5603 24.5587 44.4447ZM42.7708 43.2924C42.4175 42.8764 42.467 42.2491 42.883 41.8958C43.2991 41.5425 43.9264 41.5921 44.2797 42.0114C44.6329 42.4274 44.5834 43.0547 44.1641 43.408C43.9792 43.5665 43.7514 43.6424 43.5236 43.6424C43.2462 43.6424 42.9656 43.5236 42.7708 43.2924ZM21.8909 42.1699C21.5145 41.7704 21.5343 41.1463 21.9305 40.7699C22.3267 40.3935 22.954 40.4134 23.3304 40.8096C23.7068 41.2091 23.687 41.8331 23.2908 42.2095C23.0993 42.3911 22.855 42.4802 22.6107 42.4802C22.3465 42.4802 22.0857 42.3746 21.8909 42.1699ZM45.1942 41.0506C44.7584 40.7204 44.6758 40.0964 45.006 39.6639C45.3362 39.2281 45.9602 39.1455 46.3927 39.4757C46.8286 39.8058 46.9111 40.4299 46.5809 40.8657C46.3861 41.1199 46.0923 41.2553 45.7918 41.2553C45.5838 41.252 45.3725 41.186 45.1942 41.0506ZM19.7712 39.3733C19.4906 38.9045 19.6424 38.297 20.1113 38.013C20.5801 37.7324 21.1876 37.8843 21.4716 38.3531C21.7522 38.822 21.6003 39.4295 21.1315 39.7134C20.973 39.8092 20.798 39.8554 20.623 39.8554C20.2863 39.8554 19.9561 39.6837 19.7712 39.3733ZM47.0795 38.3399C46.5842 38.1088 46.3663 37.5211 46.5975 37.0258C46.8286 36.5306 47.4163 36.3127 47.9115 36.5438C48.4068 36.7749 48.6247 37.3626 48.3936 37.8579C48.2252 38.221 47.8686 38.4324 47.4955 38.4324C47.3568 38.4324 47.2149 38.4026 47.0795 38.3399ZM18.3019 36.1839C18.1269 35.6655 18.4076 35.1042 18.926 34.9292C19.4443 34.7576 20.0056 35.0349 20.1806 35.5566C20.3556 36.0749 20.075 36.6362 19.5566 36.8112C19.4509 36.8442 19.3453 36.8607 19.2429 36.8607C18.8269 36.8607 18.4406 36.5999 18.3019 36.1839ZM48.3375 35.2858C47.8026 35.167 47.4658 34.642 47.5813 34.1071C47.6969 33.5723 48.2252 33.2355 48.76 33.351C49.2949 33.4699 49.6317 33.9982 49.5161 34.5298C49.4138 34.992 49.0044 35.3089 48.5487 35.3089C48.4794 35.3089 48.4068 35.3023 48.3375 35.2858ZM17.559 32.7534C17.5029 32.2087 17.8958 31.7233 18.4406 31.6639C18.9854 31.6078 19.4708 32.0007 19.5302 32.5454C19.5863 33.0902 19.1934 33.5756 18.6486 33.635C18.6123 33.6383 18.5793 33.6416 18.543 33.6416C18.0411 33.6416 17.6119 33.2652 17.559 32.7534ZM47.9115 31.0432C47.9115 30.4951 48.3539 30.0527 48.902 30.0527C49.4501 30.0527 49.8925 30.4951 49.8925 31.0432C49.8925 31.5912 49.4501 32.0337 48.902 32.0337C48.3539 32.0337 47.9115 31.5912 47.9115 31.0432ZM18.4439 30.3432C17.8991 30.2838 17.5062 29.7951 17.569 29.2504C17.6284 28.7056 18.1171 28.316 18.6618 28.3754C19.2066 28.4348 19.5962 28.9235 19.5368 29.4683C19.4806 29.9767 19.0514 30.3498 18.5529 30.3498C18.5165 30.3465 18.4802 30.3465 18.4439 30.3432ZM47.5979 28.0485C47.4823 27.5137 47.8257 26.9887 48.3605 26.8731C48.8954 26.7576 49.4204 27.0976 49.536 27.6325C49.6515 28.1674 49.3081 28.6957 48.7766 28.8079C48.7072 28.8244 48.6379 28.831 48.5686 28.831C48.1063 28.8343 47.6969 28.5141 47.5979 28.0485ZM18.9491 27.0778C18.4307 26.9028 18.1534 26.3383 18.3317 25.8199C18.5067 25.3015 19.0712 25.0242 19.5896 25.2025C20.108 25.3775 20.3853 25.9421 20.207 26.4604C20.0683 26.8731 19.6821 27.1307 19.2693 27.1307C19.1604 27.1307 19.0547 27.1142 18.9491 27.0778ZM46.6272 25.1265C46.3993 24.628 46.6172 24.0403 47.1158 23.8125C47.6144 23.5846 48.202 23.8026 48.4299 24.3011C48.6577 24.7997 48.4398 25.3874 47.9412 25.6152C47.8092 25.6779 47.6672 25.7043 47.5285 25.7043C47.1521 25.7076 46.7955 25.493 46.6272 25.1265ZM20.1476 24.0007C19.6788 23.7167 19.5302 23.1059 19.8141 22.6404C20.0981 22.1715 20.7056 22.0229 21.1744 22.3069C21.6433 22.5908 21.7918 23.2016 21.5079 23.6672C21.323 23.9742 20.9961 24.1426 20.6593 24.1426C20.4844 24.1459 20.3094 24.0997 20.1476 24.0007ZM45.0489 22.4852C44.7188 22.0494 44.8079 21.4286 45.2438 21.0985C45.6796 20.7683 46.3003 20.8574 46.6305 21.2933C46.9606 21.7291 46.8715 22.3498 46.4357 22.68C46.2574 22.8153 46.0494 22.8814 45.8414 22.8814C45.5409 22.8781 45.2437 22.7427 45.0489 22.4852ZM21.98 21.2569C21.5838 20.8806 21.5706 20.2532 21.947 19.857C22.3234 19.4608 22.9507 19.4476 23.3469 19.824C23.7431 20.2004 23.7563 20.8277 23.3799 21.2239C23.1851 21.4286 22.9243 21.531 22.6635 21.531C22.4192 21.531 22.1748 21.4385 21.98 21.2569ZM42.9425 20.2367C42.5264 19.8801 42.4802 19.2561 42.8368 18.8401C43.1934 18.4241 43.8174 18.3779 44.2334 18.7345C44.6494 19.091 44.6956 19.7151 44.3391 20.1311C44.1443 20.3589 43.867 20.4778 43.5863 20.4778C43.3585 20.4778 43.1274 20.3985 42.9425 20.2367ZM24.3606 18.9689C24.0535 18.5165 24.1756 17.8991 24.628 17.5954C25.0803 17.2883 25.6977 17.4105 26.0048 17.8628C26.3119 18.3152 26.1897 18.9326 25.7373 19.2363C25.569 19.3519 25.3742 19.4047 25.1827 19.4047C24.8657 19.4047 24.5521 19.2528 24.3606 18.9689ZM40.4002 18.4967C39.9181 18.2392 39.7365 17.6383 39.9974 17.1563C40.2549 16.6742 40.8558 16.4926 41.3378 16.7534C41.8199 17.011 42.0015 17.6119 41.7406 18.0939C41.5623 18.4274 41.219 18.6156 40.8657 18.6156C40.7105 18.6123 40.5487 18.576 40.4002 18.4967ZM27.1736 17.2421C26.9722 16.7336 27.2231 16.1591 27.7316 15.9577C28.24 15.7563 28.8145 16.0073 29.0159 16.5157C29.2173 17.0242 28.9664 17.5987 28.4579 17.8001C28.3391 17.8463 28.2169 17.8694 28.0948 17.8694C27.7019 17.8694 27.3288 17.6317 27.1736 17.2421ZM37.5442 17.3445C37.0159 17.1959 36.7089 16.6478 36.8575 16.1228C37.006 15.5946 37.5541 15.2908 38.0791 15.4361C38.6073 15.5846 38.9111 16.1327 38.7658 16.6577C38.6437 17.0935 38.2442 17.3808 37.8117 17.3808C37.7258 17.3808 37.6333 17.3676 37.5442 17.3445ZM30.297 16.1657C30.2112 15.6243 30.5776 15.1191 31.1191 15.0333C31.6606 14.9474 32.1657 15.3172 32.2516 15.8554C32.3374 16.3969 31.9709 16.902 31.4295 16.9879C31.3766 16.9978 31.3238 17.0011 31.2743 17.0011C30.7955 17.0011 30.3729 16.6544 30.297 16.1657ZM34.5067 16.836C33.9619 16.803 33.5425 16.3374 33.5756 15.7893C33.6053 15.2446 34.0741 14.8253 34.6222 14.8583C35.167 14.888 35.5863 15.3568 35.5533 15.9049C35.5236 16.4332 35.0877 16.8393 34.5661 16.8393C34.5463 16.8393 34.5265 16.836 34.5067 16.836Z" fill="white"/>
<path d="M39.5593 4.75781H27.7393V6.07849H39.5593V4.75781Z" fill="white"/>
<path d="M58.7079 20.2753C56.8887 20.2753 55.4062 18.7928 55.4062 16.9736C55.4062 15.1543 56.8887 13.6719 58.7079 13.6719C60.5272 13.6719 62.0096 15.1543 62.0096 16.9736C62.0096 18.7928 60.5272 20.2753 58.7079 20.2753ZM58.7079 14.9926C57.6151 14.9926 56.7269 15.8807 56.7269 16.9736C56.7269 18.0664 57.6151 18.9546 58.7079 18.9546C59.8008 18.9546 60.689 18.0664 60.689 16.9736C60.689 15.8807 59.8008 14.9926 58.7079 14.9926Z" fill="white"/>
</svg>
