<svg width="0" height="0" fill="none" style="visibility: hidden; position: absolute;" aria-hidden="true">
    <symbol id="cf-10" viewBox="0 0 26 26" fill="none" xmlns="http://www.w3.org/2000/svg">
        <path
            d="M14.8741 3.80187L16.7807 7.61521C17.0407 8.14604 17.7341 8.65521 18.3191 8.75271L21.7749 9.32687C23.9849 9.69521 24.5049 11.2985 22.9124 12.8802L20.2257 15.5669C19.7707 16.0219 19.5216 16.8994 19.6624 17.5277L20.4316 20.8535C21.0382 23.486 19.6407 24.5044 17.3116 23.1285L14.0724 21.211C13.4874 20.8644 12.5232 20.8644 11.9274 21.211L8.68824 23.1285C6.3699 24.5044 4.96157 23.4752 5.56823 20.8535L6.3374 17.5277C6.47823 16.8994 6.22907 16.0219 5.77407 15.5669L3.0874 12.8802C1.50573 11.2985 2.0149 9.69521 4.2249 9.32687L7.68074 8.75271C8.2549 8.65521 8.94823 8.14604 9.20823 7.61521L11.1149 3.80187C12.1549 1.73271 13.8449 1.73271 14.8741 3.80187Z"
            stroke-width="1.2" stroke-linecap="round" stroke-linejoin="round" />
    </symbol>
    <symbol id="cf-11" viewBox="0 0 26 26" fill="none" xmlns="http://www.w3.org/2000/svg">
        <path d="M23.8333 16.25C23.8333 20.4425 20.4425 23.8333 16.25 23.8333L17.3875 21.9375" stroke-width="1.2"
            stroke-linecap="round" stroke-linejoin="round" />
        <path d="M2.16675 9.7474C2.16675 5.5549 5.55758 2.16406 9.75008 2.16406L8.61258 4.0599" stroke-width="1.2"
            stroke-linecap="round" stroke-linejoin="round" />
        <path d="M14.8416 4.82031L19.1532 7.31197L23.4216 4.83116" stroke-width="1.2" stroke-linecap="round"
            stroke-linejoin="round" />
        <path d="M19.1533 11.7247V7.30469" stroke-width="1.2" stroke-linecap="round" stroke-linejoin="round" />
        <path
            d="M18.1349 2.39156L15.5349 3.83235C14.9499 4.15735 14.4624 4.98067 14.4624 5.65234V8.40405C14.4624 9.07572 14.9391 9.89904 15.5349 10.224L18.1349 11.6649C18.6874 11.9791 19.5974 11.9791 20.1607 11.6649L22.7607 10.224C23.3457 9.89904 23.8332 9.07572 23.8332 8.40405V5.65234C23.8332 4.98067 23.3566 4.15735 22.7607 3.83235L20.1607 2.39156C19.6082 2.08823 18.6982 2.08823 18.1349 2.39156Z"
            stroke-width="1.2" stroke-linecap="round" stroke-linejoin="round" />
        <path d="M2.5459 16.7422L6.84673 19.2338L11.1259 16.753" stroke-width="1.2" stroke-linecap="round"
            stroke-linejoin="round" />
        <path d="M6.84668 23.6466V19.2266" stroke-width="1.2" stroke-linecap="round" stroke-linejoin="round" />
        <path
            d="M5.83925 14.3134L3.23925 15.7542C2.65425 16.0792 2.16675 16.9025 2.16675 17.5742V20.3259C2.16675 20.9976 2.64342 21.8209 3.23925 22.1459L5.83925 23.5868C6.39175 23.9009 7.30174 23.9009 7.86508 23.5868L10.4651 22.1459C11.0501 21.8209 11.5376 20.9976 11.5376 20.3259V17.5742C11.5376 16.9025 11.0609 16.0792 10.4651 15.7542L7.86508 14.3134C7.30174 14.0101 6.39175 14.0101 5.83925 14.3134Z"
            stroke-width="1.2" stroke-linecap="round" stroke-linejoin="round" />
    </symbol>
    <symbol id="cf-12" viewBox="0 0 26 26" fill="none" xmlns="http://www.w3.org/2000/svg">
        <path
            d="M11.8108 21.5225H18.82C22.8283 21.5225 23.825 20.5258 23.825 16.5175C22.4383 16.5175 21.3225 15.3908 21.3225 14.015C21.3225 12.6283 22.4383 11.5017 23.825 11.5017V10.505C23.825 6.49667 22.8283 5.5 18.82 5.5H11.9083V12.8558"
            stroke-width="1.2" stroke-linecap="round" stroke-linejoin="round" />
        <path
            d="M11.9098 18.2784V21.5284H8.90894C7.30561 21.5284 6.36311 20.4343 5.32311 17.9209L5.12811 17.4334C6.43894 16.9134 7.07811 15.3968 6.52561 14.0859C5.99478 12.7751 4.48894 12.1468 3.16728 12.6884L2.98311 12.2226C1.42311 8.40927 1.96478 7.07677 5.77811 5.50594L8.63811 4.33594L11.9098 12.2659V15.0284"
            stroke-width="1.2" stroke-linecap="round" stroke-linejoin="round" />
        <path d="M8.84237 21.5234H8.6582" stroke-width="1.2" stroke-linecap="round" stroke-linejoin="round" />
    </symbol>
    <symbol id="cf-13" width="26" height="26" viewBox="0 0 26 26" fill="none" xmlns="http://www.w3.org/2000/svg">
        <path
            d="M13.6717 22.5452C13.3034 22.6752 12.6967 22.6752 12.3284 22.5452C9.18675 21.4727 2.16675 16.9985 2.16675 9.41521C2.16675 6.06771 4.86425 3.35938 8.19008 3.35938C10.1617 3.35938 11.9059 4.31271 13.0001 5.78604C14.0942 4.31271 15.8492 3.35938 17.8101 3.35938C21.1359 3.35938 23.8334 6.06771 23.8334 9.41521C23.8334 16.9985 16.8134 21.4727 13.6717 22.5452Z"
            stroke="white" stroke-width="1.2" stroke-linecap="round" stroke-linejoin="round" />
    </symbol>
    <symbol id="cf-14" viewBox="0 0 26 26" fill="none" xmlns="http://www.w3.org/2000/svg">
        <path d="M20.5833 23.8307V11.9141" stroke-width="1.5" stroke-miterlimit="10" stroke-linecap="round"
            stroke-linejoin="round" />
        <path d="M20.5833 7.58073V2.16406" stroke-width="1.5" stroke-miterlimit="10" stroke-linecap="round"
            stroke-linejoin="round" />
        <path d="M13 23.8307V18.4141" stroke-width="1.5" stroke-miterlimit="10" stroke-linecap="round"
            stroke-linejoin="round" />
        <path d="M13 14.0807V2.16406" stroke-width="1.5" stroke-miterlimit="10" stroke-linecap="round"
            stroke-linejoin="round" />
        <path d="M5.41675 23.8307V11.9141" stroke-width="1.5" stroke-miterlimit="10" stroke-linecap="round"
            stroke-linejoin="round" />
        <path d="M5.41675 7.58073V2.16406" stroke-width="1.5" stroke-miterlimit="10" stroke-linecap="round"
            stroke-linejoin="round" />
        <path d="M3.25 11.9141H7.58333" stroke-width="1.5" stroke-miterlimit="10" stroke-linecap="round"
            stroke-linejoin="round" />
        <path d="M18.4167 11.9141H22.7501" stroke-width="1.5" stroke-miterlimit="10" stroke-linecap="round"
            stroke-linejoin="round" />
        <path d="M10.8333 14.0859H15.1666" stroke-width="1.5" stroke-miterlimit="10" stroke-linecap="round"
            stroke-linejoin="round" />
    </symbol>
    <symbol id="cf-2" viewBox="0 0 26 26" fill="none" xmlns="http://www.w3.org/2000/svg">
        <path d="M7.2583 10.0312L13 13.3571L18.6983 10.0529" stroke-width="1.2" stroke-linecap="round"
            stroke-linejoin="round" />
        <path d="M13 19.2479V13.3438" stroke-width="1.2" stroke-linecap="round" stroke-linejoin="round" />
        <path
            d="M11.6567 6.81043L8.19002 8.73876C7.41002 9.1721 6.76001 10.2663 6.76001 11.1654V14.8379C6.76001 15.7371 7.39918 16.8313 8.19002 17.2646L11.6567 19.1929C12.3934 19.6046 13.6067 19.6046 14.3542 19.1929L17.8209 17.2646C18.6009 16.8313 19.2508 15.7371 19.2508 14.8379V11.1546C19.2508 10.2554 18.6117 9.16126 17.8209 8.72793L14.3542 6.7996C13.6067 6.38793 12.3934 6.38793 11.6567 6.81043Z"
            stroke-width="1.2" stroke-linecap="round" stroke-linejoin="round" />
        <path d="M23.8333 16.25C23.8333 20.4425 20.4425 23.8333 16.25 23.8333L17.3875 21.9375" stroke-width="1.2"
            stroke-linecap="round" stroke-linejoin="round" />
        <path d="M2.16675 9.7474C2.16675 5.5549 5.55758 2.16406 9.75008 2.16406L8.61259 4.0599" stroke-width="1.2"
            stroke-linecap="round" stroke-linejoin="round" />
    </symbol>
    <symbol id="cf-3" viewBox="0 0 26 26" fill="none" xmlns="http://www.w3.org/2000/svg">
        <path
            d="M13.0001 23.8307C18.9832 23.8307 23.8334 18.9805 23.8334 12.9974C23.8334 7.01431 18.9832 2.16406 13.0001 2.16406C7.017 2.16406 2.16675 7.01431 2.16675 12.9974C2.16675 18.9805 7.017 23.8307 13.0001 23.8307Z"
            stroke-width="1.2" stroke-linecap="round" stroke-linejoin="round" />
        <path d="M8.66657 3.25H9.7499C7.6374 9.57667 7.6374 16.4233 9.7499 22.75H8.66657" stroke-width="1.2"
            stroke-linecap="round" stroke-linejoin="round" />
        <path d="M16.25 3.25C18.3625 9.57667 18.3625 16.4233 16.25 22.75" stroke-width="1.2" stroke-linecap="round"
            stroke-linejoin="round" />
        <path d="M3.25 17.3333V16.25C9.57667 18.3625 16.4233 18.3625 22.75 16.25V17.3333" stroke-width="1.2"
            stroke-linecap="round" stroke-linejoin="round" />
        <path d="M3.25 9.74844C9.57667 7.63594 16.4233 7.63594 22.75 9.74844" stroke-width="1.2" stroke-linecap="round"
            stroke-linejoin="round" />
    </symbol>
    <symbol id="cf-4" viewBox="0 0 26 26" fill="none" xmlns="http://www.w3.org/2000/svg">
        <path
            d="M15.4549 11.6117V12.2117H16.0549H19.4024C20.091 12.2117 20.2492 12.4251 20.2679 12.4665C20.2863 12.5073 20.3423 12.7666 19.8849 13.283L19.8835 13.2847L12.5493 21.6263L12.5493 21.6264L11.683 22.6117C11.4132 22.918 11.1861 23.0907 11.0186 23.1734C10.937 23.2136 10.8797 23.2275 10.8454 23.2313C10.8138 23.2349 10.8013 23.2302 10.799 23.2293L10.799 23.2293L10.799 23.2293C10.7967 23.2285 10.7845 23.2239 10.7634 23.2008C10.7405 23.1756 10.7068 23.1279 10.6722 23.0443C10.6012 22.8724 10.5449 22.5933 10.5449 22.185V14.385V13.785H9.94489H6.59739C5.90881 13.785 5.75058 13.5716 5.73189 13.5302C5.71347 13.4894 5.65745 13.2301 6.11488 12.7137L6.11633 12.712L13.4505 4.37035L13.4505 4.37033L14.3168 3.38496C14.3168 3.38493 14.3168 3.38489 14.3169 3.38485C14.5866 3.07866 14.8137 2.90593 14.9812 2.8233C15.0628 2.78307 15.12 2.76922 15.1543 2.76537C15.186 2.76181 15.1985 2.7665 15.2007 2.76734L15.2008 2.76735L15.2008 2.76737C15.2031 2.76821 15.2153 2.77279 15.2364 2.79591C15.2593 2.82104 15.293 2.86877 15.3275 2.9524C15.3986 3.12426 15.4549 3.40336 15.4549 3.81168V11.6117Z"
            stroke-width="1.2" />
    </symbol>
    <symbol id="cf-5" viewBox="0 0 26 26" fill="none" xmlns="http://www.w3.org/2000/svg">
        <path
            d="M7.29091 21.3391C8.17925 20.3857 9.53342 20.4616 10.3134 21.5016L11.4076 22.9641C12.2851 24.1232 13.7042 24.1232 14.5817 22.9641L15.6759 21.5016C16.4559 20.4616 17.8101 20.3857 18.6984 21.3391C20.6267 23.3974 22.1976 22.7149 22.1976 19.8332V7.62406C22.2084 3.25823 21.1901 2.16406 17.0951 2.16406H8.90508C4.81008 2.16406 3.79175 3.25823 3.79175 7.62406V19.8224C3.79175 22.7149 5.37341 23.3866 7.29091 21.3391Z"
            stroke-width="1.2" stroke-linecap="round" stroke-linejoin="round" />
        <path d="M8.77082 11.9167H8.78055" stroke-width="1.5" stroke-linecap="round" stroke-linejoin="round" />
        <path d="M11.8066 11.9141H17.765" stroke-width="1.2" stroke-linecap="round" stroke-linejoin="round" />
        <path d="M8.77082 7.58073H8.78055" stroke-width="1.5" stroke-linecap="round" stroke-linejoin="round" />
        <path d="M11.8066 7.58594H17.765" stroke-width="1.2" stroke-linecap="round" stroke-linejoin="round" />
    </symbol>
    <symbol id="cf-6" viewBox="0 0 26 26" fill="none" xmlns="http://www.w3.org/2000/svg">
        <path
            d="M20.5834 9.7474C20.5834 11.3182 20.1176 12.7591 19.3159 13.9616C18.1459 15.6949 16.2934 16.9191 14.1376 17.2332C13.7692 17.2982 13.3901 17.3307 13.0001 17.3307C12.6101 17.3307 12.2309 17.2982 11.8626 17.2332C9.70675 16.9191 7.85425 15.6949 6.68425 13.9616C5.88258 12.7591 5.41675 11.3182 5.41675 9.7474C5.41675 5.5549 8.80758 2.16406 13.0001 2.16406C17.1926 2.16406 20.5834 5.5549 20.5834 9.7474Z"
            stroke-width="1.2" stroke-linecap="round" stroke-linejoin="round" />
        <path
            d="M23.0208 20.0107L21.2333 20.4332C20.8324 20.5307 20.5183 20.8341 20.4316 21.2349L20.0524 22.8274C19.8466 23.6941 18.7416 23.9541 18.1674 23.2716L12.9999 17.3349L7.83242 23.2824C7.25826 23.9649 6.15326 23.7049 5.94742 22.8382L5.56826 21.2457C5.47076 20.8449 5.15659 20.5307 4.76659 20.4441L2.97909 20.0216C2.15576 19.8266 1.86326 18.7974 2.45909 18.2016L6.68409 13.9766C7.85409 15.7099 9.70659 16.9341 11.8624 17.2483C12.2308 17.3133 12.6099 17.3457 12.9999 17.3457C13.3899 17.3457 13.7691 17.3133 14.1374 17.2483C16.2933 16.9341 18.1458 15.7099 19.3158 13.9766L23.5408 18.2016C24.1366 18.7866 23.8441 19.8157 23.0208 20.0107Z"
            stroke-width="1.2" stroke-linecap="round" stroke-linejoin="round" />
        <path
            d="M13.6284 6.48094L14.2676 7.75926C14.3542 7.9326 14.5817 8.10594 14.7876 8.13844L15.9467 8.33343C16.6834 8.4526 16.8567 8.99427 16.3259 9.5251L15.4267 10.4243C15.2751 10.5759 15.1884 10.8684 15.2426 11.0851L15.5026 12.2009C15.7084 13.0784 15.2426 13.4251 14.4626 12.9592L13.3792 12.3201C13.1842 12.2009 12.8592 12.2009 12.6642 12.3201L11.5809 12.9592C10.8009 13.4142 10.3351 13.0784 10.5409 12.2009L10.8009 11.0851C10.8442 10.8793 10.7684 10.5759 10.6167 10.4243L9.71755 9.5251C9.18672 8.99427 9.36005 8.46343 10.0967 8.33343L11.2559 8.13844C11.4509 8.10594 11.6784 7.9326 11.7651 7.75926L12.4042 6.48094C12.7184 5.7876 13.2817 5.7876 13.6284 6.48094Z"
            stroke-width="1.2" stroke-linecap="round" stroke-linejoin="round" />
    </symbol>
    <symbol id="cf-7" viewBox="0 0 26 26" fill="none" xmlns="http://www.w3.org/2000/svg">
        <path
            d="M20.9084 8.57913V14.1583C20.9084 17.495 19.0017 18.9249 16.1417 18.9249H6.6192C6.1317 18.9249 5.66587 18.8817 5.23253 18.7842C4.9617 18.7408 4.70171 18.665 4.46338 18.5783C2.83838 17.9717 1.85254 16.5633 1.85254 14.1583V8.57913C1.85254 5.24246 3.7592 3.8125 6.6192 3.8125H16.1417C18.5684 3.8125 20.3125 4.84166 20.7784 7.19249C20.8542 7.62583 20.9084 8.06996 20.9084 8.57913Z"
            stroke-width="1.2" stroke-miterlimit="10" stroke-linecap="round" stroke-linejoin="round" />
        <path
            d="M24.1595 11.8319V17.4111C24.1595 20.7478 22.2528 22.1778 19.3928 22.1778H9.87031C9.06864 22.1778 8.34282 22.0695 7.71449 21.8312C6.42532 21.3545 5.54781 20.3687 5.23364 18.787C5.66698 18.8845 6.13281 18.9278 6.62031 18.9278H16.1428C19.0028 18.9278 20.9095 17.4978 20.9095 14.1611V8.58194C20.9095 8.07278 20.8661 7.61781 20.7795 7.19531C22.8378 7.62865 24.1595 9.08028 24.1595 11.8319Z"
            stroke-width="1.2" stroke-miterlimit="10" stroke-linecap="round" stroke-linejoin="round" />
        <path
            d="M11.3734 14.2357C12.953 14.2357 14.2335 12.9552 14.2335 11.3756C14.2335 9.79611 12.953 8.51562 11.3734 8.51562C9.79391 8.51562 8.51343 9.79611 8.51343 11.3756C8.51343 12.9552 9.79391 14.2357 11.3734 14.2357Z"
            stroke-width="1.2" stroke-miterlimit="10" stroke-linecap="round" stroke-linejoin="round" />
        <path d="M5.17847 8.99219V13.7589" stroke-width="1.2" stroke-miterlimit="10" stroke-linecap="round"
            stroke-linejoin="round" />
        <path d="M17.5735 8.99219V13.7589" stroke-width="1.2" stroke-miterlimit="10" stroke-linecap="round"
            stroke-linejoin="round" />
    </symbol>
    <symbol id="cf-8" viewBox="0 0 26 26" fill="none" xmlns="http://www.w3.org/2000/svg">
        <path
            d="M22.7501 12.4557C22.7501 18.1432 18.1459 22.7474 12.4584 22.7474C6.77091 22.7474 2.16675 18.1432 2.16675 12.4557C2.16675 6.76823 6.77091 2.16406 12.4584 2.16406"
            stroke-width="1.5" stroke-linecap="round" stroke-linejoin="round" />
        <path d="M23.8334 23.8307L21.6667 21.6641" stroke-width="1.5" stroke-linecap="round" stroke-linejoin="round" />
        <path
            d="M15.7082 6.64003C15.3291 5.44836 15.7732 3.96419 17.0299 3.56336C17.6907 3.34669 18.5032 3.53086 18.9691 4.17003C19.4024 3.50919 20.2474 3.35753 20.8974 3.56336C22.1541 3.96419 22.5982 5.44836 22.2191 6.64003C21.6232 8.53586 19.5432 9.52169 18.9691 9.52169C18.3841 9.52169 16.3257 8.55753 15.7082 6.64003Z"
            stroke-width="1.5" stroke-linecap="round" stroke-linejoin="round" />
    </symbol>
    <symbol id="cf-9" viewBox="0 0 26 26" fill="none" xmlns="http://www.w3.org/2000/svg">
        <path
            d="M5.36155 18.0037L10.5093 23.1514C12.6235 25.2656 16.0554 25.2656 18.1696 23.1514L23.1488 18.1722C25.2631 16.0579 25.2631 12.6261 23.1488 10.5119L18.0011 5.36412C16.921 4.28401 15.4425 3.70949 13.9105 3.78609L8.23417 4.0542C5.96671 4.16145 4.15888 5.96928 4.05163 8.23674L3.78352 13.913C3.70692 15.4451 4.28144 16.9235 5.36155 18.0037Z"
            stroke-width="1.2" stroke-linecap="round" stroke-linejoin="round" />
        <circle cx="9.46313" cy="9.46905" r="2" transform="rotate(45 9.46313 9.46905)" />
    </symbol>
    <symbol id="cf-1" viewBox="0 0 26 26" fill="none" xmlns="http://www.w3.org/2000/svg">
        <path d="M20.6484 20.2274L18.3301 15.6016L16.0117 20.2274" stroke-width="1.2" stroke-linecap="round"
            stroke-linejoin="round" />
        <path d="M16.4341 19.4062H20.2474" stroke-width="1.2" stroke-linecap="round" stroke-linejoin="round" />
        <path
            d="M18.33 23.8348C15.2967 23.8348 12.8267 21.3756 12.8267 18.3314C12.8267 15.2981 15.2858 12.8281 18.33 12.8281C21.3633 12.8281 23.8333 15.2872 23.8333 18.3314C23.8333 21.3756 21.3742 23.8348 18.33 23.8348Z"
            stroke-width="1.2" stroke-linecap="round" stroke-linejoin="round" />
        <path
            d="M5.43842 2.16406H9.68508C11.9276 2.16406 13.0109 3.24742 12.9568 5.43575V9.6824C13.0109 11.9249 11.9276 13.0083 9.68508 12.9541H5.43842C3.25009 12.9974 2.16675 11.9141 2.16675 9.67155V5.42491C2.16675 3.24741 3.25009 2.16406 5.43842 2.16406Z"
            stroke-width="1.2" stroke-linecap="round" stroke-linejoin="round" />
        <path d="M9.76064 6.33594H5.3623" stroke-width="1.2" stroke-linecap="round" stroke-linejoin="round" />
        <path d="M7.55078 5.60156V6.33822" stroke-width="1.2" stroke-linecap="round" stroke-linejoin="round" />
        <path d="M8.65573 6.32812C8.65573 8.22396 7.17156 9.76227 5.35156 9.76227" stroke-width="1.2"
            stroke-linecap="round" stroke-linejoin="round" />
        <path d="M9.76075 9.75824C8.96992 9.75824 8.25493 9.33573 7.75659 8.66406" stroke-width="1.2"
            stroke-linecap="round" stroke-linejoin="round" />
        <path d="M2.16675 16.25C2.16675 20.4425 5.55758 23.8333 9.75008 23.8333L8.61258 21.9375" stroke-width="1.2"
            stroke-linecap="round" stroke-linejoin="round" />
        <path d="M23.8333 9.7474C23.8333 5.5549 20.4425 2.16406 16.25 2.16406L17.3875 4.0599" stroke-width="1.2"
            stroke-linecap="round" stroke-linejoin="round" />
    </symbol>
</svg>