<svg width="180" height="37" viewBox="0 0 180 37" fill="none" xmlns="http://www.w3.org/2000/svg">
<path d="M67.8477 19.3016C67.8477 21.3949 69.1271 21.7619 69.7067 21.7619C69.9336 21.7638 70.1586 21.7206 70.3688 21.6347C70.5791 21.5488 70.7704 21.422 70.932 21.2614C71.0935 21.1009 71.222 20.9098 71.3102 20.6991C71.3984 20.4884 71.4444 20.2622 71.4458 20.0336C71.4458 19.0843 70.6973 18.8034 67.9454 17.6245C66.6904 17.114 63.5765 15.849 63.5765 12.466C63.5765 8.84112 66.8308 6.91797 69.8288 6.91797C72.2898 6.91797 75.7658 8.18298 75.8391 12.5152H71.3237C71.2281 11.9001 71.0837 10.7622 69.6823 10.7622C68.8871 10.7622 68.1142 11.322 68.1142 12.1749C68.1142 13.0278 68.5962 13.2205 71.8078 14.6803C75.1394 16.1893 75.9835 17.7455 75.9835 19.8388C75.9835 22.7092 74.4865 25.6062 69.7556 25.6062C65.0775 25.6062 63.19 22.8322 63.31 19.3037L67.8477 19.3016Z" fill="#202326"/>
<path d="M77.9868 7.25635H81.9896V12.9971C82.7137 11.7813 84.0642 11.2933 85.49 11.2933C87.5402 11.2933 88.7443 12.0232 89.4724 13.2165C90.2006 14.4097 90.3897 15.9905 90.3897 17.7168V25.2618H86.3829V17.9137C86.3829 17.1612 86.2852 16.4539 85.9761 15.9434C85.6669 15.4328 85.1076 15.0925 84.2371 15.0925C83.1266 15.0925 82.5489 15.603 82.2825 16.1873C82.0671 16.6849 81.9683 17.2258 81.9937 17.7681V25.2639H77.9868V7.25635Z" fill="#202326"/>
<path d="M92.6128 18.4737C92.6128 15.1933 94.9538 11.3203 99.8312 11.3203C104.709 11.3203 107.048 15.1892 107.048 18.4963C107.048 21.8034 104.707 25.6722 99.8312 25.6722C94.9559 25.6722 92.6128 21.8034 92.6128 18.4963V18.4737ZM96.6196 18.5229C96.6196 20.4707 98.0922 21.9059 99.8312 21.9059C101.57 21.9059 103.041 20.4707 103.041 18.4983C103.041 16.526 101.568 15.0928 99.8312 15.0928C98.0942 15.0928 96.6196 16.528 96.6196 18.4983V18.5229Z" fill="#202326"/>
<path d="M109.315 11.7588H113.082V13.235C113.598 12.6081 114.248 12.1071 114.984 11.7698C115.719 11.4324 116.521 11.2675 117.329 11.2872C122.086 11.2872 123.872 15.4964 123.872 18.6375C123.872 22.533 121.169 25.7171 117.364 25.7171C114.951 25.7171 113.817 24.5484 113.332 24.0379V29.7561H109.326L109.315 11.7588ZM119.865 18.498C119.865 16.9173 118.706 15.0679 116.509 15.0679C116.059 15.0645 115.613 15.1537 115.198 15.3299C114.783 15.5062 114.407 15.7658 114.095 16.0931C113.479 16.7605 113.142 17.6417 113.153 18.5534C113.148 19.0003 113.231 19.4439 113.397 19.8581C113.564 20.2724 113.81 20.6491 114.123 20.9663C114.435 21.2835 114.807 21.5348 115.217 21.7056C115.627 21.8764 116.066 21.9632 116.509 21.961C118.608 21.961 119.865 20.2326 119.865 18.5288V18.498Z" fill="#202326"/>
<path d="M126.14 11.7588H129.905V13.235C130.421 12.6078 131.072 12.1067 131.808 11.7694C132.543 11.432 133.346 11.2672 134.154 11.2873C138.909 11.2873 140.695 15.4965 140.695 18.6375C140.695 22.533 137.992 25.7171 134.186 25.7171C131.772 25.7171 130.637 24.5484 130.155 24.0379V29.7561H126.148L126.14 11.7588ZM136.688 18.4981C136.688 16.9173 135.529 15.068 133.332 15.068C132.882 15.0646 132.436 15.1538 132.021 15.3301C131.606 15.5063 131.232 15.766 130.92 16.0931C130.304 16.7605 129.966 17.6417 129.978 18.5535C129.973 19.0002 130.056 19.4436 130.222 19.8577C130.388 20.2718 130.635 20.6485 130.947 20.9656C131.259 21.2828 131.631 21.5341 132.04 21.705C132.45 21.8759 132.889 21.9629 133.332 21.961C135.433 21.961 136.688 20.2326 136.688 18.5288V18.4981Z" fill="#202326"/>
<path d="M142.963 7.25635H146.97V10.3318H142.963V7.25635ZM142.963 11.7669H146.97V25.2721H142.963V11.7669Z" fill="#202326"/>
<path d="M149.866 11.7588H153.608V13.194C154.066 12.5379 154.912 11.2954 157.302 11.2954C161.815 11.2954 162.273 14.9859 162.273 16.8188V25.2639H158.262V17.8829C158.262 16.3985 157.949 15.0843 156.163 15.0843C154.184 15.0843 153.869 16.5195 153.869 17.9055V25.2557H149.862L149.866 11.7588Z" fill="#202326"/>
<path d="M179.008 23.6322C179.008 25.6538 178.864 26.9434 178.213 28.0854C177.177 29.7892 174.737 31.2777 171.421 31.2777C166.762 31.2777 165 28.4544 164.734 26.5333H169.369C169.493 26.8051 169.67 27.0488 169.89 27.2497C170.11 27.4505 170.368 27.6044 170.649 27.702C170.991 27.8172 171.349 27.8747 171.71 27.8722C173.232 27.8722 174.965 26.9229 174.965 24.5917V23.7901C174.505 24.5671 173.337 25.7112 171.247 25.7112C167.602 25.7112 164.488 22.9372 164.488 18.607C164.488 13.9836 167.771 11.3306 171.247 11.3306C172.744 11.3306 174.216 11.8657 174.987 13.0343V11.7591H179.008V23.6322ZM168.509 18.4737C168.509 20.6162 170.053 21.9305 171.718 21.9305C172.151 21.9449 172.582 21.8704 172.984 21.7114C173.387 21.5525 173.754 21.3124 174.061 21.0058C174.646 20.3678 174.98 19.5369 175.001 18.6685C175.034 17.7499 174.734 16.8507 174.157 16.1385C173.626 15.4824 172.805 15.0928 171.743 15.0928C171.311 15.0954 170.883 15.1848 170.486 15.3557C170.088 15.5266 169.728 15.7757 169.427 16.0883C169.126 16.401 168.89 16.7709 168.732 17.1766C168.575 17.5823 168.499 18.0156 168.509 18.4512V18.4737Z" fill="#202326"/>
<path d="M6.41895 1.92989L11.4407 0.00878906L22.1127 28.3415H16.3689L6.41895 1.92989Z" fill="#FFA800"/>
<path d="M0 4.8298V0.00878906H11.3554V4.8298H0Z" fill="#FFA800"/>
<path d="M21.6268 23.7529L32.6649 11.8818H17.1074L15.2769 7.06982H38.722L40.0908 10.504L27.9686 23.4495H44.9112L46.5994 28.2594H23.3088L21.6268 23.7529Z" fill="#FFA800"/>
<path d="M47.8889 28.2471L40.0908 7.06982H46.0624L51.074 20.4212L55.7846 7.07188H61.8864L51.4056 35.0027H45.0129L47.8889 28.2471Z" fill="#FFA800"/>
<path d="M31.9162 32.9744C32.2681 31.5397 31.3998 30.0891 29.9767 29.7343C28.5537 29.3796 27.1147 30.2551 26.7628 31.6898C26.4108 33.1245 27.2791 34.5752 28.7022 34.9299C30.1252 35.2846 31.5642 34.4091 31.9162 32.9744Z" fill="#FFA800"/>
<path d="M40.4328 34.2193C41.4695 33.1743 41.4695 31.48 40.4328 30.435C39.3962 29.3901 37.7154 29.3901 36.6788 30.435C35.6421 31.48 35.6421 33.1743 36.6788 34.2192C37.7154 35.2642 39.3962 35.2642 40.4328 34.2193Z" fill="#FFA800"/>
<path d="M114.923 35.003H53.0571L53.9277 32.6797H114.923V35.003Z" fill="#FFA800"/>
</svg>
