<svg width="180" height="37" viewBox="0 0 180 37" fill="none" xmlns="http://www.w3.org/2000/svg">
<path d="M67.8477 19.2964C67.8477 21.3901 69.1271 21.7571 69.7068 21.7571C69.9336 21.759 70.1586 21.7158 70.3688 21.6299C70.5791 21.544 70.7704 21.4171 70.932 21.2565C71.0935 21.096 71.222 20.9048 71.3102 20.6941C71.3984 20.4834 71.4444 20.2572 71.4458 20.0285C71.4458 19.079 70.6973 18.7981 67.9454 17.619C66.6904 17.1084 63.5765 15.8431 63.5765 12.4596C63.5765 8.83413 66.8308 6.91064 69.8288 6.91064C72.2898 6.91064 75.7658 8.17588 75.8391 12.5088H71.3237C71.2281 11.8937 71.0837 10.7556 69.6823 10.7556C68.8871 10.7556 68.1142 11.3154 68.1142 12.1684C68.1142 13.0215 68.5962 13.2143 71.8078 14.6743C75.1394 16.1835 75.9835 17.74 75.9835 19.8337C75.9835 22.7045 74.4865 25.6021 69.7556 25.6021C65.0775 25.6021 63.19 22.8276 63.31 19.2984L67.8477 19.2964Z" fill="white"/>
<path d="M77.9869 7.24902H81.9897V12.9908C82.7138 11.7747 84.0643 11.2867 85.4901 11.2867C87.5403 11.2867 88.7444 12.0167 89.4725 13.2102C90.2007 14.4036 90.3898 15.9847 90.3898 17.7113V25.2576H86.383V17.9082C86.383 17.1556 86.2854 16.4481 85.9762 15.9375C85.667 15.4269 85.1077 15.0865 84.2372 15.0865C83.1267 15.0865 82.549 15.5971 82.2826 16.1815C82.0672 16.6792 81.9684 17.2202 81.9938 17.7626V25.2596H77.9869V7.24902Z" fill="white"/>
<path d="M92.6129 18.4678C92.6129 15.1869 94.954 11.3132 99.8313 11.3132C104.709 11.3132 107.048 15.1828 107.048 18.4904C107.048 21.7981 104.707 25.6676 99.8313 25.6676C94.956 25.6676 92.6129 21.7981 92.6129 18.4904V18.4678ZM96.6198 18.5171C96.6198 20.4652 98.0923 21.9006 99.8313 21.9006C101.57 21.9006 103.041 20.4652 103.041 18.4925C103.041 16.5198 101.568 15.0864 99.8313 15.0864C98.0944 15.0864 96.6198 16.5218 96.6198 18.4925V18.5171Z" fill="white"/>
<path d="M109.316 11.752H113.082V13.2285C113.598 12.6015 114.249 12.1004 114.984 11.763C115.72 11.4256 116.521 11.2606 117.329 11.2804C122.087 11.2804 123.872 15.4903 123.872 18.6319C123.872 22.5281 121.169 25.7127 117.364 25.7127C114.952 25.7127 113.817 24.5438 113.333 24.0332V29.7524H109.326L109.316 11.752ZM119.866 18.4924C119.866 16.9114 118.706 15.0617 116.51 15.0617C116.059 15.0583 115.613 15.1475 115.198 15.3238C114.783 15.5001 114.408 15.7598 114.095 16.0871C113.479 16.7546 113.142 17.6359 113.154 18.5478C113.148 18.9948 113.231 19.4384 113.398 19.8528C113.564 20.2671 113.811 20.6439 114.123 20.9611C114.435 21.2784 114.807 21.5297 115.217 21.7005C115.627 21.8713 116.066 21.9581 116.51 21.9559C118.609 21.9559 119.866 20.2273 119.866 18.5232V18.4924Z" fill="white"/>
<path d="M126.14 11.7521H129.905V13.2285C130.421 12.6012 131.072 12.1 131.808 11.7626C132.543 11.4252 133.346 11.2604 134.154 11.2804C138.909 11.2804 140.695 15.4904 140.695 18.6319C140.695 22.5281 137.992 25.7127 134.186 25.7127C131.772 25.7127 130.637 24.5439 130.155 24.0333V29.7524H126.148L126.14 11.7521ZM136.688 18.4925C136.688 16.9115 135.529 15.0618 133.332 15.0618C132.882 15.0584 132.436 15.1476 132.021 15.3239C131.606 15.5002 131.232 15.7599 130.92 16.0871C130.304 16.7546 129.966 17.636 129.978 18.5479C129.973 18.9947 130.056 19.4381 130.222 19.8523C130.388 20.2665 130.635 20.6432 130.947 20.9604C131.259 21.2777 131.631 21.5291 132.04 21.7C132.45 21.8709 132.889 21.9579 133.332 21.956C135.433 21.956 136.688 20.2273 136.688 18.5232V18.4925Z" fill="white"/>
<path d="M142.963 7.24902H146.97V10.325H142.963V7.24902ZM142.963 11.7604H146.97V25.2678H142.963V11.7604Z" fill="white"/>
<path d="M149.866 11.752H153.608V13.1874C154.066 12.5312 154.912 11.2886 157.302 11.2886C161.815 11.2886 162.273 14.9797 162.273 16.8129V25.2595H158.262V17.8772C158.262 16.3926 157.949 15.0781 156.163 15.0781C154.184 15.0781 153.869 16.5136 153.869 17.8998V25.2513H149.862L149.866 11.752Z" fill="white"/>
<path d="M179.008 23.6272C179.008 25.6491 178.864 26.939 178.213 28.0812C177.178 29.7852 174.737 31.274 171.422 31.274C166.762 31.274 165 28.4503 164.734 26.5288H169.369C169.493 26.8007 169.67 27.0444 169.89 27.2453C170.11 27.4462 170.368 27.6001 170.649 27.6977C170.991 27.8129 171.35 27.8704 171.71 27.8679C173.232 27.8679 174.965 26.9185 174.965 24.5869V23.7851C174.505 24.5623 173.338 25.7065 171.247 25.7065C167.602 25.7065 164.488 22.9321 164.488 18.6011C164.488 13.977 167.771 11.3235 171.247 11.3235C172.744 11.3235 174.216 11.8587 174.987 13.0276V11.7521H179.008V23.6272ZM168.509 18.4678C168.509 20.6107 170.053 21.9252 171.719 21.9252C172.151 21.9397 172.582 21.8651 172.985 21.7061C173.387 21.5471 173.754 21.307 174.062 21.0004C174.646 20.3623 174.98 19.5312 175.001 18.6627C175.034 17.7439 174.734 16.8445 174.157 16.1322C173.626 15.476 172.805 15.0864 171.743 15.0864C171.311 15.089 170.883 15.1784 170.486 15.3493C170.088 15.5203 169.728 15.7694 169.427 16.082C169.126 16.3947 168.89 16.7648 168.732 17.1705C168.575 17.5763 168.499 18.0096 168.509 18.4453V18.4678Z" fill="white"/>
<path d="M6.41907 1.92143L11.4408 0L22.1129 28.3375H16.369L6.41907 1.92143Z" fill="#FFA800"/>
<path d="M0 4.82101V0H11.3554V4.82101H0Z" fill="#FFA800"/>
<path d="M21.6268 23.7482L32.6649 11.8751H17.1074L15.2769 7.06226H38.722L40.0908 10.497L27.9686 23.4447H44.9112L46.5994 28.2554H23.3088L21.6268 23.7482Z" fill="#FFA800"/>
<path d="M47.8889 28.2431L40.0908 7.06226H46.0624L51.074 20.4159L55.7846 7.06431H61.8864L51.4056 34.9999H45.0129L47.8889 28.2431Z" fill="#FFA800"/>
<path d="M31.916 32.9717C32.2679 31.5369 31.3996 30.0863 29.9765 29.7315C28.5535 29.3767 27.1146 30.2521 26.7627 31.6869C26.4108 33.1216 27.2791 34.5723 28.7021 34.9271C30.1252 35.2819 31.5641 34.4064 31.916 32.9717Z" fill="#FFA800"/>
<path d="M40.4323 34.2162C41.4689 33.1712 41.4689 31.4768 40.4323 30.4317C39.3958 29.3866 37.7152 29.3866 36.6786 30.4317C35.6421 31.4768 35.6421 33.1712 36.6786 34.2162C37.7152 35.2613 39.3958 35.2613 40.4323 34.2162Z" fill="#FFA800"/>
<path d="M114.923 35.0001H53.0571L53.9277 32.6768H114.923V35.0001Z" fill="#FFA800"/>
</svg>
