<svg width="0" height="0" fill="none" style="visibility: hidden; position: absolute;" aria-hidden="true">
    <symbol id="advertising" viewBox="0 0 27 44" xmlns="http://www.w3.org/2000/svg">
        <path
            d="M10.7998 4.49996C11.2967 4.49996 11.6997 4.09661 11.6997 3.60005V0.899911C11.6997 0.403019 11.2964 0 10.7998 0C10.3029 0 9.89991 0.403349 9.89991 0.899911V3.60005C9.89991 4.09663 10.3033 4.49996 10.7998 4.49996ZM5.07281 6.34535C5.24891 6.52144 5.47868 6.60901 5.70907 6.60901C5.93947 6.60901 6.16956 6.52112 6.34534 6.34535C6.6969 5.99379 6.6969 5.42406 6.34534 5.07282L4.43591 3.16339C4.08435 2.81183 3.51462 2.81183 3.16338 3.16339C2.81182 3.51495 2.81182 4.08468 3.16338 4.43592L5.07281 6.34535ZM4.49996 10.7998C4.49996 10.3029 4.09661 9.89991 3.60005 9.89991H0.899911C0.403019 9.89991 0 10.3033 0 10.7998C0 11.2967 0.403348 11.6997 0.899911 11.6997H3.60005C4.09725 11.7 4.49996 11.2967 4.49996 10.7998ZM17.0998 10.7998C17.0998 11.2967 17.5032 11.6997 17.9998 11.6997H20.6999C21.1968 11.6997 21.5998 11.2964 21.5998 10.7998C21.5998 10.3029 21.1965 9.89991 20.6999 9.89991H17.9998C17.5029 9.89991 17.0998 10.3033 17.0998 10.7998ZM15.891 6.60907C16.1214 6.60907 16.3515 6.52118 16.5273 6.34541L18.4367 4.43598C18.7883 4.08442 18.7883 3.51469 18.4367 3.16346C18.0852 2.8119 17.5155 2.8119 17.1642 3.16346L15.2548 5.07289C14.9032 5.42444 14.9032 5.99417 15.2548 6.34541C15.4303 6.52088 15.6607 6.60907 15.891 6.60907Z" />
        <path fill-rule="evenodd" clip-rule="evenodd"
            d="M7.91335 25.9513C7.27928 25.6457 6.10637 24.3784 5.30725 23.6269C4.50981 22.8762 4.08758 22.6413 3.61778 22.5945C3.14793 22.5469 2.63218 22.6886 2.20966 22.8995C1.78657 23.1111 1.45813 23.3919 1.24662 23.6744C1.0365 23.9561 0.942413 24.2375 1.0365 24.7775C1.12915 25.318 1.41055 26.1154 2.13873 27.5241C2.86688 28.9328 4.03979 30.9507 5.35462 32.8994C6.66924 34.8472 8.12465 36.7251 8.92296 37.7823C9.72041 38.838 9.86178 39.0729 9.95535 39.8242C10.0494 40.5748 10.0962 41.843 10.1204 42.6418C10.1438 43.4392 10.1438 43.7674 12.2798 43.909C14.4161 44.0499 18.6883 44.0023 20.8709 43.9324C23.0536 43.8617 23.1477 43.7674 23.2187 43.3451C23.2888 42.9226 23.3362 42.1719 23.3596 41.4905C23.3829 40.81 23.3829 40.1999 23.5238 39.7069C23.6646 39.2137 23.9463 38.838 24.2285 38.5106L25.0967 37.5476C25.4018 37.1952 25.7308 36.7727 26.0122 36.0687C26.2938 35.3648 26.5279 34.3784 26.5995 32.6179C26.6687 30.8574 26.5761 28.3223 26.5054 26.7728C26.4352 25.2241 26.3879 24.6599 26.2237 24.1909C26.0586 23.7211 25.7772 23.3462 25.3313 23.1112C24.8848 22.8763 24.2742 22.7822 23.8052 22.8529C23.3362 22.9231 23.0072 23.1571 22.7962 23.5802C22.5847 24.0027 22.4906 24.6134 22.4438 25.0356C22.3962 25.4587 22.3962 25.6936 22.3039 25.857C22.2098 26.0212 22.0213 26.1153 21.9515 25.857C21.8808 25.5987 21.9281 24.9888 21.9281 24.285C21.9281 23.5802 21.8805 22.7819 21.7399 22.1721C21.5991 21.5614 21.3642 21.1383 21.0594 20.8809C20.7538 20.6226 20.378 20.5285 20.0023 20.4818C19.6274 20.435 19.2516 20.435 18.9465 20.5525C18.6409 20.6699 18.4066 20.904 18.2891 21.2555C18.1716 21.6079 18.1716 22.0778 18.124 22.5003C18.0773 22.9228 17.9832 23.2991 17.8891 23.5093C17.7964 23.7208 17.7024 23.7676 17.6559 23.2991C17.6083 22.8293 17.6083 21.8429 17.5384 21.0922C17.4677 20.3407 17.3269 19.8241 17.0686 19.4019C16.8103 18.9788 16.4345 18.6512 16.0354 18.4864C15.6371 18.3222 15.214 18.3222 14.8383 18.4864C14.4625 18.6515 14.1344 18.9788 13.9228 19.472C13.7113 19.9652 13.6172 20.6227 13.5245 20.9981C13.4305 21.373 13.3364 21.4671 13.3364 20.9981C13.3364 20.5291 13.4305 19.4951 13.4772 17.594C13.5248 15.6929 13.5248 12.9226 13.4305 11.3506C13.3364 9.77767 13.1488 9.40194 12.8674 9.04957C12.5849 8.69718 12.2094 8.3696 11.7868 8.1806C11.3652 7.99386 10.8953 7.94653 10.4962 8.06399C10.0962 8.1806 9.76801 8.46227 9.48721 8.838C9.2041 9.21462 8.96975 9.68362 8.85314 12.3838C8.73568 15.0823 8.73568 20.0123 8.68807 22.8061C8.64131 25.5987 8.54723 26.2562 7.91318 25.9511L7.91335 25.9513Z" />
    </symbol>
    <symbol id="e-commerce" viewBox="0 0 41 36" xmlns="http://www.w3.org/2000/svg">
        <path
            d="M1.40484 0.750453L1.43472 0.751361C1.46558 0.753571 1.49859 0.75847 1.53406 0.766576L1.53405 0.766607L1.5408 0.768084L5.47796 1.62989C5.47801 1.6299 5.47807 1.62991 5.47812 1.62992C5.72163 1.68334 5.91147 1.87484 5.96278 2.11882L5.96285 2.11918L6.71555 5.69015L6.84098 6.28519L7.44908 6.28546C18.0431 6.29029 28.6362 6.29094 39.2301 6.29062C39.6355 6.29077 39.9369 6.66616 39.8493 7.06221C39.8493 7.06225 39.8493 7.06229 39.8493 7.06233L36.783 20.9059C36.783 20.906 36.7829 20.9062 36.7829 20.9063C36.718 21.1969 36.4602 21.4033 36.1633 21.4031H36.1629H11.1196H10.1854L10.3874 22.3153L11.0003 25.0837L11.1305 25.6715H11.7326H34.9364V25.6716L34.9473 25.6714C35.2108 25.6676 35.3506 25.757 35.4323 25.848C35.5271 25.9533 35.5914 26.1169 35.5914 26.3063C35.5914 26.4958 35.5271 26.6593 35.4324 26.7646C35.3507 26.8555 35.2109 26.9449 34.9474 26.941L34.9475 26.9409H34.9364H10.6216H10.6212C10.3237 26.9411 10.0661 26.7344 10.0017 26.4441C9.5408 24.3636 9.07634 22.2853 8.61207 20.2078C7.35006 14.5606 6.08944 8.91961 4.90628 3.25931L4.80693 2.78401L4.3326 2.68013L1.27064 2.00953L1.27065 2.00944L1.25927 2.00713C0.497899 1.8527 0.627635 0.726834 1.40484 0.750453ZM13.4427 32.3076C13.4427 30.699 14.7762 29.3652 16.3847 29.3652C17.9932 29.3652 19.3267 30.699 19.3267 32.3076C19.3267 33.9163 17.9932 35.25 16.3847 35.25C14.7762 35.25 13.4427 33.9163 13.4427 32.3076ZM26.3649 32.3076C26.3649 30.699 27.6984 29.3652 29.3069 29.3652C30.9154 29.3652 32.249 30.699 32.249 32.3076C32.249 33.9163 30.9154 35.25 29.3069 35.25C27.6984 35.25 26.3649 33.9163 26.3649 32.3076Z"
            stroke-width="1.5" />
    </symbol>
    <symbol id="link" viewBox="0 0 39 36" xmlns="http://www.w3.org/2000/svg">
        <path
            d="M36.7493 1.21902C36.7493 0.964653 36.9527 0.756986 37.2057 0.750173H37.2183C37.4782 0.750173 37.6874 0.95994 37.6874 1.21827C37.6874 1.47749 37.4773 1.68752 37.2181 1.68752C37.1918 1.68752 37.163 1.68478 37.1284 1.67798L36.8448 1.62215L36.7697 1.3395C36.7531 1.27699 36.7493 1.24148 36.7493 1.21902ZM22.9702 15.6681L23.433 16.0093L23.7866 16.426C24.0889 16.7822 24.3393 17.1811 24.5271 17.6133L24.7428 18.1095L24.8437 18.6796C24.8927 18.9567 24.9212 19.2308 24.9212 19.506C24.9212 20.6195 24.5349 21.6429 23.8903 22.4582L23.5417 22.8989L23.1023 23.2464C22.2871 23.8911 21.2636 24.2773 20.1502 24.2773C18.8134 24.2773 17.6047 23.7229 16.7355 22.8303L16.3529 22.4375L16.0605 21.9495C15.63 21.2312 15.3795 20.398 15.3795 19.507C15.3795 18.6986 15.5829 17.9383 15.9393 17.2701L16.1929 16.7945L16.5788 16.3574C17.4564 15.3631 18.7313 14.7363 20.1509 14.7363C20.6008 14.7363 21.0377 14.8033 21.4571 14.9231L22.0018 15.0788L22.4842 15.3505C22.6487 15.4432 22.8095 15.5497 22.9702 15.6681ZM30.2977 16.9697L30.0594 16.5374L30.0195 16.038C30.0129 15.9562 30.0093 15.9002 30.0093 15.8488C30.0093 14.5636 31.0563 13.5165 32.3419 13.5165C33.6272 13.5165 34.6742 14.5633 34.6742 15.8488C34.6742 17.1345 33.6271 18.1815 32.3419 18.1815C31.4646 18.1815 30.6969 17.6938 30.2977 16.9697ZM6.26553 9.88323L5.89586 10.2308C5.47555 10.626 4.91617 10.8669 4.30182 10.8669C3.01659 10.8669 1.9695 9.81992 1.9695 8.53428C1.9695 7.249 3.01654 6.20196 4.30182 6.20196C5.58715 6.20196 6.63415 7.24874 6.63415 8.53428C6.63415 8.85169 6.56979 9.15399 6.45411 9.43123L6.26553 9.88323ZM26.1974 5.98309L25.7956 5.96907L25.4931 5.68765C25.2692 5.47943 25.134 5.19246 25.134 4.87703C25.134 4.26398 25.6337 3.76396 26.2474 3.76396C26.8604 3.76396 27.3604 4.26396 27.3604 4.87703C27.3604 5.47883 26.8792 5.97136 26.2822 5.98988C26.2821 5.98986 26.282 5.98985 26.2818 5.98983C26.2622 5.98741 26.2327 5.98432 26.1974 5.98309ZM6.75633 29.1392L7.15055 29.5174L7.40777 29.9806C7.69128 30.4912 7.85331 31.0755 7.85331 31.6983C7.85331 33.6562 6.25952 35.25 4.30165 35.25C2.34385 35.25 0.75 33.6557 0.75 31.6983C0.75 29.7401 2.34385 28.1464 4.30125 28.1467H4.30135C5.25187 28.1467 6.11513 28.5241 6.75633 29.1392ZM31.6052 31.652L31.8784 31.2316L32.2953 30.9613C32.6629 30.7231 33.0958 30.5847 33.5611 30.5847C34.8464 30.5847 35.8934 31.6317 35.8934 32.917C35.8934 34.2026 34.8463 35.2496 33.5611 35.2496C32.2755 35.2496 31.2285 34.2026 31.2285 32.917C31.2285 32.4519 31.3669 32.0187 31.6052 31.652Z"
            stroke-width="1.5" />
    </symbol>
    <symbol id="seo" viewBox="0 0 40 40" xmlns="http://www.w3.org/2000/svg">
        <path
            d="M29.1538 24.8332L29.1477 24.8268C29.1459 24.8249 29.1393 24.8188 29.1248 24.813C29.11 24.8069 29.0913 24.803 29.0716 24.803C29.0262 24.803 28.9979 24.8171 28.9754 24.8394C28.9753 24.8395 28.9752 24.8396 28.9751 24.8397L27.4804 26.3425L27.009 26.8165L26.5363 26.3438L24.9602 24.7677L24.5134 24.3209L24.9357 23.8508C26.1529 22.4958 27.1205 20.9162 27.7295 19.151L27.8844 18.7017H28.3597H33.9118C33.9835 18.7017 34.045 18.6402 34.045 18.5685C34.045 18.493 33.9879 18.4352 33.9117 18.4352L8.39932 18.4349C8.35411 18.4349 8.32313 18.4512 8.30279 18.4716C8.28244 18.4919 8.2661 18.5229 8.2661 18.5681C8.2661 18.6443 8.32389 18.7014 8.39933 18.7014H26.6559H27.6382L27.2755 19.6142C25.2397 24.7375 20.1799 28.2349 14.5837 28.2349C7.05527 28.2349 0.93284 22.1125 0.93284 14.5841C0.93284 7.05595 7.05561 0.933182 14.5837 0.933182C17.0227 0.933182 19.4197 1.58915 21.5059 2.81731L21.1677 3.39182L21.5036 2.81595C21.5716 2.85559 21.6523 2.83232 21.6893 2.77317C21.7319 2.69713 21.7022 2.62362 21.6478 2.59192L21.6443 2.58985C19.5161 1.33102 17.0734 0.666667 14.5837 0.666667C6.91165 0.666667 0.666667 6.91206 0.666667 14.5837C0.666667 22.2553 6.91243 28.5015 14.5845 28.5015C18.0693 28.5015 21.353 27.1669 23.853 24.9349L24.3229 24.5153L24.7684 24.9608L26.3444 26.5368L26.8146 27.007L26.3457 27.4784L24.8497 28.9824L24.8484 28.9837C24.7967 29.0354 24.7967 29.1172 24.8484 29.1689L24.377 29.6403L24.8484 29.1689L34.1203 38.4408C34.6992 39.0197 35.4575 39.3333 36.2726 39.3333C37.0891 39.3333 37.855 39.0186 38.4332 38.4408C38.4333 38.4407 38.4333 38.4407 38.4334 38.4407M29.1538 24.8332L38.9046 33.648C39.6084 34.3522 40.0005 35.28 40.0005 36.2801C40.0005 37.2722 39.6088 38.208 38.9046 38.9122L38.4334 38.4407M29.1538 24.8332L29.1602 24.8396L38.4331 34.1193L38.4331 34.1193C39.0142 34.7007 39.3339 35.4599 39.3339 36.2801C39.3339 37.0931 39.014 37.86 38.4334 38.4407M29.1538 24.8332L38.4334 38.4407"
            stroke-width="1.33333" />
        <path
            d="M23.2681 14.7605V14.7605C23.2681 14.8323 23.2067 14.8938 23.1349 14.8938H19.1749C19.0995 14.8938 19.0417 14.8367 19.0417 14.7605V6.14438C19.0417 6.06795 19.0996 6.01109 19.1747 6.01115H19.1752H23.1352C23.207 6.01115 23.2684 6.0726 23.2684 6.14436C23.2684 6.14436 23.2684 6.14437 23.2684 6.14438L23.2681 14.7605Z"
            stroke-width="1.33333" />
        <path
            d="M31.0686 14.7603V14.7603C31.0686 14.8364 31.0108 14.8935 30.9353 14.8935H26.9757C26.9039 14.8935 26.8424 14.8321 26.8424 14.7603V1.5438C26.8424 1.47202 26.9039 1.41056 26.9757 1.41056H30.9357C31.0111 1.41056 31.0689 1.46764 31.0689 1.54378C31.0689 1.54378 31.0689 1.54379 31.0689 1.5438L31.0686 14.7603Z"
            stroke-width="1.33333" />
        <path
            d="M11.2331 10.1122C11.2331 10.0404 11.2945 9.97892 11.3663 9.97892H15.3263C15.3981 9.97892 15.4595 10.0404 15.4595 10.1122V14.7603C15.4595 14.832 15.3981 14.8935 15.3263 14.8935H11.3663C11.2945 14.8935 11.2331 14.832 11.2331 14.7603V10.1122Z"
            stroke-width="1.33333" />
    </symbol>
    <symbol id="web" viewBox="0 0 38 34" xmlns="http://www.w3.org/2000/svg">
        <path
            d="M0.75 29.6499V7.73307H1.48804H35.9466H36.6851V29.6499C36.6851 31.6662 35.1634 33.25 33.1993 33.25H4.35009C2.36022 33.25 0.75 31.6396 0.75 29.6499ZM36.5402 3.33125C36.0943 1.91062 34.7485 0.852538 33.1992 0.852538H4.34995C2.74578 0.852538 1.38786 1.86928 0.915873 3.26571C1.37547 1.8066 2.73836 0.75 4.35009 0.75H33.1993C34.7321 0.75 36.1029 1.83193 36.5402 3.33125Z"
            stroke-width="1.5" />
        <path fill-rule="evenodd" clip-rule="evenodd"
            d="M9.38678 4.46462C9.38678 5.03368 8.92569 5.49506 8.35661 5.49506C7.78754 5.49506 7.32617 5.0337 7.32617 4.46462C7.32617 3.89554 7.78753 3.43445 8.35661 3.43445C8.92569 3.43445 9.38678 3.89554 9.38678 4.46462Z" />
        <path fill-rule="evenodd" clip-rule="evenodd"
            d="M5.95221 4.46462C5.95221 5.03368 5.49085 5.49506 4.92177 5.49506C4.35298 5.49506 3.8916 5.0337 3.8916 4.46462C3.8916 3.89554 4.35296 3.43445 4.92177 3.43445C5.49083 3.43445 5.95221 3.89554 5.95221 4.46462Z" />
        <path fill-rule="evenodd" clip-rule="evenodd"
            d="M12.9356 4.46462C12.9356 5.03368 12.4745 5.49506 11.9054 5.49506C11.3364 5.49506 10.875 5.0337 10.875 4.46462C10.875 3.89554 11.3364 3.43445 11.9054 3.43445C12.4745 3.43445 12.9356 3.89554 12.9356 4.46462Z" />
    </symbol>
    <symbol id="arrow" viewBox="0 0 40 13" xmlns="http://www.w3.org/2000/svg">
        <path d="M24.2632 2L37 12H24.2632V2Z" />
        <path d="M0 12H24.2632M24.2632 12H37L24.2632 2V12Z" stroke-width="1.5" />
    </symbol>
</svg>