<svg width="0" height="0" fill="none" style="visibility: hidden; position: absolute;" aria-hidden="true">
    <symbol id="retail" viewBox="0 0 30 30" fill="none" xmlns="http://www.w3.org/2000/svg">
        <g clip-path="url(#clip0_0_271__retail)">
            <path d="M28.4531 6.68438C28.1893 6.35339 27.8541 6.08623 27.4727 5.90281C27.0912 5.71938 26.6733 5.62442 26.25 5.625H20.625V7.65938C21.0201 7.80046 21.3788 8.02785 21.675 8.325C21.9365 8.58574 22.1439 8.89551 22.2855 9.23656C22.427 9.57762 22.4999 9.94324 22.4999 10.3125C22.4999 10.6818 22.427 11.0474 22.2855 11.3884C22.1439 11.7295 21.9365 12.0393 21.675 12.3L19.8 14.175C19.2662 14.6931 18.5517 14.9829 17.8078 14.9829C17.064 14.9829 16.3494 14.6931 15.8156 14.175L13.95 12.3C13.6885 12.0393 13.4811 11.7295 13.3395 11.3884C13.198 11.0474 13.1251 10.6818 13.1251 10.3125C13.1251 9.94324 13.198 9.57762 13.3395 9.23656C13.4811 8.89551 13.6885 8.58574 13.95 8.325C14.2462 8.02785 14.6049 7.80046 15 7.65938V5.625H7.47187L6.53437 1.65937C6.48593 1.45438 6.36986 1.27168 6.20489 1.14072C6.03991 1.00976 5.83564 0.938172 5.625 0.9375H1.875C1.62636 0.9375 1.3879 1.03627 1.21209 1.21209C1.03627 1.3879 0.9375 1.62636 0.9375 1.875C0.9375 2.12364 1.03627 2.3621 1.21209 2.53791C1.3879 2.71373 1.62636 2.8125 1.875 2.8125H4.88438L8.19375 16.9031C7.49448 16.9607 6.84236 17.2789 6.3666 17.7946C5.89084 18.3103 5.62616 18.9859 5.625 19.6875C5.63064 20.4317 5.92877 21.1438 6.455 21.67C6.98122 22.1962 7.69332 22.4944 8.4375 22.5H24.375C24.6236 22.5 24.8621 22.4012 25.0379 22.2254C25.2137 22.0496 25.3125 21.8111 25.3125 21.5625C25.3125 21.3139 25.2137 21.0754 25.0379 20.8996C24.8621 20.7238 24.6236 20.625 24.375 20.625H8.4375C8.1908 20.6188 7.95592 20.5181 7.78143 20.3436C7.60693 20.1691 7.50618 19.9342 7.5 19.6875C7.5 19.4389 7.59877 19.2004 7.77459 19.0246C7.9504 18.8488 8.18886 18.75 8.4375 18.75H24.3C24.9228 18.749 25.5276 18.5414 26.0196 18.1596C26.5116 17.7779 26.8631 17.2436 27.0187 16.6406L28.9875 9.10312V9.075C29.085 8.66205 29.0875 8.23237 28.995 7.81829C28.9024 7.40422 28.7171 7.01652 28.4531 6.68438Z" fill="#132431"/>
            <path d="M21.5616 29.0625C23.1149 29.0625 24.3741 27.8033 24.3741 26.25C24.3741 24.6967 23.1149 23.4375 21.5616 23.4375C20.0083 23.4375 18.7491 24.6967 18.7491 26.25C18.7491 27.8033 20.0083 29.0625 21.5616 29.0625Z" fill="#3DDBBF"/>
            <path d="M11.2491 29.0625C12.8024 29.0625 14.0616 27.8033 14.0616 26.25C14.0616 24.6967 12.8024 23.4375 11.2491 23.4375C9.69576 23.4375 8.43656 24.6967 8.43656 26.25C8.43656 27.8033 9.69576 29.0625 11.2491 29.0625Z" fill="#3DDBBF"/>
            <path d="M15.2747 10.9753L17.1497 12.8503C17.3275 13.023 17.5656 13.1197 17.8134 13.1197C18.0613 13.1197 18.2994 13.023 18.4772 12.8503L20.3522 10.9753C20.523 10.7985 20.6175 10.5617 20.6153 10.3159C20.6132 10.0701 20.5146 9.83493 20.3408 9.66111C20.1669 9.48729 19.9318 9.38869 19.686 9.38656C19.4402 9.38442 19.2034 9.47891 19.0266 9.64969L18.75 9.92438V4.6875C18.75 4.43886 18.6512 4.2004 18.4754 4.02459C18.2996 3.84877 18.0611 3.75 17.8125 3.75C17.5639 3.75 17.3254 3.84877 17.1496 4.02459C16.9738 4.2004 16.875 4.43886 16.875 4.6875V9.92438L16.6003 9.64969C16.4235 9.47891 16.1867 9.38442 15.9409 9.38656C15.6951 9.38869 15.4599 9.48729 15.2861 9.66111C15.1123 9.83493 15.0137 10.0701 15.0116 10.3159C15.0094 10.5617 15.1039 10.7985 15.2747 10.9753Z" fill="#3DDBBF"/>
        </g>
        <defs>
            <clipPath id="clip0_0_271__retail">
                <rect width="30" height="30" fill="white"/>
            </clipPath>
        </defs>
    </symbol>
    <symbol id="search" width="33" height="33" viewBox="0 0 33 33" fill="none" xmlns="http://www.w3.org/2000/svg">
        <path d="M13.6797 16.7578C13.6797 17.4698 14.2568 18.0469 14.9688 18.0469H18.0303C18.7422 18.0469 19.3193 17.4698 19.3193 16.7578V16.1133H13.6797V16.7578Z" fill="#132431"/>
        <path d="M26.8125 5.47852C26.2786 5.47852 25.8457 5.91138 25.8457 6.44531C25.8457 6.97924 26.2786 7.41211 26.8125 7.41211H28.7461C29.28 7.41211 29.7129 6.97924 29.7129 6.44531C29.7129 5.91138 29.28 5.47852 28.7461 5.47852H26.8125Z" fill="#132431"/>
        <path d="M25.3307 2.73915C25.5977 3.20153 26.189 3.35996 26.6514 3.09299L28.3259 2.1262C28.7883 1.85923 28.9467 1.26794 28.6798 0.805554C28.4128 0.343167 27.8215 0.184741 27.3591 0.451706L25.6846 1.4185C25.2222 1.68547 25.0638 2.27676 25.3307 2.73915Z" fill="#132431"/>
        <path d="M25.6846 11.4719L27.3591 12.4387C27.8215 12.7057 28.4128 12.5472 28.6798 12.0849C28.9467 11.6225 28.7883 11.0312 28.3259 10.7642L26.6514 9.79741C26.189 9.53044 25.5977 9.68887 25.3307 10.1513C25.0638 10.6136 25.2222 11.2049 25.6846 11.4719Z" fill="#132431"/>
        <path d="M4.25391 7.41211H6.1875C6.72143 7.41211 7.1543 6.97924 7.1543 6.44531C7.1543 5.91138 6.72143 5.47852 6.1875 5.47852H4.25391C3.71998 5.47852 3.28711 5.91138 3.28711 6.44531C3.28711 6.97924 3.71998 7.41211 4.25391 7.41211Z" fill="#132431"/>
        <path d="M4.67408 2.1262L6.34864 3.09299C6.81103 3.35996 7.40232 3.20153 7.66929 2.73915C7.93625 2.27676 7.77782 1.68547 7.31544 1.4185L5.64088 0.451706C5.17849 0.184741 4.5872 0.343167 4.32024 0.805554C4.05327 1.26794 4.2117 1.85923 4.67408 2.1262Z" fill="#132431"/>
        <path d="M6.34864 9.79741L4.67408 10.7642C4.2117 11.0312 4.05327 11.6225 4.32024 12.0849C4.5872 12.5472 5.17849 12.7057 5.64088 12.4387L7.31544 11.4719C7.77782 11.2049 7.93625 10.6136 7.66929 10.1513C7.40232 9.68887 6.81103 9.53044 6.34864 9.79741Z" fill="#132431"/>
        <path d="M12.4007 11.4136C13.1823 12.0581 13.6802 12.9819 13.6802 13.995V14.1797H15.5332V8.13482L13.8828 6.48444C13.5052 6.10687 13.5052 5.49476 13.8828 5.11719C14.2603 4.73962 14.8725 4.73962 15.2501 5.11719L16.5 6.36713L17.75 5.11719C18.1275 4.73962 18.7397 4.73962 19.1172 5.11719C19.4948 5.49476 19.4948 6.10687 19.1172 6.48444L17.4668 8.13482V14.1797H19.3198V13.9949C19.3198 12.9818 19.8177 12.058 20.5993 11.4136C22.0316 10.2327 22.9453 8.4469 22.9453 6.44531C22.9453 2.8857 20.0596 0 16.5 0C12.9404 0 10.0547 2.8857 10.0547 6.44531C10.0547 8.4469 10.9684 10.2327 12.4007 11.4136Z" fill="#3DDBBF"/>
        <path d="M26.877 23.8477C28.4788 23.8477 29.7773 22.5491 29.7773 20.9473C29.7773 19.3454 28.4788 18.0469 26.877 18.0469C25.2751 18.0469 23.9766 19.3454 23.9766 20.9473C23.9766 22.5491 25.2751 23.8477 26.877 23.8477Z" fill="#132431"/>
        <path d="M6.12305 23.8477C7.72489 23.8477 9.02344 22.5491 9.02344 20.9473C9.02344 19.3454 7.72489 18.0469 6.12305 18.0469C4.52121 18.0469 3.22266 19.3454 3.22266 20.9473C3.22266 22.5491 4.52121 23.8477 6.12305 23.8477Z" fill="#132431"/>
        <path d="M29.5023 25.003C28.7456 25.4945 27.8444 25.7812 26.877 25.7812C25.7911 25.7812 24.7878 25.4212 23.9799 24.8145H21.7852C21.536 24.8145 21.334 24.6125 21.334 24.3633V22.2363C21.334 20.9904 20.324 19.9805 19.0781 19.9805H17.4668V24.4277C17.4668 26.7771 19.3713 28.6816 21.7207 28.6816V32.0332C21.7207 32.5671 22.1536 33 22.6875 33H32.0332C32.5671 33 33 32.5671 33 32.0332V29.6484C33 27.4425 31.5218 25.5829 29.5023 25.003Z" fill="#132431"/>
        <path d="M11.666 22.2363V24.3633C11.666 24.6125 11.464 24.8145 11.2148 24.8145H9.02009C8.21217 25.4212 7.20895 25.7812 6.12305 25.7812C5.15561 25.7812 4.25436 25.4945 3.49774 25.003C1.47823 25.5829 0 27.4425 0 29.6484V32.0332C0 32.5671 0.432867 33 0.966797 33H10.3125C10.8464 33 11.2793 32.5671 11.2793 32.0332V28.6816C13.6287 28.6816 15.5332 26.7771 15.5332 24.4277V19.9805H13.9219C12.676 19.9805 11.666 20.9904 11.666 22.2363Z" fill="#132431"/>
    </symbol>
    <symbol id="technology-1" width="32" height="32" viewBox="0 0 32 32" fill="none" xmlns="http://www.w3.org/2000/svg">
        <g clip-path="url(#clip0_0_289__technology-1)">
            <path d="M0.893683 18.3128L2.98189 18.6551C3.31181 20.254 3.94319 21.7756 4.84229 23.1385L3.60566 24.8644C3.34908 25.2137 3.35349 25.6903 3.61653 26.0349C3.92834 26.416 4.25967 26.7808 4.60911 27.1277C4.96166 27.4809 5.32506 27.8063 5.69933 28.1209C6.04405 28.3844 6.52137 28.3888 6.87092 28.1317L8.59572 26.8945C9.95722 27.7941 11.4777 28.4259 13.0759 28.756L13.4176 30.8459C13.4827 31.2734 13.8238 31.6056 14.2529 31.6594C14.5501 31.6931 14.8495 31.7137 15.1554 31.7289C15.304 31.7361 15.4491 31.6825 15.5571 31.5803C15.6652 31.4782 15.727 31.3363 15.7282 31.1876V26.8409C15.7266 26.5479 15.4938 26.3084 15.201 26.2985C9.71985 26.0143 5.42139 21.4873 5.42139 15.9988C5.42139 10.5103 9.71985 5.98323 15.201 5.69909C15.4938 5.68917 15.7266 5.44975 15.7282 5.15668V0.813753C15.7274 0.665094 15.6661 0.523153 15.5582 0.42074C15.4504 0.318327 15.3055 0.264417 15.157 0.271346C14.8522 0.283997 14.5508 0.305361 14.2528 0.335335C13.8236 0.393812 13.4839 0.727402 13.4175 1.15543L13.0758 3.24527C11.4777 3.57581 9.95728 4.20772 8.59567 5.10729L6.87087 3.86956C6.52132 3.6124 6.044 3.61681 5.69928 3.88043C5.31918 4.19265 4.9553 4.52414 4.60906 4.87354C4.25699 5.21799 3.92555 5.58292 3.61648 5.96643C3.35233 6.31136 3.34793 6.78931 3.60561 7.13907L4.84223 8.86497C3.94335 10.2273 3.31197 11.7483 2.98184 13.3467L0.893631 13.6885C0.466026 13.7538 0.1338 14.0951 0.080047 14.5243C-0.026723 15.4977 -0.026723 16.4798 0.080047 17.4532C0.128288 17.8895 0.460619 18.2407 0.893683 18.3128Z" fill="#132431"/>
            <path d="M15.2095 7.88105C10.9245 8.15249 7.58798 11.707 7.58798 16.0006C7.58798 20.2942 10.9245 23.8487 15.2095 24.1202C15.3458 24.1258 15.4785 24.0753 15.5765 23.9803C15.6745 23.8854 15.7293 23.7544 15.728 23.6179V8.38329C15.7293 8.24681 15.6746 8.11585 15.5765 8.02089C15.4785 7.92593 15.3458 7.87538 15.2095 7.88105Z" fill="#3DDBBF"/>
            <path d="M19.5244 8.40716H16.8125V9.49192H19.5244C20.422 9.48924 21.1489 8.76233 21.1516 7.86475V4.51063C21.8987 4.24649 22.3469 3.48246 22.2129 2.70137C22.0789 1.92028 21.4017 1.34937 20.6092 1.34937C19.8167 1.34937 19.1394 1.92028 19.0054 2.70137C18.8714 3.48246 19.3196 4.24649 20.0668 4.51063V7.86475C20.0668 8.16433 19.8239 8.40716 19.5244 8.40716Z" fill="#132431"/>
            <path d="M16.8125 11.6615H22.2364C22.536 11.6615 22.7788 11.4186 22.7788 11.1191C22.7788 10.8195 22.536 10.5767 22.2364 10.5767H16.8125V11.6615Z" fill="#132431"/>
            <path d="M16.8125 23.594H19.5244C19.824 23.594 20.0668 23.8369 20.0668 24.1364V27.4906C19.3196 27.7547 18.8714 28.5187 19.0055 29.2998C19.1395 30.0809 19.8167 30.6518 20.6092 30.6518C21.4017 30.6518 22.079 30.0809 22.213 29.2998C22.347 28.5187 21.8988 27.7547 21.1516 27.4906V24.1364C21.1489 23.2389 20.422 22.512 19.5245 22.5093H16.8125V23.594H16.8125Z" fill="#132431"/>
            <path d="M24.9483 18.1702H16.8125V19.2549H24.9483C25.2479 19.2549 25.4907 19.4978 25.4907 19.7973V22.6091C24.7435 22.8732 24.2954 23.6373 24.4294 24.4184C24.5634 25.1995 25.2406 25.7704 26.0331 25.7704C26.8256 25.7704 27.5029 25.1995 27.6369 24.4184C27.7709 23.6373 27.3227 22.8732 26.5755 22.6091V19.7973C26.5728 18.8998 25.8459 18.1728 24.9483 18.1702Z" fill="#132431"/>
            <path d="M30.3722 14.3735C29.6851 14.3764 29.0739 14.8105 28.8448 15.4583H16.8125V16.5431H28.8448C29.122 17.3212 29.9389 17.7674 30.7434 17.5801C31.5479 17.3928 32.0838 16.6317 31.9888 15.8112C31.8938 14.9907 31.1982 14.3721 30.3722 14.3735Z" fill="#132431"/>
            <path d="M22.7788 20.882C22.7788 20.5824 22.536 20.3396 22.2364 20.3396H16.8125V21.4244H22.2364C22.536 21.4244 22.7788 21.1816 22.7788 20.882Z" fill="#132431"/>
            <path d="M26.5755 12.204V9.39222C27.3227 9.12808 27.7709 8.36405 27.6369 7.58296C27.5029 6.80187 26.8257 6.23096 26.0331 6.23096C25.2406 6.23096 24.5634 6.80187 24.4294 7.58296C24.2954 8.36405 24.7435 9.12808 25.4907 9.39222V12.204C25.4907 12.5036 25.2479 12.7464 24.9483 12.7464H16.8125V13.8312H24.9483C25.8459 13.8284 26.5729 13.1015 26.5755 12.204Z" fill="#132431"/>
        </g>
        <defs>
            <clipPath id="clip0_0_289__technology-1">
                <rect width="32" height="32" fill="white"/>
            </clipPath>
        </defs>
    </symbol>
    <symbol id="telent" width="32" height="32" viewBox="0 0 32 32" fill="none" xmlns="http://www.w3.org/2000/svg">
        <path fill-rule="evenodd" clip-rule="evenodd" d="M7.7 4.57101L8.33282 6.24929C8.34165 6.27353 8.35744 6.29459 8.37817 6.30979C8.39891 6.32498 8.42367 6.33363 8.44929 6.33464L10.2332 6.42389C10.2607 6.42374 10.2876 6.43241 10.3099 6.44865C10.3321 6.4649 10.3487 6.48786 10.3571 6.51422C10.3656 6.54058 10.3654 6.56896 10.3568 6.59524C10.3481 6.62152 10.3314 6.64434 10.3089 6.66039L8.91971 7.78488C8.89949 7.80085 8.88445 7.8225 8.8765 7.8471C8.86854 7.8717 8.86804 7.89812 8.87506 7.923L9.34288 9.65535C9.35163 9.68166 9.35182 9.71009 9.34341 9.73651C9.335 9.76293 9.31843 9.78595 9.29612 9.80223C9.27382 9.81852 9.24693 9.8272 9.21938 9.82703C9.19183 9.82687 9.16505 9.81785 9.14294 9.80129L7.65147 8.81817C7.63014 8.80375 7.60502 8.79604 7.57932 8.79604C7.55363 8.79604 7.52851 8.80375 7.50718 8.81817L6.01765 9.79934C5.99552 9.81562 5.96884 9.82441 5.94143 9.82445C5.91403 9.82448 5.88732 9.81575 5.86516 9.79952C5.843 9.78329 5.82652 9.7604 5.81811 9.73414C5.8097 9.70788 5.80978 9.67961 5.81835 9.6534L6.28359 7.92235C6.2906 7.89747 6.2901 7.87105 6.28215 7.84645C6.2742 7.82185 6.25916 7.80019 6.23894 7.78423L4.84906 6.65843C4.82742 6.64209 4.8114 6.61933 4.80327 6.59336C4.79514 6.56738 4.7953 6.53948 4.80372 6.5136C4.81215 6.48772 4.82842 6.46515 4.85025 6.44905C4.87207 6.43296 4.89836 6.42416 4.92541 6.42389L6.70612 6.33659C6.73186 6.33571 6.75675 6.32712 6.77762 6.31192C6.79848 6.29672 6.81436 6.27559 6.82323 6.25124L7.45606 4.57297C7.46441 4.54666 7.48085 4.5237 7.50301 4.50742C7.52517 4.49113 7.55189 4.48235 7.57932 4.48235C7.60676 4.48235 7.63348 4.49113 7.65564 4.50742C7.67779 4.5237 7.69423 4.54666 7.70259 4.57297L7.7 4.57101ZM23.5348 4.57101L24.1676 6.24929C24.1765 6.27363 24.1924 6.29476 24.2133 6.30997C24.2341 6.32517 24.259 6.33376 24.2848 6.33464L26.0681 6.42389C26.0956 6.4236 26.1226 6.43217 26.1449 6.44836C26.1673 6.46455 26.184 6.48751 26.1925 6.5139C26.201 6.5403 26.201 6.56874 26.1923 6.59508C26.1837 6.62143 26.1669 6.64431 26.1444 6.66039L24.7545 7.78488C24.7343 7.80085 24.7193 7.8225 24.7113 7.8471C24.7034 7.8717 24.7029 7.89812 24.7099 7.923L25.1777 9.65535C25.1863 9.68156 25.1864 9.70983 25.1779 9.73609C25.1695 9.76236 25.1531 9.78525 25.1309 9.80148C25.1087 9.81771 25.082 9.82644 25.0546 9.8264C25.0272 9.82637 25.0005 9.81757 24.9784 9.80129L23.4882 8.81622C23.4669 8.80179 23.4418 8.79409 23.4161 8.79409C23.3904 8.79409 23.3653 8.80179 23.3439 8.81622L21.8525 9.79934C21.8303 9.81562 21.8037 9.82441 21.7763 9.82445C21.7488 9.82448 21.7221 9.81575 21.7 9.79952C21.6778 9.78329 21.6613 9.7604 21.6529 9.73414C21.6445 9.70788 21.6446 9.67961 21.6532 9.6534L22.1184 7.92235C22.1254 7.89747 22.1249 7.87105 22.117 7.84645C22.109 7.82185 22.094 7.80019 22.0738 7.78423L20.6845 6.65843C20.6621 6.64239 20.6454 6.61957 20.6367 6.59328C20.628 6.567 20.6279 6.53862 20.6363 6.51226C20.6448 6.48591 20.6613 6.46294 20.6836 6.4467C20.7059 6.43046 20.7327 6.42178 20.7602 6.42194L22.5416 6.33464C22.5672 6.33363 22.592 6.32498 22.6127 6.30979C22.6334 6.29459 22.6492 6.27353 22.6581 6.24929L23.2941 4.57101C23.3025 4.5447 23.3189 4.52175 23.3411 4.50546C23.3632 4.48917 23.3899 4.48039 23.4174 4.48039C23.4448 4.48039 23.4715 4.48917 23.4937 4.50546C23.5159 4.52175 23.5323 4.5447 23.5406 4.57101H23.5348ZM15.6524 0.0906192L16.2858 1.76889C16.2945 1.79326 16.3103 1.81446 16.331 1.82978C16.3518 1.84509 16.3766 1.85384 16.4023 1.85489L18.1824 1.94219C18.2097 1.9421 18.2365 1.95075 18.2586 1.96691C18.2808 1.98306 18.2974 2.00589 18.3059 2.03211C18.3143 2.05833 18.3144 2.08658 18.3059 2.11281C18.2974 2.13903 18.2809 2.16187 18.2587 2.17804L16.8695 3.30254C16.8491 3.31854 16.834 3.34031 16.8261 3.36504C16.8181 3.38977 16.8177 3.41633 16.8248 3.44131L17.2926 5.17366C17.3012 5.19986 17.3013 5.22814 17.2929 5.2544C17.2845 5.28066 17.268 5.30355 17.2458 5.31978C17.2237 5.33601 17.197 5.34474 17.1696 5.3447C17.1422 5.34467 17.1155 5.33588 17.0934 5.31959L15.6012 4.33908C15.5799 4.32465 15.5548 4.31695 15.5291 4.31695C15.5034 4.31695 15.4783 4.32465 15.4569 4.33908L13.9687 5.32285C13.9466 5.33913 13.9199 5.34793 13.8925 5.34796C13.8651 5.34799 13.8384 5.33927 13.8162 5.32304C13.7941 5.30681 13.7776 5.28391 13.7692 5.25765C13.7608 5.23139 13.7608 5.20312 13.7694 5.17691L14.2353 3.44131C14.2424 3.41633 14.242 3.38977 14.2341 3.36504C14.2261 3.34031 14.211 3.31854 14.1906 3.30254L12.7995 2.17804C12.7772 2.16184 12.7607 2.13894 12.7522 2.11265C12.7438 2.08636 12.7438 2.05805 12.7524 2.0318C12.761 2.00555 12.7776 1.98272 12.7999 1.96661C12.8222 1.95051 12.849 1.94196 12.8765 1.94219L14.6578 1.85489C14.6835 1.85384 14.7083 1.84509 14.7291 1.82978C14.7498 1.81446 14.7656 1.79326 14.7743 1.76889L15.4071 0.0906192C15.4155 0.0643096 15.4319 0.0413538 15.4541 0.0250657C15.4762 0.00877762 15.5029 0 15.5304 0C15.5578 0 15.5845 0.00877762 15.6067 0.0250657C15.6288 0.0413538 15.6453 0.0643096 15.6536 0.0906192H15.6524ZM8.19888 16.3606C8.19888 18.3182 8.9712 20.1955 10.3459 21.5797C11.7207 22.9639 13.5852 23.7415 15.5294 23.7415C17.4736 23.7415 19.3381 22.9639 20.7129 21.5797C22.0876 20.1955 22.8599 18.3182 22.8599 16.3606H31.0588V18.4767L28.4855 19.4735C28.1587 20.8543 27.6154 22.1739 26.8762 23.3825L27.9963 25.9234L25.0244 28.9164L22.5008 27.7887C21.3007 28.5335 19.99 29.0805 18.6185 29.409L17.6285 32H13.4226L12.4319 29.4083C11.0605 29.0798 9.74991 28.533 8.54959 27.7887L6.02606 28.9164L3.06188 25.9208L4.18194 23.3799C3.44214 22.1716 2.89888 20.8519 2.57271 19.4709L0 18.4767V16.36L8.19888 16.3606Z" fill="#132431"/>
        <path fill-rule="evenodd" clip-rule="evenodd" d="M12.8091 20.7058H18.6018C19.7777 19.9918 20.6518 18.8698 21.0584 17.5523C20.4477 16.7002 19.6438 16.0061 18.713 15.5273C17.7822 15.0486 16.7514 14.7989 15.7055 14.7989C14.6596 14.7989 13.6287 15.0486 12.698 15.5273C11.7672 16.0061 10.9633 16.7002 10.3525 17.5523C10.7591 18.8699 11.6332 19.9919 12.8091 20.7058ZM15.7055 7.5293C16.365 7.5293 17.0096 7.72556 17.558 8.09327C18.1063 8.46097 18.5337 8.98361 18.786 9.59508C19.0384 10.2066 19.1044 10.8794 18.9758 11.5285C18.8471 12.1777 18.5296 12.774 18.0632 13.242C17.5969 13.71 17.0028 14.0287 16.356 14.1578C15.7092 14.2869 15.0387 14.2206 14.4295 13.9674C13.8202 13.7141 13.2994 13.2852 12.9331 12.7349C12.5667 12.1845 12.3711 11.5375 12.3711 10.8757C12.3711 9.98817 12.7224 9.137 13.3477 8.50943C13.973 7.88186 14.8212 7.5293 15.7055 7.5293Z" fill="#3DDBBF"/>
    </symbol>
</svg>