<svg width="102" height="102" viewBox="0 0 102 102" fill="none" xmlns="http://www.w3.org/2000/svg">
<g style="mix-blend-mode:multiply" opacity="0.1">
<path opacity="0.01" d="M74.7956 30.4396H56.0567C41.8634 30.4396 30.3574 41.9771 30.3574 56.2093V74.9997C30.3574 89.2319 41.8634 100.769 56.0567 100.769H74.7956C88.9889 100.769 100.495 89.2319 100.495 74.9997V56.2093C100.495 41.9771 88.9889 30.4396 74.7956 30.4396Z" fill="#FAFAFA"/>
<path opacity="0.01" d="M74.489 30.1323H55.75C41.5567 30.1323 30.0508 41.6698 30.0508 55.902V74.6924C30.0508 88.9247 41.5567 100.462 55.75 100.462H74.489C88.6823 100.462 100.188 88.9247 100.188 74.6924V55.902C100.188 41.6698 88.6823 30.1323 74.489 30.1323Z" fill="#F7F7F7"/>
<path opacity="0.02" d="M74.1824 29.825H55.4434C41.2501 29.825 29.7441 41.3624 29.7441 55.5947V74.3851C29.7441 88.6173 41.2501 100.155 55.4434 100.155H74.1824C88.3757 100.155 99.8816 88.6173 99.8816 74.3851V55.5947C99.8816 41.3624 88.3757 29.825 74.1824 29.825Z" fill="#F5F5F5"/>
<path opacity="0.02" d="M73.8758 29.5157H55.1367C40.9434 29.5157 29.4375 41.0532 29.4375 55.2855V74.0759C29.4375 88.3081 40.9434 99.8456 55.1367 99.8456H73.8758C88.0691 99.8456 99.575 88.3081 99.575 74.0759V55.2855C99.575 41.0532 88.0691 29.5157 73.8758 29.5157Z" fill="#F2F2F2"/>
<path opacity="0.03" d="M73.5691 29.2108H54.8301C40.6368 29.2108 29.1309 40.7483 29.1309 54.9805V73.7709C29.1309 88.0032 40.6368 99.5407 54.8301 99.5407H73.5691C87.7624 99.5407 99.2684 88.0032 99.2684 73.7709V54.9805C99.2684 40.7483 87.7624 29.2108 73.5691 29.2108Z" fill="#F0F0F0"/>
<path opacity="0.03" d="M73.2624 28.9031H54.5235C40.3302 28.9031 28.8242 40.4406 28.8242 54.6728V73.4632C28.8242 87.6954 40.3302 99.2329 54.5235 99.2329H73.2624C87.4557 99.2329 98.9617 87.6954 98.9617 73.4632V54.6728C98.9617 40.4406 87.4557 28.9031 73.2624 28.9031Z" fill="#EDEDED"/>
<path opacity="0.04" d="M72.9558 28.5952H54.2168C40.0235 28.5952 28.5176 40.1327 28.5176 54.3649V73.1553C28.5176 87.3876 40.0235 98.9251 54.2168 98.9251H72.9558C87.1491 98.9251 98.6551 87.3876 98.6551 73.1553V54.3649C98.6551 40.1327 87.1491 28.5952 72.9558 28.5952Z" fill="#EBEBEB"/>
<path opacity="0.04" d="M72.6492 28.288H53.9102C39.7169 28.288 28.2109 39.8255 28.2109 54.0577V72.8481C28.2109 87.0803 39.7169 98.6178 53.9102 98.6178H72.6492C86.8425 98.6178 98.3484 87.0803 98.3484 72.8481V54.0577C98.3484 39.8255 86.8425 28.288 72.6492 28.288Z" fill="#E8E8E8"/>
<path opacity="0.05" d="M72.3406 27.9802H53.6016C39.4083 27.9802 27.9023 39.5177 27.9023 53.75V72.5403C27.9023 86.7726 39.4083 98.3101 53.6016 98.3101H72.3406C86.5339 98.3101 98.0398 86.7726 98.0398 72.5403V53.75C98.0398 39.5177 86.5339 27.9802 72.3406 27.9802Z" fill="#E6E6E6"/>
<path opacity="0.05" d="M72.0359 27.6733H53.2969C39.1036 27.6733 27.5977 39.2108 27.5977 53.4431V72.2335C27.5977 86.4657 39.1036 98.0032 53.2969 98.0032H72.0359C86.2292 98.0032 97.7352 86.4657 97.7352 72.2335V53.4431C97.7352 39.2108 86.2292 27.6733 72.0359 27.6733Z" fill="#E3E3E3"/>
<path opacity="0.06" d="M71.7293 27.3646H52.9903C38.797 27.3646 27.291 38.9021 27.291 53.1343V71.9247C27.291 86.157 38.797 97.6945 52.9903 97.6945H71.7293C85.9226 97.6945 97.4285 86.157 97.4285 71.9247V53.1343C97.4285 38.9021 85.9226 27.3646 71.7293 27.3646Z" fill="#E1E1E1"/>
<path opacity="0.06" d="M71.4226 27.0582H52.6836C38.4903 27.0582 26.9844 38.5957 26.9844 52.828V71.6183C26.9844 85.8506 38.4903 97.3881 52.6836 97.3881H71.4226C85.6159 97.3881 97.1218 85.8506 97.1218 71.6183V52.828C97.1218 38.5957 85.6159 27.0582 71.4226 27.0582Z" fill="#DEDEDE"/>
<path opacity="0.07" d="M71.114 26.7513H52.375C38.1817 26.7513 26.6758 38.2888 26.6758 52.5211V71.3115C26.6758 85.5437 38.1817 97.0812 52.375 97.0812H71.114C85.3073 97.0812 96.8133 85.5437 96.8133 71.3115V52.5211C96.8133 38.2888 85.3073 26.7513 71.114 26.7513Z" fill="#DCDCDC"/>
<path opacity="0.07" d="M70.8113 26.4417H52.0723C37.879 26.4417 26.373 37.9791 26.373 52.2114V71.0018C26.373 85.234 37.879 96.7715 52.0723 96.7715H70.8113C85.0046 96.7715 96.5105 85.234 96.5105 71.0018V52.2114C96.5105 37.9791 85.0046 26.4417 70.8113 26.4417Z" fill="#D9D9D9"/>
<path opacity="0.08" d="M70.5027 26.1359H51.7637C37.5704 26.1359 26.0645 37.6734 26.0645 51.9056V70.696C26.0645 84.9282 37.5704 96.4657 51.7637 96.4657H70.5027C84.696 96.4657 96.202 84.9282 96.202 70.696V51.9056C96.202 37.6734 84.696 26.1359 70.5027 26.1359Z" fill="#D7D7D7"/>
<path opacity="0.08" d="M70.1961 25.8285H51.4571C37.2638 25.8285 25.7578 37.366 25.7578 51.5982V70.3886C25.7578 84.6208 37.2638 96.1583 51.4571 96.1583H70.1961C84.3894 96.1583 95.8953 84.6208 95.8953 70.3886V51.5982C95.8953 37.366 84.3894 25.8285 70.1961 25.8285Z" fill="#D4D4D4"/>
<path opacity="0.09" d="M69.8894 25.5198H51.1504C36.9571 25.5198 25.4512 37.0573 25.4512 51.2895V70.0799C25.4512 84.3121 36.9571 95.8496 51.1504 95.8496H69.8894C84.0827 95.8496 95.5886 84.3121 95.5886 70.0799V51.2895C95.5886 37.0573 84.0827 25.5198 69.8894 25.5198Z" fill="#D2D2D2"/>
<path opacity="0.09" d="M69.5847 25.2129H50.8457C36.6524 25.2129 25.1465 36.7504 25.1465 50.9826V69.773C25.1465 84.0052 36.6524 95.5427 50.8457 95.5427H69.5847C83.778 95.5427 95.284 84.0052 95.284 69.773V50.9826C95.284 36.7504 83.778 25.2129 69.5847 25.2129Z" fill="#CFCFCF"/>
<path opacity="0.1" d="M69.2761 24.9061H50.5371C36.3438 24.9061 24.8379 36.4436 24.8379 50.6759V69.4662C24.8379 83.6985 36.3438 95.236 50.5371 95.236H69.2761C83.4694 95.236 94.9754 83.6985 94.9754 69.4662V50.6759C94.9754 36.4436 83.4694 24.9061 69.2761 24.9061Z" fill="#CDCDCD"/>
<path opacity="0.1" d="M68.9695 24.5978H50.2305C36.0372 24.5978 24.5312 36.1353 24.5312 50.3675V69.1579C24.5312 83.3901 36.0372 94.9276 50.2305 94.9276H68.9695C83.1628 94.9276 94.6687 83.3901 94.6687 69.1579V50.3675C94.6687 36.1353 83.1628 24.5978 68.9695 24.5978Z" fill="#CACACA"/>
<path opacity="0.11" d="M68.6648 24.2886H49.9258C35.7325 24.2886 24.2266 35.8261 24.2266 50.0583V68.8487C24.2266 83.0809 35.7325 94.6184 49.9258 94.6184H68.6648C82.8581 94.6184 94.3641 83.0809 94.3641 68.8487V50.0583C94.3641 35.8261 82.8581 24.2886 68.6648 24.2886Z" fill="#C7C7C7"/>
<path opacity="0.11" d="M68.3562 23.9836H49.6172C35.4239 23.9836 23.918 35.5211 23.918 49.7534V68.5438C23.918 82.776 35.4239 94.3135 49.6172 94.3135H68.3562C82.5495 94.3135 94.0555 82.776 94.0555 68.5438V49.7534C94.0555 35.5211 82.5495 23.9836 68.3562 23.9836Z" fill="#C5C5C5"/>
<path opacity="0.12" d="M68.0496 23.6769H49.3106C35.1173 23.6769 23.6113 35.2144 23.6113 49.4466V68.237C23.6113 82.4692 35.1173 94.0067 49.3106 94.0067H68.0496C82.2429 94.0067 93.7488 82.4692 93.7488 68.237V49.4466C93.7488 35.2144 82.2429 23.6769 68.0496 23.6769Z" fill="#C2C2C2"/>
<path opacity="0.12" d="M67.7429 23.3672H49.0039C34.8106 23.3672 23.3047 34.9047 23.3047 49.1369V67.9273C23.3047 82.1595 34.8106 93.697 49.0039 93.697H67.7429C81.9362 93.697 93.4422 82.1595 93.4422 67.9273V49.1369C93.4422 34.9047 81.9362 23.3672 67.7429 23.3672Z" fill="#C0C0C0"/>
<path opacity="0.13" d="M67.4363 23.0613H48.6973C34.504 23.0613 22.998 34.5988 22.998 48.831V67.6214C22.998 81.8536 34.504 93.3911 48.6973 93.3911H67.4363C81.6296 93.3911 93.1355 81.8536 93.1355 67.6214V48.831C93.1355 34.5988 81.6296 23.0613 67.4363 23.0613Z" fill="#BDBDBD"/>
<path opacity="0.13" d="M67.1297 22.7534H48.3906C34.1973 22.7534 22.6914 34.2909 22.6914 48.5231V67.3135C22.6914 81.5458 34.1973 93.0833 48.3906 93.0833H67.1297C81.323 93.0833 92.8289 81.5458 92.8289 67.3135V48.5231C92.8289 34.2909 81.323 22.7534 67.1297 22.7534Z" fill="#BBBBBB"/>
<path opacity="0.14" d="M66.823 22.4457H48.084C33.8907 22.4457 22.3848 33.9832 22.3848 48.2154V67.0058C22.3848 81.238 33.8907 92.7755 48.084 92.7755H66.823C81.0163 92.7755 92.5223 81.238 92.5223 67.0058V48.2154C92.5223 33.9832 81.0163 22.4457 66.823 22.4457Z" fill="#B8B8B8"/>
<path opacity="0.14" d="M66.5183 22.137H47.7793C33.586 22.137 22.0801 33.6745 22.0801 47.9067V66.6971C22.0801 80.9293 33.586 92.4668 47.7793 92.4668H66.5183C80.7116 92.4668 92.2176 80.9293 92.2176 66.6971V47.9067C92.2176 33.6745 80.7116 22.137 66.5183 22.137Z" fill="#B6B6B6"/>
<path opacity="0.15" d="M66.2097 21.8311H47.4707C33.2774 21.8311 21.7715 33.3686 21.7715 47.6008V66.3912C21.7715 80.6234 33.2774 92.1609 47.4707 92.1609H66.2097C80.403 92.1609 91.909 80.6234 91.909 66.3912V47.6008C91.909 33.3686 80.403 21.8311 66.2097 21.8311Z" fill="#B3B3B3"/>
<path opacity="0.15" d="M65.9011 21.5242H47.1621C32.9688 21.5242 21.4629 33.0617 21.4629 47.2939V66.0843C21.4629 80.3165 32.9688 91.854 47.1621 91.854H65.9011C80.0944 91.854 91.6004 80.3165 91.6004 66.0843V47.2939C91.6004 33.0617 80.0944 21.5242 65.9011 21.5242Z" fill="#B1B1B1"/>
<path opacity="0.16" d="M65.5965 21.2146H46.8574C32.6641 21.2146 21.1582 32.7521 21.1582 46.9843V65.7747C21.1582 80.0069 32.6641 91.5444 46.8574 91.5444H65.5965C79.7898 91.5444 91.2957 80.0069 91.2957 65.7747V46.9843C91.2957 32.7521 79.7898 21.2146 65.5965 21.2146Z" fill="#AEAEAE"/>
<path opacity="0.16" d="M65.2898 20.9095H46.5508C32.3575 20.9095 20.8516 32.447 20.8516 46.6793V65.4697C20.8516 79.7019 32.3575 91.2394 46.5508 91.2394H65.2898C79.4831 91.2394 90.9891 79.7019 90.9891 65.4697V46.6793C90.9891 32.447 79.4831 20.9095 65.2898 20.9095Z" fill="#ACACAC"/>
<path opacity="0.17" d="M64.9832 20.6003H46.2442C32.0509 20.6003 20.5449 32.1378 20.5449 46.3701V65.1605C20.5449 79.3927 32.0509 90.9302 46.2442 90.9302H64.9832C79.1765 90.9302 90.6824 79.3927 90.6824 65.1605V46.3701C90.6824 32.1378 79.1765 20.6003 64.9832 20.6003Z" fill="#A9A9A9"/>
<path opacity="0.17" d="M64.6746 20.2936H45.9356C31.7423 20.2936 20.2363 31.8311 20.2363 46.0633V64.8537C20.2363 79.0859 31.7423 90.6234 45.9356 90.6234H64.6746C78.8679 90.6234 90.3738 79.0859 90.3738 64.8537V46.0633C90.3738 31.8311 78.8679 20.2936 64.6746 20.2936Z" fill="#A7A7A7"/>
<path opacity="0.18" d="M64.3718 19.9844H45.6328C31.4395 19.9844 19.9336 31.5219 19.9336 45.7541V64.5445C19.9336 78.7767 31.4395 90.3142 45.6328 90.3142H64.3718C78.5651 90.3142 90.0711 78.7767 90.0711 64.5445V45.7541C90.0711 31.5219 78.5651 19.9844 64.3718 19.9844Z" fill="#A4A4A4"/>
<path opacity="0.18" d="M64.0633 19.679H45.3242C31.1309 19.679 19.625 31.2165 19.625 45.4487V64.2391C19.625 78.4713 31.1309 90.0088 45.3242 90.0088H64.0633C78.2566 90.0088 89.7625 78.4713 89.7625 64.2391V45.4487C89.7625 31.2165 78.2566 19.679 64.0633 19.679Z" fill="#A2A2A2"/>
<path opacity="0.19" d="M63.7566 19.3702H45.0176C30.8243 19.3702 19.3184 30.9077 19.3184 45.14V63.9304C19.3184 78.1626 30.8243 89.7001 45.0176 89.7001H63.7566C77.9499 89.7001 89.4559 78.1626 89.4559 63.9304V45.14C89.4559 30.9077 77.9499 19.3702 63.7566 19.3702Z" fill="#9F9F9F"/>
<path opacity="0.19" d="M63.45 19.0624H44.711C30.5177 19.0624 19.0117 30.5999 19.0117 44.8321V63.6225C19.0117 77.8547 30.5177 89.3922 44.711 89.3922H63.45C77.6433 89.3922 89.1492 77.8547 89.1492 63.6225V44.8321C89.1492 30.5999 77.6433 19.0624 63.45 19.0624Z" fill="#9D9D9D"/>
<path opacity="0.2" d="M63.1433 18.7556H44.4043C30.211 18.7556 18.7051 30.2931 18.7051 44.5253V63.3157C18.7051 77.548 30.211 89.0855 44.4043 89.0855H63.1433C77.3366 89.0855 88.8426 77.548 88.8426 63.3157V44.5253C88.8426 30.2931 77.3366 18.7556 63.1433 18.7556Z" fill="#9A9A9A"/>
<path opacity="0.2" d="M62.8367 18.4487H44.0977C29.9044 18.4487 18.3984 29.9862 18.3984 44.2185V63.0089C18.3984 77.2411 29.9044 88.7786 44.0977 88.7786H62.8367C77.03 88.7786 88.5359 77.2411 88.5359 63.0089V44.2185C88.5359 29.9862 77.03 18.4487 62.8367 18.4487Z" fill="#979797"/>
<path opacity="0.21" d="M62.53 18.141H43.791C29.5977 18.141 18.0918 29.6785 18.0918 43.9107V62.7011C18.0918 76.9333 29.5977 88.4708 43.791 88.4708H62.53C76.7233 88.4708 88.2293 76.9333 88.2293 62.7011V43.9107C88.2293 29.6785 76.7233 18.141 62.53 18.141Z" fill="#959595"/>
<path opacity="0.21" d="M62.2215 17.8351H43.4824C29.2891 17.8351 17.7832 29.3726 17.7832 43.6048V62.3952C17.7832 76.6274 29.2891 88.1649 43.4824 88.1649H62.2215C76.4148 88.1649 87.9207 76.6274 87.9207 62.3952V43.6048C87.9207 29.3726 76.4148 17.8351 62.2215 17.8351Z" fill="#929292"/>
<path opacity="0.22" d="M61.9148 17.5259H43.1758C28.9825 17.5259 17.4766 29.0634 17.4766 43.2956V62.086C17.4766 76.3182 28.9825 87.8557 43.1758 87.8557H61.9148C76.1081 87.8557 87.6141 76.3182 87.6141 62.086V43.2956C87.6141 29.0634 76.1081 17.5259 61.9148 17.5259Z" fill="#909090"/>
<path opacity="0.22" d="M61.6082 17.2185H42.8692C28.6759 17.2185 17.1699 28.756 17.1699 42.9882V61.7786C17.1699 76.0109 28.6759 87.5483 42.8692 87.5483H61.6082C75.8015 87.5483 87.3074 76.0109 87.3074 61.7786V42.9882C87.3074 28.756 75.8015 17.2185 61.6082 17.2185Z" fill="#8D8D8D"/>
<path opacity="0.23" d="M61.3035 16.9098H42.5645C28.3712 16.9098 16.8652 28.4473 16.8652 42.6795V61.4699C16.8652 75.7021 28.3712 87.2396 42.5645 87.2396H61.3035C75.4968 87.2396 87.0027 75.7021 87.0027 61.4699V42.6795C87.0027 28.4473 75.4968 16.9098 61.3035 16.9098Z" fill="#8B8B8B"/>
<path opacity="0.23" d="M60.9968 16.6034H42.2578C28.0645 16.6034 16.5586 28.1409 16.5586 42.3731V61.1635C16.5586 75.3957 28.0645 86.9332 42.2578 86.9332H60.9968C75.1901 86.9332 86.6961 75.3957 86.6961 61.1635V42.3731C86.6961 28.1409 75.1901 16.6034 60.9968 16.6034Z" fill="#888888"/>
<path opacity="0.24" d="M60.6902 16.2975H41.9512C27.7579 16.2975 16.252 27.835 16.252 42.0672V60.8576C16.252 75.0898 27.7579 86.6273 41.9512 86.6273H60.6902C74.8835 86.6273 86.3895 75.0898 86.3895 60.8576V42.0672C86.3895 27.835 74.8835 16.2975 60.6902 16.2975Z" fill="#868686"/>
<path opacity="0.24" d="M60.3836 15.9874H41.6446C27.4513 15.9874 15.9453 27.5249 15.9453 41.7572V60.5475C15.9453 74.7798 27.4513 86.3173 41.6446 86.3173H60.3836C74.5769 86.3173 86.0828 74.7798 86.0828 60.5475V41.7572C86.0828 27.5249 74.5769 15.9874 60.3836 15.9874Z" fill="#838383"/>
<path opacity="0.25" d="M60.0769 15.6815H41.3379C27.1446 15.6815 15.6387 27.219 15.6387 41.4512V60.2416C15.6387 74.4739 27.1446 86.0114 41.3379 86.0114H60.0769C74.2702 86.0114 85.7762 74.4739 85.7762 60.2416V41.4512C85.7762 27.219 74.2702 15.6815 60.0769 15.6815Z" fill="#818181"/>
<path opacity="0.25" d="M59.7683 15.3746H41.0293C26.836 15.3746 15.3301 26.9121 15.3301 41.1444V59.9347C15.3301 74.167 26.836 85.7045 41.0293 85.7045H59.7683C73.9616 85.7045 85.4676 74.167 85.4676 59.9347V41.1444C85.4676 26.9121 73.9616 15.3746 59.7683 15.3746Z" fill="#7E7E7E"/>
<path opacity="0.26" d="M59.4656 15.0654H40.7266C26.5333 15.0654 15.0273 26.6029 15.0273 40.8352V59.6255C15.0273 73.8578 26.5333 85.3953 40.7266 85.3953H59.4656C73.6589 85.3953 85.1648 73.8578 85.1648 59.6255V40.8352C85.1648 26.6029 73.6589 15.0654 59.4656 15.0654Z" fill="#7C7C7C"/>
<path opacity="0.26" d="M59.157 14.76H40.418C26.2247 14.76 14.7188 26.2975 14.7188 40.5297V59.3201C14.7188 73.5524 26.2247 85.0899 40.418 85.0899H59.157C73.3503 85.0899 84.8562 73.5524 84.8562 59.3201V40.5297C84.8562 26.2975 73.3503 14.76 59.157 14.76Z" fill="#797979"/>
<path opacity="0.27" d="M58.8504 14.4518H40.1114C25.9181 14.4518 14.4121 25.9893 14.4121 40.2215V59.0119C14.4121 73.2441 25.9181 84.7816 40.1114 84.7816H58.8504C73.0437 84.7816 84.5496 73.2441 84.5496 59.0119V40.2215C84.5496 25.9893 73.0437 14.4518 58.8504 14.4518Z" fill="#777777"/>
<path opacity="0.27" d="M58.5418 14.1439H39.8028C25.6095 14.1439 14.1035 25.6814 14.1035 39.9136V58.704C14.1035 72.9363 25.6095 84.4738 39.8028 84.4738H58.5418C72.7351 84.4738 84.241 72.9363 84.241 58.704V39.9136C84.241 25.6814 72.7351 14.1439 58.5418 14.1439Z" fill="#747474"/>
<path opacity="0.28" d="M58.239 13.8339H39.5C25.3067 13.8339 13.8008 25.3714 13.8008 39.6036V58.394C13.8008 72.6262 25.3067 84.1637 39.5 84.1637H58.239C72.4323 84.1637 83.9383 72.6262 83.9383 58.394V39.6036C83.9383 25.3714 72.4323 13.8339 58.239 13.8339Z" fill="#727272"/>
<path opacity="0.28" d="M57.9304 13.5298H39.1915C24.9981 13.5298 13.4922 25.0673 13.4922 39.2995V58.0899C13.4922 72.3221 24.9981 83.8596 39.1915 83.8596H57.9304C72.1237 83.8596 83.6297 72.3221 83.6297 58.0899V39.2995C83.6297 25.0673 72.1237 13.5298 57.9304 13.5298Z" fill="#6F6F6F"/>
<path opacity="0.29" d="M57.6238 13.2216H38.8848C24.6915 13.2216 13.1855 24.7591 13.1855 38.9913V57.7817C13.1855 72.0139 24.6915 83.5514 38.8848 83.5514H57.6238C71.8171 83.5514 83.323 72.0139 83.323 57.7817V38.9913C83.323 24.7591 71.8171 13.2216 57.6238 13.2216Z" fill="#6D6D6D"/>
<path opacity="0.29" d="M57.3171 12.9138H38.5781C24.3848 12.9138 12.8789 24.4513 12.8789 38.6835V57.4739C12.8789 71.7062 24.3848 83.2437 38.5781 83.2437H57.3171C71.5104 83.2437 83.0164 71.7062 83.0164 57.4739V38.6835C83.0164 24.4513 71.5104 12.9138 57.3171 12.9138Z" fill="#6A6A6A"/>
<path opacity="0.3" d="M57.0105 12.6074H38.2715C24.0782 12.6074 12.5723 24.1449 12.5723 38.3771V57.1675C12.5723 71.3998 24.0782 82.9373 38.2715 82.9373H57.0105C71.2038 82.9373 82.7098 71.3998 82.7098 57.1675V38.3771C82.7098 24.1449 71.2038 12.6074 57.0105 12.6074Z" fill="#686868"/>
<path opacity="0.3" d="M56.7039 12.2987H37.9649C23.7716 12.2987 12.2656 23.8362 12.2656 38.0684V56.8588C12.2656 71.0911 23.7716 82.6285 37.9649 82.6285H56.7039C70.8972 82.6285 82.4031 71.0911 82.4031 56.8588V38.0684C82.4031 23.8362 70.8972 12.2987 56.7039 12.2987Z" fill="#656565"/>
<path opacity="0.31" d="M56.3992 11.9913H37.6602C23.4669 11.9913 11.9609 23.5288 11.9609 37.7611V56.5515C11.9609 70.7837 23.4669 82.3212 37.6602 82.3212H56.3992C70.5925 82.3212 82.0984 70.7837 82.0984 56.5515V37.7611C82.0984 23.5288 70.5925 11.9913 56.3992 11.9913Z" fill="#626262"/>
<path opacity="0.31" d="M56.0906 11.6841H37.3516C23.1583 11.6841 11.6523 23.2216 11.6523 37.4538V56.2442C11.6523 70.4764 23.1583 82.0139 37.3516 82.0139H56.0906C70.2839 82.0139 81.7898 70.4764 81.7898 56.2442V37.4538C81.7898 23.2216 70.2839 11.6841 56.0906 11.6841Z" fill="#606060"/>
<path opacity="0.32" d="M55.782 11.3772H37.043C22.8497 11.3772 11.3438 22.9147 11.3438 37.1469V55.9373C11.3438 70.1695 22.8497 81.707 37.043 81.707H55.782C69.9753 81.707 81.4812 70.1695 81.4812 55.9373V37.1469C81.4812 22.9147 69.9753 11.3772 55.782 11.3772Z" fill="#5D5D5D"/>
<path opacity="0.32" d="M55.4773 11.0695H36.7383C22.545 11.0695 11.0391 22.607 11.0391 36.8392V55.6296C11.0391 69.8618 22.545 81.3993 36.7383 81.3993H55.4773C69.6706 81.3993 81.1766 69.8618 81.1766 55.6296V36.8392C81.1766 22.607 69.6706 11.0695 55.4773 11.0695Z" fill="#5B5B5B"/>
<path opacity="0.33" d="M55.1726 10.7603H36.4336C22.2403 10.7603 10.7344 22.2978 10.7344 36.53V55.3204C10.7344 69.5526 22.2403 81.0901 36.4336 81.0901H55.1726C69.3659 81.0901 80.8719 69.5526 80.8719 55.3204V36.53C80.8719 22.2978 69.3659 10.7603 55.1726 10.7603Z" fill="#585858"/>
<path opacity="0.33" d="M54.864 10.4548H36.125C21.9317 10.4548 10.4258 21.9923 10.4258 36.2246V55.015C10.4258 69.2472 21.9317 80.7847 36.125 80.7847H54.864C69.0573 80.7847 80.5633 69.2472 80.5633 55.015V36.2246C80.5633 21.9923 69.0573 10.4548 54.864 10.4548Z" fill="#565656"/>
<path opacity="0.34" d="M54.5574 10.147H35.8184C21.6251 10.147 10.1191 21.6845 10.1191 35.9167V54.7071C10.1191 68.9393 21.6251 80.4768 35.8184 80.4768H54.5574C68.7507 80.4768 80.2566 68.9393 80.2566 54.7071V35.9167C80.2566 21.6845 68.7507 10.147 54.5574 10.147Z" fill="#535353"/>
<path opacity="0.34" d="M54.2527 9.83875H35.5137C21.3204 9.83875 9.81445 21.3762 9.81445 35.6085V54.3989C9.81445 68.6311 21.3204 80.1686 35.5137 80.1686H54.2527C68.446 80.1686 79.9519 68.6311 79.9519 54.3989V35.6085C79.9519 21.3762 68.446 9.83875 54.2527 9.83875Z" fill="#515151"/>
<path opacity="0.35" d="M53.9441 9.53284H35.2051C21.0118 9.53284 9.50586 21.0703 9.50586 35.3026V54.093C9.50586 68.3252 21.0118 79.8627 35.2051 79.8627H53.9441C68.1374 79.8627 79.6433 68.3252 79.6433 54.093V35.3026C79.6433 21.0703 68.1374 9.53284 53.9441 9.53284Z" fill="#4E4E4E"/>
<path opacity="0.35" d="M53.6375 9.22461H34.8985C20.7052 9.22461 9.19922 20.7621 9.19922 34.9943V53.7847C9.19922 68.0169 20.7052 79.5545 34.8985 79.5545H53.6375C67.8308 79.5545 79.3367 68.0169 79.3367 53.7847V34.9943C79.3367 20.7621 67.8308 9.22461 53.6375 9.22461Z" fill="#4C4C4C"/>
<path opacity="0.36" d="M53.3328 8.91638H34.5938C20.4005 8.91638 8.89453 20.4539 8.89453 34.6861V53.4765C8.89453 67.7087 20.4005 79.2462 34.5938 79.2462H53.3328C67.5261 79.2462 79.032 67.7087 79.032 53.4765V34.6861C79.032 20.4539 67.5261 8.91638 53.3328 8.91638Z" fill="#494949"/>
<path opacity="0.36" d="M53.0242 8.60999H34.2852C20.0919 8.60999 8.58594 20.1475 8.58594 34.3797V53.1701C8.58594 67.4023 20.0919 78.9398 34.2852 78.9398H53.0242C67.2175 78.9398 78.7234 67.4023 78.7234 53.1701V34.3797C78.7234 20.1475 67.2175 8.60999 53.0242 8.60999Z" fill="#474747"/>
<path opacity="0.37" d="M52.7175 8.30261H33.9786C19.7853 8.30261 8.2793 19.8401 8.2793 34.0723V52.8627C8.2793 67.0949 19.7853 78.6325 33.9786 78.6325H52.7175C66.9109 78.6325 78.4168 67.0949 78.4168 52.8627V34.0723C78.4168 19.8401 66.9109 8.30261 52.7175 8.30261Z" fill="#444444"/>
<path opacity="0.37" d="M52.4128 7.99438H33.6738C19.4805 7.99438 7.97461 19.5319 7.97461 33.7641V52.5545C7.97461 66.7867 19.4805 78.3242 33.6738 78.3242H52.4128C66.6061 78.3242 78.1121 66.7867 78.1121 52.5545V33.7641C78.1121 19.5319 66.6061 7.99438 52.4128 7.99438Z" fill="#424242"/>
<path opacity="0.38" d="M52.1062 7.68665H33.3672C19.1739 7.68665 7.66797 19.2241 7.66797 33.4564V52.2468C7.66797 66.479 19.1739 78.0165 33.3672 78.0165H52.1062C66.2995 78.0165 77.8054 66.479 77.8054 52.2468V33.4564C77.8054 19.2241 66.2995 7.68665 52.1062 7.68665Z" fill="#3F3F3F"/>
<path opacity="0.38" d="M51.7957 7.38074H33.0567C18.8634 7.38074 7.35742 18.9182 7.35742 33.1505V51.9409C7.35742 66.1731 18.8634 77.7106 33.0567 77.7106H51.7957C65.989 77.7106 77.4949 66.1731 77.4949 51.9409V33.1505C77.4949 18.9182 65.989 7.38074 51.7957 7.38074Z" fill="#3D3D3D"/>
<path opacity="0.39" d="M51.491 7.07104H32.752C18.5587 7.07104 7.05273 18.6085 7.05273 32.8408V51.6312C7.05273 65.8634 18.5587 77.4009 32.752 77.4009H51.491C65.6843 77.4009 77.1902 65.8634 77.1902 51.6312V32.8408C77.1902 18.6085 65.6843 7.07104 51.491 7.07104Z" fill="#3A3A3A"/>
<path opacity="0.39" d="M51.1843 6.76367H32.4453C18.252 6.76367 6.74609 18.3012 6.74609 32.5334V51.3238C6.74609 65.556 18.252 77.0935 32.4453 77.0935H51.1843C65.3776 77.0935 76.8836 65.556 76.8836 51.3238V32.5334C76.8836 18.3012 65.3776 6.76367 51.1843 6.76367Z" fill="#383838"/>
<path opacity="0.4" d="M50.8777 6.45825H32.1387C17.9454 6.45825 6.43945 17.9958 6.43945 32.228V51.0184C6.43945 65.2506 17.9454 76.7881 32.1387 76.7881H50.8777C65.071 76.7881 76.577 65.2506 76.577 51.0184V32.228C76.577 17.9958 65.071 6.45825 50.8777 6.45825Z" fill="#353535"/>
<path opacity="0.4" d="M50.571 6.14954H31.8321C17.6388 6.14954 6.13281 17.687 6.13281 31.9193V50.7097C6.13281 64.9419 17.6388 76.4794 31.8321 76.4794H50.571C64.7643 76.4794 76.2703 64.9419 76.2703 50.7097V31.9193C76.2703 17.687 64.7643 6.14954 50.571 6.14954Z" fill="#323232"/>
<path opacity="0.41" d="M50.2644 5.84229H31.5254C17.3321 5.84229 5.82617 17.3798 5.82617 31.612V50.4024C5.82617 64.6346 17.3321 76.1721 31.5254 76.1721H50.2644C64.4577 76.1721 75.9637 64.6346 75.9637 50.4024V31.612C75.9637 17.3798 64.4577 5.84229 50.2644 5.84229Z" fill="#303030"/>
<path opacity="0.41" d="M49.9597 5.53406H31.2207C17.0274 5.53406 5.52148 17.0716 5.52148 31.3038V50.0942C5.52148 64.3264 17.0274 75.8639 31.2207 75.8639H49.9597C64.153 75.8639 75.659 64.3264 75.659 50.0942V31.3038C75.659 17.0716 64.153 5.53406 49.9597 5.53406Z" fill="#2D2D2D"/>
<path opacity="0.42" d="M49.6511 5.22717H30.9121C16.7188 5.22717 5.21289 16.7647 5.21289 30.9969V49.7873C5.21289 64.0195 16.7188 75.557 30.9121 75.557H49.6511C63.8444 75.557 75.3504 64.0195 75.3504 49.7873V30.9969C75.3504 16.7647 63.8444 5.22717 49.6511 5.22717Z" fill="#2B2B2B"/>
<path opacity="0.42" d="M49.3445 4.91943H30.6055C16.4122 4.91943 4.90625 16.4569 4.90625 30.6892V49.4796C4.90625 63.7118 16.4122 75.2493 30.6055 75.2493H49.3445C63.5378 75.2493 75.0437 63.7118 75.0437 49.4796V30.6892C75.0437 16.4569 63.5378 4.91943 49.3445 4.91943Z" fill="#282828"/>
<path opacity="0.43" d="M49.0398 4.61108H30.3008C16.1075 4.61108 4.60156 16.1486 4.60156 30.3808V49.1712C4.60156 63.4034 16.1075 74.9409 30.3008 74.9409H49.0398C63.2331 74.9409 74.739 63.4034 74.739 49.1712V30.3808C74.739 16.1486 63.2331 4.61108 49.0398 4.61108Z" fill="#262626"/>
<path opacity="0.43" d="M48.7312 4.30566H29.9922C15.7989 4.30566 4.29297 15.8432 4.29297 30.0754V48.8658C4.29297 63.098 15.7989 74.6355 29.9922 74.6355H48.7312C62.9245 74.6355 74.4304 63.098 74.4304 48.8658V30.0754C74.4304 15.8432 62.9245 4.30566 48.7312 4.30566Z" fill="#232323"/>
<path opacity="0.44" d="M48.4246 3.99744H29.6856C15.4923 3.99744 3.98633 15.5349 3.98633 29.7672V48.5576C3.98633 62.7898 15.4923 74.3273 29.6856 74.3273H48.4246C62.6179 74.3273 74.1238 62.7898 74.1238 48.5576V29.7672C74.1238 15.5349 62.6179 3.99744 48.4246 3.99744Z" fill="#212121"/>
<path opacity="0.44" d="M48.1179 3.6897H29.3789C15.1856 3.6897 3.67969 15.2272 3.67969 29.4594V48.2498C3.67969 62.482 15.1856 74.0195 29.3789 74.0195H48.1179C62.3112 74.0195 73.8172 62.482 73.8172 48.2498V29.4594C73.8172 15.2272 62.3112 3.6897 48.1179 3.6897Z" fill="#1E1E1E"/>
<path opacity="0.45" d="M47.8113 3.38379H29.0723C14.879 3.38379 3.37305 14.9213 3.37305 29.1535V47.9439C3.37305 62.1761 14.879 73.7136 29.0723 73.7136H47.8113C62.0046 73.7136 73.5105 62.1761 73.5105 47.9439V29.1535C73.5105 14.9213 62.0046 3.38379 47.8113 3.38379Z" fill="#1C1C1C"/>
<path opacity="0.45" d="M47.5047 3.07507H28.7657C14.5724 3.07507 3.06641 14.6126 3.06641 28.8448V47.6352C3.06641 61.8674 14.5724 73.4049 28.7657 73.4049H47.5047C61.698 73.4049 73.2039 61.8674 73.2039 47.6352V28.8448C73.2039 14.6126 61.698 3.07507 47.5047 3.07507Z" fill="#191919"/>
<path opacity="0.46" d="M47.198 2.76624H28.459C14.2657 2.76624 2.75977 14.3037 2.75977 28.536V47.3264C2.75977 61.5586 14.2657 73.0961 28.459 73.0961H47.198C61.3913 73.0961 72.8972 61.5586 72.8972 47.3264V28.536C72.8972 14.3037 61.3913 2.76624 47.198 2.76624Z" fill="#171717"/>
<path opacity="0.46" d="M46.8933 2.45898H28.1543C13.961 2.45898 2.45508 13.9965 2.45508 28.2287V47.0191C2.45508 61.2513 13.961 72.7888 28.1543 72.7888H46.8933C61.0866 72.7888 72.5925 61.2513 72.5925 47.0191V28.2287C72.5925 13.9965 61.0866 2.45898 46.8933 2.45898Z" fill="#141414"/>
<path opacity="0.47" d="M46.5847 2.1521H27.8457C13.6524 2.1521 2.14648 13.6896 2.14648 27.9218V46.7122C2.14648 60.9444 13.6524 72.4819 27.8457 72.4819H46.5847C60.778 72.4819 72.284 60.9444 72.284 46.7122V27.9218C72.284 13.6896 60.778 2.1521 46.5847 2.1521Z" fill="#121212"/>
<path opacity="0.47" d="M46.2761 1.84485H27.5371C13.3438 1.84485 1.83789 13.3823 1.83789 27.6146V46.405C1.83789 60.6372 13.3438 72.1747 27.5371 72.1747H46.2761C60.4694 72.1747 71.9754 60.6372 71.9754 46.405V27.6146C71.9754 13.3823 60.4694 1.84485 46.2761 1.84485Z" fill="#0F0F0F"/>
<path opacity="0.48" d="M45.9715 1.53748H27.2324C13.0391 1.53748 1.5332 13.075 1.5332 27.3072V46.0976C1.5332 60.3298 13.0391 71.8673 27.2324 71.8673H45.9715C60.1648 71.8673 71.6707 60.3298 71.6707 46.0976V27.3072C71.6707 13.075 60.1648 1.53748 45.9715 1.53748Z" fill="#0D0D0D"/>
<path opacity="0.48" d="M45.6648 1.23206H26.9258C12.7325 1.23206 1.22656 12.7696 1.22656 27.0018V45.7922C1.22656 60.0244 12.7325 71.5619 26.9258 71.5619H45.6648C59.8581 71.5619 71.3641 60.0244 71.3641 45.7922V27.0018C71.3641 12.7696 59.8581 1.23206 45.6648 1.23206Z" fill="#0A0A0A"/>
<path opacity="0.49" d="M45.3562 0.922363H26.6172C12.4239 0.922363 0.917969 12.4599 0.917969 26.6921V45.4825C0.917969 59.7147 12.4239 71.2522 26.6172 71.2522H45.3562C59.5495 71.2522 71.0554 59.7147 71.0554 45.4825V26.6921C71.0554 12.4599 59.5495 0.922363 45.3562 0.922363Z" fill="#080808"/>
<path opacity="0.49" d="M45.0535 0.615112H26.3145C12.1212 0.615112 0.615234 12.1526 0.615234 26.3848V45.1752C0.615234 59.4075 12.1212 70.945 26.3145 70.945H45.0535C59.2468 70.945 70.7527 59.4075 70.7527 45.1752V26.3848C70.7527 12.1526 59.2468 0.615112 45.0535 0.615112Z" fill="#050505"/>
<path opacity="0.5" d="M44.7449 0.308716H26.0059C11.8126 0.308716 0.306641 11.8462 0.306641 26.0784V44.8688C0.306641 59.1011 11.8126 70.6386 26.0059 70.6386H44.7449C58.9382 70.6386 70.4441 59.1011 70.4441 44.8688V26.0784C70.4441 11.8462 58.9382 0.308716 44.7449 0.308716Z" fill="#030303"/>
<path opacity="0.5" d="M44.4382 0H25.6992C11.5059 0 0 11.5375 0 25.7697V44.5601C0 58.7923 11.5059 70.3298 25.6992 70.3298H44.4382C58.6315 70.3298 70.1375 58.7923 70.1375 44.5601V25.7697C70.1375 11.5375 58.6315 0 44.4382 0Z" fill="black"/>
</g>
</svg>
