<svg width="96" height="95" viewBox="0 0 96 95" fill="none" xmlns="http://www.w3.org/2000/svg">
<g clip-path="url(#clip0_798_485)">
<path d="M2.38798 93.2563C10.0941 73.636 17.7017 53.9841 25.2106 34.3006H21.6886C23.8864 46.8495 26.1968 59.3921 28.472 71.9283C28.7537 73.4842 31.1628 73.4716 31.994 72.3394C43.039 56.7672 50.3085 39.4492 57.5427 22.2514L53.7248 21.7834C55.1336 34.3196 56.5542 46.8537 57.9865 59.3857C58.1696 60.9986 60.6209 61.9157 61.6353 60.2776C72.3069 42.7762 81.1402 24.4652 89.9241 6.1542C90.9173 4.09224 87.5291 2.28961 86.5289 4.37687C77.752 22.6815 68.9188 40.9988 58.2541 58.5002L61.9029 59.3857C60.4941 46.8495 59.0619 34.3154 57.6061 21.7834C57.5891 21.3707 57.4102 20.9768 57.1012 20.671C56.7922 20.3652 56.3729 20.1672 55.9171 20.112C55.4614 20.0568 54.9986 20.1479 54.6104 20.3692C54.2222 20.5905 53.9335 20.9278 53.7952 21.3216C46.7512 38.2664 39.5311 55.2618 28.6904 70.6064L32.2124 71.0175C29.909 58.4876 27.6338 45.9513 25.2529 33.4278C24.9289 31.72 22.2521 32.0299 21.7309 33.4278C14.4615 53.1619 7.2507 72.9129 0.0986716 92.6807C-0.380322 94.0153 1.90898 94.5782 2.42319 93.2563H2.38798Z" fill="#FB8D5E"/>
<path d="M76.4695 16.9954C79.7567 13.0275 83.0439 9.05327 86.3311 5.07272L87.5075 3.63693C87.7705 3.71283 87.8973 3.90891 87.8879 4.22516C88.7261 4.61731 89.353 7.32443 89.7545 8.25421C90.783 10.6641 91.6635 13.1118 92.4454 15.5913L94.1078 13.6368C88.4726 13.8645 82.7669 14.1238 77.1035 14.3642L77.9065 17.0587L84.4011 13.719L82.471 11.4673C81.3126 12.4065 80.0471 13.2333 78.6954 13.9341L80.6114 16.1668C83.2681 13.6762 85.6594 10.9678 87.7541 8.07711C88.7613 6.69193 86.5566 5.30042 85.2745 6.36302C83.4842 7.84363 81.9841 9.58411 80.8368 11.5116L83.7108 12.6311C83.9226 11.2035 84.563 9.85443 85.5634 8.72859L82.6401 8.01386C82.7317 9.83547 83.2459 13.7696 86.2678 13.4154C89.501 13.0296 88.86 8.07711 88.5923 6.21755C88.5657 5.86225 88.3897 5.52929 88.1001 5.28608C87.8104 5.04287 87.4286 4.90758 87.032 4.90758C86.6354 4.90758 86.2537 5.04287 85.964 5.28608C85.6744 5.52929 85.4984 5.86225 85.4718 6.21755C85.068 8.92876 85.6224 11.6854 87.0567 14.0985C87.6977 15.2181 89.5855 14.8829 89.9447 13.7633C90.7771 11.325 90.6905 8.7083 89.6982 6.31875C88.9938 4.58569 85.9015 5.31939 86.5988 7.08408C87.4535 9.27254 88.3105 11.461 89.1699 13.6495L91.1774 11.8468C88.8587 11.3051 86.4842 10.9787 84.0912 10.8728C82.4358 10.7969 81.8864 12.9158 83.26 13.6242C85.9719 15.0157 87.6273 13.1688 90.4097 13.1561C90.1279 12.239 89.8532 11.3155 89.5714 10.3984C89.6137 10.6388 89.6489 10.8791 89.6912 11.1195C91.6917 10.9487 91.8044 8.22259 89.6912 8.25421C84.0559 8.34276 86.7397 15.6545 91.2409 12.9537C92.551 12.1631 92.1143 10.1897 90.4097 10.196C89.0009 10.196 86.0001 11.6255 84.9153 11.0752L84.0912 13.8266C86.1912 13.9134 88.2757 14.1953 90.311 14.6678C91.4381 14.9271 92.7482 13.9594 92.3115 12.8715C91.4428 10.6662 90.5717 8.47769 89.6982 6.3061L86.5988 7.07143C87.4298 8.96195 87.5364 11.0471 86.9017 12.998L89.7827 12.6564C88.6221 10.6773 88.2046 8.41441 88.5923 6.2049H85.4718C85.6409 7.36238 85.4718 8.48191 85.5634 9.62042C85.7324 12.4477 85.7817 8.05813 85.7747 8.00121C85.7042 6.50217 83.7742 6.21755 82.8514 7.29281C81.6855 8.61777 80.9364 10.199 80.6819 11.8721C80.4353 13.3332 82.633 14.4844 83.5558 12.96C84.5764 11.2465 85.9125 9.70037 87.5075 8.38704L85.028 6.66663C83.0748 9.35017 80.8462 11.8637 78.3714 14.1744C78.0942 14.419 77.9262 14.7461 77.899 15.0941C77.8718 15.4422 77.9873 15.7872 78.2237 16.0641C78.4602 16.341 78.8013 16.5306 79.1827 16.5973C79.5641 16.664 79.9595 16.6031 80.2944 16.4262C81.8789 15.6007 83.3638 14.6299 84.7251 13.5293C86.0917 12.4224 84.3377 10.4933 82.788 11.2839L76.2794 14.5919C74.9128 15.2877 75.4763 17.3559 77.0964 17.2927C82.7317 17.084 88.4303 16.9195 94.1007 16.7614C94.3649 16.7575 94.6246 16.6998 94.8603 16.5927C95.0961 16.4856 95.3017 16.3319 95.4617 16.1432C95.6217 15.9544 95.732 15.7355 95.7842 15.503C95.8364 15.2704 95.8292 15.0303 95.7631 14.8006C94.6018 11.2512 93.1901 7.77172 91.5367 4.38329C90.7689 2.81468 89.8673 -0.461693 87.3103 0.0949104C84.8942 0.619889 83.2388 4.56039 82.0273 6.26182C79.6793 9.58879 77.3312 12.9179 74.9832 16.2491C74.3845 17.1029 75.8144 17.7924 76.4484 17.027L76.4695 16.9954Z" fill="#FB8D5E"/>
</g>
<defs>
<clipPath id="clip0_798_485">
<rect width="95.8339" height="94.0027" fill="white"/>
</clipPath>
</defs>
</svg>
