<svg width="285" height="188" viewBox="0 0 285 188" fill="none" xmlns="http://www.w3.org/2000/svg">
<g filter="url(#filter0_d_798_471)">
<rect x="20" y="18" width="245" height="148" rx="8" fill="white" fill-opacity="0.96" shape-rendering="crispEdges"/>
<rect x="20.5" y="18.5" width="244" height="147" rx="7.5" stroke="#EEEEEE" shape-rendering="crispEdges"/>
</g>
<path d="M41.1782 55.2113L40 53.4371V83H245V39.5674L241.565 43.7559C238.131 47.9444 231.262 56.3214 226.474 59.1998C221.685 62.0783 218.978 59.4582 217.034 54.8195C215.09 50.1808 213.91 43.5234 211.366 40.4714C208.822 37.4195 204.913 37.9731 200.78 39.1214C196.646 40.2698 192.287 42.0129 187.507 44.869C182.727 47.7251 177.526 51.6942 172.312 55.699L172.228 55.7637C167.041 59.7472 161.854 63.7307 159.142 61.1756C156.415 58.6067 156.189 49.4282 153.444 46.9062C150.7 44.3843 145.436 48.5189 141.607 48.8631C137.777 49.2074 135.382 45.7613 132.849 42.6798C130.316 39.5983 127.645 36.8814 123.346 38.4663C119.047 40.0512 113.121 45.9379 107.484 51.0578C101.848 56.1777 96.5013 60.5308 92.6314 60.9822C88.7615 61.4337 86.368 57.9833 83.3704 56.1294C80.3729 54.2754 76.7713 54.0178 72.5192 55.4791C68.2672 56.9403 63.3647 60.1204 59.0146 61.8408C54.6645 63.5611 50.8667 63.8219 47.7897 62.178C44.7126 60.5341 42.3563 56.9856 41.1782 55.2113Z" fill="url(#paint0_linear_798_471)"/>
<path d="M40 53.2656L41.1782 55.0201C42.3563 56.7746 44.7126 60.2837 47.7897 61.9093C50.8667 63.535 54.6645 63.2771 59.0146 61.5759C63.3647 59.8746 68.2672 56.7299 72.5192 55.2849C76.7713 53.8399 80.3729 54.0946 83.3705 55.928C86.368 57.7613 88.7615 61.1733 92.6314 60.7269C96.5013 60.2805 101.848 55.9757 107.484 50.9127C113.121 45.8497 119.047 40.0284 123.346 38.4611C127.645 36.8939 130.316 39.5805 132.849 42.6278C135.382 45.6751 137.777 49.0829 141.607 48.7424C145.436 48.402 150.7 44.3133 153.444 46.8073C156.189 49.3012 156.415 58.3777 159.142 60.9181C161.854 63.4448 167.041 59.5056 172.228 55.5664L172.312 55.5024C177.526 51.542 182.727 47.617 187.507 44.7926C192.287 41.9683 196.646 40.2445 200.78 39.109C204.913 37.9734 208.822 37.426 211.366 40.444C213.91 43.462 215.09 50.0454 217.034 54.6326C218.978 59.2198 221.685 61.8107 226.474 58.9643C231.262 56.1178 238.131 47.8339 241.565 43.692L245 39.55" stroke="#0BB8B3" stroke-width="2.5"/>
<path d="M43.432 113C43.0507 113 42.75 112.897 42.53 112.692C42.3247 112.472 42.222 112.179 42.222 111.812C42.222 111.431 42.3247 111.145 42.53 110.954C42.75 110.763 43.0507 110.668 43.432 110.668H45.896V99.866H47.26L44.026 101.824C43.7473 101.985 43.4833 102.051 43.234 102.022C42.9993 101.978 42.794 101.875 42.618 101.714C42.4567 101.538 42.3467 101.333 42.288 101.098C42.2293 100.863 42.244 100.629 42.332 100.394C42.4347 100.145 42.6253 99.9393 42.904 99.778L45.94 97.952C46.2333 97.776 46.5267 97.6293 46.82 97.512C47.1133 97.38 47.3847 97.314 47.634 97.314C47.942 97.314 48.1987 97.402 48.404 97.578C48.6093 97.7393 48.712 98.0107 48.712 98.392V110.668H50.956C51.3373 110.668 51.6307 110.763 51.836 110.954C52.056 111.145 52.166 111.431 52.166 111.812C52.166 112.193 52.056 112.487 51.836 112.692C51.6307 112.897 51.3373 113 50.956 113H43.432ZM60.0114 113.22C58.1781 113.22 56.7774 112.531 55.8094 111.152C54.8414 109.759 54.3574 107.779 54.3574 105.212C54.3574 103.481 54.5701 102.029 54.9954 100.856C55.4354 99.668 56.0734 98.7733 56.9094 98.172C57.7601 97.5707 58.7941 97.27 60.0114 97.27C61.8594 97.27 63.2601 97.9447 64.2134 99.294C65.1814 100.643 65.6654 102.609 65.6654 105.19C65.6654 106.906 65.4454 108.365 65.0054 109.568C64.5801 110.756 63.9494 111.665 63.1134 112.296C62.2774 112.912 61.2434 113.22 60.0114 113.22ZM60.0114 110.91C61.0087 110.91 61.7421 110.448 62.2114 109.524C62.6954 108.6 62.9374 107.155 62.9374 105.19C62.9374 103.225 62.6954 101.802 62.2114 100.922C61.7421 100.027 61.0087 99.58 60.0114 99.58C59.0287 99.58 58.2954 100.027 57.8114 100.922C57.3274 101.802 57.0854 103.225 57.0854 105.19C57.0854 107.155 57.3274 108.6 57.8114 109.524C58.2954 110.448 59.0287 110.91 60.0114 110.91ZM69.9248 115.354C69.7341 115.589 69.5288 115.721 69.3088 115.75C69.1035 115.794 68.9201 115.757 68.7588 115.64C68.5975 115.523 68.5095 115.354 68.4948 115.134C68.4801 114.929 68.5755 114.701 68.7808 114.452C69.0741 114.085 69.2721 113.719 69.3748 113.352C69.4775 112.985 69.5288 112.655 69.5288 112.362L69.6388 113.11C69.1255 113.11 68.7075 112.963 68.3848 112.67C68.0768 112.362 67.9228 111.959 67.9228 111.46C67.9228 110.991 68.0695 110.609 68.3628 110.316C68.6561 110.008 69.0521 109.854 69.5508 109.854C70.0641 109.854 70.4675 110.03 70.7608 110.382C71.0541 110.719 71.2008 111.211 71.2008 111.856C71.2008 112.208 71.1641 112.575 71.0908 112.956C71.0321 113.323 70.9075 113.704 70.7168 114.1C70.5408 114.511 70.2768 114.929 69.9248 115.354ZM79.2318 113.22C78.4545 113.22 77.6625 113.117 76.8558 112.912C76.0492 112.707 75.3085 112.391 74.6338 111.966C74.3552 111.79 74.1645 111.585 74.0618 111.35C73.9738 111.101 73.9518 110.859 73.9958 110.624C74.0545 110.375 74.1645 110.169 74.3258 110.008C74.5018 109.832 74.7072 109.729 74.9418 109.7C75.1912 109.671 75.4625 109.737 75.7558 109.898C76.2985 110.206 76.8485 110.441 77.4058 110.602C77.9632 110.763 78.5572 110.844 79.1878 110.844C79.8038 110.844 80.3318 110.734 80.7718 110.514C81.2118 110.294 81.5492 109.986 81.7838 109.59C82.0185 109.194 82.1358 108.732 82.1358 108.204C82.1358 107.383 81.8865 106.723 81.3878 106.224C80.8892 105.711 80.2072 105.454 79.3418 105.454C78.8725 105.454 78.4178 105.535 77.9778 105.696C77.5378 105.843 77.1052 106.107 76.6798 106.488C76.5478 106.605 76.3792 106.723 76.1738 106.84C75.9685 106.943 75.7485 106.994 75.5138 106.994C75.1472 106.994 74.8685 106.899 74.6778 106.708C74.4872 106.517 74.3918 106.253 74.3918 105.916V98.722C74.3918 98.326 74.4945 98.0253 74.6998 97.82C74.9198 97.6 75.2278 97.49 75.6238 97.49H82.8618C83.2578 97.49 83.5585 97.5927 83.7638 97.798C83.9838 97.9887 84.0938 98.2747 84.0938 98.656C84.0938 99.0227 83.9838 99.3087 83.7638 99.514C83.5585 99.7193 83.2578 99.822 82.8618 99.822H77.1418V104.75H76.4158C76.7972 104.237 77.3032 103.841 77.9338 103.562C78.5645 103.283 79.2538 103.144 80.0018 103.144C80.9845 103.144 81.8352 103.357 82.5538 103.782C83.2872 104.193 83.8518 104.772 84.2478 105.52C84.6585 106.253 84.8638 107.111 84.8638 108.094C84.8638 109.106 84.6365 110.001 84.1818 110.778C83.7272 111.541 83.0745 112.142 82.2238 112.582C81.3878 113.007 80.3905 113.22 79.2318 113.22ZM91.3013 113.22C90.6706 113.22 90.0179 113.125 89.3433 112.934C88.6686 112.729 88.0379 112.428 87.4513 112.032C87.2166 111.885 87.0626 111.695 86.9893 111.46C86.9159 111.225 86.9013 110.998 86.9453 110.778C87.0039 110.543 87.1066 110.345 87.2533 110.184C87.4146 110.008 87.6126 109.905 87.8473 109.876C88.0819 109.832 88.3386 109.891 88.6173 110.052C89.1159 110.345 89.5853 110.551 90.0253 110.668C90.4653 110.785 90.9053 110.844 91.3453 110.844C92.1959 110.844 92.9146 110.646 93.5013 110.25C94.0879 109.854 94.5279 109.26 94.8213 108.468C95.1293 107.661 95.2833 106.671 95.2833 105.498V103.848H95.5473C95.4446 104.581 95.2026 105.219 94.8213 105.762C94.4399 106.305 93.9559 106.723 93.3693 107.016C92.7826 107.295 92.1299 107.434 91.4113 107.434C90.5313 107.434 89.7393 107.221 89.0353 106.796C88.3459 106.371 87.8033 105.784 87.4073 105.036C87.0113 104.273 86.8133 103.415 86.8133 102.462C86.8133 101.45 87.0259 100.555 87.4513 99.778C87.8913 99.0007 88.4999 98.392 89.2773 97.952C90.0546 97.4973 90.9419 97.27 91.9393 97.27C93.2299 97.27 94.3226 97.5707 95.2173 98.172C96.1119 98.7733 96.7939 99.6533 97.2633 100.812C97.7326 101.956 97.9673 103.342 97.9673 104.97C97.9673 106.29 97.8133 107.463 97.5053 108.49C97.2119 109.502 96.7793 110.36 96.2073 111.064C95.6353 111.768 94.9313 112.303 94.0953 112.67C93.2739 113.037 92.3426 113.22 91.3013 113.22ZM92.1153 105.19C92.6433 105.19 93.1053 105.073 93.5013 104.838C93.9119 104.589 94.2273 104.251 94.4473 103.826C94.6673 103.386 94.7773 102.887 94.7773 102.33C94.7773 101.758 94.6673 101.259 94.4473 100.834C94.2273 100.409 93.9119 100.079 93.5013 99.844C93.1053 99.6093 92.6433 99.492 92.1153 99.492C91.5873 99.492 91.1253 99.6093 90.7293 99.844C90.3333 100.079 90.0179 100.409 89.7833 100.834C89.5633 101.259 89.4533 101.758 89.4533 102.33C89.4533 102.887 89.5633 103.386 89.7833 103.826C90.0179 104.251 90.3333 104.589 90.7293 104.838C91.1253 105.073 91.5873 105.19 92.1153 105.19ZM106.495 113.22C105.219 113.22 104.126 112.919 103.217 112.318C102.322 111.702 101.64 110.822 101.171 109.678C100.701 108.534 100.467 107.148 100.467 105.52C100.467 104.2 100.613 103.034 100.907 102.022C101.215 100.995 101.655 100.13 102.227 99.426C102.799 98.722 103.495 98.1867 104.317 97.82C105.153 97.4533 106.091 97.27 107.133 97.27C107.778 97.27 108.431 97.3727 109.091 97.578C109.765 97.7687 110.396 98.062 110.983 98.458C111.217 98.6047 111.371 98.7953 111.445 99.03C111.518 99.2647 111.525 99.4993 111.467 99.734C111.423 99.954 111.32 100.152 111.159 100.328C111.012 100.489 110.821 100.592 110.587 100.636C110.352 100.665 110.095 100.599 109.817 100.438C109.318 100.145 108.849 99.9393 108.409 99.822C107.969 99.7047 107.529 99.646 107.089 99.646C106.238 99.646 105.519 99.844 104.933 100.24C104.346 100.636 103.899 101.23 103.591 102.022C103.297 102.814 103.151 103.804 103.151 104.992V106.642H102.887C103.004 105.894 103.246 105.256 103.613 104.728C103.994 104.185 104.478 103.775 105.065 103.496C105.651 103.203 106.304 103.056 107.023 103.056C107.917 103.056 108.709 103.269 109.399 103.694C110.088 104.119 110.631 104.706 111.027 105.454C111.423 106.202 111.621 107.06 111.621 108.028C111.621 109.025 111.401 109.92 110.961 110.712C110.535 111.489 109.934 112.105 109.157 112.56C108.394 113 107.507 113.22 106.495 113.22ZM106.341 110.976C106.869 110.976 107.331 110.859 107.727 110.624C108.137 110.389 108.453 110.059 108.673 109.634C108.893 109.194 109.003 108.695 109.003 108.138C109.003 107.566 108.893 107.067 108.673 106.642C108.453 106.217 108.137 105.887 107.727 105.652C107.331 105.403 106.869 105.278 106.341 105.278C105.813 105.278 105.351 105.403 104.955 105.652C104.559 105.887 104.243 106.217 104.009 106.642C103.789 107.067 103.679 107.566 103.679 108.138C103.679 108.695 103.789 109.194 104.009 109.634C104.243 110.059 104.559 110.389 104.955 110.624C105.351 110.859 105.813 110.976 106.341 110.976Z" fill="#050F58"/>
<path d="M46.21 139.126C45.982 139.126 45.796 139.072 45.652 138.964C45.508 138.856 45.394 138.694 45.31 138.478L40.36 127.156C40.276 126.952 40.252 126.784 40.288 126.652C40.324 126.508 40.402 126.394 40.522 126.31C40.654 126.226 40.804 126.184 40.972 126.184C41.2 126.184 41.368 126.238 41.476 126.346C41.596 126.442 41.692 126.586 41.764 126.778L46.516 137.812H45.94L50.674 126.76C50.758 126.58 50.86 126.442 50.98 126.346C51.1 126.238 51.268 126.184 51.484 126.184C51.652 126.184 51.79 126.226 51.898 126.31C52.018 126.394 52.09 126.508 52.114 126.652C52.15 126.796 52.126 126.964 52.042 127.156L47.092 138.478C47.008 138.694 46.894 138.856 46.75 138.964C46.618 139.072 46.438 139.126 46.21 139.126ZM55.1 139.09C54.86 139.09 54.68 139.024 54.56 138.892C54.44 138.748 54.38 138.55 54.38 138.298V130.936C54.38 130.684 54.44 130.492 54.56 130.36C54.68 130.228 54.86 130.162 55.1 130.162C55.328 130.162 55.508 130.228 55.64 130.36C55.772 130.492 55.838 130.684 55.838 130.936V138.298C55.838 138.55 55.772 138.748 55.64 138.892C55.52 139.024 55.34 139.09 55.1 139.09ZM55.1 128.146C54.8 128.146 54.566 128.068 54.398 127.912C54.23 127.744 54.146 127.522 54.146 127.246C54.146 126.958 54.23 126.742 54.398 126.598C54.566 126.442 54.8 126.364 55.1 126.364C55.412 126.364 55.646 126.442 55.802 126.598C55.97 126.742 56.054 126.958 56.054 127.246C56.054 127.522 55.97 127.744 55.802 127.912C55.646 128.068 55.412 128.146 55.1 128.146ZM61.6956 139.162C61.1556 139.162 60.6096 139.096 60.0576 138.964C59.5176 138.832 59.0136 138.604 58.5456 138.28C58.4256 138.196 58.3416 138.1 58.2936 137.992C58.2456 137.872 58.2276 137.758 58.2396 137.65C58.2636 137.53 58.3116 137.428 58.3836 137.344C58.4676 137.26 58.5636 137.212 58.6716 137.2C58.7916 137.176 58.9236 137.2 59.0676 137.272C59.5356 137.56 59.9856 137.764 60.4176 137.884C60.8616 137.992 61.2996 138.046 61.7316 138.046C62.4156 138.046 62.9316 137.92 63.2796 137.668C63.6276 137.416 63.8016 137.074 63.8016 136.642C63.8016 136.306 63.6876 136.042 63.4596 135.85C63.2316 135.646 62.8716 135.49 62.3796 135.382L60.7416 135.022C59.9856 134.866 59.4216 134.596 59.0496 134.212C58.6896 133.828 58.5096 133.33 58.5096 132.718C58.5096 132.178 58.6476 131.716 58.9236 131.332C59.2116 130.936 59.6136 130.63 60.1296 130.414C60.6456 130.198 61.2456 130.09 61.9296 130.09C62.4576 130.09 62.9556 130.162 63.4236 130.306C63.9036 130.438 64.3356 130.654 64.7196 130.954C64.8396 131.038 64.9176 131.14 64.9536 131.26C65.0016 131.368 65.0076 131.482 64.9716 131.602C64.9476 131.71 64.8936 131.806 64.8096 131.89C64.7256 131.962 64.6236 132.004 64.5036 132.016C64.3836 132.028 64.2576 131.992 64.1256 131.908C63.7656 131.668 63.3996 131.494 63.0276 131.386C62.6556 131.266 62.2896 131.206 61.9296 131.206C61.2576 131.206 60.7476 131.338 60.3996 131.602C60.0516 131.866 59.8776 132.214 59.8776 132.646C59.8776 132.982 59.9856 133.258 60.2016 133.474C60.4176 133.69 60.7536 133.846 61.2096 133.942L62.8476 134.284C63.6276 134.452 64.2096 134.722 64.5936 135.094C64.9896 135.454 65.1876 135.946 65.1876 136.57C65.1876 137.362 64.8696 137.992 64.2336 138.46C63.5976 138.928 62.7516 139.162 61.6956 139.162ZM68.3096 139.09C68.0696 139.09 67.8896 139.024 67.7696 138.892C67.6496 138.748 67.5896 138.55 67.5896 138.298V130.936C67.5896 130.684 67.6496 130.492 67.7696 130.36C67.8896 130.228 68.0696 130.162 68.3096 130.162C68.5376 130.162 68.7176 130.228 68.8496 130.36C68.9816 130.492 69.0476 130.684 69.0476 130.936V138.298C69.0476 138.55 68.9816 138.748 68.8496 138.892C68.7296 139.024 68.5496 139.09 68.3096 139.09ZM68.3096 128.146C68.0096 128.146 67.7756 128.068 67.6076 127.912C67.4396 127.744 67.3556 127.522 67.3556 127.246C67.3556 126.958 67.4396 126.742 67.6076 126.598C67.7756 126.442 68.0096 126.364 68.3096 126.364C68.6216 126.364 68.8556 126.442 69.0116 126.598C69.1796 126.742 69.2636 126.958 69.2636 127.246C69.2636 127.522 69.1796 127.744 69.0116 127.912C68.8556 128.068 68.6216 128.146 68.3096 128.146ZM75.4632 139.162C74.7792 139.162 74.2032 139.042 73.7352 138.802C73.2792 138.55 72.9372 138.19 72.7092 137.722C72.4812 137.242 72.3672 136.66 72.3672 135.976V131.386H71.1612C70.9572 131.386 70.8012 131.338 70.6932 131.242C70.5852 131.134 70.5312 130.99 70.5312 130.81C70.5312 130.63 70.5852 130.492 70.6932 130.396C70.8012 130.3 70.9572 130.252 71.1612 130.252H72.3672V128.182C72.3672 127.942 72.4332 127.762 72.5652 127.642C72.6972 127.51 72.8772 127.444 73.1052 127.444C73.3332 127.444 73.5072 127.51 73.6272 127.642C73.7592 127.762 73.8252 127.942 73.8252 128.182V130.252H76.0932C76.2972 130.252 76.4532 130.3 76.5612 130.396C76.6692 130.492 76.7232 130.63 76.7232 130.81C76.7232 130.99 76.6692 131.134 76.5612 131.242C76.4532 131.338 76.2972 131.386 76.0932 131.386H73.8252V135.832C73.8252 136.516 73.9692 137.038 74.2572 137.398C74.5452 137.746 75.0132 137.92 75.6612 137.92C75.8892 137.92 76.0812 137.896 76.2372 137.848C76.4052 137.8 76.5432 137.776 76.6512 137.776C76.7592 137.764 76.8492 137.8 76.9212 137.884C76.9932 137.968 77.0292 138.112 77.0292 138.316C77.0292 138.46 76.9992 138.592 76.9392 138.712C76.8912 138.832 76.8012 138.916 76.6692 138.964C76.5252 139.012 76.3332 139.054 76.0932 139.09C75.8652 139.138 75.6552 139.162 75.4632 139.162ZM81.9743 139.162C81.1223 139.162 80.3843 138.976 79.7603 138.604C79.1363 138.232 78.6503 137.71 78.3023 137.038C77.9663 136.354 77.7983 135.55 77.7983 134.626C77.7983 133.93 77.8943 133.306 78.0863 132.754C78.2783 132.19 78.5603 131.71 78.9323 131.314C79.3043 130.918 79.7423 130.618 80.2463 130.414C80.7623 130.198 81.3383 130.09 81.9743 130.09C82.8263 130.09 83.5643 130.276 84.1883 130.648C84.8123 131.02 85.2923 131.548 85.6283 132.232C85.9763 132.904 86.1503 133.702 86.1503 134.626C86.1503 135.322 86.0543 135.946 85.8623 136.498C85.6703 137.05 85.3883 137.53 85.0163 137.938C84.6443 138.334 84.2003 138.64 83.6843 138.856C83.1803 139.06 82.6103 139.162 81.9743 139.162ZM81.9743 137.992C82.5143 137.992 82.9883 137.86 83.3963 137.596C83.8043 137.332 84.1163 136.948 84.3323 136.444C84.5603 135.94 84.6743 135.334 84.6743 134.626C84.6743 133.534 84.4283 132.7 83.9363 132.124C83.4563 131.548 82.8023 131.26 81.9743 131.26C81.4223 131.26 80.9423 131.392 80.5343 131.656C80.1383 131.908 79.8263 132.286 79.5983 132.79C79.3823 133.282 79.2743 133.894 79.2743 134.626C79.2743 135.706 79.5203 136.54 80.0123 137.128C80.5043 137.704 81.1583 137.992 81.9743 137.992ZM89.2583 139.126C89.0183 139.126 88.8323 139.06 88.7003 138.928C88.5803 138.796 88.5203 138.61 88.5203 138.37V130.864C88.5203 130.624 88.5803 130.444 88.7003 130.324C88.8203 130.192 88.9943 130.126 89.2223 130.126C89.4503 130.126 89.6243 130.192 89.7443 130.324C89.8763 130.444 89.9423 130.624 89.9423 130.864V132.322H89.7623C89.9543 131.614 90.3203 131.068 90.8603 130.684C91.4003 130.3 92.0663 130.096 92.8583 130.072C93.0383 130.06 93.1823 130.102 93.2903 130.198C93.3983 130.282 93.4583 130.432 93.4703 130.648C93.4823 130.852 93.4343 131.014 93.3263 131.134C93.2183 131.254 93.0503 131.326 92.8223 131.35L92.5343 131.386C91.7183 131.458 91.0883 131.722 90.6443 132.178C90.2123 132.622 89.9963 133.234 89.9963 134.014V138.37C89.9963 138.61 89.9303 138.796 89.7983 138.928C89.6783 139.06 89.4983 139.126 89.2583 139.126ZM98.0155 139.162C97.4755 139.162 96.9295 139.096 96.3775 138.964C95.8375 138.832 95.3335 138.604 94.8655 138.28C94.7455 138.196 94.6615 138.1 94.6135 137.992C94.5655 137.872 94.5475 137.758 94.5595 137.65C94.5835 137.53 94.6315 137.428 94.7035 137.344C94.7875 137.26 94.8835 137.212 94.9915 137.2C95.1115 137.176 95.2435 137.2 95.3875 137.272C95.8555 137.56 96.3055 137.764 96.7375 137.884C97.1815 137.992 97.6195 138.046 98.0515 138.046C98.7355 138.046 99.2515 137.92 99.5995 137.668C99.9475 137.416 100.122 137.074 100.122 136.642C100.122 136.306 100.008 136.042 99.7795 135.85C99.5515 135.646 99.1915 135.49 98.6995 135.382L97.0615 135.022C96.3055 134.866 95.7415 134.596 95.3695 134.212C95.0095 133.828 94.8295 133.33 94.8295 132.718C94.8295 132.178 94.9675 131.716 95.2435 131.332C95.5315 130.936 95.9335 130.63 96.4495 130.414C96.9655 130.198 97.5655 130.09 98.2495 130.09C98.7775 130.09 99.2755 130.162 99.7435 130.306C100.224 130.438 100.656 130.654 101.04 130.954C101.16 131.038 101.238 131.14 101.274 131.26C101.322 131.368 101.328 131.482 101.292 131.602C101.268 131.71 101.214 131.806 101.13 131.89C101.046 131.962 100.944 132.004 100.824 132.016C100.704 132.028 100.578 131.992 100.446 131.908C100.086 131.668 99.7195 131.494 99.3475 131.386C98.9755 131.266 98.6095 131.206 98.2495 131.206C97.5775 131.206 97.0675 131.338 96.7195 131.602C96.3715 131.866 96.1975 132.214 96.1975 132.646C96.1975 132.982 96.3055 133.258 96.5215 133.474C96.7375 133.69 97.0735 133.846 97.5295 133.942L99.1675 134.284C99.9475 134.452 100.53 134.722 100.914 135.094C101.31 135.454 101.508 135.946 101.508 136.57C101.508 137.362 101.19 137.992 100.554 138.46C99.9175 138.928 99.0715 139.162 98.0155 139.162ZM112.24 139.162C111.556 139.162 110.98 139.042 110.512 138.802C110.056 138.55 109.714 138.19 109.486 137.722C109.258 137.242 109.144 136.66 109.144 135.976V131.386H107.938C107.734 131.386 107.578 131.338 107.47 131.242C107.362 131.134 107.308 130.99 107.308 130.81C107.308 130.63 107.362 130.492 107.47 130.396C107.578 130.3 107.734 130.252 107.938 130.252H109.144V128.182C109.144 127.942 109.21 127.762 109.342 127.642C109.474 127.51 109.654 127.444 109.882 127.444C110.11 127.444 110.284 127.51 110.404 127.642C110.536 127.762 110.602 127.942 110.602 128.182V130.252H112.87C113.074 130.252 113.23 130.3 113.338 130.396C113.446 130.492 113.5 130.63 113.5 130.81C113.5 130.99 113.446 131.134 113.338 131.242C113.23 131.338 113.074 131.386 112.87 131.386H110.602V135.832C110.602 136.516 110.746 137.038 111.034 137.398C111.322 137.746 111.79 137.92 112.438 137.92C112.666 137.92 112.858 137.896 113.014 137.848C113.182 137.8 113.32 137.776 113.428 137.776C113.536 137.764 113.626 137.8 113.698 137.884C113.77 137.968 113.806 138.112 113.806 138.316C113.806 138.46 113.776 138.592 113.716 138.712C113.668 138.832 113.578 138.916 113.446 138.964C113.302 139.012 113.11 139.054 112.87 139.09C112.642 139.138 112.432 139.162 112.24 139.162ZM116.029 139.126C115.789 139.126 115.609 139.06 115.489 138.928C115.369 138.796 115.309 138.61 115.309 138.37V126.922C115.309 126.682 115.369 126.502 115.489 126.382C115.609 126.25 115.789 126.184 116.029 126.184C116.257 126.184 116.437 126.25 116.569 126.382C116.701 126.502 116.767 126.682 116.767 126.922V132.196H116.533C116.785 131.5 117.193 130.978 117.757 130.63C118.333 130.27 118.993 130.09 119.737 130.09C120.433 130.09 121.009 130.216 121.465 130.468C121.933 130.72 122.281 131.104 122.509 131.62C122.737 132.124 122.851 132.766 122.851 133.546V138.37C122.851 138.61 122.785 138.796 122.653 138.928C122.533 139.06 122.359 139.126 122.131 139.126C121.891 139.126 121.705 139.06 121.573 138.928C121.453 138.796 121.393 138.61 121.393 138.37V133.636C121.393 132.82 121.231 132.226 120.907 131.854C120.595 131.47 120.091 131.278 119.395 131.278C118.591 131.278 117.949 131.53 117.469 132.034C117.001 132.526 116.767 133.186 116.767 134.014V138.37C116.767 138.874 116.521 139.126 116.029 139.126ZM126.439 139.09C126.199 139.09 126.019 139.024 125.899 138.892C125.779 138.748 125.719 138.55 125.719 138.298V130.936C125.719 130.684 125.779 130.492 125.899 130.36C126.019 130.228 126.199 130.162 126.439 130.162C126.667 130.162 126.847 130.228 126.979 130.36C127.111 130.492 127.177 130.684 127.177 130.936V138.298C127.177 138.55 127.111 138.748 126.979 138.892C126.859 139.024 126.679 139.09 126.439 139.09ZM126.439 128.146C126.139 128.146 125.905 128.068 125.737 127.912C125.569 127.744 125.485 127.522 125.485 127.246C125.485 126.958 125.569 126.742 125.737 126.598C125.905 126.442 126.139 126.364 126.439 126.364C126.751 126.364 126.985 126.442 127.141 126.598C127.309 126.742 127.393 126.958 127.393 127.246C127.393 127.522 127.309 127.744 127.141 127.912C126.985 128.068 126.751 128.146 126.439 128.146ZM133.035 139.162C132.495 139.162 131.949 139.096 131.397 138.964C130.857 138.832 130.353 138.604 129.885 138.28C129.765 138.196 129.681 138.1 129.633 137.992C129.585 137.872 129.567 137.758 129.579 137.65C129.603 137.53 129.651 137.428 129.723 137.344C129.807 137.26 129.903 137.212 130.011 137.2C130.131 137.176 130.263 137.2 130.407 137.272C130.875 137.56 131.325 137.764 131.757 137.884C132.201 137.992 132.639 138.046 133.071 138.046C133.755 138.046 134.271 137.92 134.619 137.668C134.967 137.416 135.141 137.074 135.141 136.642C135.141 136.306 135.027 136.042 134.799 135.85C134.571 135.646 134.211 135.49 133.719 135.382L132.081 135.022C131.325 134.866 130.761 134.596 130.389 134.212C130.029 133.828 129.849 133.33 129.849 132.718C129.849 132.178 129.987 131.716 130.263 131.332C130.551 130.936 130.953 130.63 131.469 130.414C131.985 130.198 132.585 130.09 133.269 130.09C133.797 130.09 134.295 130.162 134.763 130.306C135.243 130.438 135.675 130.654 136.059 130.954C136.179 131.038 136.257 131.14 136.293 131.26C136.341 131.368 136.347 131.482 136.311 131.602C136.287 131.71 136.233 131.806 136.149 131.89C136.065 131.962 135.963 132.004 135.843 132.016C135.723 132.028 135.597 131.992 135.465 131.908C135.105 131.668 134.739 131.494 134.367 131.386C133.995 131.266 133.629 131.206 133.269 131.206C132.597 131.206 132.087 131.338 131.739 131.602C131.391 131.866 131.217 132.214 131.217 132.646C131.217 132.982 131.325 133.258 131.541 133.474C131.757 133.69 132.093 133.846 132.549 133.942L134.187 134.284C134.967 134.452 135.549 134.722 135.933 135.094C136.329 135.454 136.527 135.946 136.527 136.57C136.527 137.362 136.209 137.992 135.573 138.46C134.937 138.928 134.091 139.162 133.035 139.162ZM145.693 142.366C145.513 142.366 145.369 142.318 145.261 142.222C145.153 142.126 145.087 141.994 145.063 141.826C145.051 141.67 145.081 141.508 145.153 141.34L146.395 138.55V139.18L142.939 131.152C142.867 130.972 142.843 130.804 142.867 130.648C142.891 130.492 142.963 130.366 143.083 130.27C143.203 130.174 143.371 130.126 143.587 130.126C143.779 130.126 143.929 130.168 144.037 130.252C144.145 130.336 144.241 130.486 144.325 130.702L147.277 137.938H146.791L149.779 130.702C149.875 130.486 149.977 130.336 150.085 130.252C150.193 130.168 150.349 130.126 150.553 130.126C150.745 130.126 150.889 130.174 150.985 130.27C151.093 130.366 151.153 130.492 151.165 130.648C151.189 130.792 151.165 130.954 151.093 131.134L146.485 141.79C146.389 142.006 146.281 142.156 146.161 142.24C146.053 142.324 145.897 142.366 145.693 142.366ZM156.994 139.162C156.07 139.162 155.272 138.982 154.6 138.622C153.94 138.25 153.424 137.728 153.052 137.056C152.692 136.384 152.512 135.58 152.512 134.644C152.512 133.732 152.692 132.94 153.052 132.268C153.412 131.584 153.904 131.05 154.528 130.666C155.164 130.282 155.896 130.09 156.724 130.09C157.312 130.09 157.84 130.192 158.308 130.396C158.776 130.588 159.172 130.87 159.496 131.242C159.832 131.614 160.084 132.064 160.252 132.592C160.432 133.12 160.522 133.714 160.522 134.374C160.522 134.566 160.468 134.71 160.36 134.806C160.252 134.89 160.096 134.932 159.892 134.932H153.628V133.978H159.55L159.262 134.212C159.262 133.564 159.166 133.018 158.974 132.574C158.782 132.118 158.5 131.77 158.128 131.53C157.768 131.29 157.312 131.17 156.76 131.17C156.148 131.17 155.626 131.314 155.194 131.602C154.774 131.878 154.456 132.268 154.24 132.772C154.024 133.264 153.916 133.84 153.916 134.5V134.608C153.916 135.712 154.18 136.552 154.708 137.128C155.248 137.704 156.01 137.992 156.994 137.992C157.402 137.992 157.804 137.938 158.2 137.83C158.608 137.722 159.004 137.542 159.388 137.29C159.556 137.182 159.706 137.134 159.838 137.146C159.982 137.146 160.096 137.188 160.18 137.272C160.264 137.344 160.318 137.44 160.342 137.56C160.378 137.668 160.366 137.788 160.306 137.92C160.258 138.052 160.156 138.166 160 138.262C159.604 138.55 159.136 138.772 158.596 138.928C158.056 139.084 157.522 139.162 156.994 139.162ZM165.566 139.162C164.966 139.162 164.426 139.048 163.946 138.82C163.478 138.58 163.106 138.256 162.83 137.848C162.554 137.44 162.416 136.984 162.416 136.48C162.416 135.832 162.578 135.322 162.902 134.95C163.238 134.578 163.784 134.314 164.54 134.158C165.308 134.002 166.352 133.924 167.672 133.924H168.482V134.878H167.69C166.718 134.878 165.95 134.926 165.386 135.022C164.834 135.106 164.444 135.256 164.216 135.472C164 135.688 163.892 135.994 163.892 136.39C163.892 136.882 164.06 137.284 164.396 137.596C164.744 137.908 165.212 138.064 165.8 138.064C166.28 138.064 166.7 137.95 167.06 137.722C167.432 137.494 167.72 137.182 167.924 136.786C168.14 136.39 168.248 135.934 168.248 135.418V133.366C168.248 132.622 168.098 132.088 167.798 131.764C167.498 131.428 167.006 131.26 166.322 131.26C165.902 131.26 165.482 131.314 165.062 131.422C164.642 131.53 164.198 131.704 163.73 131.944C163.562 132.028 163.418 132.058 163.298 132.034C163.178 131.998 163.082 131.932 163.01 131.836C162.938 131.74 162.896 131.632 162.884 131.512C162.872 131.38 162.896 131.254 162.956 131.134C163.028 131.014 163.136 130.918 163.28 130.846C163.808 130.582 164.33 130.39 164.846 130.27C165.362 130.15 165.854 130.09 166.322 130.09C167.078 130.09 167.702 130.216 168.194 130.468C168.686 130.708 169.052 131.08 169.292 131.584C169.532 132.076 169.652 132.712 169.652 133.492V138.37C169.652 138.61 169.592 138.796 169.472 138.928C169.364 139.06 169.202 139.126 168.986 139.126C168.758 139.126 168.584 139.06 168.464 138.928C168.344 138.796 168.284 138.61 168.284 138.37V136.966H168.446C168.35 137.422 168.164 137.812 167.888 138.136C167.624 138.46 167.294 138.712 166.898 138.892C166.502 139.072 166.058 139.162 165.566 139.162ZM173.275 139.126C173.035 139.126 172.849 139.06 172.717 138.928C172.597 138.796 172.537 138.61 172.537 138.37V130.864C172.537 130.624 172.597 130.444 172.717 130.324C172.837 130.192 173.011 130.126 173.239 130.126C173.467 130.126 173.641 130.192 173.761 130.324C173.893 130.444 173.959 130.624 173.959 130.864V132.322H173.779C173.971 131.614 174.337 131.068 174.877 130.684C175.417 130.3 176.083 130.096 176.875 130.072C177.055 130.06 177.199 130.102 177.307 130.198C177.415 130.282 177.475 130.432 177.487 130.648C177.499 130.852 177.451 131.014 177.343 131.134C177.235 131.254 177.067 131.326 176.839 131.35L176.551 131.386C175.735 131.458 175.105 131.722 174.661 132.178C174.229 132.622 174.013 133.234 174.013 134.014V138.37C174.013 138.61 173.947 138.796 173.815 138.928C173.695 139.06 173.515 139.126 173.275 139.126Z" fill="#8287AC"/>
<path d="M211.4 112.162C210.452 112.162 209.636 112.024 208.952 111.748C208.28 111.472 207.764 111.07 207.404 110.542C207.056 110.014 206.882 109.378 206.882 108.634C206.882 108.046 207.002 107.524 207.242 107.068C207.482 106.6 207.818 106.222 208.25 105.934C208.682 105.646 209.18 105.466 209.744 105.394V105.664C208.964 105.496 208.34 105.13 207.872 104.566C207.416 103.99 207.188 103.312 207.188 102.532C207.188 101.812 207.356 101.206 207.692 100.714C208.04 100.21 208.532 99.826 209.168 99.562C209.804 99.286 210.548 99.148 211.4 99.148C212.264 99.148 213.008 99.286 213.632 99.562C214.268 99.826 214.76 100.21 215.108 100.714C215.456 101.206 215.63 101.812 215.63 102.532C215.63 103.048 215.522 103.528 215.306 103.972C215.102 104.404 214.808 104.764 214.424 105.052C214.04 105.34 213.59 105.538 213.074 105.646V105.394C213.926 105.514 214.61 105.868 215.126 106.456C215.654 107.032 215.918 107.758 215.918 108.634C215.918 109.378 215.738 110.014 215.378 110.542C215.03 111.07 214.514 111.472 213.83 111.748C213.158 112.024 212.348 112.162 211.4 112.162ZM211.4 110.938C212.42 110.938 213.188 110.74 213.704 110.344C214.232 109.948 214.496 109.348 214.496 108.544C214.496 107.752 214.232 107.164 213.704 106.78C213.188 106.384 212.42 106.186 211.4 106.186C210.392 106.186 209.624 106.384 209.096 106.78C208.568 107.164 208.304 107.752 208.304 108.544C208.304 109.348 208.568 109.948 209.096 110.344C209.624 110.74 210.392 110.938 211.4 110.938ZM211.4 104.962C211.988 104.962 212.486 104.872 212.894 104.692C213.314 104.5 213.638 104.23 213.866 103.882C214.094 103.534 214.208 103.126 214.208 102.658C214.208 101.938 213.956 101.38 213.452 100.984C212.96 100.576 212.276 100.372 211.4 100.372C210.524 100.372 209.84 100.576 209.348 100.984C208.856 101.38 208.61 101.938 208.61 102.658C208.61 103.378 208.856 103.942 209.348 104.35C209.84 104.758 210.524 104.962 211.4 104.962ZM218.863 112.072C218.563 112.072 218.323 111.982 218.143 111.802C217.963 111.61 217.873 111.37 217.873 111.082C217.873 110.794 217.963 110.56 218.143 110.38C218.323 110.188 218.563 110.092 218.863 110.092C219.163 110.092 219.397 110.188 219.565 110.38C219.745 110.56 219.835 110.794 219.835 111.082C219.835 111.37 219.745 111.61 219.565 111.802C219.397 111.982 219.163 112.072 218.863 112.072ZM223.679 112C223.463 112 223.295 111.946 223.175 111.838C223.055 111.718 222.995 111.556 222.995 111.352C222.995 111.148 223.055 110.998 223.175 110.902C223.295 110.794 223.463 110.74 223.679 110.74H226.019V100.534H226.793L224.183 102.262C224.027 102.346 223.877 102.382 223.733 102.37C223.601 102.358 223.487 102.31 223.391 102.226C223.307 102.13 223.247 102.022 223.211 101.902C223.175 101.77 223.181 101.638 223.229 101.506C223.277 101.362 223.379 101.242 223.535 101.146L226.019 99.508C226.175 99.412 226.325 99.334 226.469 99.274C226.613 99.214 226.757 99.184 226.901 99.184C227.069 99.184 227.207 99.238 227.315 99.346C227.435 99.442 227.495 99.598 227.495 99.814V110.74H229.655C229.871 110.74 230.039 110.794 230.159 110.902C230.279 110.998 230.339 111.148 230.339 111.352C230.339 111.568 230.279 111.73 230.159 111.838C230.039 111.946 229.871 112 229.655 112H223.679Z" fill="#FB8D5E"/>
<path d="M245.6 102C245.6 101.669 245.331 101.4 245 101.4L239.6 101.4C239.269 101.4 239 101.669 239 102C239 102.331 239.269 102.6 239.6 102.6H244.4V107.4C244.4 107.731 244.669 108 245 108C245.331 108 245.6 107.731 245.6 107.4L245.6 102ZM236.424 111.424L245.424 102.424L244.576 101.576L235.576 110.576L236.424 111.424Z" fill="#FB8D5E"/>
<defs>
<filter id="filter0_d_798_471" x="0" y="0" width="285" height="188" filterUnits="userSpaceOnUse" color-interpolation-filters="sRGB">
<feFlood flood-opacity="0" result="BackgroundImageFix"/>
<feColorMatrix in="SourceAlpha" type="matrix" values="0 0 0 0 0 0 0 0 0 0 0 0 0 0 0 0 0 0 127 0" result="hardAlpha"/>
<feOffset dy="2"/>
<feGaussianBlur stdDeviation="10"/>
<feComposite in2="hardAlpha" operator="out"/>
<feColorMatrix type="matrix" values="0 0 0 0 0 0 0 0 0 0 0 0 0 0 0 0 0 0 0.08 0"/>
<feBlend mode="normal" in2="BackgroundImageFix" result="effect1_dropShadow_798_471"/>
<feBlend mode="normal" in="SourceGraphic" in2="effect1_dropShadow_798_471" result="shape"/>
</filter>
<linearGradient id="paint0_linear_798_471" x1="136.718" y1="-130.371" x2="138.663" y2="83.5071" gradientUnits="userSpaceOnUse">
<stop stop-color="#0BB8B3"/>
<stop offset="1" stop-color="#0BB8B3" stop-opacity="0"/>
</linearGradient>
</defs>
</svg>
