<svg width="348" height="260" viewBox="0 0 348 260" fill="none" xmlns="http://www.w3.org/2000/svg">
<rect x="0.5" y="0.5" width="347" height="259" rx="7.5" fill="white" fill-opacity="0.96" stroke="#EEEEEE"/>
<path d="M83.5908 70.3659C83.2411 70.254 82.8646 70.4433 82.7504 70.793C80.239 78.4936 73.1054 83.6669 65.0003 83.6669C54.7077 83.6669 46.3336 75.2928 46.3336 65.0003C46.3336 54.7077 54.7077 46.3336 65.0003 46.3336C73.1062 46.3336 80.2391 51.5068 82.7504 59.2075C82.8647 59.5578 83.2411 59.748 83.5908 59.6346C83.9408 59.52 84.1322 59.1438 84.0179 58.7935C81.3272 50.5429 73.685 45 65 45C53.9722 45 45 53.9722 45 65C45 76.0278 53.9722 85 65 85C73.6842 85 81.3269 79.4571 84.0179 71.2072C84.1322 70.8569 83.9408 70.4807 83.5908 70.3662V70.3659Z" fill="#FB8D5E"/>
<path d="M79.3723 59.6132C79.7107 59.4685 79.8685 59.0765 79.7238 58.7382C77.1985 52.8221 71.419 48.9995 65 48.9995C56.1771 48.9995 49 56.1772 49 64.9995C49 73.8218 56.1774 80.9995 65 80.9995C71.4381 80.9995 77.224 77.1617 79.7398 71.222C79.8833 70.8836 79.7249 70.4922 79.3859 70.3482C79.0464 70.205 78.6559 70.363 78.5118 70.7023C76.205 76.1476 70.9008 79.6654 64.9994 79.6654C56.9126 79.6654 50.3328 73.0859 50.3328 64.9987C50.3334 56.9118 56.9128 50.332 65.0002 50.332C70.8847 50.332 76.1827 53.8365 78.4973 59.26C78.6423 59.5984 79.0342 59.7562 79.3723 59.6115L79.3723 59.6132Z" fill="#FB8D5E"/>
<path d="M75.8502 61.6551C76.1948 61.5256 76.3698 61.1414 76.2404 60.7964C74.491 56.1336 69.974 53.0006 65 53.0006C58.383 53.0006 53 58.3839 53 65.0006C53 71.6173 58.383 77.0006 65 77.0006C69.9735 77.0006 74.491 73.8679 76.2404 69.2048C76.3695 68.8599 76.1948 68.4756 75.8502 68.3461C75.5062 68.2179 75.1213 68.3917 74.9918 68.736C73.4368 72.8818 69.4216 75.667 65.0002 75.667C59.1187 75.667 54.3336 70.8818 54.3336 65.0003C54.3336 59.1188 59.1187 54.3337 65.0002 54.3337C69.4213 54.3337 73.4368 57.1193 74.9918 61.2652C75.1213 61.6102 75.5061 61.784 75.8502 61.6551Z" fill="#FB8D5E"/>
<path d="M71.2104 62.5763C71.3447 62.9188 71.7307 63.0906 72.0744 62.954C72.4173 62.8197 72.586 62.4331 72.4521 62.0906C71.2596 59.0456 68.2646 57.0001 65 57.0001C60.589 57.0001 57 60.5885 57 65.0001C57 69.4117 60.589 73.0001 65 73.0001C68.2646 73.0001 71.2595 70.9546 72.4521 67.9097C72.5863 67.5671 72.4173 67.1805 72.0744 67.0463C71.731 66.9088 71.3447 67.0814 71.2104 67.424C70.2164 69.9618 67.7205 71.6669 64.9997 71.6669C61.3235 71.6669 58.333 68.6761 58.333 65.0002C58.333 61.3243 61.3235 58.3335 64.9997 58.3335C67.7205 58.3335 70.2161 60.0386 71.2104 62.5764V62.5763Z" fill="#FB8D5E"/>
<path d="M65 62.3332C65.5797 62.3332 66.1318 62.5174 66.5967 62.865C66.8916 63.0864 67.3098 63.0257 67.53 62.7317C67.7509 62.4367 67.6908 62.0195 67.3961 61.7987C66.6988 61.2757 65.8706 60.9999 65 60.9999C62.7944 60.9999 61 62.7942 61 64.9999C61 67.2055 62.7944 68.9999 65 68.9999C65.8322 68.9999 66.6306 68.746 67.3086 68.2648C67.6086 68.052 67.6798 67.6359 67.467 67.3356C67.2542 67.0347 66.8378 66.9639 66.5375 67.1773C66.086 67.4969 65.5545 67.6663 65 67.6663C63.5298 67.6663 62.3333 66.4705 62.3333 64.9996C62.3333 63.5288 63.5298 62.3329 65 62.3329L65 62.3332Z" fill="#FB8D5E"/>
<path d="M82.6086 65.6665H84.3312C84.6994 65.6665 84.9979 65.3683 84.9979 64.9998C84.9979 64.6314 84.6994 64.3332 84.3312 64.3332H82.6086L84.8038 62.138C84.9946 61.9472 85.0514 61.6609 84.9485 61.4115C84.8452 61.1621 84.602 60.9999 84.3327 60.9999H78.75C78.5732 60.9999 78.4035 61.0701 78.2785 61.1951L75.1404 64.3333H64.9987C64.6305 64.3333 64.332 64.6315 64.332 64.9999C64.332 65.3684 64.6305 65.6666 64.9987 65.6666H75.1404L78.2785 68.8047C78.4035 68.9297 78.5732 69 78.75 69H84.3327C84.6023 69 84.8455 68.8378 84.9485 68.5884C85.0517 68.339 84.9946 68.0526 84.8038 67.8619L82.6086 65.6665ZM79.0259 62.3332H82.7232L80.7232 64.3332H77.0259L79.0259 62.3332ZM79.0259 67.6665L77.0259 65.6665H80.7232L82.7232 67.6665H79.0259Z" fill="#FB8D5E"/>
<path d="M100 65C100 84.33 84.33 100 65 100C45.67 100 30 84.33 30 65C30 45.67 45.67 30 65 30C84.33 30 100 45.67 100 65ZM32.9307 65C32.9307 82.7114 47.2886 97.0693 65 97.0693C82.7114 97.0693 97.0693 82.7114 97.0693 65C97.0693 47.2886 82.7114 32.9307 65 32.9307C47.2886 32.9307 32.9307 47.2886 32.9307 65Z" fill="#F9F9F9"/>
<path d="M65 31.3406C65 30.6002 65.6005 29.9973 66.3403 30.0257C71.7266 30.2321 76.9991 31.6802 81.7432 34.2646C86.8802 37.063 91.2338 41.1043 94.4062 46.0191C97.5786 50.9339 99.4685 56.5655 99.9032 62.3991C100.338 68.2327 99.3036 74.0822 96.8946 79.4129C94.4857 84.7436 90.7791 89.3856 86.1136 92.9144C81.4481 96.4433 75.9725 98.7465 70.1874 99.6134C64.4023 100.48 58.4921 99.8836 52.9971 97.8775C47.9223 96.0248 43.3512 93.0247 39.6367 89.1186C39.1265 88.582 39.1822 87.733 39.7379 87.2437C40.2935 86.7544 41.1386 86.8104 41.6505 87.3453C45.0676 90.916 49.2628 93.66 53.9165 95.359C58.9906 97.2114 64.448 97.7625 69.79 96.9619C75.132 96.1613 80.1881 94.0346 84.4962 90.7761C88.8043 87.5176 92.227 83.2312 94.4514 78.3088C96.6758 73.3865 97.6309 67.9851 97.2295 62.5983C96.8281 57.2116 95.083 52.0115 92.1536 47.4731C89.2242 42.9348 85.2041 39.2031 80.4606 36.619C76.11 34.2491 71.2783 32.9139 66.3402 32.7089C65.6005 32.6782 65 32.0809 65 31.3406Z" fill="#FB8D5E"/>
<path d="M126.86 62.28C126.057 62.28 125.227 62.1587 124.368 61.916C123.509 61.6547 122.707 61.272 121.96 60.768C121.661 60.5813 121.465 60.3387 121.372 60.04C121.279 59.7413 121.26 59.452 121.316 59.172C121.391 58.8733 121.521 58.6213 121.708 58.416C121.913 58.192 122.165 58.0613 122.464 58.024C122.763 57.968 123.089 58.0427 123.444 58.248C124.079 58.6213 124.676 58.8827 125.236 59.032C125.796 59.1813 126.356 59.256 126.916 59.256C127.999 59.256 128.913 59.004 129.66 58.5C130.407 57.996 130.967 57.24 131.34 56.232C131.732 55.2053 131.928 53.9453 131.928 52.452V50.352H132.264C132.133 51.2853 131.825 52.0973 131.34 52.788C130.855 53.4787 130.239 54.0107 129.492 54.384C128.745 54.7387 127.915 54.916 127 54.916C125.88 54.916 124.872 54.6453 123.976 54.104C123.099 53.5627 122.408 52.816 121.904 51.864C121.4 50.8933 121.148 49.8013 121.148 48.588C121.148 47.3 121.419 46.1613 121.96 45.172C122.52 44.1827 123.295 43.408 124.284 42.848C125.273 42.2693 126.403 41.98 127.672 41.98C129.315 41.98 130.705 42.3627 131.844 43.128C132.983 43.8933 133.851 45.0133 134.448 46.488C135.045 47.944 135.344 49.708 135.344 51.78C135.344 53.46 135.148 54.9533 134.756 56.26C134.383 57.548 133.832 58.64 133.104 59.536C132.376 60.432 131.48 61.1133 130.416 61.58C129.371 62.0467 128.185 62.28 126.86 62.28ZM127.896 52.06C128.568 52.06 129.156 51.9107 129.66 51.612C130.183 51.2947 130.584 50.8653 130.864 50.324C131.144 49.764 131.284 49.1293 131.284 48.42C131.284 47.692 131.144 47.0573 130.864 46.516C130.584 45.9747 130.183 45.5547 129.66 45.256C129.156 44.9573 128.568 44.808 127.896 44.808C127.224 44.808 126.636 44.9573 126.132 45.256C125.628 45.5547 125.227 45.9747 124.928 46.516C124.648 47.0573 124.508 47.692 124.508 48.42C124.508 49.1293 124.648 49.764 124.928 50.324C125.227 50.8653 125.628 51.2947 126.132 51.612C126.636 51.9107 127.224 52.06 127.896 52.06ZM145.637 62.28C144.648 62.28 143.64 62.1493 142.613 61.888C141.586 61.6267 140.644 61.2253 139.785 60.684C139.43 60.46 139.188 60.1987 139.057 59.9C138.945 59.5827 138.917 59.2747 138.973 58.976C139.048 58.6587 139.188 58.3973 139.393 58.192C139.617 57.968 139.878 57.8373 140.177 57.8C140.494 57.7627 140.84 57.8467 141.213 58.052C141.904 58.444 142.604 58.7427 143.313 58.948C144.022 59.1533 144.778 59.256 145.581 59.256C146.365 59.256 147.037 59.116 147.597 58.836C148.157 58.556 148.586 58.164 148.885 57.66C149.184 57.156 149.333 56.568 149.333 55.896C149.333 54.8507 149.016 54.0107 148.381 53.376C147.746 52.7227 146.878 52.396 145.777 52.396C145.18 52.396 144.601 52.4987 144.041 52.704C143.481 52.8907 142.93 53.2267 142.389 53.712C142.221 53.8613 142.006 54.0107 141.745 54.16C141.484 54.2907 141.204 54.356 140.905 54.356C140.438 54.356 140.084 54.2347 139.841 53.992C139.598 53.7493 139.477 53.4133 139.477 52.984V43.828C139.477 43.324 139.608 42.9413 139.869 42.68C140.149 42.4 140.541 42.26 141.045 42.26H150.257C150.761 42.26 151.144 42.3907 151.405 42.652C151.685 42.8947 151.825 43.2587 151.825 43.744C151.825 44.2107 151.685 44.5747 151.405 44.836C151.144 45.0973 150.761 45.228 150.257 45.228H142.977V51.5H142.053C142.538 50.8467 143.182 50.3427 143.985 49.988C144.788 49.6333 145.665 49.456 146.617 49.456C147.868 49.456 148.95 49.7267 149.865 50.268C150.798 50.7907 151.517 51.528 152.021 52.48C152.544 53.4133 152.805 54.5053 152.805 55.756C152.805 57.044 152.516 58.1827 151.937 59.172C151.358 60.1427 150.528 60.908 149.445 61.468C148.381 62.0093 147.112 62.28 145.637 62.28ZM163.35 61.776C163.163 62.112 162.93 62.3267 162.65 62.42C162.389 62.532 162.118 62.5507 161.838 62.476C161.577 62.42 161.353 62.2893 161.166 62.084C160.979 61.8973 160.867 61.664 160.83 61.384C160.793 61.0853 160.867 60.768 161.054 60.432L171.386 42.512C171.573 42.176 171.797 41.952 172.058 41.84C172.338 41.728 172.609 41.7093 172.87 41.784C173.131 41.84 173.355 41.9707 173.542 42.176C173.729 42.3813 173.841 42.6333 173.878 42.932C173.934 43.212 173.869 43.5107 173.682 43.828L163.35 61.776ZM160.354 54.048C158.786 54.048 157.563 53.5067 156.686 52.424C155.809 51.3413 155.37 49.8667 155.37 48C155.37 46.7493 155.566 45.676 155.958 44.78C156.35 43.884 156.919 43.1933 157.666 42.708C158.413 42.2227 159.309 41.98 160.354 41.98C161.922 41.98 163.145 42.5213 164.022 43.604C164.899 44.668 165.338 46.1333 165.338 48C165.338 49.2507 165.142 50.3333 164.75 51.248C164.358 52.144 163.789 52.8347 163.042 53.32C162.295 53.8053 161.399 54.048 160.354 54.048ZM160.354 51.696C160.802 51.696 161.185 51.5653 161.502 51.304C161.819 51.024 162.062 50.6133 162.23 50.072C162.398 49.5307 162.482 48.84 162.482 48C162.482 46.7493 162.295 45.8253 161.922 45.228C161.549 44.6307 161.026 44.332 160.354 44.332C159.906 44.332 159.523 44.4627 159.206 44.724C158.889 44.9853 158.646 45.3867 158.478 45.928C158.31 46.4693 158.226 47.16 158.226 48C158.226 49.2693 158.413 50.2027 158.786 50.8C159.159 51.3973 159.682 51.696 160.354 51.696ZM174.41 62.28C172.842 62.28 171.619 61.7387 170.742 60.656C169.865 59.5733 169.426 58.0987 169.426 56.232C169.426 54.9813 169.622 53.908 170.014 53.012C170.406 52.116 170.975 51.4253 171.722 50.94C172.469 50.4547 173.365 50.212 174.41 50.212C175.978 50.212 177.201 50.7533 178.078 51.836C178.955 52.9 179.394 54.3653 179.394 56.232C179.394 57.4827 179.198 58.5653 178.806 59.48C178.414 60.376 177.845 61.0667 177.098 61.552C176.351 62.0373 175.455 62.28 174.41 62.28ZM174.41 59.928C174.858 59.928 175.241 59.7973 175.558 59.536C175.875 59.2747 176.118 58.8733 176.286 58.332C176.454 57.772 176.538 57.072 176.538 56.232C176.538 54.9813 176.351 54.0573 175.978 53.46C175.605 52.8627 175.082 52.564 174.41 52.564C173.962 52.564 173.579 52.6947 173.262 52.956C172.945 53.2173 172.702 53.6187 172.534 54.16C172.366 54.7013 172.282 55.392 172.282 56.232C172.282 57.5013 172.469 58.4347 172.842 59.032C173.215 59.6293 173.738 59.928 174.41 59.928Z" fill="#050F58"/>
<path d="M122.304 89.126C122.064 89.126 121.878 89.06 121.746 88.928C121.626 88.784 121.566 88.592 121.566 88.352V77.066C121.566 76.814 121.632 76.628 121.764 76.508C121.896 76.376 122.082 76.31 122.322 76.31H126.588C127.944 76.31 128.988 76.646 129.72 77.318C130.452 77.978 130.818 78.914 130.818 80.126C130.818 81.326 130.452 82.262 129.72 82.934C128.988 83.606 127.944 83.942 126.588 83.942H123.042V88.352C123.042 88.592 122.982 88.784 122.862 88.928C122.742 89.06 122.556 89.126 122.304 89.126ZM123.042 82.7H126.408C127.38 82.7 128.112 82.484 128.604 82.052C129.108 81.608 129.36 80.966 129.36 80.126C129.36 79.274 129.108 78.632 128.604 78.2C128.112 77.756 127.38 77.534 126.408 77.534H123.042V82.7ZM136.188 89.162C135.336 89.162 134.598 88.976 133.974 88.604C133.35 88.232 132.864 87.71 132.516 87.038C132.18 86.354 132.012 85.55 132.012 84.626C132.012 83.93 132.108 83.306 132.3 82.754C132.492 82.19 132.774 81.71 133.146 81.314C133.518 80.918 133.956 80.618 134.46 80.414C134.976 80.198 135.552 80.09 136.188 80.09C137.04 80.09 137.778 80.276 138.402 80.648C139.026 81.02 139.506 81.548 139.842 82.232C140.19 82.904 140.364 83.702 140.364 84.626C140.364 85.322 140.268 85.946 140.076 86.498C139.884 87.05 139.602 87.53 139.23 87.938C138.858 88.334 138.414 88.64 137.898 88.856C137.394 89.06 136.824 89.162 136.188 89.162ZM136.188 87.992C136.728 87.992 137.202 87.86 137.61 87.596C138.018 87.332 138.33 86.948 138.546 86.444C138.774 85.94 138.888 85.334 138.888 84.626C138.888 83.534 138.642 82.7 138.15 82.124C137.67 81.548 137.016 81.26 136.188 81.26C135.636 81.26 135.156 81.392 134.748 81.656C134.352 81.908 134.04 82.286 133.812 82.79C133.596 83.282 133.488 83.894 133.488 84.626C133.488 85.706 133.734 86.54 134.226 87.128C134.718 87.704 135.372 87.992 136.188 87.992ZM145.635 89.126C145.431 89.126 145.251 89.072 145.095 88.964C144.939 88.856 144.813 88.682 144.717 88.442L142.035 81.152C141.963 80.948 141.939 80.768 141.963 80.612C141.999 80.456 142.077 80.336 142.197 80.252C142.317 80.168 142.467 80.126 142.647 80.126C142.827 80.126 142.971 80.168 143.079 80.252C143.199 80.336 143.295 80.492 143.367 80.72L145.887 87.92H145.455L148.047 80.72C148.131 80.504 148.233 80.354 148.353 80.27C148.485 80.174 148.653 80.126 148.857 80.126C149.049 80.126 149.211 80.174 149.343 80.27C149.475 80.366 149.577 80.516 149.649 80.72L152.187 87.92H151.773L154.329 80.684C154.413 80.468 154.515 80.324 154.635 80.252C154.755 80.168 154.899 80.126 155.067 80.126C155.259 80.126 155.403 80.174 155.499 80.27C155.607 80.366 155.667 80.492 155.679 80.648C155.691 80.804 155.661 80.972 155.589 81.152L152.907 88.442C152.823 88.67 152.697 88.844 152.529 88.964C152.373 89.072 152.193 89.126 151.989 89.126C151.785 89.126 151.605 89.072 151.449 88.964C151.293 88.844 151.173 88.67 151.089 88.442L148.425 81.134H149.199L146.553 88.442C146.469 88.67 146.349 88.844 146.193 88.964C146.037 89.072 145.851 89.126 145.635 89.126ZM161.745 89.162C160.821 89.162 160.023 88.982 159.351 88.622C158.691 88.25 158.175 87.728 157.803 87.056C157.443 86.384 157.263 85.58 157.263 84.644C157.263 83.732 157.443 82.94 157.803 82.268C158.163 81.584 158.655 81.05 159.279 80.666C159.915 80.282 160.647 80.09 161.475 80.09C162.063 80.09 162.591 80.192 163.059 80.396C163.527 80.588 163.923 80.87 164.247 81.242C164.583 81.614 164.835 82.064 165.003 82.592C165.183 83.12 165.273 83.714 165.273 84.374C165.273 84.566 165.219 84.71 165.111 84.806C165.003 84.89 164.847 84.932 164.643 84.932H158.379V83.978H164.301L164.013 84.212C164.013 83.564 163.917 83.018 163.725 82.574C163.533 82.118 163.251 81.77 162.879 81.53C162.519 81.29 162.063 81.17 161.511 81.17C160.899 81.17 160.377 81.314 159.945 81.602C159.525 81.878 159.207 82.268 158.991 82.772C158.775 83.264 158.667 83.84 158.667 84.5V84.608C158.667 85.712 158.931 86.552 159.459 87.128C159.999 87.704 160.761 87.992 161.745 87.992C162.153 87.992 162.555 87.938 162.951 87.83C163.359 87.722 163.755 87.542 164.139 87.29C164.307 87.182 164.457 87.134 164.589 87.146C164.733 87.146 164.847 87.188 164.931 87.272C165.015 87.344 165.069 87.44 165.093 87.56C165.129 87.668 165.117 87.788 165.057 87.92C165.009 88.052 164.907 88.166 164.751 88.262C164.355 88.55 163.887 88.772 163.347 88.928C162.807 89.084 162.273 89.162 161.745 89.162ZM168.301 89.126C168.061 89.126 167.875 89.06 167.743 88.928C167.623 88.796 167.563 88.61 167.563 88.37V80.864C167.563 80.624 167.623 80.444 167.743 80.324C167.863 80.192 168.037 80.126 168.265 80.126C168.493 80.126 168.667 80.192 168.787 80.324C168.919 80.444 168.985 80.624 168.985 80.864V82.322H168.805C168.997 81.614 169.363 81.068 169.903 80.684C170.443 80.3 171.109 80.096 171.901 80.072C172.081 80.06 172.225 80.102 172.333 80.198C172.441 80.282 172.501 80.432 172.513 80.648C172.525 80.852 172.477 81.014 172.369 81.134C172.261 81.254 172.093 81.326 171.865 81.35L171.577 81.386C170.761 81.458 170.131 81.722 169.687 82.178C169.255 82.622 169.039 83.234 169.039 84.014V88.37C169.039 88.61 168.973 88.796 168.841 88.928C168.721 89.06 168.541 89.126 168.301 89.126ZM175.856 89.126C175.628 89.126 175.448 89.06 175.316 88.928C175.196 88.796 175.136 88.61 175.136 88.37V81.386H173.984C173.792 81.386 173.636 81.338 173.516 81.242C173.408 81.134 173.354 80.99 173.354 80.81C173.354 80.63 173.408 80.492 173.516 80.396C173.636 80.3 173.792 80.252 173.984 80.252H175.532L175.136 80.63V79.946C175.136 78.806 175.412 77.936 175.964 77.336C176.528 76.736 177.35 76.388 178.43 76.292L178.952 76.238C179.12 76.226 179.252 76.256 179.348 76.328C179.456 76.4 179.522 76.49 179.546 76.598C179.582 76.706 179.588 76.82 179.564 76.94C179.54 77.048 179.486 77.144 179.402 77.228C179.318 77.312 179.216 77.36 179.096 77.372L178.682 77.408C177.95 77.468 177.416 77.69 177.08 78.074C176.756 78.458 176.594 79.022 176.594 79.766V80.522L176.378 80.252H178.538C178.742 80.252 178.898 80.3 179.006 80.396C179.114 80.492 179.168 80.63 179.168 80.81C179.168 80.99 179.114 81.134 179.006 81.242C178.898 81.338 178.742 81.386 178.538 81.386H176.594V88.37C176.594 88.874 176.348 89.126 175.856 89.126ZM183.939 89.162C183.231 89.162 182.643 89.036 182.175 88.784C181.719 88.52 181.371 88.13 181.131 87.614C180.903 87.098 180.789 86.456 180.789 85.688V80.864C180.789 80.612 180.849 80.426 180.969 80.306C181.101 80.186 181.281 80.126 181.509 80.126C181.749 80.126 181.929 80.186 182.049 80.306C182.181 80.426 182.247 80.612 182.247 80.864V85.67C182.247 86.438 182.403 87.014 182.715 87.398C183.039 87.77 183.543 87.956 184.227 87.956C184.971 87.956 185.577 87.704 186.045 87.2C186.513 86.696 186.747 86.036 186.747 85.22V80.864C186.747 80.612 186.807 80.426 186.927 80.306C187.059 80.186 187.245 80.126 187.485 80.126C187.713 80.126 187.887 80.186 188.007 80.306C188.139 80.426 188.205 80.612 188.205 80.864V88.37C188.205 88.874 187.971 89.126 187.503 89.126C187.275 89.126 187.095 89.06 186.963 88.928C186.843 88.796 186.783 88.61 186.783 88.37V86.732L187.017 86.984C186.777 87.692 186.381 88.232 185.829 88.604C185.289 88.976 184.659 89.162 183.939 89.162ZM193.776 89.162C192.912 89.162 192.252 88.898 191.796 88.37C191.34 87.842 191.112 87.086 191.112 86.102V76.922C191.112 76.682 191.172 76.502 191.292 76.382C191.412 76.25 191.592 76.184 191.832 76.184C192.06 76.184 192.24 76.25 192.372 76.382C192.504 76.502 192.57 76.682 192.57 76.922V85.994C192.57 86.642 192.696 87.128 192.948 87.452C193.212 87.764 193.596 87.92 194.1 87.92C194.208 87.92 194.304 87.914 194.388 87.902C194.472 87.89 194.556 87.884 194.64 87.884C194.772 87.872 194.862 87.902 194.91 87.974C194.97 88.046 195 88.19 195 88.406C195 88.622 194.952 88.784 194.856 88.892C194.76 89 194.604 89.072 194.388 89.108C194.292 89.12 194.19 89.132 194.082 89.144C193.974 89.156 193.872 89.162 193.776 89.162ZM207.127 89.162C205.879 89.162 204.811 88.898 203.923 88.37C203.035 87.842 202.351 87.092 201.871 86.12C201.403 85.148 201.169 83.99 201.169 82.646C201.169 81.638 201.301 80.738 201.565 79.946C201.841 79.142 202.231 78.464 202.735 77.912C203.251 77.348 203.881 76.916 204.625 76.616C205.369 76.304 206.203 76.148 207.127 76.148C207.871 76.148 208.579 76.256 209.251 76.472C209.923 76.676 210.505 76.982 210.997 77.39C211.153 77.51 211.255 77.648 211.303 77.804C211.363 77.948 211.369 78.092 211.321 78.236C211.285 78.368 211.213 78.482 211.105 78.578C211.009 78.662 210.889 78.704 210.745 78.704C210.601 78.704 210.439 78.644 210.259 78.524C209.827 78.176 209.353 77.918 208.837 77.75C208.321 77.582 207.763 77.498 207.163 77.498C206.215 77.498 205.411 77.702 204.751 78.11C204.091 78.506 203.593 79.088 203.257 79.856C202.921 80.624 202.753 81.554 202.753 82.646C202.753 83.738 202.921 84.674 203.257 85.454C203.593 86.222 204.091 86.81 204.751 87.218C205.411 87.614 206.215 87.812 207.163 87.812C207.751 87.812 208.309 87.728 208.837 87.56C209.365 87.38 209.851 87.116 210.295 86.768C210.475 86.648 210.637 86.594 210.781 86.606C210.925 86.606 211.045 86.648 211.141 86.732C211.237 86.816 211.303 86.924 211.339 87.056C211.387 87.188 211.387 87.326 211.339 87.47C211.303 87.614 211.213 87.74 211.069 87.848C210.565 88.28 209.971 88.61 209.287 88.838C208.615 89.054 207.895 89.162 207.127 89.162ZM216.633 89.162C215.925 89.162 215.337 89.036 214.869 88.784C214.413 88.52 214.065 88.13 213.825 87.614C213.597 87.098 213.483 86.456 213.483 85.688V80.864C213.483 80.612 213.543 80.426 213.663 80.306C213.795 80.186 213.975 80.126 214.203 80.126C214.443 80.126 214.623 80.186 214.743 80.306C214.875 80.426 214.941 80.612 214.941 80.864V85.67C214.941 86.438 215.097 87.014 215.409 87.398C215.733 87.77 216.237 87.956 216.921 87.956C217.665 87.956 218.271 87.704 218.739 87.2C219.207 86.696 219.441 86.036 219.441 85.22V80.864C219.441 80.612 219.501 80.426 219.621 80.306C219.753 80.186 219.939 80.126 220.179 80.126C220.407 80.126 220.581 80.186 220.701 80.306C220.833 80.426 220.899 80.612 220.899 80.864V88.37C220.899 88.874 220.665 89.126 220.197 89.126C219.969 89.126 219.789 89.06 219.657 88.928C219.537 88.796 219.477 88.61 219.477 88.37V86.732L219.711 86.984C219.471 87.692 219.075 88.232 218.523 88.604C217.983 88.976 217.353 89.162 216.633 89.162ZM226.759 89.162C226.219 89.162 225.673 89.096 225.121 88.964C224.581 88.832 224.077 88.604 223.609 88.28C223.489 88.196 223.405 88.1 223.357 87.992C223.309 87.872 223.291 87.758 223.303 87.65C223.327 87.53 223.375 87.428 223.447 87.344C223.531 87.26 223.627 87.212 223.735 87.2C223.855 87.176 223.987 87.2 224.131 87.272C224.599 87.56 225.049 87.764 225.481 87.884C225.925 87.992 226.363 88.046 226.795 88.046C227.479 88.046 227.995 87.92 228.343 87.668C228.691 87.416 228.865 87.074 228.865 86.642C228.865 86.306 228.751 86.042 228.523 85.85C228.295 85.646 227.935 85.49 227.443 85.382L225.805 85.022C225.049 84.866 224.485 84.596 224.113 84.212C223.753 83.828 223.573 83.33 223.573 82.718C223.573 82.178 223.711 81.716 223.987 81.332C224.275 80.936 224.677 80.63 225.193 80.414C225.709 80.198 226.309 80.09 226.993 80.09C227.521 80.09 228.019 80.162 228.487 80.306C228.967 80.438 229.399 80.654 229.783 80.954C229.903 81.038 229.981 81.14 230.017 81.26C230.065 81.368 230.071 81.482 230.035 81.602C230.011 81.71 229.957 81.806 229.873 81.89C229.789 81.962 229.687 82.004 229.567 82.016C229.447 82.028 229.321 81.992 229.189 81.908C228.829 81.668 228.463 81.494 228.091 81.386C227.719 81.266 227.353 81.206 226.993 81.206C226.321 81.206 225.811 81.338 225.463 81.602C225.115 81.866 224.941 82.214 224.941 82.646C224.941 82.982 225.049 83.258 225.265 83.474C225.481 83.69 225.817 83.846 226.273 83.942L227.911 84.284C228.691 84.452 229.273 84.722 229.657 85.094C230.053 85.454 230.251 85.946 230.251 86.57C230.251 87.362 229.933 87.992 229.297 88.46C228.661 88.928 227.815 89.162 226.759 89.162ZM236.075 89.162C235.391 89.162 234.815 89.042 234.347 88.802C233.891 88.55 233.549 88.19 233.321 87.722C233.093 87.242 232.979 86.66 232.979 85.976V81.386H231.773C231.569 81.386 231.413 81.338 231.305 81.242C231.197 81.134 231.143 80.99 231.143 80.81C231.143 80.63 231.197 80.492 231.305 80.396C231.413 80.3 231.569 80.252 231.773 80.252H232.979V78.182C232.979 77.942 233.045 77.762 233.177 77.642C233.309 77.51 233.489 77.444 233.717 77.444C233.945 77.444 234.119 77.51 234.239 77.642C234.371 77.762 234.437 77.942 234.437 78.182V80.252H236.705C236.909 80.252 237.065 80.3 237.173 80.396C237.281 80.492 237.335 80.63 237.335 80.81C237.335 80.99 237.281 81.134 237.173 81.242C237.065 81.338 236.909 81.386 236.705 81.386H234.437V85.832C234.437 86.516 234.581 87.038 234.869 87.398C235.157 87.746 235.625 87.92 236.273 87.92C236.501 87.92 236.693 87.896 236.849 87.848C237.017 87.8 237.155 87.776 237.263 87.776C237.371 87.764 237.461 87.8 237.533 87.884C237.605 87.968 237.641 88.112 237.641 88.316C237.641 88.46 237.611 88.592 237.551 88.712C237.503 88.832 237.413 88.916 237.281 88.964C237.137 89.012 236.945 89.054 236.705 89.09C236.477 89.138 236.267 89.162 236.075 89.162ZM242.586 89.162C241.734 89.162 240.996 88.976 240.372 88.604C239.748 88.232 239.262 87.71 238.914 87.038C238.578 86.354 238.41 85.55 238.41 84.626C238.41 83.93 238.506 83.306 238.698 82.754C238.89 82.19 239.172 81.71 239.544 81.314C239.916 80.918 240.354 80.618 240.858 80.414C241.374 80.198 241.95 80.09 242.586 80.09C243.438 80.09 244.176 80.276 244.8 80.648C245.424 81.02 245.904 81.548 246.24 82.232C246.588 82.904 246.762 83.702 246.762 84.626C246.762 85.322 246.666 85.946 246.474 86.498C246.282 87.05 246 87.53 245.628 87.938C245.256 88.334 244.812 88.64 244.296 88.856C243.792 89.06 243.222 89.162 242.586 89.162ZM242.586 87.992C243.126 87.992 243.6 87.86 244.008 87.596C244.416 87.332 244.728 86.948 244.944 86.444C245.172 85.94 245.286 85.334 245.286 84.626C245.286 83.534 245.04 82.7 244.548 82.124C244.068 81.548 243.414 81.26 242.586 81.26C242.034 81.26 241.554 81.392 241.146 81.656C240.75 81.908 240.438 82.286 240.21 82.79C239.994 83.282 239.886 83.894 239.886 84.626C239.886 85.706 240.132 86.54 240.624 87.128C241.116 87.704 241.77 87.992 242.586 87.992ZM249.888 89.126C249.648 89.126 249.468 89.06 249.348 88.928C249.228 88.796 249.168 88.61 249.168 88.37V80.864C249.168 80.624 249.228 80.444 249.348 80.324C249.468 80.192 249.642 80.126 249.87 80.126C250.098 80.126 250.272 80.192 250.392 80.324C250.524 80.444 250.59 80.624 250.59 80.864V82.448L250.392 82.196C250.62 81.524 250.986 81.008 251.49 80.648C252.006 80.276 252.618 80.09 253.326 80.09C254.07 80.09 254.67 80.27 255.126 80.63C255.594 80.978 255.906 81.524 256.062 82.268H255.792C256.008 81.596 256.392 81.068 256.944 80.684C257.508 80.288 258.162 80.09 258.906 80.09C259.566 80.09 260.106 80.216 260.526 80.468C260.958 80.72 261.282 81.104 261.498 81.62C261.714 82.124 261.822 82.766 261.822 83.546V88.37C261.822 88.61 261.756 88.796 261.624 88.928C261.504 89.06 261.324 89.126 261.084 89.126C260.856 89.126 260.676 89.06 260.544 88.928C260.424 88.796 260.364 88.61 260.364 88.37V83.618C260.364 82.814 260.226 82.226 259.95 81.854C259.674 81.47 259.206 81.278 258.546 81.278C257.826 81.278 257.256 81.53 256.836 82.034C256.428 82.526 256.224 83.198 256.224 84.05V88.37C256.224 88.61 256.158 88.796 256.026 88.928C255.906 89.06 255.726 89.126 255.486 89.126C255.258 89.126 255.078 89.06 254.946 88.928C254.826 88.796 254.766 88.61 254.766 88.37V83.618C254.766 82.814 254.622 82.226 254.334 81.854C254.058 81.47 253.596 81.278 252.948 81.278C252.228 81.278 251.658 81.53 251.238 82.034C250.83 82.526 250.626 83.198 250.626 84.05V88.37C250.626 88.874 250.38 89.126 249.888 89.126ZM265.448 89.09C265.208 89.09 265.028 89.024 264.908 88.892C264.788 88.748 264.728 88.55 264.728 88.298V80.936C264.728 80.684 264.788 80.492 264.908 80.36C265.028 80.228 265.208 80.162 265.448 80.162C265.676 80.162 265.856 80.228 265.988 80.36C266.12 80.492 266.186 80.684 266.186 80.936V88.298C266.186 88.55 266.12 88.748 265.988 88.892C265.868 89.024 265.688 89.09 265.448 89.09ZM265.448 78.146C265.148 78.146 264.914 78.068 264.746 77.912C264.578 77.744 264.494 77.522 264.494 77.246C264.494 76.958 264.578 76.742 264.746 76.598C264.914 76.442 265.148 76.364 265.448 76.364C265.76 76.364 265.994 76.442 266.15 76.598C266.318 76.742 266.402 76.958 266.402 77.246C266.402 77.522 266.318 77.744 266.15 77.912C265.994 78.068 265.76 78.146 265.448 78.146ZM269.254 89C269.098 89 268.972 88.964 268.876 88.892C268.78 88.82 268.714 88.724 268.678 88.604C268.642 88.484 268.642 88.352 268.678 88.208C268.714 88.064 268.792 87.926 268.912 87.794L273.988 81.008V81.386H269.182C268.99 81.386 268.84 81.338 268.732 81.242C268.636 81.134 268.588 80.99 268.588 80.81C268.588 80.63 268.636 80.492 268.732 80.396C268.84 80.3 268.99 80.252 269.182 80.252H274.708C274.888 80.252 275.032 80.288 275.14 80.36C275.26 80.432 275.338 80.528 275.374 80.648C275.41 80.756 275.41 80.882 275.374 81.026C275.35 81.158 275.284 81.29 275.176 81.422L270.01 88.28V87.866H275.068C275.464 87.866 275.662 88.052 275.662 88.424C275.662 88.604 275.608 88.748 275.5 88.856C275.404 88.952 275.26 89 275.068 89H269.254ZM280.27 89.162C279.67 89.162 279.13 89.048 278.65 88.82C278.182 88.58 277.81 88.256 277.534 87.848C277.258 87.44 277.12 86.984 277.12 86.48C277.12 85.832 277.282 85.322 277.606 84.95C277.942 84.578 278.488 84.314 279.244 84.158C280.012 84.002 281.056 83.924 282.376 83.924H283.186V84.878H282.394C281.422 84.878 280.654 84.926 280.09 85.022C279.538 85.106 279.148 85.256 278.92 85.472C278.704 85.688 278.596 85.994 278.596 86.39C278.596 86.882 278.764 87.284 279.1 87.596C279.448 87.908 279.916 88.064 280.504 88.064C280.984 88.064 281.404 87.95 281.764 87.722C282.136 87.494 282.424 87.182 282.628 86.786C282.844 86.39 282.952 85.934 282.952 85.418V83.366C282.952 82.622 282.802 82.088 282.502 81.764C282.202 81.428 281.71 81.26 281.026 81.26C280.606 81.26 280.186 81.314 279.766 81.422C279.346 81.53 278.902 81.704 278.434 81.944C278.266 82.028 278.122 82.058 278.002 82.034C277.882 81.998 277.786 81.932 277.714 81.836C277.642 81.74 277.6 81.632 277.588 81.512C277.576 81.38 277.6 81.254 277.66 81.134C277.732 81.014 277.84 80.918 277.984 80.846C278.512 80.582 279.034 80.39 279.55 80.27C280.066 80.15 280.558 80.09 281.026 80.09C281.782 80.09 282.406 80.216 282.898 80.468C283.39 80.708 283.756 81.08 283.996 81.584C284.236 82.076 284.356 82.712 284.356 83.492V88.37C284.356 88.61 284.296 88.796 284.176 88.928C284.068 89.06 283.906 89.126 283.69 89.126C283.462 89.126 283.288 89.06 283.168 88.928C283.048 88.796 282.988 88.61 282.988 88.37V86.966H283.15C283.054 87.422 282.868 87.812 282.592 88.136C282.328 88.46 281.998 88.712 281.602 88.892C281.206 89.072 280.762 89.162 280.27 89.162ZM290.751 89.162C290.067 89.162 289.491 89.042 289.023 88.802C288.567 88.55 288.225 88.19 287.997 87.722C287.769 87.242 287.655 86.66 287.655 85.976V81.386H286.449C286.245 81.386 286.089 81.338 285.981 81.242C285.873 81.134 285.819 80.99 285.819 80.81C285.819 80.63 285.873 80.492 285.981 80.396C286.089 80.3 286.245 80.252 286.449 80.252H287.655V78.182C287.655 77.942 287.721 77.762 287.853 77.642C287.985 77.51 288.165 77.444 288.393 77.444C288.621 77.444 288.795 77.51 288.915 77.642C289.047 77.762 289.113 77.942 289.113 78.182V80.252H291.381C291.585 80.252 291.741 80.3 291.849 80.396C291.957 80.492 292.011 80.63 292.011 80.81C292.011 80.99 291.957 81.134 291.849 81.242C291.741 81.338 291.585 81.386 291.381 81.386H289.113V85.832C289.113 86.516 289.257 87.038 289.545 87.398C289.833 87.746 290.301 87.92 290.949 87.92C291.177 87.92 291.369 87.896 291.525 87.848C291.693 87.8 291.831 87.776 291.939 87.776C292.047 87.764 292.137 87.8 292.209 87.884C292.281 87.968 292.317 88.112 292.317 88.316C292.317 88.46 292.287 88.592 292.227 88.712C292.179 88.832 292.089 88.916 291.957 88.964C291.813 89.012 291.621 89.054 291.381 89.09C291.153 89.138 290.943 89.162 290.751 89.162ZM294.539 89.09C294.299 89.09 294.119 89.024 293.999 88.892C293.879 88.748 293.819 88.55 293.819 88.298V80.936C293.819 80.684 293.879 80.492 293.999 80.36C294.119 80.228 294.299 80.162 294.539 80.162C294.767 80.162 294.947 80.228 295.079 80.36C295.211 80.492 295.277 80.684 295.277 80.936V88.298C295.277 88.55 295.211 88.748 295.079 88.892C294.959 89.024 294.779 89.09 294.539 89.09ZM294.539 78.146C294.239 78.146 294.005 78.068 293.837 77.912C293.669 77.744 293.585 77.522 293.585 77.246C293.585 76.958 293.669 76.742 293.837 76.598C294.005 76.442 294.239 76.364 294.539 76.364C294.851 76.364 295.085 76.442 295.241 76.598C295.409 76.742 295.493 76.958 295.493 77.246C295.493 77.522 295.409 77.744 295.241 77.912C295.085 78.068 294.851 78.146 294.539 78.146ZM301.819 89.162C300.967 89.162 300.229 88.976 299.605 88.604C298.981 88.232 298.495 87.71 298.147 87.038C297.811 86.354 297.643 85.55 297.643 84.626C297.643 83.93 297.739 83.306 297.931 82.754C298.123 82.19 298.405 81.71 298.777 81.314C299.149 80.918 299.587 80.618 300.091 80.414C300.607 80.198 301.183 80.09 301.819 80.09C302.671 80.09 303.409 80.276 304.033 80.648C304.657 81.02 305.137 81.548 305.473 82.232C305.821 82.904 305.995 83.702 305.995 84.626C305.995 85.322 305.899 85.946 305.707 86.498C305.515 87.05 305.233 87.53 304.861 87.938C304.489 88.334 304.045 88.64 303.529 88.856C303.025 89.06 302.455 89.162 301.819 89.162ZM301.819 87.992C302.359 87.992 302.833 87.86 303.241 87.596C303.649 87.332 303.961 86.948 304.177 86.444C304.405 85.94 304.519 85.334 304.519 84.626C304.519 83.534 304.273 82.7 303.781 82.124C303.301 81.548 302.647 81.26 301.819 81.26C301.267 81.26 300.787 81.392 300.379 81.656C299.983 81.908 299.671 82.286 299.443 82.79C299.227 83.282 299.119 83.894 299.119 84.626C299.119 85.706 299.365 86.54 299.857 87.128C300.349 87.704 301.003 87.992 301.819 87.992ZM309.085 89.126C308.845 89.126 308.665 89.06 308.545 88.928C308.425 88.796 308.365 88.61 308.365 88.37V80.864C308.365 80.624 308.425 80.444 308.545 80.324C308.665 80.192 308.839 80.126 309.067 80.126C309.295 80.126 309.469 80.192 309.589 80.324C309.721 80.444 309.787 80.624 309.787 80.864V82.412L309.589 82.196C309.841 81.5 310.249 80.978 310.813 80.63C311.389 80.27 312.049 80.09 312.793 80.09C313.489 80.09 314.065 80.216 314.521 80.468C314.989 80.72 315.337 81.104 315.565 81.62C315.793 82.124 315.907 82.766 315.907 83.546V88.37C315.907 88.61 315.841 88.796 315.709 88.928C315.589 89.06 315.415 89.126 315.187 89.126C314.947 89.126 314.761 89.06 314.629 88.928C314.509 88.796 314.449 88.61 314.449 88.37V83.636C314.449 82.82 314.287 82.226 313.963 81.854C313.651 81.47 313.147 81.278 312.451 81.278C311.647 81.278 311.005 81.53 310.525 82.034C310.057 82.526 309.823 83.186 309.823 84.014V88.37C309.823 88.874 309.577 89.126 309.085 89.126Z" fill="#8287AC"/>
<path d="M53.7629 188.024H44.6138C44.1325 188.024 43.7422 188.414 43.7422 188.895C43.7422 189.377 44.1325 189.767 44.6138 189.767H53.7629C54.2442 189.767 54.6345 189.377 54.6345 188.895C54.6345 188.414 54.2438 188.024 53.7629 188.024Z" fill="#0BB8B3"/>
<path d="M42.8716 194.408H52.0207C52.502 194.408 52.8923 194.018 52.8923 193.536C52.8923 193.055 52.502 192.665 52.0207 192.665H42.8716C42.3903 192.665 42 193.055 42 193.536C42 194.018 42.3903 194.408 42.8716 194.408Z" fill="#0BB8B3"/>
<path d="M52.8914 198.177C52.8914 197.696 52.5011 197.306 52.0198 197.306H42.8716C42.3903 197.306 42 197.696 42 198.177C42 198.659 42.3903 199.049 42.8716 199.049H52.0207C52.5013 199.048 52.8916 198.658 52.8916 198.177H52.8914Z" fill="#0BB8B3"/>
<path d="M53.7629 201.947H44.6138C44.1325 201.947 43.7422 202.337 43.7422 202.819C43.7422 203.3 44.1325 203.69 44.6138 203.69H53.7629C54.2442 203.69 54.6345 203.3 54.6345 202.819C54.6345 202.337 54.2438 201.947 53.7629 201.947Z" fill="#0BB8B3"/>
<path d="M71.5068 179.377C62.964 179.377 56.0137 186.328 56.0137 194.87C56.0137 203.413 62.964 210.363 71.5068 210.363C80.05 210.363 86.9999 203.413 86.9999 194.87C86.9995 186.327 80.0492 179.377 71.5059 179.377H71.5068ZM71.5068 208.033C64.2488 208.033 58.3442 202.128 58.3442 194.87C58.3442 187.612 64.2487 181.708 71.5068 181.708C78.7649 181.708 84.6693 187.612 84.6693 194.87C84.6693 202.128 78.7646 208.033 71.5068 208.033Z" fill="#0BB8B3"/>
<path d="M77.429 190.073L70.9211 193.864C70.3646 194.188 70.1765 194.901 70.5002 195.458C70.7168 195.83 71.1075 196.037 71.5085 196.037C71.7079 196.037 71.9094 195.986 72.0941 195.878L78.602 192.087C79.1584 191.764 79.3466 191.05 79.0228 190.494C78.6991 189.937 77.9851 189.749 77.429 190.073Z" fill="#0BB8B3"/>
<path d="M76.9478 194.175C76.9773 194.404 76.9975 194.635 76.9975 194.868C76.9975 195.965 76.6728 197.027 76.058 197.941C75.7165 198.448 75.2898 198.88 74.8075 199.243C74.8542 199.092 74.8089 198.922 74.676 198.821C74.5054 198.689 74.2617 198.722 74.1316 198.892L73.018 200.344C72.9229 200.468 72.9112 200.635 72.9874 200.771C73.0564 200.894 73.1869 200.969 73.3259 200.969C73.3396 200.969 73.3534 200.968 73.3668 200.967L75.1796 200.775C75.3928 200.753 75.5476 200.561 75.525 200.348C75.5026 200.137 75.3183 199.985 75.1027 200.003C75.7289 199.566 76.2705 199.016 76.702 198.375C77.4034 197.333 77.7737 196.121 77.7737 194.869C77.7737 194.493 77.736 194.122 77.6694 193.755L76.9478 194.175Z" fill="#0BB8B3"/>
<path d="M100 195C100 214.33 84.33 230 65 230C45.67 230 30 214.33 30 195C30 175.67 45.67 160 65 160C84.33 160 100 175.67 100 195ZM32.9307 195C32.9307 212.711 47.2886 227.069 65 227.069C82.7114 227.069 97.0693 212.711 97.0693 195C97.0693 177.289 82.7114 162.931 65 162.931C47.2886 162.931 32.9307 177.289 32.9307 195Z" fill="#F9F9F9"/>
<path d="M65 161.341C65 160.6 65.6005 159.997 66.3403 160.026C71.7266 160.232 76.9991 161.68 81.7432 164.265C86.8802 167.063 91.2338 171.104 94.4062 176.019C97.5786 180.934 99.4685 186.566 99.9032 192.399C100.338 198.233 99.3036 204.082 96.8946 209.413C94.4857 214.744 90.7791 219.386 86.1136 222.914C81.4481 226.443 75.9725 228.746 70.1874 229.613C64.4023 230.48 58.4921 229.884 52.9971 227.877C47.9223 226.025 43.3512 223.025 39.6367 219.119C39.1265 218.582 39.1822 217.733 39.7379 217.244C40.2935 216.754 41.1386 216.81 41.6505 217.345C45.0676 220.916 49.2628 223.66 53.9165 225.359C58.9906 227.211 64.448 227.763 69.79 226.962C75.132 226.161 80.1881 224.035 84.4962 220.776C88.8043 217.518 92.227 213.231 94.4514 208.309C96.6758 203.386 97.6309 197.985 97.2295 192.598C96.8281 187.212 95.083 182.011 92.1536 177.473C89.2242 172.935 85.2041 169.203 80.4606 166.619C76.11 164.249 71.2783 162.914 66.3402 162.709C65.6005 162.678 65 162.081 65 161.341Z" fill="#0BB8B3"/>
<path d="M123.724 192C123.127 192 122.688 191.869 122.408 191.608C122.147 191.328 122.016 190.927 122.016 190.404C122.016 190.087 122.1 189.779 122.268 189.48C122.436 189.181 122.679 188.864 122.996 188.528L128.624 182.536C129.483 181.64 130.099 180.828 130.472 180.1C130.845 179.353 131.032 178.607 131.032 177.86C131.032 176.927 130.733 176.217 130.136 175.732C129.557 175.247 128.708 175.004 127.588 175.004C126.953 175.004 126.319 175.097 125.684 175.284C125.049 175.452 124.405 175.751 123.752 176.18C123.416 176.404 123.099 176.497 122.8 176.46C122.52 176.423 122.268 176.301 122.044 176.096C121.839 175.891 121.699 175.639 121.624 175.34C121.549 175.041 121.559 174.743 121.652 174.444C121.764 174.127 121.988 173.856 122.324 173.632C123.127 173.091 124.023 172.68 125.012 172.4C126.02 172.12 127.028 171.98 128.036 171.98C129.455 171.98 130.649 172.195 131.62 172.624C132.591 173.053 133.328 173.679 133.832 174.5C134.336 175.321 134.588 176.32 134.588 177.496C134.588 178.28 134.457 179.045 134.196 179.792C133.953 180.539 133.571 181.295 133.048 182.06C132.544 182.825 131.881 183.637 131.06 184.496L125.796 189.984V189.032H134.028C134.532 189.032 134.915 189.153 135.176 189.396C135.437 189.639 135.568 190.003 135.568 190.488C135.568 190.973 135.437 191.347 135.176 191.608C134.915 191.869 134.532 192 134.028 192H123.724ZM140.569 192.14C139.934 192.14 139.421 191.944 139.029 191.552C138.656 191.16 138.469 190.656 138.469 190.04C138.469 189.443 138.656 188.957 139.029 188.584C139.421 188.192 139.934 187.996 140.569 187.996C141.222 187.996 141.726 188.192 142.081 188.584C142.454 188.957 142.641 189.443 142.641 190.04C142.641 190.656 142.454 191.16 142.081 191.552C141.726 191.944 141.222 192.14 140.569 192.14ZM152.694 192.28C151.164 192.28 149.848 192.065 148.746 191.636C147.664 191.188 146.824 190.544 146.226 189.704C145.648 188.864 145.358 187.856 145.358 186.68C145.358 185.747 145.545 184.925 145.918 184.216C146.31 183.488 146.842 182.9 147.514 182.452C148.186 182.004 148.952 181.724 149.81 181.612V182.2C148.616 181.939 147.654 181.369 146.926 180.492C146.217 179.596 145.862 178.532 145.862 177.3C145.862 176.18 146.142 175.228 146.702 174.444C147.262 173.641 148.056 173.035 149.082 172.624C150.109 172.195 151.313 171.98 152.694 171.98C154.094 171.98 155.308 172.195 156.334 172.624C157.361 173.035 158.154 173.641 158.714 174.444C159.274 175.228 159.554 176.18 159.554 177.3C159.554 178.121 159.386 178.877 159.05 179.568C158.733 180.259 158.276 180.828 157.678 181.276C157.1 181.724 156.418 182.023 155.634 182.172V181.612C156.941 181.799 157.996 182.349 158.798 183.264C159.62 184.16 160.03 185.299 160.03 186.68C160.03 187.856 159.732 188.864 159.134 189.704C158.556 190.544 157.716 191.188 156.614 191.636C155.532 192.065 154.225 192.28 152.694 192.28ZM152.694 189.48C154.02 189.48 155.018 189.228 155.69 188.724C156.362 188.201 156.698 187.436 156.698 186.428C156.698 185.42 156.362 184.664 155.69 184.16C155.018 183.656 154.02 183.404 152.694 183.404C151.388 183.404 150.389 183.656 149.698 184.16C149.026 184.664 148.69 185.42 148.69 186.428C148.69 187.436 149.026 188.201 149.698 188.724C150.389 189.228 151.388 189.48 152.694 189.48ZM152.694 180.604C153.441 180.604 154.076 180.492 154.598 180.268C155.121 180.025 155.522 179.68 155.802 179.232C156.082 178.784 156.222 178.261 156.222 177.664C156.222 176.768 155.905 176.068 155.27 175.564C154.654 175.041 153.796 174.78 152.694 174.78C151.593 174.78 150.734 175.041 150.118 175.564C149.502 176.068 149.194 176.768 149.194 177.664C149.194 178.579 149.502 179.297 150.118 179.82C150.734 180.343 151.593 180.604 152.694 180.604ZM164.191 192.224C163.725 192.224 163.342 192.103 163.043 191.86C162.745 191.599 162.567 191.281 162.511 190.908C162.474 190.516 162.605 190.124 162.903 189.732L169.315 181.192V182.732L163.211 174.556C162.913 174.145 162.782 173.753 162.819 173.38C162.857 172.988 163.025 172.671 163.323 172.428C163.622 172.167 163.995 172.036 164.443 172.036C164.817 172.036 165.143 172.129 165.423 172.316C165.722 172.484 166.021 172.773 166.319 173.184L171.359 180.128H170.211L175.223 173.184C175.522 172.773 175.811 172.484 176.091 172.316C176.39 172.129 176.735 172.036 177.127 172.036C177.594 172.036 177.977 172.157 178.275 172.4C178.574 172.643 178.742 172.96 178.779 173.352C178.817 173.725 178.677 174.127 178.359 174.556L172.255 182.732V181.192L178.639 189.732C178.938 190.124 179.069 190.516 179.031 190.908C178.994 191.281 178.826 191.599 178.527 191.86C178.229 192.103 177.837 192.224 177.351 192.224C176.997 192.224 176.67 192.131 176.371 191.944C176.091 191.757 175.793 191.459 175.475 191.048L170.155 183.768H171.387L166.095 191.048C165.797 191.459 165.498 191.757 165.199 191.944C164.901 192.131 164.565 192.224 164.191 192.224Z" fill="#050F58"/>
<path d="M122.358 219.126C122.106 219.126 121.908 219.06 121.764 218.928C121.632 218.784 121.566 218.58 121.566 218.316V207.12C121.566 206.856 121.632 206.658 121.764 206.526C121.908 206.382 122.112 206.31 122.376 206.31H128.91C129.114 206.31 129.27 206.364 129.378 206.472C129.486 206.58 129.54 206.73 129.54 206.922C129.54 207.126 129.486 207.282 129.378 207.39C129.27 207.498 129.114 207.552 128.91 207.552H123.042V211.98H128.532C128.736 211.98 128.892 212.034 129 212.142C129.12 212.25 129.18 212.4 129.18 212.592C129.18 212.796 129.12 212.952 129 213.06C128.892 213.168 128.736 213.222 128.532 213.222H123.042V218.316C123.042 218.856 122.814 219.126 122.358 219.126ZM133.812 219.162C133.212 219.162 132.672 219.048 132.192 218.82C131.724 218.58 131.352 218.256 131.076 217.848C130.8 217.44 130.662 216.984 130.662 216.48C130.662 215.832 130.824 215.322 131.148 214.95C131.484 214.578 132.03 214.314 132.786 214.158C133.554 214.002 134.598 213.924 135.918 213.924H136.728V214.878H135.936C134.964 214.878 134.196 214.926 133.632 215.022C133.08 215.106 132.69 215.256 132.462 215.472C132.246 215.688 132.138 215.994 132.138 216.39C132.138 216.882 132.306 217.284 132.642 217.596C132.99 217.908 133.458 218.064 134.046 218.064C134.526 218.064 134.946 217.95 135.306 217.722C135.678 217.494 135.966 217.182 136.17 216.786C136.386 216.39 136.494 215.934 136.494 215.418V213.366C136.494 212.622 136.344 212.088 136.044 211.764C135.744 211.428 135.252 211.26 134.568 211.26C134.148 211.26 133.728 211.314 133.308 211.422C132.888 211.53 132.444 211.704 131.976 211.944C131.808 212.028 131.664 212.058 131.544 212.034C131.424 211.998 131.328 211.932 131.256 211.836C131.184 211.74 131.142 211.632 131.13 211.512C131.118 211.38 131.142 211.254 131.202 211.134C131.274 211.014 131.382 210.918 131.526 210.846C132.054 210.582 132.576 210.39 133.092 210.27C133.608 210.15 134.1 210.09 134.568 210.09C135.324 210.09 135.948 210.216 136.44 210.468C136.932 210.708 137.298 211.08 137.538 211.584C137.778 212.076 137.898 212.712 137.898 213.492V218.37C137.898 218.61 137.838 218.796 137.718 218.928C137.61 219.06 137.448 219.126 137.232 219.126C137.004 219.126 136.83 219.06 136.71 218.928C136.59 218.796 136.53 218.61 136.53 218.37V216.966H136.692C136.596 217.422 136.41 217.812 136.134 218.136C135.87 218.46 135.54 218.712 135.144 218.892C134.748 219.072 134.304 219.162 133.812 219.162ZM143.735 219.162C143.195 219.162 142.649 219.096 142.097 218.964C141.557 218.832 141.053 218.604 140.585 218.28C140.465 218.196 140.381 218.1 140.333 217.992C140.285 217.872 140.267 217.758 140.279 217.65C140.303 217.53 140.351 217.428 140.423 217.344C140.507 217.26 140.603 217.212 140.711 217.2C140.831 217.176 140.963 217.2 141.107 217.272C141.575 217.56 142.025 217.764 142.457 217.884C142.901 217.992 143.339 218.046 143.771 218.046C144.455 218.046 144.971 217.92 145.319 217.668C145.667 217.416 145.841 217.074 145.841 216.642C145.841 216.306 145.727 216.042 145.499 215.85C145.271 215.646 144.911 215.49 144.419 215.382L142.781 215.022C142.025 214.866 141.461 214.596 141.089 214.212C140.729 213.828 140.549 213.33 140.549 212.718C140.549 212.178 140.687 211.716 140.963 211.332C141.251 210.936 141.653 210.63 142.169 210.414C142.685 210.198 143.285 210.09 143.969 210.09C144.497 210.09 144.995 210.162 145.463 210.306C145.943 210.438 146.375 210.654 146.759 210.954C146.879 211.038 146.957 211.14 146.993 211.26C147.041 211.368 147.047 211.482 147.011 211.602C146.987 211.71 146.933 211.806 146.849 211.89C146.765 211.962 146.663 212.004 146.543 212.016C146.423 212.028 146.297 211.992 146.165 211.908C145.805 211.668 145.439 211.494 145.067 211.386C144.695 211.266 144.329 211.206 143.969 211.206C143.297 211.206 142.787 211.338 142.439 211.602C142.091 211.866 141.917 212.214 141.917 212.646C141.917 212.982 142.025 213.258 142.241 213.474C142.457 213.69 142.793 213.846 143.249 213.942L144.887 214.284C145.667 214.452 146.249 214.722 146.633 215.094C147.029 215.454 147.227 215.946 147.227 216.57C147.227 217.362 146.909 217.992 146.273 218.46C145.637 218.928 144.791 219.162 143.735 219.162ZM153.051 219.162C152.367 219.162 151.791 219.042 151.323 218.802C150.867 218.55 150.525 218.19 150.297 217.722C150.069 217.242 149.955 216.66 149.955 215.976V211.386H148.749C148.545 211.386 148.389 211.338 148.281 211.242C148.173 211.134 148.119 210.99 148.119 210.81C148.119 210.63 148.173 210.492 148.281 210.396C148.389 210.3 148.545 210.252 148.749 210.252H149.955V208.182C149.955 207.942 150.021 207.762 150.153 207.642C150.285 207.51 150.465 207.444 150.693 207.444C150.921 207.444 151.095 207.51 151.215 207.642C151.347 207.762 151.413 207.942 151.413 208.182V210.252H153.681C153.885 210.252 154.041 210.3 154.149 210.396C154.257 210.492 154.311 210.63 154.311 210.81C154.311 210.99 154.257 211.134 154.149 211.242C154.041 211.338 153.885 211.386 153.681 211.386H151.413V215.832C151.413 216.516 151.557 217.038 151.845 217.398C152.133 217.746 152.601 217.92 153.249 217.92C153.477 217.92 153.669 217.896 153.825 217.848C153.993 217.8 154.131 217.776 154.239 217.776C154.347 217.764 154.437 217.8 154.509 217.884C154.581 217.968 154.617 218.112 154.617 218.316C154.617 218.46 154.587 218.592 154.527 218.712C154.479 218.832 154.389 218.916 154.257 218.964C154.113 219.012 153.921 219.054 153.681 219.09C153.453 219.138 153.243 219.162 153.051 219.162ZM159.868 219.162C158.944 219.162 158.146 218.982 157.474 218.622C156.814 218.25 156.298 217.728 155.926 217.056C155.566 216.384 155.386 215.58 155.386 214.644C155.386 213.732 155.566 212.94 155.926 212.268C156.286 211.584 156.778 211.05 157.402 210.666C158.038 210.282 158.77 210.09 159.598 210.09C160.186 210.09 160.714 210.192 161.182 210.396C161.65 210.588 162.046 210.87 162.37 211.242C162.706 211.614 162.958 212.064 163.126 212.592C163.306 213.12 163.396 213.714 163.396 214.374C163.396 214.566 163.342 214.71 163.234 214.806C163.126 214.89 162.97 214.932 162.766 214.932H156.502V213.978H162.424L162.136 214.212C162.136 213.564 162.04 213.018 161.848 212.574C161.656 212.118 161.374 211.77 161.002 211.53C160.642 211.29 160.186 211.17 159.634 211.17C159.022 211.17 158.5 211.314 158.068 211.602C157.648 211.878 157.33 212.268 157.114 212.772C156.898 213.264 156.79 213.84 156.79 214.5V214.608C156.79 215.712 157.054 216.552 157.582 217.128C158.122 217.704 158.884 217.992 159.868 217.992C160.276 217.992 160.678 217.938 161.074 217.83C161.482 217.722 161.878 217.542 162.262 217.29C162.43 217.182 162.58 217.134 162.712 217.146C162.856 217.146 162.97 217.188 163.054 217.272C163.138 217.344 163.192 217.44 163.216 217.56C163.252 217.668 163.24 217.788 163.18 217.92C163.132 218.052 163.03 218.166 162.874 218.262C162.478 218.55 162.01 218.772 161.47 218.928C160.93 219.084 160.396 219.162 159.868 219.162ZM166.424 219.126C166.184 219.126 165.998 219.06 165.866 218.928C165.746 218.796 165.686 218.61 165.686 218.37V210.864C165.686 210.624 165.746 210.444 165.866 210.324C165.986 210.192 166.16 210.126 166.388 210.126C166.616 210.126 166.79 210.192 166.91 210.324C167.042 210.444 167.108 210.624 167.108 210.864V212.322H166.928C167.12 211.614 167.486 211.068 168.026 210.684C168.566 210.3 169.232 210.096 170.024 210.072C170.204 210.06 170.348 210.102 170.456 210.198C170.564 210.282 170.624 210.432 170.636 210.648C170.648 210.852 170.6 211.014 170.492 211.134C170.384 211.254 170.216 211.326 169.988 211.35L169.7 211.386C168.884 211.458 168.254 211.722 167.81 212.178C167.378 212.622 167.162 213.234 167.162 214.014V218.37C167.162 218.61 167.096 218.796 166.964 218.928C166.844 219.06 166.664 219.126 166.424 219.126ZM180.468 219.162C179.688 219.162 179.004 218.976 178.416 218.604C177.84 218.232 177.39 217.71 177.066 217.038C176.754 216.354 176.598 215.55 176.598 214.626C176.598 213.69 176.754 212.886 177.066 212.214C177.39 211.53 177.84 211.008 178.416 210.648C179.004 210.276 179.688 210.09 180.468 210.09C181.26 210.09 181.938 210.288 182.502 210.684C183.066 211.08 183.444 211.614 183.636 212.286H183.438V206.922C183.438 206.682 183.498 206.502 183.618 206.382C183.75 206.25 183.936 206.184 184.176 206.184C184.404 206.184 184.578 206.25 184.698 206.382C184.83 206.502 184.896 206.682 184.896 206.922V218.37C184.896 218.61 184.836 218.796 184.716 218.928C184.596 219.06 184.416 219.126 184.176 219.126C183.948 219.126 183.768 219.06 183.636 218.928C183.516 218.796 183.456 218.61 183.456 218.37V216.66L183.654 216.912C183.462 217.596 183.078 218.142 182.502 218.55C181.938 218.958 181.26 219.162 180.468 219.162ZM180.774 217.992C181.314 217.992 181.788 217.86 182.196 217.596C182.604 217.332 182.916 216.948 183.132 216.444C183.36 215.94 183.474 215.334 183.474 214.626C183.474 213.534 183.228 212.7 182.736 212.124C182.256 211.548 181.602 211.26 180.774 211.26C180.222 211.26 179.742 211.392 179.334 211.656C178.938 211.908 178.626 212.286 178.398 212.79C178.182 213.282 178.074 213.894 178.074 214.626C178.074 215.706 178.32 216.54 178.812 217.128C179.304 217.704 179.958 217.992 180.774 217.992ZM191.754 219.162C190.83 219.162 190.032 218.982 189.36 218.622C188.7 218.25 188.184 217.728 187.812 217.056C187.452 216.384 187.272 215.58 187.272 214.644C187.272 213.732 187.452 212.94 187.812 212.268C188.172 211.584 188.664 211.05 189.288 210.666C189.924 210.282 190.656 210.09 191.484 210.09C192.072 210.09 192.6 210.192 193.068 210.396C193.536 210.588 193.932 210.87 194.256 211.242C194.592 211.614 194.844 212.064 195.012 212.592C195.192 213.12 195.282 213.714 195.282 214.374C195.282 214.566 195.228 214.71 195.12 214.806C195.012 214.89 194.856 214.932 194.652 214.932H188.388V213.978H194.31L194.022 214.212C194.022 213.564 193.926 213.018 193.734 212.574C193.542 212.118 193.26 211.77 192.888 211.53C192.528 211.29 192.072 211.17 191.52 211.17C190.908 211.17 190.386 211.314 189.954 211.602C189.534 211.878 189.216 212.268 189 212.772C188.784 213.264 188.676 213.84 188.676 214.5V214.608C188.676 215.712 188.94 216.552 189.468 217.128C190.008 217.704 190.77 217.992 191.754 217.992C192.162 217.992 192.564 217.938 192.96 217.83C193.368 217.722 193.764 217.542 194.148 217.29C194.316 217.182 194.466 217.134 194.598 217.146C194.742 217.146 194.856 217.188 194.94 217.272C195.024 217.344 195.078 217.44 195.102 217.56C195.138 217.668 195.126 217.788 195.066 217.92C195.018 218.052 194.916 218.166 194.76 218.262C194.364 218.55 193.896 218.772 193.356 218.928C192.816 219.084 192.282 219.162 191.754 219.162ZM200.725 219.126C200.521 219.126 200.341 219.072 200.185 218.964C200.029 218.844 199.897 218.664 199.789 218.424L196.675 211.152C196.591 210.972 196.561 210.804 196.585 210.648C196.609 210.492 196.681 210.366 196.801 210.27C196.921 210.174 197.089 210.126 197.305 210.126C197.497 210.126 197.647 210.168 197.755 210.252C197.863 210.336 197.959 210.486 198.043 210.702L200.995 217.92H200.509L203.515 210.702C203.599 210.486 203.695 210.336 203.803 210.252C203.911 210.168 204.067 210.126 204.271 210.126C204.463 210.126 204.607 210.174 204.703 210.27C204.811 210.366 204.871 210.492 204.883 210.648C204.907 210.792 204.883 210.954 204.811 211.134L201.661 218.424C201.577 218.664 201.451 218.844 201.283 218.964C201.127 219.072 200.941 219.126 200.725 219.126ZM210.729 219.162C209.805 219.162 209.007 218.982 208.335 218.622C207.675 218.25 207.159 217.728 206.787 217.056C206.427 216.384 206.247 215.58 206.247 214.644C206.247 213.732 206.427 212.94 206.787 212.268C207.147 211.584 207.639 211.05 208.263 210.666C208.899 210.282 209.631 210.09 210.459 210.09C211.047 210.09 211.575 210.192 212.043 210.396C212.511 210.588 212.907 210.87 213.231 211.242C213.567 211.614 213.819 212.064 213.987 212.592C214.167 213.12 214.257 213.714 214.257 214.374C214.257 214.566 214.203 214.71 214.095 214.806C213.987 214.89 213.831 214.932 213.627 214.932H207.363V213.978H213.285L212.997 214.212C212.997 213.564 212.901 213.018 212.709 212.574C212.517 212.118 212.235 211.77 211.863 211.53C211.503 211.29 211.047 211.17 210.495 211.17C209.883 211.17 209.361 211.314 208.929 211.602C208.509 211.878 208.191 212.268 207.975 212.772C207.759 213.264 207.651 213.84 207.651 214.5V214.608C207.651 215.712 207.915 216.552 208.443 217.128C208.983 217.704 209.745 217.992 210.729 217.992C211.137 217.992 211.539 217.938 211.935 217.83C212.343 217.722 212.739 217.542 213.123 217.29C213.291 217.182 213.441 217.134 213.573 217.146C213.717 217.146 213.831 217.188 213.915 217.272C213.999 217.344 214.053 217.44 214.077 217.56C214.113 217.668 214.101 217.788 214.041 217.92C213.993 218.052 213.891 218.166 213.735 218.262C213.339 218.55 212.871 218.772 212.331 218.928C211.791 219.084 211.257 219.162 210.729 219.162ZM219.211 219.162C218.347 219.162 217.687 218.898 217.231 218.37C216.775 217.842 216.547 217.086 216.547 216.102V206.922C216.547 206.682 216.607 206.502 216.727 206.382C216.847 206.25 217.027 206.184 217.267 206.184C217.495 206.184 217.675 206.25 217.807 206.382C217.939 206.502 218.005 206.682 218.005 206.922V215.994C218.005 216.642 218.131 217.128 218.383 217.452C218.647 217.764 219.031 217.92 219.535 217.92C219.643 217.92 219.739 217.914 219.823 217.902C219.907 217.89 219.991 217.884 220.075 217.884C220.207 217.872 220.297 217.902 220.345 217.974C220.405 218.046 220.435 218.19 220.435 218.406C220.435 218.622 220.387 218.784 220.291 218.892C220.195 219 220.039 219.072 219.823 219.108C219.727 219.12 219.625 219.132 219.517 219.144C219.409 219.156 219.307 219.162 219.211 219.162ZM225.602 219.162C224.75 219.162 224.012 218.976 223.388 218.604C222.764 218.232 222.278 217.71 221.93 217.038C221.594 216.354 221.426 215.55 221.426 214.626C221.426 213.93 221.522 213.306 221.714 212.754C221.906 212.19 222.188 211.71 222.56 211.314C222.932 210.918 223.37 210.618 223.874 210.414C224.39 210.198 224.966 210.09 225.602 210.09C226.454 210.09 227.192 210.276 227.816 210.648C228.44 211.02 228.92 211.548 229.256 212.232C229.604 212.904 229.778 213.702 229.778 214.626C229.778 215.322 229.682 215.946 229.49 216.498C229.298 217.05 229.016 217.53 228.644 217.938C228.272 218.334 227.828 218.64 227.312 218.856C226.808 219.06 226.238 219.162 225.602 219.162ZM225.602 217.992C226.142 217.992 226.616 217.86 227.024 217.596C227.432 217.332 227.744 216.948 227.96 216.444C228.188 215.94 228.302 215.334 228.302 214.626C228.302 213.534 228.056 212.7 227.564 212.124C227.084 211.548 226.43 211.26 225.602 211.26C225.05 211.26 224.57 211.392 224.162 211.656C223.766 211.908 223.454 212.286 223.226 212.79C223.01 213.282 222.902 213.894 222.902 214.626C222.902 215.706 223.148 216.54 223.64 217.128C224.132 217.704 224.786 217.992 225.602 217.992ZM232.867 222.366C232.627 222.366 232.447 222.3 232.327 222.168C232.207 222.048 232.147 221.868 232.147 221.628V210.864C232.147 210.624 232.207 210.444 232.327 210.324C232.447 210.192 232.621 210.126 232.849 210.126C233.089 210.126 233.269 210.192 233.389 210.324C233.521 210.444 233.587 210.624 233.587 210.864V212.574L233.389 212.322C233.581 211.638 233.959 211.098 234.523 210.702C235.099 210.294 235.783 210.09 236.575 210.09C237.355 210.09 238.033 210.276 238.609 210.648C239.197 211.008 239.647 211.53 239.959 212.214C240.283 212.886 240.445 213.69 240.445 214.626C240.445 215.55 240.283 216.354 239.959 217.038C239.647 217.71 239.203 218.232 238.627 218.604C238.051 218.976 237.367 219.162 236.575 219.162C235.783 219.162 235.105 218.964 234.541 218.568C233.977 218.16 233.593 217.62 233.389 216.948H233.605V221.628C233.605 221.868 233.539 222.048 233.407 222.168C233.275 222.3 233.095 222.366 232.867 222.366ZM236.269 217.992C236.821 217.992 237.295 217.86 237.691 217.596C238.099 217.332 238.411 216.948 238.627 216.444C238.855 215.94 238.969 215.334 238.969 214.626C238.969 213.534 238.723 212.7 238.231 212.124C237.751 211.548 237.097 211.26 236.269 211.26C235.729 211.26 235.255 211.392 234.847 211.656C234.439 211.908 234.121 212.286 233.893 212.79C233.677 213.282 233.569 213.894 233.569 214.626C233.569 215.706 233.815 216.54 234.307 217.128C234.799 217.704 235.453 217.992 236.269 217.992ZM243.578 219.126C243.338 219.126 243.158 219.06 243.038 218.928C242.918 218.796 242.858 218.61 242.858 218.37V210.864C242.858 210.624 242.918 210.444 243.038 210.324C243.158 210.192 243.332 210.126 243.56 210.126C243.788 210.126 243.962 210.192 244.082 210.324C244.214 210.444 244.28 210.624 244.28 210.864V212.448L244.082 212.196C244.31 211.524 244.676 211.008 245.18 210.648C245.696 210.276 246.308 210.09 247.016 210.09C247.76 210.09 248.36 210.27 248.816 210.63C249.284 210.978 249.596 211.524 249.752 212.268H249.482C249.698 211.596 250.082 211.068 250.634 210.684C251.198 210.288 251.852 210.09 252.596 210.09C253.256 210.09 253.796 210.216 254.216 210.468C254.648 210.72 254.972 211.104 255.188 211.62C255.404 212.124 255.512 212.766 255.512 213.546V218.37C255.512 218.61 255.446 218.796 255.314 218.928C255.194 219.06 255.014 219.126 254.774 219.126C254.546 219.126 254.366 219.06 254.234 218.928C254.114 218.796 254.054 218.61 254.054 218.37V213.618C254.054 212.814 253.916 212.226 253.64 211.854C253.364 211.47 252.896 211.278 252.236 211.278C251.516 211.278 250.946 211.53 250.526 212.034C250.118 212.526 249.914 213.198 249.914 214.05V218.37C249.914 218.61 249.848 218.796 249.716 218.928C249.596 219.06 249.416 219.126 249.176 219.126C248.948 219.126 248.768 219.06 248.636 218.928C248.516 218.796 248.456 218.61 248.456 218.37V213.618C248.456 212.814 248.312 212.226 248.024 211.854C247.748 211.47 247.286 211.278 246.638 211.278C245.918 211.278 245.348 211.53 244.928 212.034C244.52 212.526 244.316 213.198 244.316 214.05V218.37C244.316 218.874 244.07 219.126 243.578 219.126ZM262.36 219.162C261.436 219.162 260.638 218.982 259.966 218.622C259.306 218.25 258.79 217.728 258.418 217.056C258.058 216.384 257.878 215.58 257.878 214.644C257.878 213.732 258.058 212.94 258.418 212.268C258.778 211.584 259.27 211.05 259.894 210.666C260.53 210.282 261.262 210.09 262.09 210.09C262.678 210.09 263.206 210.192 263.674 210.396C264.142 210.588 264.538 210.87 264.862 211.242C265.198 211.614 265.45 212.064 265.618 212.592C265.798 213.12 265.888 213.714 265.888 214.374C265.888 214.566 265.834 214.71 265.726 214.806C265.618 214.89 265.462 214.932 265.258 214.932H258.994V213.978H264.916L264.628 214.212C264.628 213.564 264.532 213.018 264.34 212.574C264.148 212.118 263.866 211.77 263.494 211.53C263.134 211.29 262.678 211.17 262.126 211.17C261.514 211.17 260.992 211.314 260.56 211.602C260.14 211.878 259.822 212.268 259.606 212.772C259.39 213.264 259.282 213.84 259.282 214.5V214.608C259.282 215.712 259.546 216.552 260.074 217.128C260.614 217.704 261.376 217.992 262.36 217.992C262.768 217.992 263.17 217.938 263.566 217.83C263.974 217.722 264.37 217.542 264.754 217.29C264.922 217.182 265.072 217.134 265.204 217.146C265.348 217.146 265.462 217.188 265.546 217.272C265.63 217.344 265.684 217.44 265.708 217.56C265.744 217.668 265.732 217.788 265.672 217.92C265.624 218.052 265.522 218.166 265.366 218.262C264.97 218.55 264.502 218.772 263.962 218.928C263.422 219.084 262.888 219.162 262.36 219.162ZM268.898 219.126C268.658 219.126 268.478 219.06 268.358 218.928C268.238 218.796 268.178 218.61 268.178 218.37V210.864C268.178 210.624 268.238 210.444 268.358 210.324C268.478 210.192 268.652 210.126 268.88 210.126C269.108 210.126 269.282 210.192 269.402 210.324C269.534 210.444 269.6 210.624 269.6 210.864V212.412L269.402 212.196C269.654 211.5 270.062 210.978 270.626 210.63C271.202 210.27 271.862 210.09 272.606 210.09C273.302 210.09 273.878 210.216 274.334 210.468C274.802 210.72 275.15 211.104 275.378 211.62C275.606 212.124 275.72 212.766 275.72 213.546V218.37C275.72 218.61 275.654 218.796 275.522 218.928C275.402 219.06 275.228 219.126 275 219.126C274.76 219.126 274.574 219.06 274.442 218.928C274.322 218.796 274.262 218.61 274.262 218.37V213.636C274.262 212.82 274.1 212.226 273.776 211.854C273.464 211.47 272.96 211.278 272.264 211.278C271.46 211.278 270.818 211.53 270.338 212.034C269.87 212.526 269.636 213.186 269.636 214.014V218.37C269.636 218.874 269.39 219.126 268.898 219.126ZM282.098 219.162C281.414 219.162 280.838 219.042 280.37 218.802C279.914 218.55 279.572 218.19 279.344 217.722C279.116 217.242 279.002 216.66 279.002 215.976V211.386H277.796C277.592 211.386 277.436 211.338 277.328 211.242C277.22 211.134 277.166 210.99 277.166 210.81C277.166 210.63 277.22 210.492 277.328 210.396C277.436 210.3 277.592 210.252 277.796 210.252H279.002V208.182C279.002 207.942 279.068 207.762 279.2 207.642C279.332 207.51 279.512 207.444 279.74 207.444C279.968 207.444 280.142 207.51 280.262 207.642C280.394 207.762 280.46 207.942 280.46 208.182V210.252H282.728C282.932 210.252 283.088 210.3 283.196 210.396C283.304 210.492 283.358 210.63 283.358 210.81C283.358 210.99 283.304 211.134 283.196 211.242C283.088 211.338 282.932 211.386 282.728 211.386H280.46V215.832C280.46 216.516 280.604 217.038 280.892 217.398C281.18 217.746 281.648 217.92 282.296 217.92C282.524 217.92 282.716 217.896 282.872 217.848C283.04 217.8 283.178 217.776 283.286 217.776C283.394 217.764 283.484 217.8 283.556 217.884C283.628 217.968 283.664 218.112 283.664 218.316C283.664 218.46 283.634 218.592 283.574 218.712C283.526 218.832 283.436 218.916 283.304 218.964C283.16 219.012 282.968 219.054 282.728 219.09C282.5 219.138 282.29 219.162 282.098 219.162Z" fill="#8287AC"/>
<line y1="129.5" x2="348" y2="129.5" stroke="#050F58" stroke-opacity="0.1"/>
</svg>
