<svg width="40" height="40" viewBox="0 0 40 40" fill="none" xmlns="http://www.w3.org/2000/svg">
<path d="M20 40C31.0457 40 40 31.0457 40 20C40 8.95431 31.0457 0 20 0C8.95431 0 0 8.95431 0 20C0 31.0457 8.95431 40 20 40Z" fill="url(#paint0_linear_798_1048)"/>
<path d="M26.2098 12.4355C25.9392 12.4355 25.6747 12.5158 25.4498 12.6661C25.2248 12.8164 25.0495 13.0301 24.9459 13.28C24.8424 13.53 24.8153 13.8051 24.8681 14.0704C24.9209 14.3358 25.0512 14.5795 25.2425 14.7709C25.4338 14.9622 25.6775 15.0925 25.9429 15.1452C26.2083 15.198 26.4833 15.1709 26.7333 15.0674C26.9833 14.9638 27.1969 14.7885 27.3472 14.5635C27.4975 14.3386 27.5778 14.0741 27.5778 13.8035C27.5778 13.4407 27.4336 13.0928 27.1771 12.8362C26.9206 12.5797 26.5726 12.4355 26.2098 12.4355Z" fill="white"/>
<path d="M20.095 14.2222C18.9482 14.2195 17.8265 14.5576 16.8722 15.1937C15.918 15.8297 15.1742 16.7349 14.7354 17.7944C14.2965 18.8539 14.1824 20.02 14.4075 21.1445C14.6325 22.269 15.1867 23.3012 15.9995 24.1102C16.8123 24.9192 17.8472 25.4684 18.9728 25.6881C20.0983 25.9079 21.2638 25.7882 22.3212 25.3443C23.3786 24.9005 24.2803 24.1524 24.9118 23.1951C25.5433 22.2378 25.8761 21.1145 25.868 19.9677C25.8572 18.4425 25.2446 16.9833 24.1635 15.9073C23.0825 14.8314 21.6203 14.2258 20.095 14.2222V14.2222ZM20.095 23.7023C19.3612 23.7051 18.6432 23.4899 18.0317 23.0842C17.4202 22.6785 16.943 22.1005 16.6603 21.4233C16.3776 20.7461 16.3022 20.0003 16.4437 19.2803C16.5852 18.5602 16.9372 17.8984 17.4551 17.3786C17.973 16.8587 18.6336 16.5043 19.3531 16.3601C20.0726 16.216 20.8187 16.2886 21.4969 16.5688C22.1751 16.8489 22.7549 17.3241 23.1629 17.934C23.5708 18.544 23.7886 19.2613 23.7886 19.9951C23.7779 20.9701 23.3849 21.9019 22.6941 22.5901C22.0034 23.2783 21.0701 23.6679 20.095 23.675V23.7023Z" fill="white"/>
<path d="M24.6795 31.7061H15.3225C13.4551 31.7025 11.6653 30.9591 10.3448 29.6387C9.02438 28.3182 8.28096 26.5284 8.27734 24.661V15.2903C8.28096 13.4229 9.02438 11.633 10.3448 10.3126C11.6653 8.99215 13.4551 8.24873 15.3225 8.24512H24.6795C26.5469 8.24873 28.3368 8.99215 29.6572 10.3126C30.9777 11.633 31.7211 13.4229 31.7247 15.2903V24.661C31.7211 26.5284 30.9777 28.3182 29.6572 29.6387C28.3368 30.9591 26.5469 31.7025 24.6795 31.7061V31.7061ZM15.3225 10.4476C14.0392 10.4512 12.8096 10.9626 11.9022 11.87C10.9948 12.7774 10.4834 14.007 10.4798 15.2903V24.661C10.4834 25.943 10.9952 27.1712 11.903 28.0764C12.8108 28.9817 14.0405 29.49 15.3225 29.49H24.6795C25.9615 29.49 27.1912 28.9817 28.099 28.0764C29.0068 27.1712 29.5186 25.943 29.5222 24.661V15.2903C29.5186 14.007 29.0072 12.7774 28.0998 11.87C27.1924 10.9626 25.9628 10.4512 24.6795 10.4476H15.3225Z" fill="white"/>
<defs>
<linearGradient id="paint0_linear_798_1048" x1="38.2353" y1="2.35294" x2="2.35294" y2="38.2353" gradientUnits="userSpaceOnUse">
<stop stop-color="#FBE18A"/>
<stop offset="0.21" stop-color="#FCBB45"/>
<stop offset="0.38" stop-color="#F75274"/>
<stop offset="0.52" stop-color="#D53692"/>
<stop offset="0.74" stop-color="#8F39CE"/>
<stop offset="1" stop-color="#5B4FE9"/>
</linearGradient>
</defs>
</svg>
