<svg id="p-3" viewBox="0 0 46 46" xmlns="http://www.w3.org/2000/svg">
    <path
        d="M30.9299 13.3919C30.9299 13.6575 30.9962 13.8572 31.0629 14.0564L26.6785 18.5071C25.5493 16.5142 24.7523 13.7243 24.3533 11.8643C24.951 11.532 25.3495 10.868 25.3495 10.1373C25.3495 9.00803 24.4858 8.14429 23.3565 8.14429C22.2273 8.14429 21.3636 9.008 21.3636 10.1373C21.3636 10.868 21.7621 11.4657 22.3598 11.8643C21.9613 13.7243 21.1643 16.5142 20.0346 18.5071L15.6511 14.0561C15.7174 13.8568 15.7841 13.5908 15.7841 13.3916C15.7841 12.4616 14.9871 11.6646 14.0571 11.6646C13.1271 11.6646 12.3301 12.4616 12.3301 13.3916C12.3301 14.2553 12.9946 14.986 13.8578 15.1186L17.0463 26.0791C17.1125 26.3446 17.3785 26.5443 17.7107 26.5443H29.0035C29.269 26.5443 29.5349 26.345 29.6679 26.0791L32.8564 15.1186C33.7201 15.0523 34.3841 14.3216 34.3841 13.3916C34.3841 12.4616 33.5871 11.6646 32.6571 11.6646C31.7266 11.6646 30.9299 12.3953 30.9299 13.3919ZM28.5385 25.2162H18.1758L15.3858 15.7172L19.6372 20.0348C19.7702 20.1678 19.9694 20.234 20.1687 20.234C20.3679 20.234 20.5672 20.101 20.6339 19.9685C21.8962 18.1748 22.7599 15.5178 23.2908 13.392C23.8223 15.5179 24.6861 18.1748 25.9477 19.9685C26.0807 20.1015 26.2132 20.234 26.4129 20.234C26.6122 20.234 26.8114 20.1678 26.9444 20.0348L31.1958 15.7172L28.5385 25.2162Z" />
    <path
        d="M28.7507 25.3H17.8257L14.9507 14.95L20.3902 20.125L23.5757 12.65L26.4507 20.125L31.6257 14.95L28.7507 25.3Z" />
    <path fill-rule="evenodd" clip-rule="evenodd"
        d="M39.7636 16.9288C39.7636 19.6893 39.1031 22.2957 37.9308 24.598L45.4997 37.7075C45.9921 38.5603 45.3611 39.6239 44.3762 39.5997L38.4206 39.4545C37.948 39.4431 37.5084 39.697 37.2822 40.1119L34.4299 45.3424C33.9581 46.2071 32.722 46.2221 32.2296 45.3693L25.4656 33.6545C24.6084 33.7882 23.7301 33.8573 22.8354 33.8573C21.9407 33.8573 21.0624 33.7882 20.2051 33.6545L13.4411 45.3693C12.9487 46.2221 11.7126 46.2071 11.2409 45.3424L8.38851 40.1119C8.16233 39.697 7.72271 39.4431 7.25015 39.4545L1.29452 39.5997C0.30968 39.6239 -0.321378 38.5608 0.171062 37.7075L7.74 24.598C6.56773 22.2953 5.9068 19.6888 5.9068 16.9284C5.9068 7.57908 13.4858 0 22.8352 0C32.1845 0 39.7636 7.57942 39.7636 16.9284L39.7636 16.9288ZM37.8714 16.9288C37.8714 18.9302 37.4802 20.8409 36.7699 22.5874L36.7457 22.5452C36.4597 23.2523 36.1217 23.9326 35.7358 24.5817C33.7081 27.993 30.3654 30.5316 26.4063 31.4984C25.7599 31.6564 25.0967 31.7725 24.4204 31.8434L24.4415 31.8799C23.9134 31.9358 23.3779 31.9648 22.8353 31.9648C22.2927 31.9648 21.7572 31.9358 21.2291 31.8799L21.2502 31.8434C20.5738 31.7725 19.9106 31.6564 19.2642 31.4984C15.305 30.5316 11.9625 27.993 9.93431 24.5817C9.54882 23.9331 9.21042 23.2527 8.92484 22.5456L8.90019 22.5879C8.19039 20.8408 7.79919 18.9306 7.79919 16.9288C7.79919 8.62461 14.5311 1.89302 22.835 1.89302C31.1389 1.89302 37.8708 8.62495 37.8708 16.9288H37.8714ZM36.8236 26.4656C34.6062 29.7118 31.2886 32.1462 27.4074 33.2327L33.3062 43.4493L35.6205 39.2059C36.1864 38.1682 37.2847 37.5337 38.4663 37.5627L43.2986 37.6802L36.8236 26.4656ZM8.84621 26.4656L2.3717 37.6803L7.20395 37.5628C8.38546 37.5342 9.48383 38.1683 10.0498 39.206L12.364 43.4494L18.2629 33.2328C14.3816 32.1467 11.0637 29.7119 8.84621 26.4657V26.4656Z" />
</svg>