<svg width="265" height="329" viewBox="0 0 265 329" fill="none" xmlns="http://www.w3.org/2000/svg">
<mask id="mask0_798_565" style="mask-type:alpha" maskUnits="userSpaceOnUse" x="0" y="0" width="265" height="329">
<rect width="265" height="329" rx="10" fill="#0EB5B3"/>
</mask>
<g mask="url(#mask0_798_565)">
<g style="mix-blend-mode:screen">
<path d="M696.821 -406.605C696.305 -406.18 695.952 -405.59 695.821 -404.935V-404.825C695.718 -404.189 695.824 -403.537 696.121 -402.965L630.961 -368.775L628.791 -415.065C629.388 -415.118 629.955 -415.347 630.421 -415.725C630.937 -416.15 631.29 -416.74 631.421 -417.395V-417.505C631.49 -417.931 631.467 -418.366 631.354 -418.782C631.24 -419.198 631.037 -419.585 630.761 -419.915C630.242 -420.525 629.506 -420.909 628.709 -420.986C627.912 -421.062 627.116 -420.826 626.491 -420.325C626.188 -420.077 625.938 -419.77 625.756 -419.423C625.573 -419.076 625.462 -418.696 625.429 -418.306C625.395 -417.916 625.44 -417.523 625.56 -417.15C625.681 -416.777 625.875 -416.432 626.131 -416.135C626.26 -415.978 626.407 -415.837 626.571 -415.715L569.771 -342.715L509.281 -331.505C509.177 -331.976 508.961 -332.416 508.651 -332.785C508.133 -333.398 507.397 -333.783 506.599 -333.86C505.801 -333.936 505.005 -333.698 504.381 -333.195C504.077 -332.947 503.826 -332.641 503.643 -332.294C503.46 -331.947 503.348 -331.567 503.314 -331.176C503.281 -330.786 503.326 -330.392 503.447 -330.019C503.569 -329.646 503.764 -329.302 504.021 -329.005C504.43 -328.526 504.977 -328.185 505.587 -328.028C506.197 -327.87 506.841 -327.904 507.431 -328.125L523.511 -289.535C523.1 -289.369 522.716 -289.143 522.371 -288.865C521.618 -288.253 521.093 -287.405 520.88 -286.458C520.668 -285.511 520.781 -284.52 521.201 -283.645L440.061 -246.385C439.959 -246.597 439.831 -246.795 439.681 -246.975C439.163 -247.588 438.427 -247.973 437.629 -248.05C436.831 -248.126 436.035 -247.888 435.411 -247.385C435.107 -247.137 434.856 -246.831 434.673 -246.484C434.49 -246.137 434.378 -245.757 434.344 -245.366C434.311 -244.976 434.356 -244.582 434.477 -244.209C434.599 -243.836 434.794 -243.492 435.051 -243.195C435.406 -242.781 435.867 -242.469 436.384 -242.293C436.901 -242.117 437.456 -242.083 437.991 -242.195L449.881 -192.195L399.661 -159.465C399.611 -159.535 399.571 -159.605 399.511 -159.675C398.995 -160.287 398.26 -160.672 397.464 -160.749C396.668 -160.826 395.873 -160.587 395.251 -160.085C394.948 -159.838 394.697 -159.533 394.514 -159.187C394.331 -158.842 394.219 -158.463 394.184 -158.073C394.15 -157.684 394.194 -157.291 394.313 -156.919C394.433 -156.547 394.626 -156.202 394.881 -155.905C395.339 -155.374 395.969 -155.02 396.661 -154.905L382.181 -66.9053C381.762 -66.9746 381.333 -66.9543 380.923 -66.8457C380.513 -66.7371 380.13 -66.5427 379.801 -66.2753C379.343 -65.901 379.009 -65.397 378.843 -64.8294C378.677 -64.2618 378.687 -63.6573 378.871 -63.0953L288.291 -33.4954C288.172 -33.8239 287.996 -34.1287 287.771 -34.3953C287.254 -35.0047 286.519 -35.3884 285.724 -35.465C284.928 -35.5415 284.134 -35.3049 283.511 -34.8054C283.207 -34.5573 282.956 -34.2508 282.773 -33.9041C282.59 -33.5573 282.478 -33.1772 282.444 -32.7865C282.411 -32.3958 282.456 -32.0022 282.577 -31.6293C282.699 -31.2563 282.894 -30.9116 283.151 -30.6154C283.601 -30.0902 284.219 -29.7369 284.901 -29.6154L277.311 14.7646L246.441 25.4547C246.322 25.1344 246.149 24.8368 245.931 24.5746C245.413 23.9624 244.677 23.5768 243.879 23.5002C243.081 23.4236 242.285 23.662 241.661 24.1647C241.357 24.4127 241.106 24.7192 240.923 25.066C240.74 25.4128 240.628 25.7928 240.594 26.1835C240.561 26.5743 240.606 26.9677 240.727 27.3407C240.849 27.7137 241.044 28.0585 241.301 28.3547C241.643 28.7387 242.075 29.0312 242.559 29.2059C243.043 29.3805 243.562 29.4316 244.071 29.3547L256.691 102.085L238.791 109.895C238.773 109.854 238.75 109.817 238.721 109.785C238.41 109.419 237.969 109.189 237.491 109.142C237.014 109.095 236.536 109.236 236.161 109.535C235.977 109.683 235.826 109.867 235.715 110.076C235.605 110.284 235.537 110.513 235.517 110.748C235.496 110.983 235.523 111.22 235.596 111.444C235.669 111.669 235.786 111.876 235.941 112.055C236.044 112.165 236.158 112.266 236.281 112.355L229.671 126.445L180.961 139.245C180.839 138.851 180.639 138.487 180.371 138.175C179.853 137.562 179.117 137.177 178.319 137.1C177.521 137.024 176.725 137.262 176.101 137.765C175.797 138.013 175.546 138.319 175.363 138.666C175.18 139.013 175.068 139.393 175.034 139.784C175.001 140.174 175.046 140.568 175.167 140.941C175.289 141.314 175.484 141.658 175.741 141.955C176.038 142.301 176.411 142.574 176.831 142.755L131.221 248.145L51.4206 264.085C51.3546 263.816 51.2281 263.567 51.0506 263.355C50.7397 262.988 50.2979 262.758 49.8195 262.713C49.3411 262.668 48.8642 262.812 48.4906 263.115C48.3089 263.263 48.1587 263.447 48.049 263.654C47.9393 263.862 47.8722 264.089 47.8517 264.323C47.8312 264.557 47.8577 264.793 47.9296 265.016C48.0016 265.24 48.1175 265.447 48.2706 265.625C48.5815 265.99 49.0224 266.221 49.5 266.267C49.9777 266.314 50.4548 266.173 50.8306 265.875L51.0106 265.695L85.9606 294.745L37.1906 337.435C36.6641 336.871 35.944 336.526 35.1744 336.471C34.4049 336.415 33.6427 336.652 33.0406 337.135C32.7361 337.382 32.4843 337.688 32.3003 338.034C32.1162 338.381 32.0036 338.761 31.9691 339.151C31.9346 339.542 31.9789 339.936 32.0994 340.309C32.2199 340.682 32.4141 341.028 32.6706 341.325C32.7657 341.423 32.8659 341.517 32.9706 341.605L-71.0394 458.215C-71.3689 457.952 -71.7779 457.809 -72.1994 457.809C-72.6209 457.809 -73.0299 457.952 -73.3594 458.215C-73.5407 458.365 -73.6902 458.55 -73.7992 458.759C-73.9081 458.967 -73.9743 459.196 -73.9939 459.43C-74.0134 459.665 -73.986 459.901 -73.9131 460.125C-73.8402 460.349 -73.7233 460.556 -73.5694 460.735C-73.2602 461.1 -72.8211 461.33 -72.3451 461.376C-71.869 461.423 -71.3936 461.283 -71.0194 460.985C-70.6816 460.705 -70.4597 460.309 -70.3969 459.875C-70.334 459.441 -70.4347 458.999 -70.6794 458.635L22.8906 394.995C22.9095 395.02 22.9262 395.047 22.9406 395.075C23.2516 395.44 23.6924 395.671 24.1701 395.717C24.6477 395.764 25.1248 395.623 25.5006 395.325C25.6838 395.176 25.8353 394.992 25.9459 394.783C26.0566 394.575 26.1242 394.346 26.1447 394.111C26.1652 393.876 26.1383 393.639 26.0654 393.415C25.9926 393.19 25.8753 392.983 25.7206 392.805C25.6417 392.714 25.5546 392.63 25.4606 392.555L79.4006 321.455L102.601 312.025C102.715 312.28 102.863 312.519 103.041 312.735C103.558 313.347 104.294 313.733 105.092 313.809C105.89 313.886 106.686 313.647 107.311 313.145C107.624 312.89 107.881 312.573 108.064 312.213C108.246 311.853 108.351 311.458 108.371 311.055L157.671 313.545C157.659 313.98 157.808 314.404 158.091 314.735C158.402 315.1 158.842 315.331 159.32 315.377C159.798 315.424 160.275 315.283 160.651 314.985C160.899 314.774 161.085 314.5 161.189 314.192C161.293 313.883 161.311 313.553 161.241 313.235C161.171 312.917 161.016 312.625 160.792 312.388C160.568 312.152 160.284 311.982 159.971 311.895L176.471 241.895C176.916 241.999 177.379 241.999 177.824 241.897C178.269 241.795 178.685 241.592 179.041 241.305C179.623 240.83 179.999 240.149 180.09 239.403C180.181 238.658 179.981 237.906 179.531 237.305L247.341 187.935C247.652 188.3 248.092 188.531 248.57 188.577C249.048 188.624 249.525 188.483 249.901 188.185C250.083 188.035 250.233 187.851 250.343 187.642C250.453 187.434 250.52 187.206 250.54 186.971C250.561 186.736 250.534 186.5 250.462 186.275C250.39 186.051 250.274 185.844 250.121 185.665C249.847 185.347 249.473 185.132 249.061 185.055L257.461 132.285L283.851 116.345C283.88 116.402 283.917 116.456 283.961 116.505C284.272 116.87 284.712 117.101 285.19 117.147C285.668 117.194 286.145 117.053 286.521 116.755C286.702 116.604 286.851 116.42 286.96 116.211C287.069 116.003 287.136 115.775 287.156 115.541C287.177 115.306 287.15 115.07 287.079 114.846C287.008 114.622 286.893 114.414 286.741 114.235C286.549 114.02 286.314 113.85 286.051 113.735L293.051 95.8547L331.051 70.0847C331.08 70.1195 331.106 70.1562 331.131 70.1946C331.496 70.6229 332.013 70.8918 332.574 70.9441C333.134 70.9964 333.693 70.828 334.131 70.4747C334.342 70.3002 334.516 70.0854 334.643 69.8429C334.77 69.6004 334.847 69.3349 334.871 69.0621C334.894 68.7893 334.862 68.5146 334.778 68.2541C334.694 67.9935 334.559 67.7523 334.381 67.5447C334.265 67.4124 334.135 67.2948 333.991 67.1946L383.201 -3.75537L443.881 -16.9153C443.961 -16.6103 444.108 -16.3268 444.311 -16.0853C444.674 -15.6548 445.192 -15.3843 445.753 -15.3319C446.314 -15.2795 446.874 -15.4496 447.311 -15.8054C447.529 -15.9747 447.71 -16.1874 447.842 -16.4301C447.974 -16.6728 448.054 -16.9403 448.078 -17.2156C448.101 -17.4908 448.067 -17.768 447.978 -18.0296C447.889 -18.2912 447.747 -18.5315 447.561 -18.7354L447.441 -18.8453L447.361 -18.9254C447.135 -19.1309 446.87 -19.2875 446.581 -19.3853L466.961 -88.0854L532.521 -106.735C532.633 -106.337 532.831 -105.969 533.101 -105.655C533.101 -105.595 533.211 -105.555 533.271 -105.495L533.351 -105.415C533.886 -104.911 534.584 -104.617 535.319 -104.585C536.053 -104.554 536.775 -104.788 537.351 -105.245C537.654 -105.493 537.905 -105.8 538.089 -106.147C538.272 -106.493 538.383 -106.873 538.417 -107.264C538.451 -107.655 538.405 -108.048 538.284 -108.421C538.163 -108.794 537.968 -109.139 537.711 -109.435C537.286 -109.941 536.706 -110.293 536.061 -110.435L557.261 -207.025L634.501 -230.795C634.625 -230.45 634.808 -230.129 635.041 -229.845C635.559 -229.235 636.295 -228.851 637.093 -228.775C637.89 -228.698 638.685 -228.935 639.311 -229.435C639.614 -229.683 639.865 -229.99 640.049 -230.337C640.232 -230.683 640.343 -231.063 640.377 -231.454C640.41 -231.845 640.365 -232.238 640.244 -232.611C640.123 -232.984 639.928 -233.329 639.671 -233.625C639.547 -233.771 639.409 -233.905 639.261 -234.025L639.171 -234.085C638.935 -234.259 638.676 -234.397 638.401 -234.495L638.301 -234.545C637.978 -234.652 637.64 -234.702 637.301 -234.695L633.511 -315.415L697.061 -401.915C697.265 -401.772 697.487 -401.654 697.721 -401.565H697.831C698.316 -401.396 698.836 -401.354 699.342 -401.443C699.848 -401.532 700.323 -401.75 700.721 -402.075C701.159 -402.426 701.486 -402.895 701.664 -403.428C701.841 -403.96 701.861 -404.532 701.721 -405.075V-405.185C701.644 -405.43 701.533 -405.662 701.391 -405.875L701.321 -405.965C701.268 -406.06 701.208 -406.15 701.141 -406.235L700.941 -406.435L700.861 -406.505C700.315 -407.012 699.604 -407.302 698.86 -407.32C698.115 -407.339 697.39 -407.085 696.821 -406.605ZM628.691 -415.065L630.871 -368.715L590.331 -347.445C590.244 -347.606 590.14 -347.757 590.021 -347.895C589.794 -348.158 589.524 -348.378 589.221 -348.545L627.121 -415.385C627.606 -415.141 628.148 -415.031 628.691 -415.065ZM543.691 -221.405L542.271 -202.505L530.391 -198.845L529.121 -220.995L541.041 -223.655C541.153 -223.221 541.362 -222.818 541.651 -222.475C542.161 -221.872 542.885 -221.489 543.671 -221.405H543.691ZM458.231 -157.835L454.091 -175.245L481.091 -183.555L482.861 -181.065L469.581 -148.355L461.441 -153.355C461.763 -153.883 461.911 -154.498 461.862 -155.114C461.814 -155.73 461.572 -156.315 461.171 -156.785C460.815 -157.208 460.354 -157.528 459.833 -157.713C459.313 -157.898 458.753 -157.94 458.211 -157.835H458.231ZM477.731 -206.645L486.851 -190.915L484.311 -184.665L481.121 -183.665L467.181 -203.275L473.791 -207.575C473.791 -207.505 473.881 -207.435 473.941 -207.365C474.395 -206.836 475.015 -206.477 475.7 -206.346C476.385 -206.216 477.094 -206.321 477.711 -206.645H477.731ZM559.901 -268.915L548.691 -237.715L539.751 -238.315L531.751 -264.435L557.961 -269.815L559.901 -268.915ZM558.131 -269.915L560.421 -270.385L559.941 -269.045L558.131 -269.915ZM518.191 -261.705L511.831 -240.245L507.101 -240.555L515.461 -261.145L518.191 -261.705ZM515.511 -261.275L523.701 -281.435L524.001 -281.335L518.221 -261.825L515.511 -261.275ZM511.801 -240.135L509.171 -231.245L503.751 -232.305L507.061 -240.445L511.801 -240.135ZM509.141 -231.135L504.571 -215.685L496.261 -213.835L503.711 -232.185L509.141 -231.135ZM509.251 -231.135L528.631 -227.365L528.981 -221.165L504.701 -215.745L509.251 -231.135ZM509.251 -231.245L511.881 -240.145L527.881 -239.075L528.541 -227.485L509.251 -231.245ZM511.911 -240.245L518.281 -261.745L526.521 -263.435L527.961 -239.105L511.911 -240.245ZM526.641 -263.455L531.641 -264.455L539.641 -238.365L528.081 -239.135L526.641 -263.455ZM548.641 -237.675L544.881 -227.235C544.312 -227.425 543.701 -227.446 543.121 -227.295L539.771 -238.295L548.641 -237.675ZM526.641 -263.575L525.641 -281.145C525.935 -281.166 526.226 -281.216 526.511 -281.295L531.611 -264.595L526.641 -263.575ZM526.531 -263.575L518.321 -261.895L524.081 -281.345C524.548 -281.209 525.035 -281.152 525.521 -281.175L526.531 -263.575ZM523.531 -281.525L515.321 -261.285L508.821 -259.945L522.961 -281.735C523.163 -281.618 523.374 -281.514 523.591 -281.425L523.531 -281.525ZM515.271 -261.155L506.961 -240.505L496.851 -241.185L508.781 -259.715L515.271 -261.155ZM506.961 -240.395L503.661 -232.265L492.541 -234.435L496.811 -241.075L506.961 -240.395ZM503.611 -232.165L496.141 -213.755L479.191 -209.975C479.081 -210.411 478.872 -210.814 478.581 -211.155C478.39 -211.376 478.167 -211.568 477.921 -211.725L492.471 -234.325L503.611 -232.165ZM496.091 -213.625L486.921 -191.055L477.821 -206.705C477.961 -206.78 478.095 -206.867 478.221 -206.965C478.643 -207.306 478.96 -207.759 479.137 -208.272C479.314 -208.785 479.343 -209.337 479.221 -209.865L496.091 -213.625ZM486.961 -190.795L489.581 -186.285L484.491 -184.715L486.961 -190.795ZM484.301 -184.535L482.941 -181.185L481.231 -183.585L484.301 -184.535ZM469.561 -148.245L463.661 -133.705L455.961 -136.495L458.451 -151.995C458.866 -151.929 459.291 -151.951 459.698 -152.059C460.104 -152.168 460.483 -152.361 460.811 -152.625C461.038 -152.817 461.234 -153.043 461.391 -153.295L469.561 -148.245ZM463.621 -133.605L451.121 -102.915C450.946 -102.984 450.765 -103.034 450.581 -103.065L455.961 -136.385L463.621 -133.605ZM451.261 -102.865L463.731 -133.565L478.731 -128.125L470.961 -102.015L453.091 -100.465C453.018 -101.045 452.779 -101.59 452.401 -102.035C452.081 -102.404 451.676 -102.689 451.221 -102.865H451.261ZM463.771 -133.665L469.661 -148.185L482.321 -140.355L478.731 -128.225L463.771 -133.665ZM469.711 -148.295L482.961 -180.915L490.961 -169.615L482.321 -140.425L469.711 -148.295ZM482.961 -181.075L484.381 -184.575L489.591 -186.175L493.721 -179.065L490.961 -169.795L482.961 -181.075ZM489.701 -186.215L496.451 -188.295L493.761 -179.215L489.701 -186.215ZM489.641 -186.315L486.961 -190.915L496.191 -213.655L504.511 -215.505L496.511 -188.415L489.641 -186.315ZM504.641 -215.545L528.961 -220.915L530.221 -198.765L496.611 -188.415L504.641 -215.545ZM542.221 -202.385L535.371 -111.035L530.371 -198.735L542.221 -202.385ZM529.071 -221.105L528.721 -227.265L540.961 -224.915C540.89 -224.545 540.89 -224.165 540.961 -223.795L529.071 -221.105ZM528.711 -227.375L528.051 -238.985L539.641 -238.205L543.001 -227.205C542.5 -227.05 542.05 -226.762 541.699 -226.374C541.347 -225.985 541.106 -225.509 541.001 -224.995L528.711 -227.375ZM546.241 -226.245C545.901 -226.639 545.468 -226.942 544.981 -227.125L548.751 -237.595L563.611 -236.595L561.241 -225.775L546.961 -224.655C546.893 -225.244 546.649 -225.798 546.261 -226.245H546.241ZM548.791 -237.705L559.961 -268.825L569.651 -264.175L563.651 -236.715L548.791 -237.705ZM560.041 -268.915L560.551 -270.325L571.551 -272.585L569.721 -264.265L560.041 -268.915ZM560.601 -270.455L565.031 -282.765L573.651 -282.195L571.561 -272.705L560.601 -270.455ZM586.651 -343.215L579.171 -322.425L528.961 -288.025C528.901 -288.105 528.841 -288.195 528.771 -288.275C528.703 -288.357 528.629 -288.434 528.551 -288.505L585.621 -343.915C585.917 -343.625 586.267 -343.394 586.651 -343.235V-343.215ZM587.021 -343.105L583.021 -325.105L579.291 -322.545L586.721 -343.185L587.021 -343.105ZM583.021 -324.925L573.661 -282.305L565.061 -282.915L579.271 -322.395L583.021 -324.925ZM573.751 -282.185L604.381 -280.185C604.37 -279.954 604.391 -279.722 604.441 -279.495L571.681 -272.765L573.751 -282.185ZM573.751 -282.295L583.131 -325.025L592.041 -331.135L606.491 -282.915C606.125 -282.798 605.786 -282.611 605.491 -282.365C605.187 -282.122 604.937 -281.819 604.754 -281.475C604.572 -281.131 604.462 -280.753 604.431 -280.365L573.751 -282.295ZM583.161 -325.185L587.091 -343.085C587.545 -342.98 588.017 -342.98 588.471 -343.085L592.011 -331.225L583.161 -325.185ZM588.581 -343.125C588.946 -343.248 589.285 -343.438 589.581 -343.685C590.106 -344.113 590.465 -344.71 590.599 -345.374C590.732 -346.038 590.63 -346.728 590.311 -347.325L630.791 -368.575L631.281 -358.175L592.071 -331.315L588.581 -343.125ZM626.671 -415.625C626.77 -415.553 626.874 -415.486 626.981 -415.425L589.131 -348.615C588.635 -348.874 588.079 -348.995 587.521 -348.965H587.411C586.804 -348.914 586.227 -348.684 585.751 -348.305C585.347 -347.972 585.041 -347.536 584.865 -347.043C584.688 -346.55 584.649 -346.019 584.751 -345.505L569.961 -342.765L626.671 -415.625ZM584.671 -345.375C584.779 -344.906 584.995 -344.468 585.301 -344.095L585.451 -343.955L554.741 -314.165L528.351 -288.575C528.221 -288.685 528.101 -288.795 527.961 -288.895L569.781 -342.615L584.671 -345.375ZM507.491 -328.165C507.759 -328.274 508.012 -328.418 508.241 -328.595C508.645 -328.928 508.951 -329.364 509.127 -329.857C509.303 -330.35 509.342 -330.882 509.241 -331.395L569.611 -342.585L527.961 -288.985C527.468 -289.351 526.907 -289.613 526.311 -289.755H526.201C525.354 -289.937 524.473 -289.874 523.661 -289.575L507.491 -328.165ZM528.961 -287.915L579.081 -322.245L564.961 -282.915L529.791 -285.245C529.812 -286.202 529.521 -287.14 528.961 -287.915ZM529.751 -285.105L564.961 -282.795L560.511 -270.445L557.961 -269.915L529.411 -283.635C529.62 -284.107 529.745 -284.611 529.781 -285.125L529.751 -285.105ZM528.161 -282.045C528.657 -282.448 529.057 -282.957 529.331 -283.535L557.781 -269.915L531.781 -264.565L526.681 -281.275C527.232 -281.436 527.745 -281.704 528.191 -282.065L528.161 -282.045ZM440.111 -246.285L521.261 -283.545C521.422 -283.229 521.616 -282.931 521.841 -282.655C522.13 -282.316 522.467 -282.019 522.841 -281.775L508.681 -259.775L440.291 -245.775C440.263 -245.958 440.213 -246.136 440.141 -246.305L440.111 -246.285ZM440.331 -245.635L508.611 -259.635L496.701 -241.145L440.421 -244.915C440.429 -245.163 440.409 -245.412 440.361 -245.655L440.331 -245.635ZM440.391 -244.835L496.641 -241.065L492.371 -234.435L440.371 -244.565C440.391 -244.675 440.411 -244.765 440.421 -244.855L440.391 -244.835ZM440.331 -244.455L492.331 -234.335L477.801 -211.765C477.268 -212.1 476.643 -212.259 476.015 -212.22C475.387 -212.181 474.787 -211.945 474.301 -211.545C474.221 -211.475 474.151 -211.395 474.081 -211.325L439.651 -243.085C440.009 -243.476 440.255 -243.956 440.361 -244.475L440.331 -244.455ZM439.331 -242.785C439.409 -242.854 439.482 -242.927 439.551 -243.005L473.961 -211.265C473.521 -210.788 473.255 -210.176 473.204 -209.529C473.153 -208.881 473.321 -208.236 473.681 -207.695L467.081 -203.385L439.151 -242.695L439.331 -242.785ZM438.131 -242.205C438.464 -242.289 438.782 -242.428 439.071 -242.615L467.001 -203.305L450.001 -192.235L438.131 -242.205ZM467.071 -203.205L480.991 -183.625L453.991 -175.315L449.991 -192.105L467.071 -203.205ZM399.711 -159.335L449.961 -192.075L453.961 -175.315L400.081 -158.725C399.99 -158.952 399.873 -159.167 399.731 -159.365L399.711 -159.335ZM400.071 -158.595L453.961 -175.205L458.101 -157.805C457.659 -157.706 457.245 -157.508 456.891 -157.225C456.575 -156.97 456.317 -156.651 456.135 -156.289C455.952 -155.927 455.848 -155.531 455.831 -155.125L400.211 -157.705C400.226 -158.017 400.185 -158.328 400.091 -158.625L400.071 -158.595ZM400.071 -156.785C400.159 -157.037 400.213 -157.299 400.231 -157.565L455.841 -154.975C455.823 -154.246 456.072 -153.535 456.541 -152.975C457.004 -152.445 457.636 -152.092 458.331 -151.975L455.841 -136.495L400.071 -156.785ZM400.071 -156.675L455.861 -136.395L450.521 -103.055C450.103 -103.122 449.676 -103.099 449.267 -102.989C448.859 -102.879 448.478 -102.683 448.151 -102.415L399.271 -155.615C399.599 -155.918 399.855 -156.291 400.021 -156.705L400.071 -156.675ZM399.201 -155.465L447.961 -102.325C447.48 -101.889 447.16 -101.304 447.051 -100.664C446.942 -100.024 447.051 -99.366 447.361 -98.7953L422.361 -85.5154L398.251 -154.995C398.578 -155.106 398.883 -155.275 399.151 -155.495L399.201 -155.465ZM449.901 -97.1553L449.201 -83.1553L435.731 -79.3253L448.471 -97.6953C448.881 -97.4134 449.355 -97.2382 449.851 -97.1853L449.901 -97.1553ZM435.551 -79.2354L425.551 -76.3954L422.431 -85.3954L447.491 -98.6853C447.7 -98.2998 448.002 -97.9731 448.371 -97.7354L435.551 -79.2354ZM435.451 -79.0953L428.231 -68.6754L425.591 -76.2853L435.451 -79.0953ZM384.071 -65.8153C383.607 -66.3395 382.98 -66.6918 382.291 -66.8153L396.781 -154.815C397.231 -154.74 397.694 -154.771 398.131 -154.905L422.241 -85.4053L384.371 -65.3253C384.286 -65.4976 384.185 -65.6616 384.071 -65.8153ZM384.431 -65.2753L422.281 -85.3553L425.391 -76.3553L384.631 -64.7654C384.581 -64.9416 384.514 -65.1124 384.431 -65.2753ZM384.661 -64.6953L425.431 -76.2853L428.101 -68.5854L410.461 -43.1653L384.231 -62.1653C384.492 -62.5258 384.666 -62.9415 384.741 -63.3802C384.815 -63.8189 384.788 -64.2689 384.661 -64.6953ZM383.661 -61.6254C383.831 -61.7678 383.986 -61.9288 384.121 -62.1053L410.351 -43.1053L395.821 -22.1653L367.351 -24.8453L380.731 -61.1553C381.226 -60.9695 381.76 -60.9152 382.283 -60.9976C382.805 -61.0799 383.297 -61.2963 383.711 -61.6254H383.661ZM306.661 12.8246L303.431 5.90466L329.671 -3.18536C329.905 -2.56332 330.347 -2.0408 330.921 -1.70532L324.611 8.92468L306.661 12.8246ZM324.541 9.08466L313.541 27.6147L306.701 12.9547L324.541 9.08466ZM306.541 12.8746L280.661 18.4946L281.121 13.6547L303.311 5.97467L306.541 12.8746ZM306.541 12.9847L313.431 27.7347L298.621 52.6747L278.291 43.0046L280.611 18.6147L306.541 12.9847ZM276.731 64.1846C277.031 64.1331 277.313 64.0058 277.551 63.8146C277.891 63.5374 278.113 63.1403 278.171 62.7047L291.741 64.2747L280.071 83.9547L276.731 64.1846ZM280.031 84.0847L273.791 94.6047L265.791 98.0847L275.961 64.0847C276.185 64.1463 276.42 64.1633 276.651 64.1346L280.031 84.0847ZM278.241 62.5646C278.275 62.0993 278.124 61.6393 277.821 61.2847C277.521 60.9385 277.105 60.7143 276.651 60.6547L278.321 43.0847L298.621 52.7347L291.861 64.1246L278.241 62.5646ZM278.241 42.9346L273.061 40.4647L276.651 19.4647L280.551 18.6147L278.241 42.9346ZM278.241 43.0546L276.561 60.6346C276.099 60.6012 275.641 60.7442 275.281 61.0347L270.461 55.7546L273.061 40.5746L278.241 43.0546ZM275.241 61.1246C274.91 61.435 274.712 61.8609 274.688 62.3136C274.664 62.7663 274.815 63.2108 275.111 63.5546C275.334 63.8036 275.616 63.9928 275.931 64.1047L265.751 98.1047L263.051 99.2847L270.471 55.8647L275.241 61.1246ZM265.711 98.2847L260.151 116.875H260.051L263.051 99.4747L265.711 98.2847ZM260.261 116.905L265.851 98.2247L273.761 94.7747L260.551 117.035L260.261 116.905ZM273.941 94.6946L281.341 91.4647L283.211 102.555L261.141 117.555L261.081 117.475C260.957 117.33 260.812 117.206 260.651 117.105L273.941 94.6946ZM274.041 94.5347L280.131 84.2646L281.321 91.3547L274.041 94.5347ZM280.151 84.0847L291.961 64.2546L304.911 65.7546L297.641 84.2047L281.401 91.2947L280.151 84.0847ZM291.961 64.1547L298.701 52.7947L308.181 57.2947L304.961 65.6447L291.961 64.1547ZM298.761 52.6946L313.511 27.8246L316.961 35.0847L308.271 57.1747L298.761 52.6946ZM313.581 27.6946L324.671 9.01465L327.421 8.41467L316.961 34.9647L313.581 27.6946ZM324.751 8.87463L331.001 -1.65533C331.102 -1.59534 331.209 -1.54517 331.321 -1.50537L327.471 8.28467L324.751 8.87463ZM331.431 -1.45532C331.752 -1.34033 332.089 -1.27625 332.431 -1.26532V7.20465L327.581 8.26465L331.431 -1.45532ZM332.531 -1.26532C333.213 -1.27094 333.874 -1.50314 334.411 -1.92535C334.789 -2.23499 335.083 -2.63391 335.269 -3.08612C335.454 -3.53833 335.523 -4.02954 335.471 -4.51532L360.851 -7.46533L357.451 1.77466L332.561 7.18463L332.531 -1.26532ZM335.441 -4.62537C335.364 -5.17566 335.131 -5.69257 334.771 -6.11536C334.659 -6.25342 334.532 -6.37766 334.391 -6.48535L350.731 -26.2753L367.221 -24.7253L360.961 -7.57532L335.441 -4.62537ZM350.811 -26.3754L379.881 -61.6053C380.115 -61.423 380.379 -61.2811 380.661 -61.1854L367.261 -24.8353L350.811 -26.3754ZM367.341 -24.7153L395.781 -22.0353L387.961 -10.7053L361.061 -7.58533L367.341 -24.7153ZM288.341 -33.3453L378.961 -62.9153C379.079 -62.5868 379.255 -62.2819 379.481 -62.0153C379.592 -61.8773 379.72 -61.753 379.861 -61.6453L350.741 -26.3654L288.511 -32.2153C288.527 -32.5962 288.469 -32.9765 288.341 -33.3353V-33.3453ZM288.461 -32.1353L350.611 -26.2853L334.331 -6.55536C333.788 -6.98276 333.117 -7.21515 332.426 -7.21515C331.735 -7.21515 331.064 -6.98276 330.521 -6.55536C330.284 -6.35602 330.081 -6.1196 329.921 -5.85535L288.071 -30.9153C288.293 -31.2827 288.427 -31.6971 288.461 -32.1254V-32.1353ZM286.771 -29.7853C287.002 -29.8824 287.218 -30.0139 287.411 -30.1754C287.647 -30.3708 287.85 -30.6039 288.011 -30.8654L329.861 -5.73535C329.647 -5.36987 329.516 -4.96268 329.474 -4.54156C329.433 -4.12045 329.483 -3.69537 329.621 -3.29535L303.381 5.78467L286.771 -29.7853ZM286.671 -29.7853L303.271 5.78467L281.141 13.4547L285.241 -29.5453C285.726 -29.4914 286.216 -29.5566 286.671 -29.7354V-29.7853ZM285.021 -29.5853H285.121L281.021 13.4747L277.441 14.7147L285.021 -29.5853ZM281.021 13.6147L280.561 18.4446L276.671 19.2947L277.431 14.8647L281.021 13.6147ZM246.491 25.6147L277.301 14.9446L276.551 19.3547L246.551 25.8746C246.533 25.7899 246.509 25.7064 246.481 25.6246L246.491 25.6147ZM246.581 25.9847L276.531 19.4747L272.961 40.4047L246.391 27.7747C246.634 27.2144 246.697 26.5923 246.571 25.9946L246.581 25.9847ZM246.341 27.8647L272.961 40.5247L270.371 55.6447L245.751 28.6447C245.984 28.4209 246.18 28.1609 246.331 27.8746L246.341 27.8647ZM244.191 29.4346C244.699 29.3488 245.177 29.1354 245.581 28.8146L245.641 28.7546L270.321 55.7546L262.861 99.3347L256.861 101.975L244.191 29.4346ZM262.841 99.4946L259.841 116.815C259.675 116.79 259.506 116.79 259.341 116.815L256.821 102.085L262.841 99.4946ZM239.061 111.425C239.137 111.18 239.159 110.921 239.124 110.667C239.09 110.413 239 110.17 238.861 109.955L256.711 102.165L259.261 116.835C258.963 116.884 258.683 117.012 258.451 117.205C258.214 117.396 258.034 117.648 257.931 117.935L239.061 111.425ZM238.501 112.265C238.736 112.072 238.916 111.82 239.021 111.535L257.891 118.085C257.801 118.392 257.801 118.718 257.891 119.025L239.361 123.905L237.671 112.685C237.98 112.621 238.266 112.476 238.501 112.265ZM214.881 157.965L209.881 161.025L208.071 159.815L217.651 152.175L214.881 157.965ZM217.801 151.965L240.711 133.695L241.891 141.585L215.061 157.855L217.801 151.965ZM214.801 158.095L212.591 162.805L209.961 161.085L214.801 158.095ZM209.721 161.085L196.961 168.795L196.891 168.695L207.891 159.895L209.721 161.085ZM209.821 161.155L212.541 162.955L207.541 173.585L197.181 170.265C197.245 170.034 197.263 169.793 197.232 169.556C197.201 169.319 197.122 169.091 197.001 168.885L209.821 161.155ZM207.511 173.695L195.201 199.965L186.981 201.965L195.061 171.475C195.331 171.542 195.614 171.546 195.887 171.485C196.159 171.424 196.414 171.301 196.631 171.125C196.876 170.921 197.063 170.655 197.171 170.355L207.511 173.695ZM195.141 200.085L178.141 236.275C178.061 236.233 177.977 236.199 177.891 236.175L186.961 202.085L195.141 200.085ZM194.941 171.455L186.851 202.005L177.501 204.295L177.641 190.375L194.331 171.135C194.516 171.286 194.731 171.398 194.961 171.465L194.941 171.455ZM177.391 204.325L163.901 207.645C163.828 207.407 163.709 207.186 163.551 206.995C163.496 206.933 163.435 206.876 163.371 206.825L177.521 190.505L177.391 204.325ZM186.821 202.125L177.821 236.125C177.621 236.075 177.416 236.045 177.211 236.035L177.521 204.385L186.821 202.125ZM178.281 236.315L195.281 200.045L205.451 197.545L178.731 236.545C178.584 236.464 178.434 236.39 178.281 236.325V236.315ZM195.341 199.915L207.621 173.715L219.231 177.435L205.551 197.435L195.341 199.915ZM207.671 173.615L212.671 163.005L223.961 170.525L219.281 177.355L207.671 173.615ZM212.671 162.905L214.961 158.085L241.961 141.755L242.281 143.865L224.091 170.425L212.671 162.905ZM242.001 141.685L244.901 139.935L242.311 143.725L242.001 141.685ZM242.001 141.565L240.811 133.655L258.261 119.725C258.354 119.829 258.458 119.922 258.571 120.005L245.081 139.705L242.001 141.565ZM240.791 133.565L239.351 124.015L257.891 119.085C257.963 119.285 258.064 119.474 258.191 119.645L240.791 133.565ZM236.381 112.415C236.725 112.635 237.134 112.734 237.541 112.695L239.231 123.925L229.821 126.405L236.381 112.415ZM239.241 124.035L240.691 133.645L217.961 151.785L229.801 126.505L239.241 124.035ZM180.961 139.355L229.571 126.545L217.671 151.945L207.961 159.755L180.661 141.685C180.87 141.338 181.005 140.952 181.056 140.551C181.108 140.15 181.075 139.743 180.961 139.355ZM179.961 142.355C180.163 142.182 180.341 141.984 180.491 141.765L207.751 159.765L196.751 168.545C196.48 168.238 196.115 168.03 195.713 167.954C195.311 167.878 194.895 167.938 194.531 168.125L179.531 142.565C179.702 142.512 179.87 142.445 180.031 142.365L179.961 142.355ZM179.471 142.675L194.471 168.235L194.251 168.375C194.07 168.524 193.92 168.708 193.811 168.916C193.703 169.124 193.636 169.352 193.617 169.585C193.597 169.819 193.625 170.055 193.697 170.278C193.77 170.501 193.887 170.707 194.041 170.885C194.096 170.95 194.156 171.01 194.221 171.065L177.611 190.195L178.081 143.015C178.587 143.03 179.09 142.916 179.541 142.685L179.471 142.675ZM177.391 142.945C177.565 142.983 177.742 143.007 177.921 143.015L177.451 190.335L163.211 206.745C163.012 206.589 162.784 206.473 162.541 206.405L177.391 142.945ZM176.891 142.785C177.014 142.848 177.145 142.895 177.281 142.925L162.431 206.385C162.166 206.332 161.894 206.336 161.631 206.398C161.369 206.46 161.123 206.579 160.911 206.745C160.729 206.895 160.58 207.08 160.471 207.289C160.362 207.497 160.296 207.726 160.276 207.961C160.257 208.195 160.284 208.431 160.357 208.655C160.43 208.879 160.547 209.086 160.701 209.265C160.86 209.452 161.056 209.605 161.275 209.715C161.495 209.825 161.735 209.889 161.981 209.905L161.181 242.135L131.291 248.135L176.891 142.785ZM161.181 242.255L161.101 245.365L128.061 258.655C127.998 258.506 127.914 258.368 127.811 258.245C127.636 258.046 127.421 257.885 127.181 257.775L131.311 248.245L161.181 242.255ZM103.341 308.525C103.221 308.625 103.121 308.745 103.011 308.855L94.3506 301.645L104.051 288.865L120.051 296.005L107.371 308.685C106.835 308.196 106.143 307.913 105.418 307.885C104.693 307.858 103.982 308.088 103.411 308.535L103.341 308.525ZM104.121 288.775L125.321 260.775C125.6 260.967 125.927 261.079 126.265 261.099C126.604 261.118 126.941 261.044 127.241 260.885L137.801 278.165L120.111 295.865L104.121 288.775ZM104.011 288.725L96.6606 285.435L125.051 260.585C125.111 260.645 125.161 260.705 125.221 260.755L104.011 288.725ZM127.341 260.875L127.521 260.755C127.808 260.52 128.014 260.199 128.107 259.84C128.201 259.48 128.177 259.1 128.041 258.755L161.091 245.485L160.851 255.135L137.851 278.135L127.341 260.875ZM51.3406 264.175L131.071 248.255L126.971 257.725C126.671 257.602 126.344 257.562 126.024 257.61C125.703 257.657 125.402 257.79 125.151 257.995C124.938 258.167 124.769 258.388 124.658 258.638C124.547 258.888 124.496 259.161 124.511 259.435L51.3706 264.295L51.3406 264.175ZM51.3406 264.405L124.491 259.545C124.518 259.913 124.662 260.263 124.901 260.545L96.4706 285.425L51.2006 265.205C51.3516 264.966 51.4441 264.696 51.4706 264.415L51.3406 264.405ZM50.9606 265.595C51.0399 265.491 51.1101 265.38 51.1706 265.265L96.3906 285.465L85.8906 294.655L50.9606 265.595ZM85.9606 294.735L96.4806 285.525L103.861 288.815L94.1806 301.575L85.9606 294.735ZM23.0206 392.545C22.6823 392.82 22.4596 393.212 22.3966 393.643C22.3336 394.075 22.435 394.514 22.6806 394.875L-70.8794 458.525L-70.9394 458.445L-71.0994 458.285L32.9006 341.675C33.2824 341.992 33.7354 342.211 34.2206 342.315L24.4906 392.165C24.0163 392.115 23.5416 392.255 23.1706 392.555L23.0206 392.545ZM25.2206 392.465C25.0293 392.336 24.8156 392.245 24.5906 392.195L34.3106 342.335C34.7403 342.419 35.1832 342.408 35.6082 342.302C36.0332 342.197 36.4299 342 36.7706 341.725C37.2555 341.327 37.5998 340.783 37.7528 340.175C37.9058 339.566 37.8595 338.925 37.6206 338.345L79.0506 321.515L25.2206 392.465ZM37.5706 338.245C37.4602 337.99 37.3155 337.751 37.1406 337.535L85.9206 294.845L94.1506 301.705L79.2206 321.385L37.5706 338.245ZM102.421 311.905L79.4206 321.255L94.2306 301.735L102.881 308.935C102.564 309.357 102.367 309.857 102.313 310.382C102.258 310.907 102.347 311.437 102.571 311.915L102.421 311.905ZM157.531 313.405L108.231 310.925C108.257 310.194 108.007 309.48 107.531 308.925C107.481 308.865 107.411 308.815 107.361 308.755L120.211 296.085L157.831 312.885C157.754 313.053 157.703 313.231 157.681 313.415L157.531 313.405ZM158.171 312.205C157.986 312.357 157.833 312.544 157.721 312.755L120.141 295.965L137.961 278.325L158.541 312.085C158.471 312.085 158.391 312.155 158.321 312.215L158.171 312.205ZM158.491 311.995L137.861 278.235L160.961 255.315L159.551 311.815C159.236 311.795 158.921 311.861 158.641 312.005L158.491 311.995ZM176.211 241.895L159.721 311.895H159.471L160.891 255.275L174.891 241.275C175.315 241.614 175.823 241.832 176.361 241.905L176.211 241.895ZM174.641 240.895C174.692 240.956 174.749 241.013 174.811 241.065L161.041 255.085L161.281 245.495L174.341 240.255C174.458 240.498 174.61 240.724 174.791 240.925L174.641 240.895ZM174.151 240.075L161.151 245.295L161.231 242.205L174.031 239.655C174.11 239.804 174.2 239.948 174.301 240.085L174.151 240.075ZM175.001 236.705C174.59 237.041 174.279 237.484 174.103 237.985C173.927 238.485 173.891 239.025 174.001 239.545L161.361 242.085L162.171 209.875C162.414 209.878 162.656 209.83 162.881 209.735L175.741 236.325C175.529 236.438 175.331 236.575 175.151 236.735L175.001 236.705ZM175.701 236.295L162.961 209.735C163.082 209.674 163.196 209.601 163.301 209.515C163.553 209.308 163.743 209.034 163.847 208.724C163.951 208.415 163.966 208.082 163.891 207.765L177.361 204.455L177.071 236.085C176.652 236.08 176.237 236.162 175.851 236.325L175.701 236.295ZM247.131 187.835L179.331 237.205C179.307 237.177 179.287 237.147 179.271 237.115C179.092 236.918 178.891 236.743 178.671 236.595L205.471 197.495L246.871 187.315C246.966 187.526 247.106 187.713 247.281 187.865L247.131 187.835ZM246.841 187.205L205.561 197.345L219.191 177.455L246.861 186.325C246.818 186.632 246.852 186.944 246.961 187.235L246.841 187.205ZM246.901 186.205L219.261 177.335L223.921 170.535L247.061 185.855C247.045 185.987 247.042 186.121 247.051 186.255L246.901 186.205ZM247.431 185.435C247.318 185.532 247.217 185.643 247.131 185.765L223.981 170.445L242.261 144.085L248.431 185.085C248.117 185.141 247.824 185.279 247.581 185.485L247.431 185.435ZM248.961 185.085C248.818 185.07 248.674 185.07 248.531 185.085L242.331 143.895L245.141 139.795L257.341 132.425L248.961 185.085ZM245.291 139.565L258.671 120.085C258.859 120.207 259.07 120.292 259.291 120.335L257.391 132.335L245.291 139.565ZM283.791 116.295L257.491 132.195L259.381 120.335C259.646 120.371 259.915 120.346 260.17 120.263C260.424 120.18 260.656 120.04 260.848 119.854C261.041 119.669 261.189 119.442 261.281 119.191C261.373 118.94 261.407 118.671 261.381 118.405L283.541 115.695C283.594 115.912 283.685 116.119 283.811 116.305L283.791 116.295ZM284.181 114.035C283.957 114.222 283.782 114.461 283.672 114.731C283.562 115.001 283.521 115.294 283.551 115.585L261.391 118.295C261.346 118.051 261.251 117.819 261.111 117.615L283.111 102.665L284.971 113.665C284.684 113.742 284.421 113.886 284.201 114.085L284.181 114.035ZM285.951 113.745C285.681 113.65 285.394 113.619 285.111 113.655L283.251 102.595L292.931 96.0146L285.951 113.745ZM283.231 102.465L281.361 91.4047L297.531 84.3447L293.001 95.8347L283.231 102.465ZM331.021 70.0847L293.191 95.7546L297.691 84.3246L330.881 69.8447C330.961 69.8947 330.961 69.9747 331.021 70.0847ZM330.841 69.7446L297.751 84.1747L304.961 65.7646L330.641 68.7646C330.626 69.0931 330.694 69.4201 330.841 69.7147V69.7446ZM330.691 68.6547L305.031 65.6547L308.301 57.3347L330.851 68.0847C330.768 68.2548 330.714 68.4371 330.691 68.6246V68.6547ZM331.841 67.0847C331.407 67.2559 331.052 67.5795 330.841 67.9946L308.291 57.2747L316.951 35.2747L331.841 67.0847ZM332.711 66.8846C332.449 66.8878 332.191 66.9422 331.951 67.0447L317.061 35.0847L327.571 8.37463L332.471 7.31464L332.711 66.8846ZM332.581 7.33466L357.421 1.94464L333.421 66.9446C333.224 66.8783 333.018 66.8412 332.811 66.8347L332.581 7.33466ZM333.961 67.1946C333.849 67.1158 333.728 67.0519 333.601 67.0046L357.601 1.88464L383.101 -3.65533L333.961 67.1946ZM357.651 1.75464L361.051 -7.46533L387.911 -10.5853L383.201 -3.79535L357.651 1.75464ZM443.911 -16.9854L383.361 -3.82532L388.061 -10.5953L443.891 -17.0753C443.886 -17.0439 443.876 -17.0135 443.861 -16.9854H443.911ZM443.911 -17.1854L388.191 -10.7253L395.961 -22.0153L443.851 -17.5153C443.831 -17.4065 443.821 -17.2961 443.821 -17.1854H443.911ZM443.911 -17.6254L395.961 -22.1254L410.451 -43.0054L444.151 -18.5654C443.963 -18.2857 443.853 -17.9614 443.831 -17.6254H443.911ZM444.641 -18.9854C444.527 -18.8888 444.424 -18.7817 444.331 -18.6653L410.561 -43.0953L428.141 -68.4554L445.191 -19.3253C444.962 -19.2508 444.748 -19.1357 444.561 -18.9854H444.641ZM445.381 -19.3754L428.301 -68.5753L435.651 -79.1754L449.231 -83.0253L445.961 -19.4454C445.738 -19.4552 445.516 -19.4316 445.301 -19.3754H445.381ZM446.541 -19.3754C446.421 -19.414 446.296 -19.4376 446.171 -19.4454L449.341 -83.0653L466.871 -88.0653L446.541 -19.3754ZM449.351 -83.1853L450.041 -97.1853C450.765 -97.1564 451.476 -97.3909 452.041 -97.8453C452.407 -98.1466 452.695 -98.5324 452.88 -98.9696C453.065 -99.4069 453.14 -99.8824 453.101 -100.355L470.901 -101.915L466.831 -88.1853L449.351 -83.1853ZM532.541 -106.845L466.961 -88.2153L471.021 -101.915L532.381 -107.245C532.398 -107.11 532.424 -106.977 532.461 -106.845H532.541ZM532.611 -108.535C532.476 -108.161 532.424 -107.762 532.461 -107.365L471.131 -102.025L478.851 -128.085L532.611 -108.535ZM532.611 -108.645L478.841 -128.185L482.421 -140.295L532.831 -109.095C532.736 -108.95 532.649 -108.8 532.571 -108.645H532.611ZM533.471 -109.845C533.247 -109.657 533.054 -109.434 532.901 -109.185L482.451 -140.405L491.081 -169.535L533.491 -109.855L533.471 -109.845ZM533.581 -109.915L491.121 -169.675L493.861 -178.925L533.861 -110.105L533.581 -109.915ZM533.961 -110.165L493.861 -179.075L496.611 -188.335L530.261 -198.695L535.311 -110.505C534.841 -110.496 534.379 -110.38 533.961 -110.165ZM535.961 -110.445C535.802 -110.475 535.642 -110.495 535.481 -110.505L542.381 -202.425L557.131 -206.915L535.961 -110.445ZM542.391 -202.545L543.801 -221.405C544.562 -221.349 545.317 -221.585 545.911 -222.065C546.274 -222.363 546.561 -222.744 546.747 -223.175C546.933 -223.607 547.013 -224.077 546.981 -224.545L561.251 -225.665L557.181 -207.095L542.391 -202.545ZM634.451 -230.915L557.291 -207.155L561.361 -225.695L634.361 -231.455C634.376 -231.273 634.406 -231.093 634.451 -230.915ZM634.341 -231.565L561.341 -225.815L563.711 -236.615L634.331 -231.915C634.331 -231.765 634.331 -231.655 634.341 -231.545V-231.565ZM634.341 -232.005L563.791 -236.725L569.791 -264.145L634.601 -233.005C634.449 -232.685 634.358 -232.339 634.331 -231.985L634.341 -232.005ZM635.411 -234.005C635.096 -233.747 634.838 -233.427 634.651 -233.065L569.831 -264.215L571.671 -272.615L604.481 -279.355C604.585 -278.893 604.797 -278.462 605.099 -278.098C605.402 -277.733 605.786 -277.446 606.221 -277.258C606.656 -277.071 607.13 -276.99 607.602 -277.02C608.075 -277.051 608.534 -277.193 608.941 -277.435L635.741 -234.215C635.623 -234.16 635.509 -234.097 635.401 -234.025L635.411 -234.005ZM637.161 -234.665C636.694 -234.644 636.238 -234.514 635.831 -234.285L609.031 -277.515C609.143 -277.579 609.25 -277.653 609.351 -277.735C609.654 -277.983 609.904 -278.288 610.087 -278.633C610.27 -278.979 610.383 -279.358 610.417 -279.747C610.452 -280.137 610.408 -280.529 610.288 -280.902C610.168 -281.274 609.976 -281.619 609.721 -281.915C609.568 -282.09 609.397 -282.248 609.211 -282.385L633.371 -315.255L637.161 -234.665ZM633.371 -315.415L609.121 -282.415C608.758 -282.663 608.347 -282.832 607.914 -282.909C607.481 -282.987 607.037 -282.972 606.611 -282.865L592.181 -331.215L631.361 -358.055L633.371 -315.415ZM696.471 -402.415C696.62 -402.241 696.787 -402.083 696.971 -401.945L633.481 -315.585L631.481 -358.135L696.361 -402.575C696.387 -402.518 696.421 -402.464 696.461 -402.415H696.471ZM696.291 -402.665L631.481 -358.265L630.961 -368.655L696.121 -402.865C696.177 -402.802 696.231 -402.735 696.281 -402.665H696.291Z" fill="white" fill-opacity="0.5"/>
</g>
</g>
</svg>
