<svg width="59" height="52" viewBox="0 0 59 52" fill="none" xmlns="http://www.w3.org/2000/svg">
<path d="M33.1912 48.9185C37.0147 46.6074 40.4559 43.3333 43.5147 39.0963C46.701 34.9877 48.2941 30.8148 48.2941 26.5778C48.2941 25.4222 47.9755 24.4593 47.3382 23.6889C46.701 23.0469 45.7451 22.7259 44.4706 22.7259C41.2843 22.7259 38.5441 21.6346 36.25 19.4519C34.0833 17.1407 33 14.3802 33 11.1704C33 7.96049 34.0833 5.32839 36.25 3.27407C38.5441 1.09136 41.2843 0 44.4706 0C48.9314 0 52.4363 1.66914 54.9853 5.00741C57.6618 8.21728 59 12.4543 59 17.7185C59 24.9086 57.0245 31.3926 53.0735 37.1704C49.25 43.0765 43.3235 48.0198 35.2941 52L33.1912 48.9185Z" fill="#050F58" fill-opacity="0.06"/>
<path d="M0.191177 48.9185C4.01471 46.6074 7.45588 43.3333 10.5147 39.0963C13.701 34.9877 15.2941 30.8148 15.2941 26.5778C15.2941 25.4222 14.9755 24.4593 14.3382 23.6889C13.701 23.0469 12.7451 22.7259 11.4706 22.7259C8.28431 22.7259 5.54412 21.6346 3.25 19.4519C1.08333 17.1407 0 14.3802 0 11.1704C0 7.96049 1.08333 5.32839 3.25 3.27407C5.54412 1.09136 8.28431 0 11.4706 0C15.9314 0 19.4363 1.66914 21.9853 5.00741C24.6618 8.21728 26 12.4543 26 17.7185C26 24.9086 24.0245 31.3926 20.0735 37.1704C16.25 43.0765 10.3235 48.0198 2.29412 52L0.191177 48.9185Z" fill="#050F58" fill-opacity="0.06"/>
</svg>
