<svg width="36" height="44" viewBox="0 0 36 44" fill="none" xmlns="http://www.w3.org/2000/svg">
<path d="M10.8356 31.7051H10.4334C9.40747 31.7051 8.57138 32.5402 8.57138 33.5661C8.57138 34.593 9.40646 35.4291 10.4334 35.4291H25.2342C26.2592 35.4291 27.0952 34.593 27.0952 33.5661C27.0952 32.5402 26.2592 31.7051 25.2342 31.7051H24.5502L25.2861 29.3362C25.702 27.9991 25.552 26.5289 24.878 25.3051L21.3629 18.9269C21.618 19.034 21.8718 19.1489 22.143 19.2219C22.9071 19.4288 23.69 19.4877 24.4732 19.4C24.8991 19.3531 25.3273 19.4549 25.6822 19.686C26.5631 20.2589 27.4521 20.818 28.3521 21.3611C29.0001 21.7532 29.7642 21.8681 30.4971 21.6842C31.233 21.5021 31.8522 21.0444 32.2453 20.3962C32.7964 19.4831 32.7904 18.352 32.2292 17.444C31.0472 15.5271 29.8971 13.5458 28.8072 11.5509C28.4261 10.8528 28.1492 10.1058 27.9832 9.33099C27.5633 7.36686 26.3461 5.70875 24.614 4.72471L25.721 0.630677C25.7779 0.424758 25.6959 0.204764 25.5201 0.0855658C25.3399 -0.0343014 25.1099 -0.0272725 24.9381 0.100633L20.526 3.4269C15.8159 4.92695 11.9627 8.1621 9.67161 12.5464C7.36659 16.9564 6.91657 22.0001 8.40462 26.7472C8.96246 28.5214 9.78947 30.1806 10.8355 31.7057L10.8356 31.7051ZM26.0967 33.5661C26.0967 34.0433 25.7096 34.429 25.2355 34.429H10.4347C9.95952 34.429 9.57242 34.0409 9.57242 33.5661C9.57242 33.091 9.95949 32.7049 10.4347 32.7049H25.2355C25.7096 32.7049 26.0967 33.092 26.0967 33.5661ZM10.5613 13.0094C12.7423 8.83633 16.4185 5.76327 20.9116 4.35536C20.9665 4.33728 21.0178 4.3115 21.0636 4.27735L24.3778 1.77714L23.5458 4.8472C23.4828 5.07723 23.5926 5.32132 23.8079 5.42612C25.456 6.24111 26.6219 7.74015 27.0069 9.53919C27.1948 10.4081 27.5048 11.2462 27.931 12.0273C29.029 14.0383 30.1892 16.0366 31.3801 17.9666C31.7431 18.5545 31.7451 19.2855 31.3902 19.8768C31.136 20.2967 30.7362 20.5937 30.2591 20.7109C29.784 20.8307 29.2901 20.7537 28.8703 20.5009C27.9813 19.9659 27.1004 19.4131 26.2311 18.8458C25.678 18.4889 25.018 18.3328 24.362 18.4038C23.7041 18.4788 23.0461 18.4279 22.4049 18.2568C21.0549 17.8919 19.9279 17.0227 19.2317 15.8099C18.5356 14.5968 18.3538 13.1858 18.7187 11.8358C18.7907 11.5679 18.6327 11.2947 18.3668 11.2227C18.0989 11.1537 17.8247 11.3077 17.7527 11.5756C17.3168 13.1828 17.5347 14.8647 18.3638 16.3078C18.6949 16.8837 19.1269 17.3729 19.6047 17.8068L24.0007 25.7873C24.5458 26.7753 24.6667 27.9613 24.3309 29.0395L23.5028 31.7055H12.0578C10.8699 30.1113 9.95776 28.3484 9.36177 26.4472C7.95378 21.9541 8.37773 17.1829 10.5608 13.0093L10.5613 13.0094Z" fill="#0BB8B3"/>
<path d="M35.4165 33.135L33.4494 31.999C33.2954 31.9089 33.1035 31.9089 32.9495 31.999C32.7955 32.088 32.6994 32.2531 32.6994 32.4319V33.0691H29.3202C29.0433 33.0691 28.8203 33.2931 28.8203 33.569C28.8203 33.8439 29.0433 34.0689 29.3202 34.0689H32.6994V34.7051C32.6994 34.8842 32.7955 35.0489 32.9495 35.138C33.0275 35.1829 33.1136 35.205 33.1996 35.205C33.2857 35.205 33.3737 35.1829 33.4497 35.138L35.4165 33.9999C35.5726 33.9109 35.6666 33.7458 35.6666 33.566C35.6663 33.3889 35.5722 33.2248 35.4165 33.135Z" fill="#0BB8B3"/>
<path d="M6.34943 33.0655H2.96728V32.4303C2.96728 32.2502 2.87218 32.0855 2.71716 31.9964C2.56313 31.9063 2.37127 31.9063 2.21725 31.9964L0.250123 33.1335C0.0950948 33.2236 0 33.3877 0 33.5655C0 33.7446 0.0950948 33.9103 0.250123 33.9994L2.21725 35.1355C2.29426 35.1814 2.38132 35.2025 2.46738 35.2025C2.55343 35.2025 2.64048 35.1814 2.7175 35.1355C2.87253 35.0464 2.96762 34.8814 2.96762 34.7026V34.0654H6.34874C6.62465 34.0654 6.84865 33.8414 6.84865 33.5655C6.84932 33.2906 6.62533 33.0655 6.34943 33.0655Z" fill="#0BB8B3"/>
<path d="M17.834 37.1516C17.5581 37.1516 17.3341 37.3766 17.3341 37.6515V41.0337H16.699C16.5198 41.0337 16.3551 41.1298 16.266 41.2838C16.177 41.4368 16.177 41.6297 16.266 41.7837L17.4011 43.7499C17.4912 43.9039 17.6549 44 17.834 44C18.0132 44 18.1779 43.9039 18.267 43.7499L19.4031 41.7837C19.4921 41.6297 19.4921 41.4388 19.4031 41.2838C19.314 41.1298 19.1489 41.0337 18.9701 41.0337H18.3339V37.6515C18.3339 37.3766 18.1099 37.1516 17.834 37.1516Z" fill="#0BB8B3"/>
<path d="M24.5363 9.73613C24.6324 9.83323 24.7593 9.88111 24.8862 9.88111C25.0171 9.88111 25.1463 9.83122 25.2431 9.73211C25.436 9.53724 25.434 9.21914 25.2371 9.02494L24.405 8.20694C24.2081 8.01408 23.891 8.01608 23.6978 8.21297C23.505 8.40885 23.507 8.72593 23.7039 8.92014L24.5363 9.73613Z" fill="#0BB8B3"/>
</svg>
