<svg width="53" height="35" viewBox="0 0 53 35" fill="none" xmlns="http://www.w3.org/2000/svg">
<path d="M17.2718 16.0039V19.9556C17.2718 20.9471 17.5479 21.9158 18.0761 22.7573L20.441 26.5387C20.2416 26.6371 20.1013 26.8365 20.1013 27.0728V33.5599C20.1013 33.8899 20.3702 34.16 20.7014 34.16H32.1194C32.4506 34.16 32.7195 33.8899 32.7195 33.5599V27.0753C32.7195 26.8542 32.5957 26.6742 32.4253 26.5689L34.2078 22.4238C34.4924 21.7574 34.6375 21.0541 34.6375 20.335L34.6383 13.8515C34.6383 12.5778 33.6026 11.5432 32.3288 11.5432C31.814 11.5432 31.3421 11.7184 30.9567 12.0054C30.5748 11.2598 29.8055 10.7437 28.9113 10.7437C28.2641 10.7437 27.6822 11.0126 27.2618 11.4423C26.8381 10.9323 26.2079 10.6019 25.4949 10.6019C24.7493 10.6019 24.093 10.9632 23.669 11.5142C23.255 11.1179 22.6955 10.872 22.0798 10.872C20.9922 10.872 20.0822 11.632 19.8398 12.6473C19.7988 12.7265 19.7715 12.8165 19.7715 12.9125V13.3748C18.382 13.4479 17.2715 14.5934 17.2715 16.0038L17.2718 16.0039ZM31.5173 32.9606H21.2992V27.6766H31.5173V32.9606ZM31.1572 26.4748H21.8144L19.093 22.1208C18.6875 21.4712 18.4712 20.7212 18.4712 19.9539V16.0022C18.4712 15.2028 19.122 14.5533 19.9214 14.5533H26.5945C27.3558 14.5533 27.9739 15.1726 27.9739 15.9315C27.9739 16.6928 27.3534 17.3109 26.5945 17.3109H24.015C23.7534 17.3109 23.5239 17.4813 23.4423 17.7297C23.3631 17.9781 23.4543 18.2506 23.6677 18.4034C25.0484 19.3804 26.0902 20.8064 26.599 22.4222C26.6986 22.739 27.0359 22.9098 27.3518 22.8113C27.6673 22.7128 27.8429 22.3756 27.742 22.0585C27.6363 21.7261 27.5117 21.3945 27.3662 21.079C27.7766 21.4524 28.3156 21.6839 28.9124 21.6839C29.658 21.6839 30.3131 21.325 30.736 20.7739C31.1524 21.1727 31.7119 21.4186 32.33 21.4186C32.6962 21.4186 33.0406 21.325 33.3505 21.1702C33.2942 21.4355 33.2138 21.696 33.1057 21.9456L31.1572 26.4748ZM26.6042 19.5496C26.6042 19.601 26.5789 19.6456 26.5717 19.6971C26.2871 19.2795 25.98 18.8783 25.6291 18.5159H26.5942C26.5978 18.5159 26.6014 18.5134 26.605 18.5134L26.6054 19.5496L26.6042 19.5496ZM32.3289 12.7418C32.941 12.7418 33.4382 13.2385 33.4382 13.8499V19.1103C33.4382 19.7224 32.9414 20.2196 32.3289 20.2196C31.7179 20.2196 31.2207 19.7228 31.2207 19.1103V13.8499C31.2211 13.239 31.7179 12.7418 32.3289 12.7418ZM28.9125 11.9423C29.5246 11.9423 30.0207 12.4391 30.0207 13.0505V19.378C30.0207 19.9877 29.5251 20.4849 28.9125 20.4849C28.3016 20.4849 27.8043 19.9881 27.8043 19.378V18.2015C28.6146 17.7658 29.1753 16.9206 29.1753 15.9362C29.1753 14.9519 28.6158 14.1078 27.8043 13.6709V13.0504C27.8048 12.4394 28.3015 11.9422 28.9125 11.9422V11.9423ZM24.388 12.9086C24.388 12.2976 24.8848 11.8004 25.4962 11.8004C26.1071 11.8004 26.6043 12.2972 26.6043 12.9086C26.6043 12.9254 26.6128 12.9387 26.614 12.9552C26.6128 12.9877 26.6043 13.0187 26.6043 13.05V13.3551C26.6007 13.3551 26.5971 13.3539 26.5935 13.3539H24.3881L24.388 12.9086ZM22.0822 12.0697C22.6931 12.0697 23.1903 12.5665 23.1903 13.179V13.3543H20.9745L20.9741 13.1786C20.9741 12.5665 21.4701 12.0697 22.0823 12.0697L22.0822 12.0697Z" fill="#0BB8B3"/>
<path d="M26.4087 8.53003C26.7399 8.53003 27.0087 8.25994 27.0087 7.92996V0.600071C27.0087 0.268879 26.7398 0 26.4087 0C26.0787 0 25.8086 0.268889 25.8086 0.600071V7.92996C25.8086 8.26235 26.0787 8.53003 26.4087 8.53003Z" fill="#0BB8B3"/>
<path d="M17.5626 10.0849C17.6659 10.3011 17.8817 10.4245 18.104 10.4245C18.1916 10.4245 18.2792 10.4052 18.3632 10.3658C18.6623 10.2232 18.7881 9.86303 18.6442 9.56399L15.4629 2.95919C15.3203 2.66017 14.9601 2.53436 14.6623 2.67945C14.3633 2.82213 14.2375 3.18105 14.3826 3.48008L17.5626 10.0849Z" fill="#0BB8B3"/>
<path d="M6.0864 10.099C5.82836 9.89241 5.45015 9.9334 5.24236 10.1939C5.03577 10.4531 5.07796 10.8289 5.33721 11.0355L11.0678 15.6078C11.1784 15.6967 11.309 15.7389 11.4424 15.7389C11.6189 15.7389 11.7929 15.6621 11.9131 15.5134C12.1209 15.2541 12.0787 14.8771 11.8194 14.6705L6.0864 10.099Z" fill="#0BB8B3"/>
<path d="M0.467958 21.7669L7.61418 23.3982C7.6596 23.4103 7.70421 23.4151 7.74882 23.4151C8.02374 23.4151 8.27092 23.2278 8.33363 22.9481C8.40798 22.6241 8.20501 22.3034 7.88227 22.2278L0.734399 20.5976C0.411655 20.5208 0.0897127 20.7262 0.015352 21.0501C-0.0590046 21.3729 0.14401 21.6949 0.467958 21.7669Z" fill="#0BB8B3"/>
<path d="M52.0848 20.5964L44.9386 22.2278C44.6159 22.3033 44.4129 22.6241 44.4885 22.948C44.552 23.2241 44.7983 23.415 45.072 23.415C45.1167 23.415 45.1609 23.4102 45.2067 23.3982L52.3517 21.7668C52.6756 21.6937 52.8774 21.3729 52.8042 21.049C52.7295 20.727 52.4028 20.5184 52.0848 20.5964Z" fill="#0BB8B3"/>
<path d="M41.3759 15.7358C41.5069 15.7358 41.64 15.6924 41.7505 15.6048L47.48 11.0324C47.7404 10.8259 47.7827 10.4501 47.5749 10.1908C47.3671 9.93037 46.9925 9.88817 46.732 10.096L41.0002 14.6671C40.7421 14.8737 40.6999 15.2507 40.9065 15.5099C41.0255 15.659 41.1983 15.7358 41.3759 15.7358Z" fill="#0BB8B3"/>
<path d="M38.1561 2.68045C37.8583 2.53657 37.4982 2.66116 37.3555 2.9602L34.1743 9.565C34.0316 9.86402 34.1562 10.2241 34.4552 10.3668C34.5392 10.4066 34.6292 10.4255 34.7144 10.4255C34.9391 10.4255 35.1525 10.3005 35.2558 10.0859L38.4359 3.48222C38.5797 3.18198 38.4548 2.82314 38.1561 2.68045Z" fill="#0BB8B3"/>
</svg>
