<svg width="52" height="34" viewBox="0 0 52 34" fill="none" xmlns="http://www.w3.org/2000/svg">
<path d="M22.7551 11.7645L21.3986 15.9405C21.3211 16.1837 21.4069 16.4493 21.6127 16.5989C21.8197 16.7504 22.0971 16.7504 22.3037 16.5989L25.8544 14.0178L29.4063 16.5977C29.5098 16.6716 29.6295 16.7106 29.753 16.7106C29.8754 16.7106 29.9939 16.674 30.0974 16.5977C30.3044 16.4485 30.3913 16.1817 30.3114 15.9393L28.955 11.7633L32.5081 9.18343C32.7127 9.03311 32.7997 8.76748 32.7222 8.52507C32.6446 8.28306 32.4164 8.11856 32.1614 8.11856H27.7717L26.4153 3.94014C26.3366 3.70049 26.1107 3.53363 25.8557 3.53363C25.6007 3.53363 25.376 3.70048 25.2961 3.94014L23.9384 8.11856H19.5487C19.2937 8.11856 19.069 8.28305 18.9891 8.52507C18.9116 8.76708 18.9974 9.03271 19.2032 9.18224L22.7551 11.7645ZM24.3642 9.29515C24.6192 9.29515 24.8439 9.12948 24.9238 8.88864L25.8545 6.02579L26.784 8.88905C26.8639 9.13106 27.0898 9.29673 27.3448 9.29673H30.356L27.9209 11.0644C27.7151 11.2136 27.6281 11.4804 27.7056 11.7228L28.6363 14.5873L26.2036 12.8172C25.9966 12.6681 25.7192 12.6681 25.5126 12.8172L23.0787 14.5873L24.0082 11.7228C24.0857 11.4808 23.9999 11.214 23.7941 11.0644L21.3602 9.29673L24.3643 9.29634L24.3642 9.29515Z" fill="#0BB8B3"/>
<path d="M2.38927 16.2567C3.2554 16.9406 4.29196 17.3896 5.38509 17.5482C8.42343 17.9913 11.3217 18.9739 14.0011 20.4724C14.8169 20.9273 15.1706 21.924 14.8228 22.7937C14.4383 23.748 13.3479 24.2101 12.3984 23.8303C12.0962 23.7091 11.7542 23.855 11.6346 24.1569C11.5134 24.4579 11.6594 24.7999 11.96 24.9195C12.3291 25.0663 12.712 25.1395 13.0871 25.1395C14.2916 25.1395 15.4364 24.4178 15.9126 23.231C16.1794 22.5695 16.1853 21.8596 15.9877 21.2166C16.1817 21.4117 16.3686 21.6116 16.5693 21.7994C18.4192 23.5446 20.6898 24.7118 23.1367 25.2088V28.8312C23.1367 29.0543 22.9534 29.2388 22.7279 29.2388H19.1996C17.4272 29.2388 15.985 30.6823 15.985 32.4535V33.4125C15.985 33.7356 16.2483 34 16.5725 34H35.134C35.4582 34 35.7215 33.7356 35.7215 33.4125V32.4535C35.7215 30.6799 34.2769 29.2388 32.5057 29.2388H28.9774C28.7543 29.2388 28.5685 29.0566 28.5685 28.8312V25.2088C31.0154 24.7083 33.286 23.5446 35.1359 21.7994C35.3335 21.6136 35.518 21.4184 35.7085 21.226C35.7026 21.2437 35.6932 21.2555 35.6884 21.2716C35.4677 22.052 35.5649 22.8725 35.9588 23.5812C36.5101 24.5674 37.5454 25.1372 38.6197 25.1372C38.996 25.1372 39.3788 25.0667 39.7444 24.9195C40.0478 24.7972 40.1922 24.4552 40.071 24.1569C39.9498 23.8535 39.6043 23.7091 39.3084 23.8303C38.4364 24.1817 37.442 23.8244 36.9847 23.011C36.7427 22.575 36.6825 22.0721 36.8167 21.5924C36.9517 21.1138 37.2681 20.7168 37.7029 20.4747C40.3816 18.9762 43.281 17.9936 46.3178 17.5505C49.7521 17.0512 52.1391 13.8506 51.641 10.4165C51.138 6.97992 47.9364 4.59398 44.5045 5.09687C43.8135 5.19683 43.154 5.42232 42.5369 5.73988C42.6215 4.00291 42.5275 2.24347 42.2221 0.487565C42.1741 0.20541 41.9293 0 41.644 0H10.0578C9.7721 0 9.52773 0.205813 9.47972 0.487565C9.17514 2.23632 9.0803 3.98992 9.1649 5.72376C8.0627 5.1571 6.82036 4.92688 5.5603 5.07131C3.89022 5.26885 2.39754 6.10188 1.35397 7.41947C-0.798556 10.1395 -0.334242 14.1049 2.38888 16.2567L2.38927 16.2567ZM28.9798 30.4148H32.508C33.6327 30.4148 34.5472 31.3293 34.5472 32.454V32.8254L17.1624 32.8251V32.4536C17.1624 31.3289 18.0769 30.4144 19.2016 30.4144H22.7298C23.603 30.4144 24.3142 29.7045 24.3142 28.8312L24.3138 25.3914C24.8238 25.4513 25.3361 25.489 25.856 25.489C26.3755 25.489 26.8878 25.4513 27.397 25.3926V28.8327C27.3959 29.7071 28.1054 30.4146 28.9802 30.4146L28.9798 30.4148ZM44.6792 6.25514C46.0333 6.05877 47.38 6.39956 48.4755 7.21532C49.5734 8.03226 50.2841 9.22852 50.4817 10.5803C50.8882 13.3738 48.9442 15.9785 46.1518 16.3838C43.0809 16.8317 40.1495 17.819 37.4216 19.2975C40.2176 15.7868 41.9372 11.5848 42.426 7.17331C43.095 6.69715 43.8639 6.37407 44.6793 6.25523L44.6792 6.25514ZM10.5583 1.17086H41.1513C41.4358 3.04796 41.4767 4.92466 41.2969 6.76791C41.2957 6.77381 41.2957 6.77853 41.2945 6.78444C40.768 12.126 38.3431 17.1607 34.332 20.9476C32.0296 23.1194 29.0183 24.3149 25.8545 24.3149C22.6894 24.3149 19.6782 23.1174 17.3757 20.9476C13.3646 17.1607 10.9409 12.1257 10.4132 6.78645C10.4121 6.77819 10.4121 6.77346 10.4109 6.76638C10.2322 4.92555 10.2735 3.04603 10.5581 1.17054L10.5583 1.17086ZM2.27553 8.14594C3.12278 7.07396 4.3384 6.39597 5.69558 6.2362C6.98475 6.08705 8.24008 6.43374 9.28013 7.18812C9.77006 11.5955 11.4898 15.7924 14.2833 19.3032C11.5578 17.8235 8.62532 16.8338 5.55313 16.3896C4.66339 16.2589 3.82089 15.8961 3.11682 15.3377C0.902837 13.5854 0.526671 10.3601 2.27547 8.14576L2.27553 8.14594Z" fill="#0BB8B3"/>
</svg>
