<svg width="37" height="34" viewBox="0 0 37 34" fill="none" xmlns="http://www.w3.org/2000/svg">
<path d="M18.0939 6.27202C19.8235 6.27202 21.2299 4.86482 21.2299 3.13601C21.2299 1.4072 19.8227 0 18.0939 0C16.3642 0 14.957 1.40635 14.957 3.13523C14.957 4.86404 16.3642 6.27202 18.0939 6.27202ZM18.0939 0.821436C19.3702 0.821436 20.4073 1.85937 20.4073 3.13488C20.4073 4.41039 19.3694 5.44917 18.0939 5.44917C16.8184 5.44917 15.7796 4.41124 15.7796 3.13488C15.7796 1.85852 16.8183 0.821436 18.0939 0.821436Z" fill="#0BB8B3"/>
<path d="M13.2774 12.0015H16.5385C16.7227 12.0015 16.8838 11.8797 16.9342 11.7021L17.922 8.21885C17.9501 8.12109 17.9402 8.01644 17.8948 7.92529L17.2688 6.66268C17.1997 6.52278 17.0565 6.43494 16.9004 6.43494H14.6296C13.5619 6.43494 12.6934 7.30431 12.6934 8.37115L12.866 11.614C12.8787 11.8305 13.0588 12.0015 13.2774 12.0015ZM14.6296 7.25586H16.6454L17.0871 8.14751L16.2276 11.1792H13.6675L13.516 8.36972C13.516 7.7559 14.0153 7.25579 14.6297 7.25579L14.6296 7.25586Z" fill="#0BB8B3"/>
<path d="M18.9195 6.66032L18.2928 7.92293C18.2476 8.01436 18.2377 8.11872 18.2655 8.21649L19.2533 11.6998C19.3034 11.8774 19.4648 11.9991 19.6482 11.9991H22.9093C23.1279 11.9991 23.3075 11.8281 23.3188 11.61L23.4906 8.47229C23.5482 7.4063 22.7273 6.49258 21.664 6.43421L19.2864 6.43091C19.1316 6.43146 18.9884 6.52042 18.9195 6.66032ZM21.6163 7.25569C22.2299 7.28929 22.7019 7.81499 22.6683 8.42856L22.5185 11.1771H19.9583L19.0989 8.14544L19.5406 7.25379L21.6163 7.25569Z" fill="#0BB8B3"/>
<path d="M5.30202 28.2698C7.03168 28.2698 8.43888 26.8626 8.43888 25.1338C8.43888 23.4033 7.03168 21.9978 5.30202 21.9978C3.57237 21.9978 2.16602 23.405 2.16602 25.1338C2.16519 26.8626 3.57237 28.2698 5.30202 28.2698ZM5.30202 22.8195C6.57838 22.8195 7.61632 23.8575 7.61632 25.133C7.61632 26.4085 6.57838 27.4464 5.30202 27.4464C4.02644 27.4464 2.98858 26.4085 2.98858 25.133C2.98775 23.8574 4.02567 22.8195 5.30202 22.8195Z" fill="#0BB8B3"/>
<path d="M5.30344 21.4419C5.53035 21.4419 5.71458 21.2568 5.71458 21.0308V16.9562H17.6843V21.0308C17.6843 21.2568 17.8686 21.4419 18.0955 21.4419C18.3224 21.4419 18.5066 21.2568 18.5066 21.0308V16.9562H30.4764V21.0308C30.4764 21.2568 30.6614 21.4419 30.8875 21.4419C31.1136 21.4419 31.2987 21.2568 31.2987 21.0308V16.5451C31.2987 16.319 31.1136 16.1339 30.8875 16.1339L18.5061 16.1337V15.3326C18.5061 15.1057 18.3218 14.9214 18.0949 14.9214C17.868 14.9214 17.6838 15.1057 17.6838 15.3326V16.1337H5.30372C5.0768 16.1337 4.89258 16.3187 4.89258 16.5448V21.0305C4.89258 21.2593 5.07598 21.4419 5.30372 21.4419L5.30344 21.4419Z" fill="#0BB8B3"/>
<path d="M0.486941 33.9977H10.1183C10.337 33.9977 10.5173 33.8275 10.5286 33.6086L10.601 32.2892C10.6768 30.8887 9.79913 29.6032 8.46849 29.1631C6.42216 28.4871 4.18331 28.4871 2.13719 29.1631C0.805703 29.6032 -0.0719202 30.8887 0.00464001 32.2892L0.0762374 33.6086C0.0883545 33.8275 0.268456 33.9977 0.487104 33.9977H0.486941ZM2.39453 29.9447C4.27399 29.3237 6.32998 29.3237 8.21029 29.9447C9.18985 30.2688 9.83561 31.2145 9.7797 32.2452L9.72876 33.1754H0.876393L0.825447 32.2452C0.769545 31.2148 1.41504 30.2688 2.39486 29.9447H2.39453Z" fill="#0BB8B3"/>
<path d="M27.748 25.1333C27.748 26.8629 29.1552 28.2693 30.8849 28.2693C32.6137 28.2693 34.0209 26.8621 34.0209 25.1333C34.0209 23.4028 32.6137 21.9973 30.8849 21.9973C29.1555 21.9964 27.748 23.4036 27.748 25.1333ZM33.1986 25.1333C33.1986 26.4096 32.1607 27.4467 30.8852 27.4467C29.608 27.4467 28.5709 26.4088 28.5709 25.1333C28.5709 23.8561 29.6088 22.8198 30.8852 22.8198C32.1615 22.819 33.1986 23.8569 33.1986 25.1333Z" fill="#0BB8B3"/>
<path d="M34.0509 29.1645C32.0062 28.4893 29.7665 28.4893 27.7204 29.1645C26.3889 29.6046 25.5113 30.8908 25.5887 32.2914L25.6595 33.6108C25.6727 33.8294 25.852 33.9999 26.0706 33.9999H35.7027C35.9214 33.9999 36.1009 33.8297 36.1138 33.6108L36.1846 32.2914C36.2603 30.8908 35.3835 29.6046 34.0509 29.1645ZM35.3127 33.1757H26.4596L26.4078 32.2455C26.3519 31.215 26.9974 30.2691 27.9772 29.9449C29.8567 29.3239 31.9127 29.3239 33.7921 29.9449C34.7717 30.269 35.4182 31.2147 35.3615 32.2455L35.3127 33.1757Z" fill="#0BB8B3"/>
<path d="M21.2299 25.1333C21.2299 23.4028 19.8227 21.9973 18.0939 21.9973C16.3642 21.9973 14.957 23.4045 14.957 25.1333C14.957 26.8621 16.3642 28.2693 18.0939 28.2693C19.8227 28.2693 21.2299 26.8621 21.2299 25.1333ZM15.7788 25.1333C15.7788 23.8561 16.8167 22.8198 18.093 22.8198C19.3694 22.8198 20.4065 23.8578 20.4065 25.1333C20.4065 26.4088 19.3686 27.4467 18.093 27.4467C16.8175 27.447 15.7788 26.4088 15.7788 25.1333Z" fill="#0BB8B3"/>
<path d="M12.7956 32.2914L12.8664 33.6108C12.8788 33.8294 13.0589 33.9999 13.2775 33.9999H22.9096C23.1282 33.9999 23.3078 33.8297 23.3207 33.6108L23.3915 32.2914C23.4672 30.8908 22.5896 29.6046 21.2581 29.1645C19.2134 28.4893 16.9738 28.4893 14.9285 29.1645C13.5967 29.6046 12.719 30.8908 12.7956 32.2914ZM21.0001 29.9449C21.9797 30.269 22.6262 31.2147 22.5695 32.2455L22.5194 33.1757H13.6677L13.6168 32.2455C13.5609 31.215 14.2064 30.2691 15.1862 29.9449C17.0654 29.3239 19.1214 29.3239 21.0001 29.9449Z" fill="#0BB8B3"/>
</svg>
