<svg width="40" height="40" viewBox="0 0 40 40" fill="none" xmlns="http://www.w3.org/2000/svg">
<path d="M20 40C31.0457 40 40 31.0457 40 20C40 8.95431 31.0457 0 20 0C8.95431 0 0 8.95431 0 20C0 31.0457 8.95431 40 20 40Z" fill="url(#paint0_linear_798_1056)"/>
<path d="M31.0546 13.1489C30.3503 13.4518 29.6101 13.6632 28.8521 13.7782C29.2078 13.7782 29.7276 13.0805 29.9328 12.8206C30.264 12.4159 30.5147 11.9515 30.6715 11.4526C30.6715 11.4526 30.6715 11.3705 30.6715 11.3432C30.6549 11.3336 30.636 11.3285 30.6168 11.3285C30.5976 11.3285 30.5787 11.3336 30.5621 11.3432C29.7325 11.7862 28.8499 12.1218 27.9356 12.3418C27.9085 12.3574 27.8779 12.3656 27.8466 12.3656C27.8154 12.3656 27.7848 12.3574 27.7577 12.3418C27.692 12.2578 27.6187 12.18 27.5389 12.1093C27.1566 11.7902 26.7275 11.5318 26.2666 11.3432C25.652 11.0899 24.9872 10.9822 24.3241 11.0286C23.6788 11.0704 23.0496 11.2475 22.4773 11.5484C21.8913 11.8511 21.3761 12.2746 20.9658 12.7911C20.5555 13.3075 20.2594 13.905 20.097 14.5443C19.9739 15.1629 19.9739 15.7998 20.097 16.4184C20.097 16.5279 20.097 16.5415 20.0012 16.5279C16.539 16.1734 13.3338 14.5391 11.0135 11.9451C10.9178 11.8357 10.8631 11.8357 10.7673 11.9451C10.3016 12.8082 10.126 13.7983 10.2664 14.7689C10.4068 15.7395 10.8558 16.6392 11.5471 17.335C11.7249 17.4991 11.9027 17.6633 12.0942 17.8138C11.4942 17.7665 10.909 17.604 10.3706 17.335C10.2612 17.335 10.2064 17.335 10.1928 17.4171C10.1797 17.5901 10.1797 17.7639 10.1928 17.9369C10.2965 18.7444 10.6136 19.5098 11.1113 20.1541C11.609 20.7985 12.2694 21.2986 13.0245 21.6031C13.2067 21.689 13.4001 21.7489 13.599 21.7809C13.0381 21.8816 12.4637 21.8816 11.9027 21.7809C11.7796 21.7809 11.7249 21.7809 11.7796 21.9451C12.0711 22.7054 12.5521 23.3785 13.177 23.9005C13.802 24.4225 14.55 24.776 15.3501 24.9273C15.5142 24.9273 15.6784 24.9273 15.8425 24.9273C16.0067 24.9273 15.8425 24.9273 15.8425 24.9273C15.1449 25.5543 14.3041 26.0006 13.3939 26.2269C12.207 26.6515 10.9424 26.8149 9.6866 26.7057C9.49508 26.7057 9.45404 26.7057 9.39932 26.7057C9.3446 26.7057 9.39932 26.7878 9.39932 26.8288C9.6466 26.9968 9.90228 27.152 10.1654 27.2939C10.9532 27.7098 11.7833 28.04 12.6415 28.2789C14.8532 28.946 17.2014 29.0204 19.451 28.4946C21.7006 27.9689 23.7726 26.8614 25.4595 25.283C26.6627 23.9835 27.5965 22.4586 28.207 20.7962C28.8174 19.1338 29.0925 17.3669 29.0163 15.5976C29.0163 15.4608 29.1804 15.3788 29.2899 15.3104C29.9534 14.7905 30.5386 14.1778 31.0272 13.4909C31.1092 13.3961 31.1531 13.2742 31.1503 13.1489V13.1489C31.1503 13.1489 31.1503 13.1079 31.0546 13.1489Z" fill="white"/>
<defs>
<linearGradient id="paint0_linear_798_1056" x1="34.145" y1="5.85499" x2="5.85499" y2="34.145" gradientUnits="userSpaceOnUse">
<stop stop-color="#33CCFF"/>
<stop offset="1" stop-color="#337FFF"/>
</linearGradient>
</defs>
</svg>
