<svg width="58" height="45" viewBox="0 0 58 45" fill="none" xmlns="http://www.w3.org/2000/svg">
<path d="M54.8338 12.8787C54.8333 10.066 53.9395 7.33065 52.2888 5.0906C50.6381 2.85056 48.3212 1.22892 45.6922 0.473385C43.0631 -0.282152 40.2663 -0.130056 37.729 0.906443C35.1917 1.94294 33.0534 3.80687 31.6406 6.21351C30.2279 8.62016 29.6183 11.4372 29.9052 14.2344C30.192 17.0316 31.3594 19.6552 33.229 21.7044C35.0986 23.7536 37.5678 25.1158 40.2592 25.5829C42.9507 26.05 45.7166 25.5963 48.1343 24.2912C47.2987 27.4856 46.1202 30.1612 44.7096 32.2957C41.8885 36.5721 38.1924 38.6404 34.2998 38.6404C33.5895 38.6404 32.9083 38.9312 32.406 39.4489C31.9037 39.9665 31.6215 40.6686 31.6215 41.4006C31.6215 42.1327 31.9037 42.8347 32.406 43.3524C32.9083 43.87 33.5895 44.1608 34.2998 44.1608C40.2672 44.1608 45.5024 40.9111 49.1414 35.4018C52.7482 29.933 54.8338 22.2155 54.8338 12.8787V12.8787Z" fill="black" fill-opacity="0.2"/>
<path d="M57.0056 12.8787C57.0052 10.066 56.1113 7.33065 54.4606 5.0906C52.8099 2.85056 50.4931 1.22892 47.8641 0.473385C45.235 -0.282152 42.4382 -0.130056 39.9009 0.906443C37.3636 1.94294 35.2253 3.80687 33.8125 6.21351C32.3997 8.62016 31.7902 11.4372 32.077 14.2344C32.3638 17.0316 33.5312 19.6552 35.4009 21.7044C37.2705 23.7536 39.7397 25.1158 42.4311 25.5829C45.1226 26.05 47.8884 25.5963 50.3062 24.2912C49.4706 27.4856 48.2921 30.1612 46.8815 32.2957C44.0603 36.5721 40.3642 38.6404 36.4717 38.6404C35.7614 38.6404 35.0801 38.9312 34.5779 39.4489C34.0756 39.9665 33.7934 40.6686 33.7934 41.4006C33.7934 42.1327 34.0756 42.8347 34.5779 43.3524C35.0801 43.87 35.7614 44.1608 36.4717 44.1608C42.4391 44.1608 47.6743 40.9111 51.3133 35.4018C54.9201 29.933 57.0056 22.2155 57.0056 12.8787V12.8787Z" fill="white"/>
<path d="M50.7265 23.7561L50.5686 24.3598C49.7267 27.5782 48.5373 30.2821 47.1078 32.4452C44.2468 36.7819 40.4726 38.9116 36.4717 38.9116C35.836 38.9116 35.2246 39.1718 34.7725 39.6377C34.3201 40.1039 34.0646 40.7379 34.0646 41.4006C34.0646 42.0633 34.3201 42.6973 34.7725 43.1635C35.2246 43.6294 35.836 43.8896 36.4717 43.8896C42.33 43.8896 47.4874 40.702 51.0869 35.2525C54.6567 29.8397 56.7344 22.1785 56.7344 12.8788L50.7265 23.7561ZM50.7265 23.7561L50.1774 24.0525M50.7265 23.7561L50.1774 24.0525M50.1774 24.0525C47.8128 25.3289 45.1086 25.7723 42.4775 25.3156C39.8463 24.859 37.431 23.5271 35.6012 21.5216C33.7713 19.516 32.6278 16.947 32.3468 14.2068C32.0658 11.4665 32.6631 8.70728 34.0464 6.35081C35.4296 3.99446 37.5223 2.17108 40.0035 1.15751C42.4845 0.144 45.2188 -0.00463199 47.7891 0.734042C50.3596 1.47275 52.6264 3.05872 54.2423 5.25149C55.8583 7.44439 56.734 10.1232 56.7344 12.8787L50.1774 24.0525Z" stroke="black" stroke-opacity="0.2" stroke-width="0.542414"/>
<path d="M24.9978 12.8787C24.9974 10.066 24.1035 7.33065 22.4528 5.0906C20.8021 2.85056 18.4853 1.22892 15.8562 0.473385C13.2272 -0.282152 10.4304 -0.130056 7.8931 0.906443C5.35581 1.94294 3.21747 3.80687 1.8047 6.21351C0.391932 8.62016 -0.217595 11.4372 0.0692171 14.2344C0.356029 17.0316 1.52341 19.6552 3.39306 21.7044C5.26271 23.7536 7.73184 25.1158 10.4233 25.5829C13.1148 26.05 15.8806 25.5963 18.2984 24.2912C17.4628 27.4856 16.2843 30.1612 14.8737 32.2957C12.0525 36.5721 8.35642 38.6404 4.46391 38.6404C3.75357 38.6404 3.07232 38.9312 2.57004 39.4489C2.06775 39.9665 1.78557 40.6686 1.78557 41.4006C1.78557 42.1327 2.06775 42.8347 2.57004 43.3524C3.07232 43.87 3.75357 44.1608 4.46391 44.1608C10.4312 44.1608 15.6665 40.9111 19.3055 35.4018C22.9123 29.933 24.9978 22.2155 24.9978 12.8787V12.8787Z" fill="black" fill-opacity="0.2"/>
<path d="M27.1697 12.8787C27.1692 10.066 26.2754 7.33065 24.6247 5.0906C22.974 2.85056 20.6572 1.22892 18.0281 0.473385C15.3991 -0.282152 12.6023 -0.130056 10.065 0.906443C7.52768 1.94294 5.38934 3.80687 3.97657 6.21351C2.56381 8.62016 1.95428 11.4372 2.24109 14.2344C2.5279 17.0316 3.69529 19.6552 5.56494 21.7044C7.43459 23.7536 9.90371 25.1158 12.5952 25.5829C15.2867 26.05 18.0525 25.5963 20.4703 24.2912C19.6346 27.4856 18.4562 30.1612 17.0456 32.2957C14.2244 36.5721 10.5283 38.6404 6.63578 38.6404C5.92544 38.6404 5.2442 38.9312 4.74191 39.4489C4.23963 39.9665 3.95745 40.6686 3.95745 41.4006C3.95745 42.1327 4.23963 42.8347 4.74191 43.3524C5.2442 43.87 5.92544 44.1608 6.63578 44.1608C12.6031 44.1608 17.8384 40.9111 21.4773 35.4018C25.0842 29.933 27.1697 22.2155 27.1697 12.8787V12.8787Z" fill="white"/>
<path d="M20.8906 23.7561L20.7327 24.3598C19.8907 27.5782 18.7013 30.2821 17.2718 32.4452C14.4108 36.7819 10.6367 38.9116 6.63578 38.9116C6.00005 38.9116 5.38865 39.1718 4.93655 39.6377C4.48418 40.1039 4.22865 40.7379 4.22865 41.4006C4.22865 42.0633 4.48418 42.6973 4.93655 43.1635C5.38865 43.6294 6.00005 43.8896 6.63578 43.8896C12.4941 43.8896 17.6514 40.702 21.2509 35.2525C24.8208 29.8397 26.8985 22.1785 26.8985 12.8788L20.8906 23.7561ZM20.8906 23.7561L20.3414 24.0525M20.8906 23.7561L20.3414 24.0525M20.3414 24.0525C17.9769 25.3289 15.2727 25.7723 12.6416 25.3156C10.0103 24.859 7.59507 23.5271 5.76529 21.5216C3.93538 19.516 2.79186 16.947 2.51088 14.2068C2.22991 11.4665 2.82715 8.70728 4.21046 6.35081C5.5937 3.99446 7.68638 2.17108 10.1675 1.15751C12.6486 0.144 15.3828 -0.00463199 17.9532 0.734042C20.5237 1.47275 22.7905 3.05872 24.4064 5.25149C26.0223 7.44439 26.898 10.1232 26.8985 12.8787L20.3414 24.0525Z" stroke="black" stroke-opacity="0.2" stroke-width="0.542414"/>
</svg>
