<svg width="30" height="31" viewBox="0 0 30 31" fill="none" xmlns="http://www.w3.org/2000/svg">
<path d="M26.9496 13.675L25.2496 11.7C24.9246 11.325 24.6621 10.625 24.6621 10.125V7.99995C24.6621 6.67495 23.5746 5.58745 22.2496 5.58745H20.1246C19.6371 5.58745 18.9246 5.32495 18.5496 4.99995L16.5746 3.29995C15.7121 2.56245 14.2996 2.56245 13.4246 3.29995L11.4621 5.01245C11.0871 5.32495 10.3746 5.58745 9.88711 5.58745H7.72461C6.39961 5.58745 5.31211 6.67495 5.31211 7.99995V10.1375C5.31211 10.625 5.04961 11.325 4.73711 11.7L3.04961 13.6875C2.32461 14.55 2.32461 15.95 3.04961 16.8125L4.73711 18.8C5.04961 19.175 5.31211 19.875 5.31211 20.3625V22.4999C5.31211 23.8249 6.39961 24.9125 7.72461 24.9125H9.88711C10.3746 24.9125 11.0871 25.175 11.4621 25.5L13.4371 27.2C14.2996 27.9375 15.7121 27.9375 16.5871 27.2L18.5621 25.5C18.9371 25.175 19.6371 24.9125 20.1371 24.9125H22.2621C23.5871 24.9125 24.6746 23.8249 24.6746 22.4999V20.375C24.6746 19.8875 24.9371 19.175 25.2621 18.8L26.9621 16.825C27.6871 15.9625 27.6871 14.5375 26.9496 13.675ZM20.1996 12.8875L14.1621 18.925C13.9871 19.1 13.7496 19.2 13.4996 19.2C13.2496 19.2 13.0121 19.1 12.8371 18.925L9.81211 15.9C9.44961 15.5375 9.44961 14.9375 9.81211 14.575C10.1746 14.2125 10.7746 14.2125 11.1371 14.575L13.4996 16.9375L18.8746 11.5625C19.2371 11.2 19.8371 11.2 20.1996 11.5625C20.5621 11.925 20.5621 12.525 20.1996 12.8875Z" fill="#0DA487"/>
</svg>
