<svg width="47" height="50" viewBox="0 0 47 50" fill="none" xmlns="http://www.w3.org/2000/svg">
<path d="M35.8943 45.5983H8.06248C7.56678 45.5983 7.16486 45.1966 7.16486 44.7008V16.8688C7.16486 16.373 7.56678 15.9712 8.06248 15.9712H35.8944C36.3903 15.9712 36.7921 16.3731 36.7921 16.8688V44.7008C36.7919 45.1965 36.3901 45.5983 35.8943 45.5983Z" fill="url(#paint0_linear_486_57)" stroke="#127F3F" stroke-opacity="0.16" stroke-width="7.7213" stroke-miterlimit="10"/>
<path d="M36.7919 25.8032H7.16486V33.3879H36.7919V25.8032Z" fill="white"/>
<path d="M18.0178 23H16.9978V21.59H16.2958V23H15.2638V19.274H16.2958V20.738H16.9978V19.274H18.0178V23ZM21.1976 23H20.1956L20.0816 22.412H19.3736L19.2596 23H18.3056L18.9896 19.274H20.5136L21.1976 23ZM19.9676 21.71L19.7576 20.378H19.7156L19.5056 21.71H19.9676ZM22.7939 21.782H22.5179V23H21.5099V19.274H22.7279C23.1559 19.274 23.4739 19.372 23.6819 19.568C23.8899 19.764 23.9939 20.086 23.9939 20.534C23.9939 20.982 23.8959 21.302 23.6999 21.494C23.5039 21.686 23.2019 21.782 22.7939 21.782ZM22.9079 20.972C22.9439 20.904 22.9619 20.782 22.9619 20.606C22.9619 20.43 22.9419 20.306 22.9019 20.234C22.8619 20.162 22.7819 20.126 22.6619 20.126H22.5179V21.074H22.6859C22.7979 21.074 22.8719 21.04 22.9079 20.972ZM25.5771 21.782H25.3011V23H24.2931V19.274H25.5111C25.9391 19.274 26.2571 19.372 26.4651 19.568C26.6731 19.764 26.7771 20.086 26.7771 20.534C26.7771 20.982 26.6791 21.302 26.4831 21.494C26.2871 21.686 25.9851 21.782 25.5771 21.782ZM25.6911 20.972C25.7271 20.904 25.7451 20.782 25.7451 20.606C25.7451 20.43 25.7251 20.306 25.6851 20.234C25.6451 20.162 25.5651 20.126 25.4451 20.126H25.3011V21.074H25.4691C25.5811 21.074 25.6551 21.04 25.6911 20.972ZM29.5963 19.274L28.7083 21.848V23H27.6883V21.848L26.8123 19.274H27.9403L28.2103 20.486H28.2583L28.5163 19.274H29.5963Z" fill="white"/>
<path d="M15.8858 29.926C15.8858 30.642 15.5018 31 14.7338 31H13.2638V27.274H14.7038C15.0838 27.274 15.3658 27.352 15.5498 27.508C15.7338 27.66 15.8258 27.904 15.8258 28.24C15.8258 28.576 15.6878 28.832 15.4118 29.008V29.044C15.7278 29.168 15.8858 29.462 15.8858 29.926ZM14.4938 30.334C14.6138 30.334 14.6938 30.308 14.7338 30.256C14.7778 30.2 14.7998 30.088 14.7998 29.92C14.7998 29.748 14.7778 29.628 14.7338 29.56C14.6898 29.488 14.6098 29.452 14.4938 29.452H14.3018V30.334H14.4938ZM14.4998 28.87C14.5918 28.87 14.6558 28.842 14.6918 28.786C14.7278 28.73 14.7458 28.632 14.7458 28.492C14.7458 28.348 14.7258 28.248 14.6858 28.192C14.6498 28.132 14.5858 28.102 14.4938 28.102H14.3018V28.87H14.4998ZM16.4565 27.664C16.6885 27.364 17.0665 27.214 17.5905 27.214C18.1145 27.214 18.4885 27.362 18.7125 27.658C18.9405 27.954 19.0545 28.436 19.0545 29.104C19.0545 29.768 18.9385 30.26 18.7065 30.58C18.4745 30.9 18.0985 31.06 17.5785 31.06C17.0585 31.06 16.6845 30.902 16.4565 30.586C16.2285 30.27 16.1145 29.78 16.1145 29.116C16.1145 28.448 16.2285 27.964 16.4565 27.664ZM18.0225 29.104C18.0225 28.736 17.9925 28.488 17.9325 28.36C17.8765 28.228 17.7585 28.162 17.5785 28.162C17.4025 28.162 17.2885 28.228 17.2365 28.36C17.1845 28.488 17.1585 28.734 17.1585 29.098V29.242C17.1585 29.63 17.1865 29.886 17.2425 30.01C17.3025 30.13 17.4205 30.19 17.5965 30.19C17.7765 30.19 17.8925 30.132 17.9445 30.016C17.9965 29.9 18.0225 29.66 18.0225 29.296V29.104ZM22.091 31H20.921L20.669 29.812H20.621L20.339 31H19.235L19.817 29.068L19.283 27.274H20.495L20.699 28.378H20.747L20.969 27.274H22.025L21.539 29.068L22.091 31ZM23.4727 31H22.4527V27.274H23.4727V31ZM26.7806 31H25.7966L25.0226 29.266H24.9746V31H24.0626V27.274H25.0766L25.8146 29.062H25.8626V27.274H26.7806V31ZM29.5527 28.384C29.1687 28.268 28.8867 28.21 28.7067 28.21C28.5307 28.21 28.4087 28.288 28.3407 28.444C28.2767 28.6 28.2447 28.848 28.2447 29.188C28.2447 29.524 28.2747 29.77 28.3347 29.926C28.3987 30.078 28.5267 30.154 28.7187 30.154C28.7747 30.154 28.8827 30.138 29.0427 30.106V29.65H28.7727V28.942H29.9187V31H29.2107L29.1147 30.808H29.0907C29.0227 30.864 28.9687 30.906 28.9287 30.934C28.8167 31.018 28.6587 31.06 28.4547 31.06C27.6187 31.06 27.2007 30.428 27.2007 29.164C27.2007 28.532 27.3107 28.05 27.5307 27.718C27.7507 27.382 28.1207 27.214 28.6407 27.214C29.0567 27.214 29.4147 27.278 29.7147 27.406L29.5527 28.384Z" fill="url(#paint1_linear_486_57)"/>
<path d="M20.0358 39.056C20.0358 40.352 19.5238 41 18.4998 41H17.2638V37.274H18.5238C19.0718 37.274 19.4598 37.428 19.6878 37.736C19.9198 38.04 20.0358 38.48 20.0358 39.056ZM18.4818 40.136C18.6938 40.136 18.8298 40.062 18.8898 39.914C18.9538 39.762 18.9858 39.51 18.9858 39.158C18.9858 38.802 18.9518 38.55 18.8838 38.402C18.8198 38.254 18.6798 38.18 18.4638 38.18H18.2838V40.136H18.4818ZM23.098 41H22.096L21.982 40.412H21.274L21.16 41H20.206L20.89 37.274H22.414L23.098 41ZM21.868 39.71L21.658 38.378H21.616L21.406 39.71H21.868ZM25.9303 37.274L25.0423 39.848V41H24.0223V39.848L23.1463 37.274H24.2743L24.5443 38.486H24.5923L24.8503 37.274H25.9303Z" fill="white"/>
<path d="M44.0453 16.0321L41.7089 15.2555L40.3586 17.3143L40.3753 14.8522L38 14.2042L40.3468 13.4592L40.229 11L41.6626 13.0016L43.9653 12.1297L42.5046 14.1117L44.0453 16.0321Z" fill="url(#paint2_linear_486_57)"/>
<path d="M6.04533 35.0322L3.70891 34.2554L2.3586 36.3143L2.37534 33.8521L0 33.2041L2.34676 32.4592L2.22902 30L3.66264 32.0015L5.96529 31.1296L4.50459 33.1115L6.04533 35.0322Z" fill="url(#paint3_linear_486_57)"/>
<path d="M36.7921 15.9711C36.7921 15.9711 38.8879 32.3219 40.1342 30.7845C40.6175 30.1882 37.325 23.9898 36.7921 15.9711Z" stroke="url(#paint4_linear_486_57)" stroke-width="3.4828" stroke-miterlimit="10"/>
<path d="M42.1915 29.0665C39.8049 29.0665 37.8701 31.0012 37.8701 33.3879C37.8701 35.7742 39.8049 37.709 42.1915 37.709C44.578 37.709 46.5128 35.7742 46.5128 33.3879C46.5128 31.0012 44.578 29.0665 42.1915 29.0665ZM40.134 31.477C39.7515 31.477 39.4416 31.1671 39.4416 30.7845C39.4416 30.4022 39.7515 30.0923 40.134 30.0923C40.5163 30.0923 40.8262 30.4022 40.8262 30.7845C40.8262 31.167 40.5162 31.477 40.134 31.477Z" fill="url(#paint5_linear_486_57)"/>
<path d="M41.1784 30.8223C41.3911 30.7658 41.5909 30.7596 41.7777 30.8038C41.9665 30.8485 42.0983 30.93 42.173 31.0484C42.2478 31.1668 42.2644 31.3136 42.2229 31.4888C42.1819 31.662 42.1172 31.7967 42.0287 31.8929C41.9421 31.9895 41.7947 32.1129 41.5865 32.263L42.0215 32.3659L41.9227 32.7834L40.8513 32.5298L40.8984 32.2265C41.1299 32.0737 41.2965 31.9559 41.3983 31.8732C41.5001 31.7904 41.5724 31.7191 41.6153 31.6594C41.6582 31.5997 41.6864 31.5416 41.6997 31.4852C41.7135 31.4268 41.7095 31.3786 41.6877 31.3405C41.6678 31.3029 41.6355 31.2788 41.5907 31.2682C41.546 31.2576 41.5018 31.2533 41.4582 31.2554C41.3985 31.2556 41.3007 31.2695 41.1647 31.2969L41.1784 30.8223ZM42.9517 32.4227C42.9683 32.3526 42.9676 32.299 42.9497 32.2619C42.9337 32.2252 42.8994 32.2007 42.8469 32.1882C42.7963 32.1763 42.746 32.1716 42.6961 32.1741C42.6848 32.2044 42.6769 32.2292 42.6723 32.2487C42.6253 32.4472 42.6573 32.5596 42.7682 32.5858C42.8168 32.5973 42.8556 32.59 42.8843 32.564C42.9131 32.5379 42.9356 32.4908 42.9517 32.4227ZM43.0512 31.8328C43.2069 31.8696 43.317 31.9429 43.3814 32.0527C43.4463 32.1606 43.4574 32.305 43.4145 32.486C43.3127 32.9161 43.0633 33.0842 42.6663 32.9902C42.2362 32.8884 42.0849 32.568 42.2125 32.0289C42.2991 31.663 42.4503 31.4151 42.666 31.2853C42.8836 31.156 43.1822 31.1362 43.5617 31.226L43.4337 31.6366C43.2683 31.5974 43.1357 31.5887 43.0361 31.6103C42.9383 31.6324 42.86 31.694 42.8012 31.7952L42.8035 31.8111C42.8791 31.8044 42.9617 31.8116 43.0512 31.8328ZM41.0809 34.6681C40.9317 35.2987 40.6079 35.555 40.1097 35.4371L39.5083 35.2948L39.9374 33.4819L40.5504 33.627C40.8171 33.6901 40.9881 33.8097 41.0636 33.9858C41.1414 34.1605 41.1472 34.3879 41.0809 34.6681ZM40.2004 35.0147C40.3036 35.0391 40.3783 35.0187 40.4245 34.9536C40.4732 34.8871 40.5177 34.7681 40.5583 34.5969C40.5993 34.4237 40.6117 34.2971 40.5957 34.2173C40.5816 34.1379 40.522 34.0858 40.4169 34.0609L40.3293 34.0402L40.1041 34.9919L40.2004 35.0147ZM42.0258 35.8906L41.045 35.6585L41.474 33.8456L42.4841 34.0846L42.3492 34.5244L41.8675 34.4104L41.8032 34.6819L42.2207 34.7807L42.1295 35.166L41.712 35.0672L41.6409 35.3679L42.1518 35.4888L42.0258 35.8906ZM42.8848 35.1567C42.8443 35.328 42.8318 35.4545 42.8474 35.5363C42.8654 35.6166 42.9133 35.666 42.9912 35.6844C43.069 35.7028 43.1833 35.7104 43.3342 35.707L43.3126 36.1366C43.1455 36.1566 42.9841 36.1482 42.8284 36.1114C42.5949 36.0561 42.4428 35.9389 42.3721 35.7599C42.3039 35.5793 42.3059 35.3362 42.3782 35.0307C42.451 34.7232 42.562 34.5018 42.7112 34.3665C42.8608 34.2293 43.0611 34.1904 43.3122 34.2498C43.4601 34.2848 43.5938 34.3493 43.7134 34.4434L43.5275 34.8772C43.3876 34.7907 43.2875 34.7403 43.2272 34.726C43.1416 34.7058 43.0732 34.7297 43.0222 34.7977C42.9716 34.8639 42.9258 34.9835 42.8848 35.1567Z" fill="white"/>
<path d="M15.3888 0.00356148C14.9482 -0.00896035 14.5124 0.0114504 14.0876 0.0661653C11.4961 0.903359 10.9773 3.08243 10.9773 3.08243C10.8424 2.07442 11.239 1.29522 11.7799 0.719892C9.53331 1.76397 7.9625 3.89594 8.04254 6.78522C8.16013 11.0682 21.1359 15.4703 21.1359 15.4703L23.0517 16.0707C23.0517 16.0708 19.3455 0.122655 15.3888 0.00356148ZM14.4089 7.3811C13.5922 5.8337 14.5453 2.60429 16.1506 2.60429C19.3643 2.60429 21.7269 14.5188 21.7269 14.5188C21.7269 14.5188 15.2194 8.91747 14.4089 7.3811Z" fill="url(#paint6_linear_486_57)"/>
<path d="M15.5455 3.21737C15.5455 3.21737 16.4494 2.63919 17.5223 3.88375C18.799 5.36432 20.5164 10.6249 21.4023 13.8778C21.4023 13.8778 17.8266 5.20195 16.8952 4.15814C15.9637 3.1142 15.5455 3.21737 15.5455 3.21737Z" fill="url(#paint7_linear_486_57)"/>
<path d="M22.3304 16.0709L23.8711 15.588C23.8711 15.588 34.3078 12.0473 34.4024 8.60244C34.4666 6.27855 33.2031 4.56374 31.3963 3.72396C31.8313 4.18672 32.1504 4.81336 32.0419 5.62414C32.0419 5.62414 31.6246 3.87149 29.5402 3.19804C29.1985 3.15394 28.8479 3.13761 28.4937 3.14768C25.3113 3.24363 22.3304 16.0709 22.3304 16.0709ZM23.3958 14.8227C23.3958 14.8227 25.296 5.23964 27.8808 5.23964C29.1721 5.23964 29.9386 7.83711 29.2818 9.08167C28.6298 10.3174 23.3958 14.8227 23.3958 14.8227Z" fill="url(#paint8_linear_486_57)"/>
<path d="M28.3677 5.73258C28.3677 5.73258 27.6406 5.2675 26.7777 6.26857C25.7508 7.45951 24.3696 11.6905 23.6568 14.3069C23.6568 14.3069 26.5329 7.32871 27.282 6.4892C28.0313 5.64956 28.3677 5.73258 28.3677 5.73258Z" fill="url(#paint9_linear_486_57)"/>
<defs>
<linearGradient id="paint0_linear_486_57" x1="11.1018" y1="37.7722" x2="25.9403" y2="38.2252" gradientUnits="userSpaceOnUse">
<stop stop-color="#0E947A"/>
<stop offset="1" stop-color="#0DA487"/>
</linearGradient>
<linearGradient id="paint1_linear_486_57" x1="15.3917" y1="30.4151" x2="24.3402" y2="31.2345" gradientUnits="userSpaceOnUse">
<stop stop-color="#0E947A"/>
<stop offset="1" stop-color="#0DA487"/>
</linearGradient>
<linearGradient id="paint2_linear_486_57" x1="38.8033" y1="15.6463" x2="41.8313" y2="15.7348" gradientUnits="userSpaceOnUse">
<stop stop-color="#0E947A"/>
<stop offset="1" stop-color="#0DA487"/>
</linearGradient>
<linearGradient id="paint3_linear_486_57" x1="0.80332" y1="34.6463" x2="3.83129" y2="34.7348" gradientUnits="userSpaceOnUse">
<stop stop-color="#0E947A"/>
<stop offset="1" stop-color="#0DA487"/>
</linearGradient>
<linearGradient id="paint4_linear_486_57" x1="37.2426" y1="26.9466" x2="38.9422" y2="26.9584" gradientUnits="userSpaceOnUse">
<stop stop-color="#0E947A"/>
<stop offset="1" stop-color="#0DA487"/>
</linearGradient>
<linearGradient id="paint5_linear_486_57" x1="39.0186" y1="35.426" x2="43.3472" y2="35.5582" gradientUnits="userSpaceOnUse">
<stop stop-color="#0E947A"/>
<stop offset="1" stop-color="#0DA487"/>
</linearGradient>
<linearGradient id="paint6_linear_486_57" x1="10.0345" y1="11.8256" x2="17.554" y2="12.04" gradientUnits="userSpaceOnUse">
<stop stop-color="#0E947A"/>
<stop offset="1" stop-color="#0DA487"/>
</linearGradient>
<linearGradient id="paint7_linear_486_57" x1="16.3237" y1="11.0264" x2="19.259" y2="11.075" gradientUnits="userSpaceOnUse">
<stop stop-color="#0E947A"/>
<stop offset="1" stop-color="#0DA487"/>
</linearGradient>
<linearGradient id="paint8_linear_486_57" x1="23.9349" y1="12.6565" x2="29.9829" y2="12.8289" gradientUnits="userSpaceOnUse">
<stop stop-color="#0E947A"/>
<stop offset="1" stop-color="#0DA487"/>
</linearGradient>
<linearGradient id="paint9_linear_486_57" x1="24.2828" y1="12.0135" x2="26.6438" y2="12.0526" gradientUnits="userSpaceOnUse">
<stop stop-color="#0E947A"/>
<stop offset="1" stop-color="#0DA487"/>
</linearGradient>
</defs>
</svg>
