<svg width="31" height="31" viewBox="0 0 31 31" fill="none" xmlns="http://www.w3.org/2000/svg">
<rect width="30.9956" height="30.9956" rx="15.4978" fill="url(#paint0_linear_108_1384)"/>
<g clip-path="url(#clip0_108_1384)" filter="url(#filter0_i_108_1384)">
<g filter="url(#filter1_i_108_1384)">
<path d="M21.5157 24.2844C22.786 23.7936 23.7903 22.7893 24.2812 21.5189C24.5135 20.9172 24.6762 20.2306 24.7203 19.2263C24.7308 18.991 24.7389 18.7935 24.7464 18.5955V11.8854C24.7412 11.7454 24.7354 11.5996 24.7279 11.4358C24.6837 10.4315 24.5211 9.74144 24.2887 9.14315C24.0488 8.50827 23.6794 7.93961 23.1961 7.46737C22.7233 6.987 22.1512 6.61409 21.5233 6.37826C20.9215 6.14592 20.2349 5.98328 19.2306 5.93913C18.2187 5.89092 17.8975 5.87988 15.3319 5.87988C12.7662 5.87988 12.4444 5.89092 11.4366 5.93507C10.4323 5.97921 9.74226 6.14185 9.14397 6.37419C8.50909 6.61409 7.94043 6.98352 7.46761 7.46737C6.98782 7.94019 6.61491 8.51234 6.3785 9.13967C6.14616 9.74144 5.98352 10.428 5.93937 11.4323C5.89116 12.4442 5.88013 12.7654 5.88013 15.3316C5.88013 17.8979 5.89116 18.2191 5.93531 19.2269C5.97945 20.2312 6.14209 20.9218 6.37502 21.5195C6.61491 22.1544 6.98782 22.7231 7.46761 23.1959C7.94043 23.6757 8.51258 24.0492 9.14049 24.285C9.74226 24.5173 10.4288 24.68 11.4331 24.7241C12.4409 24.7688 12.7621 24.7799 15.3284 24.7799C17.8946 24.7799 18.2153 24.7688 19.2236 24.7241C20.2279 24.68 20.918 24.5173 21.5163 24.285L21.5157 24.2844ZM15.3354 23.0809C12.8133 23.0809 12.5106 23.0698 11.5174 23.0257C10.5944 22.985 10.096 22.8299 9.76375 22.701C9.35425 22.5494 8.98133 22.3095 8.67813 21.9958C8.36446 21.6891 8.12399 21.3203 7.97296 20.9102C7.84401 20.5779 7.68892 20.0755 7.64826 19.1566C7.60412 18.1598 7.59308 17.8607 7.59308 15.3386C7.59308 12.8165 7.60412 12.5139 7.64826 11.5212C7.68892 10.5982 7.84401 10.0998 7.97296 9.76758C8.12457 9.35749 8.36446 8.98458 8.68219 8.68195C8.9883 8.36829 9.35773 8.12839 9.76724 7.97679C10.0995 7.84783 10.6019 7.69275 11.5209 7.65209C12.5176 7.60794 12.8167 7.5969 15.3383 7.5969C17.8598 7.5969 18.163 7.60794 19.1562 7.65209C20.0792 7.69275 20.5776 7.84783 20.9099 7.97679C21.3194 8.12839 21.6923 8.36829 21.9949 8.68195C22.3086 8.98864 22.549 9.35749 22.7001 9.76758C22.829 10.0998 22.9841 10.6017 23.0248 11.5212C23.0689 12.5179 23.08 12.8171 23.08 15.3386C23.08 17.8601 23.0689 18.1558 23.0248 19.1525C22.9841 20.0755 22.829 20.5739 22.7001 20.9061C22.3823 21.7298 21.7289 22.3833 20.9058 22.7004C20.5735 22.8294 20.0717 22.9844 19.1522 23.0251C18.1554 23.0693 17.8563 23.0803 15.3348 23.0803L15.3354 23.0809Z" fill="white"/>
<path d="M15.332 10.4756C12.6513 10.4756 10.4766 12.6503 10.4766 15.331C10.4766 18.0117 12.6513 20.1864 15.332 20.1864C18.0126 20.1864 20.1868 18.0117 20.1868 15.331C20.1868 12.6503 18.0121 10.4756 15.332 10.4756V10.4756ZM15.332 18.4798C13.5929 18.4798 12.1825 17.0695 12.1825 15.3304C12.1825 13.5913 13.5929 12.181 15.332 12.181C17.0711 12.181 18.4814 13.5913 18.4814 15.3304C18.4814 17.0695 17.0711 18.4798 15.332 18.4798Z" fill="white"/>
<path d="M21.5122 10.2841C21.5122 9.65797 21.0045 9.15088 20.3784 9.15088C19.7522 9.15088 19.2451 9.65855 19.2451 10.2841C19.2451 10.9097 19.7528 11.4174 20.3784 11.4174C21.004 11.4174 21.5122 10.9103 21.5122 10.2841Z" fill="white"/>
</g>
</g>
<defs>
<filter id="filter0_i_108_1384" x="5.88013" y="5.87988" width="18.8999" height="19.3999" filterUnits="userSpaceOnUse" color-interpolation-filters="sRGB">
<feFlood flood-opacity="0" result="BackgroundImageFix"/>
<feBlend mode="normal" in="SourceGraphic" in2="BackgroundImageFix" result="shape"/>
<feColorMatrix in="SourceAlpha" type="matrix" values="0 0 0 0 0 0 0 0 0 0 0 0 0 0 0 0 0 0 127 0" result="hardAlpha"/>
<feOffset dy="0.5"/>
<feGaussianBlur stdDeviation="1.25"/>
<feComposite in2="hardAlpha" operator="arithmetic" k2="-1" k3="1"/>
<feColorMatrix type="matrix" values="0 0 0 0 0 0 0 0 0 0 0 0 0 0 0 0 0 0 0.2 0"/>
<feBlend mode="normal" in2="shape" result="effect1_innerShadow_108_1384"/>
</filter>
<filter id="filter1_i_108_1384" x="5.88013" y="5.87988" width="18.8662" height="19.3999" filterUnits="userSpaceOnUse" color-interpolation-filters="sRGB">
<feFlood flood-opacity="0" result="BackgroundImageFix"/>
<feBlend mode="normal" in="SourceGraphic" in2="BackgroundImageFix" result="shape"/>
<feColorMatrix in="SourceAlpha" type="matrix" values="0 0 0 0 0 0 0 0 0 0 0 0 0 0 0 0 0 0 127 0" result="hardAlpha"/>
<feOffset dy="0.5"/>
<feGaussianBlur stdDeviation="1.25"/>
<feComposite in2="hardAlpha" operator="arithmetic" k2="-1" k3="1"/>
<feColorMatrix type="matrix" values="0 0 0 0 0 0 0 0 0 0 0 0 0 0 0 0 0 0 0.1 0"/>
<feBlend mode="normal" in2="shape" result="effect1_innerShadow_108_1384"/>
</filter>
<linearGradient id="paint0_linear_108_1384" x1="15.4978" y1="-0.965789" x2="15.4978" y2="32.62" gradientUnits="userSpaceOnUse">
<stop stop-color="#FCA759"/>
<stop offset="0.19" stop-color="#E82D56"/>
<stop offset="0.74" stop-color="#A22DB4"/>
<stop offset="1" stop-color="#643DCE"/>
</linearGradient>
<clipPath id="clip0_108_1384">
<rect width="18.9" height="18.9" fill="white" transform="translate(5.88013 5.87988)"/>
</clipPath>
</defs>
</svg>
