<svg width="31" height="31" viewBox="0 0 31 31" fill="none" xmlns="http://www.w3.org/2000/svg">
<rect width="30.9956" height="30.9956" rx="15.4978" fill="url(#paint0_linear_108_1406)"/>
<g filter="url(#filter0_i_108_1406)">
<path d="M10.7932 22.9558V12.5677H7.34348V22.9558H10.7936H10.7932ZM9.06908 11.1496C10.2718 11.1496 11.0206 10.3519 11.0206 9.35507C10.9981 8.33548 10.2718 7.56006 9.09195 7.56006C7.91126 7.56006 7.14014 8.33548 7.14014 9.35498C7.14014 10.3519 7.88866 11.1495 9.04648 11.1495H9.06881L9.06908 11.1496ZM12.7027 22.9558H16.1522V17.1552C16.1522 16.8452 16.1747 16.5343 16.2659 16.3128C16.5151 15.6923 17.0828 15.0499 18.036 15.0499C19.2839 15.0499 19.7835 16.0024 19.7835 17.399V22.9558H23.2329V16.9996C23.2329 13.8089 21.5312 12.3242 19.2616 12.3242C17.4008 12.3242 16.5836 13.3651 16.1295 14.0741H16.1525V12.5681H12.7029C12.7479 13.5426 12.7026 22.9561 12.7026 22.9561L12.7027 22.9558Z" fill="white"/>
</g>
<defs>
<filter id="filter0_i_108_1406" x="5.88013" y="5.87988" width="18.8999" height="19.3999" filterUnits="userSpaceOnUse" color-interpolation-filters="sRGB">
<feFlood flood-opacity="0" result="BackgroundImageFix"/>
<feBlend mode="normal" in="SourceGraphic" in2="BackgroundImageFix" result="shape"/>
<feColorMatrix in="SourceAlpha" type="matrix" values="0 0 0 0 0 0 0 0 0 0 0 0 0 0 0 0 0 0 127 0" result="hardAlpha"/>
<feOffset dy="0.5"/>
<feGaussianBlur stdDeviation="1.25"/>
<feComposite in2="hardAlpha" operator="arithmetic" k2="-1" k3="1"/>
<feColorMatrix type="matrix" values="0 0 0 0 0 0 0 0 0 0 0 0 0 0 0 0 0 0 0.1 0"/>
<feBlend mode="normal" in2="shape" result="effect1_innerShadow_108_1406"/>
</filter>
<linearGradient id="paint0_linear_108_1406" x1="17.64" y1="31.92" x2="3.15" y2="-6.63755e-07" gradientUnits="userSpaceOnUse">
<stop stop-color="#006699"/>
<stop offset="1" stop-color="#058CCF"/>
</linearGradient>
</defs>
</svg>
