<svg width="31" height="31" viewBox="0 0 31 31" fill="none" xmlns="http://www.w3.org/2000/svg">
<rect width="30.9956" height="30.9956" rx="15.4978" fill="url(#paint0_radial_108_1410)"/>
<g filter="url(#filter0_i_108_1410)">
<path d="M15.5399 7.13965C10.8087 7.13965 7.14014 10.6067 7.14014 15.2874C7.14014 17.736 8.14391 19.8527 9.77767 21.3143C9.91416 21.4361 9.99816 21.6083 10.0024 21.793L10.0486 23.2882C10.0519 23.3982 10.0823 23.5057 10.1369 23.6013C10.1915 23.6968 10.2688 23.7775 10.3619 23.8362C10.455 23.8948 10.5611 23.9298 10.6709 23.9378C10.7807 23.9459 10.8907 23.9269 10.9914 23.8825L12.6588 23.1475C12.7995 23.0845 12.9591 23.074 13.1082 23.1139C13.8747 23.3239 14.6894 23.4373 15.5399 23.4373C20.2711 23.4373 23.9397 19.9703 23.9397 15.2895C23.9397 10.6088 20.2711 7.13965 15.5399 7.13965Z" fill="white"/>
<path d="M10.4958 17.6709L12.9633 13.7566C13.0561 13.6092 13.1785 13.4827 13.3227 13.385C13.4668 13.2873 13.6297 13.2205 13.801 13.189C13.9723 13.1574 14.1482 13.1617 14.3178 13.2015C14.4873 13.2414 14.6468 13.316 14.786 13.4206L16.7495 14.8926C16.8371 14.9583 16.9438 14.9936 17.0533 14.9932C17.1628 14.9928 17.2692 14.9568 17.3564 14.8905L20.0065 12.8788C20.3593 12.61 20.8213 13.0342 20.5861 13.4101L18.1165 17.3223C18.0237 17.4696 17.9013 17.5962 17.7572 17.6939C17.613 17.7916 17.4501 17.8583 17.2788 17.8899C17.1075 17.9214 16.9316 17.9172 16.762 17.8773C16.5925 17.8374 16.4331 17.7628 16.2938 17.6583L14.3303 16.1862C14.2427 16.1206 14.136 16.0853 14.0265 16.0857C13.917 16.086 13.8107 16.1221 13.7235 16.1883L11.0733 18.2C10.7205 18.4688 10.2586 18.0467 10.4958 17.6709Z" fill="url(#paint1_radial_108_1410)"/>
</g>
<defs>
<filter id="filter0_i_108_1410" x="5.88013" y="5.87988" width="18.8999" height="19.3999" filterUnits="userSpaceOnUse" color-interpolation-filters="sRGB">
<feFlood flood-opacity="0" result="BackgroundImageFix"/>
<feBlend mode="normal" in="SourceGraphic" in2="BackgroundImageFix" result="shape"/>
<feColorMatrix in="SourceAlpha" type="matrix" values="0 0 0 0 0 0 0 0 0 0 0 0 0 0 0 0 0 0 127 0" result="hardAlpha"/>
<feOffset dy="0.5"/>
<feGaussianBlur stdDeviation="1.25"/>
<feComposite in2="hardAlpha" operator="arithmetic" k2="-1" k3="1"/>
<feColorMatrix type="matrix" values="0 0 0 0 0 0 0 0 0 0 0 0 0 0 0 0 0 0 0.1 0"/>
<feBlend mode="normal" in2="shape" result="effect1_innerShadow_108_1410"/>
</filter>
<radialGradient id="paint0_radial_108_1410" cx="0" cy="0" r="1" gradientUnits="userSpaceOnUse" gradientTransform="translate(5.19177 30.9948) scale(34.0952 34.0943)">
<stop stop-color="#0099FF"/>
<stop offset="0.6" stop-color="#A033FF"/>
<stop offset="0.9" stop-color="#FF5280"/>
<stop offset="1" stop-color="#FF7061"/>
</radialGradient>
<radialGradient id="paint1_radial_108_1410" cx="0" cy="0" r="1" gradientUnits="userSpaceOnUse" gradientTransform="translate(9.95406 23.9392) scale(18.4795 18.4795)">
<stop stop-color="#0099FF"/>
<stop offset="0.6" stop-color="#A033FF"/>
<stop offset="0.9" stop-color="#FF5280"/>
<stop offset="1" stop-color="#FF7061"/>
</radialGradient>
</defs>
</svg>
