<svg width="31" height="31" viewBox="0 0 31 31" fill="none" xmlns="http://www.w3.org/2000/svg">
<rect width="30.9956" height="30.9956" rx="15.4978" fill="url(#paint0_linear_108_1414)"/>
<g filter="url(#filter0_i_108_1414)">
<path d="M8.17012 14.5174C8.17012 14.5174 15.6004 11.2221 18.1773 10.0618C19.1651 9.59772 22.5152 8.11249 22.5152 8.11249C22.5152 8.11249 24.0614 7.46276 23.9325 9.04074C23.8895 9.69054 23.546 11.9647 23.2024 14.4246C22.687 17.9055 22.1286 21.7113 22.1286 21.7113C22.1286 21.7113 22.0427 22.7788 21.3126 22.9644C20.5825 23.15 19.3799 22.3147 19.1651 22.129C18.9933 21.9898 15.9439 19.9012 14.8273 18.8801C14.5266 18.6017 14.183 18.0447 14.8702 17.395C16.4164 15.8633 18.2632 13.9605 19.3798 12.7538C19.8953 12.1968 20.4106 10.8972 18.2632 12.4752C15.2138 14.7495 12.2074 16.8844 12.2074 16.8844C12.2074 16.8844 11.5201 17.3485 10.2317 16.9308C8.94316 16.5131 7.43993 15.9562 7.43993 15.9562C7.43993 15.9562 6.40921 15.26 8.17012 14.5174Z" fill="white"/>
</g>
<defs>
<filter id="filter0_i_108_1414" x="5.88013" y="5.87988" width="18.8999" height="19.3999" filterUnits="userSpaceOnUse" color-interpolation-filters="sRGB">
<feFlood flood-opacity="0" result="BackgroundImageFix"/>
<feBlend mode="normal" in="SourceGraphic" in2="BackgroundImageFix" result="shape"/>
<feColorMatrix in="SourceAlpha" type="matrix" values="0 0 0 0 0 0 0 0 0 0 0 0 0 0 0 0 0 0 127 0" result="hardAlpha"/>
<feOffset dy="0.5"/>
<feGaussianBlur stdDeviation="1.25"/>
<feComposite in2="hardAlpha" operator="arithmetic" k2="-1" k3="1"/>
<feColorMatrix type="matrix" values="0 0 0 0 0 0 0 0 0 0 0 0 0 0 0 0 0 0 0.1 0"/>
<feBlend mode="normal" in2="shape" result="effect1_innerShadow_108_1414"/>
</filter>
<linearGradient id="paint0_linear_108_1414" x1="2.73" y1="2.31" x2="28.56" y2="30.24" gradientUnits="userSpaceOnUse">
<stop stop-color="#0088CC"/>
<stop offset="1" stop-color="#0083C5"/>
</linearGradient>
</defs>
</svg>
