<svg width="31" height="31" viewBox="0 0 31 31" fill="none" xmlns="http://www.w3.org/2000/svg">
<rect width="30.9956" height="30.9956" rx="15.4978" fill="url(#paint0_linear_108_1388)"/>
<g clip-path="url(#clip0_108_1388)" filter="url(#filter0_i_108_1388)">
<path d="M24.6961 9.43329C24.0847 9.69663 23.442 9.88001 22.7838 9.97889C23.0915 9.92609 23.5443 9.37169 23.7245 9.14728C23.9983 8.80879 24.207 8.42238 24.34 8.00768C24.34 7.97687 24.3708 7.93287 24.34 7.91087C24.3245 7.9024 24.3071 7.89796 24.2894 7.89796C24.2718 7.89796 24.2544 7.9024 24.2389 7.91087C23.5241 8.29826 22.7635 8.59393 21.9749 8.79088C21.9474 8.79929 21.9181 8.80004 21.8902 8.79306C21.8624 8.78609 21.8369 8.77164 21.8166 8.75128C21.7552 8.67812 21.6891 8.60904 21.6188 8.54448C21.2971 8.25603 20.9322 8.01995 20.5373 7.84487C20.0043 7.62601 19.4286 7.53122 18.8536 7.56767C18.2957 7.60294 17.751 7.75271 17.2534 8.00768C16.7634 8.27648 16.3328 8.64167 15.9873 9.08128C15.624 9.53376 15.3617 10.0589 15.218 10.6213C15.0996 11.1563 15.0861 11.7092 15.1785 12.2493C15.1785 12.3417 15.1785 12.3549 15.0993 12.3417C11.9649 11.8797 9.39315 10.7665 7.2918 8.37728C7.19948 8.27168 7.15112 8.27168 7.07639 8.37728C6.162 9.76769 6.606 11.9677 7.749 13.0545C7.90286 13.1997 8.06112 13.3405 8.22817 13.4725C7.70412 13.4353 7.19286 13.2931 6.7247 13.0545C6.63678 12.9973 6.58842 13.0281 6.58402 13.1337C6.57156 13.2801 6.57156 13.4273 6.58402 13.5737C6.67575 14.2753 6.95201 14.94 7.38456 15.4997C7.8171 16.0594 8.39041 16.4941 9.04585 16.7593C9.20564 16.8278 9.37213 16.8795 9.54262 16.9133C9.05747 17.0089 8.55989 17.0238 8.06991 16.9573C7.96441 16.9353 7.92484 16.9925 7.96441 17.0937C8.61064 18.8538 10.013 19.3906 11.0417 19.6898C11.1824 19.7118 11.323 19.7118 11.4813 19.747C11.4813 19.747 11.4813 19.747 11.4549 19.7734C11.1516 20.3278 9.92508 20.7018 9.36238 20.8954C8.3353 21.2646 7.24024 21.4058 6.1532 21.309C5.98175 21.2826 5.94219 21.287 5.89823 21.309C5.85427 21.331 5.89823 21.3794 5.94658 21.4234C6.16639 21.5686 6.3862 21.6962 6.6148 21.8194C7.29534 22.1909 8.0148 22.486 8.76011 22.6994C12.6199 23.7642 16.9633 22.981 19.8603 20.099C22.1375 17.8374 22.9376 14.7177 22.9376 11.5937C22.9376 11.4749 23.0827 11.4045 23.1662 11.3429C23.7423 10.8936 24.2503 10.363 24.6741 9.76769C24.7475 9.67895 24.7851 9.56596 24.7796 9.45089C24.7796 9.38489 24.7796 9.39809 24.6961 9.43329Z" fill="white"/>
</g>
<defs>
<filter id="filter0_i_108_1388" x="5.88013" y="5.87988" width="18.8999" height="19.3999" filterUnits="userSpaceOnUse" color-interpolation-filters="sRGB">
<feFlood flood-opacity="0" result="BackgroundImageFix"/>
<feBlend mode="normal" in="SourceGraphic" in2="BackgroundImageFix" result="shape"/>
<feColorMatrix in="SourceAlpha" type="matrix" values="0 0 0 0 0 0 0 0 0 0 0 0 0 0 0 0 0 0 127 0" result="hardAlpha"/>
<feOffset dy="0.5"/>
<feGaussianBlur stdDeviation="1.25"/>
<feComposite in2="hardAlpha" operator="arithmetic" k2="-1" k3="1"/>
<feColorMatrix type="matrix" values="0 0 0 0 0 0 0 0 0 0 0 0 0 0 0 0 0 0 0.1 0"/>
<feBlend mode="normal" in2="shape" result="effect1_innerShadow_108_1388"/>
</filter>
<linearGradient id="paint0_linear_108_1388" x1="0.63" y1="2.16611e-07" x2="27.3" y2="33.39" gradientUnits="userSpaceOnUse">
<stop stop-color="#0CA8F7"/>
<stop offset="1" stop-color="#0096E1"/>
</linearGradient>
<clipPath id="clip0_108_1388">
<rect width="18.9" height="18.9" fill="white" transform="translate(5.88013 5.87988)"/>
</clipPath>
</defs>
</svg>
