<svg width="31" height="31" viewBox="0 0 31 31" fill="none" xmlns="http://www.w3.org/2000/svg">
<rect width="30.9956" height="30.9956" rx="15.4978" fill="url(#paint0_linear_108_1418)"/>
<g clip-path="url(#clip0_108_1418)" filter="url(#filter0_i_108_1418)">
<path d="M18.6901 12.1912C19.0083 12.1912 19.319 12.2177 19.6256 12.2555C19.0713 9.82123 16.5146 7.97998 13.4402 7.97998C9.96043 7.97998 7.14014 10.3371 7.14014 13.244C7.14014 14.92 8.0831 16.4069 9.54569 17.369L8.71511 19.0346L10.9777 18.0628C11.4629 18.2356 11.9671 18.3779 12.5056 18.4441C12.432 18.1228 12.3902 17.7935 12.3902 17.4555C12.3902 14.5528 15.2156 12.1912 18.6901 12.1912ZM15.5402 10.3486C15.975 10.3486 16.3277 10.7024 16.3277 11.1384C16.3277 11.5745 15.9751 11.928 15.5402 11.928C15.1052 11.928 14.7527 11.5745 14.7527 11.1384C14.7527 10.7023 15.1052 10.3486 15.5402 10.3486ZM11.3402 11.928C10.9053 11.928 10.5527 11.5745 10.5527 11.1384C10.5527 10.7024 10.9053 10.3486 11.3402 10.3486C11.775 10.3486 12.1277 10.7024 12.1277 11.1384C12.1276 11.5745 11.7749 11.928 11.3402 11.928Z" fill="white"/>
<path d="M23.9401 17.4554C23.9401 15.1296 21.589 13.244 18.6901 13.244C15.791 13.244 13.4402 15.1296 13.4402 17.4554C13.4402 19.7811 15.791 21.6667 18.6901 21.6667C19.1668 21.6667 19.6203 21.5993 20.0603 21.5036L22.8902 22.7195L21.9115 20.7582C23.138 19.9874 23.9401 18.802 23.9401 17.4554ZM17.1151 17.1922C16.6803 17.1922 16.3276 16.8386 16.3276 16.4024C16.3276 15.9664 16.6803 15.6129 17.1151 15.6129C17.5501 15.6129 17.9026 15.9666 17.9026 16.4024C17.9026 16.8387 17.55 17.1922 17.1151 17.1922ZM20.2651 17.1922C19.83 17.1922 19.4776 16.8386 19.4776 16.4024C19.4776 15.9664 19.83 15.6129 20.2651 15.6129C20.7001 15.6129 21.0526 15.9666 21.0526 16.4024C21.0526 16.8387 20.7001 17.1922 20.2651 17.1922Z" fill="white"/>
</g>
<defs>
<filter id="filter0_i_108_1418" x="7.14014" y="7.14014" width="16.8" height="17.2998" filterUnits="userSpaceOnUse" color-interpolation-filters="sRGB">
<feFlood flood-opacity="0" result="BackgroundImageFix"/>
<feBlend mode="normal" in="SourceGraphic" in2="BackgroundImageFix" result="shape"/>
<feColorMatrix in="SourceAlpha" type="matrix" values="0 0 0 0 0 0 0 0 0 0 0 0 0 0 0 0 0 0 127 0" result="hardAlpha"/>
<feOffset dy="0.5"/>
<feGaussianBlur stdDeviation="1.25"/>
<feComposite in2="hardAlpha" operator="arithmetic" k2="-1" k3="1"/>
<feColorMatrix type="matrix" values="0 0 0 0 0 0 0 0 0 0 0 0 0 0 0 0 0 0 0.1 0"/>
<feBlend mode="normal" in2="shape" result="effect1_innerShadow_108_1418"/>
</filter>
<linearGradient id="paint0_linear_108_1418" x1="2.73" y1="2.31" x2="28.56" y2="30.24" gradientUnits="userSpaceOnUse">
<stop stop-color="#51C332"/>
<stop offset="1" stop-color="#228408"/>
</linearGradient>
<clipPath id="clip0_108_1418">
<rect width="16.8" height="16.8" fill="white" transform="translate(7.14014 7.14014)"/>
</clipPath>
</defs>
</svg>
