<svg width="31" height="31" viewBox="0 0 31 31" fill="none" xmlns="http://www.w3.org/2000/svg">
<rect width="30.9956" height="30.9956" rx="15.4978" fill="url(#paint0_linear_108_1394)"/>
<g clip-path="url(#clip0_108_1394)" filter="url(#filter0_i_108_1394)">
<path d="M5.88013 24.7799L7.23495 19.7423C6.14232 17.7799 5.79518 15.49 6.25723 13.2927C6.71929 11.0954 7.95954 9.13815 9.75041 7.78011C11.5413 6.42206 13.7626 5.75431 16.0068 5.89939C18.2511 6.04447 20.3676 6.99265 21.9681 8.56993C23.5686 10.1472 24.5456 12.2478 24.72 14.4862C24.8943 16.7247 24.2542 18.9508 22.9172 20.7561C21.5802 22.5614 19.6359 23.8249 17.4412 24.3145C15.2464 24.8042 12.9484 24.4873 10.9687 23.422L5.88013 24.7799ZM11.2141 21.5369L11.5288 21.7233C12.9627 22.5717 14.6374 22.9229 16.2921 22.7219C17.9467 22.5209 19.4883 21.7792 20.6765 20.6122C21.8648 19.4452 22.6331 17.9186 22.8615 16.2703C23.09 14.6219 22.7659 12.9444 21.9397 11.4991C21.1134 10.0539 19.8316 8.92204 18.2938 8.28006C16.756 7.63807 15.0486 7.52197 13.4378 7.94985C11.8271 8.37774 10.4033 9.32556 9.38841 10.6456C8.37353 11.9657 7.82455 13.5838 7.82702 15.2479C7.82568 16.6277 8.2079 17.9808 8.93116 19.1565L9.12851 19.4814L8.37109 22.293L11.2141 21.5369Z" fill="white"/>
<path fill-rule="evenodd" clip-rule="evenodd" d="M18.8522 16.5413C18.6677 16.3927 18.4517 16.2882 18.2206 16.2356C17.9895 16.183 17.7494 16.1837 17.5187 16.2377C17.172 16.3815 16.9479 16.9247 16.7239 17.1963C16.6767 17.2614 16.6073 17.307 16.5287 17.3247C16.4501 17.3423 16.3678 17.3308 16.2972 17.2921C15.0279 16.7958 13.9639 15.8856 13.2782 14.7094C13.2197 14.636 13.192 14.5428 13.201 14.4495C13.2099 14.3561 13.2548 14.2699 13.3262 14.2089C13.576 13.9619 13.7595 13.6561 13.8596 13.3196C13.8818 12.9484 13.7966 12.5787 13.6142 12.2546C13.4732 11.8001 13.2048 11.3954 12.8408 11.0883C12.653 11.004 12.4449 10.9758 12.2414 11.007C12.0379 11.0381 11.8478 11.1274 11.694 11.2641C11.427 11.494 11.2151 11.7809 11.0739 12.1034C10.9326 12.426 10.8656 12.7761 10.8779 13.1279C10.8787 13.3254 10.9038 13.5222 10.9526 13.7136C11.0764 14.1737 11.2669 14.6132 11.518 15.0183C11.6991 15.3286 11.8967 15.629 12.11 15.9182C12.8032 16.8682 13.6745 17.6748 14.6757 18.2932C15.178 18.6075 15.715 18.863 16.2759 19.0547C16.8585 19.3184 17.5018 19.4196 18.1374 19.3476C18.4996 19.2929 18.8427 19.1501 19.1366 18.9319C19.4305 18.7137 19.6662 18.4267 19.8229 18.0962C19.915 17.8966 19.943 17.6733 19.903 17.4572C19.8069 17.0152 19.2149 16.7543 18.8522 16.5413Z" fill="white"/>
</g>
<defs>
<filter id="filter0_i_108_1394" x="5.88013" y="5.87988" width="18.8999" height="19.3999" filterUnits="userSpaceOnUse" color-interpolation-filters="sRGB">
<feFlood flood-opacity="0" result="BackgroundImageFix"/>
<feBlend mode="normal" in="SourceGraphic" in2="BackgroundImageFix" result="shape"/>
<feColorMatrix in="SourceAlpha" type="matrix" values="0 0 0 0 0 0 0 0 0 0 0 0 0 0 0 0 0 0 127 0" result="hardAlpha"/>
<feOffset dy="0.5"/>
<feGaussianBlur stdDeviation="1.25"/>
<feComposite in2="hardAlpha" operator="arithmetic" k2="-1" k3="1"/>
<feColorMatrix type="matrix" values="0 0 0 0 0 0 0 0 0 0 0 0 0 0 0 0 0 0 0.1 0"/>
<feBlend mode="normal" in2="shape" result="effect1_innerShadow_108_1394"/>
</filter>
<linearGradient id="paint0_linear_108_1394" x1="17.64" y1="31.92" x2="3.15" y2="-6.63755e-07" gradientUnits="userSpaceOnUse">
<stop stop-color="#00D95F"/>
<stop offset="1" stop-color="#07FF74"/>
</linearGradient>
<clipPath id="clip0_108_1394">
<rect width="18.9" height="18.9" fill="white" transform="translate(5.88013 5.87988)"/>
</clipPath>
</defs>
</svg>
