<svg width="127" height="124" viewBox="0 0 127 124" fill="none" xmlns="http://www.w3.org/2000/svg">
<path d="M35.0307 110.278C35.798 110.724 36.3798 111.246 36.7763 111.844C37.1728 112.442 37.3676 113.086 37.3608 113.774C37.3502 114.47 37.1331 115.182 36.7095 115.911C36.2933 116.627 35.7896 117.155 35.1982 117.496C34.6031 117.843 33.9494 117.989 33.2371 117.934C32.5247 117.879 31.7849 117.629 31.0177 117.183C30.2504 116.737 29.6667 116.218 29.2665 115.627C28.8663 115.035 28.6696 114.394 28.6765 113.706C28.6797 113.023 28.8893 112.324 29.3055 111.608C29.7291 110.879 30.2403 110.338 30.8391 109.984C31.4342 109.637 32.0897 109.488 32.8058 109.536C33.5218 109.585 34.2635 109.832 35.0307 110.278ZM34.7353 110.786C33.9361 110.322 33.1737 110.221 32.448 110.483C31.7186 110.752 31.0771 111.363 30.5235 112.316C29.9773 113.256 29.7734 114.099 29.912 114.847C30.0468 115.601 30.5139 116.21 31.3131 116.675C32.1123 117.139 32.8729 117.243 33.5948 116.987C34.313 116.738 34.9453 116.143 35.4915 115.203C36.0451 114.25 36.2582 113.39 36.1308 112.624C35.9997 111.863 35.5345 111.251 34.7353 110.786Z" fill="#E4F0FF"/>
<path d="M24.2289 109.62L23.3117 108.799L23.9335 108.105C23.5946 108.228 23.2285 108.238 22.8353 108.134C22.4316 108.03 22.059 107.826 21.7175 107.52C21.1832 107.041 20.8876 106.523 20.8308 105.966C20.7636 105.409 20.9421 104.894 21.3665 104.42L23.6832 101.834L24.6003 102.656L22.217 105.316C21.8962 105.674 21.7429 106.028 21.7569 106.378C21.7654 106.724 21.9404 107.049 22.2819 107.355C22.673 107.705 23.1054 107.854 23.5791 107.802C24.0472 107.745 24.4787 107.496 24.8735 107.056L26.9385 104.75L27.8556 105.572L24.2289 109.62Z" fill="#E4F0FF"/>
<path d="M18.3763 96.3313C18.0689 95.9333 17.7243 95.6808 17.3427 95.5738C16.9565 95.461 16.5665 95.5006 16.1729 95.6925L15.5897 94.9376C16.1334 94.6858 16.6922 94.6653 17.2662 94.876C17.8401 95.0868 18.3599 95.4936 18.8256 96.0964C19.2098 96.5938 19.4537 97.097 19.557 97.6058C19.6604 98.1147 19.6222 98.5974 19.4423 99.0541C19.2624 99.5107 18.9471 99.9131 18.4965 100.261C18.04 100.614 17.5652 100.822 17.0721 100.885C16.5789 100.948 16.1015 100.868 15.6398 100.646C15.1677 100.422 14.7418 100.064 14.362 99.5723C13.7834 98.8232 13.529 98.0946 13.5988 97.3865C13.6686 96.6785 14.056 96.0429 14.7609 95.4796L17.7242 99.3159L17.7681 99.282C18.3358 98.8435 18.6789 98.3682 18.7973 97.8562C18.9054 97.3429 18.7651 96.8346 18.3763 96.3313ZM14.7367 99.2408C15.0532 99.6504 15.4344 99.8839 15.8805 99.9412C16.3265 99.9984 16.8027 99.8829 17.3089 99.5947L15.0847 96.7153C14.6617 97.1355 14.42 97.5605 14.3595 97.9903C14.2991 98.4201 14.4248 98.837 14.7367 99.2408Z" fill="#E4F0FF"/>
<path d="M10.8165 81.8717C11.0472 82.4802 11.1419 83.0533 11.1006 83.5909C11.0497 84.1243 10.8744 84.5901 10.5746 84.9885C10.2653 85.3825 9.84441 85.6805 9.31197 85.8824C8.77953 86.0842 8.27036 86.1388 7.78446 86.0462C7.28902 85.9494 6.84893 85.7168 6.46417 85.3486C6.06987 84.9761 5.75738 84.4856 5.52668 83.8771C5.29599 83.2686 5.20477 82.6942 5.25303 82.154C5.29437 81.6163 5.46838 81.147 5.77507 80.746C6.07484 80.3477 6.49095 80.0476 7.02339 79.8457C7.55583 79.6438 8.06977 79.5913 8.56521 79.6882C9.05373 79.7877 9.49514 80.0237 9.88943 80.3962C10.2768 80.7713 10.5858 81.2632 10.8165 81.8717ZM10.3498 82.0486C10.1322 81.4747 9.76688 81.0952 9.25381 80.9101C8.73813 80.718 8.14146 80.7505 7.4638 81.0074C6.78615 81.2643 6.31793 81.6356 6.05916 82.1212C5.79776 82.5999 5.77585 83.1262 5.99344 83.7002C6.21102 84.2741 6.57635 84.6536 7.08941 84.8387C7.60248 85.0238 8.19783 84.9879 8.87549 84.731C9.55314 84.4741 10.0227 84.1063 10.2841 83.6276C10.5455 83.1489 10.5674 82.6226 10.3498 82.0486Z" fill="#E4F0FF"/>
<path d="M3.45427 74.8651L3.67603 75.9519L3.16033 75.9213L2.96518 74.9649L2.38914 75.0824C1.91091 75.18 1.51469 75.1061 1.20047 74.8608C0.886256 74.6154 0.671489 74.2102 0.556172 73.645C0.471902 73.232 0.46615 72.8709 0.538917 72.5617L1.06771 72.601C0.961083 72.7812 0.931426 72.9873 0.978735 73.2191C1.03492 73.4945 1.15823 73.692 1.34869 73.8116C1.53766 73.924 1.78069 73.9499 2.07777 73.8893L2.71902 73.7584L2.42186 72.302L2.93535 72.3218L3.20811 73.6586L8.04469 72.6718L8.29084 73.8782L3.45427 74.8651Z" fill="#E4F0FF"/>
<path d="M7.13695 59.3319C7.10149 60.3444 6.54056 60.8316 5.45414 60.7936L2.0397 60.674L2.00554 61.6496L1.51289 61.4547L1.54162 60.6344L0.0253568 60.1928L0.0540819 59.3724L1.58393 59.426L1.63672 57.9183L2.13015 58.091L2.08279 59.4435L5.64135 59.5681C6.29172 59.5909 6.62557 59.3547 6.64291 58.8595C6.65249 58.586 6.59146 58.3212 6.45984 58.065L6.96979 58.0829C7.09934 58.3982 7.15506 58.8145 7.13695 59.3319Z" fill="#E4F0FF"/>
<path d="M0 52.5424L0.231317 51.3444L3.31361 51.9395C3.00879 51.6848 2.79704 51.3577 2.67835 50.9582C2.5524 50.5573 2.53358 50.1282 2.6219 49.6707C2.75789 48.9664 3.04163 48.4525 3.47312 48.1291C3.89735 47.8043 4.42169 47.7022 5.04614 47.8228L8.49874 48.4894L8.26742 49.6875L4.7168 49.0019C4.25935 48.9136 3.8884 48.9625 3.60392 49.1486C3.32085 49.3274 3.13726 49.6347 3.05314 50.0703C2.9508 50.6004 3.05031 51.0602 3.35168 51.4498C3.64578 51.8379 4.09417 52.0902 4.69683 52.2066L7.6702 52.7807L7.43889 53.9787L0 52.5424Z" fill="#E4F0FF"/>
<path d="M10.4962 41.0871C10.6796 40.6189 10.7191 40.1936 10.6147 39.8112C10.513 39.4219 10.2787 39.1077 9.91165 38.8687L10.2596 37.9804C10.755 38.3174 11.0598 38.7862 11.174 39.3869C11.2882 39.9876 11.2064 40.6425 10.9286 41.3518C10.6993 41.9371 10.393 42.4048 10.0097 42.755C9.62631 43.1052 9.19253 43.3205 8.70834 43.4009C8.22416 43.4813 7.71696 43.4176 7.18676 43.21C6.64967 42.9996 6.22729 42.6992 5.91961 42.3086C5.61193 41.9181 5.43497 41.4675 5.38872 40.957C5.33828 40.4369 5.42634 39.8877 5.65288 39.3093C5.99809 38.4279 6.49232 37.8352 7.13557 37.5312C7.77882 37.2272 8.52317 37.2328 9.36863 37.5481L7.60077 42.0617L7.65242 42.0819C8.32034 42.3435 8.90434 42.3936 9.40442 42.232C9.90031 42.0609 10.2642 41.6793 10.4962 41.0871ZM6.12981 39.4603C5.94102 39.9423 5.93669 40.3894 6.1168 40.8014C6.29692 41.2135 6.6407 41.5625 7.14812 41.8487L8.47502 38.4609C7.89719 38.314 7.40839 38.325 7.00861 38.4941C6.60883 38.6631 6.3159 38.9852 6.12981 39.4603Z" fill="#E4F0FF"/>
<path d="M19.2074 26.9272C18.6161 27.6757 17.9066 28.0011 17.0791 27.9034L17.8276 28.4948L17.0712 29.4522L11.1264 24.7555L11.8828 23.798L14.346 25.7441C14.1959 25.3616 14.1622 24.9628 14.2452 24.5476C14.3281 24.1325 14.5232 23.7306 14.8303 23.3418C15.1742 22.9066 15.5644 22.5976 16.001 22.4147C16.4364 22.2215 16.8911 22.1708 17.3652 22.2626C17.8381 22.3441 18.2979 22.5613 18.7447 22.9143C19.1799 23.2581 19.493 23.661 19.6841 24.123C19.874 24.5746 19.9294 25.0472 19.8504 25.5408C19.7702 26.0241 19.5559 26.4862 19.2074 26.9272ZM18.6956 26.8056C19.0441 26.3646 19.1502 25.8783 19.0142 25.3467C18.8827 24.8093 18.5326 24.3159 17.964 23.8667C17.4011 23.422 16.8593 23.2012 16.3384 23.2044C15.8163 23.1972 15.3788 23.417 15.0258 23.8638C14.6728 24.3106 14.5568 24.8033 14.6779 25.3419C14.7932 25.8759 15.1323 26.3653 15.6951 26.81C16.258 27.2547 16.8108 27.4794 17.3537 27.4842C17.8953 27.4786 18.3426 27.2524 18.6956 26.8056Z" fill="#E4F0FF"/>
<path d="M26.1354 18.9698C26.5154 18.6404 26.748 18.2822 26.8333 17.8951C26.9241 17.5032 26.8626 17.1161 26.6487 16.7338L27.3696 16.109C27.6517 16.6376 27.7037 17.1944 27.5257 17.7793C27.3476 18.3643 26.9709 18.9062 26.3953 19.4051C25.9203 19.8169 25.4318 20.0887 24.9296 20.2206C24.4274 20.3526 23.9432 20.3416 23.4771 20.1878C23.011 20.034 22.5915 19.742 22.2185 19.3117C21.8407 18.8758 21.6063 18.4135 21.5154 17.9247C21.4244 17.4359 21.4771 16.9548 21.6734 16.4812C21.8704 15.9973 22.2036 15.5518 22.673 15.1449C23.3882 14.5249 24.1013 14.2298 24.8121 14.2595C25.523 14.2892 26.1795 14.6401 26.7816 15.3121L23.1187 18.4873L23.1551 18.5292C23.6249 19.0712 24.1188 19.3869 24.6366 19.4763C25.1553 19.5552 25.6548 19.3864 26.1354 18.9698ZM23.0251 15.5003C22.6339 15.8394 22.4224 16.2332 22.3904 16.6818C22.3584 17.1303 22.5006 17.5992 22.8169 18.0883L25.5662 15.7051C25.1228 15.3066 24.6848 15.0892 24.2522 15.0531C23.8197 15.017 23.4106 15.1661 23.0251 15.5003Z" fill="#E4F0FF"/>
<path d="M34.3968 13.6069C33.7296 14.0041 33.1189 14.1999 32.5647 14.1942C32.013 14.1783 31.5546 13.965 31.1895 13.5541L32.0187 13.0604C32.2625 13.3542 32.5676 13.5125 32.9341 13.5353C33.3069 13.5543 33.7188 13.4296 34.17 13.161C34.5894 12.9113 34.8706 12.632 35.0137 12.323C35.1632 12.0103 35.1528 11.7109 34.9826 11.425C34.8502 11.2026 34.633 11.0909 34.3312 11.0898C34.0256 11.0824 33.6086 11.1844 33.0803 11.3956C32.204 11.7452 31.5369 11.9186 31.0791 11.9157C30.6213 11.9129 30.2826 11.7272 30.0632 11.3586C29.8249 10.9583 29.8283 10.5303 30.0733 10.0746C30.3146 9.61249 30.7911 9.1696 31.5028 8.74591C32.189 8.33734 32.8124 8.13402 33.373 8.13594C33.9361 8.12773 34.3888 8.33157 34.7311 8.74746L33.8924 9.24681C33.6498 8.9695 33.3472 8.82262 32.9845 8.80615C32.6244 8.77955 32.2442 8.88542 31.8439 9.12375C31.4627 9.35073 31.2006 9.59714 31.0576 9.86298C30.9109 10.1225 30.9056 10.3666 31.0418 10.5953C31.125 10.7351 31.2312 10.8268 31.3604 10.8704C31.4859 10.9076 31.671 10.9006 31.916 10.8495C32.1572 10.7919 32.5019 10.6771 32.9502 10.5049C33.7756 10.1856 34.4299 10.0413 34.913 10.0721C35.3961 10.103 35.7549 10.3154 35.9895 10.7093C36.2656 11.1732 36.2646 11.6558 35.9864 12.157C35.7146 12.6545 35.1847 13.1378 34.3968 13.6069Z" fill="#E4F0FF"/>
<path d="M42.4589 9.62406C41.5205 10.0061 40.8464 9.69367 40.4365 8.68684L39.1482 5.5225L38.2441 5.89058L38.2203 5.36134L38.9805 5.05182L38.7629 3.48763L39.5232 3.17811L40.1004 4.5959L41.4976 4.02705L41.542 4.54793L40.2886 5.05822L41.6313 8.35612C41.8767 8.95885 42.2288 9.1668 42.6877 8.97997C42.9411 8.8768 43.1578 8.71274 43.3377 8.48779L43.5301 8.96039C43.2954 9.20764 42.9383 9.42886 42.4589 9.62406Z" fill="#E4F0FF"/>
<path d="M52.5428 1.01947L53.7492 0.836693L53.922 1.97731C54 1.55412 54.1728 1.2138 54.4405 0.956347C54.707 0.691581 55.0596 0.525966 55.4983 0.459503C55.6811 0.43181 55.8076 0.427602 55.8779 0.446879L55.8988 1.25149C55.7803 1.20961 55.6223 1.20363 55.4249 1.23354C54.9131 1.31108 54.554 1.58238 54.3477 2.04744C54.1414 2.5125 54.0854 3.05578 54.1795 3.67727L54.5634 6.21076L53.3569 6.39354L52.5428 1.01947Z" fill="#E4F0FF"/>
<path d="M63.5188 5.15867C64.0216 5.16137 64.4327 5.04525 64.7519 4.81032C65.0786 4.57543 65.2874 4.24377 65.3785 3.81533L66.3324 3.82046C66.1962 4.40395 65.8684 4.85699 65.349 5.17959C64.8296 5.50219 64.189 5.66144 63.4273 5.65735C62.7988 5.65398 62.2522 5.53642 61.7875 5.30467C61.3228 5.07293 60.9659 4.74562 60.7168 4.32276C60.4676 3.89989 60.3446 3.40375 60.3476 2.83434C60.3507 2.25753 60.4791 1.75534 60.7328 1.32779C60.9866 0.900227 61.3433 0.573056 61.803 0.346273C62.2702 0.112136 62.8144 -0.00326543 63.4355 7.02824e-05C64.3821 0.00515327 65.1129 0.253119 65.6279 0.743968C66.1429 1.23482 66.4054 1.93138 66.4154 2.83364L61.568 2.80761L61.5677 2.86307C61.5638 3.58039 61.7272 4.1433 62.0578 4.55181C62.3958 4.95297 62.8828 5.15525 63.5188 5.15867ZM63.4661 0.49941C62.9485 0.496631 62.5298 0.653379 62.2101 0.969656C61.8904 1.28593 61.6884 1.73226 61.6039 2.30863L65.2422 2.32817C65.1715 1.73617 64.9853 1.28406 64.6838 0.971847C64.3823 0.659629 63.9764 0.50215 63.4661 0.49941Z" fill="#E4F0FF"/>
<path d="M73.2667 6.57005C72.5031 6.42907 71.9148 6.1738 71.5017 5.80425C71.0973 5.42878 70.8932 4.96621 70.8894 4.41654L71.8384 4.59176C71.8281 4.97338 71.9532 5.29353 72.2138 5.5522C72.4816 5.81221 72.8737 5.98989 73.3901 6.08522C73.87 6.17383 74.2656 6.14912 74.5769 6.01106C74.8954 5.87435 75.0849 5.64237 75.1453 5.31512C75.1923 5.06059 75.1026 4.83348 74.8763 4.63377C74.6513 4.42678 74.2705 4.22864 73.7339 4.03933C72.8445 3.72471 72.2286 3.41546 71.8861 3.11159C71.5436 2.80771 71.4113 2.44489 71.4892 2.0231C71.5738 1.56495 71.8584 1.24526 72.3431 1.06402C72.8291 0.875513 73.4794 0.856449 74.2939 1.00683C75.0792 1.15184 75.6821 1.40979 76.1024 1.78068C76.5314 2.14564 76.7375 2.5973 76.7208 3.13567L75.7609 2.95843C75.7612 2.59001 75.6305 2.2801 75.3686 2.0287C75.1153 1.77138 74.7595 1.60042 74.3014 1.51583C73.8651 1.43527 73.5055 1.44785 73.2228 1.55357C72.9414 1.65202 72.7766 1.83214 72.7282 2.09394C72.6987 2.25393 72.7182 2.39288 72.7866 2.51081C72.8564 2.62146 73.0003 2.73826 73.2183 2.86122C73.4375 2.97691 73.7725 3.11772 74.2232 3.28364C75.0544 3.58752 75.6416 3.91025 75.9846 4.25183C76.3276 4.5934 76.4575 4.98963 76.3742 5.4405C76.2762 5.97137 75.9574 6.33364 75.4178 6.52729C74.8855 6.72229 74.1684 6.73654 73.2667 6.57005Z" fill="#E4F0FF"/>
<path d="M81.955 8.88805C80.9975 8.55695 80.6964 7.8777 81.0516 6.85032L82.1682 3.62139L81.2457 3.30237L81.5766 2.88862L82.3523 3.15689L83.2195 1.83705L83.9953 2.10532L83.495 3.55204L84.9208 4.04508L84.6109 4.46608L83.3319 4.0238L82.1682 7.38901C81.9555 8.00404 82.0833 8.39252 82.5516 8.55445C82.8102 8.64387 83.0812 8.66328 83.3648 8.61266L83.198 9.0949C82.8586 9.12618 82.4442 9.05723 81.955 8.88805Z" fill="#E4F0FF"/>
<path d="M88.8025 11.8407C88.143 11.4901 87.7112 11.0972 87.5071 10.662C87.3094 10.2303 87.3356 9.77936 87.5856 9.30923C87.8529 8.80645 88.2551 8.53035 88.7923 8.48094C89.3395 8.42846 89.9983 8.60705 90.7688 9.0167L92.1498 9.75094L92.332 9.40813C92.5369 9.02289 92.5788 8.6683 92.4579 8.34438C92.3405 8.01393 92.0663 7.73414 91.6353 7.50502C91.2239 7.28631 90.8421 7.20893 90.4899 7.2729C90.1376 7.33687 89.8414 7.53953 89.6013 7.88089L88.7785 7.44347C89.1146 6.96887 89.5563 6.70534 90.1034 6.65287C90.6541 6.59386 91.2689 6.74488 91.948 7.10593C92.7054 7.50863 93.2035 7.96605 93.4421 8.47818C93.6807 8.9903 93.6507 9.52714 93.3521 10.0887L92.519 11.6558C92.2135 12.2304 91.9812 12.7853 91.8223 13.3206L90.8135 12.7842C90.8944 12.4587 90.9875 12.1733 91.0929 11.9278C90.7373 12.124 90.3647 12.2106 89.9749 12.1876C89.5851 12.1646 89.1943 12.049 88.8025 11.8407ZM89.2713 11.5497C89.7088 11.7823 90.1408 11.8361 90.5674 11.7112C90.994 11.5862 91.3166 11.318 91.5353 10.9067L91.9207 10.1819L90.8433 9.60908C89.7855 9.04668 89.0604 9.1344 88.6682 9.87225C88.4807 10.2248 88.438 10.5414 88.5402 10.8218C88.6489 11.1057 88.8926 11.3484 89.2713 11.5497Z" fill="#E4F0FF"/>
<path d="M97.5002 17.3698C96.9328 16.919 96.6019 16.4201 96.5075 15.873C96.4178 15.3201 96.5753 14.7889 96.9801 14.2793L99.1257 11.5779L100.09 12.3437L97.8822 15.1233C97.5786 15.5055 97.439 15.8715 97.4633 16.2213C97.498 16.57 97.6949 16.8869 98.0539 17.1721C98.4651 17.4986 98.9055 17.6218 99.3753 17.5416C99.8451 17.4615 100.264 17.1897 100.632 16.7265L102.557 14.3031L103.521 15.0689L100.14 19.3251L99.1762 18.5593L99.7557 17.8296C99.4201 17.9786 99.0501 18.0105 98.6456 17.9253C98.2468 17.8447 97.8651 17.6595 97.5002 17.3698Z" fill="#E4F0FF"/>
<path d="M107.584 18.9666L108.41 19.8645L107.561 20.6456C107.956 20.4736 108.334 20.4266 108.698 20.5045C109.066 20.5774 109.401 20.7771 109.701 21.1036C109.826 21.2397 109.901 21.3422 109.924 21.4112L109.268 21.8785C109.237 21.7568 109.154 21.6225 109.018 21.4756C108.668 21.0947 108.242 20.9487 107.741 21.0378C107.24 21.1269 106.759 21.3842 106.296 21.8098L104.41 23.5449L103.584 22.647L107.584 18.9666Z" fill="#E4F0FF"/>
<path d="M109.408 29.9562C108.994 29.3348 108.8 28.7841 108.826 28.3042C108.857 27.8304 109.094 27.4458 109.537 27.1504C110.011 26.8345 110.496 26.7821 110.992 26.9933C111.499 27.2066 111.994 27.6762 112.478 28.4022L113.346 29.7035L113.669 29.4881C114.032 29.2461 114.237 28.9538 114.284 28.6113C114.337 28.2646 114.229 27.8883 113.958 27.4822C113.699 27.0946 113.4 26.8454 113.06 26.7347C112.719 26.624 112.362 26.662 111.989 26.8486L111.472 26.0734C111.993 25.8149 112.507 25.7923 113.013 26.0056C113.526 26.2147 113.996 26.6392 114.422 27.2791C114.898 27.9928 115.12 28.6317 115.087 29.1957C115.054 29.7598 114.773 30.2182 114.244 30.571L112.768 31.5557C112.226 31.9167 111.759 32.2952 111.365 32.6911L110.731 31.7405C110.957 31.4923 111.174 31.2851 111.383 31.1189C110.977 31.1231 110.608 31.0226 110.276 30.8176C109.943 30.6125 109.654 30.3254 109.408 29.9562ZM109.959 29.9223C110.234 30.3345 110.588 30.5868 111.023 30.679C111.458 30.7713 111.869 30.6882 112.257 30.4297L112.94 29.9743L112.263 28.9591C111.598 27.9624 110.918 27.6958 110.223 28.1594C109.891 28.381 109.703 28.6394 109.66 28.9348C109.621 29.2363 109.721 29.5655 109.959 29.9223Z" fill="#E4F0FF"/>
<path d="M118.678 34.7524L119.164 35.8839L118.308 36.2514C118.667 36.2823 119.003 36.4277 119.316 36.6878C119.639 36.9517 119.89 37.2943 120.071 37.7156C120.354 38.3747 120.404 38.969 120.221 39.4983C120.047 40.0315 119.669 40.4236 119.084 40.6744L115.894 42.0442L115.408 40.9127L118.69 39.5036C119.132 39.314 119.42 39.0575 119.555 38.734C119.692 38.4174 119.671 38.0484 119.49 37.6271C119.283 37.1447 118.954 36.8273 118.502 36.6752C118.053 36.5298 117.557 36.5738 117.013 36.8072L114.17 38.0281L113.684 36.8967L118.678 34.7524Z" fill="#E4F0FF"/>
<path d="M117.657 48.3342C117.406 47.3526 117.808 46.7274 118.861 46.4586L122.172 45.614L121.93 44.6682L122.458 44.7167L122.661 45.5121L124.24 45.5099L124.443 46.3053L122.96 46.6837L123.333 48.1455L122.811 48.1184L122.476 46.8071L119.026 47.6873C118.395 47.8482 118.141 48.1687 118.264 48.6488C118.331 48.9139 118.464 49.1509 118.663 49.3598L118.168 49.486C117.955 49.2197 117.785 48.8358 117.657 48.3342Z" fill="#E4F0FF"/>
<path d="M125.447 60.3389C125.442 60.0875 125.509 59.8792 125.646 59.7139C125.791 59.5558 125.978 59.4746 126.207 59.4703C126.437 59.4659 126.623 59.5401 126.766 59.6927C126.917 59.8526 126.995 60.0582 127 60.3096C127.005 60.561 126.934 60.7657 126.789 60.9238C126.652 61.0891 126.469 61.1739 126.24 61.1782C126.01 61.1826 125.82 61.1048 125.669 60.9449C125.526 60.7923 125.452 60.5903 125.447 60.3389ZM124.803 59.7409L124.826 60.9609L119.392 61.0635L119.369 59.8436L124.803 59.7409Z" fill="#E4F0FF"/>
<path d="M124.682 66.9407L124.52 68.1614L123.596 68.0392C123.889 68.2495 124.104 68.5464 124.239 68.9299C124.382 69.3217 124.423 69.7448 124.363 70.1994C124.268 70.9105 124.007 71.4466 123.579 71.8077C123.157 72.1771 122.631 72.3202 122.001 72.2368L118.559 71.7817L118.72 70.561L122.261 71.0292C122.738 71.0922 123.117 71.0193 123.398 70.8103C123.678 70.6086 123.848 70.2805 123.908 69.826C123.977 69.3055 123.857 68.8643 123.546 68.5026C123.235 68.1481 122.786 67.9321 122.2 67.8546L119.132 67.4489L119.293 66.2282L124.682 66.9407Z" fill="#E4F0FF"/>
<path d="M114.796 83.7473C115.186 82.8121 115.882 82.5534 116.886 82.9713L120.04 84.2847L120.415 83.3836L120.807 83.7393L120.492 84.4971L121.756 85.444L121.44 86.2018L120.027 85.6133L119.447 87.006L119.046 86.6707L119.566 85.4214L116.279 84.0525C115.678 83.8024 115.283 83.906 115.092 84.3634C114.987 84.6159 114.951 84.8853 114.984 85.1714L114.513 84.9753C114.503 84.6345 114.597 84.2252 114.796 83.7473Z" fill="#E4F0FF"/>
<path d="M110.973 91.141C111.316 90.5882 111.714 90.1649 112.166 89.8712C112.621 89.5877 113.097 89.444 113.596 89.4402C114.097 89.4466 114.589 89.6 115.073 89.9004C115.556 90.2008 115.909 90.5721 116.131 91.0143C116.355 91.4668 116.437 91.9576 116.378 92.4869C116.322 93.0264 116.122 93.5725 115.779 94.1254C115.435 94.6782 115.035 95.0996 114.576 95.3894C114.124 95.6831 113.645 95.8299 113.14 95.8298C112.642 95.8336 112.151 95.6853 111.667 95.3849C111.183 95.0845 110.829 94.7081 110.605 94.2557C110.388 93.8071 110.307 93.3131 110.364 92.7737C110.426 92.2381 110.629 91.6939 110.973 91.141ZM111.397 91.4044C111.073 91.9258 110.993 92.4465 111.158 92.9665C111.319 93.4928 111.707 93.9472 112.322 94.3295C112.938 94.7118 113.517 94.8582 114.06 94.7689C114.599 94.6858 115.031 94.3835 115.355 93.8621C115.678 93.3406 115.758 92.8199 115.594 92.2999C115.429 91.7799 115.039 91.3287 114.423 90.9464C113.807 90.5641 113.23 90.4145 112.691 90.4976C112.152 90.5807 111.721 90.8829 111.397 91.4044Z" fill="#E4F0FF"/>
<path d="M110.98 100.984L110.097 101.904L106.215 100.422L108.002 104.246L107.541 104.726L103.476 103.114L105.157 107.049L104.642 107.585L102.262 102.055L102.716 101.583L106.693 103.127L104.898 99.3111L105.336 98.855L110.98 100.984Z" fill="#E4F0FF"/>
<path d="M100.484 110.924L99.4685 111.621L98.9411 110.852C98.9809 111.211 98.9037 111.569 98.7096 111.926C98.5136 112.294 98.2266 112.608 97.8486 112.867C97.2572 113.273 96.6841 113.438 96.1292 113.361C95.5725 113.295 95.1141 113 94.7542 112.476L92.7891 109.613L93.8041 108.916L95.8257 111.861C96.0978 112.257 96.4056 112.49 96.7491 112.559C97.0865 112.633 97.4442 112.539 97.8222 112.28C98.255 111.983 98.5021 111.598 98.5633 111.125C98.6185 110.657 98.4786 110.179 98.1438 109.691L96.3922 107.14L97.4073 106.443L100.484 110.924Z" fill="#E4F0FF"/>
<path d="M41.0312 116.781C51.6038 124.15 75.1002 126.41 89.9017 115.664" stroke="#E4F0FF" stroke-width="0.5"/>
<circle cx="63.1253" cy="62.7777" r="47.5316" fill="#DE3F39"/>
<path d="M73.3828 76.0732C70.6042 76.5363 64.8088 78.8518 63.8562 84.4091C63.2608 81.9392 60.5219 76.8142 54.3295 76.0732" stroke="#E4F0FF" stroke-width="1.5"/>
<path d="M63.9609 83.062L63.9609 46.7158" stroke="#E4F0FF" stroke-width="1.5"/>
<circle cx="63.2302" cy="48.1973" r="8.89701" transform="rotate(135 63.2302 48.1973)" fill="#E4F0FF" fill-opacity="0.2"/>
</svg>
