<svg width="352" height="171" viewBox="0 0 352 171" fill="none" xmlns="http://www.w3.org/2000/svg">
<path d="M15.4105 169.674L15.1187 164.841C15.0667 163.981 14.9006 163.261 14.6203 162.683C14.3256 162.104 13.966 161.645 13.5414 161.305C13.1167 160.965 12.6479 160.73 12.135 160.6C11.6069 160.458 11.0838 160.4 10.5657 160.425C9.74548 160.464 9.10041 160.656 8.63053 161C8.15986 161.332 7.80819 161.722 7.57553 162.171C7.34286 162.62 7.1973 163.078 7.13887 163.544C7.08043 164.01 7.05254 164.385 7.05521 164.668L6.96887 164.672C6.94174 164.223 6.82262 163.804 6.61152 163.415C6.38603 163.027 6.11327 162.692 5.79325 162.411C5.45806 162.119 5.08358 161.892 4.6698 161.732C4.24163 161.572 3.7973 161.503 3.33682 161.525C2.93389 161.545 2.52842 161.641 2.12041 161.815C1.71239 161.99 1.34539 162.245 1.01941 162.583C0.692645 162.908 0.436453 163.325 0.25083 163.837C0.0500418 164.335 -0.030199 164.919 0.0101079 165.586L0.300783 170.4L15.4105 169.674ZM14.3549 167.968L7.74983 168.285L7.62194 166.167C7.58396 165.538 7.64455 164.988 7.80372 164.516C7.96288 164.045 8.19185 163.654 8.4906 163.344C8.78858 163.021 9.14197 162.778 9.55076 162.617C9.95877 162.443 10.393 162.345 10.8535 162.323C11.3572 162.299 11.8083 162.361 12.2069 162.509C12.6048 162.644 12.9485 162.84 13.2382 163.097C13.5279 163.353 13.7559 163.664 13.9223 164.029C14.0735 164.383 14.1615 164.765 14.1863 165.175L14.3549 167.968ZM6.80008 168.331L1.14473 168.602L1.00288 166.253C0.972652 165.752 1.02622 165.325 1.16358 164.971C1.30017 164.604 1.49139 164.305 1.73723 164.074C1.9823 163.831 2.26723 163.65 2.592 163.531C2.91677 163.412 3.24465 163.345 3.57562 163.329C3.99294 163.309 4.38613 163.367 4.75518 163.504C5.12346 163.628 5.44526 163.819 5.72056 164.076C5.99508 164.32 6.21476 164.612 6.37959 164.952C6.54365 165.279 6.6373 165.635 6.66056 166.02L6.80008 168.331Z" fill="#E4F0FF" fill-opacity="0.3"/>
<path d="M10.6517 143.52L10.1987 143.494C9.23521 143.438 8.39221 143.511 7.66971 143.714C6.9472 143.916 6.34035 144.216 5.84914 144.612C5.35888 144.996 4.97849 145.457 4.70796 145.995C4.43744 146.533 4.27961 147.11 4.23447 147.726C4.18651 148.38 4.27173 148.991 4.49014 149.558C4.69417 150.124 5.0256 150.626 5.48444 151.065C5.9289 151.503 6.48779 151.858 7.16112 152.129C7.82007 152.4 8.58096 152.56 9.44378 152.61C10.1628 152.652 10.8745 152.597 11.5788 152.445C12.2698 152.279 12.903 152.013 13.4786 151.648C14.0408 151.268 14.5098 150.78 14.8857 150.184C15.2482 149.573 15.4604 148.845 15.5225 147.998C15.5827 147.177 15.48 146.411 15.2144 145.7C14.9344 144.988 14.5113 144.358 13.9449 143.809L13.2095 144.385C13.4486 144.669 13.6671 144.94 13.8649 145.196C14.0637 145.439 14.226 145.687 14.352 145.939C14.4779 146.192 14.5742 146.455 14.6407 146.729C14.6938 146.99 14.7086 147.281 14.6851 147.602C14.6587 147.961 14.573 148.342 14.4279 148.746C14.2693 149.136 14.0191 149.495 13.6774 149.823C13.3356 150.151 12.8758 150.414 12.2981 150.612C11.7203 150.811 10.9928 150.884 10.1156 150.833L10.6517 143.52ZM9.25282 150.783C8.6776 150.749 8.12772 150.665 7.60317 150.532C7.06518 150.384 6.59567 150.189 6.19462 149.947C5.79452 149.692 5.48493 149.384 5.26586 149.023C5.0324 148.662 4.93307 148.244 4.96787 147.769C5.03464 146.858 5.48901 146.176 6.33098 145.723C7.15952 145.256 8.27123 145.063 9.66613 145.144L9.25282 150.783Z" fill="#E4F0FF" fill-opacity="0.3"/>
<path d="M9.59337 128.898C9.20996 128.839 8.83776 128.873 8.47679 129C8.11581 129.127 7.79103 129.331 7.50245 129.613C7.20212 129.88 6.94755 130.212 6.73874 130.611C6.51817 130.994 6.36248 131.42 6.27165 131.889C6.18573 132.332 6.16862 132.76 6.22032 133.173C6.27447 133.573 6.40112 133.938 6.60027 134.269C6.80187 134.587 7.07842 134.858 7.42992 135.082C7.76721 135.303 8.18437 135.452 8.68139 135.529C9.36301 135.634 9.92963 135.578 10.3812 135.361C10.8329 135.143 11.2199 134.844 11.5423 134.463C11.8647 134.082 12.1507 133.663 12.4002 133.206C12.6379 132.734 12.8896 132.303 13.1552 131.913C13.4066 131.522 13.6942 131.207 14.0181 130.97C14.3419 130.733 14.7381 130.651 15.2067 130.723C15.4055 130.754 15.6053 130.817 15.806 130.913C16.0092 130.997 16.1884 131.129 16.3435 131.309C16.4845 131.488 16.5931 131.72 16.6693 132.005C16.7314 132.289 16.7231 132.633 16.6446 133.039C16.5464 133.545 16.3777 133.963 16.1385 134.291C15.8877 134.605 15.6194 134.857 15.3338 135.048C15.0365 135.224 14.7502 135.343 14.4749 135.405C14.2021 135.454 13.9805 135.466 13.8101 135.439L13.5708 136.674C13.9684 136.736 14.3749 136.714 14.7902 136.608C15.1913 136.5 15.5729 136.305 15.9349 136.021C16.2994 135.725 16.6206 135.351 16.8985 134.898C17.1647 134.43 17.3603 133.873 17.4855 133.227C17.7114 132.062 17.5968 131.144 17.1417 130.473C16.6748 129.788 15.9728 129.373 15.0356 129.229C14.354 129.124 13.779 129.185 13.3107 129.413C12.8449 129.628 12.4496 129.932 12.1247 130.326C11.7856 130.717 11.4889 131.154 11.2345 131.637C10.9825 132.107 10.7296 132.544 10.4757 132.948C10.2219 133.353 9.946 133.682 9.64813 133.936C9.35272 134.178 8.98491 134.265 8.54469 134.197C8.36009 134.168 8.17452 134.107 7.98799 134.013C7.78725 133.917 7.61642 133.78 7.47547 133.601C7.32032 133.421 7.2105 133.195 7.14599 132.924C7.06729 132.651 7.06476 132.325 7.1384 131.944C7.21205 131.564 7.33978 131.245 7.52159 130.986C7.6892 130.725 7.88372 130.513 8.10515 130.352C8.31238 130.188 8.53109 130.078 8.76128 130.022C8.99147 129.967 9.19887 129.953 9.38348 129.981L9.59337 128.898Z" fill="#E4F0FF" fill-opacity="0.3"/>
<path d="M9.93193 120.839L9.09718 120.637L9.58761 119.018L6.37384 118.243L6.853 116.661L10.0668 117.435L10.7489 115.183L11.5836 115.384L10.9015 117.636L17.8299 119.306C17.9969 119.346 18.1935 119.387 18.4199 119.428C18.6323 119.466 18.8453 119.477 19.0589 119.462C19.2585 119.444 19.4397 119.388 19.6025 119.294C19.7691 119.187 19.8881 119.016 19.9595 118.78C20.0497 118.483 19.9996 118.204 19.8093 117.945C19.619 117.686 19.3966 117.46 19.142 117.265L20.4087 116.631C20.9062 117.404 21.0385 118.175 20.8055 118.944C20.7078 119.267 20.5493 119.569 20.3302 119.849C20.111 120.129 19.8386 120.363 19.5131 120.551C19.1773 120.723 18.7852 120.835 18.3366 120.886C17.8881 120.938 17.3925 120.899 16.8499 120.768L10.4224 119.219L9.93193 120.839Z" fill="#E4F0FF" fill-opacity="0.3"/>
<path d="M31.1754 94.5361L18.6154 89.1356L21.1307 84.4799L20.0597 84.0194L14.175 94.9117L15.246 95.3722L17.7613 90.7165L30.3213 96.1169L31.1754 94.5361Z" fill="#E4F0FF" fill-opacity="0.3"/>
<path d="M30.5102 75.386C31.0734 74.5933 31.6371 74.052 32.2013 73.7622C32.7534 73.4655 33.2997 73.333 33.8402 73.3646C34.3885 73.3855 34.9359 73.5276 35.4824 73.7909C36.029 74.0543 36.5761 74.3409 37.1238 74.6506L42.1083 77.4691L41.1709 78.7884L40.2762 78.2825C40.3933 78.7901 40.3817 79.3468 40.2415 79.9524C40.0891 80.5512 39.8393 81.0949 39.4921 81.5836C39.1603 82.0505 38.7759 82.4115 38.3387 82.6666C37.9015 82.9217 37.452 83.0861 36.9902 83.1598C36.5283 83.2335 36.0724 83.2269 35.6223 83.1398C35.1723 83.0528 34.7586 82.9026 34.3813 82.6892C33.9918 82.469 33.6486 82.1836 33.3517 81.833C33.0547 81.4825 32.8467 81.0909 32.7276 80.6582C32.5963 80.2186 32.5682 79.7537 32.6435 79.2636C32.7188 78.7734 32.93 78.284 33.2772 77.7953C33.6244 77.3067 34.0618 76.9071 34.5895 76.5967C35.1127 76.2685 35.6694 76.0733 36.2595 76.0112L35.4744 75.5673C34.4763 75.0029 33.6374 74.7188 32.9576 74.715C32.2856 74.7003 31.6988 75.0458 31.1973 75.7517C30.9813 76.0557 30.8349 76.3458 30.7581 76.622C30.6813 76.8983 30.6564 77.1734 30.6835 77.4475C30.7061 77.7038 30.7791 77.9734 30.9023 78.2562C31.0134 78.5321 31.1549 78.8252 31.3269 79.1355L29.7757 79.4457C29.7011 79.1904 29.6304 78.9297 29.5635 78.6636C29.5044 78.3866 29.4867 78.0874 29.5103 77.7659C29.5417 77.4335 29.6344 77.075 29.7883 76.6902C29.9301 76.2985 30.1708 75.8637 30.5102 75.386ZM37.5558 76.7442C37.3712 76.7159 37.1429 76.701 36.871 76.6995C36.6068 76.6871 36.3256 76.7107 36.0273 76.7704C35.729 76.83 35.4379 76.9394 35.1542 77.0986C34.8583 77.251 34.5985 77.4846 34.3747 77.7995C34.151 78.1144 34.0196 78.4434 33.9805 78.7866C33.9292 79.123 33.9536 79.4488 34.0538 79.7642C34.1494 80.0618 34.3147 80.3455 34.5495 80.6153C34.7844 80.8851 35.0662 81.1129 35.3948 81.2988C35.7843 81.519 36.1675 81.652 36.5445 81.6977C36.9171 81.7257 37.2762 81.7005 37.622 81.6221C37.9557 81.5367 38.256 81.4021 38.5231 81.2183C38.7902 81.0345 39.0009 80.834 39.1552 80.6168C39.3018 80.4105 39.4058 80.1801 39.4672 79.9256C39.5363 79.6602 39.5634 79.3939 39.5485 79.1267C39.5291 78.8418 39.47 78.5648 39.3711 78.2958C39.2721 78.0268 39.1357 77.7746 38.9617 77.5392L37.5558 76.7442Z" fill="#E4F0FF" fill-opacity="0.3"/>
<path d="M44.964 61.5798C44.6585 61.365 44.3131 61.2367 43.9279 61.195C43.5426 61.1533 43.148 61.195 42.7439 61.3201C42.3374 61.4271 41.936 61.6114 41.5397 61.873C41.1411 62.1165 40.7767 62.4251 40.4467 62.7987C40.1344 63.1521 39.891 63.5211 39.7163 63.9057C39.5505 64.2803 39.4669 64.6553 39.4655 65.0308C39.473 65.3961 39.5715 65.7519 39.7611 66.098C39.9394 66.4362 40.2266 66.7446 40.6228 67.0231C41.166 67.4051 41.6942 67.5965 42.2074 67.5972C42.7206 67.5979 43.2205 67.4993 43.7073 67.3014C44.1941 67.1035 44.6693 66.8564 45.1328 66.5603C45.5938 66.2461 46.0452 65.9741 46.4867 65.7444C46.9169 65.5067 47.3376 65.3524 47.7489 65.2814C48.1602 65.2105 48.5526 65.3064 48.9261 65.569C49.0846 65.6804 49.2264 65.821 49.3516 65.9909C49.4856 66.1507 49.5727 66.3429 49.6128 66.5675C49.6416 66.7842 49.6132 67.0343 49.5277 67.318C49.431 67.5937 49.2398 67.8931 48.9544 68.2162C48.5975 68.6201 48.2263 68.9156 47.8407 69.1028C47.4527 69.272 47.0822 69.3798 46.7292 69.4263C46.3739 69.4547 46.0586 69.4376 45.7835 69.3751C45.5174 69.3026 45.3164 69.2185 45.1806 69.123L44.3108 70.1075C44.6277 70.3303 44.9969 70.4835 45.4185 70.5672C45.8287 70.6428 46.2687 70.633 46.7383 70.5376C47.2168 70.4321 47.6991 70.2392 48.1853 69.959C48.669 69.6607 49.1383 69.2541 49.5933 68.7391C50.414 67.8102 50.8032 66.9544 50.7608 66.1716C50.7161 65.3707 50.3202 64.7076 49.5732 64.1824C49.0299 63.8004 48.4916 63.6101 47.9582 63.6115C47.4337 63.6029 46.9236 63.7026 46.4279 63.9106C45.9209 64.1106 45.4267 64.3688 44.9454 64.6851C44.4729 64.9914 44.0172 65.2684 43.5781 65.5162C43.1389 65.764 42.7206 65.9364 42.323 66.0333C41.9343 66.1201 41.5646 66.0402 41.2137 65.7935C41.0666 65.69 40.9361 65.5574 40.8222 65.3955C40.6971 65.2256 40.6201 65.0323 40.5913 64.8157C40.5513 64.591 40.5751 64.3459 40.663 64.0803C40.7396 63.8068 40.9117 63.5185 41.1793 63.2156C41.4469 62.9127 41.7298 62.686 42.0279 62.5355C42.3147 62.377 42.5986 62.2738 42.8795 62.2258C43.1492 62.1698 43.4001 62.1662 43.6323 62.2149C43.8645 62.2636 44.0542 62.3397 44.2013 62.4431L44.964 61.5798Z" fill="#E4F0FF" fill-opacity="0.3"/>
<path d="M49.5642 54.6365L48.9376 54.105L50.2334 52.889L47.8208 50.8428L49.0868 49.6548L51.4994 51.7011L53.3016 50.01L53.9283 50.5415L52.1261 52.2326L57.3273 56.644C57.4526 56.7503 57.6038 56.8697 57.7808 57.0021C57.9474 57.1257 58.1287 57.2262 58.3245 57.3036C58.51 57.3722 58.6993 57.3997 58.8926 57.3863C59.0958 57.3635 59.2918 57.2636 59.4804 57.0866C59.7187 56.863 59.8233 56.5969 59.7942 56.2884C59.7651 55.9798 59.6905 55.686 59.5705 55.4068L61.0225 55.3877C61.0477 56.2783 60.7525 57.0124 60.1369 57.5901C59.8787 57.8324 59.5785 58.0301 59.2363 58.1833C58.894 58.3365 58.5296 58.4266 58.143 58.4535C57.7559 58.4622 57.3514 58.394 56.9293 58.2489C56.5073 58.1039 56.0926 57.8586 55.6853 57.5131L50.8601 53.4205L49.5642 54.6365Z" fill="#E4F0FF" fill-opacity="0.3"/>
<path d="M71.3402 42.3767L71.0438 42.07C70.4134 41.4175 69.764 40.9324 69.0956 40.6148C68.4271 40.2971 67.7623 40.1209 67.101 40.0863C66.4506 40.0433 65.8154 40.1243 65.1955 40.3294C64.5756 40.5345 64.0037 40.8386 63.4797 41.2415C62.923 41.6695 62.4946 42.1517 62.1946 42.6879C61.8852 43.2144 61.7158 43.7775 61.6864 44.3772C61.6476 44.9671 61.7557 45.5713 62.0109 46.1899C62.2566 46.7986 62.6617 47.3952 63.2262 47.9795C63.6967 48.4664 64.2396 48.8806 64.8549 49.2221C65.4718 49.5455 66.1282 49.7621 66.8241 49.872C67.5215 49.9637 68.2404 49.9201 68.9808 49.7411C69.7227 49.5441 70.4538 49.1686 71.1742 48.6146C71.8729 48.0774 72.4134 47.475 72.7958 46.8075C73.1689 46.1303 73.3762 45.4193 73.4176 44.6746L72.442 44.61C72.3822 44.9616 72.3191 45.2901 72.2528 45.5957C72.1975 45.8929 72.1131 46.1699 71.9998 46.4267C71.8865 46.6836 71.7435 46.9294 71.5707 47.1641C71.3994 47.3806 71.1773 47.5938 70.9044 47.8037C70.5988 48.0387 70.2337 48.2516 69.8091 48.4422C69.3861 48.6148 68.9237 48.7073 68.4219 48.7197C67.9202 48.7321 67.3877 48.6239 66.8242 48.3952C66.2608 48.1665 65.6921 47.7552 65.1182 47.1611L71.3402 42.3767ZM64.5537 46.5768C64.1773 46.1873 63.8587 45.7788 63.5979 45.3514C63.3386 44.9058 63.1654 44.4704 63.0781 44.0453C63.0017 43.6118 63.0309 43.199 63.1657 42.8068C63.291 42.4049 63.5557 42.0487 63.9596 41.7381C64.7346 41.1421 65.5984 40.9532 66.551 41.1711C67.5051 41.371 68.4385 41.9432 69.3511 42.8878L64.5537 46.5768Z" fill="#E4F0FF" fill-opacity="0.3"/>
<path d="M98.4985 25.887C98.8683 26.4685 99.1112 27.0846 99.227 27.7356C99.3356 28.3753 99.305 29.0043 99.1349 29.6226C98.9773 30.2345 98.6724 30.8101 98.2202 31.3495C97.7805 31.8826 97.1909 32.3363 96.4514 32.7106C95.6994 33.0914 94.9416 33.3198 94.1781 33.3959C93.42 33.4545 92.6999 33.3904 92.0177 33.2036C91.348 33.0104 90.727 32.7114 90.1545 32.3064C89.5875 31.8839 89.1227 31.3876 88.7599 30.8173C88.3901 30.2359 88.1508 29.6253 88.0421 28.9856C87.9388 28.3283 87.966 27.6937 88.1235 27.0818C88.2936 26.4635 88.6048 25.8847 89.057 25.3453C89.5147 24.7884 90.1195 24.3196 90.8715 23.9389C91.611 23.5645 92.3535 23.3512 93.0991 23.2989C93.8501 23.2292 94.5604 23.2909 95.23 23.484C95.9122 23.6708 96.5368 23.9754 97.1039 24.3979C97.6637 24.8092 98.1286 25.3056 98.4985 25.887ZM96.7125 26.7912C96.2146 26.0085 95.7187 25.4244 95.2249 25.0388C94.7239 24.642 94.2377 24.3855 93.7662 24.2695C93.2947 24.1534 92.8487 24.1426 92.4283 24.2372C92.0008 24.3206 91.6179 24.4479 91.2795 24.6193C90.9411 24.7906 90.6222 25.0186 90.3227 25.3032C90.0161 25.5767 89.7915 25.9269 89.6489 26.3539C89.5188 26.7745 89.5099 27.2816 89.6224 27.8751C89.7402 28.4511 90.0481 29.1304 90.546 29.9131C91.0367 30.6846 91.5326 31.2688 92.0335 31.6656C92.5399 32.0448 93.0289 32.2925 93.5004 32.4086C93.9844 32.5183 94.4402 32.5315 94.8677 32.4481C95.288 32.3535 95.6674 32.2206 96.0058 32.0493C96.3442 31.8779 96.6667 31.6556 96.9733 31.3821C97.2728 31.0974 97.4875 30.7448 97.6176 30.3242C97.7477 29.9035 97.7539 29.4052 97.636 28.8292C97.5111 28.2421 97.2032 27.5627 96.7125 26.7912Z" fill="#E4F0FF" fill-opacity="0.3"/>
<path d="M103.658 18.2513L104.005 18.9576L105.727 18.2833L109.724 26.4062L111.406 25.7474L107.41 17.6246L109.805 16.6867L109.458 15.9804L107.062 16.9182L106.333 15.4349C106.263 15.2936 106.189 15.1262 106.109 14.9327C106.024 14.7274 105.974 14.5295 105.959 14.3388C105.938 14.1364 105.964 13.9505 106.038 13.7811C106.126 13.6065 106.295 13.4702 106.545 13.372C106.862 13.248 107.177 13.2649 107.491 13.4229C107.818 13.5757 108.108 13.7498 108.362 13.9454L108.824 12.7744C108.369 12.6159 107.935 12.5331 107.522 12.5262C107.123 12.5141 106.712 12.5907 106.289 12.7561C105.946 12.8904 105.636 13.0752 105.358 13.3103C105.08 13.5454 104.865 13.8265 104.711 14.1535C104.564 14.4636 104.496 14.8203 104.505 15.2237C104.515 15.6271 104.633 16.0584 104.859 16.5175L105.38 17.577L103.658 18.2513Z" fill="#E4F0FF" fill-opacity="0.3"/>
<path d="M139.098 16.6906C138.593 16.7998 138.085 16.8373 137.571 16.803C137.071 16.7657 136.599 16.6366 136.153 16.4157C135.704 16.1822 135.299 15.8399 134.939 15.3887C134.59 14.922 134.315 14.3201 134.114 13.583C133.907 12.8209 133.851 12.1517 133.946 11.5754C134.038 10.9866 134.216 10.4981 134.481 10.11C134.757 9.70626 135.093 9.38867 135.49 9.15719C135.883 8.91323 136.276 8.74877 136.668 8.66382C137.312 8.52426 137.913 8.55282 138.471 8.7495C139.029 8.94619 139.444 9.24648 139.717 9.65037L141.166 9.33636C140.904 8.91694 140.58 8.59693 140.193 8.37633C139.804 8.14324 139.382 7.98324 138.928 7.89631C138.485 7.79386 138.024 7.76147 137.545 7.79912C137.076 7.82124 136.632 7.87782 136.212 7.96883C135.33 8.15997 134.588 8.45953 133.987 8.86751C133.383 9.26301 132.909 9.72944 132.566 10.2668C132.223 10.8042 132.013 11.3923 131.934 12.031C131.87 12.6668 131.928 13.3157 132.108 13.9778C132.299 14.6775 132.603 15.306 133.022 15.8636C133.437 16.4087 133.937 16.856 134.522 17.2057C135.117 17.5398 135.779 17.7667 136.509 17.8865C137.235 17.9937 138.011 17.9579 138.838 17.7789C139.762 17.5786 140.53 17.2668 141.141 16.8432C141.767 16.4167 142.273 15.9894 142.661 15.5615L141.858 14.9813C141.466 15.4498 141.049 15.8246 140.607 16.1057C140.175 16.3713 139.672 16.5662 139.098 16.6906Z" fill="#E4F0FF" fill-opacity="0.3"/>
<path d="M149.323 5.81164L150.227 12.027C150.261 12.2565 150.329 12.5727 150.431 12.9758C150.546 13.3644 150.753 13.7422 151.054 14.1093C151.352 14.4637 151.78 14.7577 152.337 14.9914C152.907 15.2107 153.663 15.2657 154.606 15.1565C155.023 15.1213 155.462 14.9927 155.923 14.7707C156.401 14.5598 156.858 14.2023 157.293 13.6981L157.592 13.3524L157.678 13.3425L157.853 14.5473L159.675 14.3364L158.284 4.77433L156.462 4.98527L157.324 10.9138C157.397 11.411 157.38 11.8472 157.275 12.2224C157.17 12.5976 157.006 12.9212 156.784 13.1932C156.56 13.4524 156.285 13.6593 155.959 13.8138C155.632 13.9682 155.283 14.0669 154.912 14.11C154.312 14.1794 153.825 14.132 153.452 13.9678C153.092 13.7891 152.806 13.5694 152.594 13.3088C152.396 13.0465 152.263 12.7831 152.195 12.5187C152.126 12.2415 152.082 12.0392 152.064 11.9117L151.146 5.60071L149.323 5.81164Z" fill="#E4F0FF" fill-opacity="0.3"/>
<path d="M169.13 4.1135L169.487 13.7505L171.324 13.6962L170.966 4.05927L169.13 4.1135ZM168.758 1.07587C168.768 1.35856 168.892 1.59929 169.131 1.79808C169.369 1.99686 169.646 2.09157 169.963 2.08222C170.28 2.07286 170.55 1.96198 170.772 1.74959C170.995 1.5372 171.101 1.28966 171.091 1.00697C171.08 0.724289 170.956 0.483555 170.718 0.284771C170.48 0.0859874 170.203 -0.00872587 169.886 0.000630945C169.569 0.00998776 169.299 0.120863 169.076 0.333256C168.853 0.54565 168.747 0.793189 168.758 1.07587Z" fill="#E4F0FF" fill-opacity="0.3"/>
<path d="M188.936 6.58859C188.957 6.24201 188.877 5.91605 188.694 5.61071C188.511 5.30536 188.247 5.04096 187.9 4.81752C187.568 4.58196 187.169 4.39449 186.701 4.25512C186.249 4.10363 185.757 4.01451 185.224 3.98777C184.721 3.96247 184.242 3.99638 183.789 4.0895C183.35 4.18334 182.958 4.33747 182.612 4.5519C182.281 4.76705 182.011 5.04321 181.802 5.38038C181.594 5.70472 181.476 6.09152 181.447 6.54078C181.408 7.15691 181.536 7.65263 181.83 8.02794C182.124 8.40325 182.501 8.71193 182.962 8.954C183.423 9.19606 183.923 9.40142 184.46 9.57008C185.014 9.72663 185.522 9.90027 185.986 10.091C186.452 10.2689 186.835 10.4877 187.136 10.7475C187.437 11.0073 187.574 11.349 187.547 11.7725C187.536 11.9523 187.488 12.1366 187.404 12.3255C187.335 12.5151 187.208 12.6891 187.025 12.8473C186.843 12.9926 186.597 13.1155 186.287 13.2158C185.979 13.3033 185.594 13.3355 185.134 13.3124C184.558 13.2835 184.074 13.1819 183.681 13.0076C183.303 12.8212 182.991 12.6124 182.746 12.3812C182.516 12.1379 182.351 11.8978 182.25 11.661C182.164 11.4249 182.126 11.2298 182.135 11.0758L180.733 11.0053C180.71 11.3647 180.781 11.7224 180.946 12.0783C181.112 12.4215 181.374 12.7372 181.731 13.0256C182.102 13.3146 182.556 13.5563 183.092 13.7507C183.644 13.9329 184.286 14.0424 185.02 14.0793C186.344 14.1458 187.353 13.9389 188.047 13.4587C188.757 12.9664 189.138 12.2967 189.192 11.4495C189.231 10.8334 189.096 10.3309 188.789 9.94203C188.496 9.55389 188.112 9.23842 187.636 8.99564C187.162 8.74001 186.641 8.52715 186.074 8.35704C185.522 8.18766 185.006 8.01366 184.527 7.83506C184.047 7.65645 183.649 7.44973 183.332 7.21489C183.029 6.98078 182.89 6.66477 182.915 6.26685C182.926 6.09998 182.973 5.9285 183.056 5.75241C183.14 5.56349 183.273 5.39634 183.456 5.25099C183.639 5.09279 183.878 4.96958 184.172 4.88134C184.467 4.78028 184.83 4.74058 185.262 4.76227C185.694 4.78395 186.064 4.8605 186.373 4.99193C186.683 5.11052 186.941 5.25867 187.146 5.43638C187.352 5.60125 187.5 5.78249 187.588 5.98009C187.677 6.17769 187.716 6.35992 187.705 6.52679L188.936 6.58859Z" fill="#E4F0FF" fill-opacity="0.3"/>
<path d="M199.801 5.4371L198.233 14.9773L200.051 15.2151L201.619 5.6749L199.801 5.4371ZM200.039 2.38881C199.993 2.66866 200.068 2.92526 200.262 3.15863C200.457 3.392 200.711 3.5292 201.025 3.57023C201.339 3.61126 201.626 3.54494 201.888 3.37125C202.15 3.19757 202.303 2.9708 202.349 2.69095C202.395 2.41111 202.321 2.1545 202.126 1.92113C201.932 1.68777 201.677 1.55057 201.364 1.50954C201.05 1.4685 200.762 1.53483 200.501 1.70851C200.239 1.8822 200.085 2.10896 200.039 2.38881Z" fill="#E4F0FF" fill-opacity="0.3"/>
<path d="M218.916 18.7215L220.591 12.6547C220.654 12.43 220.717 12.1195 220.782 11.7233C220.85 11.3147 220.817 10.8969 220.683 10.4702C220.566 10.034 220.293 9.62322 219.865 9.23788C219.441 8.84006 218.767 8.53967 217.843 8.33671C217.441 8.23504 216.966 8.21 216.417 8.26157C215.872 8.30066 215.294 8.48484 214.684 8.81412L214.265 9.03991L214.181 9.02146L214.512 7.82308L212.728 7.43099L210.143 16.7933L211.927 17.1854L213.525 11.3995C213.659 10.9126 213.851 10.5114 214.102 10.1957C214.352 9.87998 214.643 9.63275 214.975 9.454C215.306 9.27525 215.655 9.16661 216.022 9.12806C216.403 9.0926 216.775 9.11484 217.139 9.1948C217.727 9.32396 218.152 9.53001 218.415 9.81295C218.682 10.0834 218.847 10.3713 218.911 10.6767C218.989 10.9852 219.005 11.2798 218.957 11.5606C218.909 11.8413 218.868 12.0441 218.833 12.169L217.132 18.3294L218.916 18.7215Z" fill="#E4F0FF" fill-opacity="0.3"/>
<path d="M238.346 19.9281L238.504 19.5482C238.839 18.7403 239 17.9985 238.988 17.323C238.976 16.6474 238.827 16.0431 238.541 15.5101C238.268 14.9816 237.881 14.5251 237.38 14.1405C236.878 13.7559 236.303 13.4566 235.654 13.2426C234.965 13.0153 234.285 12.9144 233.614 12.9398C232.947 12.9531 232.313 13.0935 231.711 13.3609C231.113 13.6162 230.573 13.9931 230.09 14.4917C229.612 14.9783 229.223 15.5833 228.923 16.3069C228.673 16.9098 228.53 17.5341 228.493 18.1798C228.474 18.8179 228.579 19.4352 228.809 20.0316C229.056 20.6204 229.447 21.1604 229.981 21.6517C230.533 22.1354 231.256 22.5244 232.148 22.8185C233.013 23.1038 233.865 23.2341 234.705 23.2095C235.55 23.1728 236.348 22.9904 237.098 22.6622L236.689 21.8694C236.316 21.9929 235.963 22.1027 235.631 22.1989C235.313 22.2996 235 22.3679 234.693 22.4038C234.387 22.4397 234.076 22.447 233.763 22.4258C233.467 22.3969 233.151 22.3268 232.813 22.2153C232.434 22.0905 232.049 21.9086 231.656 21.6695C231.282 21.4228 230.967 21.1066 230.712 20.721C230.457 20.3353 230.306 19.8672 230.257 19.3167C230.209 18.7662 230.337 18.1231 230.642 17.3875L238.346 19.9281ZM230.941 16.664C231.141 16.1816 231.388 15.7352 231.681 15.3247C231.992 14.9065 232.335 14.5605 232.71 14.2866C233.098 14.0171 233.517 13.84 233.967 13.7554C234.422 13.6586 234.899 13.6927 235.4 13.8576C236.359 14.1741 236.963 14.7569 237.21 15.606C237.476 16.4476 237.367 17.4532 236.882 18.6229L230.941 16.664Z" fill="#E4F0FF" fill-opacity="0.3"/>
<path d="M263.432 29.5492L262.608 30.7951L258.009 28.376L258.832 27.1301L263.432 29.5492Z" fill="#E4F0FF" fill-opacity="0.3"/>
<path d="M278.539 46.2334L282.625 49.4178C283.352 49.9845 284.046 50.3801 284.706 50.6046C285.376 50.8193 285.996 50.9096 286.565 50.8753C287.135 50.841 287.65 50.7052 288.113 50.4678C288.595 50.2292 289.007 49.9356 289.348 49.587C289.888 49.0352 290.184 48.4889 290.235 47.9482C290.297 47.416 290.229 46.919 290.03 46.4572C289.832 45.9953 289.566 45.5831 289.232 45.2205C288.898 44.8579 288.617 44.5788 288.387 44.383L288.444 44.3249C288.824 44.6209 289.244 44.8371 289.704 44.9734C290.173 45.1001 290.632 45.159 291.081 45.1502C291.55 45.1402 291.993 45.0588 292.41 44.9061C292.837 44.7438 293.202 44.5077 293.506 44.1978C293.771 43.9267 293.976 43.6 294.121 43.2177C294.266 42.8355 294.316 42.4224 294.272 41.9786C294.239 41.5432 294.082 41.088 293.801 40.6129C293.541 40.1366 293.128 39.6785 292.564 39.2387L288.494 36.0669L278.539 46.2334ZM280.646 46.7489L284.998 42.3047L286.789 43.7003C287.32 44.1147 287.72 44.5371 287.987 44.9674C288.255 45.3978 288.409 45.8168 288.45 46.2243C288.502 46.6403 288.45 47.0352 288.295 47.409C288.15 47.7913 287.926 48.1374 287.623 48.4472C287.291 48.7861 286.926 49.0313 286.529 49.1828C286.143 49.3427 285.746 49.4258 285.338 49.4322C284.93 49.4385 284.521 49.3675 284.111 49.219C283.722 49.0693 283.354 48.8592 283.007 48.5885L280.646 46.7489ZM285.623 41.6657L289.349 37.8605L291.336 39.4083C291.759 39.7382 292.065 40.0705 292.254 40.4054C292.453 40.7487 292.56 41.0794 292.574 41.3975C292.598 41.724 292.545 42.0325 292.414 42.3228C292.283 42.6132 292.108 42.8697 291.89 43.0924C291.615 43.3732 291.294 43.5839 290.927 43.7244C290.57 43.8734 290.193 43.9463 289.794 43.9429C289.407 43.9481 289.019 43.8849 288.631 43.7533C288.254 43.6302 287.903 43.4418 287.577 43.1881L285.623 41.6657Z" fill="#E4F0FF" fill-opacity="0.3"/>
<path d="M302.868 61.4314L303.205 61.1603C303.922 60.5835 304.451 59.9935 304.793 59.3902C305.134 58.787 305.316 58.1901 305.34 57.5995C305.374 57.0185 305.269 56.4538 305.025 55.9054C304.782 55.3571 304.428 54.8538 303.965 54.3954C303.473 53.9085 302.923 53.5372 302.315 53.2815C301.719 53.0173 301.084 52.8787 300.411 52.8659C299.749 52.8444 299.074 52.9543 298.387 53.1957C297.71 53.4284 297.051 53.803 296.408 54.3195C295.873 54.75 295.421 55.2434 295.052 55.7999C294.703 56.3572 294.475 56.9475 294.368 57.5706C294.281 58.1947 294.345 58.8349 294.562 59.4913C294.8 60.1485 295.237 60.7923 295.874 61.4225C296.491 62.0336 297.178 62.5023 297.935 62.8285C298.702 63.1461 299.504 63.3151 300.339 63.3355L300.39 62.464C299.994 62.4184 299.625 62.3695 299.281 62.3172C298.947 62.2744 298.634 62.2054 298.344 62.1101C298.054 62.0147 297.775 61.8926 297.508 61.7437C297.262 61.5958 297.018 61.4025 296.777 61.1638C296.506 60.8964 296.26 60.5755 296.036 60.2011C295.834 59.8276 295.72 59.4173 295.695 58.9701C295.67 58.5229 295.779 58.0455 296.023 57.5378C296.266 57.0302 296.715 56.5139 297.368 55.9887L302.868 61.4314ZM298.01 55.4722C298.438 55.1279 298.889 54.8346 299.362 54.5925C299.855 54.3513 300.339 54.187 300.814 54.0997C301.298 54.0219 301.761 54.0388 302.204 54.1503C302.657 54.2531 303.062 54.4812 303.419 54.8345C304.104 55.5124 304.335 56.2787 304.112 57.1331C303.91 57.9886 303.289 58.8338 302.251 59.6688L298.01 55.4722Z" fill="#E4F0FF" fill-opacity="0.3"/>
<path d="M315.352 70.9532C315.667 70.7493 315.899 70.4877 316.049 70.1684C316.199 69.849 316.261 69.4989 316.236 69.1179C316.231 68.7398 316.141 68.3451 315.967 67.9338C315.813 67.5253 315.579 67.1286 315.266 66.7436C314.97 66.3795 314.638 66.0701 314.271 65.8155C313.912 65.5713 313.53 65.3975 313.125 65.2941C312.729 65.2011 312.319 65.189 311.894 65.2576C311.48 65.3186 311.07 65.4813 310.661 65.7456C310.101 66.1081 309.751 66.5095 309.611 66.9498C309.471 67.3902 309.441 67.8462 309.522 68.318C309.603 68.7897 309.74 69.2648 309.934 69.7432C310.147 70.2245 310.318 70.686 310.445 71.1275C310.585 71.5615 310.637 71.9647 310.601 72.337C310.566 72.7094 310.356 73.0202 309.971 73.2694C309.808 73.3751 309.617 73.4586 309.4 73.5198C309.191 73.5915 308.96 73.614 308.707 73.5873C308.466 73.553 308.204 73.4606 307.921 73.3101C307.65 73.152 307.379 72.9065 307.108 72.5735C306.769 72.1573 306.552 71.7583 306.455 71.3763C306.378 70.9972 306.362 70.6498 306.408 70.3342C306.474 70.0213 306.578 69.7554 306.72 69.5362C306.871 69.3274 307.016 69.1778 307.156 69.0871L306.331 68.0727C306.005 68.2841 305.739 68.5594 305.534 68.8985C305.341 69.2301 305.232 69.6105 305.207 70.0396C305.19 70.4791 305.267 70.9456 305.437 71.4392C305.627 71.9356 305.938 72.4491 306.37 72.9798C307.149 73.937 307.966 74.504 308.822 74.6805C309.698 74.86 310.521 74.7005 311.291 74.2021C311.851 73.8396 312.202 73.4292 312.346 72.9709C312.498 72.523 312.529 72.058 312.44 71.5759C312.362 71.0862 312.218 70.5917 312.007 70.0925C311.806 69.6036 311.631 69.137 311.483 68.6926C311.335 68.2482 311.263 67.8422 311.266 67.4745C311.279 67.1172 311.465 66.8215 311.827 66.5874C311.979 66.4893 312.157 66.4133 312.363 66.3596C312.58 66.2984 312.809 66.2849 313.051 66.3191C313.304 66.3458 313.562 66.433 313.825 66.5807C314.099 66.7208 314.363 66.947 314.617 67.2591C314.871 67.5713 315.038 67.8758 315.12 68.1727C315.213 68.462 315.247 68.7338 315.222 68.988C315.209 69.2347 315.145 69.4511 315.029 69.6372C314.913 69.8233 314.78 69.9654 314.628 70.0636L315.352 70.9532Z" fill="#E4F0FF" fill-opacity="0.3"/>
<path d="M321.59 76.7909L322.334 76.3975L323.293 77.8407L326.157 76.3262L327.094 77.7362L324.23 79.2507L325.564 81.2579L324.82 81.6513L323.486 79.6441L317.313 82.9091C317.164 82.9878 316.994 83.0851 316.803 83.2011C316.625 83.3105 316.467 83.4387 316.33 83.5858C316.206 83.7263 316.125 83.8814 316.086 84.051C316.056 84.2316 316.11 84.427 316.25 84.6372C316.426 84.9026 316.685 85.0647 317.025 85.1237C317.366 85.1826 317.703 85.1985 318.037 85.1714L317.663 86.4231C316.695 86.2025 315.984 85.7494 315.528 85.0637C315.337 84.7762 315.205 84.4647 315.133 84.1292C315.061 83.7937 315.063 83.4564 315.139 83.1172C315.235 82.7825 315.419 82.4537 315.69 82.1309C315.961 81.8081 316.339 81.5188 316.822 81.2631L322.549 78.2341L321.59 76.7909Z" fill="#E4F0FF" fill-opacity="0.3"/>
<path d="M327.903 108.717L341.001 104.453L342.987 109.308L344.104 108.945L339.458 97.586L338.341 97.9496L340.327 102.805L327.229 107.068L327.903 108.717Z" fill="#E4F0FF" fill-opacity="0.3"/>
<path d="M343.751 121.647C343.995 122.56 344.036 123.298 343.876 123.861C343.729 124.421 343.455 124.863 343.052 125.186C342.653 125.522 342.157 125.773 341.564 125.939C340.972 126.104 340.36 126.254 339.729 126.389L333.989 127.61L333.582 126.09L334.613 125.871C334.123 125.592 333.684 125.196 333.296 124.684C332.921 124.169 332.658 123.63 332.508 123.067C332.364 122.53 332.342 122.032 332.442 121.575C332.542 121.117 332.724 120.715 332.987 120.368C333.25 120.022 333.573 119.735 333.957 119.508C334.34 119.281 334.75 119.121 335.184 119.029C335.633 118.933 336.101 118.913 336.59 118.968C337.079 119.022 337.538 119.162 337.969 119.388C338.414 119.611 338.807 119.917 339.148 120.307C339.489 120.697 339.735 121.173 339.886 121.736C340.036 122.299 340.052 122.857 339.933 123.411C339.832 123.974 339.6 124.466 339.239 124.887L340.143 124.695C341.292 124.45 342.106 124.112 342.583 123.68C343.063 123.261 343.195 122.645 342.978 121.832C342.884 121.482 342.753 121.186 342.585 120.944C342.417 120.702 342.213 120.494 341.974 120.32C341.752 120.156 341.485 120.015 341.172 119.896C340.873 119.775 340.538 119.661 340.169 119.554L341.002 118.346C341.259 118.477 341.518 118.613 341.778 118.756C342.042 118.912 342.295 119.109 342.536 119.348C342.781 119.6 343.005 119.91 343.207 120.276C343.422 120.64 343.604 121.097 343.751 121.647ZM337.746 125.205C337.897 125.106 338.069 124.971 338.259 124.798C338.454 124.638 338.631 124.441 338.791 124.209C338.951 123.977 339.066 123.714 339.136 123.422C339.22 123.127 339.214 122.798 339.117 122.435C339.02 122.072 338.847 121.759 338.599 121.494C338.364 121.227 338.086 121.015 337.762 120.859C337.457 120.713 337.113 120.621 336.733 120.583C336.352 120.545 335.973 120.566 335.594 120.646C335.146 120.742 334.772 120.894 334.472 121.103C334.19 121.322 333.959 121.569 333.781 121.845C333.617 122.118 333.516 122.404 333.477 122.703C333.439 123.002 333.453 123.276 333.519 123.526C333.583 123.764 333.696 123.991 333.857 124.208C334.022 124.437 334.217 124.64 334.442 124.817C334.685 125.003 334.948 125.159 335.233 125.283C335.519 125.407 335.816 125.496 336.127 125.549L337.746 125.205Z" fill="#E4F0FF" fill-opacity="0.3"/>
<path d="M344.76 140.517C345.146 140.472 345.49 140.341 345.792 140.123C346.094 139.906 346.336 139.625 346.517 139.279C346.714 138.945 346.846 138.559 346.913 138.124C346.995 137.699 347.001 137.251 346.931 136.779C346.865 136.333 346.739 135.92 346.551 135.54C346.366 135.173 346.123 134.858 345.823 134.595C345.524 134.345 345.169 134.16 344.759 134.04C344.363 133.918 343.915 133.887 343.415 133.946C342.729 134.026 342.207 134.231 341.849 134.558C341.49 134.886 341.221 135.274 341.04 135.723C340.86 136.173 340.727 136.649 340.641 137.152C340.572 137.666 340.476 138.144 340.353 138.586C340.243 139.027 340.074 139.404 339.844 139.716C339.614 140.029 339.264 140.213 338.792 140.268C338.592 140.292 338.38 140.284 338.156 140.246C337.935 140.22 337.719 140.142 337.511 140.011C337.317 139.878 337.136 139.686 336.967 139.433C336.814 139.179 336.706 138.848 336.646 138.44C336.57 137.93 336.592 137.487 336.71 137.11C336.845 136.744 337.017 136.432 337.226 136.174C337.451 135.927 337.684 135.737 337.926 135.605C338.17 135.485 338.378 135.415 338.549 135.395L338.365 134.152C337.965 134.199 337.585 134.329 337.223 134.54C336.876 134.749 336.578 135.037 336.327 135.404C336.078 135.784 335.896 136.227 335.782 136.733C335.684 137.25 335.684 137.834 335.78 138.484C335.954 139.656 336.37 140.502 337.028 141.021C337.703 141.551 338.512 141.76 339.455 141.649C340.14 141.568 340.669 141.357 341.04 141.015C341.412 140.685 341.688 140.29 341.867 139.828C342.06 139.364 342.197 138.868 342.278 138.34C342.362 137.824 342.457 137.339 342.564 136.886C342.672 136.432 342.825 136.045 343.024 135.723C343.226 135.414 343.548 135.233 343.991 135.181C344.176 135.159 344.374 135.168 344.583 135.208C344.807 135.247 345.016 135.332 345.21 135.465C345.419 135.596 345.599 135.782 345.751 136.024C345.917 136.263 346.029 136.574 346.085 136.957C346.142 137.339 346.127 137.678 346.04 137.974C345.967 138.268 345.852 138.521 345.695 138.734C345.552 138.946 345.38 139.109 345.179 139.223C344.977 139.338 344.784 139.406 344.598 139.428L344.76 140.517Z" fill="#E4F0FF" fill-opacity="0.3"/>
<path d="M347.13 148.301L347.994 148.271L348.067 149.947L351.393 149.832L351.464 151.47L348.138 151.585L348.239 153.917L347.375 153.947L347.274 151.615L340.103 151.864C339.93 151.87 339.728 151.883 339.499 151.904C339.283 151.924 339.076 151.97 338.877 152.041C338.693 152.112 338.539 152.214 338.415 152.347C338.291 152.493 338.235 152.688 338.245 152.932C338.259 153.24 338.4 153.492 338.668 153.689C338.936 153.886 339.224 154.043 339.532 154.161L338.535 155.102C337.802 154.497 337.418 153.797 337.383 153C337.368 152.666 337.419 152.336 337.535 152.011C337.65 151.685 337.832 151.389 338.08 151.123C338.343 150.87 338.68 150.659 339.091 150.49C339.502 150.321 339.988 150.227 340.55 150.208L347.203 149.977L347.13 148.301Z" fill="#E4F0FF" fill-opacity="0.3"/>
<path d="M341.791 170.773L342.244 170.798C343.208 170.85 344.05 170.773 344.772 170.567C345.493 170.361 346.098 170.059 346.587 169.66C347.075 169.275 347.453 168.812 347.721 168.273C347.988 167.733 348.143 167.156 348.185 166.54C348.229 165.885 348.141 165.275 347.919 164.709C347.712 164.144 347.378 163.643 346.917 163.206C346.47 162.77 345.909 162.418 345.234 162.149C344.574 161.882 343.812 161.725 342.949 161.678C342.23 161.639 341.518 161.698 340.815 161.853C340.125 162.022 339.493 162.29 338.919 162.659C338.359 163.04 337.893 163.53 337.52 164.129C337.161 164.74 336.953 165.47 336.896 166.317C336.84 167.138 336.947 167.904 337.216 168.614C337.5 169.324 337.927 169.953 338.496 170.499L339.228 169.92C338.988 169.637 338.768 169.367 338.568 169.112C338.368 168.869 338.205 168.622 338.077 168.37C337.95 168.119 337.852 167.856 337.784 167.582C337.73 167.321 337.713 167.031 337.735 166.71C337.76 166.35 337.843 165.968 337.986 165.564C338.143 165.173 338.391 164.813 338.731 164.484C339.071 164.154 339.529 163.889 340.106 163.689C340.682 163.488 341.409 163.411 342.287 163.458L341.791 170.773ZM343.15 163.505C343.725 163.536 344.276 163.617 344.801 163.749C345.34 163.894 345.81 164.087 346.213 164.327C346.614 164.581 346.925 164.887 347.146 165.247C347.382 165.608 347.484 166.025 347.451 166.5C347.39 167.411 346.939 168.095 346.099 168.552C345.273 169.023 344.163 169.22 342.767 169.145L343.15 163.505Z" fill="#E4F0FF" fill-opacity="0.3"/>
</svg>
