<svg viewBox="0 0 8 9" id="three-line" xmlns="http://www.w3.org/2000/svg">
    <path
        d="M7.80724 4.18992C7.80724 4.72095 7.80724 5.23666 7.80724 5.7728C5.2099 5.7728 2.62783 5.7728 0.00756836 5.7728C0.00756834 5.25709 0.00756831 4.73117 0.00756829 4.18993C2.58963 4.18992 5.17934 4.18992 7.80724 4.18992Z" />
    <path
        d="M0 9C-2.34352e-08 8.46387 -4.59775e-08 7.94816 -6.94127e-08 7.41202C2.60498 7.41202 5.18705 7.41202 7.79967 7.41202C7.79967 7.94305 7.79967 8.46387 7.79967 9C5.20233 9 2.61262 9 0 9Z" />
    <path
        d="M7.79197 2.5556C5.19462 2.5556 2.62019 2.5556 0.00756836 2.5556C0.00756834 2.02968 0.00756831 1.50887 0.00756829 0.967625C2.582 0.967625 5.1717 0.967625 7.79196 0.967625C7.79196 1.48333 7.79196 2.00415 7.79197 2.5556Z" />
</svg>