<svg viewBox="0 0 19 18" id="activities" xmlns="http://www.w3.org/2000/svg">
    <path
        d="M14.5496 14.7161C15.184 14.149 15.793 13.6046 16.4021 13.0603C16.653 12.8374 16.8983 12.6121 17.1493 12.3893C17.5835 12.0019 18.2546 11.9969 18.6803 12.3766C19.1061 12.7564 19.1089 13.3616 18.6747 13.7515C17.2113 15.0681 15.7451 16.3846 14.2789 17.6987C13.8306 18.0987 13.1285 18.1013 12.683 17.7012C11.2281 16.3948 9.77319 15.0883 8.32109 13.7793C7.88969 13.3919 7.89533 12.7843 8.32391 12.4045C8.74967 12.0298 9.4151 12.0323 9.84368 12.4172C10.6501 13.1362 11.4537 13.8603 12.2573 14.5819C12.2939 14.6148 12.3306 14.6452 12.3954 14.7009C12.3954 14.6199 12.3954 14.5667 12.3954 14.5136C12.3954 12.0196 12.3954 9.52572 12.3954 7.03433C12.3954 6.55074 12.6717 6.18361 13.1342 6.04942C13.8306 5.84434 14.5468 6.30261 14.5496 6.9609C14.5552 7.84707 14.5496 8.73324 14.5496 9.6194C14.5496 11.2601 14.5496 12.9007 14.5496 14.544C14.5496 14.5921 14.5496 14.6427 14.5496 14.7161Z" />
    <path
        d="M4.4504 3.28388C3.81599 3.85103 3.20695 4.39539 2.59792 4.93974C2.34697 5.16255 2.10167 5.38789 1.85072 5.6107C1.4165 5.99808 0.745434 6.00314 0.319674 5.62336C-0.106087 5.24357 -0.108906 4.63845 0.325313 4.24853C1.78869 2.93195 3.25488 1.61536 4.72108 0.3013C5.1694 -0.0987405 5.87148 -0.101273 6.31698 0.298767C7.7719 1.60523 9.22681 2.91169 10.6789 4.22068C11.1103 4.60807 11.1047 5.21572 10.6761 5.59551C10.2503 5.97023 9.5849 5.9677 9.15632 5.58285C8.34991 4.86379 7.54633 4.13966 6.74274 3.41807C6.70608 3.38516 6.66943 3.35477 6.60458 3.29907C6.60458 3.38009 6.60458 3.43326 6.60458 3.48643C6.60458 5.98036 6.60458 8.47428 6.60458 10.9657C6.60458 11.4493 6.32826 11.8164 5.86584 11.9506C5.1694 12.1557 4.45322 11.6974 4.4504 11.0391C4.44476 10.1529 4.4504 9.26676 4.4504 8.3806C4.4504 6.73993 4.4504 5.09925 4.4504 3.45605C4.4504 3.40794 4.4504 3.35731 4.4504 3.28388Z" />
</svg>