<svg viewBox="0 0 17 18" id="add-user" xmlns="http://www.w3.org/2000/svg">
    <path
        d="M8.90481 11.2278V12.9197C8.17213 12.6607 7.38798 12.5812 6.61823 12.688C5.84848 12.7948 5.11559 13.0848 4.48111 13.5335C3.84663 13.9822 3.32909 14.5767 2.97194 15.2669C2.61479 15.9571 2.42847 16.7229 2.42862 17.5L0.809571 17.4992C0.809319 16.5107 1.03536 15.5352 1.47038 14.6476C1.9054 13.7599 2.53785 12.9836 3.31927 12.3782C4.10069 11.7727 5.01033 11.3542 5.9785 11.1547C6.94668 10.9551 7.94768 10.9799 8.90481 11.227V11.2278ZM7.28576 10.2143C4.60219 10.2143 2.42862 8.04071 2.42862 5.35714C2.42862 2.67357 4.60219 0.5 7.28576 0.5C9.96933 0.5 12.1429 2.67357 12.1429 5.35714C12.1429 8.04071 9.96933 10.2143 7.28576 10.2143ZM7.28576 8.59524C9.07481 8.59524 10.5239 7.14619 10.5239 5.35714C10.5239 3.5681 9.07481 2.11905 7.28576 2.11905C5.49671 2.11905 4.04767 3.5681 4.04767 5.35714C4.04767 7.14619 5.49671 8.59524 7.28576 8.59524ZM12.1429 13.4524V11.0238H13.762V13.4524H16.1905V15.0714H13.762V17.5H12.1429V15.0714H9.71433V13.4524H12.1429Z" />
</svg>