<svg viewBox="0 0 16 18" id="details" xmlns="http://www.w3.org/2000/svg">
    <path
        d="M1 9.00648C1 6.88259 1 4.7587 1 2.63909C1.00447 1.82815 1.50083 1.21029 2.2789 1.04295C2.43541 1.00863 2.60533 1.00434 2.76631 1.00434C4.79645 1.00005 6.82212 1.00863 8.84779 1.00005C9.63033 0.995757 10.2653 1.27894 10.7706 1.84531C11.9377 3.1454 13.1048 4.44548 14.2764 5.74127C14.6699 6.17892 14.8667 6.68093 14.8667 7.25159C14.8711 9.95902 14.8711 12.6707 14.8667 15.3782C14.8667 16.3436 14.1601 16.9958 13.1272 17C11.4369 17.0043 9.7466 17 8.05183 17C6.27658 17 4.50579 17.0043 2.73054 17C1.8362 17 1.18781 16.5066 1.02683 15.7171C1 15.5712 1 15.4168 1 15.2666C1 13.1813 1 11.0918 1 9.00648ZM8.27989 2.27009C8.1681 2.27009 8.08761 2.27009 8.00712 2.27009C6.27658 2.27009 4.55051 2.27009 2.81997 2.27009C2.39516 2.27009 2.31914 2.34733 2.31914 2.76352C2.31914 6.9255 2.31914 11.0875 2.31914 15.2452C2.31914 15.6614 2.39963 15.7343 2.82444 15.7343C6.22739 15.7343 9.63481 15.7343 13.0378 15.7343C13.4581 15.7343 13.5341 15.6614 13.5341 15.2623C13.5341 12.8467 13.5341 10.431 13.5341 8.01104C13.5341 7.93381 13.5341 7.85658 13.5341 7.75789C13.4313 7.75789 13.3508 7.75789 13.2703 7.75789C12.1881 7.75789 11.1105 7.75789 10.0283 7.75789C8.9417 7.75789 8.27989 7.11858 8.27542 6.07165C8.27542 4.89171 8.27542 3.71177 8.27542 2.53183C8.27989 2.45459 8.27989 2.36878 8.27989 2.27009ZM9.66611 2.51466C9.64375 2.52754 9.62139 2.53612 9.59903 2.54899C9.59903 2.60477 9.59903 2.66055 9.59903 2.71204C9.59903 3.8362 9.59903 4.95607 9.59903 6.08023C9.59903 6.41061 9.68847 6.49643 10.0373 6.49643C11.0121 6.49643 11.9869 6.49643 12.9662 6.49643C13.0288 6.49643 13.0959 6.48785 13.1987 6.47927C12.0003 5.13628 10.8332 3.82333 9.66611 2.51466Z"
        stroke-width="0.3" />
</svg>