<svg viewBox="0 0 19 19" id="edit" xmlns="http://www.w3.org/2000/svg">
    <path
        d="M13.3606 1.74999L11.5272 3.58332H2.58333V16.4167H15.4167V7.47274L17.25 5.6394V17.3333C17.25 17.5764 17.1534 17.8096 16.9815 17.9815C16.8096 18.1534 16.5764 18.25 16.3333 18.25H1.66667C1.42355 18.25 1.19039 18.1534 1.01849 17.9815C0.846577 17.8096 0.75 17.5764 0.75 17.3333V2.66665C0.75 2.42354 0.846577 2.19038 1.01849 2.01847C1.19039 1.84656 1.42355 1.74999 1.66667 1.74999H13.3606ZM16.7779 0.924988L18.075 2.22299L9.649 10.649L8.35467 10.6517L8.35283 9.35282L16.7779 0.924988Z" />
</svg>