<svg viewBox="0 0 240 240" id="facebook-2" fill="none" xmlns="http://www.w3.org/2000/svg">
	<path d="M120 20C64.77 20 20 64.77 20 120C20 175.23 64.77 220 120 220C175.23 220 220 175.23 220 120C220 64.77 175.23 20 120 20Z" fill="url(#paint0_linear_223_2518)" />
	<path d="M133.535 146.505H159.415L163.48 120.215H133.535V105.845C133.535 94.9251 137.105 85.2401 147.32 85.2401H163.735V62.3001C160.85 61.9101 154.75 61.0601 143.225 61.0601C119.155 61.0601 105.045 73.7701 105.045 102.73V120.22H80.3V146.51H105.04V218.77C109.94 219.5 114.905 220 120 220C124.605 220 129.1 219.58 133.535 218.98V146.505Z" fill="white" />
	<defs>
		<linearGradient id="paint0_linear_223_2518" x1="49.965" y1="49.965" x2="203.075" y2="203.075" gradientUnits="userSpaceOnUse">
			<stop stop-color="#2AA4F4" />
			<stop offset="1" stop-color="#007AD9" />
		</linearGradient>
	</defs>
</svg>
