<svg viewBox="0 0 19 18" id="instagram" xmlns="http://www.w3.org/2000/svg">
    <path
        d="M9.35506 0.151428C11.7406 0.151428 12.0382 0.160211 12.9741 0.204124C13.9092 0.248037 14.5457 0.394708 15.1059 0.612517C15.6853 0.835597 16.1735 1.13772 16.6617 1.62516C17.1081 2.0642 17.4536 2.59528 17.674 3.18144C17.8909 3.7409 18.0384 4.37852 18.0823 5.31387C18.1235 6.2501 18.1349 6.54783 18.1349 8.93408C18.1349 11.3203 18.1262 11.6181 18.0823 12.5543C18.0384 13.4896 17.8909 14.1264 17.674 14.6867C17.4542 15.2732 17.1087 15.8044 16.6617 16.243C16.2226 16.6894 15.6918 17.035 15.1059 17.2556C14.5466 17.4726 13.9092 17.6201 12.9741 17.664C12.0382 17.7053 11.7406 17.7167 9.35506 17.7167C6.96957 17.7167 6.67194 17.7079 5.736 17.664C4.80095 17.6201 4.1644 17.4726 3.60425 17.2556C3.01804 17.0356 2.48704 16.69 2.04846 16.243C1.60192 15.804 1.25645 15.2729 1.03614 14.6867C0.818398 14.1273 0.671774 13.4896 0.627874 12.5543C0.586609 11.6181 0.575195 11.3203 0.575195 8.93408C0.575195 6.54783 0.583975 6.2501 0.627874 5.31387C0.671774 4.37764 0.818398 3.74178 1.03614 3.18144C1.25584 2.59492 1.60139 2.06369 2.04846 1.62516C2.48716 1.17832 3.01813 0.832724 3.60425 0.612517C4.1644 0.394708 4.80007 0.248037 5.736 0.204124C6.67194 0.162846 6.96957 0.151428 9.35506 0.151428ZM9.35506 4.54275C8.19078 4.54275 7.07418 5.00541 6.25091 5.82894C5.42764 6.65248 4.96513 7.76943 4.96513 8.93408C4.96513 10.0987 5.42764 11.2157 6.25091 12.0392C7.07418 12.8627 8.19078 13.3254 9.35506 13.3254C10.5193 13.3254 11.6359 12.8627 12.4592 12.0392C13.2825 11.2157 13.745 10.0987 13.745 8.93408C13.745 7.76943 13.2825 6.65248 12.4592 5.82894C11.6359 5.00541 10.5193 4.54275 9.35506 4.54275ZM15.062 4.32319C15.062 4.03202 14.9464 3.75279 14.7405 3.5469C14.5347 3.34102 14.2556 3.22536 13.9645 3.22536C13.6734 3.22536 13.3943 3.34102 13.1885 3.5469C12.9826 3.75279 12.867 4.03202 12.867 4.32319C12.867 4.61435 12.9826 4.89359 13.1885 5.09947C13.3943 5.30535 13.6734 5.42102 13.9645 5.42102C14.2556 5.42102 14.5347 5.30535 14.7405 5.09947C14.9464 4.89359 15.062 4.61435 15.062 4.32319ZM9.35506 6.29928C10.0536 6.29928 10.7236 6.57688 11.2176 7.071C11.7115 7.56512 11.989 8.23529 11.989 8.93408C11.989 9.63287 11.7115 10.303 11.2176 10.7972C10.7236 11.2913 10.0536 11.5689 9.35506 11.5689C8.65649 11.5689 7.98653 11.2913 7.49257 10.7972C6.99861 10.303 6.7211 9.63287 6.7211 8.93408C6.7211 8.23529 6.99861 7.56512 7.49257 7.071C7.98653 6.57688 8.65649 6.29928 9.35506 6.29928Z" />
</svg>