<svg viewBox="0 0 15 24" id="part" xmlns="http://www.w3.org/2000/svg">
    <path d="M7.07095 16.6043L7.07258 8.96484L0.131836 12.1828L7.07095 16.6043Z" fill="#364482" />
    <path d="M7.11002 8.96484L7.1084 16.6055L14.0501 12.1825L7.11002 8.96484Z" fill="#2D386A" />
    <path d="M14.043 12.14L7.1084 0.101562L7.11002 8.92574L14.043 12.14Z" fill="#364482" />
    <path d="M7.10905 17.853L7.1084 23.7502L14.056 13.644L7.10905 17.853Z" fill="#364482" />
    <path d="M7.07277 23.746L7.07342 17.8519L0.127808 13.6439L7.07277 23.746Z" fill="#495FBC" />
    <path d="M0.136719 12.1398L7.07032 8.92495L7.0687 0.105713L0.136719 12.1398Z" fill="#495FBF" />
    <path
        d="M7.08906 16.6577L7.10269 16.6497L14.0964 12.1936L14.1103 12.1847L7.10594 0.0256078L7.08938 0L7.07282 0.0256078L0.0681152 12.1856L7.07575 16.6506L7.08906 16.6577ZM14.0412 12.1387L7.10821 8.92507L7.10659 0.101197L14.0412 12.1387ZM7.10821 8.96456L14.0486 12.1822L7.10659 16.6052L7.10821 8.96456ZM7.06925 16.6037L0.130129 12.1822L7.07087 8.96425L7.06925 16.6037ZM0.137273 12.1396L7.06925 0.107059V8.9263L0.137273 12.1396Z"
        fill="#495FBE" />
    <path
        d="M0 13.5254L7.07809 23.8216L7.09107 23.8382L7.10373 23.8216L14.1818 13.5254L7.09075 17.8213L0 13.5254ZM7.07094 23.746L0.125977 13.6439L7.07159 17.8519L7.07094 23.746ZM7.10893 17.8531L14.0571 13.6442L7.10893 23.7503V17.8531Z"
        fill="#495FBF" />
</svg>