<svg viewBox="0 0 22 22" id="price-tag" xmlns="http://www.w3.org/2000/svg">
    <path
        d="M18.4138 7.37518C18.4607 7.18756 18.4185 7.07968 18.2872 6.95304C17.9471 6.6218 17.6126 6.28689 17.2778 5.95175C17.0769 5.75064 16.876 5.54945 16.6737 5.34891C16.6291 5.30436 16.5875 5.25982 16.5372 5.20597C16.524 5.19178 16.5101 5.17695 16.4954 5.16129C16.5299 5.11693 16.5627 5.072 16.5952 5.02749C16.6554 4.94495 16.7145 4.86389 16.7815 4.79075C17.1755 4.38268 17.274 4.38268 17.6633 4.77199C17.7009 4.80958 17.7394 4.84627 17.7778 4.88291C17.864 4.96512 17.9499 5.04699 18.0245 5.13784C18.1512 5.29262 18.259 5.3067 18.4279 5.18474C18.8876 4.84703 19.2862 4.45773 19.5864 3.96992M18.4138 7.37518L1.28905 12.7504C2.62583 14.0825 3.9626 15.4158 5.29938 16.749C6.63615 18.0823 7.97292 19.4155 9.30969 20.7476C9.65678 21.09 9.92883 21.09 10.2759 20.7429C12.865 18.1632 15.4542 15.5787 18.0386 12.9896C18.1605 12.8677 18.259 12.6988 18.3012 12.5347C18.5928 11.3593 18.8763 10.1819 19.1597 9.00512C19.3094 8.38333 19.4591 7.76171 19.6099 7.14065C19.6662 6.90144 19.6146 6.70444 19.4457 6.54028C19.3283 6.42683 19.211 6.31664 19.0882 6.20155C19.1182 6.17867 19.1447 6.15844 19.1688 6.14001M18.4138 7.37518C18.2215 8.15144 18.0339 8.92889 17.8463 9.70633C17.6587 10.4838 17.471 11.2612 17.2787 12.0375C17.2506 12.1594 17.1755 12.2814 17.0864 12.3705L18.4138 7.37518ZM19.5864 3.96992C19.6896 3.80107 19.7834 3.61345 19.8397 3.42114M19.5864 3.96992L19.5011 3.91778C19.2095 4.39153 18.8211 4.77169 18.369 5.10389C18.2914 5.15992 18.2483 5.16888 18.2222 5.16577C18.1969 5.16275 18.1595 5.14496 18.1019 5.07452L18.1018 5.07437C18.0232 4.97866 17.9299 4.88968 17.8417 4.80552C17.8044 4.76996 17.768 4.73526 17.7341 4.70128C17.6365 4.60371 17.5518 4.52497 17.4735 4.47097C17.3944 4.4164 17.3127 4.38064 17.2223 4.38237C17.1323 4.38409 17.0511 4.42268 16.9721 4.47997C16.8936 4.53687 16.8084 4.61898 16.7096 4.72129L16.7096 4.72127L16.7078 4.72318C16.6373 4.80009 16.5718 4.88973 16.5093 4.97534C16.4777 5.01862 16.4469 5.06085 16.4165 5.0999L16.364 5.16735L16.4225 5.22969C16.4368 5.24494 16.4504 5.25953 16.4635 5.27358C16.514 5.32764 16.5571 5.37375 16.603 5.41962L16.6033 5.41993C16.8048 5.61971 17.0055 5.82061 17.2063 6.02163C17.5415 6.35719 17.877 6.69308 18.2174 7.02467L18.2178 7.02502C18.2777 7.08286 18.3081 7.12775 18.3221 7.1716C18.3357 7.21447 18.3375 7.26829 18.3168 7.35092L18.3168 7.35113C18.1244 8.12774 17.9367 8.90547 17.7491 9.68286L17.7489 9.68336C17.5614 10.4607 17.3738 11.2377 17.1817 12.0134L17.1813 12.015C17.1581 12.1154 17.0942 12.2213 17.0157 12.2998C14.9614 14.3541 12.9024 16.4084 10.8433 18.4628L10.8432 18.4629L10.8431 18.463C10.6024 18.7037 10.3655 18.9446 10.1225 19.1916C10.014 19.3019 9.90429 19.4135 9.79255 19.5267C8.54689 18.274 7.31099 17.0298 6.07848 15.7891C4.89135 14.5941 3.70737 13.4022 2.52082 12.2089C4.93548 9.79888 7.35484 7.3889 9.7695 4.98831L9.7697 4.9881C9.82059 4.93722 9.90203 4.89352 9.98105 4.87373C10.2143 4.81653 10.4472 4.75902 10.68 4.70155C11.689 4.45245 12.6957 4.20394 13.7118 3.98322L13.712 3.98316C14.1925 3.87746 14.6008 3.70262 14.8363 3.20602L14.8366 3.20534C14.8788 3.11448 14.9381 3.0287 15.0059 2.94022C15.0294 2.90944 15.0549 2.87729 15.081 2.8444C15.1267 2.78676 15.1742 2.72684 15.2164 2.66802L15.2171 2.66704C15.2456 2.62637 15.2715 2.5785 15.3042 2.51819C15.3139 2.50024 15.3242 2.48118 15.3354 2.46089L15.429 2.29069L15.2361 2.31339C15.1781 2.32021 15.1268 2.32373 15.077 2.32715C15.0608 2.32826 15.0447 2.32937 15.0287 2.33057C14.9654 2.33529 14.9019 2.34158 14.839 2.35787C14.1217 2.52856 13.4056 2.70072 12.6898 2.87282C11.6543 3.12177 10.6194 3.37058 9.58234 3.61459C9.30001 3.68018 9.07742 3.81218 8.87781 4.01178C6.32626 6.56334 3.77 9.1149 1.21371 11.6665L1.21365 11.6666C1.01984 11.8604 0.899261 12.0437 0.900003 12.2442C0.900746 12.4446 1.02253 12.6277 1.21858 12.8214M19.5864 3.96992L19.5013 3.91751C19.6015 3.75337 19.6907 3.57423 19.7436 3.39339M19.8397 3.42114C19.9476 3.04591 19.896 2.68475 19.5911 2.40801C19.2769 2.12189 18.9016 2.03278 18.5029 2.17818M19.8397 3.42114L19.7436 3.39351C19.7436 3.39347 19.7436 3.39343 19.7436 3.39339M19.8397 3.42114L19.7437 3.39305C19.7437 3.39316 19.7437 3.39328 19.7436 3.39339M18.5029 2.17818C18.2872 2.25792 18.0714 2.37987 17.9072 2.53465C17.5742 2.83953 17.2553 3.16317 16.9692 3.51495C16.1999 4.46711 15.562 5.51307 15.0742 6.64816M18.5029 2.17818L18.5376 2.27198C18.5375 2.27202 18.5374 2.27205 18.5373 2.27209M18.5029 2.17818L18.5372 2.27213C18.5372 2.27211 18.5373 2.2721 18.5373 2.27209M15.0742 6.64816C14.9453 6.95184 14.8495 7.27028 14.7542 7.58712C14.7421 7.62751 14.73 7.66789 14.7178 7.7082C14.6239 8.01777 14.3707 8.19131 14.0611 8.13972C13.775 8.08812 13.5827 7.82546 13.6343 7.5112M15.0742 6.64816L15.1663 6.68725C15.1663 6.68728 15.1662 6.68732 15.1662 6.68735M15.0742 6.64816L15.1661 6.68764C15.1661 6.68755 15.1662 6.68745 15.1662 6.68735M13.6343 7.5112C13.6718 7.2673 13.7421 7.02339 13.8266 6.78887C14.4692 5.08156 15.3932 3.54309 16.6408 2.20632C16.9551 1.86861 17.3256 1.55435 17.7196 1.31983C18.9767 0.578741 20.5386 1.18381 20.9185 2.53465C21.0921 3.15379 20.9795 3.74478 20.684 4.29825C20.3275 4.96429 19.8303 5.50838 19.2346 5.96336M13.6343 7.5112L13.5354 7.49599C13.5355 7.49583 13.5355 7.49566 13.5355 7.4955M13.6343 7.5112L13.5356 7.495C13.5356 7.49516 13.5355 7.49533 13.5355 7.4955M19.2346 5.96336C19.1922 5.99598 19.1498 6.0286 19.0948 6.07069C19.1074 6.08252 19.12 6.09429 19.1325 6.10601C19.1446 6.11739 19.1567 6.12872 19.1688 6.14001M19.2346 5.96336L19.2956 6.04262C19.2955 6.04269 19.2954 6.04276 19.2953 6.04283M19.2346 5.96336L19.2953 6.04283M19.1688 6.14001C19.2872 6.25102 19.4012 6.35817 19.5152 6.46838L19.5154 6.46858C19.611 6.56148 19.6765 6.667 19.7087 6.7862C19.7409 6.90501 19.7383 7.03125 19.7072 7.16356L19.7071 7.16425C19.5563 7.78492 19.4067 8.40637 19.257 9.02809C18.9736 10.2051 18.6899 11.3831 18.3983 12.5587L18.3981 12.5596C18.3512 12.7419 18.2433 12.9263 18.1093 13.0603C15.5248 15.6495 12.9357 18.2339 10.3466 20.8136C10.1664 20.9938 9.98748 21.1031 9.79318 21.1038C9.59884 21.1045 9.41974 20.9966 9.23946 20.8188L9.2391 20.8184C7.90231 19.4863 6.56552 18.1531 5.22875 16.8198C3.89202 15.4866 2.5553 14.1534 1.21858 12.8214M19.1688 6.14001C19.2175 6.10272 19.2564 6.07275 19.2953 6.04283M1.21858 12.8214L16.5677 2.13809C16.8872 1.79478 17.265 1.47409 17.6685 1.2339L17.6688 1.23368C18.9792 0.461154 20.6161 1.09005 21.0148 2.50758L21.0148 2.50766C21.1967 3.15659 21.0772 3.77416 20.7722 4.34535L20.7722 4.34544C20.4079 5.02608 19.9004 5.58067 19.2953 6.04283M1.21858 12.8214L13.5355 7.4955M19.7436 3.39339C19.8438 3.04504 19.7937 2.72695 19.5239 2.48206L19.5238 2.48195C19.2347 2.21875 18.8981 2.14054 18.5373 2.27209M18.5373 2.27209C18.3313 2.34828 18.1281 2.46388 17.9759 2.60741L17.9748 2.60842C17.6442 2.91105 17.3289 3.23111 17.0467 3.57805M17.0467 3.57805C17.0468 3.57796 17.0469 3.57788 17.0469 3.57779L16.9692 3.51501L17.0467 3.57805ZM17.0467 3.57805C16.2832 4.52318 15.6503 5.56114 15.1662 6.68735M15.1662 6.68735C15.0396 6.9856 14.9455 7.29847 14.85 7.6159C14.8379 7.65625 14.8257 7.69668 14.8135 7.73716L14.8135 7.7372C14.7608 7.91099 14.6614 8.05243 14.5257 8.14266C14.3894 8.23328 14.2227 8.26804 14.0447 8.23836L14.0433 8.23814L14.0433 8.23813C13.7022 8.17662 13.4756 7.86202 13.5355 7.4955"
        fill="#8E9CBE" stroke="#8E9CBE" stroke-width="0.2" />
</svg>