<svg viewBox="0 0 22 22" id="price-tag" xmlns="http://www.w3.org/2000/svg">
    <path
        d="M19.1688 6.14001C19.1447 6.15845 19.1182 6.17867 19.0882 6.20155C19.211 6.31664 19.3283 6.42683 19.4457 6.54028C19.6146 6.70444 19.6662 6.90144 19.6099 7.14065C19.4591 7.76171 19.3094 8.38333 19.1597 9.00512C18.8763 10.1819 18.5928 11.3593 18.3012 12.5347C18.259 12.6988 18.1605 12.8677 18.0386 12.9896M19.1688 6.14001C19.2872 6.25102 19.4012 6.35817 19.5152 6.46838L19.5154 6.46858C19.611 6.56148 19.6765 6.667 19.7087 6.7862C19.7409 6.90501 19.7383 7.03125 19.7072 7.16356L19.7071 7.16425C19.5563 7.78492 19.4067 8.40636 19.257 9.02809C18.9736 10.2051 18.6899 11.3831 18.3983 12.5587L18.3981 12.5596C18.3512 12.7419 18.2433 12.9263 18.1093 13.0603M19.1688 6.14001C19.2175 6.10269 19.2565 6.0727 19.2954 6.04276C19.9005 5.58062 20.4079 5.02605 20.7722 4.34544L20.7722 4.34535C21.0772 3.77416 21.1967 3.15659 21.0148 2.50766L21.0148 2.50758C20.6161 1.09005 18.9792 0.461154 17.6688 1.23368L17.6685 1.2339C17.265 1.47409 16.8872 1.79478 16.5677 2.13809C15.3105 3.48512 14.3798 5.03502 13.733 6.75364L13.7325 6.755C13.6467 6.99319 13.5743 7.24342 13.5355 7.4955C13.4756 7.86202 13.7022 8.17662 14.0433 8.23813L14.0433 8.23814L14.0447 8.23836C14.2227 8.26804 14.3894 8.23328 14.5257 8.14266C14.6614 8.05243 14.7608 7.91099 14.8135 7.7372L14.8135 7.73716C14.8257 7.6967 14.8379 7.65629 14.85 7.61595C14.9455 7.29857 15.0395 6.98575 15.1661 6.68754C15.6502 5.56115 16.2833 4.52304 17.0469 3.57779C17.3291 3.23095 17.6443 2.91097 17.9748 2.60842L17.9759 2.60741C18.1281 2.46385 18.3313 2.34823 18.5374 2.27204C18.8982 2.14056 19.2347 2.21879 19.5238 2.48195L19.5239 2.48206C19.7937 2.72693 19.8438 3.04501 19.7437 3.39334C19.6907 3.57422 19.6015 3.75339 19.5012 3.91757C19.2096 4.39146 18.8211 4.7717 18.3689 5.10396C18.2914 5.15992 18.2483 5.16888 18.2222 5.16577C18.1969 5.16275 18.1595 5.14496 18.1019 5.07452L18.1018 5.07437C18.0232 4.97866 17.9299 4.88967 17.8417 4.80551C17.8044 4.76995 17.768 4.73526 17.7341 4.70128C17.6365 4.6037 17.5518 4.52496 17.4735 4.47097C17.3944 4.4164 17.3127 4.38064 17.2223 4.38237C17.1323 4.38409 17.0511 4.42268 16.9721 4.47997C16.8936 4.53687 16.8084 4.61898 16.7096 4.72129L16.7096 4.72127L16.7078 4.72318C16.6373 4.80009 16.5718 4.88973 16.5093 4.97535C16.4777 5.01862 16.4469 5.06085 16.4165 5.0999L16.364 5.16735L16.4225 5.22969C16.4368 5.24495 16.4504 5.25954 16.4635 5.2736C16.514 5.32764 16.5571 5.37376 16.603 5.41962L16.6033 5.41993C16.8048 5.61968 17.0054 5.82054 17.2062 6.02153C17.5414 6.35712 17.877 6.69305 18.2174 7.02467L18.2178 7.02502C18.2777 7.08286 18.3081 7.12775 18.3221 7.1716C18.3357 7.21447 18.3375 7.26829 18.3168 7.35092L18.3168 7.35113C18.1244 8.12763 17.9367 8.90525 17.7491 9.68252L17.7491 9.68286C17.5614 10.4604 17.3739 11.2375 17.1817 12.0134L17.1813 12.015C17.1581 12.1154 17.0942 12.2213 17.0157 12.2998C14.9614 14.3541 12.9024 16.4084 10.8433 18.4628L10.8432 18.4629L10.8431 18.463C10.6024 18.7037 10.3654 18.9447 10.1224 19.1917C10.0139 19.302 9.90427 19.4135 9.79255 19.5267C8.54686 18.2739 7.31094 17.0298 6.0784 15.789C4.8913 14.594 3.70735 13.4022 2.52082 12.2089C4.93548 9.79888 7.35484 7.3889 9.7695 4.98831L9.7697 4.9881C9.82058 4.93723 9.902 4.89354 9.981 4.87375C10.2142 4.81654 10.4472 4.75903 10.68 4.70155C11.689 4.45246 12.6957 4.20394 13.7118 3.98322L13.712 3.98316C14.1925 3.87746 14.6008 3.70262 14.8363 3.20602L14.8366 3.20534C14.8788 3.11448 14.9381 3.0287 15.0059 2.94022C15.0294 2.90944 15.0549 2.87729 15.081 2.8444C15.1267 2.78675 15.1742 2.72684 15.2164 2.66802L15.2171 2.66704C15.2456 2.62637 15.2715 2.5785 15.3042 2.51819C15.3139 2.50024 15.3242 2.48118 15.3354 2.46089L15.429 2.29069L15.2361 2.31339C15.1781 2.32021 15.1268 2.32373 15.077 2.32715C15.0608 2.32826 15.0447 2.32937 15.0287 2.33057C14.9654 2.33529 14.9019 2.34158 14.839 2.35787C14.1217 2.52856 13.4056 2.70072 12.6898 2.87282C11.6543 3.12177 10.6194 3.37057 9.58241 3.61458C9.30005 3.68016 9.07743 3.81216 8.87781 4.01178C6.32644 6.56316 3.77037 9.11453 1.21427 11.6659L1.21371 11.6665L1.21365 11.6666C1.01984 11.8604 0.899261 12.0437 0.900003 12.2442C0.900746 12.4446 1.02253 12.6277 1.21859 12.8214C2.55441 14.1525 3.89023 15.4848 5.22607 16.8171L5.22875 16.8198C6.56552 18.1531 7.90231 19.4863 9.2391 20.8184L9.23946 20.8188C9.41974 20.9966 9.59884 21.1045 9.79318 21.1038C9.98743 21.1031 10.1663 20.9939 10.3465 20.8137M19.1688 6.14001C19.1567 6.12876 19.1447 6.11747 19.1326 6.10613C19.12 6.09437 19.1074 6.08256 19.0948 6.07069C19.1498 6.0286 19.1922 5.99598 19.2346 5.96336C19.8303 5.50838 20.3275 4.96429 20.684 4.29825L10.2759 20.7429M18.1093 13.0603C18.1093 13.0603 18.1093 13.0603 18.1094 13.0603L18.0386 12.9896M18.1093 13.0603L18.0386 12.9896M18.1093 13.0603C15.5248 15.6495 12.9356 18.234 10.3465 20.8137M18.0386 12.9896C15.4542 15.5787 12.865 18.1632 10.2759 20.7429M10.2759 20.7429L10.3466 20.8136C10.3466 20.8137 10.3465 20.8137 10.3465 20.8137M10.2759 20.7429L10.3465 20.8137M17.7196 1.31983C18.9767 0.578741 20.5386 1.18381 20.9185 2.53465L15.0742 6.64816C14.9453 6.95184 14.8495 7.27028 14.7542 7.58712C14.7421 7.62751 14.73 7.66789 14.7178 7.7082C14.6239 8.01777 14.3707 8.19131 14.0611 8.13972C13.775 8.08812 13.5827 7.82546 13.6343 7.5112C13.6718 7.2673 13.7421 7.02339 13.8266 6.78887C14.4692 5.08156 15.3932 3.54309 16.6408 2.20632C16.9551 1.86861 17.3256 1.55435 17.7196 1.31983ZM16.5952 5.02749C16.6554 4.94495 16.7145 4.86389 16.7815 4.79075L18.2872 6.95304C17.9471 6.6218 17.6126 6.28689 17.2778 5.95175C17.0769 5.75064 16.876 5.54945 16.6737 5.34891C16.6291 5.30436 16.5875 5.25982 16.5372 5.20597C16.524 5.19178 16.5101 5.17695 16.4954 5.16129C16.5299 5.11693 16.5627 5.072 16.5952 5.02749Z"
        fill="#8E9CBE" stroke="#8E9CBE" stroke-width="0.2" />
    <path
        d="M13.4708 5.47091L13.5333 5.2916L13.3501 5.34156C12.1699 5.66343 11.3572 6.76005 11.3815 8.00565L11.3815 8.00572C11.4059 9.21442 12.2817 10.2998 13.4615 10.5729C14.6792 10.8602 15.9205 10.2803 16.4996 9.18074C16.7591 8.68858 16.8325 8.11887 16.7725 7.60514C16.7128 7.09332 16.5188 6.6235 16.2279 6.33763L16.1306 6.24199L16.0687 6.3636C15.8015 6.88869 15.5448 7.42844 15.4769 8.04397C15.441 8.34804 15.3434 8.60049 15.1874 8.79911C15.0316 8.99747 14.8134 9.14758 14.5274 9.2407L14.5274 9.24069L14.5268 9.24091C13.9728 9.42556 13.47 9.29983 13.0701 8.86473L13.0701 8.8647C12.8662 8.64314 12.7518 8.40759 12.713 8.15944C12.674 7.91048 12.7101 7.642 12.8181 7.35401L12.8182 7.3537C12.9671 6.95264 13.1046 6.54624 13.2426 6.13879C13.3179 5.91625 13.3934 5.69339 13.4708 5.47091Z"
        fill="#8E9CBE" stroke="#8E9CBE" stroke-width="0.2" />
</svg>