<svg viewBox="0 0 17 15" id="properties" xmlns="http://www.w3.org/2000/svg">
    <path
        d="M3.89017 7.20715C3.89017 7.30171 3.89017 7.36576 3.89017 7.43287C3.89017 9.3545 3.89017 11.2731 3.89017 13.1947C3.89017 13.576 3.72546 13.8414 3.42044 13.9573C2.95986 14.1311 2.47487 13.8078 2.44437 13.3045C2.44132 13.2496 2.44132 13.1917 2.44132 13.1368C2.44132 11.2304 2.44132 9.32705 2.44132 7.42067C2.44132 7.35966 2.44132 7.30171 2.44132 7.2163C2.21866 7.2163 2.00819 7.2163 1.79773 7.2163C1.61166 7.2163 1.43475 7.18275 1.28224 7.06684C1.04127 6.87773 0.940617 6.56661 1.03517 6.27684C1.12668 5.99012 1.38595 5.7766 1.69402 5.77355C2.67314 5.76745 3.6553 5.7644 4.63442 5.77355C5.0218 5.7766 5.32682 6.09992 5.33292 6.4812C5.33902 6.85943 5.06145 7.1797 4.67408 7.20715C4.42091 7.21935 4.16774 7.20715 3.89017 7.20715Z"
        stroke-width="0.5" />
    <path
        d="M7.77287 10.3915C7.5197 10.3915 7.28789 10.3976 7.05302 10.3915C6.68699 10.3793 6.40942 10.1414 6.33927 9.79675C6.27827 9.47952 6.45213 9.1379 6.75715 9.00979C6.84866 8.97014 6.95236 8.94574 7.05302 8.94574C8.01384 8.93964 8.97465 8.93964 9.93242 8.94574C10.271 8.94879 10.5303 9.1501 10.6279 9.44597C10.7194 9.72964 10.6279 10.0408 10.3961 10.2299C10.2527 10.3488 10.0849 10.3946 9.90192 10.3946C9.68535 10.3946 9.46574 10.3946 9.22172 10.3946C9.22172 10.4617 9.22172 10.5196 9.22172 10.5776C9.22172 11.4622 9.22477 12.3467 9.22172 13.2282C9.22172 13.6675 8.92585 13.9877 8.52322 13.9969C8.09314 14.006 7.77592 13.6888 7.77287 13.2313C7.76982 12.3528 7.77287 11.4744 7.77287 10.5959C7.77287 10.5379 7.77287 10.4769 7.77287 10.3915Z"
        stroke-width="0.5" />
    <path
        d="M13.1074 10.1689C13.1074 9.15926 13.1074 8.14658 13.1074 7.13697C13.1074 6.75874 13.2935 6.48422 13.6077 6.38051C14.0591 6.2341 14.5136 6.54522 14.5532 7.03021C14.5563 7.05461 14.5563 7.08206 14.5563 7.10646C14.5563 9.14705 14.5563 11.1907 14.5563 13.2313C14.5563 13.6126 14.3489 13.8871 14.0042 13.9755C13.6077 14.0792 13.1928 13.8139 13.1257 13.4082C13.1105 13.3228 13.1074 13.2374 13.1074 13.1489C13.1074 12.1576 13.1074 11.1632 13.1074 10.1689Z"
        stroke-width="0.5" />
    <path
        d="M13.1068 3.74516C13.1068 3.42184 13.1068 3.12292 13.1068 2.824C13.1068 2.46712 13.1038 2.1133 13.1068 1.75642C13.1129 1.31414 13.418 0.999969 13.8328 0.999969C14.2446 0.999969 14.5496 1.32024 14.5526 1.76252C14.5557 2.36341 14.5526 2.96126 14.5526 3.56215C14.5526 3.61705 14.5526 3.67195 14.5526 3.74516C14.8028 3.74516 15.0407 3.74211 15.2786 3.74516C15.6477 3.75126 15.9466 4.01663 15.9893 4.37045C16.032 4.73953 15.8063 5.072 15.4463 5.16351C15.3914 5.17571 15.3365 5.18181 15.2816 5.18181C14.3117 5.18181 13.3417 5.18486 12.3717 5.18181C11.9783 5.17876 11.6671 4.86154 11.6641 4.47111C11.661 4.07458 11.9722 3.75431 12.3717 3.74516C12.5608 3.74211 12.7469 3.74516 12.936 3.74516C12.9848 3.74516 13.0367 3.74516 13.1068 3.74516Z"
        stroke-width="0.5" />
    <path
        d="M7.7726 4.38876C7.7726 3.5164 7.76955 2.64099 7.7726 1.76863C7.7726 1.33855 8.06847 1.01828 8.46194 1.00608C8.88897 0.990825 9.2123 1.30195 9.22145 1.74423C9.22755 2.01875 9.22145 2.29327 9.22145 2.56778C9.22145 4.03189 9.22145 5.49294 9.22145 6.95704C9.22145 7.0638 9.21535 7.1736 9.18789 7.27426C9.10249 7.59453 8.79747 7.805 8.46499 7.78975C8.12947 7.7745 7.8519 7.53963 7.79395 7.21021C7.7787 7.1309 7.77565 7.04854 7.77565 6.96924C7.7726 6.10603 7.7726 5.24587 7.7726 4.38876Z"
        stroke-width="0.5" />
    <path
        d="M2.44126 2.7935C2.44126 2.43662 2.43516 2.0828 2.44431 1.72592C2.45041 1.3538 2.71273 1.05183 3.0635 1.00607C3.41123 0.95727 3.7437 1.16163 3.84741 1.49411C3.87486 1.57951 3.88706 1.67407 3.88706 1.76253C3.89011 2.45797 3.89316 3.15342 3.88706 3.85192C3.88401 4.2149 3.69185 4.48026 3.37157 4.57787C3.0757 4.66938 2.74323 4.56567 2.58157 4.3003C2.50226 4.16914 2.45346 3.99833 2.44431 3.84277C2.42601 3.4981 2.44126 3.14427 2.44126 2.7935Z"
        stroke-width="0.5" />
</svg>