<svg width="21" height="20" viewBox="0 0 21 20" fill="none" xmlns="http://www.w3.org/2000/svg">
<path d="M16.2604 4.26367H0.782267C0.395313 4.26367 0.0976562 4.56133 0.0976562 4.94828V15.9318C0.0976562 16.3188 0.395313 16.6164 0.782267 16.6164H10.218L13.4922 19.8907C13.7303 20.1288 14.1471 19.9502 14.1471 19.6228V16.6164H16.2604C16.6474 16.6164 16.945 16.3188 16.945 15.9318V4.94828C16.945 4.59109 16.6474 4.26367 16.2604 4.26367V4.26367Z" fill="#2DCFFF"/>
<path d="M15.1308 6.91306H1.82555C1.70648 6.91306 1.61719 6.82376 1.61719 6.7047C1.61719 6.58564 1.70648 6.49634 1.82555 6.49634H15.1308C15.2499 6.49634 15.3392 6.58564 15.3392 6.7047C15.3392 6.82376 15.2499 6.91306 15.1308 6.91306Z" fill="#F5FCFD"/>
<path d="M15.1308 9.38303H1.82555C1.70648 9.38303 1.61719 9.29373 1.61719 9.17467C1.61719 9.05561 1.70648 8.96631 1.82555 8.96631H15.1308C15.2499 8.96631 15.3392 9.05561 15.3392 9.17467C15.3392 9.29373 15.2499 9.38303 15.1308 9.38303Z" fill="#F5FCFD"/>
<path d="M15.1308 11.8833H1.82555C1.70648 11.8833 1.61719 11.794 1.61719 11.6749C1.61719 11.5558 1.70648 11.4666 1.82555 11.4666H15.1308C15.2499 11.4666 15.3392 11.5558 15.3392 11.6749C15.3392 11.794 15.2499 11.8833 15.1308 11.8833Z" fill="#F5FCFD"/>
<path d="M8.43353 14.3547H1.82555C1.70648 14.3547 1.61719 14.2654 1.61719 14.1463C1.61719 14.0273 1.70648 13.938 1.82555 13.938H8.40377C8.52283 13.938 8.61213 14.0273 8.61213 14.1463C8.61213 14.2654 8.52283 14.3547 8.43353 14.3547Z" fill="#F5FCFD"/>
<path d="M9.65469 12.1819L9.89282 11.8247L9.11891 11.0508L8.76172 11.2889C8.88078 11.5866 9.35703 12.0628 9.65469 12.1819V12.1819Z" fill="#52526C"/>
<path d="M9.65243 12.1818C9.325 12.033 8.87852 11.5865 8.75946 11.2888L7.89625 11.8544C7.89625 11.8544 7.77719 12.9557 7.53906 13.4319C8.01531 13.2236 9.11664 13.0748 9.11664 13.0748L9.65243 12.1818Z" fill="#FCD462"/>
<path d="M8.74214 12.46C8.81188 12.3903 8.81188 12.2772 8.74214 12.2075C8.67239 12.1377 8.55931 12.1377 8.48957 12.2075C8.41982 12.2772 8.41982 12.3903 8.48957 12.46C8.55931 12.5298 8.67239 12.5298 8.74214 12.46Z" fill="#52526C"/>
<path d="M14.4172 5.51411C14.3577 5.45458 14.2981 5.48434 14.2386 5.51411L8.94032 10.8422C8.82125 10.9612 9.02961 11.3184 9.32727 11.6161L14.9232 6.02012L14.4172 5.51411Z" fill="#64798A"/>
<path d="M15.4262 6.52628L14.9202 6.02026L9.32422 11.6162C9.62188 11.9139 9.97906 12.152 10.0981 12.0032L15.4262 6.70487C15.4857 6.64534 15.4857 6.55605 15.4262 6.52628Z" fill="#3A556A"/>
<path d="M19.5041 0.245088C19.4445 0.185557 19.3552 0.185557 19.2957 0.245088L13.9974 5.54338C13.8784 5.66244 14.1462 6.07916 14.5034 6.43635L20.0994 0.840402L19.5041 0.245088Z" fill="#FCD462"/>
<path d="M20.6952 1.43613L20.0999 0.84082L14.5039 6.43677C14.8611 6.79396 15.248 7.06185 15.3969 6.94279L20.6952 1.64449C20.7547 1.58496 20.7547 1.49567 20.6952 1.43613Z" fill="#52526C"/>
<path d="M20.6969 0.245361L20.1016 0.840675L20.6969 1.43599C21.0243 1.10857 21.0243 0.572784 20.6969 0.245361V0.245361Z" fill="#E1E6E9"/>
<path d="M20.6945 0.245567C20.3671 -0.0818557 19.8313 -0.0818557 19.5039 0.245567L20.0992 0.840881L20.6945 0.245567Z" fill="#43B0F2"/>
<path d="M15.7834 5.39549L19.5338 1.8236C19.6529 1.70454 19.6827 1.49618 19.5338 1.34735C19.4148 1.22829 19.2064 1.22829 19.0576 1.34735L15.4857 5.09783C15.4559 5.06807 15.3964 5.06807 15.3964 5.1276L15.2773 5.51455C15.2773 5.54432 15.3071 5.60385 15.3369 5.57408L15.7238 5.45502C15.8131 5.48479 15.8131 5.42525 15.7834 5.39549Z" fill="#DC8744"/>
</svg>
