<svg width="21" height="20" viewBox="0 0 21 20" fill="none" xmlns="http://www.w3.org/2000/svg">
<g clip-path="url(#clip0_1868_4755)">
<path d="M3.38251 11.5202H2.76628C2.35384 11.5202 2.01953 11.1859 2.01953 10.7734V10.5776C2.01953 10.1652 2.35384 9.83081 2.76628 9.83081H3.38251C3.7949 9.83081 4.12926 10.1651 4.12926 10.5776V10.7734C4.12926 11.1859 3.7949 11.5202 3.38251 11.5202V11.5202Z" fill="url(#paint0_linear_1868_4755)"/>
<path d="M18.2809 11.5202H17.6647C17.2523 11.5202 16.918 11.1859 16.918 10.7734V10.5776C16.918 10.1652 17.2523 9.83081 17.6647 9.83081H18.2809C18.6934 9.83081 19.0277 10.1651 19.0277 10.5776V10.7734C19.0277 11.1859 18.6934 11.5202 18.2809 11.5202V11.5202Z" fill="url(#paint1_linear_1868_4755)"/>
<path d="M18.2809 11.5203C18.5 11.5203 18.6964 11.4253 18.833 11.2751L17.4279 9.86987C17.1317 9.96897 16.918 10.2481 16.918 10.5776V10.7735C16.918 11.186 17.2523 11.5203 17.6647 11.5203H18.2809Z" fill="url(#paint2_linear_1868_4755)"/>
<path d="M12.8435 6.33213H8.20312L8.70371 4.34225C8.74305 4.18582 8.88371 4.07617 9.04505 4.07617H12.0017C12.163 4.07617 12.3036 4.18582 12.343 4.34225L12.8435 6.33213Z" fill="url(#paint3_linear_1868_4755)"/>
<path d="M12.846 6.3319L12.357 4.38794H9.50169C9.3404 4.38794 9.19973 4.49759 9.16036 4.65402L8.73828 6.3319H12.846Z" fill="url(#paint4_linear_1868_4755)"/>
<path d="M15.6284 6.00024C12.2276 5.80005 8.81791 5.80005 5.41708 6.00024C5.09375 6.01926 4.81461 6.23323 4.71218 6.54048L2.98438 11.7237H10.5227H18.0611L16.3333 6.54048C16.2308 6.23323 15.9517 6.01926 15.6284 6.00024V6.00024Z" fill="url(#paint5_linear_1868_4755)"/>
<path d="M14.9381 6.77435C11.9971 6.60126 9.04857 6.60126 6.10763 6.77435C5.82802 6.79083 5.58661 6.97585 5.49806 7.24153L4.00391 11.7238H10.5228H17.0418L15.5476 7.24157C15.4591 6.97585 15.2177 6.79083 14.9381 6.77435V6.77435Z" fill="url(#paint6_linear_1868_4755)"/>
<path d="M10.5223 11.7235H18.0606L16.3328 6.54027C16.2896 6.41047 16.2145 6.2976 16.1181 6.20874L9.11328 11.7235H10.5223Z" fill="url(#paint7_linear_1868_4755)"/>
<path d="M14.623 7.12932C11.8929 6.96861 9.15572 6.96861 6.4256 7.12932C6.16603 7.14461 5.94195 7.31634 5.85972 7.56301L4.47266 11.724H10.5243H16.576L15.1889 7.56301C15.1067 7.31634 14.8826 7.14457 14.623 7.12932V7.12932Z" fill="url(#paint8_linear_1868_4755)"/>
<path d="M14.3596 7.42502C11.8054 7.27467 9.24458 7.27467 6.69038 7.42502C6.44756 7.4393 6.23787 7.6 6.16097 7.83079L4.86328 11.7236H10.525H16.1867L14.889 7.83079C14.8121 7.6 14.6025 7.4393 14.3596 7.42502V7.42502Z" fill="url(#paint9_linear_1868_4755)"/>
<path d="M4.59058 20.0002H1.87815C1.53772 20.0002 1.26172 19.7242 1.26172 19.3838V14.2944C1.26172 13.9119 1.5718 13.6018 1.95435 13.6018H4.51439C4.89693 13.6018 5.20701 13.9119 5.20701 14.2944V19.3838C5.20701 19.7242 4.93105 20.0002 4.59058 20.0002V20.0002Z" fill="url(#paint10_linear_1868_4755)"/>
<path d="M2.10938 13.6016V17.9302C2.10938 18.2133 2.222 18.4849 2.42243 18.6849L3.73988 20H4.58902C4.92945 20 5.20545 19.724 5.20545 19.3835V14.2942C5.20545 13.9117 4.89534 13.6016 4.51283 13.6016H2.10938Z" fill="url(#paint11_linear_1868_4755)"/>
<path d="M3.23438 20.0002H4.59061C4.93104 20.0002 5.20704 19.7242 5.20704 19.3838V14.2944C5.20704 13.9119 4.89692 13.6018 4.51441 13.6018H3.23441V20.0002H3.23438Z" fill="url(#paint12_linear_1868_4755)"/>
<path d="M19.1687 20.0002H16.4563C16.1158 20.0002 15.8398 19.7242 15.8398 19.3838V14.2944C15.8398 13.9119 16.15 13.6018 16.5325 13.6018H19.0925C19.475 13.6018 19.7851 13.9119 19.7851 14.2944V19.3838C19.7851 19.7242 19.5091 20.0002 19.1687 20.0002V20.0002Z" fill="url(#paint13_linear_1868_4755)"/>
<path d="M16.5325 13.6018C16.1499 13.6018 15.8398 13.9119 15.8398 14.2944V18.3727L15.8418 18.3717L17.4704 20.0002H19.1687C19.5091 20.0002 19.7851 19.7242 19.7851 19.3838V14.2944C19.7851 13.9119 19.475 13.6018 19.0925 13.6018H16.5325Z" fill="url(#paint14_linear_1868_4755)"/>
<path d="M17.8125 20.0002H19.1687C19.5092 20.0002 19.7852 19.7242 19.7852 19.3838V14.2944C19.7852 13.9119 19.4751 13.6018 19.0925 13.6018H17.8125V20.0002H17.8125Z" fill="url(#paint15_linear_1868_4755)"/>
<path d="M18.8609 17.3204H2.19082C1.87615 17.3204 1.62109 17.0653 1.62109 16.7507V12.5223C1.62109 12.0576 1.94831 11.6572 2.40372 11.5645L2.52705 11.5395C7.848 10.4576 13.333 10.4655 18.6508 11.5628C19.1049 11.6565 19.4306 12.0563 19.4306 12.52V16.7507C19.4306 17.0653 19.1755 17.3204 18.8609 17.3204Z" fill="url(#paint16_linear_1868_4755)"/>
<path d="M19.4306 13.0029V12.5199C19.4306 12.0563 19.1049 11.6564 18.6508 11.5628C13.333 10.4655 7.848 10.4576 2.52705 11.5395L2.40372 11.5645C1.94835 11.6571 1.62109 12.0575 1.62109 12.5223V13.0029H19.4306Z" fill="url(#paint17_linear_1868_4755)"/>
<path d="M18.3982 17.3203H2.64769C2.35039 17.3203 2.10938 17.0863 2.10938 16.7977V12.919C2.10938 12.4928 2.41855 12.1254 2.84883 12.0405L2.96534 12.0175C7.99275 11.0251 13.1752 11.0324 18.1997 12.0389C18.6287 12.1249 18.9365 12.4916 18.9365 12.9169V16.7977C18.9365 17.0863 18.6955 17.3203 18.3982 17.3203V17.3203Z" fill="url(#paint18_linear_1868_4755)"/>
<path d="M10.2762 17.2141V17.76H4.78382L2.63389 15.6101C2.52625 15.5198 2.45703 15.3839 2.45703 15.2314V14.0959C2.45703 13.8229 2.67876 13.6018 2.95174 13.6018H6.66331C6.81582 13.6018 6.95166 13.6704 7.04201 13.7787C7.06444 13.7973 10.0993 16.8353 10.0993 16.8353C10.207 16.9264 10.2762 17.0622 10.2762 17.2141V17.2141Z" fill="url(#paint19_linear_1868_4755)"/>
<path d="M19.4263 16.7504V14.7311C18.9001 14.2049 18.48 13.7853 18.4717 13.7784C18.3813 13.6701 18.2455 13.6016 18.093 13.6016H14.3814C14.1084 13.6016 13.8867 13.8226 13.8867 14.0956V15.2312C13.8867 15.3837 13.9559 15.5195 14.0636 15.6099L15.7738 17.3201H18.8565C19.1712 17.3201 19.4263 17.0651 19.4263 16.7504V16.7504Z" fill="url(#paint20_linear_1868_4755)"/>
<path d="M6.66339 15.7258H2.95123C2.67829 15.7258 2.45703 15.5046 2.45703 15.2317V14.096C2.45703 13.8231 2.67829 13.6018 2.95123 13.6018H6.66339C6.93633 13.6018 7.15758 13.8231 7.15758 14.096V15.2317C7.15758 15.5046 6.93633 15.7258 6.66339 15.7258Z" fill="url(#paint21_linear_1868_4755)"/>
<path d="M3.3067 13.9561C3.03375 13.9561 2.8125 14.1773 2.8125 14.4503V15.5859C2.8125 15.6286 2.8185 15.6699 2.8287 15.7094C2.86823 15.7196 2.90948 15.7256 2.95223 15.7256H6.66438C6.93732 15.7256 7.15858 15.5043 7.15858 15.2314V14.0957C7.15858 14.053 7.15258 14.0118 7.14238 13.9723C7.10285 13.9621 7.0616 13.9561 7.01885 13.9561H3.3067Z" fill="url(#paint22_linear_1868_4755)"/>
<path d="M6.84442 15.7257H5.14462C4.97199 15.7257 4.83203 15.5857 4.83203 15.4131V14.3202C4.83203 14.1475 4.97199 14.0076 5.14462 14.0076H6.84442C7.01705 14.0076 7.15701 14.1475 7.15701 14.3202V15.4131C7.15701 15.5857 7.01705 15.7257 6.84442 15.7257Z" fill="url(#paint23_linear_1868_4755)"/>
<path d="M6.07051 15.3051C6.42443 15.3051 6.71133 15.0182 6.71133 14.6643C6.71133 14.3103 6.42443 14.0234 6.07051 14.0234C5.71659 14.0234 5.42969 14.3103 5.42969 14.6643C5.42969 15.0182 5.71659 15.3051 6.07051 15.3051Z" fill="url(#paint24_linear_1868_4755)"/>
<path d="M18.0931 15.7256H14.3809C14.108 15.7256 13.8867 15.5043 13.8867 15.2314V14.0958C13.8867 13.8228 14.108 13.6016 14.3809 13.6016H18.0931C18.366 13.6016 18.5873 13.8228 18.5873 14.0958V15.2314C18.5873 15.5043 18.366 15.7256 18.0931 15.7256V15.7256Z" fill="url(#paint25_linear_1868_4755)"/>
<path d="M14.7364 13.9561C14.4634 13.9561 14.2422 14.1773 14.2422 14.4503V15.5859C14.2422 15.6286 14.2482 15.6699 14.2584 15.7094C14.2979 15.7196 14.3392 15.7256 14.3819 15.7256H18.094C18.367 15.7256 18.5882 15.5043 18.5882 15.2314V14.0957C18.5882 14.053 18.5822 14.0118 18.572 13.9723C18.5325 13.9621 18.4912 13.9561 18.4485 13.9561H14.7364Z" fill="url(#paint26_linear_1868_4755)"/>
<path d="M18.278 15.7259H16.5782C16.4056 15.7259 16.2656 15.586 16.2656 15.4133V14.3204C16.2656 14.1478 16.4056 14.0078 16.5782 14.0078H18.278C18.4506 14.0078 18.5906 14.1478 18.5906 14.3204V15.4133C18.5906 15.586 18.4506 15.7259 18.278 15.7259V15.7259Z" fill="url(#paint27_linear_1868_4755)"/>
<path d="M17.5002 15.3051C17.8541 15.3051 18.141 15.0182 18.141 14.6643C18.141 14.3103 17.8541 14.0234 17.5002 14.0234C17.1463 14.0234 16.8594 14.3103 16.8594 14.6643C16.8594 15.0182 17.1463 15.3051 17.5002 15.3051Z" fill="url(#paint28_linear_1868_4755)"/>
<path d="M18.4959 18.3713H2.54992C2.30659 18.3713 2.10938 18.1741 2.10938 17.9308V16.597C2.10938 16.3537 2.30663 16.1565 2.54992 16.1565H18.4959C18.7393 16.1565 18.9365 16.3537 18.9365 16.597V17.9308C18.9365 18.1741 18.7392 18.3713 18.4959 18.3713V18.3713Z" fill="url(#paint29_linear_1868_4755)"/>
<path d="M7.79362 15.2063H13.2552C13.3419 15.2063 13.4121 15.2765 13.4121 15.3632V15.3946C13.4121 15.4812 13.3419 15.5515 13.2552 15.5515H7.79362C7.70695 15.5515 7.63672 15.4812 7.63672 15.3946V15.3632C7.63672 15.2765 7.70695 15.2063 7.79362 15.2063V15.2063Z" fill="url(#paint30_linear_1868_4755)"/>
<path d="M7.79362 14.7292H13.2552C13.3419 14.7292 13.4121 14.7995 13.4121 14.8862V14.9175C13.4121 15.0042 13.3419 15.0744 13.2552 15.0744H7.79362C7.70695 15.0744 7.63672 15.0041 7.63672 14.9175V14.8862C7.63672 14.7995 7.70695 14.7292 7.79362 14.7292V14.7292Z" fill="url(#paint31_linear_1868_4755)"/>
<path d="M7.79362 14.2529H13.2552C13.3419 14.2529 13.4121 14.3232 13.4121 14.4098V14.4412C13.4121 14.5279 13.3419 14.5981 13.2552 14.5981H7.79362C7.70695 14.5981 7.63672 14.5279 7.63672 14.4412V14.4098C7.63672 14.3232 7.70695 14.2529 7.79362 14.2529V14.2529Z" fill="url(#paint32_linear_1868_4755)"/>
<path d="M7.79362 13.7761H13.2552C13.3419 13.7761 13.4121 13.8464 13.4121 13.933V13.9644C13.4121 14.0511 13.3419 14.1213 13.2552 14.1213H7.79362C7.70695 14.1213 7.63672 14.0511 7.63672 13.9644V13.933C7.63672 13.8464 7.70695 13.7761 7.79362 13.7761V13.7761Z" fill="url(#paint33_linear_1868_4755)"/>
<path d="M18.6483 11.5624C15.9684 11.0094 13.2459 10.7335 10.5234 10.7339V17.32H18.8585C19.1731 17.32 19.4282 17.065 19.4282 16.7503V12.5196C19.4282 12.056 19.1024 11.6561 18.6483 11.5624Z" fill="url(#paint34_linear_1868_4755)"/>
<path d="M9.04688 4.53184C9.04688 4.50302 9.05323 4.47808 9.06593 4.45694C9.07864 4.43584 9.09719 4.42529 9.12158 4.42529H9.80829C9.83264 4.42529 9.85119 4.43584 9.86393 4.45694C9.87664 4.47808 9.88299 4.50302 9.88299 4.53184C9.88299 4.56274 9.87637 4.5887 9.86311 4.60984C9.84986 4.63094 9.83158 4.64149 9.80829 4.64149H9.58891V5.51047C9.58891 5.53502 9.57672 5.55396 9.55237 5.56729C9.52797 5.58063 9.49884 5.58729 9.46495 5.58729C9.43103 5.58729 9.40189 5.58063 9.37754 5.56729C9.35315 5.55396 9.34099 5.53502 9.34099 5.51047V4.64149H9.12162C9.09829 4.64149 9.08001 4.63094 9.0668 4.60984C9.0535 4.5887 9.04688 4.56274 9.04688 4.53184V4.53184Z" fill="#555A66"/>
<path d="M9.80078 5.48533C9.80078 5.48216 9.80184 5.47635 9.80396 5.46784L10.0996 4.49819C10.1081 4.47172 10.1274 4.45129 10.1576 4.43698C10.1878 4.42266 10.2225 4.41553 10.2618 4.41553C10.301 4.41553 10.3357 4.4227 10.3659 4.43698C10.3961 4.45129 10.4154 4.47168 10.4239 4.49819L10.7211 5.46784C10.7233 5.47635 10.7243 5.48216 10.7243 5.48533C10.7243 5.5129 10.7071 5.53674 10.6727 5.55686C10.6382 5.57702 10.6024 5.58706 10.5654 5.58706C10.5198 5.58706 10.4928 5.57172 10.4843 5.54098L10.4303 5.34227H10.0949L10.0408 5.54098C10.0323 5.57172 10.0053 5.58706 9.95976 5.58706C9.92266 5.58706 9.8869 5.57702 9.85247 5.55686C9.818 5.53674 9.80078 5.5129 9.80078 5.48533ZM10.1457 5.15149H10.3778L10.2618 4.72549L10.1457 5.15149Z" fill="#555A66"/>
<path d="M10.7422 5.47423C10.7422 5.46047 10.747 5.44561 10.7565 5.42972L11.0315 5.00529L10.7676 4.58247C10.757 4.56553 10.7517 4.5491 10.7517 4.53317C10.7517 4.50137 10.7692 4.47384 10.8042 4.45051C10.8392 4.42721 10.8752 4.41553 10.9123 4.41553C10.9473 4.41553 10.9721 4.42933 10.987 4.45686L11.1984 4.82564L11.4098 4.45686C11.4247 4.42933 11.4496 4.41553 11.4845 4.41553C11.5216 4.41553 11.5577 4.42721 11.5926 4.45051C11.6276 4.47384 11.6451 4.50137 11.6451 4.53317C11.6451 4.54906 11.6398 4.56553 11.6292 4.58247L11.3653 5.00529L11.6403 5.42972C11.6498 5.44561 11.6546 5.46047 11.6546 5.47423C11.6546 5.50604 11.6363 5.53439 11.5998 5.55929C11.5632 5.58419 11.5264 5.59663 11.4893 5.59663C11.4596 5.59663 11.44 5.58812 11.4305 5.57121L11.1984 5.17698L10.9663 5.57121C10.9558 5.58815 10.9361 5.59663 10.9075 5.59663C10.8704 5.59663 10.8336 5.58419 10.7971 5.55929C10.7605 5.53439 10.7422 5.506 10.7422 5.47423V5.47423Z" fill="#555A66"/>
<path d="M11.7539 5.51098V4.5C11.7539 4.47565 11.7661 4.4571 11.7905 4.44435C11.8148 4.43165 11.8439 4.42529 11.8779 4.42529C11.9118 4.42529 11.9409 4.43165 11.9653 4.44435C11.9897 4.45706 12.0019 4.47561 12.0019 4.5V5.51098C12.0019 5.53537 11.9897 5.55416 11.9653 5.56741C11.9409 5.58067 11.9118 5.58729 11.8779 5.58729C11.844 5.58729 11.8148 5.58067 11.7905 5.56741C11.7661 5.55419 11.7539 5.53537 11.7539 5.51098Z" fill="#555A66"/>
<path d="M16.553 7.19458H15.7695V8.91654L17.8058 10.9528L16.553 7.19458Z" fill="url(#paint35_linear_1868_4755)"/>
<path d="M19.7877 3.82962C19.7877 1.71471 18.0732 0.000244141 15.9583 0.000244141C13.8526 0.000244141 12.1502 1.68475 12.1291 3.79032C12.1132 5.3806 13.0668 6.74985 14.435 7.3437C14.6639 7.44307 14.8598 7.60573 15.0001 7.81213L15.6852 8.82009C15.8162 9.01283 16.1003 9.01283 16.2313 8.82009L16.9164 7.81213C17.0563 7.60636 17.2511 7.4435 17.4794 7.3446C18.8375 6.75613 19.7877 5.40393 19.7877 3.82962V3.82962Z" fill="url(#paint36_linear_1868_4755)"/>
<path d="M15.9589 8.7737C15.9367 8.7737 15.881 8.76774 15.8436 8.71268L15.1585 7.70472C14.9973 7.4677 14.7736 7.28225 14.5115 7.16853C13.1658 6.58441 12.3058 5.25908 12.3205 3.79209C12.3302 2.82441 12.7124 1.91849 13.3968 1.24115C14.081 0.563938 14.991 0.190918 15.9588 0.190918C17.9651 0.190918 19.5974 1.82315 19.5974 3.82947C19.5974 5.28104 18.7365 6.59206 17.4041 7.16939C17.1435 7.28233 16.9205 7.46747 16.7592 7.70476L16.0741 8.71272C16.0367 8.76774 15.981 8.7737 15.9589 8.7737V8.7737Z" fill="url(#paint37_linear_1868_4755)"/>
<path d="M15.9579 6.23632C17.2873 6.23632 18.365 5.15862 18.365 3.82922C18.365 2.49981 17.2873 1.42212 15.9579 1.42212C14.6285 1.42212 13.5508 2.49981 13.5508 3.82922C13.5508 5.15862 14.6285 6.23632 15.9579 6.23632Z" fill="url(#paint38_linear_1868_4755)"/>
<path d="M19.6674 4.78285L17.3805 2.4959C17.0247 2.11653 16.519 1.87939 15.9579 1.87939C14.8809 1.87939 14.0078 2.75245 14.0078 3.8294C14.0078 4.39053 14.2449 4.89622 14.6243 5.25202L17.0345 7.66218C17.1583 7.52673 17.3094 7.41791 17.479 7.34442C18.5531 6.879 19.3719 5.93579 19.6674 4.78285V4.78285Z" fill="url(#paint39_linear_1868_4755)"/>
<path d="M15.9579 5.77947C17.0348 5.77947 17.9079 4.90641 17.9079 3.82943C17.9079 2.75246 17.0348 1.87939 15.9579 1.87939C14.8809 1.87939 14.0078 2.75246 14.0078 3.82943C14.0078 4.90641 14.8809 5.77947 15.9579 5.77947Z" fill="url(#paint40_linear_1868_4755)"/>
</g>
<defs>
<linearGradient id="paint0_linear_1868_4755" x1="2.8353" y1="10.0247" x2="3.27475" y2="11.221" gradientUnits="userSpaceOnUse">
<stop stop-color="#7E8595"/>
<stop offset="1" stop-color="#555A66"/>
</linearGradient>
<linearGradient id="paint1_linear_1868_4755" x1="17.7338" y1="10.0247" x2="18.1732" y2="11.221" gradientUnits="userSpaceOnUse">
<stop stop-color="#7E8595"/>
<stop offset="1" stop-color="#555A66"/>
</linearGradient>
<linearGradient id="paint2_linear_1868_4755" x1="19.2333" y1="12.5368" x2="16.9802" y2="10.2837" gradientUnits="userSpaceOnUse">
<stop stop-color="#555A66" stop-opacity="0"/>
<stop offset="1" stop-color="#555A66"/>
</linearGradient>
<linearGradient id="paint3_linear_1868_4755" x1="10.0039" y1="4.63154" x2="10.7557" y2="6.59268" gradientUnits="userSpaceOnUse">
<stop stop-color="#F9F7FC"/>
<stop offset="1" stop-color="#F0DDFC"/>
</linearGradient>
<linearGradient id="paint4_linear_1868_4755" x1="10.7122" y1="5.66774" x2="10.1045" y2="4.53076" gradientUnits="userSpaceOnUse">
<stop stop-color="#E9EDF5" stop-opacity="0"/>
<stop offset="1" stop-color="white"/>
</linearGradient>
<linearGradient id="paint5_linear_1868_4755" x1="10.0623" y1="7.86272" x2="10.5392" y2="11.8615" gradientUnits="userSpaceOnUse">
<stop stop-color="#FFDA45"/>
<stop offset="1" stop-color="#FFA425"/>
</linearGradient>
<linearGradient id="paint6_linear_1868_4755" x1="10.8566" y1="13.0835" x2="7.64712" y2="0.00941246" gradientUnits="userSpaceOnUse">
<stop stop-color="#FFDA45" stop-opacity="0"/>
<stop offset="1" stop-color="#B53759"/>
</linearGradient>
<linearGradient id="paint7_linear_1868_4755" x1="13.2884" y1="9.22878" x2="12.5995" y2="3.47364" gradientUnits="userSpaceOnUse">
<stop stop-color="#FFDA45" stop-opacity="0"/>
<stop offset="1" stop-color="#B53759"/>
</linearGradient>
<linearGradient id="paint8_linear_1868_4755" x1="8.83854" y1="7.11504" x2="11.1087" y2="12.897" gradientUnits="userSpaceOnUse">
<stop stop-color="#7E8595"/>
<stop offset="1" stop-color="#555A66"/>
</linearGradient>
<linearGradient id="paint9_linear_1868_4755" x1="10.4497" y1="10.5857" x2="1.47097" y2="-2.3989" gradientUnits="userSpaceOnUse">
<stop stop-color="#BEC3D2" stop-opacity="0"/>
<stop offset="0.5577" stop-color="#D4D9E4" stop-opacity="0.558"/>
<stop offset="1" stop-color="#E9EDF5"/>
</linearGradient>
<linearGradient id="paint10_linear_1868_4755" x1="3.60144" y1="17.1904" x2="6.67235" y2="20.2613" gradientUnits="userSpaceOnUse">
<stop stop-color="#7E8595"/>
<stop offset="1" stop-color="#555A66"/>
</linearGradient>
<linearGradient id="paint11_linear_1868_4755" x1="5.12526" y1="19.3014" x2="3.78024" y2="16.4169" gradientUnits="userSpaceOnUse">
<stop stop-color="#555A66" stop-opacity="0"/>
<stop offset="1" stop-color="#555A66"/>
</linearGradient>
<linearGradient id="paint12_linear_1868_4755" x1="4.39704" y1="16.2407" x2="1.95524" y2="20.8031" gradientUnits="userSpaceOnUse">
<stop stop-color="#555A66" stop-opacity="0"/>
<stop offset="1" stop-color="#555A66"/>
</linearGradient>
<linearGradient id="paint13_linear_1868_4755" x1="18.1795" y1="17.1904" x2="21.2504" y2="20.2613" gradientUnits="userSpaceOnUse">
<stop stop-color="#7E8595"/>
<stop offset="1" stop-color="#555A66"/>
</linearGradient>
<linearGradient id="paint14_linear_1868_4755" x1="19.3664" y1="18.9397" x2="17.8101" y2="16.2367" gradientUnits="userSpaceOnUse">
<stop stop-color="#555A66" stop-opacity="0"/>
<stop offset="1" stop-color="#555A66"/>
</linearGradient>
<linearGradient id="paint15_linear_1868_4755" x1="18.9752" y1="16.2407" x2="16.5334" y2="20.8031" gradientUnits="userSpaceOnUse">
<stop stop-color="#555A66" stop-opacity="0"/>
<stop offset="1" stop-color="#555A66"/>
</linearGradient>
<linearGradient id="paint16_linear_1868_4755" x1="10.5258" y1="16.5638" x2="10.5258" y2="10.9597" gradientUnits="userSpaceOnUse">
<stop stop-color="#FFDA45"/>
<stop offset="1" stop-color="#FFA425"/>
</linearGradient>
<linearGradient id="paint17_linear_1868_4755" x1="10.2389" y1="11.065" x2="10.9658" y2="15.2553" gradientUnits="userSpaceOnUse">
<stop stop-color="#FFDA45"/>
<stop offset="1" stop-color="#FFA425"/>
</linearGradient>
<linearGradient id="paint18_linear_1868_4755" x1="9.49875" y1="13.0027" x2="7.13055" y2="8.82548" gradientUnits="userSpaceOnUse">
<stop stop-color="#FFDA45" stop-opacity="0"/>
<stop offset="1" stop-color="#FCEE21"/>
</linearGradient>
<linearGradient id="paint19_linear_1868_4755" x1="6.71511" y1="17.2151" x2="3.67848" y2="8.57" gradientUnits="userSpaceOnUse">
<stop stop-color="#F92814" stop-opacity="0"/>
<stop offset="1" stop-color="#C1272D"/>
</linearGradient>
<linearGradient id="paint20_linear_1868_4755" x1="17.1822" y1="16.5202" x2="14.7772" y2="9.67333" gradientUnits="userSpaceOnUse">
<stop stop-color="#F92814" stop-opacity="0"/>
<stop offset="1" stop-color="#C1272D"/>
</linearGradient>
<linearGradient id="paint21_linear_1868_4755" x1="4.59825" y1="14.0746" x2="5.6555" y2="17.0542" gradientUnits="userSpaceOnUse">
<stop stop-color="#F9F7FC"/>
<stop offset="1" stop-color="#F0DDFC"/>
</linearGradient>
<linearGradient id="paint22_linear_1868_4755" x1="5.25603" y1="15.1544" x2="3.82497" y2="13.4953" gradientUnits="userSpaceOnUse">
<stop stop-color="#E9EDF5" stop-opacity="0"/>
<stop offset="1" stop-color="white"/>
</linearGradient>
<linearGradient id="paint23_linear_1868_4755" x1="5.99454" y1="15.161" x2="5.99454" y2="11.1754" gradientUnits="userSpaceOnUse">
<stop stop-color="#F0DDFC" stop-opacity="0"/>
<stop offset="0.2889" stop-color="#C8B7E0" stop-opacity="0.289"/>
<stop offset="0.5915" stop-color="#A595C8" stop-opacity="0.592"/>
<stop offset="0.8395" stop-color="#8F81B8" stop-opacity="0.84"/>
<stop offset="1" stop-color="#8779B3"/>
</linearGradient>
<linearGradient id="paint24_linear_1868_4755" x1="6.07051" y1="15.4434" x2="6.07051" y2="14.2707" gradientUnits="userSpaceOnUse">
<stop stop-color="#E9EDF5" stop-opacity="0"/>
<stop offset="1" stop-color="white"/>
</linearGradient>
<linearGradient id="paint25_linear_1868_4755" x1="16.0279" y1="14.0743" x2="17.0852" y2="17.054" gradientUnits="userSpaceOnUse">
<stop stop-color="#F9F7FC"/>
<stop offset="1" stop-color="#F0DDFC"/>
</linearGradient>
<linearGradient id="paint26_linear_1868_4755" x1="16.6857" y1="15.1544" x2="15.2547" y2="13.4953" gradientUnits="userSpaceOnUse">
<stop stop-color="#E9EDF5" stop-opacity="0"/>
<stop offset="1" stop-color="white"/>
</linearGradient>
<linearGradient id="paint27_linear_1868_4755" x1="17.4281" y1="15.1613" x2="17.4281" y2="11.1756" gradientUnits="userSpaceOnUse">
<stop stop-color="#F0DDFC" stop-opacity="0"/>
<stop offset="0.2889" stop-color="#C8B7E0" stop-opacity="0.289"/>
<stop offset="0.5915" stop-color="#A595C8" stop-opacity="0.592"/>
<stop offset="0.8395" stop-color="#8F81B8" stop-opacity="0.84"/>
<stop offset="1" stop-color="#8779B3"/>
</linearGradient>
<linearGradient id="paint28_linear_1868_4755" x1="17.5002" y1="15.4434" x2="17.5002" y2="14.2707" gradientUnits="userSpaceOnUse">
<stop stop-color="#E9EDF5" stop-opacity="0"/>
<stop offset="1" stop-color="white"/>
</linearGradient>
<linearGradient id="paint29_linear_1868_4755" x1="10.5229" y1="16.8052" x2="10.5229" y2="18.9724" gradientUnits="userSpaceOnUse">
<stop stop-color="#BEC3D2"/>
<stop offset="0.97" stop-color="#808797"/>
<stop offset="1" stop-color="#7E8595"/>
</linearGradient>
<linearGradient id="paint30_linear_1868_4755" x1="10.5244" y1="15.7888" x2="10.5244" y2="14.6828" gradientUnits="userSpaceOnUse">
<stop stop-color="#7E8595"/>
<stop offset="1" stop-color="#555A66"/>
</linearGradient>
<linearGradient id="paint31_linear_1868_4755" x1="10.5244" y1="15.3118" x2="10.5244" y2="14.2058" gradientUnits="userSpaceOnUse">
<stop stop-color="#7E8595"/>
<stop offset="1" stop-color="#555A66"/>
</linearGradient>
<linearGradient id="paint32_linear_1868_4755" x1="10.5244" y1="14.8354" x2="10.5244" y2="13.7294" gradientUnits="userSpaceOnUse">
<stop stop-color="#7E8595"/>
<stop offset="1" stop-color="#555A66"/>
</linearGradient>
<linearGradient id="paint33_linear_1868_4755" x1="10.5244" y1="14.3586" x2="10.5244" y2="13.2526" gradientUnits="userSpaceOnUse">
<stop stop-color="#7E8595"/>
<stop offset="1" stop-color="#555A66"/>
</linearGradient>
<linearGradient id="paint34_linear_1868_4755" x1="13.7983" y1="13.5135" x2="5.86697" y2="5.38055" gradientUnits="userSpaceOnUse">
<stop stop-color="#FFDA45" stop-opacity="0"/>
<stop offset="1" stop-color="#B53759"/>
</linearGradient>
<linearGradient id="paint35_linear_1868_4755" x1="17.966" y1="9.86031" x2="16.0633" y2="7.95764" gradientUnits="userSpaceOnUse">
<stop stop-color="#FFDA45" stop-opacity="0"/>
<stop offset="1" stop-color="#B53759"/>
</linearGradient>
<linearGradient id="paint36_linear_1868_4755" x1="13.6471" y1="1.51828" x2="21.2878" y2="9.15899" gradientUnits="userSpaceOnUse">
<stop stop-color="#FF7044"/>
<stop offset="1" stop-color="#F92814"/>
</linearGradient>
<linearGradient id="paint37_linear_1868_4755" x1="15.1376" y1="3.01037" x2="12.4526" y2="0.32535" gradientUnits="userSpaceOnUse">
<stop stop-color="#FF7044" stop-opacity="0"/>
<stop offset="1" stop-color="#FFA425"/>
</linearGradient>
<linearGradient id="paint38_linear_1868_4755" x1="17.4093" y1="5.28067" x2="12.6085" y2="0.479766" gradientUnits="userSpaceOnUse">
<stop stop-color="#FF7044"/>
<stop offset="1" stop-color="#F92814"/>
</linearGradient>
<linearGradient id="paint39_linear_1868_4755" x1="18.4621" y1="6.33367" x2="16.3343" y2="4.20587" gradientUnits="userSpaceOnUse">
<stop stop-color="#F92814" stop-opacity="0"/>
<stop offset="1" stop-color="#C1272D"/>
</linearGradient>
<linearGradient id="paint40_linear_1868_4755" x1="15.4805" y1="3.10143" x2="16.6328" y2="4.85869" gradientUnits="userSpaceOnUse">
<stop stop-color="#F9F7FC"/>
<stop offset="1" stop-color="#F0DDFC"/>
</linearGradient>
<clipPath id="clip0_1868_4755">
<rect width="20" height="20" fill="white" transform="translate(0.523438)"/>
</clipPath>
</defs>
</svg>
