<svg width="22" height="22" viewBox="0 0 22 22" fill="none" xmlns="http://www.w3.org/2000/svg">
<path d="M11.1737 9.25H5.13037C2.37243 9.25 0.136719 11.4857 0.136719 14.2436C0.136719 16.2387 1.30678 17.9604 2.99794 18.7602C3.67707 19.0815 4.1127 19.7627 4.1127 20.514V21.5853C4.1127 21.9926 4.63906 22.1549 4.86831 21.8185L6.0513 20.0834C6.41233 19.5541 7.01161 19.2373 7.65231 19.2373H11.1737C13.9317 19.2373 16.1674 17.0016 16.1674 14.2436C16.1672 11.4857 13.9315 9.25 11.1737 9.25Z" fill="#34C19C"/>
<path d="M4.90618 18.7602C3.21501 17.9604 2.04495 16.2387 2.04495 14.2436C2.04495 11.4857 4.28066 9.25 7.0386 9.25H5.13037C2.37243 9.25 0.136719 11.4857 0.136719 14.2436C0.136719 16.2387 1.30659 17.9604 2.99776 18.7602C3.67707 19.0815 4.11252 19.7627 4.11252 20.514V21.5853C4.11252 21.9926 4.63887 22.1549 4.86831 21.8185L5.98945 20.174C5.87998 19.5621 5.4809 19.032 4.90618 18.7602V18.7602Z" fill="#DDDDDD"/>
<path d="M5.69513 14.3394C5.69513 14.8485 5.28255 15.2612 4.77344 15.2612C4.26433 15.2612 3.85156 14.8485 3.85156 14.3394C3.85156 13.8302 4.26433 13.4175 4.77344 13.4175C5.28255 13.4175 5.69513 13.8302 5.69513 14.3394Z" fill="white"/>
<path d="M9.07422 14.3394C9.07422 14.8485 8.66146 15.2612 8.15234 15.2612C7.64323 15.2612 7.23047 14.8485 7.23047 14.3394C7.23047 13.8302 7.64323 13.4175 8.15234 13.4175C8.66146 13.4175 9.07422 13.8302 9.07422 14.3394Z" fill="white"/>
<path d="M12.4531 14.3394C12.4531 14.8485 12.0404 15.2612 11.5313 15.2612C11.0221 15.2612 10.6094 14.8485 10.6094 14.3394C10.6094 13.8302 11.0221 13.4175 11.5313 13.4175C12.0404 13.4175 12.4531 13.8302 12.4531 14.3394Z" fill="white"/>
<path d="M10.8726 0H16.9157C19.6737 0 21.9094 2.23571 21.9094 4.99365C21.9094 6.98867 20.7395 8.7102 19.0483 9.51024C18.369 9.83153 17.9336 10.5127 17.9336 11.264V12.3353C17.9336 12.7424 17.4072 12.9049 17.1778 12.5685L15.9948 10.8333C15.634 10.3039 15.0347 9.9873 14.3938 9.9873H10.8726C8.11461 9.9873 5.87891 7.75159 5.87891 4.99365C5.87891 2.23571 8.11461 0 10.8726 0V0Z" fill="#F84E82"/>
<path d="M16.449 9.35131H12.9276C10.1696 9.35131 7.93391 7.11541 7.93391 4.35766C7.93391 2.53959 8.90565 0.948521 10.358 0.0751953C7.84187 0.332751 5.87891 2.45843 5.87891 5.0426C5.87891 7.80054 8.11461 10.0362 10.8726 10.0362H14.394C15.0347 10.0362 15.634 10.353 15.9948 10.8824L17.1778 12.6174C17.4072 12.9539 17.9336 12.7916 17.9336 12.3842V11.313C17.9336 10.9797 18.0196 10.6603 18.1745 10.3798L18.0498 10.1975C17.689 9.66791 17.0897 9.35131 16.449 9.35131V9.35131Z" fill="#DD3A71"/>
<path d="M18.1992 5.08911C18.1992 5.59822 17.7865 6.01099 17.2773 6.01099C16.7682 6.01099 16.3555 5.59822 16.3555 5.08911C16.3555 4.58 16.7682 4.16724 17.2773 4.16724C17.7865 4.16724 18.1992 4.58 18.1992 5.08911Z" fill="#F8FAFD"/>
<path d="M14.8162 5.08911C14.8162 5.59822 14.4036 6.01099 13.8945 6.01099C13.3854 6.01099 12.9727 5.59822 12.9727 5.08911C12.9727 4.58 13.3854 4.16724 13.8945 4.16724C14.4036 4.16724 14.8162 4.58 14.8162 5.08911Z" fill="#F8FAFD"/>
<path d="M11.4375 5.08911C11.4375 5.59822 11.0247 6.01099 10.5156 6.01099C10.0065 6.01099 9.59375 5.59822 9.59375 5.08911C9.59375 4.58 10.0065 4.16724 10.5156 4.16724C11.0247 4.16724 11.4375 4.58 11.4375 5.08911Z" fill="#F8FAFD"/>
</svg>
