<svg width="19" height="20" viewBox="0 0 19 20" fill="none" xmlns="http://www.w3.org/2000/svg">
<path d="M1.53798 5.23438H13.5801L15.1144 20.0001H0.00390625L1.53798 5.23438Z" fill="#FF491F"/>
<path d="M7.46079 10.0081H15.8316L16.8979 19.9997H6.39453L7.46079 10.0081Z" fill="#ED3618"/>
<path d="M8.60164 10.0081H16.9722L18.0387 19.9997H7.53516L8.60164 10.0081Z" fill="#FFE14D"/>
<path d="M10.8083 7.12934C10.559 7.12934 10.3572 6.9273 10.3572 6.67797V3.70015C10.3572 2.15752 9.10215 0.902514 7.55952 0.902514C6.01689 0.902514 4.76189 2.15752 4.76189 3.70015V6.67797C4.76189 6.92708 4.55985 7.12911 4.31074 7.12911C4.06141 7.12911 3.85938 6.92708 3.85938 6.67797V3.70015C3.85938 1.65975 5.51935 0 7.55952 0C9.59969 0 11.2597 1.65998 11.2597 3.70015V6.67797C11.2597 6.9273 11.0576 7.12934 10.8083 7.12934Z" fill="#52526C"/>
<path d="M12.79 16.1615C11.4712 16.1615 10.3984 15.0887 10.3984 13.77V11.8298C10.3984 11.5805 10.6005 11.3784 10.8498 11.3784C11.0989 11.3784 11.301 11.5805 11.301 11.8298V13.77C11.301 14.5912 11.969 15.259 12.79 15.259C13.611 15.259 14.279 14.5912 14.279 13.77V11.8298C14.279 11.5805 14.481 11.3784 14.7304 11.3784C14.9795 11.3784 15.1815 11.5805 15.1815 11.8298V13.77C15.1815 15.0887 14.1087 16.1615 12.79 16.1615V16.1615Z" fill="#52526C"/>
</svg>
