<svg width="17" height="20" viewBox="0 0 17 20" fill="none" xmlns="http://www.w3.org/2000/svg">
<path d="M8.49988 19.9998C12.9181 19.9998 16.4998 16.4181 16.4998 11.9999C16.4998 7.58167 12.9181 4 8.49988 4C4.08167 4 0.5 7.58167 0.5 11.9999C0.5 16.4181 4.08167 19.9998 8.49988 19.9998Z" fill="url(#paint0_linear_1868_4877)"/>
<path d="M9.00247 11.0014C8.34248 11.0014 7.50249 11.1614 7.50249 10.5014C7.50249 10.3688 7.55517 10.2416 7.64893 10.1478C7.7427 10.0541 7.86987 10.0014 8.00248 10.0014H10.5024C10.7677 10.0014 11.022 9.89604 11.2095 9.7085C11.3971 9.52097 11.5024 9.26662 11.5024 9.00141C11.5024 8.73619 11.3971 8.48184 11.2095 8.29431C11.022 8.10678 10.7677 8.00142 10.5024 8.00142H9.50246C9.49918 7.8701 9.47006 7.74071 9.41677 7.62065C9.36348 7.50058 9.28707 7.39218 9.19189 7.30165C9.09671 7.21111 8.98463 7.14021 8.86205 7.09299C8.73947 7.04577 8.60879 7.02315 8.47747 7.02644C8.34615 7.02972 8.21677 7.05883 8.0967 7.11212C7.97663 7.16541 7.86823 7.24182 7.7777 7.337C7.68716 7.43218 7.61626 7.54426 7.56904 7.66684C7.52182 7.78942 7.4992 7.9201 7.50249 8.05142C6.89492 8.17479 6.35487 8.51951 5.98717 9.01867C5.61947 9.51783 5.45036 10.1358 5.51266 10.7526C5.57497 11.3695 5.86425 11.9411 6.32434 12.3567C6.78443 12.7722 7.38251 13.002 8.00248 13.0013C8.66247 13.0013 9.50246 12.8414 9.50246 13.5013C9.50246 13.6339 9.44978 13.7611 9.35601 13.8549C9.26225 13.9487 9.13507 14.0013 9.00247 14.0013H6.5025C6.23729 14.0013 5.98294 14.1067 5.79541 14.2942C5.60787 14.4818 5.50252 14.7361 5.50252 15.0013C5.50252 15.2665 5.60787 15.5209 5.79541 15.7084C5.98294 15.8959 6.23729 16.0013 6.5025 16.0013H7.50249C7.50249 16.2665 7.60784 16.5209 7.79538 16.7084C7.98291 16.8959 8.23726 17.0013 8.50247 17.0013C8.76769 17.0013 9.02204 16.8959 9.20957 16.7084C9.3971 16.5209 9.50246 16.2665 9.50246 16.0013C10.1655 15.935 10.775 15.608 11.197 15.0923C11.6189 14.5766 11.8187 13.9144 11.7524 13.2513C11.6861 12.5883 11.3591 11.9788 10.8434 11.5568C10.3277 11.1349 9.6655 10.9351 9.00247 11.0014Z" fill="#F0F7FC"/>
<path d="M11.4999 0V4.57993C9.57407 3.80984 7.42584 3.80984 5.5 4.57993V0H11.4999Z" fill="url(#paint1_linear_1868_4877)"/>
<defs>
<linearGradient id="paint0_linear_1868_4877" x1="0.5" y1="11.9999" x2="16.4998" y2="11.9999" gradientUnits="userSpaceOnUse">
<stop stop-color="#2A6CCE"/>
<stop offset="1" stop-color="#8AD3FE"/>
</linearGradient>
<linearGradient id="paint1_linear_1868_4877" x1="5.5" y1="2.28997" x2="11.4999" y2="2.28997" gradientUnits="userSpaceOnUse">
<stop stop-color="#2A6CCE"/>
<stop offset="1" stop-color="#8AD3FE"/>
</linearGradient>
</defs>
</svg>
