<svg width="21" height="20" viewBox="0 0 21 20" fill="none" xmlns="http://www.w3.org/2000/svg">
<g clip-path="url(#clip0_1868_4885)">
<path d="M15.4403 2.26563C13.9715 2.26777 12.6628 2.94953 11.8098 4.01291C11.6718 4.18473 11.4099 4.18473 11.2721 4.01291C10.4191 2.94953 9.1102 2.26777 7.64139 2.26563C5.07792 2.26212 2.9774 4.35425 2.97267 6.91773C2.96382 11.7522 9.47718 16.4931 11.152 17.6323C11.3868 17.7919 11.695 17.7919 11.9297 17.6323C13.6047 16.4931 20.1179 11.7522 20.109 6.91788C20.1043 4.3544 18.0038 2.26212 15.4403 2.26563V2.26563Z" fill="#FF592A"/>
<path d="M7.97656 2.27881C8.09451 2.41202 8.29044 2.43048 8.4299 2.33389C8.28113 2.30826 8.12991 2.28995 7.97656 2.27881V2.27881Z" fill="#F63511"/>
<path d="M15.783 2.27783C16.4191 3.07327 16.8015 4.07928 16.8035 5.17105C16.8123 9.90265 10.5741 14.5441 8.73828 15.8073C9.76596 16.6632 10.6641 17.3006 11.1518 17.6323C11.3866 17.7919 11.6947 17.7919 11.9295 17.6323C13.6045 16.4931 20.1177 11.7522 20.1088 6.91787C20.1042 4.4696 18.1882 2.45148 15.783 2.27783V2.27783Z" fill="#F63511"/>
<path d="M8.61331 10.2322C8.48071 10.2322 8.36352 10.1454 8.32492 10.0184L7.40878 7.00909H4.66495C4.49832 7.00909 4.36328 6.87405 4.36328 6.70758C4.36328 6.54111 4.49832 6.40607 4.66495 6.40607H7.63232C7.76492 6.40607 7.88211 6.49274 7.92071 6.61969L8.61346 8.89508L9.62497 5.57202C9.66357 5.44507 9.78076 5.3584 9.91336 5.3584C10.0461 5.3584 10.1633 5.44507 10.2019 5.57202L10.6397 7.01031H13.2917C13.4583 7.01031 13.5933 7.14535 13.5933 7.31183C13.5933 7.47845 13.4583 7.61349 13.2917 7.61349H10.4163C10.2835 7.61349 10.1663 7.52667 10.1277 7.39972L9.91336 6.69537L8.90185 10.0184C8.86325 10.1454 8.74606 10.2322 8.61331 10.2322Z" fill="#FFC5B2"/>
<path d="M2.43359 11.8818H10.9483V13.7481H2.43359V11.8818Z" fill="#848489"/>
<path d="M9.21429 11.8818V12.3483C9.21429 12.6942 8.93383 12.9747 8.58792 12.9747H2.43359V13.7481H10.9483V11.8818H9.21429Z" fill="#545353"/>
<path d="M11.422 15.6737H10.7422C10.5264 15.6737 10.3516 15.4987 10.3516 15.2831V10.3765C10.3516 10.1607 10.5264 9.98584 10.7422 9.98584H11.422C11.6377 9.98584 11.8126 10.1607 11.8126 10.3765V15.2831C11.8126 15.4987 11.6377 15.6737 11.422 15.6737Z" fill="#848489"/>
<path d="M12.8831 14.9526H12.2031C11.9874 14.9526 11.8125 14.7776 11.8125 14.562V11.0977C11.8125 10.8819 11.9874 10.707 12.2031 10.707H12.8831C13.0988 10.707 13.2737 10.8819 13.2737 11.0977V14.562C13.2737 14.7776 13.0988 14.9526 12.8831 14.9526Z" fill="#848489"/>
<path d="M1.96094 9.98584H2.64087C2.85663 9.98584 3.03149 10.1607 3.03149 10.3765V15.2831C3.03149 15.4987 2.85663 15.6737 2.64087 15.6737H1.96094C1.74533 15.6737 1.57031 15.4987 1.57031 15.2831V10.3765C1.57031 10.1607 1.74533 9.98584 1.96094 9.98584Z" fill="#848489"/>
<path d="M0.5 10.707H1.17978C1.39554 10.707 1.5704 10.8819 1.5704 11.0977V14.562C1.5704 14.7776 1.39554 14.9526 1.17978 14.9526H0.5C0.284241 14.9526 0.109375 14.7776 0.109375 14.562V11.0977C0.109375 10.8819 0.284241 10.707 0.5 10.707Z" fill="#848489"/>
<path d="M11.399 9.98584H10.7773C11.0062 9.98584 11.1916 10.1714 11.1916 10.4001V15.2594C11.1916 15.4882 11.0062 15.6737 10.7773 15.6737H11.399C11.6279 15.6737 11.8133 15.4882 11.8133 15.2594V10.4001C11.8133 10.1714 11.6279 9.98584 11.399 9.98584V9.98584Z" fill="#545353"/>
<path d="M12.8599 10.707H12.2383C12.467 10.707 12.6526 10.8926 12.6526 11.1213V14.5384C12.6526 14.7671 12.467 14.9526 12.2383 14.9526H12.8599C13.0887 14.9526 13.2742 14.7671 13.2742 14.5384V11.1213C13.2742 10.8926 13.0887 10.707 12.8599 10.707V10.707Z" fill="#545353"/>
<path d="M2.61774 9.98584H1.99609C2.22482 9.98584 2.41037 10.1714 2.41037 10.4001V15.2594C2.41037 15.4882 2.22482 15.6737 1.99609 15.6737H2.61774C2.84647 15.6737 3.03201 15.4882 3.03201 15.2594V10.4001C3.03201 10.1714 2.84647 9.98584 2.61774 9.98584V9.98584Z" fill="#545353"/>
<path d="M1.1568 10.707H0.535156C0.764038 10.707 0.949432 10.8926 0.949432 11.1213V14.5384C0.949432 14.7671 0.764038 14.9526 0.535156 14.9526H1.1568C1.38568 14.9526 1.57107 14.7671 1.57107 14.5384V11.1213C1.57107 10.8926 1.38568 10.707 1.1568 10.707V10.707Z" fill="#545353"/>
</g>
<defs>
<clipPath id="clip0_1868_4885">
<rect width="20" height="20" fill="white" transform="translate(0.109375)"/>
</clipPath>
</defs>
</svg>
