<svg width="21" height="20" viewBox="0 0 21 20" fill="none" xmlns="http://www.w3.org/2000/svg">
<g clip-path="url(#clip0_1868_4805)">
<path d="M19.7086 5.62481C19.7086 5.62481 19.0836 8.43731 16.5836 8.43731H16.4805C16.5508 8.23653 16.5857 8.02504 16.5836 7.81231C16.7211 7.54981 16.9523 7.14981 17.1555 6.74356C17.29 6.48216 17.3979 6.20785 17.4773 5.92481L17.5211 5.93731C17.9063 5.78471 18.3136 5.69502 18.7273 5.67168C19.0534 5.6394 19.3809 5.62375 19.7086 5.62481V5.62481Z" fill="#598019"/>
<path d="M18.7266 5.67163C18.3128 5.69497 17.9056 5.78466 17.5203 5.93726L17.4766 5.92476L17.5203 5.62476V4.93726C17.5202 4.77152 17.5423 4.60651 17.5859 4.44663L17.7578 3.81226C17.7918 3.67601 17.8127 3.53684 17.8203 3.39663H17.8359C17.8578 3.21851 18.0266 2.49976 19.3953 2.49976C19.3953 2.49976 19.3953 4.77788 18.7203 5.62476L18.7266 5.67163Z" fill="#346C2F"/>
<path d="M13.6831 1.2873C13.57 1.49795 13.383 1.65934 13.1581 1.74043C12.9754 1.8046 12.8167 1.92312 12.7033 2.08009C12.5899 2.23705 12.5272 2.42494 12.5237 2.61855V4.3748C12.2786 4.36543 12.0462 4.26346 11.8734 4.08947C11.7006 3.91548 11.6002 3.68242 11.5924 3.4373C11.5873 3.4116 11.5852 3.38537 11.5862 3.35918V1.7373C11.5863 1.59549 11.631 1.45731 11.714 1.34233C11.797 1.22735 11.9141 1.14141 12.0487 1.09668L12.2581 1.0248C12.4275 0.967812 12.5677 0.846626 12.6487 0.687301C12.7048 0.574563 12.7913 0.479731 12.8984 0.413479C13.0055 0.347228 13.129 0.312187 13.2549 0.312301H14.3799C14.2291 0.307496 14.0826 0.362705 13.9725 0.465815C13.8623 0.568926 13.7976 0.711516 13.7924 0.862301C13.7929 1.01099 13.7553 1.15732 13.6831 1.2873V1.2873Z" fill="#B9D671"/>
<path d="M16.5828 0.9375C16.7424 0.955303 16.8913 1.02687 17.0049 1.14045C17.1184 1.25403 17.19 1.40286 17.2078 1.5625C17.2 1.68501 17.2248 1.8074 17.2797 1.9172C17.3346 2.02699 17.4176 2.12026 17.5203 2.1875C17.6232 2.2545 17.7065 2.34773 17.7614 2.45758C17.8163 2.56744 17.841 2.68995 17.8328 2.8125V3.125C17.8328 3.19688 17.8297 3.29375 17.8203 3.39687C17.8127 3.53708 17.7918 3.67625 17.7578 3.8125L17.5859 4.44687C17.5423 4.60675 17.5202 4.77176 17.5203 4.9375V5.625L17.4766 5.925C17.3971 6.20804 17.2892 6.48235 17.1547 6.74375C16.9516 7.15 16.7203 7.55 16.5828 7.8125V2.5C16.5784 2.16666 16.4604 1.84479 16.2484 1.5875C16.2013 1.52586 16.1491 1.46836 16.0922 1.41563C16.004 1.33321 15.9112 1.256 15.8141 1.18437C15.739 1.12019 15.6864 1.03369 15.6641 0.9375H16.5828Z" fill="#B9D671"/>
<path d="M16.5844 3.88428V7.1874C16.5701 6.53251 16.4411 5.8852 16.2032 5.2749C16.0464 4.85514 15.8606 4.44685 15.6469 4.05303C15.6375 3.9124 15.5688 2.28428 16.25 1.5874C16.462 1.84469 16.58 2.16656 16.5844 2.4999V3.88428Z" fill="#89B029"/>
<path d="M16.5836 7.18724V7.49974C15.8461 6.54661 13.7711 5.93724 13.7711 5.93724V5.60599C13.726 5.44449 13.6496 5.29346 13.5461 5.16154C13.4426 5.02963 13.3141 4.91943 13.168 4.83724C13.168 4.83724 14.9742 4.60599 16.2023 5.27474C16.4403 5.88504 16.5693 6.53235 16.5836 7.18724V7.18724Z" fill="#88AB00"/>
<path d="M12.5234 3.16836V2.61836C12.527 2.42475 12.5896 2.23686 12.703 2.07989C12.8164 1.92293 12.9751 1.80441 13.1578 1.74023C13.3827 1.65915 13.5697 1.49776 13.6828 1.28711C14.4401 2.13202 15.0995 3.05978 15.6484 4.05273V4.06211C14.4203 3.10898 12.6797 3.16836 12.6797 3.16836H12.5234Z" fill="#88AB00"/>
<path d="M15.668 0.937301C15.6903 1.03349 15.7429 1.12 15.818 1.18418C15.9151 1.2558 16.008 1.33301 16.0961 1.41543C16.153 1.46816 16.2053 1.52566 16.2523 1.5873C15.5711 2.28418 15.6398 3.9123 15.6492 4.05293C15.1002 3.05997 14.4409 2.13221 13.6836 1.2873C13.7558 1.15732 13.7935 1.01099 13.793 0.862301C13.7981 0.711516 13.8628 0.568926 13.973 0.465815C14.0831 0.362705 14.2297 0.307496 14.3805 0.312301H15.1523C15.2176 0.312219 15.2823 0.325015 15.3426 0.349956C15.4029 0.374897 15.4577 0.411493 15.5039 0.457649C15.55 0.503804 15.5866 0.558612 15.6116 0.618933C15.6365 0.679254 15.6493 0.743902 15.6492 0.809176C15.6491 0.852578 15.6554 0.895759 15.668 0.937301V0.937301Z" fill="#93BD2C"/>
<path d="M12.6797 3.1687C12.6797 3.1687 14.4203 3.10932 15.6484 4.06245V4.05307C15.8621 4.4469 16.048 4.85519 16.2047 5.27495C14.9766 4.6062 13.1703 4.83745 13.1703 4.83745C13.0159 4.75704 12.8703 4.66069 12.7359 4.54995C12.6109 4.45307 12.5234 4.37495 12.5234 4.37495V3.1687H12.6797Z" fill="#80A100"/>
<path d="M13.7734 5.9375C13.7734 5.9375 15.8484 6.54688 16.5859 7.5V7.8125C16.5881 8.02524 16.5532 8.23672 16.4828 8.4375H14.8859C14.8181 7.86994 14.6026 7.3301 14.2609 6.87187C14.006 6.61814 13.8357 6.29178 13.7734 5.9375V5.9375Z" fill="#80A100"/>
<path d="M13.4578 6.875C13.4578 5.91563 12.4109 5.12812 11.0578 5.01562L11.0609 5C10.9881 4.91271 10.9512 4.80098 10.9578 4.6875V4.0625C10.9583 3.89689 11.0243 3.73821 11.1414 3.6211C11.2585 3.504 11.4172 3.43799 11.5828 3.4375H11.589C11.5968 3.68262 11.6972 3.91568 11.87 4.08967C12.0428 4.26366 12.2752 4.36563 12.5203 4.375C12.5203 4.375 12.6078 4.45313 12.7328 4.55C12.8671 4.66074 13.0127 4.7571 13.1672 4.8375C13.3133 4.91969 13.4418 5.02989 13.5453 5.16181C13.6488 5.29372 13.7252 5.44475 13.7703 5.60625V5.9375C13.8325 6.29178 14.0028 6.61814 14.2578 6.87187C14.5995 7.3301 14.815 7.86994 14.8828 8.4375H13.239C13.3864 7.92983 13.4601 7.40362 13.4578 6.875V6.875Z" fill="#628C1B"/>
<path d="M18.7434 4.0074C18.7144 4.07288 18.6637 4.12638 18.5999 4.15895C18.5361 4.19152 18.463 4.20118 18.393 4.18631C18.3229 4.17145 18.2601 4.13296 18.215 4.0773C18.1699 4.02163 18.1453 3.95216 18.1453 3.88053V2.89303C17.9784 3.02998 17.8682 3.22393 17.8359 3.4374H17.8203C17.8127 3.57761 17.7918 3.71678 17.7578 3.85303L17.5859 4.4874C17.5423 4.64728 17.5202 4.81229 17.5203 4.97803V5.66553L17.4766 5.96553L17.5203 5.97803C17.9056 5.82543 18.3128 5.73575 18.7266 5.7124L18.7203 5.66553C19.3953 4.81865 19.3953 2.54053 19.3953 2.54053L18.7434 4.0074Z" fill="#335E33"/>
<path d="M17.4639 6.60663L17.6717 5.87882C17.6204 5.8953 17.5701 5.91482 17.5211 5.93726L17.4773 5.92476C17.3979 6.2078 17.29 6.48211 17.1555 6.74351C16.9523 7.14976 16.7211 7.54976 16.5836 7.81226C16.5857 8.02499 16.5508 8.23648 16.4805 8.43726H16.5836C19.0836 8.43726 19.7086 5.62476 19.7086 5.62476L17.9517 6.94226C17.8994 6.98142 17.8361 7.00318 17.7707 7.00448C17.7054 7.00577 17.6412 6.98654 17.5874 6.94949C17.5335 6.91244 17.4926 6.85943 17.4705 6.79792C17.4483 6.73642 17.446 6.66951 17.4639 6.60663V6.60663Z" fill="#346C2F"/>
<path d="M17.2869 5.89C17.2339 5.88917 17.182 5.87538 17.1357 5.84983C17.0893 5.82428 17.0499 5.78775 17.0209 5.74344C16.9656 5.65548 16.9334 5.55498 16.9272 5.45125C16.9035 5.23138 16.9357 5.00908 17.0209 4.805C17.125 4.55719 17.3094 4.30969 17.2466 4.04938C17.2025 3.93046 17.1484 3.81547 17.085 3.70562C16.9353 3.35844 17.085 2.96594 17.1025 2.59C17.1175 2.44316 17.0861 2.29531 17.0128 2.16719C16.9637 2.0925 16.8937 2.03219 16.8453 1.95719C16.7469 1.80469 16.7459 1.60281 16.6287 1.46375C16.5638 1.40059 16.4955 1.34103 16.4241 1.28531C16.3887 1.25761 16.3616 1.2208 16.3457 1.17884C16.3297 1.13689 16.3255 1.09137 16.3334 1.04719C16.3507 1.00234 16.3815 0.96399 16.4216 0.9375H15.6641C15.6864 1.03369 15.739 1.12019 15.8141 1.18437C15.9112 1.256 16.004 1.33321 16.0922 1.41563C16.1491 1.46836 16.2013 1.52586 16.2484 1.5875C16.4604 1.84479 16.5784 2.16666 16.5828 2.5V7.8125C16.7203 7.55 16.9516 7.15 17.1547 6.74375C17.2892 6.48235 17.3971 6.20804 17.4766 5.925L17.4916 5.82156C17.4853 5.82469 17.4794 5.82875 17.4731 5.83188C17.4161 5.86471 17.3525 5.88456 17.2869 5.89V5.89Z" fill="#9FC73D"/>
<path d="M13.2768 0.865738C13.2371 0.985016 13.1701 1.0934 13.0812 1.1823C12.9923 1.2712 12.8839 1.33818 12.7646 1.37793C12.6035 1.43164 12.4633 1.5347 12.364 1.6725C12.2647 1.81031 12.2112 1.97587 12.2112 2.14574V2.8123C12.2112 2.89518 12.1783 2.97467 12.1197 3.03327C12.0611 3.09188 11.9816 3.1248 11.8987 3.1248C11.8158 3.1248 11.7363 3.09188 11.6777 3.03327C11.6191 2.97467 11.5862 2.89518 11.5862 2.8123V3.35918C11.5852 3.38537 11.5873 3.4116 11.5924 3.4373C11.6002 3.68242 11.7006 3.91548 11.8734 4.08947C12.0462 4.26346 12.2786 4.36543 12.5237 4.3748V2.61855C12.5272 2.42494 12.5899 2.23705 12.7033 2.08009C12.8167 1.92312 12.9754 1.8046 13.1581 1.74043C13.383 1.65934 13.57 1.49795 13.6831 1.2873C13.7553 1.15732 13.7929 1.01099 13.7924 0.862301C13.7976 0.711516 13.8623 0.568926 13.9725 0.465815C14.0826 0.362705 14.2291 0.307496 14.3799 0.312301H14.0446C13.8747 0.31226 13.7092 0.365695 13.5714 0.46503C13.4335 0.564365 13.3305 0.704559 13.2768 0.865738V0.865738Z" fill="#9FC73D"/>
<path d="M14.2609 6.87187C14.006 6.61814 13.8357 6.29178 13.7734 5.9375V5.60625C13.7284 5.44475 13.6519 5.29372 13.5484 5.16181C13.4449 5.02989 13.3165 4.91969 13.1703 4.8375C13.0159 4.7571 12.8703 4.66074 12.7359 4.55C12.6109 4.45313 12.5234 4.375 12.5234 4.375C12.2784 4.36563 12.046 4.26366 11.8732 4.08967C11.7003 3.91568 11.5999 3.68262 11.5922 3.4375H11.5859C11.4759 3.43817 11.368 3.46828 11.2734 3.52469V3.65875C11.2735 3.85667 11.3362 4.04949 11.4526 4.20958C11.569 4.36968 11.733 4.48884 11.9213 4.55C12.39 4.70313 12.9709 4.95625 13.1484 5.3125C13.3134 5.79943 13.5317 6.26664 13.7994 6.70563C13.8304 6.75257 13.8481 6.80706 13.8506 6.86327C13.853 6.91948 13.8402 6.97531 13.8134 7.02479C13.7866 7.07427 13.7468 7.11554 13.6984 7.1442C13.65 7.17286 13.5947 7.18782 13.5384 7.1875H13.45C13.4298 7.61085 13.36 8.03038 13.2422 8.4375H14.8859C14.8181 7.86994 14.6026 7.3301 14.2609 6.87187V6.87187Z" fill="#4D6E15"/>
<path d="M16.586 7.81254V6.38035C16.5175 5.99419 16.4145 5.61496 16.2782 5.24723C16.122 4.82975 15.9374 4.42349 15.7257 4.03129C15.7188 3.88504 15.6632 2.33941 16.2957 1.65098C16.2804 1.63004 16.2682 1.60691 16.2516 1.5866C16.2351 1.56629 16.2157 1.54785 16.1982 1.52785L16.1957 1.53129C15.6507 2.0891 15.5707 3.19566 15.5647 3.74098C15.0434 2.84605 14.4328 2.00624 13.7422 1.23441C13.7394 1.23129 13.7285 1.22129 13.7254 1.21848C13.7222 1.21566 13.7179 1.21504 13.7147 1.21191C13.7056 1.23764 13.6952 1.26288 13.6835 1.28754C13.671 1.31129 13.6541 1.33223 13.6397 1.35504C14.3156 2.11235 14.9137 2.93565 15.4251 3.81254C14.5902 3.33009 13.6411 3.08058 12.6769 3.09004C12.6667 3.09041 12.6566 3.09279 12.6472 3.09706C12.6379 3.10133 12.6295 3.10739 12.6225 3.11491C12.6155 3.12243 12.6101 3.13125 12.6065 3.14087C12.6029 3.15048 12.6012 3.16072 12.6016 3.17098C12.602 3.18124 12.6044 3.19132 12.6086 3.20066C12.6129 3.21 12.619 3.2184 12.6265 3.2254C12.634 3.23239 12.6428 3.23783 12.6524 3.24142C12.6621 3.245 12.6723 3.24666 12.6826 3.24629C12.6972 3.2441 14.4013 3.19879 15.5944 4.11941C15.7668 4.44211 15.9205 4.77442 16.0547 5.11473C14.8344 4.55598 13.2319 4.75066 13.1607 4.76004C13.1492 4.76188 13.1382 4.7664 13.1288 4.77324C13.1193 4.78008 13.1116 4.78905 13.1063 4.79941C13.1279 4.8116 13.1494 4.82691 13.1707 4.83754C13.2065 4.8578 13.241 4.88046 13.2738 4.90535C13.6488 4.87098 15.106 4.78191 16.1416 5.33098C16.3699 5.92406 16.4938 6.55219 16.5079 7.18754V7.2916C15.6788 6.42348 13.8763 5.88535 13.7954 5.86191C13.7879 5.85973 13.781 5.86441 13.7735 5.86441V5.93754C13.7743 5.9655 13.7771 5.99338 13.7816 6.02098C14.0316 6.09848 15.8291 6.67723 16.5079 7.52848V7.81254C16.5097 8.01639 16.4764 8.21904 16.4094 8.4116C16.406 8.42035 16.4094 8.42848 16.4094 8.43754H16.4816C16.5524 8.23684 16.5877 8.02535 16.586 7.81254V7.81254Z" fill="#B9D671"/>
<path d="M7.52344 3.4375C9.34531 3.4375 10.6484 5 10.6484 5H10.2828C7.94531 4.95312 7.52344 3.4375 7.52344 3.4375Z" fill="#80A100"/>
<path d="M10.6484 4.37501V5.00001C10.6484 5.00001 9.34531 3.43751 7.52344 3.43751C7.76339 3.32586 8.0149 3.24097 8.27344 3.18438C8.44027 3.14444 8.61127 3.12451 8.78281 3.12501H8.82656C9.86719 3.12501 10.5297 3.63438 10.6484 4.37501Z" fill="#A1C203"/>
<path d="M10.2829 5H10.7235C10.8391 5 10.9485 5.00625 11.061 5.01562C12.4141 5.12812 13.461 5.91563 13.461 6.875C13.4633 7.40362 13.3896 7.92983 13.2422 8.4375H7.42974C7.28238 7.92983 7.20871 7.40362 7.21099 6.875C7.21601 6.54106 7.33761 6.21939 7.55474 5.96563C8.02036 5.3875 8.91724 5 9.94849 5H10.2829Z" fill="#DB3744"/>
<path d="M12.0547 7.8123H9.86724C9.50038 7.81341 9.14767 7.67083 8.88465 7.41508C8.62162 7.15934 8.46919 6.81078 8.46 6.44403C8.45081 6.07729 8.58558 5.72152 8.83547 5.45293C9.08535 5.18433 9.43047 5.02426 9.79693 5.00699C9.3772 5.00279 8.96117 5.08582 8.57521 5.2508C8.18924 5.41579 7.84175 5.65913 7.55474 5.96542C7.33761 6.21918 7.21601 6.54086 7.21099 6.8748C7.20871 7.40342 7.28238 7.92963 7.42974 8.4373H13.2422C13.3896 7.92963 13.4633 7.40342 13.461 6.8748C13.4602 6.79622 13.4522 6.71788 13.4372 6.64074C13.3824 6.96791 13.2135 7.26509 12.9604 7.47956C12.7073 7.69402 12.3865 7.81191 12.0547 7.8123V7.8123Z" fill="#AD313B"/>
<path d="M11.356 5.53854C11.2278 5.56322 11.0853 5.63479 11.0681 5.76385C11.0494 5.90416 11.1856 6.01041 11.3038 6.08791C11.5613 6.25614 11.8099 6.43775 12.0485 6.63197C12.186 6.74385 12.3588 6.8676 12.5244 6.80447C12.5814 6.78104 12.6302 6.7411 12.6644 6.68979C12.7032 6.62831 12.7276 6.55884 12.7358 6.48658C12.7439 6.41432 12.7355 6.34116 12.7113 6.2726C12.672 6.14384 12.6058 6.02494 12.5169 5.92385C12.3656 5.77536 12.1823 5.66344 11.9811 5.59666C11.7799 5.52987 11.566 5.50999 11.356 5.53854V5.53854Z" fill="#FF6666"/>
<path d="M10.0234 1.875L10.0203 1.9125C9.814 1.88709 9.60631 1.87456 9.39844 1.875C9.39844 1.875 7.83594 1.5625 7.83594 0.625H8.77344C9.71094 0.625 10.0234 1.875 10.0234 1.875Z" fill="#A1C203"/>
<path d="M11.5828 2.68751V3.35939C11.5818 3.38558 11.5839 3.41181 11.5891 3.43751H11.5828C11.4172 3.43801 11.2585 3.50401 11.1414 3.62112C11.0243 3.73822 10.9583 3.8969 10.9578 4.06251V4.68751C10.9512 4.80099 10.9881 4.91272 11.0609 5.00001L11.0578 5.01564C10.9453 5.00626 10.8359 5.00001 10.7203 5.00001H10.6453V4.37501C10.5266 3.63439 9.86406 3.12501 8.82344 3.12501H8.77969C8.60814 3.12451 8.43714 3.14444 8.27031 3.18439C8.01178 3.24098 7.76026 3.32586 7.52031 3.43751V2.81251C7.52007 2.68696 7.48314 2.56422 7.41406 2.45939C7.87344 2.04064 8.58906 1.87501 9.39531 1.87501C9.60318 1.87457 9.81088 1.8871 10.0172 1.91251C10.3171 1.92866 10.6106 2.00571 10.8797 2.13895C11.1489 2.27219 11.3881 2.45883 11.5828 2.68751V2.68751Z" fill="#FF9B00"/>
<path d="M7.52344 5.9375V3.4375C7.52344 3.4375 7.94531 4.95312 10.2828 5H9.94844C8.91719 5 8.02031 5.3875 7.55469 5.96562L7.52344 5.9375Z" fill="#F1671C"/>
<path d="M11.5828 3.35928V3.1249C9.99625 3.1249 8.42656 2.65271 8.18219 2.04053C7.89877 2.12266 7.63665 2.26556 7.41406 2.45928C7.48314 2.56411 7.52007 2.68685 7.52031 2.8124V3.4374C7.76026 3.32575 8.01178 3.24087 8.27031 3.18428C8.43714 3.14433 8.60814 3.1244 8.77969 3.1249H8.82344C9.86406 3.1249 10.5266 3.63428 10.6453 4.3749V4.9999H10.7203C10.8359 4.9999 10.9453 5.00615 11.0578 5.01553L11.0609 4.9999C10.9881 4.91261 10.9512 4.80089 10.9578 4.6874V4.0624C10.9583 3.89679 11.0243 3.73811 11.1414 3.62101C11.2585 3.5039 11.4172 3.4379 11.5828 3.4374H11.5891C11.5839 3.4117 11.5818 3.38547 11.5828 3.35928V3.35928Z" fill="#F1671C"/>
<path d="M9.39844 1.875C9.60631 1.87456 9.814 1.88709 10.0203 1.9125L10.0234 1.875L7.83594 0.625C7.83594 1.5625 9.39844 1.875 9.39844 1.875Z" fill="#88AB00"/>
<path d="M6.66171 7.58429L7.33671 8.43741H4.22733L3.43046 7.80304C3.18623 7.60484 3.01733 7.32891 2.95193 7.02125C2.88653 6.71359 2.92859 6.39281 3.07108 6.11241C3.08671 6.09054 3.10233 6.06241 3.11796 6.03741C3.23066 5.85804 3.38234 5.70637 3.56171 5.59366C3.58671 5.57804 3.61483 5.56241 3.63671 5.54679C3.89416 5.41651 4.18589 5.36997 4.4711 5.41367C4.7563 5.45738 5.02071 5.58915 5.22733 5.79054C5.26307 5.82693 5.29647 5.86555 5.32733 5.90616L6.66171 7.58429Z" fill="#FF9B00"/>
<path d="M2.91876 5.98103L3.06876 6.11228C2.95627 6.32876 2.90546 6.572 2.92188 6.81541L0.950006 6.66541C0.814065 6.65329 0.686779 6.59352 0.590631 6.49666L0.503131 6.40916C0.413801 6.31957 0.356642 6.20293 0.340576 6.07744C0.32451 5.95195 0.35044 5.82467 0.414319 5.71547C0.478199 5.60627 0.576434 5.52129 0.693692 5.47379C0.810951 5.42629 0.940636 5.41895 1.06251 5.45291L2.91876 5.98103Z" fill="#88AB00"/>
<path d="M3.63279 5.54668C3.61091 5.56231 3.58279 5.57793 3.55779 5.59356C3.37841 5.70626 3.22674 5.85794 3.11404 6.03731C3.09841 6.06231 3.08279 6.09043 3.06716 6.11231L2.91716 5.98106L1.16716 4.50293C1.05502 4.38865 0.992188 4.23493 0.992188 4.07481C0.992187 3.91469 1.05502 3.76097 1.16716 3.64668C1.22325 3.59022 1.28995 3.54541 1.36343 3.51483C1.4369 3.48425 1.5157 3.46851 1.59529 3.46851C1.67487 3.46851 1.75367 3.48425 1.82715 3.51483C1.90063 3.54541 1.96733 3.59022 2.02341 3.64668L3.50154 5.39668L3.63279 5.54668Z" fill="#88AB00"/>
<path d="M3.12165 2.98098C3.17462 2.92752 3.23766 2.88509 3.30712 2.85613C3.37658 2.82717 3.45109 2.81226 3.52634 2.81226C3.6016 2.81226 3.67611 2.82717 3.74557 2.85613C3.81503 2.88509 3.87806 2.92752 3.93103 2.98098L4.01853 3.06848C4.11539 3.16463 4.17516 3.29191 4.18728 3.42785L4.33103 5.31848L4.33728 5.39973C4.09387 5.38331 3.85063 5.43412 3.63415 5.5466L3.5029 5.3966L2.97478 3.54035C2.94697 3.4425 2.94593 3.33898 2.97176 3.24059C2.9976 3.1422 3.04936 3.05255 3.12165 2.98098Z" fill="#88AB00"/>
<path d="M5.06171 7.81237C4.95073 7.81244 4.84083 7.79061 4.7383 7.74814C4.63578 7.70567 4.54263 7.64339 4.46421 7.56487L3.71983 6.8205C3.61508 6.71622 3.53955 6.58626 3.50081 6.44362C3.46208 6.30097 3.46149 6.15066 3.49912 6.00772C3.53674 5.86478 3.61126 5.73423 3.7152 5.62914C3.81915 5.52406 3.94888 5.44812 4.0914 5.40894C3.93301 5.42825 3.77917 5.47488 3.63671 5.54675C3.61483 5.56237 3.58671 5.578 3.56171 5.59362C3.38234 5.70633 3.23066 5.858 3.11796 6.03737C3.10233 6.06237 3.08671 6.0905 3.07108 6.11237C2.92859 6.39277 2.88653 6.71355 2.95193 7.02121C3.01733 7.32887 3.18623 7.6048 3.43046 7.803L4.22733 8.43737H7.33671L6.84233 7.81237H5.06171Z" fill="#F37924"/>
<path d="M3.0688 6.11242L2.9188 5.98117L2.68911 5.91586L2.62255 6.04836C2.59323 6.10705 2.54618 6.15502 2.48807 6.18547C2.42997 6.21593 2.36375 6.22733 2.2988 6.21805L0.678177 5.98648C0.610862 5.97656 0.548675 5.94479 0.501187 5.89606C0.4537 5.84733 0.423545 5.78434 0.415364 5.7168C0.35091 5.82555 0.32455 5.9527 0.340454 6.07811C0.356358 6.20353 0.413617 6.32007 0.503177 6.4093L0.590677 6.4968C0.686824 6.59366 0.81411 6.65343 0.950052 6.66555L2.92193 6.81555C2.9055 6.57214 2.95631 6.3289 3.0688 6.11242V6.11242Z" fill="#628C1B"/>
<path d="M3.50134 5.39679L3.38384 5.25741L3.25884 5.34085C3.13864 5.42094 2.9944 5.45692 2.85066 5.44268C2.70692 5.42844 2.57255 5.36485 2.4704 5.26272L1.49665 4.28897C1.39412 4.18581 1.33095 4.05 1.31811 3.90512C1.30526 3.76024 1.34356 3.61544 1.42634 3.49585C1.3259 3.52558 1.23488 3.58083 1.16215 3.65621C1.08942 3.73159 1.03747 3.82453 1.01134 3.92597C0.98522 4.02741 0.985825 4.13388 1.0131 4.23501C1.04037 4.33615 1.09338 4.42849 1.16697 4.50304L2.91697 5.98116L3.06697 6.11241C3.08259 6.09054 3.09822 6.06241 3.11384 6.03741C3.22654 5.85804 3.37822 5.70637 3.55759 5.59366C3.58259 5.57804 3.61072 5.56241 3.63259 5.54679L3.50134 5.39679Z" fill="#628C1B"/>
<path d="M4.29818 4.86853L4.11068 4.91571C4.06822 4.92635 4.02399 4.92795 3.98088 4.9204C3.93776 4.91286 3.8967 4.89634 3.86038 4.87191C3.82405 4.84749 3.79326 4.81571 3.77 4.77862C3.74675 4.74154 3.73154 4.69999 3.72536 4.65665L3.52318 3.25821C3.50307 3.10456 3.54144 2.94896 3.63068 2.82227C3.53492 2.8046 3.43624 2.81159 3.34394 2.8426C3.25163 2.87361 3.16874 2.92762 3.10309 2.99953C3.03743 3.07144 2.99117 3.15888 2.96866 3.25362C2.94615 3.34836 2.94813 3.44727 2.97443 3.54103L3.50255 5.39728L3.6338 5.54728C3.85028 5.43479 4.09352 5.38398 4.33693 5.4004L4.33068 5.31915L4.29818 4.86853Z" fill="#628C1B"/>
<path d="M4.5702 6.94386C4.55468 6.95809 4.54219 6.97531 4.53349 6.9945C4.52479 7.01368 4.52005 7.03442 4.51957 7.05548C4.51909 7.07654 4.52287 7.09747 4.53069 7.11703C4.53851 7.13659 4.5502 7.15437 4.56506 7.16929C4.57992 7.18422 4.59765 7.19599 4.61718 7.20389C4.6367 7.21179 4.65762 7.21566 4.67868 7.21527C4.69974 7.21488 4.7205 7.21023 4.73972 7.20161C4.75894 7.19299 4.77622 7.18057 4.79052 7.16511L5.64552 6.3123L5.45395 6.07104C5.44504 6.07579 5.43656 6.08134 5.42864 6.08761L4.5702 6.94386Z" fill="#F37924"/>
<path d="M6.09359 7.81236L6.50922 7.39518L6.31359 7.14893L5.65234 7.81236H6.09359Z" fill="#F37924"/>
<path d="M5.54575 7.91913C5.51646 7.94843 5.5 7.98817 5.5 8.0296C5.5 8.07103 5.51646 8.11077 5.54575 8.14007C5.56013 8.15461 5.57726 8.16613 5.59615 8.17396C5.61504 8.1818 5.6353 8.18579 5.65575 8.18569C5.67636 8.18573 5.69677 8.18169 5.71581 8.17381C5.73485 8.16592 5.75214 8.15435 5.76669 8.13976L6.09356 7.81226H5.65231L5.54575 7.91913Z" fill="#E95410"/>
<path d="M4.04066 5.80435C4.00532 5.8172 3.97378 5.83874 3.94893 5.86697C3.92409 5.8952 3.90674 5.92922 3.89847 5.96591C3.89788 5.99525 3.9047 6.02426 3.9183 6.05026C3.9319 6.07626 3.95185 6.09841 3.97629 6.11466C4.02542 6.14681 4.07993 6.16989 4.13722 6.18278C4.32285 6.23528 4.51066 6.2806 4.69972 6.31466C4.74375 6.32982 4.79092 6.33346 4.83675 6.32526C4.88259 6.31706 4.92556 6.29727 4.9616 6.26778C4.98548 6.23671 4.99932 6.19911 5.00129 6.15997C5.00762 6.08024 4.98375 6.00104 4.93441 5.9381C4.81558 5.82953 4.66711 5.75882 4.50792 5.735C4.34874 5.71117 4.18606 5.73532 4.04066 5.80435V5.80435Z" fill="#FBCB00"/>
<path d="M5.33594 0.9375H6.58594V2.1875H5.33594V0.9375Z" fill="#30CFFF"/>
<path d="M7.52344 2.81253V3.43753H4.39844V2.81253C4.39893 2.64692 4.46494 2.48824 4.58204 2.37114C4.69915 2.25403 4.85783 2.18803 5.02344 2.18753H6.89844C6.98075 2.1867 7.06239 2.20229 7.1386 2.2334C7.21481 2.26452 7.28404 2.31052 7.34224 2.36873C7.40045 2.42693 7.44645 2.49616 7.47756 2.57237C7.50868 2.64858 7.52427 2.73022 7.52344 2.81253V2.81253Z" fill="#E7F5F5"/>
<path d="M7.55469 5.96563L7.52344 5.9375V3.4375H4.39844V5.40781C4.71089 5.43413 5.00409 5.56966 5.22656 5.79063C5.2623 5.82702 5.2957 5.86564 5.32656 5.90625L6.66094 7.58438L7.33594 8.4375H7.42969C7.28233 7.92983 7.20866 7.40362 7.21094 6.875C7.21596 6.54106 7.33756 6.21939 7.55469 5.96563V5.96563Z" fill="#30CFFF"/>
<path d="M5.33594 2.8125C5.33594 2.64674 5.40179 2.48777 5.519 2.37056C5.63621 2.25335 5.79518 2.1875 5.96094 2.1875H5.02344C4.85783 2.18799 4.69915 2.254 4.58204 2.3711C4.46494 2.48821 4.39893 2.64689 4.39844 2.8125V3.4375H5.33594V2.8125Z" fill="#CEDADA"/>
<path d="M7.55469 5.96563L7.52344 5.9375V4.84375C7.52344 5.13383 7.4082 5.41203 7.20309 5.61715C6.99797 5.82227 6.71977 5.9375 6.42969 5.9375C6.13961 5.9375 5.86141 5.82227 5.65629 5.61715C5.45117 5.41203 5.33594 5.13383 5.33594 4.84375V3.4375H4.39844V5.40781C4.71089 5.43413 5.00409 5.56966 5.22656 5.79063C5.2623 5.82702 5.2957 5.86564 5.32656 5.90625L6.66094 7.58438L7.33594 8.4375H7.42969C7.28233 7.92983 7.20866 7.40362 7.21094 6.875C7.21596 6.54106 7.33756 6.21939 7.55469 5.96563V5.96563Z" fill="#01A3EC"/>
<path d="M5.33594 0.9375V2.1875H6.58594V1.875H5.96094C5.87806 1.875 5.79857 1.84208 5.73997 1.78347C5.68136 1.72487 5.64844 1.64538 5.64844 1.5625V0.9375H5.33594Z" fill="#01A3EC"/>
<path d="M5.96094 0.9375H6.27344V1.875H5.96094V0.9375Z" fill="#01A3EC"/>
<path d="M7.21094 3.125C7.21094 3.04212 7.17801 2.96263 7.11941 2.90403C7.0608 2.84542 6.98132 2.8125 6.89844 2.8125C6.81556 2.8125 6.73607 2.84542 6.67747 2.90403C6.61886 2.96263 6.58594 3.04212 6.58594 3.125V3.4375H7.21094V3.125Z" fill="white"/>
<path d="M6.58594 3.4375V4.6875C6.58594 4.77038 6.61886 4.84987 6.67747 4.90847C6.73607 4.96708 6.81556 5 6.89844 5C6.98132 5 7.0608 4.96708 7.11941 4.90847C7.17801 4.84987 7.21094 4.77038 7.21094 4.6875V3.4375H6.58594Z" fill="#99EFFF"/>
<path d="M8.77344 12.8125C9.98156 12.8125 10.9609 12.3928 10.9609 11.875C10.9609 11.3572 9.98156 10.9375 8.77344 10.9375C7.56531 10.9375 6.58594 11.3572 6.58594 11.875C6.58594 12.3928 7.56531 12.8125 8.77344 12.8125Z" fill="#88AB00"/>
<path d="M15.3359 8.4375V17.8125L14.0859 19.6875V8.4375H14.8859H15.3359Z" fill="#E5AA5C"/>
<path d="M14.0859 8.4375V19.6875H4.08594L3.46094 19.0625V8.4375H14.0859ZM10.9609 11.875C10.9609 11.3563 9.98281 10.9375 8.77344 10.9375C7.56406 10.9375 6.58594 11.3563 6.58594 11.875C6.58594 12.3937 7.56406 12.8125 8.77344 12.8125C9.98281 12.8125 10.9609 12.3937 10.9609 11.875Z" fill="#FAD27A"/>
<path d="M16.4828 8.4375H15.3359V17.8125L16.5859 19.0625V8.4375H16.4828Z" fill="#D28E43"/>
<path d="M14.0859 19.6875L16.5859 19.0625L15.3359 17.8125L14.0859 19.6875Z" fill="#A15C27"/>
<path d="M8.77344 10.7812C7.43719 10.7812 6.42969 11.2516 6.42969 11.875C6.42969 12.4984 7.43719 12.9688 8.77344 12.9688C10.1097 12.9688 11.1172 12.4984 11.1172 11.875C11.1172 11.2516 10.1097 10.7812 8.77344 10.7812ZM8.77344 12.8125C7.56531 12.8125 6.58594 12.3928 6.58594 11.875C6.58594 11.3572 7.56531 10.9375 8.77344 10.9375C9.98156 10.9375 10.9609 11.3572 10.9609 11.875C10.9609 12.3928 9.98156 12.8125 8.77344 12.8125Z" fill="#FAAB1B"/>
<path d="M9.39844 18.4375C8.23812 18.4375 7.12532 17.9766 6.30485 17.1561C5.48437 16.3356 5.02344 15.2228 5.02344 14.0625V8.4375H3.46094V19.0625L4.08594 19.6875H14.0859V18.4375H9.39844Z" fill="#F5B662"/>
</g>
<defs>
<clipPath id="clip0_1868_4805">
<rect width="20" height="20" fill="white" transform="translate(0.0234375)"/>
</clipPath>
</defs>
</svg>
