<svg width="21" height="20" viewBox="0 0 21 20" fill="none" xmlns="http://www.w3.org/2000/svg">
<g clip-path="url(#clip0_1868_4962)">
<path d="M2.39847 15.2361C1.49565 13.747 0.982493 11.9952 1.00046 10.1225C1.05166 4.78013 5.37247 0.512144 10.715 0.52346C16.0593 0.534737 20.3882 4.87062 20.3882 10.2175C20.3882 11.9385 19.9398 13.5548 19.1533 14.9558C18.9294 15.3547 18.5046 15.5988 18.0472 15.5988H3.04437C2.78057 15.5988 2.53521 15.4617 2.39847 15.2361V15.2361Z" fill="#55A4F9"/>
<path d="M5.31248 0.0883789C4.9847 0.0883789 4.71897 0.354116 4.71897 0.681896V16.3176C4.71897 16.929 3.96706 17.2249 3.55346 16.7747C3.11382 16.2962 2.7217 15.7734 2.38446 15.2138V3.64948H2.26576C2.09095 3.64948 1.94922 3.50775 1.94922 3.33294V1.98764C1.94922 1.81282 2.09095 1.67109 2.26576 1.67109H2.38446V0.681896C2.38446 0.354116 2.6502 0.0883789 2.97798 0.0883789H5.31248Z" fill="#453D83"/>
<path d="M12.2785 3.64948V4.44084H12.3181C12.4929 4.44084 12.6346 4.58257 12.6346 4.75738V6.10269C12.6346 6.2775 12.4929 6.41923 12.3181 6.41923H12.2785V15.9313C12.2785 18.2288 10.1713 19.9674 7.92252 19.4966C7.83298 19.4778 7.75427 19.4578 7.68855 19.4364C6.40553 19.0181 5.24017 18.3395 4.25482 17.4629C4.04681 17.2778 3.92969 17.0113 3.92969 16.7329V0.681896C3.92969 0.354116 4.19543 0.0883789 4.52321 0.0883789H11.685C12.0128 0.0883789 12.2785 0.354116 12.2785 0.681896V1.67109H12.3181C12.4929 1.67109 12.6346 1.81282 12.6346 1.98764V3.33294C12.6346 3.50775 12.4929 3.64948 12.3181 3.64948H12.2785Z" fill="#51489A"/>
<path d="M11.1283 4.44069V16.9046C11.1283 17.2323 10.8625 17.4981 10.5348 17.4981H4.29202C4.02498 17.2631 3.77099 17.0137 3.53125 16.751V4.44069C3.53125 4.11291 3.79699 3.84717 4.12477 3.84717H10.5348C10.8625 3.84717 11.1283 4.11291 11.1283 4.44069Z" fill="#E9F3FE"/>
<path d="M3.53125 4.44048V2.65992C3.53125 2.33214 3.79699 2.06641 4.12477 2.06641H10.5348C10.8625 2.06641 11.1283 2.33214 11.1283 2.65992V4.44048H3.53125Z" fill="#82CD64"/>
<path d="M10.0629 5.62786C10.0629 5.84639 9.88579 6.02353 9.66726 6.02353H4.91912C4.70058 6.02353 4.52344 5.84639 4.52344 5.62786C4.52344 5.40932 4.70058 5.23218 4.91912 5.23218H9.66726C9.88579 5.23218 10.0629 5.40932 10.0629 5.62786ZM7.29319 6.81489H4.91912C4.70058 6.81489 4.52344 6.99204 4.52344 7.21057C4.52344 7.4291 4.70058 7.60625 4.91912 7.60625H7.29319C7.51172 7.60625 7.68886 7.4291 7.68886 7.21057C7.68886 6.99204 7.51172 6.81489 7.29319 6.81489Z" fill="#C0E6B1"/>
<path d="M5.31479 5.62786C5.31479 5.84639 5.13765 6.02353 4.91912 6.02353C4.70058 6.02353 4.52344 5.84639 4.52344 5.62786C4.52344 5.40932 4.70058 5.23218 4.91912 5.23218C5.13765 5.23218 5.31479 5.40932 5.31479 5.62786ZM6.10615 5.23218C5.88762 5.23218 5.71047 5.40932 5.71047 5.62786C5.71047 5.84639 5.88762 6.02353 6.10615 6.02353C6.32468 6.02353 6.50183 5.84639 6.50183 5.62786C6.50183 5.40932 6.32468 5.23218 6.10615 5.23218ZM7.29319 5.23218C7.07465 5.23218 6.89751 5.40932 6.89751 5.62786C6.89751 5.84639 7.07465 6.02353 7.29319 6.02353C7.51172 6.02353 7.68886 5.84639 7.68886 5.62786C7.68886 5.40932 7.51172 5.23218 7.29319 5.23218ZM8.48022 5.23218C8.26169 5.23218 8.08454 5.40932 8.08454 5.62786C8.08454 5.84639 8.26169 6.02353 8.48022 6.02353C8.69875 6.02353 8.8759 5.84639 8.8759 5.62786C8.8759 5.40932 8.69875 5.23218 8.48022 5.23218ZM9.66726 5.23218C9.44872 5.23218 9.27158 5.40932 9.27158 5.62786C9.27158 5.84639 9.44872 6.02353 9.66726 6.02353C9.88579 6.02353 10.0629 5.84639 10.0629 5.62786C10.0629 5.40932 9.88579 5.23218 9.66726 5.23218ZM4.91912 6.81489C4.70058 6.81489 4.52344 6.99204 4.52344 7.21057C4.52344 7.4291 4.70058 7.60625 4.91912 7.60625C5.13765 7.60625 5.31479 7.4291 5.31479 7.21057C5.31479 6.99204 5.13765 6.81489 4.91912 6.81489ZM6.10615 6.81489C5.88762 6.81489 5.71047 6.99204 5.71047 7.21057C5.71047 7.4291 5.88762 7.60625 6.10615 7.60625C6.32468 7.60625 6.50183 7.4291 6.50183 7.21057C6.50183 6.99204 6.32468 6.81489 6.10615 6.81489ZM7.29319 6.81489C7.07465 6.81489 6.89751 6.99204 6.89751 7.21057C6.89751 7.4291 7.07465 7.60625 7.29319 7.60625C7.51172 7.60625 7.68886 7.4291 7.68886 7.21057C7.68886 6.99204 7.51172 6.81489 7.29319 6.81489Z" fill="#6DC54A"/>
<path d="M8.8759 7.21038C8.8759 7.42891 8.69875 7.60605 8.48022 7.60605C8.26169 7.60605 8.08454 7.42891 8.08454 7.21038C8.08454 6.99184 8.26169 6.8147 8.48022 6.8147C8.69875 6.8147 8.8759 6.99184 8.8759 7.21038ZM9.66726 6.8147C9.44872 6.8147 9.27158 6.99184 9.27158 7.21038C9.27158 7.42891 9.44872 7.60605 9.66726 7.60605C9.88579 7.60605 10.0629 7.42891 10.0629 7.21038C10.0629 6.99184 9.88579 6.8147 9.66726 6.8147ZM4.91912 8.39741C4.70058 8.39741 4.52344 8.57456 4.52344 8.79309C4.52344 9.01162 4.70058 9.18877 4.91912 9.18877C5.13765 9.18877 5.31479 9.01162 5.31479 8.79309C5.31479 8.57456 5.13765 8.39741 4.91912 8.39741ZM6.10615 8.39741C5.88762 8.39741 5.71047 8.57456 5.71047 8.79309C5.71047 9.01162 5.88762 9.18877 6.10615 9.18877C6.32468 9.18877 6.50183 9.01162 6.50183 8.79309C6.50183 8.57456 6.32468 8.39741 6.10615 8.39741ZM7.29319 8.39741C7.07465 8.39741 6.89751 8.57456 6.89751 8.79309C6.89751 9.01162 7.07465 9.18877 7.29319 9.18877C7.51172 9.18877 7.68886 9.01162 7.68886 8.79309C7.68886 8.57456 7.51172 8.39741 7.29319 8.39741ZM4.91912 9.98012C4.70058 9.98012 4.52344 10.1573 4.52344 10.3758C4.52344 10.5943 4.70058 10.7715 4.91912 10.7715C5.13765 10.7715 5.31479 10.5943 5.31479 10.3758C5.31479 10.1573 5.13765 9.98012 4.91912 9.98012ZM6.10615 9.98012C5.88762 9.98012 5.71047 10.1573 5.71047 10.3758C5.71047 10.5943 5.88762 10.7715 6.10615 10.7715C6.32468 10.7715 6.50183 10.5943 6.50183 10.3758C6.50183 10.1573 6.32468 9.98012 6.10615 9.98012ZM7.29319 9.98012C7.07465 9.98012 6.89751 10.1573 6.89751 10.3758C6.89751 10.5943 7.07465 10.7715 7.29319 10.7715C7.51172 10.7715 7.68886 10.5943 7.68886 10.3758C7.68886 10.1573 7.51172 9.98012 7.29319 9.98012Z" fill="#A7D0FC"/>
<path d="M8.4183 1.37428H7.38954C7.22565 1.37428 7.09278 1.24141 7.09278 1.07752C7.09278 0.913631 7.22565 0.780762 7.38954 0.780762H8.4183C8.58219 0.780762 8.71506 0.913631 8.71506 1.07752C8.71506 1.24141 8.58219 1.37428 8.4183 1.37428ZM6.53883 1.07752C6.53883 0.913631 6.40596 0.780762 6.24207 0.780762C6.07818 0.780762 5.94531 0.913631 5.94531 1.07752C5.94531 1.24141 6.07818 1.37428 6.24207 1.37428C6.40596 1.37428 6.53883 1.24141 6.53883 1.07752ZM7.88414 18.2895H6.6971C6.4098 18.2895 6.17018 18.4937 6.11538 18.7648C6.65279 19.0533 7.22054 19.2925 7.8126 19.4766H7.88414C8.21192 19.4766 8.47765 19.2108 8.47765 18.883C8.47765 18.5553 8.21192 18.2895 7.88414 18.2895Z" fill="#19305C"/>
<path d="M8.16368 3.57034H4.83998C4.66517 3.57034 4.52344 3.42861 4.52344 3.2538C4.52344 3.07899 4.66517 2.93726 4.83998 2.93726H8.16368C8.33849 2.93726 8.48022 3.07899 8.48022 3.2538C8.48022 3.42861 8.33849 3.57034 8.16368 3.57034Z" fill="#5DB33A"/>
<path d="M6.5414 14.7284H5.51263C4.96632 14.7284 4.52344 14.2855 4.52344 13.7392C4.52344 13.1929 4.96632 12.75 5.51263 12.75H6.5414C7.08771 12.75 7.53059 13.1929 7.53059 13.7392C7.53059 14.2855 7.08771 14.7284 6.5414 14.7284Z" fill="#C50048"/>
<path d="M9.0703 14.7284H6.69623C6.14991 14.7284 5.70703 14.2855 5.70703 13.7392C5.70703 13.1929 6.14991 12.75 6.69623 12.75H9.0703C9.61661 12.75 10.0595 13.1929 10.0595 13.7392C10.0595 14.2855 9.61661 14.7284 9.0703 14.7284Z" fill="#F44545"/>
<path d="M19.1599 14.9412C17.502 17.9068 14.3313 19.9118 10.6924 19.9118C9.93001 19.9118 9.18819 19.8238 8.47656 19.6575V9.18896H19.1599V14.9412Z" fill="#FFE1AA"/>
<path d="M7.6875 9.18896H9.27021V19.8079C8.72667 19.7279 8.19777 19.6027 7.6875 19.4364V9.18896Z" fill="#FFD993"/>
<path d="M9.27516 11.5631H7.6875V8.59547C7.6875 8.26769 7.95324 8.00195 8.28102 8.00195H9.86373C10.1915 8.00195 10.4572 8.26769 10.4572 8.59547V10.381C10.4572 11.0338 9.92803 11.5631 9.27516 11.5631Z" fill="#C50048"/>
<path d="M19.1615 11.5633H9.26953V8.59571C9.26953 8.26793 9.53527 8.0022 9.86305 8.0022H18.568C18.8958 8.0022 19.1615 8.26793 19.1615 8.59571V11.5633Z" fill="#F44545"/>
<path d="M10.4554 7.60613V9.9802C10.4554 10.1987 10.2783 10.3759 10.0597 10.3759C9.84121 10.3759 9.66406 10.1987 9.66406 9.9802V7.60613C9.66406 7.38759 9.84121 7.21045 10.0597 7.21045C10.2783 7.21045 10.4554 7.38759 10.4554 7.60613ZM17.182 7.21045C16.9634 7.21045 16.7863 7.38759 16.7863 7.60613V9.9802C16.7863 10.1987 16.9634 10.3759 17.182 10.3759C17.4005 10.3759 17.5776 10.1987 17.5776 9.9802V7.60613C17.5776 7.38759 17.4005 7.21045 17.182 7.21045Z" fill="#FFC14F"/>
<path d="M16.3922 15.3218C16.3922 16.9608 15.0636 18.2894 13.4246 18.2894C11.7857 18.2894 10.457 16.9608 10.457 15.3218C10.457 13.6829 11.7857 12.3542 13.4246 12.3542C15.0636 12.3542 16.3922 13.6829 16.3922 15.3218Z" fill="#82CD64"/>
<path d="M16.0984 16.6109C15.6187 17.6043 14.6017 18.2896 13.4246 18.2896C11.7857 18.2896 10.457 16.9609 10.457 15.322C10.457 14.1449 11.1423 13.1279 12.1357 12.6482C11.9474 13.038 11.8419 13.4752 11.8419 13.9371C11.8419 15.5761 13.1706 16.9047 14.8095 16.9047C15.2714 16.9047 15.7086 16.7992 16.0984 16.6109Z" fill="#6DC54A"/>
<path d="M17.0041 12.954L13.5064 16.664C13.4503 16.7234 13.3722 16.7571 13.2904 16.7571C13.2087 16.7571 13.1306 16.7234 13.0745 16.664L11.4285 14.9181C11.3161 14.7988 11.3216 14.611 11.4408 14.4986C11.5601 14.3862 11.7479 14.3917 11.8603 14.511L13.2904 16.0278L16.5723 12.5468C16.6848 12.4275 16.8725 12.422 16.9918 12.5345C17.1111 12.6469 17.1166 12.8347 17.0041 12.954Z" fill="#FFF5F5"/>
</g>
<defs>
<clipPath id="clip0_1868_4962">
<rect width="19.8235" height="19.8235" fill="white" transform="translate(0.785156 0.0883789)"/>
</clipPath>
</defs>
</svg>
