<svg width="23" height="22" viewBox="0 0 23 22" fill="none" xmlns="http://www.w3.org/2000/svg">
<g clip-path="url(#clip0_1868_4903)">
<path d="M11.3711 22C17.4462 22 22.3711 17.0751 22.3711 11C22.3711 4.92487 17.4462 0 11.3711 0C5.29596 0 0.371094 4.92487 0.371094 11C0.371094 17.0751 5.29596 22 11.3711 22Z" fill="#4F97FF"/>
<path d="M11.3711 0C17.4365 0 22.3711 4.93457 22.3711 11C22.3711 17.0654 17.4365 22 11.3711 22V0Z" fill="#5E69E2"/>
<path d="M11.3713 19.2383C15.9214 19.2383 19.6099 15.5498 19.6099 10.9998C19.6099 6.44974 15.9214 2.76123 11.3713 2.76123C6.82133 2.76123 3.13281 6.44974 3.13281 10.9998C3.13281 15.5498 6.82133 19.2383 11.3713 19.2383Z" fill="#26C8FF"/>
<path d="M11.3711 2.76147C15.9138 2.76147 19.6096 6.45726 19.6096 11C19.6096 15.5427 15.9138 19.2385 11.3711 19.2385V2.76147Z" fill="#4F97FF"/>
<path d="M10.8335 5.46474L7.38169 10.6425C7.23735 10.859 7.23735 11.141 7.38169 11.3575L10.8335 16.5353C11.0886 16.9179 11.6509 16.9179 11.9061 16.5353L15.3579 11.3575C15.5022 11.141 15.5022 10.859 15.3579 10.6425L11.9061 5.46474C11.6509 5.08206 11.0886 5.08206 10.8335 5.46474Z" fill="#44E6FF"/>
<path d="M11.3711 11.8327V16.8224C11.5755 16.8224 11.7798 16.7268 11.9074 16.5354L15.3592 11.3577C15.4263 11.257 15.4618 11.1422 15.4665 11.0264L11.4975 11.8202C11.4558 11.8285 11.4134 11.8327 11.3711 11.8327V11.8327Z" fill="#26C8FF"/>
<path d="M11.3694 5.17773C11.165 5.17773 10.9607 5.27338 10.8331 5.46472L7.38127 10.6425C7.30405 10.7583 7.26856 10.8929 7.27397 11.0262L11.243 11.82C11.2847 11.8284 11.327 11.8325 11.3694 11.8325V5.17773Z" fill="white"/>
</g>
<defs>
<clipPath id="clip0_1868_4903">
<rect width="22" height="22" fill="white" transform="translate(0.371094)"/>
</clipPath>
</defs>
</svg>
