<svg width="82" height="25" viewBox="0 0 82 25" fill="none" xmlns="http://www.w3.org/2000/svg">
<path d="M23.96 13.82C23.96 12.9 24.0933 12.0933 24.36 11.4C24.64 10.7067 25.0067 10.1333 25.46 9.68C25.9133 9.21333 26.4333 8.86667 27.02 8.64C27.6067 8.4 28.2067 8.28 28.82 8.28C30.26 8.28 31.38 8.72667 32.18 9.62C32.9933 10.5133 33.4 11.8467 33.4 13.62C33.4 13.7533 33.3933 13.9067 33.38 14.08C33.38 14.24 33.3733 14.3867 33.36 14.52H26.46C26.5267 15.36 26.82 16.0133 27.34 16.48C27.8733 16.9333 28.64 17.16 29.64 17.16C30.2267 17.16 30.76 17.1067 31.24 17C31.7333 16.8933 32.12 16.78 32.4 16.66L32.72 18.64C32.5867 18.7067 32.4 18.78 32.16 18.86C31.9333 18.9267 31.6667 18.9867 31.36 19.04C31.0667 19.1067 30.7467 19.16 30.4 19.2C30.0533 19.24 29.7 19.26 29.34 19.26C28.42 19.26 27.62 19.1267 26.94 18.86C26.26 18.58 25.7 18.2 25.26 17.72C24.82 17.2267 24.4933 16.6533 24.28 16C24.0667 15.3333 23.96 14.6067 23.96 13.82ZM30.98 12.74C30.98 12.4067 30.9333 12.0933 30.84 11.8C30.7467 11.4933 30.6067 11.2333 30.42 11.02C30.2467 10.7933 30.0267 10.62 29.76 10.5C29.5067 10.3667 29.2 10.3 28.84 10.3C28.4667 10.3 28.14 10.3733 27.86 10.52C27.58 10.6533 27.34 10.8333 27.14 11.06C26.9533 11.2867 26.8067 11.5467 26.7 11.84C26.5933 12.1333 26.52 12.4333 26.48 12.74H30.98ZM37.8658 13.5C37.8658 14.5267 38.0858 15.28 38.5258 15.76C38.9791 16.2267 39.5591 16.46 40.2658 16.46C40.6524 16.46 41.0124 16.4067 41.3458 16.3C41.6924 16.1933 41.9724 16.0667 42.1858 15.92V10.5C42.0124 10.46 41.7991 10.4267 41.5458 10.4C41.2924 10.36 40.9724 10.34 40.5858 10.34C39.7058 10.34 39.0324 10.6333 38.5658 11.22C38.0991 11.7933 37.8658 12.5533 37.8658 13.5ZM44.6058 17.94C44.6058 19.6067 44.1791 20.8267 43.3258 21.6C42.4858 22.3733 41.1924 22.76 39.4458 22.76C38.8058 22.76 38.1791 22.7067 37.5658 22.6C36.9658 22.4933 36.4191 22.3533 35.9258 22.18L36.3658 20.12C36.7791 20.2933 37.2458 20.4333 37.7658 20.54C38.2991 20.6467 38.8724 20.7 39.4858 20.7C40.4591 20.7 41.1524 20.5 41.5658 20.1C41.9791 19.7 42.1858 19.1067 42.1858 18.32V17.92C41.9458 18.04 41.6258 18.16 41.2258 18.28C40.8391 18.4 40.3924 18.46 39.8858 18.46C39.2191 18.46 38.6058 18.3533 38.0458 18.14C37.4991 17.9267 37.0258 17.6133 36.6258 17.2C36.2391 16.7867 35.9324 16.2733 35.7058 15.66C35.4924 15.0333 35.3858 14.3133 35.3858 13.5C35.3858 12.74 35.4991 12.04 35.7258 11.4C35.9658 10.76 36.3058 10.2133 36.7458 9.76C37.1991 9.30667 37.7458 8.95333 38.3858 8.7C39.0258 8.44667 39.7524 8.32 40.5658 8.32C41.3524 8.32 42.0991 8.38 42.8058 8.5C43.5124 8.62 44.1124 8.74667 44.6058 8.88V17.94ZM51.3645 17.3C52.1112 17.3 52.6779 17.26 53.0645 17.18V14.5C52.9312 14.46 52.7379 14.42 52.4845 14.38C52.2312 14.34 51.9512 14.32 51.6445 14.32C51.3779 14.32 51.1045 14.34 50.8245 14.38C50.5579 14.42 50.3112 14.4933 50.0845 14.6C49.8712 14.7067 49.6979 14.86 49.5645 15.06C49.4312 15.2467 49.3645 15.4867 49.3645 15.78C49.3645 16.3533 49.5445 16.7533 49.9045 16.98C50.2645 17.1933 50.7512 17.3 51.3645 17.3ZM51.1645 8.28C51.9645 8.28 52.6379 8.38 53.1845 8.58C53.7312 8.78 54.1645 9.06 54.4845 9.42C54.8179 9.78 55.0512 10.22 55.1845 10.74C55.3312 11.2467 55.4045 11.8067 55.4045 12.42V18.76C55.0312 18.84 54.4645 18.9333 53.7045 19.04C52.9579 19.16 52.1112 19.22 51.1645 19.22C50.5379 19.22 49.9645 19.16 49.4445 19.04C48.9245 18.92 48.4779 18.7267 48.1045 18.46C47.7445 18.1933 47.4579 17.8467 47.2445 17.42C47.0445 16.9933 46.9445 16.4667 46.9445 15.84C46.9445 15.24 47.0579 14.7333 47.2845 14.32C47.5245 13.9067 47.8445 13.5733 48.2445 13.32C48.6445 13.0533 49.1045 12.8667 49.6245 12.76C50.1579 12.64 50.7112 12.58 51.2845 12.58C51.5512 12.58 51.8312 12.6 52.1245 12.64C52.4179 12.6667 52.7312 12.72 53.0645 12.8V12.4C53.0645 12.12 53.0312 11.8533 52.9645 11.6C52.8979 11.3467 52.7779 11.1267 52.6045 10.94C52.4445 10.74 52.2245 10.5867 51.9445 10.48C51.6779 10.3733 51.3379 10.32 50.9245 10.32C50.3645 10.32 49.8512 10.36 49.3845 10.44C48.9179 10.52 48.5379 10.6133 48.2445 10.72L47.9445 8.76C48.2512 8.65333 48.6979 8.54667 49.2845 8.44C49.8712 8.33333 50.4979 8.28 51.1645 8.28ZM60.7881 12.62C61.0948 12.3 61.4215 11.96 61.7681 11.6C62.1148 11.2267 62.4548 10.86 62.7881 10.5C63.1215 10.1267 63.4348 9.77333 63.7281 9.44C64.0348 9.09333 64.2948 8.79333 64.5081 8.54H67.3681C66.7015 9.28667 65.9948 10.06 65.2481 10.86C64.5148 11.66 63.7748 12.44 63.0281 13.2C63.4281 13.5333 63.8481 13.94 64.2881 14.42C64.7281 14.8867 65.1548 15.3867 65.5681 15.92C65.9815 16.4533 66.3681 16.9867 66.7281 17.52C67.0881 18.0533 67.3881 18.5467 67.6281 19H64.8281C64.5881 18.5867 64.3081 18.1533 63.9881 17.7C63.6815 17.2467 63.3481 16.8067 62.9881 16.38C62.6281 15.9533 62.2615 15.5533 61.8881 15.18C61.5148 14.7933 61.1481 14.4667 60.7881 14.2V19H58.3681V3.88L60.7881 3.48V12.62ZM71.8238 19H69.4038V8.54H71.8238V19ZM72.0838 5.48C72.0838 5.93333 71.9371 6.29333 71.6438 6.56C71.3504 6.82667 71.0038 6.96 70.6038 6.96C70.1904 6.96 69.8371 6.82667 69.5438 6.56C69.2504 6.29333 69.1038 5.93333 69.1038 5.48C69.1038 5.01333 69.2504 4.64667 69.5438 4.38C69.8371 4.11333 70.1904 3.98 70.6038 3.98C71.0038 3.98 71.3504 4.11333 71.6438 4.38C71.9371 4.64667 72.0838 5.01333 72.0838 5.48ZM74.7911 5.78L77.2111 5.38V8.54H80.9311V10.56H77.2111V14.82C77.2111 15.66 77.3444 16.26 77.6111 16.62C77.8778 16.98 78.3311 17.16 78.9711 17.16C79.4111 17.16 79.7978 17.1133 80.1311 17.02C80.4778 16.9267 80.7511 16.84 80.9511 16.76L81.3511 18.68C81.0711 18.8 80.7044 18.92 80.2511 19.04C79.7978 19.1733 79.2644 19.24 78.6511 19.24C77.9044 19.24 77.2778 19.14 76.7711 18.94C76.2778 18.74 75.8844 18.4533 75.5911 18.08C75.2978 17.6933 75.0911 17.2333 74.9711 16.7C74.8511 16.1533 74.7911 15.5333 74.7911 14.84V5.78Z" fill="white"/>
<path d="M12.3526 13.67C12.3261 13.3524 12.2961 13.0354 12.2604 12.7189C12.2435 12.5708 12.2262 12.4233 12.2072 12.2752C12.1989 12.2179 12.1908 12.1606 12.1823 12.1031C12.1019 11.5652 12.0078 11.0288 11.8834 10.4994C11.8477 10.347 11.8088 10.195 11.7681 10.0432C11.7629 10.0599 11.7566 10.076 11.7514 10.093C11.5093 10.8475 11.3189 11.6187 11.1534 12.3942C10.7765 14.1573 10.5508 15.9468 10.1968 17.7142C10.0178 18.6097 9.83393 19.5289 9.49504 20.3805C9.18947 21.149 8.80948 21.9019 7.96164 22.1751C6.34339 22.6965 5.58219 20.7445 5.21464 19.5811C4.78333 18.2166 4.48932 16.8101 4.1482 15.4211C4.08334 15.1565 4.01702 14.8921 3.94893 14.628C3.5685 16.4634 3.3719 18.3565 2.66035 20.092C2.65502 20.1051 2.64913 20.1189 2.6438 20.1319L8.88668 23.7492C9.53502 24.1248 10.4179 24.2858 11.2686 24.2338C11.2948 24.1822 11.3211 24.1311 11.3456 24.0788C11.3672 24.0328 11.3882 23.9871 11.4089 23.9409C11.5003 23.711 11.585 23.4779 11.659 23.2414C11.8355 22.6775 11.9751 22.1019 12.0839 21.521C12.1426 21.2084 12.1952 20.8943 12.2395 20.5793C12.2397 20.5779 12.2397 20.577 12.2403 20.5757C12.2488 20.5071 12.2576 20.4389 12.2656 20.3702C12.285 20.2049 12.3036 20.0394 12.3198 19.8734C12.3867 19.1942 12.4313 18.5123 12.4533 17.8298C12.4978 16.4435 12.4675 15.0527 12.3526 13.67Z" fill="#CDEAE2"/>
<path d="M15.1551 17.9164C15.0955 19.5208 14.9723 21.2241 14.593 22.843L19.5026 19.9857C20.6417 19.3255 21.5522 17.7086 21.5522 16.3922V16.0019L13.5024 7.29614C14.0287 7.9877 14.2883 8.94517 14.4807 9.78034C15.09 12.4215 15.2557 15.2139 15.1551 17.9164Z" fill="#CDEAE2"/>
<path d="M19.5027 5.2586L13.0177 1.49492C11.8785 0.835025 10.0202 0.835025 8.88116 1.49492L2.45223 5.2586C1.31327 5.91872 0.447876 7.53587 0.447876 8.85189V16.3922C0.447876 16.8013 0.473979 17.2393 0.632261 17.6686C0.904396 16.5455 1.05846 15.4046 1.29072 14.2723C1.46644 13.4148 1.6295 12.5294 1.96905 11.7189C2.25896 11.0261 2.65894 10.169 3.48901 10.0068C4.37939 9.83335 5.09616 10.269 5.54301 11.0239L8.14728 13.7925C8.37654 12.4345 8.63146 11.0799 9.02511 9.76015C9.31002 8.80435 9.66946 7.49455 10.493 6.83809C11.5635 5.98448 12.7023 6.24384 13.5027 7.29617L21.5522 16.0019V8.85189C21.5522 7.53587 20.6417 5.91872 19.5027 5.2586Z" fill="white"/>
<path d="M6.75656 14.7021C6.99359 15.6698 7.20819 16.6466 7.46289 17.6115C7.62961 16.8559 7.76413 16.0921 7.89053 15.3304C7.9755 14.8185 8.0587 14.3053 8.14534 13.7924L5.53906 11.0237C6.18697 12.1187 6.45721 13.4804 6.75656 14.7021Z" fill="#CDEAE2"/>
</svg>
