<svg width="85" height="21" viewBox="0 0 85 21" fill="none" xmlns="http://www.w3.org/2000/svg">
<path d="M1.266 16C1.10467 16 0.972667 15.9487 0.87 15.846C0.767333 15.7433 0.716 15.6187 0.716 15.472V1.15C0.716 0.988666 0.767333 0.856666 0.87 0.754C0.972667 0.651332 1.10467 0.599999 1.266 0.599999H3.004C3.20933 0.599999 3.36333 0.658666 3.466 0.775999C3.56867 0.878666 3.63467 0.959332 3.664 1.018L7.91 8.938L12.2 1.018C12.2293 0.959332 12.2953 0.878666 12.398 0.775999C12.5007 0.658666 12.6547 0.599999 12.86 0.599999H14.576C14.7373 0.599999 14.8693 0.651332 14.972 0.754C15.0747 0.856666 15.126 0.988666 15.126 1.15V15.472C15.126 15.6187 15.0747 15.7433 14.972 15.846C14.8693 15.9487 14.7373 16 14.576 16H12.728C12.5667 16 12.4347 15.9487 12.332 15.846C12.244 15.7433 12.2 15.6187 12.2 15.472V5.946L9.12 11.82C9.04667 11.952 8.95133 12.0693 8.834 12.172C8.71667 12.26 8.56267 12.304 8.372 12.304H7.47C7.26467 12.304 7.10333 12.26 6.986 12.172C6.88333 12.0693 6.79533 11.952 6.722 11.82L3.642 5.946V15.472C3.642 15.6187 3.59067 15.7433 3.488 15.846C3.38533 15.9487 3.26067 16 3.114 16H1.266ZM23.212 16.22C21.584 16.22 20.2934 15.7507 19.34 14.812C18.3867 13.8733 17.8734 12.5387 17.8 10.808C17.7854 10.6613 17.778 10.478 17.778 10.258C17.778 10.0233 17.7854 9.84 17.8 9.708C17.8587 8.608 18.108 7.65467 18.548 6.848C19.0027 6.04133 19.626 5.42533 20.418 5C21.21 4.56 22.1414 4.34 23.212 4.34C24.4 4.34 25.3974 4.58933 26.204 5.088C27.0107 5.572 27.6194 6.254 28.03 7.134C28.4407 7.99933 28.646 9.004 28.646 10.148V10.61C28.646 10.7567 28.5947 10.8813 28.492 10.984C28.3894 11.0867 28.2574 11.138 28.096 11.138H20.792C20.792 11.138 20.792 11.16 20.792 11.204C20.792 11.248 20.792 11.2847 20.792 11.314C20.8067 11.8273 20.902 12.304 21.078 12.744C21.2687 13.1693 21.54 13.514 21.892 13.778C22.2587 14.042 22.6914 14.174 23.19 14.174C23.6007 14.174 23.9454 14.1153 24.224 13.998C24.5027 13.866 24.73 13.7193 24.906 13.558C25.082 13.3967 25.2067 13.2647 25.28 13.162C25.412 12.986 25.5147 12.8833 25.588 12.854C25.676 12.81 25.8007 12.788 25.962 12.788H27.854C28.0007 12.788 28.118 12.832 28.206 12.92C28.3087 13.008 28.3527 13.118 28.338 13.25C28.3234 13.4847 28.1987 13.7707 27.964 14.108C27.744 14.4453 27.4214 14.7753 26.996 15.098C26.5707 15.4207 26.0354 15.692 25.39 15.912C24.7594 16.1173 24.0334 16.22 23.212 16.22ZM20.792 9.29H25.654V9.224C25.654 8.652 25.5587 8.15333 25.368 7.728C25.1774 7.30267 24.8987 6.96533 24.532 6.716C24.1654 6.46667 23.7254 6.342 23.212 6.342C22.6987 6.342 22.2587 6.46667 21.892 6.716C21.5254 6.96533 21.2467 7.30267 21.056 7.728C20.88 8.15333 20.792 8.652 20.792 9.224V9.29ZM36.1513 20.84C35.0806 20.84 34.2006 20.7007 33.5113 20.422C32.822 20.1433 32.2793 19.806 31.8833 19.41C31.4873 19.014 31.2013 18.618 31.0253 18.222C30.864 17.8407 30.776 17.54 30.7613 17.32C30.7466 17.1733 30.7906 17.0413 30.8933 16.924C31.0106 16.8213 31.1426 16.77 31.2893 16.77H33.2033C33.35 16.77 33.4673 16.7993 33.5553 16.858C33.6433 16.9313 33.7166 17.056 33.7753 17.232C33.8633 17.4227 33.9806 17.628 34.1273 17.848C34.274 18.068 34.494 18.2513 34.7873 18.398C35.0953 18.5593 35.5133 18.64 36.0413 18.64C36.5986 18.64 37.068 18.5593 37.4493 18.398C37.8306 18.2367 38.1166 17.9653 38.3073 17.584C38.5126 17.2027 38.6153 16.6747 38.6153 16V14.504C38.2633 14.9293 37.8086 15.274 37.2513 15.538C36.7086 15.802 36.034 15.934 35.2273 15.934C34.4353 15.934 33.7533 15.8093 33.1813 15.56C32.6093 15.296 32.1326 14.9367 31.7513 14.482C31.37 14.0127 31.0766 13.4627 30.8713 12.832C30.6806 12.2013 30.5706 11.5047 30.5413 10.742C30.5266 10.346 30.5266 9.95 30.5413 9.554C30.5706 8.82067 30.6806 8.13867 30.8713 7.508C31.062 6.87733 31.348 6.32733 31.7293 5.858C32.1253 5.374 32.6093 5 33.1813 4.736C33.7533 4.472 34.4353 4.34 35.2273 4.34C36.0633 4.34 36.7673 4.50133 37.3393 4.824C37.9113 5.132 38.3806 5.52067 38.7473 5.99V5.11C38.7473 4.94867 38.7986 4.81667 38.9013 4.714C39.004 4.61133 39.1286 4.56 39.2753 4.56H41.0573C41.204 4.56 41.3286 4.61133 41.4313 4.714C41.534 4.81667 41.5853 4.94867 41.5853 5.11L41.6073 15.714C41.6073 16.77 41.4093 17.6793 41.0133 18.442C40.6173 19.2047 40.016 19.7913 39.2093 20.202C38.4173 20.6273 37.398 20.84 36.1513 20.84ZM36.0413 13.602C36.6426 13.602 37.1266 13.47 37.4933 13.206C37.86 12.942 38.1313 12.5973 38.3073 12.172C38.4833 11.7467 38.586 11.314 38.6153 10.874C38.63 10.6833 38.6373 10.4413 38.6373 10.148C38.6373 9.85467 38.63 9.62 38.6153 9.444C38.586 8.98933 38.4833 8.55667 38.3073 8.146C38.1313 7.72067 37.86 7.376 37.4933 7.112C37.1266 6.83333 36.6426 6.694 36.0413 6.694C35.44 6.694 34.956 6.83333 34.5893 7.112C34.2226 7.376 33.9586 7.728 33.7973 8.168C33.6506 8.608 33.5626 9.092 33.5333 9.62C33.504 9.972 33.504 10.3313 33.5333 10.698C33.5626 11.2113 33.6506 11.6953 33.7973 12.15C33.9586 12.59 34.2226 12.942 34.5893 13.206C34.956 13.47 35.44 13.602 36.0413 13.602ZM47.8599 16.22C47.0973 16.22 46.4079 16.0733 45.7919 15.78C45.1759 15.472 44.6846 15.0687 44.3179 14.57C43.9659 14.0567 43.7899 13.4847 43.7899 12.854C43.7899 11.8273 44.2006 11.0133 45.0219 10.412C45.8579 9.796 46.9579 9.38533 48.3219 9.18L51.3359 8.74V8.278C51.3359 7.662 51.1819 7.18533 50.8739 6.848C50.5659 6.51067 50.0379 6.342 49.2899 6.342C48.7619 6.342 48.3293 6.452 47.9919 6.672C47.6693 6.87733 47.4273 7.156 47.2659 7.508C47.1486 7.69867 46.9799 7.794 46.7599 7.794H45.0219C44.8606 7.794 44.7359 7.75 44.6479 7.662C44.5746 7.574 44.5379 7.45667 44.5379 7.31C44.5526 7.07533 44.6479 6.78933 44.8239 6.452C44.9999 6.11467 45.2786 5.792 45.6599 5.484C46.0413 5.16133 46.5326 4.89 47.1339 4.67C47.7353 4.45 48.4613 4.34 49.3119 4.34C50.2359 4.34 51.0133 4.45733 51.6439 4.692C52.2893 4.912 52.8026 5.21267 53.1839 5.594C53.5653 5.97533 53.8439 6.42267 54.0199 6.936C54.1959 7.44933 54.2839 7.992 54.2839 8.564V15.472C54.2839 15.6187 54.2326 15.7433 54.1299 15.846C54.0273 15.9487 53.9026 16 53.7559 16H51.9739C51.8126 16 51.6806 15.9487 51.5779 15.846C51.4899 15.7433 51.4459 15.6187 51.4459 15.472V14.614C51.2553 14.8927 50.9986 15.1567 50.6759 15.406C50.3533 15.6407 49.9573 15.8387 49.4879 16C49.0333 16.1467 48.4906 16.22 47.8599 16.22ZM48.6079 14.13C49.1213 14.13 49.5833 14.02 49.9939 13.8C50.4193 13.58 50.7493 13.2427 50.9839 12.788C51.2333 12.3187 51.3579 11.732 51.3579 11.028V10.566L49.1579 10.918C48.2926 11.05 47.6473 11.2627 47.2219 11.556C46.7966 11.8493 46.5839 12.2087 46.5839 12.634C46.5839 12.9567 46.6793 13.2353 46.8699 13.47C47.0753 13.69 47.3319 13.8587 47.6399 13.976C47.9479 14.0787 48.2706 14.13 48.6079 14.13ZM57.8983 16C57.7516 16 57.627 15.9487 57.5243 15.846C57.4216 15.7433 57.3703 15.6187 57.3703 15.472V1.15C57.3703 0.988666 57.4216 0.856666 57.5243 0.754C57.627 0.651332 57.7516 0.599999 57.8983 0.599999H59.8343C59.9956 0.599999 60.1276 0.651332 60.2303 0.754C60.333 0.856666 60.3843 0.988666 60.3843 1.15V6.298L65.3563 0.995999C65.415 0.922666 65.5103 0.841999 65.6423 0.754C65.789 0.651332 65.9796 0.599999 66.2143 0.599999H68.3923C68.5096 0.599999 68.6123 0.643999 68.7003 0.732C68.803 0.82 68.8543 0.93 68.8543 1.062C68.8543 1.16467 68.825 1.25267 68.7663 1.326L62.7163 7.97L69.1843 15.252C69.2576 15.34 69.2943 15.4353 69.2943 15.538C69.2943 15.67 69.243 15.78 69.1403 15.868C69.0523 15.956 68.9496 16 68.8323 16H66.5663C66.317 16 66.119 15.9487 65.9723 15.846C65.8403 15.7287 65.7523 15.648 65.7083 15.604L60.3843 9.774V15.472C60.3843 15.6187 60.333 15.7433 60.2303 15.846C60.1276 15.9487 59.9956 16 59.8343 16H57.8983ZM71.5347 16C71.388 16 71.2634 15.9487 71.1607 15.846C71.058 15.7433 71.0067 15.6187 71.0067 15.472V5.088C71.0067 4.94133 71.058 4.81667 71.1607 4.714C71.2634 4.61133 71.388 4.56 71.5347 4.56H73.3607C73.522 4.56 73.6467 4.61133 73.7347 4.714C73.8374 4.81667 73.8887 4.94133 73.8887 5.088V15.472C73.8887 15.6187 73.8374 15.7433 73.7347 15.846C73.6467 15.9487 73.522 16 73.3607 16H71.5347ZM71.4467 2.668C71.2854 2.668 71.1534 2.624 71.0507 2.536C70.9627 2.43333 70.9187 2.30133 70.9187 2.14V0.556C70.9187 0.409333 70.9627 0.284666 71.0507 0.181999C71.1534 0.0793329 71.2854 0.0279998 71.4467 0.0279998H73.4487C73.61 0.0279998 73.742 0.0793329 73.8447 0.181999C73.9474 0.284666 73.9987 0.409333 73.9987 0.556V2.14C73.9987 2.30133 73.9474 2.43333 73.8447 2.536C73.742 2.624 73.61 2.668 73.4487 2.668H71.4467ZM81.9775 16C81.0975 16 80.3568 15.846 79.7555 15.538C79.1541 15.23 78.7068 14.7753 78.4135 14.174C78.1201 13.558 77.9735 12.7953 77.9735 11.886V6.892H76.2355C76.0888 6.892 75.9641 6.84067 75.8615 6.738C75.7588 6.63533 75.7075 6.51067 75.7075 6.364V5.088C75.7075 4.94133 75.7588 4.81667 75.8615 4.714C75.9641 4.61133 76.0888 4.56 76.2355 4.56H77.9735V0.907999C77.9735 0.761332 78.0175 0.636666 78.1055 0.534C78.2081 0.431333 78.3401 0.379999 78.5015 0.379999H80.2835C80.4301 0.379999 80.5548 0.431333 80.6575 0.534C80.7601 0.636666 80.8115 0.761332 80.8115 0.907999V4.56H83.5615C83.7081 4.56 83.8328 4.61133 83.9355 4.714C84.0381 4.81667 84.0895 4.94133 84.0895 5.088V6.364C84.0895 6.51067 84.0381 6.63533 83.9355 6.738C83.8328 6.84067 83.7081 6.892 83.5615 6.892H80.8115V11.666C80.8115 12.2673 80.9141 12.7367 81.1195 13.074C81.3395 13.4113 81.7135 13.58 82.2415 13.58H83.7595C83.9061 13.58 84.0308 13.6313 84.1335 13.734C84.2361 13.8367 84.2875 13.9613 84.2875 14.108V15.472C84.2875 15.6187 84.2361 15.7433 84.1335 15.846C84.0308 15.9487 83.9061 16 83.7595 16H81.9775Z" fill="#384849"/>
</svg>
