<svg width="122" height="38" viewBox="0 0 122 38" fill="none" xmlns="http://www.w3.org/2000/svg">
<path d="M34.44 20.23C34.44 18.85 34.64 17.64 35.04 16.6C35.46 15.56 36.01 14.7 36.69 14.02C37.37 13.32 38.15 12.8 39.03 12.46C39.91 12.1 40.81 11.92 41.73 11.92C43.89 11.92 45.57 12.59 46.77 13.93C47.99 15.27 48.6 17.27 48.6 19.93C48.6 20.13 48.59 20.36 48.57 20.62C48.57 20.86 48.56 21.08 48.54 21.28H38.19C38.29 22.54 38.73 23.52 39.51 24.22C40.31 24.9 41.46 25.24 42.96 25.24C43.84 25.24 44.64 25.16 45.36 25C46.1 24.84 46.68 24.67 47.1 24.49L47.58 27.46C47.38 27.56 47.1 27.67 46.74 27.79C46.4 27.89 46 27.98 45.54 28.06C45.1 28.16 44.62 28.24 44.1 28.3C43.58 28.36 43.05 28.39 42.51 28.39C41.13 28.39 39.93 28.19 38.91 27.79C37.89 27.37 37.05 26.8 36.39 26.08C35.73 25.34 35.24 24.48 34.92 23.5C34.6 22.5 34.44 21.41 34.44 20.23ZM44.97 18.61C44.97 18.11 44.9 17.64 44.76 17.2C44.62 16.74 44.41 16.35 44.13 16.03C43.87 15.69 43.54 15.43 43.14 15.25C42.76 15.05 42.3 14.95 41.76 14.95C41.2 14.95 40.71 15.06 40.29 15.28C39.87 15.48 39.51 15.75 39.21 16.09C38.93 16.43 38.71 16.82 38.55 17.26C38.39 17.7 38.28 18.15 38.22 18.61H44.97ZM55.2987 19.75C55.2987 21.29 55.6287 22.42 56.2887 23.14C56.9687 23.84 57.8387 24.19 58.8987 24.19C59.4787 24.19 60.0187 24.11 60.5187 23.95C61.0387 23.79 61.4587 23.6 61.7787 23.38V15.25C61.5187 15.19 61.1987 15.14 60.8187 15.1C60.4387 15.04 59.9587 15.01 59.3787 15.01C58.0587 15.01 57.0487 15.45 56.3487 16.33C55.6487 17.19 55.2987 18.33 55.2987 19.75ZM65.4087 26.41C65.4087 28.91 64.7687 30.74 63.4887 31.9C62.2287 33.06 60.2887 33.64 57.6687 33.64C56.7087 33.64 55.7687 33.56 54.8487 33.4C53.9487 33.24 53.1287 33.03 52.3887 32.77L53.0487 29.68C53.6687 29.94 54.3687 30.15 55.1487 30.31C55.9487 30.47 56.8087 30.55 57.7287 30.55C59.1887 30.55 60.2287 30.25 60.8487 29.65C61.4687 29.05 61.7787 28.16 61.7787 26.98V26.38C61.4187 26.56 60.9387 26.74 60.3387 26.92C59.7587 27.1 59.0887 27.19 58.3287 27.19C57.3287 27.19 56.4087 27.03 55.5687 26.71C54.7487 26.39 54.0387 25.92 53.4387 25.3C52.8587 24.68 52.3987 23.91 52.0587 22.99C51.7387 22.05 51.5787 20.97 51.5787 19.75C51.5787 18.61 51.7487 17.56 52.0887 16.6C52.4487 15.64 52.9587 14.82 53.6187 14.14C54.2987 13.46 55.1187 12.93 56.0787 12.55C57.0387 12.17 58.1287 11.98 59.3487 11.98C60.5287 11.98 61.6487 12.07 62.7087 12.25C63.7687 12.43 64.6687 12.62 65.4087 12.82V26.41ZM75.5468 25.45C76.6668 25.45 77.5168 25.39 78.0968 25.27V21.25C77.8968 21.19 77.6068 21.13 77.2268 21.07C76.8468 21.01 76.4268 20.98 75.9668 20.98C75.5668 20.98 75.1568 21.01 74.7368 21.07C74.3368 21.13 73.9668 21.24 73.6268 21.4C73.3068 21.56 73.0468 21.79 72.8468 22.09C72.6468 22.37 72.5468 22.73 72.5468 23.17C72.5468 24.03 72.8168 24.63 73.3568 24.97C73.8968 25.29 74.6268 25.45 75.5468 25.45ZM75.2468 11.92C76.4468 11.92 77.4568 12.07 78.2768 12.37C79.0968 12.67 79.7468 13.09 80.2268 13.63C80.7268 14.17 81.0768 14.83 81.2768 15.61C81.4968 16.37 81.6068 17.21 81.6068 18.13V27.64C81.0468 27.76 80.1968 27.9 79.0568 28.06C77.9368 28.24 76.6668 28.33 75.2468 28.33C74.3068 28.33 73.4468 28.24 72.6668 28.06C71.8868 27.88 71.2168 27.59 70.6568 27.19C70.1168 26.79 69.6868 26.27 69.3668 25.63C69.0668 24.99 68.9168 24.2 68.9168 23.26C68.9168 22.36 69.0868 21.6 69.4268 20.98C69.7868 20.36 70.2668 19.86 70.8668 19.48C71.4668 19.08 72.1568 18.8 72.9368 18.64C73.7368 18.46 74.5668 18.37 75.4268 18.37C75.8268 18.37 76.2468 18.4 76.6868 18.46C77.1268 18.5 77.5968 18.58 78.0968 18.7V18.1C78.0968 17.68 78.0468 17.28 77.9468 16.9C77.8468 16.52 77.6668 16.19 77.4068 15.91C77.1668 15.61 76.8368 15.38 76.4168 15.22C76.0168 15.06 75.5068 14.98 74.8868 14.98C74.0468 14.98 73.2768 15.04 72.5768 15.16C71.8768 15.28 71.3068 15.42 70.8668 15.58L70.4168 12.64C70.8768 12.48 71.5468 12.32 72.4268 12.16C73.3068 12 74.2468 11.92 75.2468 11.92ZM89.6822 18.43C90.1422 17.95 90.6322 17.44 91.1522 16.9C91.6722 16.34 92.1822 15.79 92.6822 15.25C93.1822 14.69 93.6522 14.16 94.0922 13.66C94.5522 13.14 94.9422 12.69 95.2622 12.31H99.5522C98.5522 13.43 97.4922 14.59 96.3722 15.79C95.2722 16.99 94.1622 18.16 93.0422 19.3C93.6422 19.8 94.2722 20.41 94.9322 21.13C95.5922 21.83 96.2322 22.58 96.8522 23.38C97.4722 24.18 98.0522 24.98 98.5922 25.78C99.1322 26.58 99.5822 27.32 99.9422 28H95.7422C95.3822 27.38 94.9622 26.73 94.4822 26.05C94.0222 25.37 93.5222 24.71 92.9822 24.07C92.4422 23.43 91.8922 22.83 91.3322 22.27C90.7722 21.69 90.2222 21.2 89.6822 20.8V28H86.0522V5.32L89.6822 4.72V18.43ZM106.236 28H102.606V12.31H106.236V28ZM106.626 7.72C106.626 8.4 106.406 8.94 105.966 9.34C105.526 9.74 105.006 9.94 104.406 9.94C103.786 9.94 103.256 9.74 102.816 9.34C102.376 8.94 102.156 8.4 102.156 7.72C102.156 7.02 102.376 6.47 102.816 6.07C103.256 5.67 103.786 5.47 104.406 5.47C105.006 5.47 105.526 5.67 105.966 6.07C106.406 6.47 106.626 7.02 106.626 7.72ZM110.687 8.17L114.317 7.57V12.31H119.897V15.34H114.317V21.73C114.317 22.99 114.517 23.89 114.917 24.43C115.317 24.97 115.997 25.24 116.957 25.24C117.617 25.24 118.197 25.17 118.697 25.03C119.217 24.89 119.627 24.76 119.927 24.64L120.527 27.52C120.107 27.7 119.557 27.88 118.877 28.06C118.197 28.26 117.397 28.36 116.477 28.36C115.357 28.36 114.417 28.21 113.657 27.91C112.917 27.61 112.327 27.18 111.887 26.62C111.447 26.04 111.137 25.35 110.957 24.55C110.777 23.73 110.687 22.8 110.687 21.76V8.17Z" fill="black"/>
<path d="M18.0509 21.2112C18.0108 20.7297 17.9653 20.249 17.9111 19.7692C17.8855 19.5445 17.8592 19.3208 17.8304 19.0963C17.818 19.0094 17.8057 18.9225 17.7927 18.8355C17.6708 18.0198 17.5281 17.2065 17.3395 16.4038C17.2854 16.1727 17.2265 15.9421 17.1647 15.7121C17.1567 15.7373 17.1473 15.7618 17.1394 15.7875C16.7722 16.9316 16.4836 18.101 16.2326 19.2767C15.6612 21.9501 15.3189 24.6635 14.7822 27.3434C14.5107 28.7012 14.2319 30.0949 13.7181 31.3862C13.2548 32.5515 12.6786 33.6931 11.393 34.1074C8.93931 34.8979 7.78513 31.9381 7.22782 30.1741C6.57384 28.1052 6.12803 25.9725 5.61081 23.8664C5.51245 23.4652 5.4119 23.0643 5.30866 22.6638C4.73182 25.4468 4.43371 28.3172 3.35481 30.9488C3.34673 30.9687 3.3378 30.9896 3.32971 31.0093L12.7957 36.4941C13.7787 37.0637 15.1173 37.3077 16.4073 37.2289C16.447 37.1507 16.4869 37.0733 16.524 36.9939C16.5568 36.9242 16.5887 36.8548 16.62 36.7848C16.7586 36.4361 16.8871 36.0828 16.9993 35.7242C17.2669 34.8691 17.4786 33.9964 17.6435 33.1155C17.7326 32.6416 17.8122 32.1653 17.8794 31.6877C17.8798 31.6855 17.8798 31.6841 17.8806 31.6823C17.8936 31.5782 17.9069 31.4748 17.919 31.3707C17.9485 31.1199 17.9766 30.869 18.0012 30.6173C18.1026 29.5875 18.1703 28.5535 18.2037 27.5187C18.2712 25.4167 18.2252 23.3079 18.0509 21.2112Z" fill="#FFA507"/>
<path d="M22.3002 27.65C22.2098 30.0826 22.023 32.6654 21.4479 35.1201L28.8923 30.7876C30.6194 29.7865 32 27.3348 32 25.3389V24.747L19.7943 11.5467C20.5923 12.5953 20.9859 14.0471 21.2776 15.3134C22.2016 19.3182 22.4527 23.5523 22.3002 27.65Z" fill="#FFA507"/>
<path d="M28.8925 8.45722L19.0594 2.75044C17.332 1.74985 14.5144 1.74985 12.7872 2.75044L3.03916 8.45722C1.31217 9.45815 0 11.9102 0 13.9056V25.3389C0 25.9592 0.0395796 26.6233 0.27958 27.2742C0.692211 25.5713 0.925813 23.8413 1.27798 22.1244C1.54442 20.8242 1.79166 19.4817 2.30653 18.2528C2.74611 17.2023 3.35259 15.9028 4.6112 15.6569C5.96126 15.3938 7.04808 16.0544 7.72564 17.1989L11.6744 21.397C12.0221 19.3379 12.4086 17.284 13.0055 15.2828C13.4375 13.8336 13.9825 11.8475 15.2312 10.8522C16.8544 9.55785 18.5811 9.95112 19.7947 11.5467L32 24.7471V13.9056C32 11.9102 30.6195 9.45815 28.8925 8.45722Z" fill="#FFBB12"/>
<path d="M9.56567 22.7762C9.92508 24.2434 10.2505 25.7245 10.6367 27.1876C10.8895 26.042 11.0934 24.8838 11.2851 23.7289C11.4139 22.9527 11.5401 22.1746 11.6714 21.3968L7.7196 17.1987C8.702 18.859 9.11177 20.9237 9.56567 22.7762Z" fill="#FFA507"/>
</svg>
