<svg width="125" height="19" viewBox="0 0 125 19" fill="none" xmlns="http://www.w3.org/2000/svg">
<path d="M4.06 2.78312e-08L0 0L-2.78312e-08 4.06L4.06 4.06L4.06 2.78312e-08Z" fill="url(#paint0_linear_83_3619)"/>
<path d="M24.1098 2.78312e-08L20.0498 0L20.0498 4.06L24.1098 4.06L24.1098 2.78312e-08Z" fill="url(#paint1_linear_83_3619)"/>
<path d="M44.1703 2.78312e-08L40.1104 0L40.1104 4.06L44.1703 4.06L44.1703 2.78312e-08Z" fill="url(#paint2_linear_83_3619)"/>
<path d="M64.2202 2.78312e-08L60.1602 0L60.1602 4.06L64.2202 4.06L64.2202 2.78312e-08Z" fill="url(#paint3_linear_83_3619)"/>
<path d="M84.27 2.78312e-08L80.21 0L80.21 4.06L84.27 4.06L84.27 2.78312e-08Z" fill="url(#paint4_linear_83_3619)"/>
<path d="M104.33 2.78313e-08L100.27 0L100.27 4.06L104.33 4.06L104.33 2.78313e-08Z" fill="url(#paint5_linear_83_3619)"/>
<path d="M124.38 2.78312e-08L120.32 0L120.32 4.06L124.38 4.06L124.38 2.78312e-08Z" fill="url(#paint6_linear_83_3619)"/>
<path d="M4.06 14.8701L0 14.8701L-2.78312e-08 18.9301L4.06 18.9301L4.06 14.8701Z" fill="url(#paint7_linear_83_3619)"/>
<path d="M24.1098 14.8701L20.0498 14.8701L20.0498 18.9301L24.1098 18.9301L24.1098 14.8701Z" fill="url(#paint8_linear_83_3619)"/>
<path d="M44.1703 14.8701L40.1104 14.8701L40.1104 18.9301L44.1703 18.9301L44.1703 14.8701Z" fill="url(#paint9_linear_83_3619)"/>
<path d="M64.2202 14.8701L60.1602 14.8701L60.1602 18.9301L64.2202 18.9301L64.2202 14.8701Z" fill="url(#paint10_linear_83_3619)"/>
<path d="M84.27 14.8701L80.21 14.8701L80.21 18.9301L84.27 18.9301L84.27 14.8701Z" fill="url(#paint11_linear_83_3619)"/>
<path d="M104.33 14.8701L100.27 14.8701L100.27 18.9301L104.33 18.9301L104.33 14.8701Z" fill="url(#paint12_linear_83_3619)"/>
<path d="M124.38 14.8701L120.32 14.8701L120.32 18.9301L124.38 18.9301L124.38 14.8701Z" fill="url(#paint13_linear_83_3619)"/>
<defs>
<linearGradient id="paint0_linear_83_3619" x1="123.46" y1="-67.81" x2="-54.69" y2="34.65" gradientUnits="userSpaceOnUse">
<stop offset="0.01" stop-color="#63C7B6"/>
<stop offset="1" stop-color="#00A388"/>
</linearGradient>
<linearGradient id="paint1_linear_83_3619" x1="128.44" y1="-59.14" x2="-49.7102" y2="43.3201" gradientUnits="userSpaceOnUse">
<stop offset="0.01" stop-color="#63C7B6"/>
<stop offset="1" stop-color="#00A388"/>
</linearGradient>
<linearGradient id="paint2_linear_83_3619" x1="133.42" y1="-50.48" x2="-44.7196" y2="51.9899" gradientUnits="userSpaceOnUse">
<stop offset="0.01" stop-color="#63C7B6"/>
<stop offset="1" stop-color="#00A388"/>
</linearGradient>
<linearGradient id="paint3_linear_83_3619" x1="138.41" y1="-41.81" x2="-39.7398" y2="60.65" gradientUnits="userSpaceOnUse">
<stop offset="0.01" stop-color="#63C7B6"/>
<stop offset="1" stop-color="#00A388"/>
</linearGradient>
<linearGradient id="paint4_linear_83_3619" x1="143.39" y1="-33.14" x2="-34.75" y2="69.3199" gradientUnits="userSpaceOnUse">
<stop offset="0.01" stop-color="#63C7B6"/>
<stop offset="1" stop-color="#00A388"/>
</linearGradient>
<linearGradient id="paint5_linear_83_3619" x1="148.38" y1="-24.48" x2="-29.7705" y2="77.9902" gradientUnits="userSpaceOnUse">
<stop offset="0.01" stop-color="#63C7B6"/>
<stop offset="1" stop-color="#00A388"/>
</linearGradient>
<linearGradient id="paint6_linear_83_3619" x1="153.36" y1="-15.81" x2="-24.7796" y2="86.6499" gradientUnits="userSpaceOnUse">
<stop offset="0.01" stop-color="#63C7B6"/>
<stop offset="1" stop-color="#00A388"/>
</linearGradient>
<linearGradient id="paint7_linear_83_3619" x1="129.88" y1="-56.6399" x2="-48.27" y2="45.8301" gradientUnits="userSpaceOnUse">
<stop offset="0.01" stop-color="#63C7B6"/>
<stop offset="1" stop-color="#00A388"/>
</linearGradient>
<linearGradient id="paint8_linear_83_3619" x1="134.87" y1="-47.9699" x2="-43.2802" y2="54.4902" gradientUnits="userSpaceOnUse">
<stop offset="0.01" stop-color="#63C7B6"/>
<stop offset="1" stop-color="#00A388"/>
</linearGradient>
<linearGradient id="paint9_linear_83_3619" x1="139.85" y1="-39.2999" x2="-38.2997" y2="63.16" gradientUnits="userSpaceOnUse">
<stop offset="0.01" stop-color="#63C7B6"/>
<stop offset="1" stop-color="#00A388"/>
</linearGradient>
<linearGradient id="paint10_linear_83_3619" x1="144.84" y1="-30.6399" x2="-33.3099" y2="71.8302" gradientUnits="userSpaceOnUse">
<stop offset="0.01" stop-color="#63C7B6"/>
<stop offset="1" stop-color="#00A388"/>
</linearGradient>
<linearGradient id="paint11_linear_83_3619" x1="149.82" y1="-21.9699" x2="-28.33" y2="80.49" gradientUnits="userSpaceOnUse">
<stop offset="0.01" stop-color="#63C7B6"/>
<stop offset="1" stop-color="#00A388"/>
</linearGradient>
<linearGradient id="paint12_linear_83_3619" x1="154.81" y1="-13.2999" x2="-23.3405" y2="89.1603" gradientUnits="userSpaceOnUse">
<stop offset="0.01" stop-color="#63C7B6"/>
<stop offset="1" stop-color="#00A388"/>
</linearGradient>
<linearGradient id="paint13_linear_83_3619" x1="159.79" y1="-4.63989" x2="-18.3497" y2="97.83" gradientUnits="userSpaceOnUse">
<stop offset="0.01" stop-color="#63C7B6"/>
<stop offset="1" stop-color="#00A388"/>
</linearGradient>
</defs>
</svg>
