<svg width="36" height="20" viewBox="0 0 36 20" fill="none" xmlns="http://www.w3.org/2000/svg">
<path d="M17.072 2.92893C15.64 1.49692 13.807 0.533441 11.8154 0.165986C9.82385 -0.201468 7.76766 0.0444172 5.9189 0.871109C4.07014 1.6978 2.51595 3.06633 1.46198 4.79563C0.408 6.52493 -0.0960848 8.53348 0.016419 10.5555C0.128923 12.5776 0.852713 14.5178 2.09202 16.1195C3.33133 17.7212 5.02774 18.9089 6.9568 19.5254C8.88585 20.1419 10.9566 20.1582 12.8951 19.572C14.8336 18.9859 16.5485 17.825 17.8128 16.243L16.4399 15.1458C15.3978 16.4498 13.9843 17.4067 12.3865 17.8898C10.7887 18.3729 9.08183 18.3595 7.49179 17.8514C5.90175 17.3432 4.50348 16.3643 3.48197 15.044C2.46046 13.7238 1.86387 12.1246 1.77114 10.4579C1.67841 8.79121 2.0939 7.13565 2.96265 5.71026C3.8314 4.28488 5.11245 3.15686 6.6363 2.47545C8.16015 1.79405 9.85498 1.59137 11.4965 1.89425C13.1381 2.19713 14.649 2.99128 15.8293 4.17163L17.072 2.92893Z" fill="white"/>
<path d="M6.80098 10C6.80098 11.7673 8.23367 13.2 10.001 13.2C11.7683 13.2 13.201 11.7673 13.201 10C13.201 8.23269 11.7683 6.8 10.001 6.8C8.23367 6.8 6.80098 8.23269 6.80098 10ZM35.4252 10.4243C35.6596 10.1899 35.6596 9.81005 35.4252 9.57574L31.6069 5.75736C31.3725 5.52304 30.9927 5.52304 30.7583 5.75736C30.524 5.99167 30.524 6.37157 30.7583 6.60589L34.1524 10L30.7583 13.3941C30.524 13.6284 30.524 14.0083 30.7583 14.2426C30.9927 14.477 31.3725 14.477 31.6069 14.2426L35.4252 10.4243ZM10.001 10.6H35.001V9.4H10.001V10.6Z" fill="white"/>
</svg>
