<svg width="83" height="73" viewBox="0 0 83 73" fill="none" xmlns="http://www.w3.org/2000/svg">
<path d="M40.7192 4.4986C35.0936 -4.16306 22.025 0.602899 24.2828 10.9805C25.9683 17.4229 35.2112 22.0346 39.8079 24.9815H39.8085C40.5261 25.4018 41.4104 25.4243 42.1487 25.0411C48.3145 21.8444 62.5503 13.6062 56.9503 4.06756C53.445 -1.77949 44.9372 -1.03005 41.5384 4.49939C41.4446 4.63302 41.2917 4.71198 41.1285 4.71198C40.9652 4.71198 40.8124 4.63302 40.7186 4.49939L40.7192 4.4986Z" fill="#4C3F53"/>
<path d="M74.3124 56.0285C72.0217 54.5435 69.8136 52.8241 67.1835 51.9767C67.7597 49.8824 65.3891 49.0753 63.7275 49.3019C61.9478 49.4859 60.059 50.3496 58.6136 51.5109L58.6124 51.5102C58.7299 50.1643 58.9541 48.83 59.2836 47.5199C59.4407 46.8639 59.7179 46.1618 59.6667 45.476C59.5826 44.3524 58.5752 44.0226 57.5885 44.1228C55.766 44.308 53.9632 45.4669 53.3753 47.207C50.3597 47.6158 48.7579 50.477 48.03 53.4191C45.8652 53.1434 44.1415 55.0426 43.265 56.8513C41.4626 58.8618 39.0738 60.3911 36.2811 59.5401C39.7572 55.8432 43.9264 52.9289 48.2065 50.2505C48.6432 49.9468 48.3904 49.1068 47.8155 49.3255L47.8148 49.3261C47.0638 49.6194 46.3421 49.982 45.6581 50.4078C45.3773 49.3558 44.7335 48.4362 43.8399 47.8107C44.5964 47.323 45.4028 47.0065 46.1697 46.5456C46.5662 46.3166 46.2884 45.7627 45.8718 45.8404C44.678 46.0627 43.5761 46.6124 42.52 47.1985C40.9832 46.8244 39.251 47.9449 39.1382 49.5429V49.5435C35.7845 51.9627 32.6496 54.6697 29.7685 57.6336C28.1032 59.367 24.7648 59.856 23.2847 58.1559C30.3636 53.7677 35.3454 46.7714 43.1063 43.4594C43.5777 43.2578 43.2415 42.4712 42.7573 42.6316C38.7086 43.9647 35.4255 46.7083 32.2705 49.4754C30.922 50.6574 29.5935 51.8794 28.234 53.0637C27.2838 53.9043 26.0693 54.386 24.8 54.4267C23.6476 54.454 22.5684 54.1868 22.1528 53.6839C26.2539 50.7649 30.3828 47.7706 34.1599 44.4161C35.0132 43.8962 35.7351 43.1953 36.6072 42.7118C37.4197 42.2466 38.3175 41.9229 39.1556 41.5068C41.3099 41.0513 43.5459 40.3352 45.3257 39.0652C48.6746 38.0692 52.3127 36.9753 55.8326 36.9432C58.7264 36.9128 61.5677 37.8682 64.2952 38.7421H64.2946C69.8934 40.5618 75.3814 42.7028 80.7309 45.1547C81.471 45.4906 82.1191 44.3967 81.3736 44.0584C77.0606 42.1027 72.669 40.3273 68.1995 38.7317C63.847 37.1848 59.0436 35.2697 54.3463 35.7721L54.3457 35.7733C51.924 36.0563 49.5314 36.5495 47.1956 37.248C48.1166 35.9859 48.6648 34.4923 48.7786 32.9363C48.8785 31.5169 47.558 30.6369 46.3684 30.1796V30.179C46.123 30.1073 45.8574 30.1778 45.6795 30.3606C43.122 32.7548 39.3054 33.5073 35.8957 33.6962C33.9284 33.7916 31.9604 33.4527 30.032 33.9647C27.0183 34.7925 24.9522 37.3835 22.2503 38.8121C16.2538 41.9833 11.9031 42.6397 9.74384 43.167C9.69145 42.5675 9.74749 41.6959 8.92157 41.7961C6.16243 42.2286 3.05354 42.811 0.414936 43.7445C0.153632 43.8259 -0.0126483 44.0816 0.0202525 44.3525H0.0159888V72.4131C-0.00532961 72.4969 -0.00532961 72.585 0.0159888 72.6688C0.374747 73.7681 2.69904 71.8002 3.30138 71.5148C4.0664 71.0647 9.34607 68.0935 11.0552 67.1325C11.6521 66.8228 11.618 66.1431 11.6186 65.5681C21.0748 61.223 31.3216 69.3434 43.4372 68.4276C44.254 68.3474 45.1214 67.3696 45.5733 66.8587C46.0173 66.3564 46.814 65.5231 46.853 64.7518C46.9693 64.3351 47.082 63.9172 47.1904 63.4981C48.7765 62.4905 50.8778 62.0988 52.1137 60.6223C53.7618 61.1282 55.6147 60.4212 56.6618 59.1033C57.8927 58.9229 59.017 59.4209 60.2305 58.8554C61.3737 58.3228 62.1035 57.3352 62.8794 56.3883V56.3871C63.9185 55.1299 65.1045 54.0013 66.4127 53.026C67.6065 53.4329 68.7723 53.8885 69.8291 54.5894C74.0196 57.1708 77.9744 60.1286 82.0748 62.835C82.6474 63.1751 83.3454 62.3363 82.8064 61.8893C80.094 59.7817 77.137 57.9792 74.3102 56.0283L74.3124 56.0285ZM41.435 48.352C42.5387 48.1176 43.5468 48.9752 44.1005 49.8261C44.2759 50.2913 44.6219 50.7608 44.0889 51.1647C43.9153 51.3069 43.6747 51.3348 43.4731 51.2364C42.9103 50.1146 41.7256 49.4063 40.4229 49.2393C40.6263 48.8196 40.9916 48.4996 41.435 48.352ZM35.5846 53.9453V53.9447C36.9386 52.7385 38.3572 51.6063 39.8343 50.5532C41.1359 50.1839 42.5307 51.2104 42.6148 52.5236C39.5755 54.6845 36.9435 57.3278 34.1838 59.8088C32.5532 61.2854 30.8636 61.4456 28.9078 60.4691C30.9569 58.1392 33.2635 55.9855 35.584 53.9447L35.5846 53.9453ZM11.4735 64.2268C10.7244 57.6442 10.2809 51.0372 9.85096 44.4288L11.6301 44.0249C12.2757 50.4441 13.0505 56.8476 13.9556 63.2367C13.1291 63.5689 12.302 63.8994 11.4735 64.2273V64.2268ZM45.6981 64.3355C45.34 65.5418 44.4208 66.556 43.364 67.206C38.1532 67.2794 32.9686 66.4492 28.0423 64.7528C23.867 63.3869 19.6721 62.194 15.3373 62.9131C14.4303 56.4325 13.5812 50.1875 12.9307 43.678C18.5368 42.9072 23.2055 40.0404 27.5866 36.6349C29.8975 34.6755 32.8138 35.0454 35.62 35.0504C39.3793 34.8973 43.3481 34.112 46.3394 31.6982C47.4047 32.2054 47.5649 32.7447 47.222 33.852C46.3675 38.242 41.5927 39.6276 37.6909 40.4207C37.1007 40.4553 36.611 40.7055 36.0793 41.1125C34.4024 42.4791 32.6635 43.8256 30.6187 44.6073C29.6265 44.9942 28.5229 45.0726 27.5622 45.4917C27.0938 45.6963 27.243 46.4495 27.7017 46.5582C28.3406 46.7101 29.0624 46.6013 29.739 46.4246C26.8428 48.6457 23.9173 50.8267 20.9639 52.9677C20.6685 53.1524 20.568 53.5344 20.7342 53.8399C21.5517 55.4694 23.2327 55.916 24.9175 55.7695C23.9941 56.4656 23.0336 57.1106 22.0401 57.7028C21.7618 57.8723 21.6674 58.2312 21.8264 58.5155C22.313 59.2832 23.0384 59.8717 23.8918 60.1905C24.362 60.8981 26.1179 61.1095 26.9257 61.0767C27.4464 62.2386 28.9527 62.8223 30.1593 63.0349L30.1587 63.0343C31.8173 63.3337 33.5281 63.0422 34.993 62.2113C35.3086 62.0279 35.6496 61.63 36.0078 61.5559C36.4415 61.4661 37.0646 61.678 37.5141 61.695C39.2329 61.7539 40.6362 61.4988 42.1596 60.4536C41.9452 61.3913 41.5682 62.2841 41.045 63.092C40.9573 63.2523 40.9859 63.451 41.1157 63.5797C41.2448 63.7091 41.444 63.7376 41.6048 63.6502C44.551 62.1354 42.3905 55.65 47.809 54.5415C47.809 54.5421 46.5 61.5906 45.6979 64.3365L45.6981 64.3355ZM49.3429 61.1602C48.8063 61.411 48.132 61.6552 47.5613 62.0032C49.3953 48.2979 53.1923 48.691 53.1923 48.691C53.2587 49.0153 53.1064 49.4933 53.1399 49.8359C52.9627 51.2255 52.7848 52.6158 52.6076 54.0054C52.1812 56.9001 52.5521 59.8708 49.3427 61.1602L49.3429 61.1602ZM53.5664 59.4948C53.3185 59.5124 53.0693 59.5081 52.8215 59.4826C53.4653 57.9903 53.4988 56.263 53.7077 54.6722C53.9361 52.7328 54.2364 50.7942 54.4288 48.8536C54.4892 48.5736 54.4855 48.2833 54.4185 48.0045C54.5196 47.6286 54.6524 47.2623 54.8162 46.9094C55.5447 46.0105 56.5321 45.377 57.7881 45.3145C58.441 45.2817 58.4641 45.6649 58.3308 46.2231C58.1888 46.8165 58.0226 47.4026 57.894 47.9997C56.7672 51.4818 58.1968 58.6463 53.5671 59.4947L53.5664 59.4948ZM65.3938 52.2927C63.857 53.4868 62.6187 54.8594 61.3866 56.3541C60.2433 57.8039 59.2049 58.2594 57.3811 58.0177C58.1748 56.5029 58.3648 54.7385 58.4988 52.9851C60.0818 52.1208 61.5053 50.9796 63.3198 50.603C64.1043 50.4609 65.7671 50.3072 66.0332 51.2881C66.1216 51.7758 65.7299 52.0321 65.3943 52.2927L65.3938 52.2927Z" fill="#4C3F53"/>
</svg>
