<svg width="327" height="34" viewBox="0 0 327 34" fill="none" xmlns="http://www.w3.org/2000/svg">
<path d="M192.159 21.0041C190.306 19.7987 188.52 18.4031 186.392 17.7152C186.858 16.0153 184.94 15.3602 183.596 15.5441C182.156 15.6935 180.628 16.3945 179.459 17.3371C179.554 16.2446 179.734 15.1611 180.001 14.0976C180.128 13.5652 180.352 12.9953 180.311 12.4386C180.243 11.5266 179.428 11.2589 178.629 11.3402C177.155 11.4906 175.697 12.4312 175.221 13.8437C172.781 14.1755 171.485 16.498 170.897 18.8861C169.145 18.6623 167.751 20.2038 167.042 21.672C165.583 23.3039 163.651 24.5453 161.392 23.8545C164.204 20.8537 167.577 18.4881 171.039 16.3141C171.393 16.0676 171.188 15.3858 170.723 15.5632C170.115 15.8014 169.531 16.0962 168.978 16.4418C168.75 15.5879 168.23 14.8414 167.507 14.3337C168.119 13.9378 168.771 13.681 169.392 13.3068C169.712 13.1209 169.488 12.6713 169.151 12.7344C168.185 12.9148 167.293 13.361 166.439 13.8368C165.196 13.5331 163.794 14.4427 163.703 15.7397C160.99 17.7034 158.454 19.9012 156.123 22.307C154.776 23.7139 152.075 24.1109 150.877 22.7309C156.604 19.169 160.635 13.4901 166.913 10.8017C167.295 10.6381 167.023 9.99963 166.631 10.1298C163.355 11.2119 160.699 13.4388 158.147 15.685C157.056 16.6444 155.981 17.6363 154.881 18.5976C154.113 19.2799 153.13 19.6709 152.103 19.7039C151.171 19.7261 150.298 19.5091 149.962 19.101C153.28 16.7316 156.62 14.3011 159.676 11.5783C160.366 11.1563 160.95 10.5874 161.655 10.1949C162.313 9.81731 163.039 9.55454 163.717 9.21684C165.46 8.84708 167.269 8.26583 168.709 7.23499C171.418 6.42647 174.361 5.53862 177.209 5.51249C179.55 5.48784 181.849 6.26333 184.055 6.97272C188.585 8.44974 193.024 10.1876 197.352 12.1778C197.951 12.4504 198.475 11.5625 197.872 11.2879C194.382 9.70049 190.83 8.25944 187.214 6.96429C183.693 5.70862 179.807 4.15414 176.006 4.56192C174.047 4.79166 172.111 5.19296 170.222 5.75992C170.967 4.73546 171.41 3.52313 171.502 2.26016C171.583 1.10802 170.515 0.393666 169.552 0.0224877C169.354 -0.0356868 169.139 0.0210086 168.995 0.169406C166.926 2.11276 163.838 2.72361 161.08 2.87695C159.488 2.95435 157.896 2.67926 156.336 3.09486C153.898 3.76682 152.226 5.86993 150.041 7.02953C145.189 9.60355 141.67 10.1364 139.923 10.5644C139.88 10.0778 139.926 9.37033 139.258 9.45167C137.025 9.80268 134.51 10.2755 132.376 11.0332C132.164 11.0992 132.03 11.3068 132.056 11.5267H132.053V32.8221C132.036 32.8902 132.036 32.9617 132.053 33.0297C132.343 33.922 134.224 33.8061 134.711 33.5743C135.33 33.209 139.601 30.7972 140.984 30.0173C141.467 29.7658 141.439 29.2142 141.439 28.7474C149.09 25.2205 157.379 31.8118 167.181 31.0685C167.842 31.0034 168.543 30.2097 168.909 29.795C169.268 29.3873 169.913 28.7109 169.944 28.0848C170.038 27.7466 170.13 27.4074 170.217 27.0672C171.5 26.2493 173.2 25.9313 174.2 24.7329C175.534 25.1435 177.033 24.5697 177.88 23.4999C178.876 23.3535 179.785 23.7577 180.767 23.2987C181.692 22.8664 182.282 22.0648 182.91 21.2962C183.75 20.2757 184.71 19.3587 185.768 18.567C186.734 18.8973 187.677 19.267 188.532 19.836C191.922 21.9313 192.743 22.6187 204.362 33.9357C204.825 34.2118 205.389 33.531 204.953 33.1681C202.759 31.4574 194.444 22.5874 192.157 21.0039L192.159 21.0041ZM165.561 14.7731C166.454 14.5828 167.27 15.2789 167.718 15.9696C167.859 16.3472 168.139 16.7283 167.708 17.0562C167.568 17.1715 167.373 17.1942 167.21 17.1143C166.755 16.2038 165.796 15.6289 164.742 15.4933C164.907 15.1527 165.202 14.8929 165.561 14.7731ZM160.828 19.3132C161.924 18.3341 163.071 17.4146 164.266 16.5598C165.319 16.2601 166.448 17.0932 166.516 18.1591C164.057 19.9132 161.928 22.0587 159.695 24.0726C158.376 25.2711 157.009 25.4012 155.427 24.6085C157.084 22.7174 158.951 20.9696 160.828 19.3132ZM141.322 27.6587C140.716 22.3155 140.357 16.9527 140.009 11.5886L141.449 11.2607C141.971 16.4712 142.598 21.669 143.33 26.855C142.661 27.1247 141.992 27.3925 141.322 27.6587ZM169.01 27.7469C168.72 28.726 167.977 29.5493 167.122 30.0769C162.906 30.1365 158.712 29.4626 154.726 28.0857C151.349 26.9769 147.955 26.0087 144.448 26.5924C143.714 21.332 143.027 16.263 142.501 10.9792C147.036 10.3535 150.813 8.02651 154.358 5.2623C156.227 3.67182 158.587 3.97207 160.857 3.97611C163.898 3.85187 167.109 3.21442 169.529 1.25519C170.391 1.66684 170.52 2.10463 170.243 3.00342C169.552 6.56679 165.689 7.69143 162.532 8.33522C162.055 8.36332 161.659 8.56643 161.228 8.89675C159.872 10.006 158.465 11.099 156.811 11.7335C156.008 12.0476 155.115 12.1112 154.338 12.4513C153.959 12.6175 154.08 13.2288 154.451 13.317C154.968 13.4403 155.552 13.3521 156.099 13.2086C153.756 15.0115 151.389 16.7818 149 18.5197C148.761 18.6696 148.68 18.9797 148.814 19.2276C149.475 20.5503 150.835 20.9128 152.198 20.7939C151.451 21.3589 150.674 21.8824 149.871 22.3632C149.645 22.5007 149.569 22.7921 149.698 23.0228C150.091 23.6459 150.678 24.1237 151.369 24.3824C151.749 24.9568 153.17 25.1284 153.823 25.1017C154.244 26.0448 155.463 26.5187 156.439 26.6912C157.781 26.9342 159.164 26.6971 160.35 26.0227C160.605 25.8738 160.881 25.5509 161.171 25.4907C161.521 25.4178 162.025 25.5898 162.389 25.6036C163.78 25.6515 164.915 25.4444 166.147 24.5959C165.974 25.3571 165.669 26.0818 165.246 26.7376C165.175 26.8677 165.198 27.0289 165.303 27.1334C165.407 27.2384 165.568 27.2616 165.698 27.1906C168.082 25.9611 166.334 20.6968 170.718 19.7971C170.718 19.7971 169.659 25.5181 169.01 27.7469ZM171.959 25.1695C171.525 25.3731 170.979 25.5713 170.517 25.8538C172.001 14.7292 175.073 15.0482 175.073 15.0482C175.127 15.3115 175.003 15.6995 175.031 15.9775C174.887 17.1055 174.743 18.234 174.6 19.3619C174.255 21.7115 174.555 24.1229 171.959 25.1695ZM175.376 23.8177C175.175 23.832 174.973 23.8285 174.773 23.8078C175.294 22.5965 175.321 21.1944 175.49 19.9032C175.675 18.329 175.918 16.7554 176.073 15.1802C176.122 14.953 176.119 14.7173 176.065 14.491C176.147 14.1859 176.254 13.8886 176.387 13.6021C176.976 12.8725 177.775 12.3583 178.791 12.3075C179.319 12.2809 179.338 12.592 179.23 13.045C179.115 13.5267 178.981 14.0024 178.877 14.4871C177.965 17.3135 179.121 23.129 175.376 23.8177ZM184.944 17.9717C183.701 18.941 182.699 20.0552 181.702 21.2684C180.777 22.4452 179.937 22.815 178.462 22.6187C179.104 21.3892 179.257 19.957 179.366 18.5337C180.647 17.8322 181.798 16.9059 183.266 16.6002C183.901 16.4849 185.246 16.3601 185.461 17.1563C185.533 17.5522 185.215 17.7602 184.944 17.9717Z" fill="#4C3F53"/>
<path d="M132.777 11.5095C128.335 13.7316 121.985 15.2129 121.985 15.2129H0.999985" stroke="#4C3F53" stroke-width="0.7" stroke-linecap="round"/>
<path d="M197.184 11.5098C200.146 12.9911 205.328 15.2132 205.328 15.2132H212.731H326" stroke="#4C3F53" stroke-width="0.7" stroke-linecap="round"/>
<path d="M1 19.1758H122.412" stroke="#4C3F53" stroke-width="0.7" stroke-linecap="round" stroke-dasharray="2.4 2.4"/>
<path d="M204.588 19.1758H326" stroke="#4C3F53" stroke-width="0.7" stroke-linecap="round" stroke-dasharray="2.4 2.4"/>
</svg>
