<svg width="180" height="37" viewBox="0 0 180 37" fill="none" xmlns="http://www.w3.org/2000/svg">
<path d="M68.5704 19.2964C68.5704 21.3901 69.8497 21.7571 70.4294 21.7571C70.6562 21.759 70.8812 21.7158 71.0915 21.6299C71.3017 21.544 71.4931 21.4171 71.6546 21.2565C71.8162 21.096 71.9447 20.9048 72.0329 20.6941C72.121 20.4834 72.1671 20.2572 72.1684 20.0285C72.1684 19.079 71.4199 18.7981 68.668 17.619C67.4131 17.1084 64.2991 15.8431 64.2991 12.4596C64.2991 8.83413 67.5534 6.91064 70.5514 6.91064C73.0125 6.91064 76.4885 8.17588 76.5617 12.5088H72.0464C71.9508 11.8937 71.8064 10.7556 70.405 10.7556C69.6097 10.7556 68.8368 11.3154 68.8368 12.1684C68.8368 13.0215 69.3189 13.2143 72.5305 14.6743C75.862 16.1835 76.7061 17.74 76.7061 19.8337C76.7061 22.7045 75.2091 25.6021 70.4782 25.6021C65.8002 25.6021 63.9127 22.8276 64.0327 19.2984L68.5704 19.2964Z" fill="#202326"/>
<path d="M78.709 7.24902H82.7118V12.9908C83.4358 11.7747 84.7864 11.2867 86.2122 11.2867C88.2624 11.2867 89.4664 12.0167 90.1946 13.2102C90.9227 14.4036 91.1119 15.9847 91.1119 17.7113V25.2576H87.105V17.9082C87.105 17.1556 87.0074 16.4481 86.6983 15.9375C86.3891 15.4269 85.8298 15.0865 84.9592 15.0865C83.8487 15.0865 83.2711 15.5971 83.0046 16.1815C82.7893 16.6792 82.6905 17.2202 82.7158 17.7626V25.2596H78.709V7.24902Z" fill="#202326"/>
<path d="M93.3359 18.4678C93.3359 15.1869 95.677 11.3132 100.554 11.3132C105.432 11.3132 107.771 15.1828 107.771 18.4904C107.771 21.7981 105.43 25.6676 100.554 25.6676C95.679 25.6676 93.3359 21.7981 93.3359 18.4904V18.4678ZM97.3428 18.5171C97.3428 20.4652 98.8153 21.9006 100.554 21.9006C102.293 21.9006 103.764 20.4652 103.764 18.4925C103.764 16.5198 102.291 15.0864 100.554 15.0864C98.8174 15.0864 97.3428 16.5218 97.3428 18.4925V18.5171Z" fill="#202326"/>
<path d="M110.039 11.752H113.806V13.2285C114.322 12.6015 114.972 12.1004 115.708 11.763C116.443 11.4256 117.245 11.2606 118.053 11.2804C122.81 11.2804 124.596 15.4903 124.596 18.6319C124.596 22.5281 121.893 25.7127 118.087 25.7127C115.675 25.7127 114.54 24.5438 114.056 24.0332V29.7524H110.049L110.039 11.752ZM120.589 18.4924C120.589 16.9114 119.43 15.0617 117.233 15.0617C116.783 15.0583 116.336 15.1475 115.921 15.3238C115.506 15.5001 115.131 15.7598 114.819 16.0871C114.203 16.7546 113.865 17.6359 113.877 18.5478C113.872 18.9948 113.955 19.4384 114.121 19.8528C114.287 20.2671 114.534 20.6439 114.846 20.9611C115.159 21.2784 115.531 21.5297 115.941 21.7005C116.35 21.8713 116.79 21.9581 117.233 21.9559C119.332 21.9559 120.589 20.2273 120.589 18.5232V18.4924Z" fill="#202326"/>
<path d="M126.863 11.7521H130.628V13.2285C131.144 12.6012 131.795 12.1 132.531 11.7626C133.267 11.4252 134.069 11.2604 134.877 11.2804C139.632 11.2804 141.418 15.4904 141.418 18.6319C141.418 22.5281 138.715 25.7127 134.91 25.7127C132.495 25.7127 131.36 24.5439 130.878 24.0333V29.7524H126.871L126.863 11.7521ZM137.411 18.4925C137.411 16.9115 136.252 15.0618 134.055 15.0618C133.605 15.0584 133.159 15.1476 132.744 15.3239C132.33 15.5002 131.955 15.7599 131.643 16.0871C131.027 16.7546 130.689 17.636 130.701 18.5479C130.696 18.9947 130.779 19.4381 130.945 19.8523C131.111 20.2665 131.358 20.6432 131.67 20.9604C131.982 21.2777 132.354 21.5291 132.763 21.7C133.173 21.8709 133.612 21.9579 134.055 21.956C136.156 21.956 137.411 20.2273 137.411 18.5232V18.4925Z" fill="#202326"/>
<path d="M143.686 7.24902H147.692V10.325H143.686V7.24902ZM143.686 11.7604H147.692V25.2678H143.686V11.7604Z" fill="#202326"/>
<path d="M150.588 11.752H154.33V13.1874C154.788 12.5312 155.634 11.2886 158.024 11.2886C162.537 11.2886 162.995 14.9797 162.995 16.8129V25.2595H158.984V17.8772C158.984 16.3926 158.671 15.0781 156.885 15.0781C154.906 15.0781 154.591 16.5136 154.591 17.8998V25.2513H150.584L150.588 11.752Z" fill="#202326"/>
<path d="M179.731 23.6272C179.731 25.6491 179.587 26.939 178.936 28.0812C177.901 29.7852 175.46 31.274 172.145 31.274C167.485 31.274 165.723 28.4503 165.457 26.5288H170.092C170.216 26.8007 170.393 27.0444 170.613 27.2453C170.833 27.4462 171.091 27.6001 171.372 27.6977C171.714 27.8129 172.073 27.8704 172.433 27.8679C173.955 27.8679 175.688 26.9185 175.688 24.5869V23.7851C175.228 24.5623 174.061 25.7065 171.97 25.7065C168.325 25.7065 165.211 22.9321 165.211 18.6011C165.211 13.977 168.494 11.3235 171.97 11.3235C173.467 11.3235 174.939 11.8587 175.71 13.0276V11.7521H179.731V23.6272ZM169.232 18.4678C169.232 20.6107 170.776 21.9252 172.442 21.9252C172.874 21.9397 173.305 21.8651 173.708 21.7061C174.11 21.5471 174.477 21.307 174.785 21.0004C175.369 20.3623 175.703 19.5312 175.724 18.6627C175.757 17.7439 175.457 16.8445 174.88 16.1322C174.349 15.476 173.528 15.0864 172.466 15.0864C172.034 15.089 171.606 15.1784 171.209 15.3493C170.811 15.5203 170.451 15.7694 170.15 16.082C169.849 16.3947 169.613 16.7648 169.455 17.1705C169.298 17.5763 169.222 18.0096 169.232 18.4453V18.4678Z" fill="#202326"/>
<path d="M7.14258 1.92143L12.1643 0L22.8364 28.3375H17.0926L7.14258 1.92143Z" fill="#07544F"/>
<path d="M0.722656 4.82101V0H12.0781V4.82101H0.722656Z" fill="#07544F"/>
<path d="M22.3499 23.7482L33.3881 11.8751H17.8305L16 7.06226H39.4451L40.8139 10.497L28.6917 23.4447H45.6343L47.3225 28.2554H24.032L22.3499 23.7482Z" fill="#07544F"/>
<path d="M48.6106 28.2431L40.8125 7.06226H46.7841L51.7957 20.4159L56.5063 7.06431H62.6081L52.1272 34.9999H45.7346L48.6106 28.2431Z" fill="#07544F"/>
<path d="M32.6382 32.9717C32.9901 31.5369 32.1217 30.0863 30.6987 29.7315C29.2756 29.3767 27.8367 30.2521 27.4848 31.6869C27.1329 33.1216 28.0013 34.5723 29.4243 34.9271C30.8474 35.2819 32.2863 34.4064 32.6382 32.9717Z" fill="#07544F"/>
<path d="M41.154 34.2162C42.1906 33.1712 42.1906 31.4768 41.154 30.4317C40.1174 29.3866 38.4369 29.3866 37.4003 30.4317C36.3637 31.4768 36.3637 33.1712 37.4003 34.2162C38.4369 35.2613 40.1174 35.2613 41.154 34.2162Z" fill="#07544F"/>
<path d="M115.645 35.0001H53.7793L54.6498 32.6768H115.645V35.0001Z" fill="#07544F"/>
</svg>
