<svg viewBox="0 0 39 39" xmlns="http://www.w3.org/2000/svg">
<path d="M6.83271 30.5933C6.68563 30.3696 6.55104 30.1371 6.42979 29.8975C5.53438 28.1288 5.14771 26.1267 5.02979 24.1263C4.71396 18.7725 6.46813 13.2796 10.0323 9.19334C12.2769 6.62042 15.419 4.9375 18.699 3.67459C22.0398 2.38917 25.5548 1.48417 29.0923 1.12875C29.9035 1.0475 30.7173 0.999586 31.5335 1C33.114 1.005 34.756 1.14625 36.0881 1.92792C36.4427 2.13584 36.7673 2.39584 37.036 2.70542C37.8856 3.68625 38.1865 5.02584 38.319 6.29042C38.569 8.67834 38.2648 11.105 37.8044 13.4829C37.1652 16.7867 36.1548 20.03 34.7235 23.0525C33.761 25.085 32.594 27.0513 30.9898 28.6146C26.7335 32.7608 20.5569 34.8746 14.5485 34.2992C12.6565 34.1183 10.7677 33.6983 9.09646 32.7442C8.99104 32.6846 8.88813 32.6217 8.78646 32.555L3.36354 37.9788C3.13563 38.1638 2.88688 38.3221 2.60104 38.3671C1.83688 38.4883 1.04354 37.8688 1.00188 37.0725C0.986461 36.7808 1.06646 36.4875 1.22354 36.2458C1.27604 36.165 1.34479 36.0954 1.40563 36.0208L6.83271 30.5933ZM10.8131 30.5296C11.3731 30.8071 11.9919 31.0058 12.6015 31.1629C14.8815 31.7508 17.2915 31.7458 19.611 31.3513C23.1356 30.7508 26.5148 29.1083 29.0577 26.6313C30.3594 25.3629 31.3023 23.7638 32.1031 22.1117C33.716 18.7892 34.779 15.1888 35.3294 11.5479C35.6173 9.64209 35.8369 7.68959 35.4448 5.78542C35.3173 5.16875 35.161 4.52209 34.5006 4.22042C33.9848 3.985 33.4115 3.8925 32.839 3.83292C32.3744 3.78459 31.9056 3.76834 31.441 3.76917C28.5685 3.7825 25.6977 4.37125 22.909 5.18C20.1156 5.99 17.3656 7.03542 14.9202 8.59917C12.2131 10.3308 10.214 13.1008 9.03188 16.1454C7.88479 19.0996 7.47271 22.3525 7.95271 25.4646C8.11771 26.5363 8.38021 27.6225 8.85604 28.5704L12.8831 24.5433L12.7835 16.0342C12.7844 15.9717 12.7835 15.9558 12.789 15.8938C12.8452 15.2679 13.3735 14.7146 14.0119 14.6421C14.1469 14.6267 14.179 14.6338 14.2219 14.6342C14.284 14.6383 14.2998 14.6379 14.3615 14.6467C14.961 14.7313 15.4735 15.2454 15.5435 15.8617C15.5506 15.9233 15.5498 15.9392 15.5523 16.0017L15.6202 21.8058L19.014 18.4121V10C19.0156 9.9375 19.0148 9.92209 19.021 9.86C19.0844 9.235 19.619 8.6875 20.2585 8.6225C20.3935 8.60875 20.4252 8.61625 20.4681 8.61709C20.5306 8.62167 20.5465 8.62167 20.6081 8.63125C21.2077 8.72292 21.7135 9.2475 21.776 9.86C21.7823 9.92209 21.7815 9.93792 21.7831 10V15.6425L29.8048 7.62167C30.0327 7.43709 30.2819 7.27834 30.5669 7.23334C30.7573 7.20334 30.951 7.23334 31.1423 7.26334C31.3806 7.355 31.4531 7.36125 31.6552 7.52459C32.1031 7.8875 32.286 8.55125 32.076 9.09667C31.9831 9.33917 31.9231 9.38125 31.7623 9.57959L27.1973 14.145L32.171 14.1538C32.9394 14.1738 33.606 14.8696 33.5485 15.6408C33.4981 16.3254 32.8852 16.9071 32.1652 16.9229L24.4327 16.9092L21.4123 19.9304C21.3756 19.9713 21.3369 20.01 21.296 20.0458L20.9719 20.37H27.3219L27.3944 20.3721C28.104 20.4275 28.7065 21.0471 28.7065 21.7546C28.7065 22.4746 28.0765 23.1192 27.3219 23.1392H18.2031L10.8131 30.5296Z"/>
</svg>
