<svg viewBox="0 0 47 47"  xmlns="http://www.w3.org/2000/svg">
<path d="M24.4795 2.9375C16.5184 2.9375 9.29559 7.52881 5.89788 14.6875H2.93786C2.59858 14.6875 2.28329 14.8633 2.10508 15.1516C1.92687 15.4405 1.91072 15.8008 2.062 16.1044L5.97867 23.9377C6.14464 24.2696 6.48343 24.4792 6.85453 24.4792C7.22564 24.4792 7.56443 24.2696 7.73039 23.9382L11.6471 16.1048C11.7988 15.8013 11.7822 15.441 11.604 15.1521C11.4258 14.8633 11.1105 14.6875 10.7712 14.6875H8.09562C11.3205 8.69402 17.5931 4.89583 24.4795 4.89583C34.7378 4.89583 43.0837 13.2418 43.0837 23.5C43.0837 33.7582 34.7378 42.1042 24.4795 42.1042C16.8597 42.1042 10.0882 37.5373 7.23004 30.4687C7.02686 29.9679 6.45895 29.727 5.95517 29.9282C5.45432 30.1314 5.21149 30.7018 5.41467 31.2031C8.57395 39.0149 16.0577 44.0625 24.4795 44.0625C35.8178 44.0625 45.042 34.8383 45.042 23.5C45.042 12.1617 35.8178 2.9375 24.4795 2.9375ZM6.85453 21.3106L4.52216 16.6458H9.18642L6.85453 21.3106ZM28.3962 25.4583C28.3962 27.0784 27.0787 28.3958 25.4587 28.3958V29.8646C25.4587 30.4051 25.02 30.8438 24.4795 30.8438C23.939 30.8438 23.5004 30.4051 23.5004 29.8646V28.3958H22.0316C21.4911 28.3958 21.0524 27.9572 21.0524 27.4167C21.0524 26.8762 21.4911 26.4375 22.0316 26.4375H25.4587C25.9987 26.4375 26.4379 25.9983 26.4379 25.4583C26.4379 24.9183 25.9987 24.4792 25.4587 24.4792H23.5004C21.8803 24.4792 20.5629 23.1617 20.5629 21.5417C20.5629 19.9216 21.8803 18.6042 23.5004 18.6042V17.1354C23.5004 16.5949 23.939 16.1562 24.4795 16.1562C25.02 16.1562 25.4587 16.5949 25.4587 17.1354V18.6042H26.9274C27.4679 18.6042 27.9066 19.0428 27.9066 19.5833C27.9066 20.1238 27.4679 20.5625 26.9274 20.5625H23.5004C22.9604 20.5625 22.5212 21.0017 22.5212 21.5417C22.5212 22.0817 22.9604 22.5208 23.5004 22.5208H25.4587C27.0787 22.5208 28.3962 23.8383 28.3962 25.4583ZM24.4795 34.7604C18.2701 34.7604 13.2191 29.7094 13.2191 23.5C13.2191 17.2906 18.2701 12.2396 24.4795 12.2396C30.6889 12.2396 35.7399 17.2906 35.7399 23.5C35.7399 29.7094 30.6889 34.7604 24.4795 34.7604ZM24.4795 14.1979C19.3502 14.1979 15.1774 18.3706 15.1774 23.5C15.1774 28.6294 19.3502 32.8021 24.4795 32.8021C29.6089 32.8021 33.7816 28.6294 33.7816 23.5C33.7816 18.3706 29.6089 14.1979 24.4795 14.1979Z" />
</svg>
