<svg viewBox="0 0 46 46" xmlns="http://www.w3.org/2000/svg">
<g clip-path="url(#clip0_1375_1501)">
<path d="M21.2259 31.1997C21.5772 30.8484 21.5772 30.2798 21.2259 29.9285C20.8743 29.5783 20.3046 29.5783 19.9527 29.9285C19.6017 30.2798 19.6017 30.8484 19.9527 31.1997C20.3046 31.5499 20.8743 31.5499 21.2259 31.1997Z" />
<path d="M16.9648 9.88001C16.9648 15.3278 21.4057 19.7604 26.8642 19.7604C32.3227 19.7604 36.7635 15.3278 36.7635 9.88001C36.7635 4.43218 32.3227 0 26.8642 0C21.4057 0 16.9648 4.43218 16.9648 9.88001ZM34.9638 9.88001C34.9638 14.3375 31.3303 17.9638 26.8642 17.9638C22.398 17.9638 18.7645 14.3375 18.7645 9.88001C18.7645 5.42292 22.398 1.79652 26.8642 1.79652C31.3303 1.79652 34.9638 5.42292 34.9638 9.88001Z" />
<path d="M10.4108 45.7343C10.7596 46.0853 11.3275 46.0892 11.6809 45.7417L16.0441 41.4517C16.7853 40.7119 17.0107 39.6165 16.6847 38.6644L17.6233 37.7611C18.1286 37.2739 18.7939 37.0055 19.4971 37.0055H31.461C33.5835 37.0055 35.5896 36.1919 37.1104 34.7148C37.173 34.6541 36.6353 35.2861 45.2723 24.9836C46.5533 23.471 46.3617 21.1996 44.8447 19.9197C43.3372 18.6517 41.079 18.8338 39.7945 20.3205L34.484 25.768C33.8134 24.9443 32.7909 24.4308 31.686 24.4308H21.6506C20.2226 23.8346 18.7074 23.5327 17.144 23.5327C12.8104 23.5327 9.0264 25.5304 6.99568 29.2757C6.14014 29.1139 5.23784 29.3722 4.58871 30.0201L0.307509 34.3056C-0.0420203 34.6555 -0.0427235 35.2216 0.306102 35.5725L10.4108 45.7343ZM17.1436 25.3289C18.5221 25.3289 19.8548 25.6058 21.1055 26.1519C21.2195 26.2017 21.3422 26.2274 21.4663 26.2274H31.686C32.6618 26.2274 33.486 27.0216 33.486 28.0235C33.486 29.0143 32.6787 29.8201 31.686 29.8201H24.3434C23.8466 29.8201 23.4436 30.2223 23.4436 30.7181C23.4436 31.2144 23.8466 31.6162 24.3434 31.6162H31.686C33.671 31.6162 35.2857 30.0047 35.2857 28.0235C35.2857 27.8656 35.2745 27.7091 35.2541 27.554C40.3912 22.2837 41.1156 21.5432 41.1465 21.5064C41.7879 20.7508 42.9265 20.6549 43.6839 21.2923C44.4421 21.9321 44.5381 23.0677 43.8949 23.8275L35.823 33.4584C34.6443 34.5877 33.0968 35.2093 31.461 35.2093H19.4971C18.3248 35.2093 17.215 35.6567 16.3732 36.4685L15.6084 37.2052L8.55801 30.1689C10.2058 27.0837 13.2978 25.3289 17.1436 25.3289ZM5.86235 31.2895C6.15913 30.9933 6.61486 30.9399 6.97669 31.1632C7.13247 31.2579 6.68518 30.8515 14.7715 38.9108C15.1312 39.2698 15.1119 39.8419 14.7764 40.1767L11.0568 43.8339L2.2141 34.9412L5.86235 31.2895Z" />
<path d="M25.7833 4.49115V5.54366C24.7358 5.91426 23.9833 6.91272 23.9833 8.08385C23.9833 9.56943 25.1944 10.7785 26.6832 10.7785C27.1794 10.7785 27.583 11.1814 27.583 11.6765C27.583 12.1717 27.1794 12.5746 26.6832 12.5746C26.2989 12.5746 25.8836 12.3335 25.5147 11.8952C25.1947 11.5155 24.6272 11.4667 24.2467 11.7857C23.8662 12.1051 23.817 12.6715 24.137 13.0512C24.618 13.6222 25.1838 14.0202 25.7833 14.221V15.2692C25.7833 15.7655 26.1863 16.1673 26.6832 16.1673C27.1801 16.1673 27.583 15.7655 27.583 15.2692V14.2167C28.6306 13.8458 29.3831 12.8473 29.3831 11.6765C29.3831 10.1906 28.172 8.98194 26.6832 8.98194C26.187 8.98194 25.7833 8.57904 25.7833 8.08385C25.7833 7.58866 26.187 7.18541 26.6832 7.18541C27.0021 7.18541 27.3386 7.3479 27.6565 7.65499C28.0138 7.99997 28.5834 7.9905 28.9291 7.63428C29.2748 7.27771 29.2653 6.70917 28.9084 6.36418C28.4516 5.92304 27.9945 5.67351 27.583 5.53734V4.49115C27.583 3.9949 27.1801 3.59271 26.6832 3.59271C26.1863 3.59271 25.7833 3.9949 25.7833 4.49115Z" />
</g>
<defs>
<clipPath id="clip0_1375_1501">
<rect width="46" height="46" fill="white"/>
</clipPath>
</defs>
</svg>
