<svg width="20" height="20" viewBox="0 0 20 20" fill="none" xmlns="http://www.w3.org/2000/svg">
<path d="M19.6204 1.56873V14.9546C19.6204 15.8195 18.9167 16.5233 18.0517 16.5233H14.3559L10.4024 19.892C10.3179 19.9638 10.2135 20 10.109 20C10.0046 20 9.90021 19.9638 9.8157 19.892L5.86218 16.5233H2.16639C1.30144 16.5233 0.597656 15.8195 0.597656 14.9546V1.56873C0.597656 0.703787 1.30144 0 2.16639 0H18.0517C18.9167 0 19.6204 0.703787 19.6204 1.56873V1.56873Z" fill="#FC784F"/>
<path d="M9.4883 2.10547C9.2383 2.10547 9.03561 2.30815 9.03561 2.55816V5.45763C9.03561 6.04783 8.65716 6.55128 8.13022 6.73815V2.55816C8.13022 2.30815 7.92754 2.10547 7.67753 2.10547C7.42752 2.10547 7.22484 2.30815 7.22484 2.55816V6.73815C6.6979 6.55134 6.31945 6.04789 6.31945 5.45763V2.55816C6.31945 2.30815 6.11676 2.10547 5.86676 2.10547C5.61675 2.10547 5.41406 2.30815 5.41406 2.55816V5.45763C5.41406 6.55074 6.19294 7.4653 7.22484 7.67559V8.91404H8.13022V7.67559C9.16212 7.4653 9.941 6.55074 9.941 5.45763V2.55816C9.941 2.30815 9.73831 2.10547 9.4883 2.10547Z" fill="white"/>
<path d="M7.67839 8.46167C6.92952 8.46167 6.32031 9.07088 6.32031 9.81975V13.3983C6.32031 14.1472 6.92952 14.7564 7.67839 14.7564C8.42727 14.7564 9.03647 14.1472 9.03647 13.3983V9.81975C9.03647 9.07088 8.42721 8.46167 7.67839 8.46167V8.46167Z" fill="#FBDF63"/>
<path d="M14.3475 2.10547C12.7667 2.10547 11.4805 3.3916 11.4805 4.97253V8.47565C11.4805 8.72566 11.6832 8.92834 11.9332 8.92834H12.6877V10.1213H13.593V8.92834H14.3475C14.5975 8.92834 14.8002 8.72566 14.8002 8.47565V2.55822C14.8002 2.30815 14.5975 2.10547 14.3475 2.10547Z" fill="white"/>
<path d="M13.1432 9.66821C12.3944 9.66821 11.7852 10.2774 11.7852 11.0263V13.3977C11.7852 14.1466 12.3944 14.7558 13.1432 14.7558C13.8921 14.7558 14.5013 14.1466 14.5013 13.3977V11.0263C14.5013 10.2774 13.8921 9.66821 13.1432 9.66821Z" fill="#FBDF63"/>
<path d="M19.6217 1.56873V14.9546C19.6217 15.8195 18.9179 16.5233 18.053 16.5233H16.2422C17.1071 16.5233 17.8109 15.8195 17.8109 14.9546V1.56873C17.8109 0.703787 17.1071 0 16.2422 0H18.053C18.9179 0 19.6217 0.703787 19.6217 1.56873Z" fill="#DA4E22"/>
</svg>
