<svg version="1.2" xmlns="http://www.w3.org/2000/svg" viewBox="0 0 204 266" width="204" height="266">
	<title>Frame 2-svg</title>
	<defs>
		<clipPath clipPathUnits="userSpaceOnUse" id="cp1">
			<path d="m78.7-23.97l182.92 89.39-118.01 242.3-182.93-89.38z"/>
		</clipPath>
		<filter x="-50%" y="-50%" width="200%" height="200%" id="f1"> <feGaussianBlur stdDeviation="1"/> </filter>
		<linearGradient id="g1" x1="-31" y1="270.3" x2="214" y2="109.9" gradientUnits="userSpaceOnUse">
			<stop offset="0" stop-color="#e7c16d"/>
			<stop offset=".24" stop-color="#b8822c"/>
			<stop offset=".515" stop-color="#7e5923"/>
			<stop offset=".857" stop-color="#e7c16d"/>
		</linearGradient>
		<linearGradient id="g2" x1="-27.9" y1="274.7" x2="216.9" y2="114.4" gradientUnits="userSpaceOnUse">
			<stop offset="0" stop-color="#e7c16d"/>
			<stop offset=".24" stop-color="#b8822c"/>
			<stop offset=".515" stop-color="#7e5923"/>
			<stop offset=".857" stop-color="#e7c16d"/>
		</linearGradient>
		<linearGradient id="g3" x1="-35.4" y1="263.5" x2="209.6" y2="103.2" gradientUnits="userSpaceOnUse">
			<stop offset="0" stop-color="#e7c16d"/>
			<stop offset=".24" stop-color="#b8822c"/>
			<stop offset=".515" stop-color="#7e5923"/>
			<stop offset=".857" stop-color="#e7c16d"/>
		</linearGradient>
		<linearGradient id="g4" x1="-27.6" y1="275.4" x2="217.3" y2="115.1" gradientUnits="userSpaceOnUse">
			<stop offset="0" stop-color="#e7c16d"/>
			<stop offset=".24" stop-color="#b8822c"/>
			<stop offset=".515" stop-color="#7e5923"/>
			<stop offset=".857" stop-color="#e7c16d"/>
		</linearGradient>
		<linearGradient id="g5" x1="-37.8" y1="259.8" x2="207.1" y2="99.5" gradientUnits="userSpaceOnUse">
			<stop offset="0" stop-color="#e7c16d"/>
			<stop offset=".24" stop-color="#b8822c"/>
			<stop offset=".515" stop-color="#7e5923"/>
			<stop offset=".857" stop-color="#e7c16d"/>
		</linearGradient>
		<linearGradient id="g6" x1="-27.8" y1="275.3" x2="217.2" y2="114.9" gradientUnits="userSpaceOnUse">
			<stop offset="0" stop-color="#e7c16d"/>
			<stop offset=".24" stop-color="#b8822c"/>
			<stop offset=".515" stop-color="#7e5923"/>
			<stop offset=".857" stop-color="#e7c16d"/>
		</linearGradient>
		<linearGradient id="g7" x1="-32.3" y1="268.4" x2="212.7" y2="108" gradientUnits="userSpaceOnUse">
			<stop offset="0" stop-color="#e7c16d"/>
			<stop offset=".24" stop-color="#b8822c"/>
			<stop offset=".515" stop-color="#7e5923"/>
			<stop offset=".857" stop-color="#e7c16d"/>
		</linearGradient>
		<linearGradient id="g8" x1="-14.3" y1="295.7" x2="230.6" y2="135.3" gradientUnits="userSpaceOnUse">
			<stop offset="0" stop-color="#e7c16d"/>
			<stop offset=".24" stop-color="#b8822c"/>
			<stop offset=".515" stop-color="#7e5923"/>
			<stop offset=".857" stop-color="#e7c16d"/>
		</linearGradient>
		<linearGradient id="g9" x1="-21.5" y1="284.5" x2="223.3" y2="124.2" gradientUnits="userSpaceOnUse">
			<stop offset="0" stop-color="#e7c16d"/>
			<stop offset=".24" stop-color="#b8822c"/>
			<stop offset=".515" stop-color="#7e5923"/>
			<stop offset=".857" stop-color="#e7c16d"/>
		</linearGradient>
		<linearGradient id="g10" x1="-35.9" y1="262.7" x2="209" y2="102.4" gradientUnits="userSpaceOnUse">
			<stop offset="0" stop-color="#e7c16d"/>
			<stop offset=".24" stop-color="#b8822c"/>
			<stop offset=".515" stop-color="#7e5923"/>
			<stop offset=".857" stop-color="#e7c16d"/>
		</linearGradient>
		<linearGradient id="g11" x1="-33" y1="267.2" x2="212" y2="106.8" gradientUnits="userSpaceOnUse">
			<stop offset="0" stop-color="#e7c16d"/>
			<stop offset=".24" stop-color="#b8822c"/>
			<stop offset=".515" stop-color="#7e5923"/>
			<stop offset=".857" stop-color="#e7c16d"/>
		</linearGradient>
		<linearGradient id="g12" x1="-29.1" y1="272.9" x2="215.7" y2="112.7" gradientUnits="userSpaceOnUse">
			<stop offset="0" stop-color="#e7c16d"/>
			<stop offset=".24" stop-color="#b8822c"/>
			<stop offset=".515" stop-color="#7e5923"/>
			<stop offset=".857" stop-color="#e7c16d"/>
		</linearGradient>
		<linearGradient id="g13" x1="-18.4" y1="289.2" x2="226.4" y2="128.9" gradientUnits="userSpaceOnUse">
			<stop offset="0" stop-color="#e7c16d"/>
			<stop offset=".24" stop-color="#b8822c"/>
			<stop offset=".515" stop-color="#7e5923"/>
			<stop offset=".857" stop-color="#e7c16d"/>
		</linearGradient>
		<linearGradient id="g14" x1="-42.2" y1="253.2" x2="202.8" y2="92.8" gradientUnits="userSpaceOnUse">
			<stop offset="0" stop-color="#e7c16d"/>
			<stop offset=".24" stop-color="#b8822c"/>
			<stop offset=".515" stop-color="#7e5923"/>
			<stop offset=".857" stop-color="#e7c16d"/>
		</linearGradient>
		<linearGradient id="g15" x1="-31.8" y1="269.1" x2="213.2" y2="108.7" gradientUnits="userSpaceOnUse">
			<stop offset="0" stop-color="#e7c16d"/>
			<stop offset=".24" stop-color="#b8822c"/>
			<stop offset=".515" stop-color="#7e5923"/>
			<stop offset=".857" stop-color="#e7c16d"/>
		</linearGradient>
		<linearGradient id="g16" x1="-43.6" y1="250.9" x2="201.3" y2="90.6" gradientUnits="userSpaceOnUse">
			<stop offset="0" stop-color="#e7c16d"/>
			<stop offset=".24" stop-color="#b8822c"/>
			<stop offset=".515" stop-color="#7e5923"/>
			<stop offset=".857" stop-color="#e7c16d"/>
		</linearGradient>
		<linearGradient id="g17" x1="-36.1" y1="262.5" x2="208.9" y2="102.1" gradientUnits="userSpaceOnUse">
			<stop offset="0" stop-color="#e7c16d"/>
			<stop offset=".24" stop-color="#b8822c"/>
			<stop offset=".515" stop-color="#7e5923"/>
			<stop offset=".857" stop-color="#e7c16d"/>
		</linearGradient>
		<linearGradient id="g18" x1="-29.2" y1="273.1" x2="215.8" y2="112.7" gradientUnits="userSpaceOnUse">
			<stop offset="0" stop-color="#e7c16d"/>
			<stop offset=".24" stop-color="#b8822c"/>
			<stop offset=".515" stop-color="#7e5923"/>
			<stop offset=".857" stop-color="#e7c16d"/>
		</linearGradient>
		<linearGradient id="g19" x1="-39.5" y1="257.2" x2="205.5" y2="96.9" gradientUnits="userSpaceOnUse">
			<stop offset="0" stop-color="#e7c16d"/>
			<stop offset=".24" stop-color="#b8822c"/>
			<stop offset=".515" stop-color="#7e5923"/>
			<stop offset=".857" stop-color="#e7c16d"/>
		</linearGradient>
		<linearGradient id="g20" x1="-45" y1="248.8" x2="199.9" y2="88.5" gradientUnits="userSpaceOnUse">
			<stop offset="0" stop-color="#e7c16d"/>
			<stop offset=".24" stop-color="#b8822c"/>
			<stop offset=".515" stop-color="#7e5923"/>
			<stop offset=".857" stop-color="#e7c16d"/>
		</linearGradient>
		<linearGradient id="g21" x1="-29.8" y1="272.1" x2="215.2" y2="111.7" gradientUnits="userSpaceOnUse">
			<stop offset="0" stop-color="#e7c16d"/>
			<stop offset=".24" stop-color="#b8822c"/>
			<stop offset=".515" stop-color="#7e5923"/>
			<stop offset=".857" stop-color="#e7c16d"/>
		</linearGradient>
		<linearGradient id="g22" x1="-36.8" y1="261.4" x2="208.2" y2="101.1" gradientUnits="userSpaceOnUse">
			<stop offset="0" stop-color="#e7c16d"/>
			<stop offset=".24" stop-color="#b8822c"/>
			<stop offset=".515" stop-color="#7e5923"/>
			<stop offset=".857" stop-color="#e7c16d"/>
		</linearGradient>
		<linearGradient id="g23" x1="-42" y1="253.5" x2="203" y2="93.1" gradientUnits="userSpaceOnUse">
			<stop offset="0" stop-color="#e7c16d"/>
			<stop offset=".24" stop-color="#b8822c"/>
			<stop offset=".515" stop-color="#7e5923"/>
			<stop offset=".857" stop-color="#e7c16d"/>
		</linearGradient>
		<linearGradient id="g24" x1="-31.7" y1="269.3" x2="213.3" y2="108.9" gradientUnits="userSpaceOnUse">
			<stop offset="0" stop-color="#e7c16d"/>
			<stop offset=".24" stop-color="#b8822c"/>
			<stop offset=".515" stop-color="#7e5923"/>
			<stop offset=".857" stop-color="#e7c16d"/>
		</linearGradient>
		<linearGradient id="g25" x1="-22.9" y1="282.3" x2="221.9" y2="122.1" gradientUnits="userSpaceOnUse">
			<stop offset="0" stop-color="#e7c16d"/>
			<stop offset=".24" stop-color="#b8822c"/>
			<stop offset=".515" stop-color="#7e5923"/>
			<stop offset=".857" stop-color="#e7c16d"/>
		</linearGradient>
		<linearGradient id="g26" x1="-31.4" y1="269.7" x2="213.6" y2="109.4" gradientUnits="userSpaceOnUse">
			<stop offset="0" stop-color="#e7c16d"/>
			<stop offset=".24" stop-color="#b8822c"/>
			<stop offset=".515" stop-color="#7e5923"/>
			<stop offset=".857" stop-color="#e7c16d"/>
		</linearGradient>
		<linearGradient id="g27" x1="-14.1" y1="296" x2="230.9" y2="135.7" gradientUnits="userSpaceOnUse">
			<stop offset="0" stop-color="#e7c16d"/>
			<stop offset=".24" stop-color="#b8822c"/>
			<stop offset=".515" stop-color="#7e5923"/>
			<stop offset=".857" stop-color="#e7c16d"/>
		</linearGradient>
		<linearGradient id="g28" x1="-34" y1="265.7" x2="211" y2="105.3" gradientUnits="userSpaceOnUse">
			<stop offset="0" stop-color="#e7c16d"/>
			<stop offset=".24" stop-color="#b8822c"/>
			<stop offset=".515" stop-color="#7e5923"/>
			<stop offset=".857" stop-color="#e7c16d"/>
		</linearGradient>
		<linearGradient id="g29" x1="-25.5" y1="278.3" x2="219.3" y2="118" gradientUnits="userSpaceOnUse">
			<stop offset="0" stop-color="#e7c16d"/>
			<stop offset=".24" stop-color="#b8822c"/>
			<stop offset=".515" stop-color="#7e5923"/>
			<stop offset=".857" stop-color="#e7c16d"/>
		</linearGradient>
		<linearGradient id="g30" x1="-35.6" y1="263.3" x2="209.4" y2="103" gradientUnits="userSpaceOnUse">
			<stop offset="0" stop-color="#e7c16d"/>
			<stop offset=".24" stop-color="#b8822c"/>
			<stop offset=".515" stop-color="#7e5923"/>
			<stop offset=".857" stop-color="#e7c16d"/>
		</linearGradient>
		<linearGradient id="g31" x1="-43" y1="251.9" x2="202" y2="91.6" gradientUnits="userSpaceOnUse">
			<stop offset="0" stop-color="#e7c16d"/>
			<stop offset=".24" stop-color="#b8822c"/>
			<stop offset=".515" stop-color="#7e5923"/>
			<stop offset=".857" stop-color="#e7c16d"/>
		</linearGradient>
		<linearGradient id="g32" x1="-24.3" y1="280.5" x2="220.7" y2="120.1" gradientUnits="userSpaceOnUse">
			<stop offset="0" stop-color="#e7c16d"/>
			<stop offset=".24" stop-color="#b8822c"/>
			<stop offset=".515" stop-color="#7e5923"/>
			<stop offset=".857" stop-color="#e7c16d"/>
		</linearGradient>
		<linearGradient id="g33" x1="-34.3" y1="265.2" x2="210.6" y2="104.8" gradientUnits="userSpaceOnUse">
			<stop offset="0" stop-color="#e7c16d"/>
			<stop offset=".24" stop-color="#b8822c"/>
			<stop offset=".515" stop-color="#7e5923"/>
			<stop offset=".857" stop-color="#e7c16d"/>
		</linearGradient>
		<linearGradient id="g34" x1="-16.7" y1="291.8" x2="228.1" y2="131.6" gradientUnits="userSpaceOnUse">
			<stop offset="0" stop-color="#e7c16d"/>
			<stop offset=".24" stop-color="#b8822c"/>
			<stop offset=".515" stop-color="#7e5923"/>
			<stop offset=".857" stop-color="#e7c16d"/>
		</linearGradient>
		<linearGradient id="g35" x1="-21.2" y1="284.9" x2="223.6" y2="124.6" gradientUnits="userSpaceOnUse">
			<stop offset="0" stop-color="#e7c16d"/>
			<stop offset=".24" stop-color="#b8822c"/>
			<stop offset=".515" stop-color="#7e5923"/>
			<stop offset=".857" stop-color="#e7c16d"/>
		</linearGradient>
		<linearGradient id="g36" x1="-42.2" y1="253.2" x2="202.8" y2="92.8" gradientUnits="userSpaceOnUse">
			<stop offset="0" stop-color="#e7c16d"/>
			<stop offset=".24" stop-color="#b8822c"/>
			<stop offset=".515" stop-color="#7e5923"/>
			<stop offset=".857" stop-color="#e7c16d"/>
		</linearGradient>
		<linearGradient id="g37" x1="-30.5" y1="271.1" x2="214.5" y2="110.7" gradientUnits="userSpaceOnUse">
			<stop offset="0" stop-color="#e7c16d"/>
			<stop offset=".24" stop-color="#b8822c"/>
			<stop offset=".515" stop-color="#7e5923"/>
			<stop offset=".857" stop-color="#e7c16d"/>
		</linearGradient>
		<linearGradient id="g38" x1="-45" y1="248.9" x2="200" y2="88.6" gradientUnits="userSpaceOnUse">
			<stop offset="0" stop-color="#e7c16d"/>
			<stop offset=".24" stop-color="#b8822c"/>
			<stop offset=".515" stop-color="#7e5923"/>
			<stop offset=".857" stop-color="#e7c16d"/>
		</linearGradient>
		<linearGradient id="g39" x1="-17.2" y1="291.1" x2="227.6" y2="130.8" gradientUnits="userSpaceOnUse">
			<stop offset="0" stop-color="#e7c16d"/>
			<stop offset=".24" stop-color="#b8822c"/>
			<stop offset=".515" stop-color="#7e5923"/>
			<stop offset=".857" stop-color="#e7c16d"/>
		</linearGradient>
		<linearGradient id="g40" x1="-20.6" y1="285.8" x2="224.2" y2="125.6" gradientUnits="userSpaceOnUse">
			<stop offset="0" stop-color="#e7c16d"/>
			<stop offset=".24" stop-color="#b8822c"/>
			<stop offset=".515" stop-color="#7e5923"/>
			<stop offset=".857" stop-color="#e7c16d"/>
		</linearGradient>
		<linearGradient id="g41" x1="-21.8" y1="283.9" x2="223" y2="123.7" gradientUnits="userSpaceOnUse">
			<stop offset="0" stop-color="#e7c16d"/>
			<stop offset=".24" stop-color="#b8822c"/>
			<stop offset=".515" stop-color="#7e5923"/>
			<stop offset=".857" stop-color="#e7c16d"/>
		</linearGradient>
		<linearGradient id="g42" x1="-39.2" y1="257.8" x2="205.8" y2="97.4" gradientUnits="userSpaceOnUse">
			<stop offset="0" stop-color="#e7c16d"/>
			<stop offset=".24" stop-color="#b8822c"/>
			<stop offset=".515" stop-color="#7e5923"/>
			<stop offset=".857" stop-color="#e7c16d"/>
		</linearGradient>
		<linearGradient id="g43" x1="-23.7" y1="281.5" x2="221.3" y2="121.1" gradientUnits="userSpaceOnUse">
			<stop offset="0" stop-color="#e7c16d"/>
			<stop offset=".24" stop-color="#b8822c"/>
			<stop offset=".515" stop-color="#7e5923"/>
			<stop offset=".857" stop-color="#e7c16d"/>
		</linearGradient>
		<linearGradient id="g44" x1="-30.9" y1="270.4" x2="214" y2="110" gradientUnits="userSpaceOnUse">
			<stop offset="0" stop-color="#e7c16d"/>
			<stop offset=".24" stop-color="#b8822c"/>
			<stop offset=".515" stop-color="#7e5923"/>
			<stop offset=".857" stop-color="#e7c16d"/>
		</linearGradient>
		<linearGradient id="g45" x1="-17" y1="291.5" x2="227.9" y2="131.2" gradientUnits="userSpaceOnUse">
			<stop offset="0" stop-color="#e7c16d"/>
			<stop offset=".24" stop-color="#b8822c"/>
			<stop offset=".515" stop-color="#7e5923"/>
			<stop offset=".857" stop-color="#e7c16d"/>
		</linearGradient>
		<linearGradient id="g46" x1="-27.8" y1="275.1" x2="217.1" y2="114.8" gradientUnits="userSpaceOnUse">
			<stop offset="0" stop-color="#e7c16d"/>
			<stop offset=".24" stop-color="#b8822c"/>
			<stop offset=".515" stop-color="#7e5923"/>
			<stop offset=".857" stop-color="#e7c16d"/>
		</linearGradient>
		<linearGradient id="g47" x1="-23.2" y1="281.9" x2="221.6" y2="121.6" gradientUnits="userSpaceOnUse">
			<stop offset="0" stop-color="#e7c16d"/>
			<stop offset=".24" stop-color="#b8822c"/>
			<stop offset=".515" stop-color="#7e5923"/>
			<stop offset=".857" stop-color="#e7c16d"/>
		</linearGradient>
		<linearGradient id="g48" x1="-16.8" y1="291.9" x2="228.2" y2="131.5" gradientUnits="userSpaceOnUse">
			<stop offset="0" stop-color="#e7c16d"/>
			<stop offset=".24" stop-color="#b8822c"/>
			<stop offset=".515" stop-color="#7e5923"/>
			<stop offset=".857" stop-color="#e7c16d"/>
		</linearGradient>
		<linearGradient id="g49" x1="-43.9" y1="250.6" x2="201.1" y2="90.2" gradientUnits="userSpaceOnUse">
			<stop offset="0" stop-color="#e7c16d"/>
			<stop offset=".24" stop-color="#b8822c"/>
			<stop offset=".515" stop-color="#7e5923"/>
			<stop offset=".857" stop-color="#e7c16d"/>
		</linearGradient>
		<linearGradient id="g50" x1="-16.6" y1="292.3" x2="228.4" y2="131.9" gradientUnits="userSpaceOnUse">
			<stop offset="0" stop-color="#e7c16d"/>
			<stop offset=".24" stop-color="#b8822c"/>
			<stop offset=".515" stop-color="#7e5923"/>
			<stop offset=".857" stop-color="#e7c16d"/>
		</linearGradient>
		<linearGradient id="g51" x1="60.1" y1="351.5" x2="39.8" y2="103" gradientUnits="userSpaceOnUse">
			<stop offset="0" stop-color="#e7c16d"/>
			<stop offset=".24" stop-color="#b8822c"/>
			<stop offset=".515" stop-color="#7e5923"/>
			<stop offset=".857" stop-color="#e7c16d"/>
		</linearGradient>
		<linearGradient id="g52" x1="55.5" y1="351.8" x2="35.3" y2="103.4" gradientUnits="userSpaceOnUse">
			<stop offset="0" stop-color="#e7c16d"/>
			<stop offset=".24" stop-color="#b8822c"/>
			<stop offset=".515" stop-color="#7e5923"/>
			<stop offset=".857" stop-color="#e7c16d"/>
		</linearGradient>
		<linearGradient id="g53" x1="66.9" y1="351" x2="46.6" y2="102.4" gradientUnits="userSpaceOnUse">
			<stop offset="0" stop-color="#e7c16d"/>
			<stop offset=".24" stop-color="#b8822c"/>
			<stop offset=".515" stop-color="#7e5923"/>
			<stop offset=".857" stop-color="#e7c16d"/>
		</linearGradient>
		<linearGradient id="g54" x1="54.9" y1="351.7" x2="34.6" y2="103.5" gradientUnits="userSpaceOnUse">
			<stop offset="0" stop-color="#e7c16d"/>
			<stop offset=".24" stop-color="#b8822c"/>
			<stop offset=".515" stop-color="#7e5923"/>
			<stop offset=".857" stop-color="#e7c16d"/>
		</linearGradient>
		<linearGradient id="g55" x1="70.7" y1="350.8" x2="50.4" y2="102.1" gradientUnits="userSpaceOnUse">
			<stop offset="0" stop-color="#e7c16d"/>
			<stop offset=".24" stop-color="#b8822c"/>
			<stop offset=".515" stop-color="#7e5923"/>
			<stop offset=".857" stop-color="#e7c16d"/>
		</linearGradient>
		<linearGradient id="g56" x1="55" y1="352" x2="34.7" y2="103.4" gradientUnits="userSpaceOnUse">
			<stop offset="0" stop-color="#e7c16d"/>
			<stop offset=".24" stop-color="#b8822c"/>
			<stop offset=".515" stop-color="#7e5923"/>
			<stop offset=".857" stop-color="#e7c16d"/>
		</linearGradient>
		<linearGradient id="g57" x1="62" y1="351.4" x2="41.8" y2="102.8" gradientUnits="userSpaceOnUse">
			<stop offset="0" stop-color="#e7c16d"/>
			<stop offset=".24" stop-color="#b8822c"/>
			<stop offset=".515" stop-color="#7e5923"/>
			<stop offset=".857" stop-color="#e7c16d"/>
		</linearGradient>
		<linearGradient id="g58" x1="34.3" y1="353.3" x2="14.1" y2="105.2" gradientUnits="userSpaceOnUse">
			<stop offset="0" stop-color="#e7c16d"/>
			<stop offset=".24" stop-color="#b8822c"/>
			<stop offset=".515" stop-color="#7e5923"/>
			<stop offset=".857" stop-color="#e7c16d"/>
		</linearGradient>
		<linearGradient id="g59" x1="45.5" y1="352.6" x2="25.3" y2="104.2" gradientUnits="userSpaceOnUse">
			<stop offset="0" stop-color="#e7c16d"/>
			<stop offset=".24" stop-color="#b8822c"/>
			<stop offset=".515" stop-color="#7e5923"/>
			<stop offset=".857" stop-color="#e7c16d"/>
		</linearGradient>
		<linearGradient id="g60" x1="67.8" y1="351" x2="47.5" y2="102.3" gradientUnits="userSpaceOnUse">
			<stop offset="0" stop-color="#e7c16d"/>
			<stop offset=".24" stop-color="#b8822c"/>
			<stop offset=".515" stop-color="#7e5923"/>
			<stop offset=".857" stop-color="#e7c16d"/>
		</linearGradient>
		<linearGradient id="g61" x1="63.1" y1="351.3" x2="42.9" y2="102.7" gradientUnits="userSpaceOnUse">
			<stop offset="0" stop-color="#e7c16d"/>
			<stop offset=".24" stop-color="#b8822c"/>
			<stop offset=".515" stop-color="#7e5923"/>
			<stop offset=".857" stop-color="#e7c16d"/>
		</linearGradient>
		<linearGradient id="g62" x1="57.3" y1="351.7" x2="37" y2="103.3" gradientUnits="userSpaceOnUse">
			<stop offset="0" stop-color="#e7c16d"/>
			<stop offset=".24" stop-color="#b8822c"/>
			<stop offset=".515" stop-color="#7e5923"/>
			<stop offset=".857" stop-color="#e7c16d"/>
		</linearGradient>
		<linearGradient id="g63" x1="40.8" y1="352.9" x2="20.5" y2="104.7" gradientUnits="userSpaceOnUse">
			<stop offset="0" stop-color="#e7c16d"/>
			<stop offset=".24" stop-color="#b8822c"/>
			<stop offset=".515" stop-color="#7e5923"/>
			<stop offset=".857" stop-color="#e7c16d"/>
		</linearGradient>
		<linearGradient id="g64" x1="77.4" y1="350.2" x2="57.1" y2="101.6" gradientUnits="userSpaceOnUse">
			<stop offset="0" stop-color="#e7c16d"/>
			<stop offset=".24" stop-color="#b8822c"/>
			<stop offset=".515" stop-color="#7e5923"/>
			<stop offset=".857" stop-color="#e7c16d"/>
		</linearGradient>
		<linearGradient id="g65" x1="61.2" y1="351.5" x2="41" y2="102.9" gradientUnits="userSpaceOnUse">
			<stop offset="0" stop-color="#e7c16d"/>
			<stop offset=".24" stop-color="#b8822c"/>
			<stop offset=".515" stop-color="#7e5923"/>
			<stop offset=".857" stop-color="#e7c16d"/>
		</linearGradient>
		<linearGradient id="g66" x1="79.7" y1="350.1" x2="59.4" y2="101.4" gradientUnits="userSpaceOnUse">
			<stop offset="0" stop-color="#e7c16d"/>
			<stop offset=".24" stop-color="#b8822c"/>
			<stop offset=".515" stop-color="#7e5923"/>
			<stop offset=".857" stop-color="#e7c16d"/>
		</linearGradient>
		<linearGradient id="g67" x1="67.9" y1="350.9" x2="47.6" y2="102.4" gradientUnits="userSpaceOnUse">
			<stop offset="0" stop-color="#e7c16d"/>
			<stop offset=".24" stop-color="#b8822c"/>
			<stop offset=".515" stop-color="#7e5923"/>
			<stop offset=".857" stop-color="#e7c16d"/>
		</linearGradient>
		<linearGradient id="g68" x1="57.2" y1="351.8" x2="36.9" y2="103.3" gradientUnits="userSpaceOnUse">
			<stop offset="0" stop-color="#e7c16d"/>
			<stop offset=".24" stop-color="#b8822c"/>
			<stop offset=".515" stop-color="#7e5923"/>
			<stop offset=".857" stop-color="#e7c16d"/>
		</linearGradient>
		<linearGradient id="g69" x1="73.2" y1="350.5" x2="52.9" y2="101.9" gradientUnits="userSpaceOnUse">
			<stop offset="0" stop-color="#e7c16d"/>
			<stop offset=".24" stop-color="#b8822c"/>
			<stop offset=".515" stop-color="#7e5923"/>
			<stop offset=".857" stop-color="#e7c16d"/>
		</linearGradient>
		<linearGradient id="g70" x1="81.8" y1="349.8" x2="61.5" y2="101.2" gradientUnits="userSpaceOnUse">
			<stop offset="0" stop-color="#e7c16d"/>
			<stop offset=".24" stop-color="#b8822c"/>
			<stop offset=".515" stop-color="#7e5923"/>
			<stop offset=".857" stop-color="#e7c16d"/>
		</linearGradient>
		<linearGradient id="g71" x1="58.3" y1="351.6" x2="38" y2="103.2" gradientUnits="userSpaceOnUse">
			<stop offset="0" stop-color="#e7c16d"/>
			<stop offset=".24" stop-color="#b8822c"/>
			<stop offset=".515" stop-color="#7e5923"/>
			<stop offset=".857" stop-color="#e7c16d"/>
		</linearGradient>
		<linearGradient id="g72" x1="69" y1="350.9" x2="48.7" y2="102.3" gradientUnits="userSpaceOnUse">
			<stop offset="0" stop-color="#e7c16d"/>
			<stop offset=".24" stop-color="#b8822c"/>
			<stop offset=".515" stop-color="#7e5923"/>
			<stop offset=".857" stop-color="#e7c16d"/>
		</linearGradient>
		<linearGradient id="g73" x1="77.1" y1="350.3" x2="56.8" y2="101.6" gradientUnits="userSpaceOnUse">
			<stop offset="0" stop-color="#e7c16d"/>
			<stop offset=".24" stop-color="#b8822c"/>
			<stop offset=".515" stop-color="#7e5923"/>
			<stop offset=".857" stop-color="#e7c16d"/>
		</linearGradient>
		<linearGradient id="g74" x1="61.1" y1="351.5" x2="40.8" y2="102.9" gradientUnits="userSpaceOnUse">
			<stop offset="0" stop-color="#e7c16d"/>
			<stop offset=".24" stop-color="#b8822c"/>
			<stop offset=".515" stop-color="#7e5923"/>
			<stop offset=".857" stop-color="#e7c16d"/>
		</linearGradient>
		<linearGradient id="g75" x1="47.7" y1="352.4" x2="27.5" y2="104.1" gradientUnits="userSpaceOnUse">
			<stop offset="0" stop-color="#e7c16d"/>
			<stop offset=".24" stop-color="#b8822c"/>
			<stop offset=".515" stop-color="#7e5923"/>
			<stop offset=".857" stop-color="#e7c16d"/>
		</linearGradient>
		<linearGradient id="g76" x1="60.6" y1="351.6" x2="40.3" y2="103" gradientUnits="userSpaceOnUse">
			<stop offset="0" stop-color="#e7c16d"/>
			<stop offset=".24" stop-color="#b8822c"/>
			<stop offset=".515" stop-color="#7e5923"/>
			<stop offset=".857" stop-color="#e7c16d"/>
		</linearGradient>
		<linearGradient id="g77" x1="34" y1="353.3" x2="13.7" y2="105.3" gradientUnits="userSpaceOnUse">
			<stop offset="0" stop-color="#e7c16d"/>
			<stop offset=".24" stop-color="#b8822c"/>
			<stop offset=".515" stop-color="#7e5923"/>
			<stop offset=".857" stop-color="#e7c16d"/>
		</linearGradient>
		<linearGradient id="g78" x1="64.7" y1="351.2" x2="44.4" y2="102.6" gradientUnits="userSpaceOnUse">
			<stop offset="0" stop-color="#e7c16d"/>
			<stop offset=".24" stop-color="#b8822c"/>
			<stop offset=".515" stop-color="#7e5923"/>
			<stop offset=".857" stop-color="#e7c16d"/>
		</linearGradient>
		<linearGradient id="g79" x1="51.9" y1="352.1" x2="31.6" y2="103.7" gradientUnits="userSpaceOnUse">
			<stop offset="0" stop-color="#e7c16d"/>
			<stop offset=".24" stop-color="#b8822c"/>
			<stop offset=".515" stop-color="#7e5923"/>
			<stop offset=".857" stop-color="#e7c16d"/>
		</linearGradient>
		<linearGradient id="g80" x1="67" y1="351" x2="46.8" y2="102.4" gradientUnits="userSpaceOnUse">
			<stop offset="0" stop-color="#e7c16d"/>
			<stop offset=".24" stop-color="#b8822c"/>
			<stop offset=".515" stop-color="#7e5923"/>
			<stop offset=".857" stop-color="#e7c16d"/>
		</linearGradient>
		<linearGradient id="g81" x1="78.7" y1="350.1" x2="58.4" y2="101.4" gradientUnits="userSpaceOnUse">
			<stop offset="0" stop-color="#e7c16d"/>
			<stop offset=".24" stop-color="#b8822c"/>
			<stop offset=".515" stop-color="#7e5923"/>
			<stop offset=".857" stop-color="#e7c16d"/>
		</linearGradient>
		<linearGradient id="g82" x1="49.7" y1="352.4" x2="29.4" y2="103.9" gradientUnits="userSpaceOnUse">
			<stop offset="0" stop-color="#e7c16d"/>
			<stop offset=".24" stop-color="#b8822c"/>
			<stop offset=".515" stop-color="#7e5923"/>
			<stop offset=".857" stop-color="#e7c16d"/>
		</linearGradient>
		<linearGradient id="g83" x1="65.2" y1="351.2" x2="45" y2="102.6" gradientUnits="userSpaceOnUse">
			<stop offset="0" stop-color="#e7c16d"/>
			<stop offset=".24" stop-color="#b8822c"/>
			<stop offset=".515" stop-color="#7e5923"/>
			<stop offset=".857" stop-color="#e7c16d"/>
		</linearGradient>
		<linearGradient id="g84" x1="38.1" y1="353.2" x2="17.8" y2="104.8" gradientUnits="userSpaceOnUse">
			<stop offset="0" stop-color="#e7c16d"/>
			<stop offset=".24" stop-color="#b8822c"/>
			<stop offset=".515" stop-color="#7e5923"/>
			<stop offset=".857" stop-color="#e7c16d"/>
		</linearGradient>
		<linearGradient id="g85" x1="45.1" y1="352.7" x2="24.8" y2="104.3" gradientUnits="userSpaceOnUse">
			<stop offset="0" stop-color="#e7c16d"/>
			<stop offset=".24" stop-color="#b8822c"/>
			<stop offset=".515" stop-color="#7e5923"/>
			<stop offset=".857" stop-color="#e7c16d"/>
		</linearGradient>
		<linearGradient id="g86" x1="77.3" y1="350.2" x2="57.1" y2="101.6" gradientUnits="userSpaceOnUse">
			<stop offset="0" stop-color="#e7c16d"/>
			<stop offset=".24" stop-color="#b8822c"/>
			<stop offset=".515" stop-color="#7e5923"/>
			<stop offset=".857" stop-color="#e7c16d"/>
		</linearGradient>
		<linearGradient id="g87" x1="59.3" y1="351.6" x2="39" y2="103.1" gradientUnits="userSpaceOnUse">
			<stop offset="0" stop-color="#e7c16d"/>
			<stop offset=".24" stop-color="#b8822c"/>
			<stop offset=".515" stop-color="#7e5923"/>
			<stop offset=".857" stop-color="#e7c16d"/>
		</linearGradient>
		<linearGradient id="g88" x1="81.6" y1="349.8" x2="61.3" y2="101.2" gradientUnits="userSpaceOnUse">
			<stop offset="0" stop-color="#e7c16d"/>
			<stop offset=".24" stop-color="#b8822c"/>
			<stop offset=".515" stop-color="#7e5923"/>
			<stop offset=".857" stop-color="#e7c16d"/>
		</linearGradient>
		<linearGradient id="g89" x1="38.9" y1="353.1" x2="18.6" y2="104.8" gradientUnits="userSpaceOnUse">
			<stop offset="0" stop-color="#e7c16d"/>
			<stop offset=".24" stop-color="#b8822c"/>
			<stop offset=".515" stop-color="#7e5923"/>
			<stop offset=".857" stop-color="#e7c16d"/>
		</linearGradient>
		<linearGradient id="g90" x1="44.2" y1="352.7" x2="23.9" y2="104.4" gradientUnits="userSpaceOnUse">
			<stop offset="0" stop-color="#e7c16d"/>
			<stop offset=".24" stop-color="#b8822c"/>
			<stop offset=".515" stop-color="#7e5923"/>
			<stop offset=".857" stop-color="#e7c16d"/>
		</linearGradient>
		<linearGradient id="g91" x1="46.1" y1="352.6" x2="25.8" y2="104.2" gradientUnits="userSpaceOnUse">
			<stop offset="0" stop-color="#e7c16d"/>
			<stop offset=".24" stop-color="#b8822c"/>
			<stop offset=".515" stop-color="#7e5923"/>
			<stop offset=".857" stop-color="#e7c16d"/>
		</linearGradient>
		<linearGradient id="g92" x1="72.7" y1="350.6" x2="52.4" y2="102" gradientUnits="userSpaceOnUse">
			<stop offset="0" stop-color="#e7c16d"/>
			<stop offset=".24" stop-color="#b8822c"/>
			<stop offset=".515" stop-color="#7e5923"/>
			<stop offset=".857" stop-color="#e7c16d"/>
		</linearGradient>
		<linearGradient id="g93" x1="48.7" y1="352.4" x2="28.4" y2="104" gradientUnits="userSpaceOnUse">
			<stop offset="0" stop-color="#e7c16d"/>
			<stop offset=".24" stop-color="#b8822c"/>
			<stop offset=".515" stop-color="#7e5923"/>
			<stop offset=".857" stop-color="#e7c16d"/>
		</linearGradient>
		<linearGradient id="g94" x1="59.9" y1="351.6" x2="39.6" y2="103" gradientUnits="userSpaceOnUse">
			<stop offset="0" stop-color="#e7c16d"/>
			<stop offset=".24" stop-color="#b8822c"/>
			<stop offset=".515" stop-color="#7e5923"/>
			<stop offset=".857" stop-color="#e7c16d"/>
		</linearGradient>
		<linearGradient id="g95" x1="38.5" y1="353.2" x2="18.3" y2="104.8" gradientUnits="userSpaceOnUse">
			<stop offset="0" stop-color="#e7c16d"/>
			<stop offset=".24" stop-color="#b8822c"/>
			<stop offset=".515" stop-color="#7e5923"/>
			<stop offset=".857" stop-color="#e7c16d"/>
		</linearGradient>
		<linearGradient id="g96" x1="55.2" y1="351.9" x2="34.9" y2="103.4" gradientUnits="userSpaceOnUse">
			<stop offset="0" stop-color="#e7c16d"/>
			<stop offset=".24" stop-color="#b8822c"/>
			<stop offset=".515" stop-color="#7e5923"/>
			<stop offset=".857" stop-color="#e7c16d"/>
		</linearGradient>
		<linearGradient id="g97" x1="48.2" y1="352.4" x2="27.9" y2="104" gradientUnits="userSpaceOnUse">
			<stop offset="0" stop-color="#e7c16d"/>
			<stop offset=".24" stop-color="#b8822c"/>
			<stop offset=".515" stop-color="#7e5923"/>
			<stop offset=".857" stop-color="#e7c16d"/>
		</linearGradient>
		<linearGradient id="g98" x1="38.3" y1="353.2" x2="18" y2="104.9" gradientUnits="userSpaceOnUse">
			<stop offset="0" stop-color="#e7c16d"/>
			<stop offset=".24" stop-color="#b8822c"/>
			<stop offset=".515" stop-color="#7e5923"/>
			<stop offset=".857" stop-color="#e7c16d"/>
		</linearGradient>
		<linearGradient id="g99" x1="80.1" y1="350.1" x2="59.8" y2="101.3" gradientUnits="userSpaceOnUse">
			<stop offset="0" stop-color="#e7c16d"/>
			<stop offset=".24" stop-color="#b8822c"/>
			<stop offset=".515" stop-color="#7e5923"/>
			<stop offset=".857" stop-color="#e7c16d"/>
		</linearGradient>
		<linearGradient id="g100" x1="38.1" y1="353.4" x2="17.8" y2="104.8" gradientUnits="userSpaceOnUse">
			<stop offset="0" stop-color="#e7c16d"/>
			<stop offset=".24" stop-color="#b8822c"/>
			<stop offset=".515" stop-color="#7e5923"/>
			<stop offset=".857" stop-color="#e7c16d"/>
		</linearGradient>
		<linearGradient id="g101" x1="-53.5" y1="210.7" x2="266.1" y2="-77.2" gradientUnits="userSpaceOnUse">
			<stop offset="0" stop-color="#e7c16d"/>
			<stop offset=".24" stop-color="#b8822c"/>
			<stop offset=".515" stop-color="#7e5923"/>
			<stop offset=".857" stop-color="#e7c16d"/>
		</linearGradient>
		<linearGradient id="g102" x1="-60.2" y1="203.3" x2="259.4" y2="-84.6" gradientUnits="userSpaceOnUse">
			<stop offset="0" stop-color="#e7c16d"/>
			<stop offset=".24" stop-color="#b8822c"/>
			<stop offset=".515" stop-color="#7e5923"/>
			<stop offset=".857" stop-color="#e7c16d"/>
		</linearGradient>
		<linearGradient id="g103" x1="-68.9" y1="193.8" x2="250.8" y2="-94.2" gradientUnits="userSpaceOnUse">
			<stop offset="0" stop-color="#e7c16d"/>
			<stop offset=".24" stop-color="#b8822c"/>
			<stop offset=".515" stop-color="#7e5923"/>
			<stop offset=".857" stop-color="#e7c16d"/>
		</linearGradient>
		<linearGradient id="g104" x1="-44.4" y1="220.9" x2="275.3" y2="-67.1" gradientUnits="userSpaceOnUse">
			<stop offset="0" stop-color="#e7c16d"/>
			<stop offset=".24" stop-color="#b8822c"/>
			<stop offset=".515" stop-color="#7e5923"/>
			<stop offset=".857" stop-color="#e7c16d"/>
		</linearGradient>
		<linearGradient id="g105" x1="-68.9" y1="194.1" x2="251.1" y2="-94.2" gradientUnits="userSpaceOnUse">
			<stop offset="0" stop-color="#e7c16d"/>
			<stop offset=".24" stop-color="#b8822c"/>
			<stop offset=".515" stop-color="#7e5923"/>
			<stop offset=".857" stop-color="#e7c16d"/>
		</linearGradient>
		<linearGradient id="g106" x1="-65.5" y1="197.4" x2="254.2" y2="-90.5" gradientUnits="userSpaceOnUse">
			<stop offset="0" stop-color="#e7c16d"/>
			<stop offset=".24" stop-color="#b8822c"/>
			<stop offset=".515" stop-color="#7e5923"/>
			<stop offset=".857" stop-color="#e7c16d"/>
		</linearGradient>
		<linearGradient id="g107" x1="-70.4" y1="192" x2="249.2" y2="-95.9" gradientUnits="userSpaceOnUse">
			<stop offset="0" stop-color="#e7c16d"/>
			<stop offset=".24" stop-color="#b8822c"/>
			<stop offset=".515" stop-color="#7e5923"/>
			<stop offset=".857" stop-color="#e7c16d"/>
		</linearGradient>
		<linearGradient id="g108" x1="-41.2" y1="224.5" x2="278.5" y2="-63.5" gradientUnits="userSpaceOnUse">
			<stop offset="0" stop-color="#e7c16d"/>
			<stop offset=".24" stop-color="#b8822c"/>
			<stop offset=".515" stop-color="#7e5923"/>
			<stop offset=".857" stop-color="#e7c16d"/>
		</linearGradient>
		<linearGradient id="g109" x1="-46.6" y1="218.5" x2="273.1" y2="-69.6" gradientUnits="userSpaceOnUse">
			<stop offset="0" stop-color="#e7c16d"/>
			<stop offset=".24" stop-color="#b8822c"/>
			<stop offset=".515" stop-color="#7e5923"/>
			<stop offset=".857" stop-color="#e7c16d"/>
		</linearGradient>
		<linearGradient id="g110" x1="-56.4" y1="207.6" x2="263.3" y2="-80.4" gradientUnits="userSpaceOnUse">
			<stop offset="0" stop-color="#e7c16d"/>
			<stop offset=".24" stop-color="#b8822c"/>
			<stop offset=".515" stop-color="#7e5923"/>
			<stop offset=".857" stop-color="#e7c16d"/>
		</linearGradient>
		<linearGradient id="g111" x1="-32.5" y1="233.9" x2="287" y2="-53.9" gradientUnits="userSpaceOnUse">
			<stop offset="0" stop-color="#e7c16d"/>
			<stop offset=".24" stop-color="#b8822c"/>
			<stop offset=".515" stop-color="#7e5923"/>
			<stop offset=".857" stop-color="#e7c16d"/>
		</linearGradient>
		<linearGradient id="g112" x1="-50.2" y1="214.5" x2="269.5" y2="-73.5" gradientUnits="userSpaceOnUse">
			<stop offset="0" stop-color="#e7c16d"/>
			<stop offset=".24" stop-color="#b8822c"/>
			<stop offset=".515" stop-color="#7e5923"/>
			<stop offset=".857" stop-color="#e7c16d"/>
		</linearGradient>
		<linearGradient id="g113" x1="-75.9" y1="185.9" x2="243.8" y2="-102" gradientUnits="userSpaceOnUse">
			<stop offset="0" stop-color="#e7c16d"/>
			<stop offset=".24" stop-color="#b8822c"/>
			<stop offset=".515" stop-color="#7e5923"/>
			<stop offset=".857" stop-color="#e7c16d"/>
		</linearGradient>
		<linearGradient id="g114" x1="-36.9" y1="229.2" x2="282.7" y2="-58.8" gradientUnits="userSpaceOnUse">
			<stop offset="0" stop-color="#e7c16d"/>
			<stop offset=".24" stop-color="#b8822c"/>
			<stop offset=".515" stop-color="#7e5923"/>
			<stop offset=".857" stop-color="#e7c16d"/>
		</linearGradient>
		<linearGradient id="g115" x1="-59.6" y1="204.1" x2="260.2" y2="-83.9" gradientUnits="userSpaceOnUse">
			<stop offset="0" stop-color="#e7c16d"/>
			<stop offset=".24" stop-color="#b8822c"/>
			<stop offset=".515" stop-color="#7e5923"/>
			<stop offset=".857" stop-color="#e7c16d"/>
		</linearGradient>
		<linearGradient id="g116" x1="-76.8" y1="184.7" x2="242.7" y2="-103" gradientUnits="userSpaceOnUse">
			<stop offset="0" stop-color="#e7c16d"/>
			<stop offset=".24" stop-color="#b8822c"/>
			<stop offset=".515" stop-color="#7e5923"/>
			<stop offset=".857" stop-color="#e7c16d"/>
		</linearGradient>
		<linearGradient id="g117" x1="-46.2" y1="219" x2="273.5" y2="-69.1" gradientUnits="userSpaceOnUse">
			<stop offset="0" stop-color="#e7c16d"/>
			<stop offset=".24" stop-color="#b8822c"/>
			<stop offset=".515" stop-color="#7e5923"/>
			<stop offset=".857" stop-color="#e7c16d"/>
		</linearGradient>
		<linearGradient id="g118" x1="-78.5" y1="183.1" x2="241.2" y2="-104.9" gradientUnits="userSpaceOnUse">
			<stop offset="0" stop-color="#e7c16d"/>
			<stop offset=".24" stop-color="#b8822c"/>
			<stop offset=".515" stop-color="#7e5923"/>
			<stop offset=".857" stop-color="#e7c16d"/>
		</linearGradient>
		<linearGradient id="g119" x1="-64.3" y1="198.8" x2="255.4" y2="-89.1" gradientUnits="userSpaceOnUse">
			<stop offset="0" stop-color="#e7c16d"/>
			<stop offset=".24" stop-color="#b8822c"/>
			<stop offset=".515" stop-color="#7e5923"/>
			<stop offset=".857" stop-color="#e7c16d"/>
		</linearGradient>
		<linearGradient id="g120" x1="-59.6" y1="203.9" x2="260" y2="-84" gradientUnits="userSpaceOnUse">
			<stop offset="0" stop-color="#e7c16d"/>
			<stop offset=".24" stop-color="#b8822c"/>
			<stop offset=".515" stop-color="#7e5923"/>
			<stop offset=".857" stop-color="#e7c16d"/>
		</linearGradient>
		<linearGradient id="g121" x1="-49" y1="215.8" x2="270.7" y2="-72.2" gradientUnits="userSpaceOnUse">
			<stop offset="0" stop-color="#e7c16d"/>
			<stop offset=".24" stop-color="#b8822c"/>
			<stop offset=".515" stop-color="#7e5923"/>
			<stop offset=".857" stop-color="#e7c16d"/>
		</linearGradient>
		<linearGradient id="g122" x1="-75" y1="186.8" x2="244.5" y2="-101" gradientUnits="userSpaceOnUse">
			<stop offset="0" stop-color="#e7c16d"/>
			<stop offset=".24" stop-color="#b8822c"/>
			<stop offset=".515" stop-color="#7e5923"/>
			<stop offset=".857" stop-color="#e7c16d"/>
		</linearGradient>
		<linearGradient id="g123" x1="-34" y1="232.2" x2="285.5" y2="-55.6" gradientUnits="userSpaceOnUse">
			<stop offset="0" stop-color="#e7c16d"/>
			<stop offset=".24" stop-color="#b8822c"/>
			<stop offset=".515" stop-color="#7e5923"/>
			<stop offset=".857" stop-color="#e7c16d"/>
		</linearGradient>
		<linearGradient id="g124" x1="-82.5" y1="178.5" x2="237.1" y2="-109.4" gradientUnits="userSpaceOnUse">
			<stop offset="0" stop-color="#e7c16d"/>
			<stop offset=".24" stop-color="#b8822c"/>
			<stop offset=".515" stop-color="#7e5923"/>
			<stop offset=".857" stop-color="#e7c16d"/>
		</linearGradient>
		<linearGradient id="g125" x1="-68.9" y1="193.7" x2="250.8" y2="-94.3" gradientUnits="userSpaceOnUse">
			<stop offset="0" stop-color="#e7c16d"/>
			<stop offset=".24" stop-color="#b8822c"/>
			<stop offset=".515" stop-color="#7e5923"/>
			<stop offset=".857" stop-color="#e7c16d"/>
		</linearGradient>
		<linearGradient id="g126" x1="-56.6" y1="207.4" x2="263.1" y2="-80.6" gradientUnits="userSpaceOnUse">
			<stop offset="0" stop-color="#e7c16d"/>
			<stop offset=".24" stop-color="#b8822c"/>
			<stop offset=".515" stop-color="#7e5923"/>
			<stop offset=".857" stop-color="#e7c16d"/>
		</linearGradient>
		<linearGradient id="g127" x1="-53.5" y1="210.8" x2="266.1" y2="-77.2" gradientUnits="userSpaceOnUse">
			<stop offset="0" stop-color="#e7c16d"/>
			<stop offset=".24" stop-color="#b8822c"/>
			<stop offset=".515" stop-color="#7e5923"/>
			<stop offset=".857" stop-color="#e7c16d"/>
		</linearGradient>
		<linearGradient id="g128" x1="-71.8" y1="190.4" x2="247.8" y2="-97.5" gradientUnits="userSpaceOnUse">
			<stop offset="0" stop-color="#e7c16d"/>
			<stop offset=".24" stop-color="#b8822c"/>
			<stop offset=".515" stop-color="#7e5923"/>
			<stop offset=".857" stop-color="#e7c16d"/>
		</linearGradient>
		<linearGradient id="g129" x1="-51.1" y1="213.5" x2="268.6" y2="-74.5" gradientUnits="userSpaceOnUse">
			<stop offset="0" stop-color="#e7c16d"/>
			<stop offset=".24" stop-color="#b8822c"/>
			<stop offset=".515" stop-color="#7e5923"/>
			<stop offset=".857" stop-color="#e7c16d"/>
		</linearGradient>
		<linearGradient id="g130" x1="-60.2" y1="203.3" x2="259.4" y2="-84.6" gradientUnits="userSpaceOnUse">
			<stop offset="0" stop-color="#e7c16d"/>
			<stop offset=".24" stop-color="#b8822c"/>
			<stop offset=".515" stop-color="#7e5923"/>
			<stop offset=".857" stop-color="#e7c16d"/>
		</linearGradient>
		<linearGradient id="g131" x1="-64.3" y1="198.7" x2="255.3" y2="-89.2" gradientUnits="userSpaceOnUse">
			<stop offset="0" stop-color="#e7c16d"/>
			<stop offset=".24" stop-color="#b8822c"/>
			<stop offset=".515" stop-color="#7e5923"/>
			<stop offset=".857" stop-color="#e7c16d"/>
		</linearGradient>
		<linearGradient id="g132" x1="-41.4" y1="224.2" x2="278.3" y2="-63.8" gradientUnits="userSpaceOnUse">
			<stop offset="0" stop-color="#e7c16d"/>
			<stop offset=".24" stop-color="#b8822c"/>
			<stop offset=".515" stop-color="#7e5923"/>
			<stop offset=".857" stop-color="#e7c16d"/>
		</linearGradient>
		<linearGradient id="g133" x1="-72.1" y1="190.2" x2="247.6" y2="-97.8" gradientUnits="userSpaceOnUse">
			<stop offset="0" stop-color="#e7c16d"/>
			<stop offset=".24" stop-color="#b8822c"/>
			<stop offset=".515" stop-color="#7e5923"/>
			<stop offset=".857" stop-color="#e7c16d"/>
		</linearGradient>
		<linearGradient id="g134" x1="-88.8" y1="171.7" x2="230.9" y2="-116.3" gradientUnits="userSpaceOnUse">
			<stop offset="0" stop-color="#e7c16d"/>
			<stop offset=".24" stop-color="#b8822c"/>
			<stop offset=".515" stop-color="#7e5923"/>
			<stop offset=".857" stop-color="#e7c16d"/>
		</linearGradient>
		<linearGradient id="g135" x1="-57.3" y1="206.4" x2="262.3" y2="-81.4" gradientUnits="userSpaceOnUse">
			<stop offset="0" stop-color="#e7c16d"/>
			<stop offset=".24" stop-color="#b8822c"/>
			<stop offset=".515" stop-color="#7e5923"/>
			<stop offset=".857" stop-color="#e7c16d"/>
		</linearGradient>
		<linearGradient id="g136" x1="-18.2" y1="249.9" x2="301.5" y2="-38" gradientUnits="userSpaceOnUse">
			<stop offset="0" stop-color="#e7c16d"/>
			<stop offset=".24" stop-color="#b8822c"/>
			<stop offset=".515" stop-color="#7e5923"/>
			<stop offset=".857" stop-color="#e7c16d"/>
		</linearGradient>
		<linearGradient id="g137" x1="-59.6" y1="204" x2="260" y2="-84" gradientUnits="userSpaceOnUse">
			<stop offset="0" stop-color="#e7c16d"/>
			<stop offset=".24" stop-color="#b8822c"/>
			<stop offset=".515" stop-color="#7e5923"/>
			<stop offset=".857" stop-color="#e7c16d"/>
		</linearGradient>
		<linearGradient id="g138" x1="-64.7" y1="198.4" x2="255" y2="-89.6" gradientUnits="userSpaceOnUse">
			<stop offset="0" stop-color="#e7c16d"/>
			<stop offset=".24" stop-color="#b8822c"/>
			<stop offset=".515" stop-color="#7e5923"/>
			<stop offset=".857" stop-color="#e7c16d"/>
		</linearGradient>
		<linearGradient id="g139" x1="-41.8" y1="223.8" x2="277.9" y2="-64.2" gradientUnits="userSpaceOnUse">
			<stop offset="0" stop-color="#e7c16d"/>
			<stop offset=".24" stop-color="#b8822c"/>
			<stop offset=".515" stop-color="#7e5923"/>
			<stop offset=".857" stop-color="#e7c16d"/>
		</linearGradient>
		<linearGradient id="g140" x1="-84" y1="177" x2="235.7" y2="-111" gradientUnits="userSpaceOnUse">
			<stop offset="0" stop-color="#e7c16d"/>
			<stop offset=".24" stop-color="#b8822c"/>
			<stop offset=".515" stop-color="#7e5923"/>
			<stop offset=".857" stop-color="#e7c16d"/>
		</linearGradient>
		<linearGradient id="g141" x1="-77.1" y1="184.6" x2="242.6" y2="-103.3" gradientUnits="userSpaceOnUse">
			<stop offset="0" stop-color="#e7c16d"/>
			<stop offset=".24" stop-color="#b8822c"/>
			<stop offset=".515" stop-color="#7e5923"/>
			<stop offset=".857" stop-color="#e7c16d"/>
		</linearGradient>
		<linearGradient id="g142" x1="-68.2" y1="194.4" x2="251.5" y2="-93.5" gradientUnits="userSpaceOnUse">
			<stop offset="0" stop-color="#e7c16d"/>
			<stop offset=".24" stop-color="#b8822c"/>
			<stop offset=".515" stop-color="#7e5923"/>
			<stop offset=".857" stop-color="#e7c16d"/>
		</linearGradient>
		<linearGradient id="g143" x1="-64.3" y1="198.7" x2="255.3" y2="-89.1" gradientUnits="userSpaceOnUse">
			<stop offset="0" stop-color="#e7c16d"/>
			<stop offset=".24" stop-color="#b8822c"/>
			<stop offset=".515" stop-color="#7e5923"/>
			<stop offset=".857" stop-color="#e7c16d"/>
		</linearGradient>
		<linearGradient id="g144" x1="10" y1="281.3" x2="329.7" y2="-6.8" gradientUnits="userSpaceOnUse">
			<stop offset="0" stop-color="#e7c16d"/>
			<stop offset=".24" stop-color="#b8822c"/>
			<stop offset=".515" stop-color="#7e5923"/>
			<stop offset=".857" stop-color="#e7c16d"/>
		</linearGradient>
		<linearGradient id="g145" x1="-10.5" y1="258.4" x2="309.1" y2="-29.5" gradientUnits="userSpaceOnUse">
			<stop offset="0" stop-color="#e7c16d"/>
			<stop offset=".24" stop-color="#b8822c"/>
			<stop offset=".515" stop-color="#7e5923"/>
			<stop offset=".857" stop-color="#e7c16d"/>
		</linearGradient>
		<linearGradient id="g146" x1="-196.1" y1="726.3" x2="594.5" y2="623.3" gradientUnits="userSpaceOnUse">
			<stop offset="0" stop-color="#e7c16d"/>
			<stop offset=".24" stop-color="#b8822c"/>
			<stop offset=".515" stop-color="#7e5923"/>
			<stop offset=".857" stop-color="#e7c16d"/>
		</linearGradient>
	</defs>
	<style>
		.s0 { mix-blend-mode: luminosity;filter: url(#f1);fill: url(#g1) } 
		.s1 { mix-blend-mode: luminosity;filter: url(#f1);fill: url(#g2) } 
		.s2 { mix-blend-mode: luminosity;filter: url(#f1);fill: url(#g3) } 
		.s3 { mix-blend-mode: luminosity;filter: url(#f1);fill: url(#g4) } 
		.s4 { mix-blend-mode: luminosity;filter: url(#f1);fill: url(#g5) } 
		.s5 { mix-blend-mode: luminosity;filter: url(#f1);fill: url(#g6) } 
		.s6 { mix-blend-mode: luminosity;filter: url(#f1);fill: url(#g7) } 
		.s7 { mix-blend-mode: luminosity;filter: url(#f1);fill: url(#g8) } 
		.s8 { mix-blend-mode: luminosity;filter: url(#f1);fill: url(#g9) } 
		.s9 { mix-blend-mode: luminosity;filter: url(#f1);fill: url(#g10) } 
		.s10 { mix-blend-mode: luminosity;filter: url(#f1);fill: url(#g11) } 
		.s11 { mix-blend-mode: luminosity;filter: url(#f1);fill: url(#g12) } 
		.s12 { mix-blend-mode: luminosity;filter: url(#f1);fill: url(#g13) } 
		.s13 { mix-blend-mode: luminosity;filter: url(#f1);fill: url(#g14) } 
		.s14 { mix-blend-mode: luminosity;filter: url(#f1);fill: url(#g15) } 
		.s15 { mix-blend-mode: luminosity;filter: url(#f1);fill: url(#g16) } 
		.s16 { mix-blend-mode: luminosity;filter: url(#f1);fill: url(#g17) } 
		.s17 { mix-blend-mode: luminosity;filter: url(#f1);fill: url(#g18) } 
		.s18 { mix-blend-mode: luminosity;filter: url(#f1);fill: url(#g19) } 
		.s19 { mix-blend-mode: luminosity;filter: url(#f1);fill: url(#g20) } 
		.s20 { mix-blend-mode: luminosity;filter: url(#f1);fill: url(#g21) } 
		.s21 { mix-blend-mode: luminosity;filter: url(#f1);fill: url(#g22) } 
		.s22 { mix-blend-mode: luminosity;filter: url(#f1);fill: url(#g23) } 
		.s23 { mix-blend-mode: luminosity;filter: url(#f1);fill: url(#g24) } 
		.s24 { mix-blend-mode: luminosity;filter: url(#f1);fill: url(#g25) } 
		.s25 { mix-blend-mode: luminosity;filter: url(#f1);fill: url(#g26) } 
		.s26 { mix-blend-mode: luminosity;filter: url(#f1);fill: url(#g27) } 
		.s27 { mix-blend-mode: luminosity;filter: url(#f1);fill: url(#g28) } 
		.s28 { mix-blend-mode: luminosity;filter: url(#f1);fill: url(#g29) } 
		.s29 { mix-blend-mode: luminosity;filter: url(#f1);fill: url(#g30) } 
		.s30 { mix-blend-mode: luminosity;filter: url(#f1);fill: url(#g31) } 
		.s31 { mix-blend-mode: luminosity;filter: url(#f1);fill: url(#g32) } 
		.s32 { mix-blend-mode: luminosity;filter: url(#f1);fill: url(#g33) } 
		.s33 { mix-blend-mode: luminosity;filter: url(#f1);fill: url(#g34) } 
		.s34 { mix-blend-mode: luminosity;filter: url(#f1);fill: url(#g35) } 
		.s35 { mix-blend-mode: luminosity;filter: url(#f1);fill: url(#g36) } 
		.s36 { mix-blend-mode: luminosity;filter: url(#f1);fill: url(#g37) } 
		.s37 { mix-blend-mode: luminosity;filter: url(#f1);fill: url(#g38) } 
		.s38 { mix-blend-mode: luminosity;filter: url(#f1);fill: url(#g39) } 
		.s39 { mix-blend-mode: luminosity;filter: url(#f1);fill: url(#g40) } 
		.s40 { mix-blend-mode: luminosity;filter: url(#f1);fill: url(#g41) } 
		.s41 { mix-blend-mode: luminosity;filter: url(#f1);fill: url(#g42) } 
		.s42 { mix-blend-mode: luminosity;filter: url(#f1);fill: url(#g43) } 
		.s43 { mix-blend-mode: luminosity;filter: url(#f1);fill: url(#g44) } 
		.s44 { mix-blend-mode: luminosity;filter: url(#f1);fill: url(#g45) } 
		.s45 { mix-blend-mode: luminosity;filter: url(#f1);fill: url(#g46) } 
		.s46 { mix-blend-mode: luminosity;filter: url(#f1);fill: url(#g47) } 
		.s47 { mix-blend-mode: luminosity;filter: url(#f1);fill: url(#g48) } 
		.s48 { mix-blend-mode: luminosity;filter: url(#f1);fill: url(#g49) } 
		.s49 { mix-blend-mode: luminosity;filter: url(#f1);fill: url(#g50) } 
		.s50 { mix-blend-mode: luminosity;filter: url(#f1);fill: url(#g51) } 
		.s51 { mix-blend-mode: luminosity;filter: url(#f1);fill: url(#g52) } 
		.s52 { mix-blend-mode: luminosity;filter: url(#f1);fill: url(#g53) } 
		.s53 { mix-blend-mode: luminosity;filter: url(#f1);fill: url(#g54) } 
		.s54 { mix-blend-mode: luminosity;filter: url(#f1);fill: url(#g55) } 
		.s55 { mix-blend-mode: luminosity;filter: url(#f1);fill: url(#g56) } 
		.s56 { mix-blend-mode: luminosity;filter: url(#f1);fill: url(#g57) } 
		.s57 { mix-blend-mode: luminosity;filter: url(#f1);fill: url(#g58) } 
		.s58 { mix-blend-mode: luminosity;filter: url(#f1);fill: url(#g59) } 
		.s59 { mix-blend-mode: luminosity;filter: url(#f1);fill: url(#g60) } 
		.s60 { mix-blend-mode: luminosity;filter: url(#f1);fill: url(#g61) } 
		.s61 { mix-blend-mode: luminosity;filter: url(#f1);fill: url(#g62) } 
		.s62 { mix-blend-mode: luminosity;filter: url(#f1);fill: url(#g63) } 
		.s63 { mix-blend-mode: luminosity;filter: url(#f1);fill: url(#g64) } 
		.s64 { mix-blend-mode: luminosity;filter: url(#f1);fill: url(#g65) } 
		.s65 { mix-blend-mode: luminosity;filter: url(#f1);fill: url(#g66) } 
		.s66 { mix-blend-mode: luminosity;filter: url(#f1);fill: url(#g67) } 
		.s67 { mix-blend-mode: luminosity;filter: url(#f1);fill: url(#g68) } 
		.s68 { mix-blend-mode: luminosity;filter: url(#f1);fill: url(#g69) } 
		.s69 { mix-blend-mode: luminosity;filter: url(#f1);fill: url(#g70) } 
		.s70 { mix-blend-mode: luminosity;filter: url(#f1);fill: url(#g71) } 
		.s71 { mix-blend-mode: luminosity;filter: url(#f1);fill: url(#g72) } 
		.s72 { mix-blend-mode: luminosity;filter: url(#f1);fill: url(#g73) } 
		.s73 { mix-blend-mode: luminosity;filter: url(#f1);fill: url(#g74) } 
		.s74 { mix-blend-mode: luminosity;filter: url(#f1);fill: url(#g75) } 
		.s75 { mix-blend-mode: luminosity;filter: url(#f1);fill: url(#g76) } 
		.s76 { mix-blend-mode: luminosity;filter: url(#f1);fill: url(#g77) } 
		.s77 { mix-blend-mode: luminosity;filter: url(#f1);fill: url(#g78) } 
		.s78 { mix-blend-mode: luminosity;filter: url(#f1);fill: url(#g79) } 
		.s79 { mix-blend-mode: luminosity;filter: url(#f1);fill: url(#g80) } 
		.s80 { mix-blend-mode: luminosity;filter: url(#f1);fill: url(#g81) } 
		.s81 { mix-blend-mode: luminosity;filter: url(#f1);fill: url(#g82) } 
		.s82 { mix-blend-mode: luminosity;filter: url(#f1);fill: url(#g83) } 
		.s83 { mix-blend-mode: luminosity;filter: url(#f1);fill: url(#g84) } 
		.s84 { mix-blend-mode: luminosity;filter: url(#f1);fill: url(#g85) } 
		.s85 { mix-blend-mode: luminosity;filter: url(#f1);fill: url(#g86) } 
		.s86 { mix-blend-mode: luminosity;filter: url(#f1);fill: url(#g87) } 
		.s87 { mix-blend-mode: luminosity;filter: url(#f1);fill: url(#g88) } 
		.s88 { mix-blend-mode: luminosity;filter: url(#f1);fill: url(#g89) } 
		.s89 { mix-blend-mode: luminosity;filter: url(#f1);fill: url(#g90) } 
		.s90 { mix-blend-mode: luminosity;filter: url(#f1);fill: url(#g91) } 
		.s91 { mix-blend-mode: luminosity;filter: url(#f1);fill: url(#g92) } 
		.s92 { mix-blend-mode: luminosity;filter: url(#f1);fill: url(#g93) } 
		.s93 { mix-blend-mode: luminosity;filter: url(#f1);fill: url(#g94) } 
		.s94 { mix-blend-mode: luminosity;filter: url(#f1);fill: url(#g95) } 
		.s95 { mix-blend-mode: luminosity;filter: url(#f1);fill: url(#g96) } 
		.s96 { mix-blend-mode: luminosity;filter: url(#f1);fill: url(#g97) } 
		.s97 { mix-blend-mode: luminosity;filter: url(#f1);fill: url(#g98) } 
		.s98 { mix-blend-mode: luminosity;filter: url(#f1);fill: url(#g99) } 
		.s99 { mix-blend-mode: luminosity;filter: url(#f1);fill: url(#g100) } 
		.s100 { mix-blend-mode: luminosity;fill: url(#g101) } 
		.s101 { mix-blend-mode: luminosity;fill: url(#g102) } 
		.s102 { mix-blend-mode: luminosity;fill: url(#g103) } 
		.s103 { mix-blend-mode: luminosity;fill: url(#g104) } 
		.s104 { mix-blend-mode: luminosity;fill: url(#g105) } 
		.s105 { mix-blend-mode: luminosity;fill: url(#g106) } 
		.s106 { mix-blend-mode: luminosity;fill: url(#g107) } 
		.s107 { mix-blend-mode: luminosity;fill: url(#g108) } 
		.s108 { mix-blend-mode: luminosity;fill: url(#g109) } 
		.s109 { mix-blend-mode: luminosity;fill: url(#g110) } 
		.s110 { mix-blend-mode: luminosity;fill: url(#g111) } 
		.s111 { mix-blend-mode: luminosity;fill: url(#g112) } 
		.s112 { mix-blend-mode: luminosity;fill: url(#g113) } 
		.s113 { mix-blend-mode: luminosity;fill: url(#g114) } 
		.s114 { mix-blend-mode: luminosity;fill: url(#g115) } 
		.s115 { mix-blend-mode: luminosity;fill: url(#g116) } 
		.s116 { mix-blend-mode: luminosity;fill: url(#g117) } 
		.s117 { mix-blend-mode: luminosity;fill: url(#g118) } 
		.s118 { mix-blend-mode: luminosity;fill: url(#g119) } 
		.s119 { mix-blend-mode: luminosity;fill: url(#g120) } 
		.s120 { mix-blend-mode: luminosity;fill: url(#g121) } 
		.s121 { mix-blend-mode: luminosity;fill: url(#g122) } 
		.s122 { mix-blend-mode: luminosity;fill: url(#g123) } 
		.s123 { mix-blend-mode: luminosity;fill: url(#g124) } 
		.s124 { mix-blend-mode: luminosity;fill: url(#g125) } 
		.s125 { mix-blend-mode: luminosity;fill: url(#g126) } 
		.s126 { mix-blend-mode: luminosity;fill: url(#g127) } 
		.s127 { mix-blend-mode: luminosity;fill: url(#g128) } 
		.s128 { mix-blend-mode: luminosity;fill: url(#g129) } 
		.s129 { mix-blend-mode: luminosity;fill: url(#g130) } 
		.s130 { mix-blend-mode: luminosity;fill: url(#g131) } 
		.s131 { mix-blend-mode: luminosity;fill: url(#g132) } 
		.s132 { mix-blend-mode: luminosity;fill: url(#g133) } 
		.s133 { mix-blend-mode: luminosity;fill: url(#g134) } 
		.s134 { mix-blend-mode: luminosity;fill: url(#g135) } 
		.s135 { mix-blend-mode: luminosity;fill: url(#g136) } 
		.s136 { mix-blend-mode: luminosity;fill: url(#g137) } 
		.s137 { mix-blend-mode: luminosity;fill: url(#g138) } 
		.s138 { mix-blend-mode: luminosity;fill: url(#g139) } 
		.s139 { mix-blend-mode: luminosity;fill: url(#g140) } 
		.s140 { mix-blend-mode: luminosity;fill: url(#g141) } 
		.s141 { mix-blend-mode: luminosity;fill: url(#g142) } 
		.s142 { mix-blend-mode: luminosity;fill: url(#g143) } 
		.s143 { mix-blend-mode: luminosity;fill: url(#g144) } 
		.s144 { mix-blend-mode: luminosity;fill: url(#g145) } 
		.s145 { mix-blend-mode: luminosity;fill: url(#g146) } 
	</style>
	<g id="Clip-Path" clip-path="url(#cp1)">
		<g id="Layer">
			<g id="Layer">
				<path id="Layer" fill-rule="evenodd" class="s0" d="m144.8 150c0-0.3 0-0.5 0.2-0.6 1.2-1.2 1.5-2.7 1.9-4.3q0.6-2.6 1.2-5.3 0.6-2.6 1.7-5.1c0.8-1.9 1.5-3.8 2-5.8q1-3.5 2-7c0.2-0.7 0.3-1.5 0.5-2.2 1.3-4.4 1.2-8.9 1.2-13.4 0-1.4 0-2.9 0.1-4.3 0.1-0.8 0.4-1.6 0.5-2.3q0-0.2 0.1-0.3c0.2-0.4 0.4-0.8 0.9-0.7 0.4 0 0.6 0.3 0.7 0.7 0.1 0.5 0.2 1 0.2 1.5-0.1 2.9 0.3 5.7 0.7 8.6q0.3 2.2 0.5 4.4c0.2 2.5 0.1 5-0.7 7.5q-0.1 0.3-0.1 0.8 1-1.2 1.9-2.5c1.7-2.2 3.4-4.5 5.1-6.8 1.2-1.7 2.4-3.4 3.6-5.1q1.6-2.3 3.4-4.5c0.5-0.6 1.1-1 1.7-1.4 1.5-1 3.1-0.2 3.3 1.6q0.1 0.9 0 1.8c-0.3 2.3-0.2 4.6 0.1 6.9 0.2 1.7 0.3 3.3 0.4 5q0.4-0.2 0.6-0.4c1.3-0.9 2.7-1.7 4.4-1.9 1.7-0.2 3.4 0 5 0.5q1.8 0.6 3.2 1.8c1.1 0.9 1.7 2.1 1.6 3.5-0.1 0.9-0.2 1.7-0.3 2.5 0 1.6-0.1 3.2-0.1 4.8-0.1 1.9-0.2 3.8-0.7 5.6 0.1 0.1 0.2 0.2 0.3 0.2 2.4 0.8 4.1 2.5 5.2 4.6 0.4 0.8 0.7 1.5 1.1 2.3 0.4 0.9 0.7 1.8 1.2 2.7 1 1.7 1.1 3.4 0.7 5.3-0.4 2.2-1.6 4-3.1 5.6-1.8 2-4 3.5-6.4 4.6-0.6 2.9-0.6 5.6 0.9 8.2q0.8 1.4 1.5 2.9c0.3 0.6 0.4 1.3 0.3 2-0.2 0.9-0.8 1.4-1.7 1-0.9-0.4-1.8-0.8-2.6-1.3-3-2-6-4-9.3-5.5-1.9-0.9-3.9-1.7-5.9-2.4q-2.5-1-5.1-1.8c-1.9-0.7-3.9-1.2-5.8-1.8-2.8-0.9-5.6-1.6-8.2-2.9q-2.6-1.3-4.4-3.6c-0.9-1.1-1.7-2.1-2.8-2.9q-1-0.9-2.3-0.8c-0.1 0-0.2 0-0.4 0zm35.3-7.1c-1-0.5-1.8-0.8-2.6-1.1-1.8-0.7-3.6-1.2-5.5-1.4-1.2-0.2-2.3-0.2-3.4-0.3-0.9 0-1.5 0.3-2.2 0.9q-3.4 3.1-7.5 5.3c-2.7 1.4-5.5 2.5-8.7 2.6q-0.5 0-0.7 0.5c-0.4 0.8-0.3 1.6 0.1 2.3 1 2.1 2.5 3.7 4.5 4.9 2.3 1.2 4.7 2 7.2 2.7 2 0.6 3.9 1.2 5.8 1.8q3 0.9 5.9 2c1.6 0.6 3.2 1.2 4.8 1.9q2.4 1.1 4.8 2.3c1.3 0.8 2.6 1.6 3.9 2.4 1.4 0.8 2.7 1.7 4 2.5 0.5 0.2 0.9 0.4 1.4 0.5 0.5 0.1 0.7 0 1-0.5 0.2-0.4 0-0.8-0.3-1.1q-1.2-1.4-2.5-2.6c-1.3-1.4-2.4-2.9-3.1-4.6-0.8-2.2-1.3-4.4-1.4-6.8 0-1.4 0-2.9-0.1-4.3-0.1-1.7-0.2-3.4-0.7-5.1-0.5-1.4-1.2-2.6-2.4-3.5-0.8-0.5-1.7-1-2.3-1.3zm-6.6-11.3c0.2-0.6 0.8-1.7 1.1-2.8 0.7-2.3 0.8-4.6 0.6-7.1q-0.5-4.2-0.7-8.4-0.2-3.9 1.6-7.4c0.4-0.6 0.5-1.3 0.8-2 0.2-0.8-0.1-1.4-0.7-1.8-0.6-0.5-1.2-0.4-1.8 0-0.6 0.4-1.2 0.8-1.7 1.3q-1.7 2.1-3.2 4.2c-1.5 2.2-3 4.4-4.6 6.6-3.4 4.6-6.9 9.1-10.4 13.7-1.1 1.5-2.1 3.2-3.2 4.7-0.6 1-1 2.1-1.5 3.1-1.2 2.6-1.7 5.3-1.8 8-0.1 0.9 0 1.8 0.2 2.7 0.3 1.3 1.5 2.3 3.2 2.1 1.8-0.3 3.4-0.7 5.1-1.4 4.1-1.8 7.7-4.4 10.9-7.4 2.4-2.2 4.4-4.7 6.1-8.1zm-5.7 8.2c0.9 0 1.7 0 2.5 0.1 3.6 0.2 6.9 1.3 10.2 2.7 0.7 0.3 1.3 0.3 2 0 2.3-0.9 4.2-2.3 5.8-4q1.3-1.3 2.1-2.9c0.8-1.6 1.2-3.3 1.4-5 0.2-3.3 0.1-6.7 0.5-10 0.2-1.3-0.3-2.3-1.3-3.2-1.1-0.9-2.3-1.5-3.6-1.9-1.6-0.4-3.2-0.6-4.8-0.3-1.8 0.4-3.4 1.3-4.7 2.6-0.6 8.5-4 15.8-10.1 21.9zm23.7-5.6c-1.8 4.4-5.1 7.2-9.5 9.1 0.3 0.2 0.5 0.3 0.8 0.5 0.9 0.6 1.8 1.1 2.7 1.9 3.7 3.1 5.8 7 5.1 12.1 0 0.2 0 0.4 0 0.7 0.3-0.1 0.4-0.2 0.6-0.3 1.7-0.9 3.4-2.1 4.8-3.5 1-0.9 1.9-1.9 2.5-3q1.1-1.9 1.4-4c0.1-1.1 0.1-2.1-0.4-3.1q-1.2-2.8-2.4-5.5c-0.8-1.7-2-3.2-3.6-4.2-0.6-0.3-1.2-0.7-2-0.7zm-7.9 10.6q0.1 0.1 0.1 0.2c1.2 1.5 1.7 3.2 1.9 5 0.2 1.6 0.2 3.3 0.3 4.9 0.1 1.3 0.1 2.5 0.2 3.8 0.5 3.9 1.9 7.3 4.8 10 0.5 0.5 1 1.1 1.5 1.6q0.2 0.2 0.3 0.3c-0.1-0.5-0.3-1-0.5-1.4q-0.6-1.1-1.2-2.3-1.4-2.6-1.1-5.7 0.2-1.9 0.4-3.9c0.2-1.2 0.2-2.5-0.1-3.7-0.9-3.9-3.3-6.6-6.6-8.8zm-32.2-13.2c1.8-2.4 3.4-4.7 5.2-7 1.2-1.6 1.8-3.4 1.7-5.5-0.2-2.4-0.8-4.7-1.4-7-0.6-2.8-0.7-5.5 0.2-8.3 0.4-1.1 0.5-2.4 0.5-3.6 0-0.5-0.1-1-0.6-1.2-0.5 0.2-0.6 0.7-0.7 1.1-0.2 0.8-0.3 1.7-0.4 2.5 0 1.8 0 3.5 0 5.2-0.1 3.5-0.2 6.9-0.9 10.3-0.8 3.6-1.8 7.2-2.8 10.7-0.3 0.9-0.5 1.8-0.8 2.8zm25.6-26.6c-0.1 0.2-0.2 0.2-0.2 0.3-1.2 2.4-2 4.9-1.9 7.6q0 4.3 0.6 8.6 0.4 2.8-0.2 5.6-0.1 0.5-0.1 1.1 0 0 0.1 0c0.5-1.4 1-2.8 1.3-4.3 1-3.8 1.1-7.6 0.6-11.5-0.3-2.2-0.5-4.5-0.2-6.7 0-0.2 0-0.4 0-0.7zm-18.3 13.7c0 0 0.1-0.1 0.1-0.1q0-0.6 0.1-1.2c0.3-2.7-0.3-5.2-0.5-7.9-0.2-1.8-0.5-3.6-0.7-5.4 0-0.2-0.1-0.3-0.2-0.5-0.1 0.3-0.1 0.6-0.2 0.8-0.6 2.1-0.8 4.2-0.3 6.4 0.2 0.7 0.3 1.5 0.5 2.2q0.6 2.8 1.2 5.7z"/>
				<path id="Layer" class="s1" d="m149.1 149.5c0.1 0 0.3 0.1 0.5 0.2 3.1 2.1 6.6 2.9 10.3 3.2 2.3 0.2 4.6 0.3 6.8 0.4 1.8 0.1 3.5 0.2 5.2 0.4-1.3 0-2.7 0.1-4 0q-3.5-0.2-7-0.4c-2.2-0.1-4.4-0.4-6.5-1-1.9-0.6-3.7-1.4-5.3-2.5q-0.1-0.1-0.1-0.2 0-0.1 0.1-0.1z"/>
				<path id="Layer" class="s2" d="m172.8 124.8c-0.6 0.7-1.1 1.4-1.7 2.2-1.2 1.6-2.4 3.2-3.8 4.7-1.3 1.5-2.8 2.9-4.3 4.1-2.7 2.2-5.5 4.3-8.2 6.3q-0.2 0.2-0.4 0.2 0.2-0.2 0.5-0.5c2.8-2.2 5.7-4.3 8.4-6.6 2.7-2.2 4.9-4.8 6.9-7.5 0.8-1 1.7-2 2.5-3q0 0 0.1 0.1z"/>
				<path id="Layer" class="s3" d="m156.2 155.1c-0.9-0.4-1.9-0.6-2.9-1-0.9-0.4-1.8-0.9-2.7-1.3 0.8 0.9 1.9 1.5 3 2.1 3.1 1.5 6.3 2.4 9.7 3.1 0.1 0 0.2 0 0.3 0.2-1.3-0.3-2.7-0.5-4-0.9-2.3-0.5-4.6-1.4-6.7-2.4q-0.9-0.4-1.6-1c-0.6-0.4-1.1-0.8-1.7-1.3 0.2-0.1 0.3-0.1 0.4-0.2q-0.2-0.2-0.5-0.4 0.1-0.1 0.1-0.1c0.7 0.4 1.4 0.8 2.1 1.1 0.7 0.4 1.5 0.7 2.3 1q1.1 0.5 2.3 1 0 0-0.1 0.1z"/>
				<path id="Layer" class="s4" d="m160.1 125.1c-1.4 1.5-2.8 3-4.2 4.5q-2.4 2.7-4.2 5.7c-1.6 2.6-2.8 5.2-3.2 8.2q0 0.1-0.2 0.1c0.3-1.2 0.4-2.4 0.8-3.6 1.3-3.8 3.5-7 6.2-10 1.4-1.7 3-3.1 4.5-4.7q0.1-0.1 0.2-0.2 0.1 0 0.1 0z"/>
				<path id="Layer" class="s5" d="m177.4 140.1q0.3-0.1 0.6-0.2c2.6-0.9 5.1-2.1 7.6-3.4q3.1-1.7 5.4-4.4c0.2-0.2 0.4-0.5 0.7-0.7-0.1 0.6-0.5 1.1-0.9 1.5-1.7 1.8-3.7 3.2-5.9 4.3-2.2 1-4.3 2.2-6.7 2.8q-0.4 0.2-0.8 0.3 0-0.1 0-0.2z"/>
				<path id="Layer" class="s6" d="m149.9 148.4q0.2-0.1 0.4-0.1c2.8-0.6 5.2-1.9 7.5-3.6 1.9-1.5 3.8-2.9 5.8-4.4 0.2-0.2 0.3-0.3 0.6-0.3-0.8 0.6-1.5 1.3-2.3 1.9-2.1 1.7-4.3 3.4-6.6 4.8-1.4 0.9-3 1.4-4.6 1.8-0.3 0-0.5 0.1-0.8 0.1q0-0.1 0-0.2z"/>
				<path id="Layer" class="s7" d="m191.5 169.9q-0.4-0.2-0.8-0.5-1.6-1.4-3.5-2.4c-1.2-0.6-2.4-1.3-3.6-1.9-1.8-0.8-3.7-1.6-5.6-2.4q-0.6-0.3-1.2-0.6c3.6 1.1 6.9 2.7 10.2 4.4 1.4 0.7 2.6 1.7 3.8 2.5 0.3 0.2 0.5 0.5 0.8 0.8q-0.1 0.1-0.1 0.1z"/>
				<path id="Layer" class="s8" d="m194.6 147.5c-1.4-0.1-2.7-0.2-4-0.4-1.3-0.1-2.6-0.4-3.9-0.5 1.6 0.8 3.3 0.8 5.1 1.3-1.3 0-2.4-0.2-3.5-0.4-0.4-0.1-0.8-0.3-1.2-0.4-0.4-0.1-0.7-0.3-0.7-0.7q-0.8-0.4-1.6-0.7 0.1-0.1 0.1-0.2c3.1 1.2 6.4 1.5 9.7 1.8q0 0.1 0 0.2z"/>
				<path id="Layer" class="s9" d="m155.1 132.7c-3.4 4.3-5.9 9-6.4 14.6q0-0.2 0-0.5c0-1.6 0.3-3.1 0.9-4.6 0.6-1.6 1.1-3.1 1.9-4.6 0.9-1.8 2.1-3.4 3.5-4.9q0.1-0.1 0.1-0.1 0 0 0 0.1z"/>
				<path id="Layer" class="s10" d="m184.9 123.7c-1.2 0.8-2.4 1.7-3.7 2.5-1.9 1.1-3.4 2.6-4.9 4.2-1.2 1.3-2.4 2.7-3.7 4q0.2-0.3 0.5-0.7c2.1-2.4 4.1-4.9 6.7-7q2.4-1.8 5.1-3z"/>
				<path id="Layer" class="s11" d="m176.3 142.8c-4.1-0.5-8.1-1-12.2 0q-0.1-0.1-0.1-0.2c0.2 0 0.3-0.2 0.4-0.2 1.2-0.1 2.3-0.4 3.4-0.4 2.8-0.2 5.5 0.1 8.2 0.7q0.2 0.1 0.3 0.1z"/>
				<path id="Layer" class="s12" d="m186.2 161.2c-4-1.7-8.2-2.4-12.4-3.3q0.7 0.1 1.4 0.2c0.5 0 1 0.1 1.4 0.2 2.3 0.5 4.6 1 6.9 1.5 0.8 0.2 1.6 0.7 2.4 1 0.1 0 0.2 0.2 0.4 0.3q-0.1 0-0.1 0.1z"/>
				<path id="Layer" class="s13" d="m167 114.6c-3.1 3.9-6.9 7-10.3 10.5q0-0.1-0.1-0.2 1.7-1.7 3.4-3.4c1.2-1.1 2.4-2.2 3.6-3.4 1.2-1.1 2.3-2.3 3.4-3.5z"/>
				<path id="Layer" class="s14" d="m168.8 138.9c3.3-2.5 6.5-5.2 9.6-8q0.1-0.1 0.3-0.1c-3.1 3-6.3 5.8-9.9 8.1z"/>
				<path id="Layer" class="s15" d="m152.4 128.1q1.1-3.3 2.1-6.5c0.7-2.1 1.3-4.3 1.7-6.5-0.4 4.6-2.2 8.8-3.8 13z"/>
				<path id="Layer" class="s16" d="m189.7 116.3c-0.5 0.3-1.1 0.2-1.6 0.4-0.5 0.1-1 0.3-1.5 0.4q-0.8 0.3-1.5 0.5-0.8 0.3-1.5 0.6-0.7 0.3-1.5 0.7-0.6 0.3-1.4 0.7c1-1.4 7.4-3.7 9-3.3z"/>
				<path id="Layer" class="s17" d="m181.5 137c-2.1 1.5-4.5 2.4-7 3.1-0.8 0.2-1.6 0.4-2.6 0.2 0.1-0.1 0.2-0.2 0.2-0.2 2.6-0.2 4.9-1.2 7.3-2.1 0.7-0.3 1.4-0.7 2.1-1z"/>
				<path id="Layer" class="s18" d="m168.5 123.5c2.1-2.8 4.5-5.4 6.3-8.4 0 0.4-0.1 0.9-0.5 1.4-1.7 2.4-3.6 4.6-5.5 6.8-0.1 0-0.2 0.1-0.3 0.2z"/>
				<path id="Layer" class="s19" d="m170.2 109.8c0.7-1.8 5.2-7 6.6-7.5-0.6 0.8-1.3 1.2-1.8 1.8-0.6 0.7-1.1 1.2-1.7 1.9q-0.8 0.9-1.6 1.9-0.7 0.9-1.5 1.9z"/>
				<path id="Layer" class="s20" d="m158.3 146.5c3.3-1.1 6.6-1.3 10-1.2-3.3 0.3-6.7 0.4-10 1.2z"/>
				<path id="Layer" class="s21" d="m156 137.3c2.4-3.2 5.5-6.3 8.6-9.3-2.9 3.2-5.9 6.4-8.6 9.3z"/>
				<path id="Layer" class="s22" d="m156 120.7c-0.9 3.4-2.8 6.5-4.3 9.7q1.1-2.4 2.1-4.9 1.1-2.4 2.2-4.8z"/>
				<path id="Layer" class="s23" d="m152.5 148.4c2.9-1 5.4-2.6 7.9-4.2q-0.2 0.2-0.4 0.4-2.6 1.9-5.4 3.3-0.7 0.3-1.4 0.5c-0.2 0.1-0.4 0.1-0.6 0.1q-0.1-0.1-0.1-0.1z"/>
				<path id="Layer" class="s24" d="m185.3 149.4q-4-0.7-8.1-1c2.8-0.1 5.5 0.2 8.1 1z"/>
				<path id="Layer" class="s25" d="m186.7 127.7q2.8-2.3 5.5-4.5c-0.2 0.8-3.9 3.8-5.5 4.5z"/>
				<path id="Layer" class="s26" d="m188.9 167c-2.1-1.1-4.2-2.2-6.1-3.2 1.6 0.4 5.3 2.3 6.1 3.2z"/>
				<path id="Layer" class="s27" d="m180.4 125.1c2.4-1.3 4.4-2.9 6.9-3.9 0.2 0 0.3-0.1 0.5-0.2q0 0.1 0 0.1c-1.2 0.7-2.4 1.3-3.7 2-1.2 0.7-2.4 1.4-3.6 2.2q0-0.1-0.1-0.2z"/>
				<path id="Layer" class="s28" d="m164.8 150c0.3 0 0.6-0.1 0.8-0.1 3.1 0.1 6.2 0.7 9.3 1.1 0 0 0.1 0 0.2 0.1-0.8-0.1-1.4-0.2-2.1-0.3-2.6-0.3-5.2-0.7-7.8-0.8-0.1 0-0.3 0-0.4 0z"/>
				<path id="Layer" class="s29" d="m183.8 118.8c2.1-0.7 4.1-1.7 6.3-2.1 0.1 0.2 0.1 0.2 0.1 0.2q0 0-0.1 0.1 0 0-0.1 0.1-3.1 0.8-6.2 1.7z"/>
				<path id="Layer" class="s30" d="m158.4 118.2c0 0.9-1.3 4.3-2.4 5.8 0.8-1.9 1.6-3.8 2.4-5.8z"/>
				<path id="Layer" class="s31" d="m196.2 137.7q-0.9 0.1-1.8 0.2-1 0.2-1.9 0.5c-0.6 0.1-1.3 0.3-2 0.5 1.3-0.9 4.8-1.7 5.7-1.2z"/>
				<path id="Layer" class="s32" d="m167.1 132.8c-1.7 2-3.8 3.7-5.9 5.4q3-2.7 5.9-5.4z"/>
				<path id="Layer" class="s33" d="m197.2 153.8c-0.7 0.5-3.4 0.3-4.8-0.3q2.5 0.1 4.8 0.3z"/>
				<path id="Layer" class="s34" d="m198.8 142.9q-2.5-0.1-5-0.2c1.7-0.3 3.3-0.2 5 0q0 0.1 0 0.2z"/>
				<path id="Layer" class="s35" d="m171.9 114.4q1.4-2 2.8-4c-0.6 1.5-1.7 2.8-2.8 4z"/>
				<path id="Layer" class="s36" d="m165.3 144.4q-2.4 0.4-4.7 0.8-0.1-0.1-0.1-0.2c1.6-0.4 3.2-0.6 4.8-0.6z"/>
				<path id="Layer" class="s37" d="m174 106.6c0.9-1.3 1.8-2.5 3-3.4q0 0.1 0.1 0.1-1.6 1.7-3.1 3.3z"/>
				<path id="Layer" class="s38" d="m190.6 153.6c1.3 0.3 2.5 0.6 3.8 0.9-1 0.1-1.8-0.1-2.6-0.2-0.3-0.1-0.7-0.3-1-0.4-0.1 0-0.1-0.1-0.2-0.3z"/>
				<path id="Layer" class="s39" d="m173.4 156.9c1.9 0.1 3.7 0.3 5.5 0.7q-2.7-0.3-5.5-0.7z"/>
				<path id="Layer" class="s40" d="m181.4 149.6q1.9 0.2 3.8 0.5 0 0.1 0 0.2c-0.7 0.1-1.3-0.2-1.9-0.3q-1-0.1-2-0.3 0.1-0.1 0.1-0.1z"/>
				<path id="Layer" class="s41" d="m174.7 117.5c-0.5 1-1.1 1.8-1.9 2.5q0.9-1.3 1.7-2.6 0.1 0 0.2 0.1z"/>
				<path id="Layer" class="s42" d="m196.7 138.3q-1.4 0.1-2.8 0.2c0.9-0.4 1.9-0.5 2.8-0.5q0 0.2 0 0.3z"/>
				<path id="Layer" class="s43" d="m192.1 124.5c-0.6 0.8-1.4 1.3-2.1 1.9q-0.1-0.1-0.1-0.1 1-1 2.1-1.9 0 0 0.1 0.1z"/>
				<path id="Layer" class="s44" d="m192.1 155.6q-0.7-0.2-1.4-0.4 0-0.1 0.1-0.2 0.7 0.2 1.4 0.4-0.1 0.1-0.1 0.2z"/>
				<path id="Layer" class="s45" d="m164.8 150q-1 0-2.1 0.1 0-0.1 0-0.2 1.1 0 2.1 0.1z"/>
				<path id="Layer" class="s46" d="m176 151.1q0.7 0.1 1.4 0.2 0 0.1 0 0.1-0.7-0.1-1.4-0.2 0 0 0-0.1z"/>
				<path id="Layer" fill-rule="evenodd" class="s47" d="m111.5 175.6q0.3 0 0.6-0.1c2.1-0.4 4.3-0.7 6.4-1.2 2.4-0.4 4.9-0.8 7.3-1.5 2-0.6 4-1.2 6-1.6q2.9-0.7 5.9-0.8c2.5-0.1 4.8 0.4 7.1 1.4 2.9 1.2 5.3 3 7.3 5.4 2.6 2.8 5.3 5.7 7.8 8.6q1.9 2.2 3.5 4.6c1.4 2.1 2.6 4.3 4 6.5 1 1.7 1.4 3.6 1.9 5.6 0 0 0 0.1-0.1 0.3-0.2-0.2-0.4-0.3-0.5-0.5-2.1-2.7-4.1-5.5-6.2-8.2-1.4-1.9-3-3.6-4.3-5.5q-1.5-2.1-3.4-3.9-2.2-2.1-4.9-3.5c-1.7-0.9-3.4-1.8-5.2-2.5-3.3-1.4-6.7-2.5-10.2-3-4.6-0.6-9.2-1.1-13.9-1-2.7 0.1-5.5 0.5-8.2 1q-0.4 0.1-0.8 0.1-0.1-0.1-0.1-0.2zm10.7-1.6q0 0.1 0 0.1 0.4 0 0.7 0c2.3-0.1 4.5-0.2 6.7-0.3 0.8 0 1.6 0.1 2.5 0.1 4.7 0.2 9.3 1.1 13.7 2.8 2.2 0.9 4.3 2.2 6.3 3.7q0.4 0.3 0.9 0.7 0-0.4-0.2-0.6c-0.7-1.1-1.4-2.3-2.2-3.4-1.2-1.9-2.8-3.5-4.9-4.5-2.4-1.2-4.9-2-7.6-1.9-3.8 0.1-7.4 0.9-11 1.9q-2.2 0.7-4.4 1.2-0.3 0.1-0.5 0.2zm44.8 25.3q0 0 0.1 0 0-0.1 0-0.1-0.2-0.4-0.4-0.8c-1.6-2.9-3.5-5.5-5.3-8.1-0.9-1.3-2-2.4-3.2-3.4q-1.8-1.6-3.3-3.4c-0.5-0.7-1.1-1.4-1.8-1.9q-4-3.3-8.8-5-4.3-1.5-8.7-2.1c-2.6-0.3-5.3-0.4-7.9-0.3-0.7 0.1-1.4 0-2 0-0.2 0-0.4 0.1-0.5 0.1 0.2 0.1 0.5 0.2 0.7 0.2 2 0.1 3.9 0.2 5.8 0.4 4.1 0.5 8 1.4 11.8 2.9 2.6 1 5.1 2.1 7.5 3.6 1.6 0.9 3 2 4.3 3.3q2 2 3.7 4.3c1.8 2.5 3.8 4.9 5.7 7.4q1.1 1.5 2.3 2.9zm-16.4-23.3q-0.1 0.1-0.2 0.1c1.4 2.1 2.7 4.2 4.1 6.2 1.1 1.6 2.4 3 3.9 4.3 1 0.9 2 1.8 3 2.8 0.3 0.2 0.5 0.6 0.8 0.9q0.7 0.8 1.5 1.6c-0.3-0.7-0.5-1.3-0.9-1.8-0.9-1.3-1.8-2.6-2.9-3.8-2.8-3.2-5.6-6.3-8.5-9.5-0.3-0.3-0.5-0.5-0.8-0.8zm12.3 15.9c2.1 2.9 3.9 5.9 5.5 9.1 0.1-1.8-3.4-7.7-5.5-9.1z"/>
				<path id="Layer" fill-rule="evenodd" class="s48" d="m129.1 109.9q0.6 2.8 1.3 5.6c1.1 4.1 1.7 8.3 2.3 12.4 0.6 4.3 0.6 8.6 0.2 12.9-0.3 4-0.8 8-1.9 11.9-0.6 1.9-1.1 3.9-2 5.7-0.9 2-1.8 4.1-2.8 6.1-0.9 1.7-2 3.4-3.5 4.8-0.3 0.2-0.7 0.4-1.1 0.6q-0.1 0-0.1-0.1 0.2-0.3 0.5-0.5c1.2-1.2 2-2.6 2.6-4 2.2-5.1 2.8-10.3 2.5-15.7-0.1-2.5-0.4-4.9-0.6-7.4-0.1-0.8-0.4-1.7-0.5-2.6-0.3-3.9-0.7-7.8-0.3-11.7 0.3-3.1 1-6.2 1.7-9.3 0.6-2.5 1.2-5 1.5-7.6 0-0.4 0.1-0.8 0.2-1.1zm-0.1 3.1q0 0-0.1 0 0 0.1 0 0.2-0.8 3.5-1.5 7c-0.8 3.4-1.4 6.8-1.5 10.2-0.1 3.8 0.3 7.4 0.8 11.1 0.4 2.8 0.7 5.5 0.8 8.3 0.2 3.4 0 6.7-0.8 10-0.2 1.1-0.5 2.1-0.8 3.1q0.2-0.2 0.3-0.4c0.3-0.7 0.7-1.4 0.9-2.1 0.6-1.9 1.3-3.8 1.8-5.7 1.3-4.9 1.7-9.9 1.8-14.9 0-2.2-0.2-4.4-0.4-6.7-0.7-6.3-1.4-12.7-1.2-19.1q0-0.5-0.1-1zm0.5 0.2q-0.1 0-0.2 0 0 0.2 0 0.4c0 4.2 0.2 8.4 0.6 12.6 0.3 2.6 0.6 5.2 0.8 7.9 0.2 2.4 0.3 4.9 0.2 7.4-0.1 2.8-0.2 5.6-0.7 8.4q-0.7 4.8-2.3 9.3c-0.5 1.3-1 2.6-1.5 3.9 0.2-0.1 0.2-0.2 0.3-0.3 0.7-1.7 1.5-3.4 2.2-5.1q1-2.6 1.8-5.3c1.1-3.7 1.5-7.6 1.9-11.4 0.4-4.2 0.4-8.4-0.2-12.5-0.5-3.5-1-7-1.8-10.5-0.3-1.6-0.7-3.2-1.1-4.8z"/>
				<path id="Layer" class="s49" d="m29.4 299.5c0.5-1 1-2 1.5-3q2.1-3.9 4.3-7.8c2.8-4.9 5.6-9.8 7.9-15 1.2-2.6 2.3-5.3 3.4-8q2.1-5.5 3.7-11.3c0.6-2 1.1-4 1.6-6.1 1.4-4.7 2.7-9.5 4.1-14.3 1.3-4.1 3-8.1 4.9-11.9 1.3-2.7 2.7-5.3 4.3-7.8 2.7-4.4 5.8-8.4 9.1-12.3 2.9-3.5 6.3-6.6 9.7-9.7 3.9-3.3 7.8-6.5 12.2-9 3.2-1.8 6.5-3.5 9.7-5.1 1.6-0.9 3.2-1.8 4.8-2.5 3.1-1.4 5.9-3 8.8-4.7q3.3-2 6.4-4.2c4.7-3.2 9-7 13-11.1 2.6-2.7 5.3-5.2 7.9-7.8q0.2-0.1 0.5-0.1c-0.1 0.1-0.1 0.2-0.2 0.3q-1.9 1.9-3.9 3.8c-2.4 2.4-4.9 4.9-7.4 7.3-2.8 2.7-5.8 5.2-9 7.5q-6 4.2-12.4 7.6c-0.8 0.4-1.6 0.9-2.4 1.3-2.5 1.2-5 2.5-7.6 3.7-8.5 3.9-15.9 9.3-22.8 15.6-2.4 2.2-4.8 4.5-7 7q-2.4 2.9-4.6 5.9-2.3 3.1-4.4 6.5-3.7 5.9-6.5 12.3c-1.9 4.4-3.3 9-4.6 13.6q-0.7 2.6-1.4 5.1c-1.1 4.1-2.2 8.2-3.4 12.2-0.7 2.5-1.7 5-2.6 7.5-1.8 5.3-4.2 10.3-6.7 15.2-1.1 2.1-2.3 4-3.4 6.1-1.4 2.5-2.9 5-4.3 7.6-0.9 1.6-1.7 3.3-2.6 5q-0.2 0.4-0.3 0.8-0.2-0.1-0.3-0.2z"/>
			</g>
			<g id="Layer">
				<path id="Layer" fill-rule="evenodd" class="s50" d="m48.9 170.2q-0.7-0.9-1.8-1.1c-1.1-0.3-2.2-0.4-3.4-0.4q-2.4 0-4.7-1c-2.2-1.1-4.2-2.6-6.2-4-1.4-1-2.8-2-4.3-3q-1.9-1.3-3.8-2.5c-1.6-0.9-3.2-1.9-4.8-2.7-2.7-1.4-5.6-2.4-8.5-3.4-0.8-0.3-1.5-0.6-2.2-1-0.7-0.4-0.8-1.1-0.3-1.7 0.4-0.4 1-0.7 1.6-0.8q1.3-0.3 2.6-0.5c2.6-0.4 4.4-1.9 6-3.7-0.5-2.2-0.6-4.5-0.3-6.7 0.3-1.9 0.9-3.6 2.1-5.1 1.1-1.2 2.3-2 4-2.3 0.8-0.1 1.6-0.3 2.5-0.5 0.6-0.2 1.3-0.4 2-0.5 2.1-0.4 4-0.1 5.8 1.1 0.1 0 0.2 0 0.3 0.1 0.9-1.4 2.2-2.4 3.4-3.4q1.6-1.3 3.2-2.7c0.5-0.4 0.9-0.9 1.5-1.4 0.9-0.9 2-1.1 3.2-0.8q1.5 0.3 2.8 1.2c1.2 0.9 2.3 1.9 3 3.1 0.7 1.2 0.9 2.6 1 3.9q0 0.3 0 0.7c1.3-0.9 2.4-1.6 3.6-2.4 1.7-1 3.3-2.1 4.7-3.5q0.6-0.5 1.3-1c1.2-0.8 2.6-0.1 2.7 1.4 0.1 0.6 0.1 1.3 0 1.9q-0.6 2.3-1.2 4.6c-0.5 1.7-1.1 3.4-1.6 5.1-0.7 2.3-1.3 4.7-1.9 7q-0.3 1.3-0.7 2.6 0.4-0.2 0.5-0.5c1.3-1.8 2.9-3.2 4.7-4.4q1.5-1 3.2-2c2.1-1.2 4.3-2.4 6.1-4 0.3-0.3 0.7-0.5 1.1-0.7 0.3-0.1 0.6-0.1 0.9 0.2 0.3 0.3 0.1 0.6 0 0.9q-0.1 0.1-0.2 0.2c-0.4 0.5-0.8 1.1-1.3 1.5-0.9 0.9-1.8 1.6-2.8 2.4-3 2.4-6 4.7-8.3 7.8-0.4 0.5-0.9 1-1.2 1.5q-1.9 2.5-3.7 5c-1 1.4-2 2.9-2.8 4.4q-1.1 2.1-2.5 3.8-1.5 1.8-3 3.6c-0.8 1.1-1.7 2.1-1.8 3.6 0 0.1-0.2 0.2-0.3 0.4-0.1-0.1-0.2-0.2-0.2-0.3zm-15.6-28c-1.3-0.3-2.5-0.2-3.6 0.2-1.4 0.6-2.6 1.4-3.8 2.2-1 0.7-2 1.4-3 2.2-1.6 1.1-3.3 2-5.3 2.6-1.5 0.4-3.1 0.5-4.7 0.3q-1.5-0.2-3-0.3c-0.4 0-0.7 0-0.9 0.4-0.2 0.4-0.2 0.7 0.2 0.9 0.3 0.3 0.7 0.5 1.1 0.7 1.2 0.5 2.5 0.9 3.7 1.4 1.2 0.4 2.5 0.8 3.7 1.4q2.1 0.9 4.1 2c1.3 0.7 2.5 1.4 3.7 2.2q2.3 1.4 4.4 2.9c1.4 0.9 2.8 2 4.3 3 1.7 1.2 3.6 2.5 5.6 3.4 1.8 0.7 3.7 0.9 5.6 0.5 0.7-0.2 1.2-0.5 1.6-1.1q0.2-0.5 0-0.9c-1.6-2.1-2.4-4.6-2.8-7.2q-0.7-3.8-0.5-7.8c0.1-0.7 0-1.3-0.5-1.9-0.6-0.7-1.2-1.4-1.9-2.1q-1.8-1.7-3.9-3c-0.6-0.4-1.3-0.7-2-1.2-0.6-0.2-1.4-0.6-2.1-0.8zm10.8 7.7c-0.3 3.8-0.2 7.5 0.8 11.2q0.6 2.2 1.7 4.1c0.8 1.3 2.1 1.5 3.1 1.1 0.7-0.3 1.3-0.8 1.9-1.2 1.8-1.6 3.3-3.3 4.4-5.4 0.4-0.9 1-1.8 1.3-2.7 0.5-1.6 1-3.1 1.4-4.6 1.3-4.7 2.5-9.5 3.8-14.2 0.6-2.2 1.4-4.3 2-6.5q0.6-2.2 1.1-4.4c0.1-0.6 0.1-1.2 0-1.8 0-0.6-0.3-1.1-0.9-1.2-0.6-0.2-1.2-0.1-1.6 0.5-0.3 0.5-0.7 1-1 1.5q-1.3 3.1-4 5-3 2.1-6 4c-1.8 1.1-3.3 2.4-4.5 4.1-0.5 0.8-1 1.7-1.3 2.2-1.3 2.9-1.9 5.5-2.2 8.3zm9.2-18.5c0-1.5-0.2-3.1-0.8-4.5-0.7-1.2-1.6-2.2-2.8-3q-1.4-1.1-3.1-1.4c-1.1-0.3-2.1-0.1-2.8 0.7-2 2-4.3 3.7-6.4 5.6-1.1 1-2 2.2-2.7 3.6q-0.6 1.4-0.8 2.8c-0.3 2.1-0.2 4.1 0.3 6.1 0.2 0.6 0.5 1 1.1 1.3 2.7 1.5 5.1 3.2 7.2 5.4 0.4 0.5 0.8 1.1 1.3 1.7 0.9-7.3 4-13.4 9.5-18.3zm-19.7-1.5c-1.5-0.6-3.1-0.6-4.6-0.2q-2.5 0.6-5 1.2c-0.9 0.2-1.6 0.7-2.2 1.4q-1.3 1.3-2 3c-0.4 1-0.6 2.1-0.7 3.2-0.2 1.7-0.1 3.4 0.2 5.1 0 0.2 0 0.3 0.1 0.5 0.2-0.1 0.3-0.2 0.5-0.3 3-3.1 6.7-3.7 10.8-2.9 0.9 0.2 1.7 0.5 2.6 0.8 0.3 0.1 0.5 0.2 0.8 0.3-1.1-3.9-0.9-7.6 1.1-11.2-0.4-0.5-1-0.7-1.6-0.9zm-10.7 12c-1 0.4-1.8 1.1-2.6 1.8q-1.2 1.2-2.4 2.4-1.9 1.7-4.4 2.2-1.1 0.2-2.1 0.4c-0.4 0.1-0.8 0.2-1.2 0.4q0.2 0 0.3 0c0.7 0.1 1.3 0.1 1.9 0.2 3.3 0.6 6.3-0.3 9.2-2 0.9-0.6 1.7-1.3 2.7-1.9 1.1-0.8 2.2-1.6 3.4-2.3 1.3-0.8 2.7-1.4 4.3-1.4q0.1 0 0.2 0c-3.2-1.1-6.3-1.3-9.3 0.2zm36.5 12.5c1.8-2.5 3.7-5.1 5.7-7.5 1.9-2.3 4.1-4.1 6.4-5.9 1.1-1 2.3-1.8 3.4-2.8 0.6-0.5 1.1-1.1 1.6-1.6 0.2-0.3 0.4-0.6 0.3-1-0.4-0.3-0.8-0.1-1.1 0.2-0.8 0.6-1.6 1.4-2.2 2.3-1.4 2-3.2 3.4-5.5 4.4-1.8 0.8-3.7 1.6-5.3 2.8-1.5 1-2.4 2.3-2.8 4-0.6 2.3-1.3 4.7-2 7.1 0.5-0.7 1-1.3 1.5-2zm2.5-28.8c-1.4 1.4-3 2.5-4.7 3.4-2.8 1.7-5.3 3.8-7.3 6.4-0.8 1-1.5 2.1-2.2 3.2q0 0 0.1 0.1 0.3-0.4 0.6-0.7 1.6-1.8 3.7-3.1 3.2-1.8 6.1-4.1c1.8-1.4 3.1-3.2 4-5.2 0.1-0.1 0.1-0.1 0.1-0.3-0.2 0.2-0.3 0.2-0.4 0.3zm5.3 17c0.6-0.3 1.1-0.6 1.7-0.9 1.7-0.8 3.1-2 4.1-3.5 0.2-0.2 0.3-0.3 0.5-0.6-0.2 0.1-0.3 0.1-0.4 0.2-1.4 0.8-2.7 1.5-4.1 2.4-1.8 1.2-3.9 2.1-5.5 3.7q-0.4 0.4-0.7 0.7-0.1 0.1-0.1 0.1 2.3-1 4.5-2.1z"/>
				<path id="Layer" class="s51" d="m47.2 167.3c-0.2 0-0.3-0.1-0.4-0.2-3.1-1-5.5-3-7.6-5.3-1.3-1.4-2.6-2.8-3.9-4.3-0.9-1.1-1.9-2.2-2.9-3.3 0.7 0.9 1.3 1.8 2.1 2.7q1.9 2.3 3.9 4.5c1.3 1.4 2.6 2.7 4.1 3.8 1.4 1 2.9 1.7 4.5 2.2q0 0.1 0.1 0.1 0.1-0.1 0.1-0.2z"/>
				<path id="Layer" class="s52" d="m51.3 138.5q-0.3 1.1-0.6 2.2c-0.4 1.7-0.9 3.4-1.2 5.1-0.3 1.6-0.4 3.3-0.5 5 0 3 0.1 5.9 0.1 8.9q0 0.1 0.1 0.3 0-0.3 0-0.6c0-3 0-6.1 0.1-9.1 0-2.9 0.6-5.8 1.4-8.6 0.3-1.1 0.5-2.1 0.7-3.2q0 0-0.1 0z"/>
				<path id="Layer" class="s53" d="m39.7 165.4c0.7 0.5 1.4 1 2.2 1.5 0.7 0.4 1.5 0.8 2.3 1.2-1.1-0.1-2.1-0.5-3-1-2.6-1.3-5-3-7.1-4.9-0.1 0-0.2-0.1-0.3-0.1 0.8 0.8 1.7 1.6 2.6 2.3 1.6 1.3 3.3 2.3 5.2 3.2q0.7 0.4 1.5 0.6c0.5 0.1 1.1 0.3 1.7 0.4 0-0.2 0-0.2-0.1-0.3q0.3 0 0.5 0 0.1 0 0.1-0.1c-0.6-0.2-1.3-0.5-1.9-0.8-0.6-0.3-1.2-0.6-1.9-1q-0.9-0.5-1.8-1 0 0 0 0z"/>
				<path id="Layer" class="s54" d="m57.7 147.2c-0.3 1.7-0.5 3.4-0.8 5.2q-0.5 2.9-1.6 5.8c-0.9 2.4-2.1 4.5-3.8 6.4q-0.1 0 0 0.2c0.7-0.8 1.4-1.6 2-2.4 1.9-2.9 2.9-6.1 3.5-9.5 0.3-1.8 0.5-3.6 0.7-5.4q0.1-0.2 0.1-0.3-0.1 0-0.1 0z"/>
				<path id="Layer" class="s55" d="m38.6 143.4q-0.1-0.2-0.2-0.5c-0.7-2.3-1.2-4.6-1.6-6.9q-0.5-3 0-5.9c0.1-0.3 0.1-0.6 0.1-0.9-0.3 0.5-0.4 0.9-0.5 1.4-0.3 2.1-0.2 4.2 0.2 6.2 0.5 2 0.8 4.1 1.6 6q0.2 0.3 0.3 0.7 0-0.1 0.1-0.1z"/>
				<path id="Layer" class="s56" d="m47.5 166.2q-0.1-0.2-0.2-0.3c-1-2.2-1.4-4.5-1.5-6.9 0-2.1 0-4.2-0.1-6.2 0-0.2 0-0.4-0.1-0.6 0 0.8-0.1 1.7-0.1 2.6 0 2.3 0 4.6 0.2 6.9 0.2 1.4 0.7 2.8 1.3 4.1q0.1 0.2 0.3 0.5 0.1-0.1 0.2-0.1z"/>
				<path id="Layer" class="s57" d="m11.3 149.6q0.3 0.1 0.7 0.2 1.8 0.4 3.4 1.1c1.1 0.5 2.2 0.9 3.2 1.4 1.6 0.8 3.1 1.7 4.6 2.5q0.5 0.3 1 0.5c-2.6-1.8-5.4-3.2-8.3-4.5-1.2-0.5-2.4-0.9-3.7-1.3-0.3-0.1-0.6 0-0.9-0.1q0 0.1 0 0.2z"/>
				<path id="Layer" class="s58" d="m24.7 135.7c0.8 0.9 1.5 1.7 2.3 2.5 0.8 0.8 1.6 1.5 2.4 2.3-1.3-0.6-2.3-1.7-3.5-2.7 0.6 0.9 1.4 1.5 2.1 2.1 0.3 0.3 0.6 0.4 0.9 0.7 0.2 0.2 0.5 0.2 0.8 0q0.6 0.4 1.3 0.8 0-0.1 0.1-0.2c-2.5-1.5-4.4-3.5-6.3-5.6q0 0.1-0.1 0.1z"/>
				<path id="Layer" class="s59" d="m55.2 154.5c-1 4.5-2.9 8.7-6.4 11.9q0.2-0.1 0.3-0.2c1.1-0.8 2-1.8 2.7-3 0.7-1.2 1.5-2.4 2.1-3.7 0.7-1.6 1.1-3.3 1.4-5q0 0 0-0.1 0 0-0.1 0.1z"/>
				<path id="Layer" class="s60" d="m45.7 129.7c0.1 1.3 0.1 2.6 0.3 3.9 0.2 1.8-0.1 3.6-0.3 5.4-0.2 1.6-0.5 3.1-0.8 4.6q0.1-0.3 0.2-0.6c0.6-2.8 1.2-5.4 1.2-8.2q0-2.6-0.6-5.1z"/>
				<path id="Layer" class="s61" d="m37.3 145.5c2.5 2.5 5 5 6.5 8.3q0.1-0.1 0.1-0.1c0-0.1 0-0.3-0.1-0.4-0.4-0.8-0.9-1.7-1.4-2.5-1.4-1.9-3-3.6-4.8-5.1q-0.1-0.1-0.3-0.2z"/>
				<path id="Layer" class="s62" d="m19.9 148.5c3.2 1.8 5.8 4.3 8.7 6.6q-0.5-0.4-0.9-0.8c-0.3-0.3-0.5-0.6-0.8-0.9-1.6-1.2-3.1-2.5-4.7-3.7-0.5-0.5-1.2-0.8-1.9-1.2-0.1 0-0.2 0-0.4-0.1q0 0.1 0 0.1z"/>
				<path id="Layer" class="s63" d="m61.1 137c-1 4.1-1 8.3-1.6 12.4q0.1 0 0.2 0 0.2-2 0.5-4c0.1-1.4 0.2-2.8 0.4-4.2q0.2-2.1 0.5-4.2z"/>
				<path id="Layer" class="s64" d="m43.9 148.6q-0.1-5.4 0.3-10.7 0-0.1 0-0.2c-0.4 3.6-0.6 7.2-0.3 10.9z"/>
				<path id="Layer" class="s65" d="m59.8 153.9q1.6-2.4 3.2-4.8c1.1-1.6 2.2-3.2 3.5-4.6-2.9 2.7-4.7 6.1-6.7 9.4z"/>
				<path id="Layer" class="s66" d="m48.1 122.7c0 0.5 0.4 0.8 0.6 1.2 0.1 0.4 0.3 0.8 0.5 1.3q0.2 0.6 0.4 1.3 0.3 0.6 0.4 1.2 0.2 0.7 0.3 1.4 0.2 0.6 0.3 1.3c0.4-1.3-1.4-6.9-2.5-7.7z"/>
				<path id="Layer" class="s67" d="m38.5 139c0.1 2.2 0.8 4.3 1.6 6.3 0.3 0.7 0.6 1.3 1.3 1.9 0-0.2 0-0.2 0-0.3-1.3-1.8-1.8-3.9-2.4-6-0.2-0.6-0.3-1.3-0.5-1.9z"/>
				<path id="Layer" class="s68" d="m54.4 140.6c0.8-2.8 1.3-5.8 2.4-8.6q-0.5 0.3-0.7 1.1c-0.8 2.4-1.3 4.8-1.7 7.3q0 0.1 0 0.2z"/>
				<path id="Layer" class="s69" d="m62.7 132.4c0.8-1.4 1.9-7.2 1.6-8.4-0.3 0.8-0.2 1.5-0.3 2.2q-0.2 1-0.4 2-0.2 1.1-0.4 2.1-0.3 1-0.5 2.1z"/>
				<path id="Layer" class="s70" d="m44.3 159.6c-0.9-2.8-2.6-5.1-4.4-7.4 1.5 2.4 3.2 4.8 4.4 7.4z"/>
				<path id="Layer" class="s71" d="m51.7 156.3c0.9-3.3 1.3-6.9 1.7-10.6-0.6 3.6-1.2 7.3-1.7 10.6z"/>
				<path id="Layer" class="s72" d="m62.8 147.6c-1.8 2.4-2.9 5.3-4.2 8q1-2 2.1-4 1.1-2 2.1-4z"/>
				<path id="Layer" class="s73" d="m46.1 164.4c-0.9-2.4-1.1-4.9-1.4-7.4q0 0.2 0 0.5 0.1 2.7 0.6 5.3 0.2 0.6 0.4 1.2c0.1 0.2 0.2 0.3 0.3 0.5q0.1 0 0.1-0.1z"/>
				<path id="Layer" class="s74" d="m28.2 143q2.6 2.3 4.9 4.9c-1.3-1.9-2.9-3.6-4.9-4.9z"/>
				<path id="Layer" class="s75" d="m42.1 130.6q0-3 0.1-6c-0.4 0.6-0.5 4.6-0.1 6z"/>
				<path id="Layer" class="s76" d="m14.6 149.8c1.8 0.8 3.7 1.6 5.4 2.4-1.2-0.9-4.4-2.4-5.4-2.4z"/>
				<path id="Layer" class="s77" d="m47.1 133.5c-0.4-2.2-0.4-4.5-1.1-6.7 0-0.1 0-0.2 0-0.4q-0.1 0-0.2 0.1c0.3 1.1 0.5 2.3 0.7 3.5 0.1 1.1 0.3 2.3 0.4 3.5q0.1 0 0.2 0z"/>
				<path id="Layer" class="s78" d="m38.6 157c-0.1-0.2-0.2-0.4-0.4-0.6-1.7-2-3.7-3.8-5.5-5.6-0.1-0.1-0.1-0.1-0.3-0.1 0.5 0.5 0.9 0.9 1.3 1.3 1.6 1.6 3.3 3.1 4.7 4.8q0.1 0.1 0.2 0.2z"/>
				<path id="Layer" class="s79" d="m49.5 127.9c-0.6-1.8-1-3.6-1.9-5.3-0.1 0.1-0.1 0.1-0.1 0.1q-0.1 0-0.1 0 0 0.1 0 0.1 1.1 2.6 2.1 5.1z"/>
				<path id="Layer" class="s80" d="m63.2 144.7c-0.6 0.5-2.2 3.1-2.6 4.6 0.8-1.5 1.7-3 2.6-4.6z"/>
				<path id="Layer" class="s81" d="m30.4 129.5q0.4 0.7 0.8 1.4 0.3 0.7 0.7 1.5c0.2 0.5 0.4 1 0.6 1.5 0-1.3-1.3-4.1-2.1-4.4z"/>
				<path id="Layer" class="s82" d="m48.9 146.4c-0.5 2.3-0.5 4.6-0.5 6.9q0.3-3.4 0.5-6.9z"/>
				<path id="Layer" class="s83" d="m19.1 137.3c0 0.7 1.5 2.4 2.7 3q-1.4-1.6-2.7-3z"/>
				<path id="Layer" class="s84" d="m25.6 130.5q1.3 1.6 2.7 3.2c-0.7-1.2-1.6-2.3-2.6-3.3q-0.1 0-0.1 0.1z"/>
				<path id="Layer" class="s85" d="m58.7 133.6q0.6-2 1.2-4c-0.7 1.3-1 2.6-1.2 4z"/>
				<path id="Layer" class="s86" d="m42 153.8q1 1.8 2 3.6 0.1-0.1 0.1-0.1c-0.5-1.3-1.2-2.4-2.1-3.5z"/>
				<path id="Layer" class="s87" d="m62.9 128.1c0.3-1.2 0.7-2.5 0.6-3.7q0 0-0.1-0.1-0.3 1.9-0.5 3.8z"/>
				<path id="Layer" class="s88" d="m22.6 141.6c-0.8-0.7-1.6-1.4-2.5-2.1 0.4 0.7 0.9 1.2 1.5 1.6 0.2 0.2 0.5 0.4 0.8 0.5 0 0.1 0.1 0 0.2 0z"/>
				<path id="Layer" class="s89" d="m29.4 154.9c-1-1.2-2.1-2.4-3.3-3.4q1.7 1.7 3.3 3.4z"/>
				<path id="Layer" class="s90" d="m30.2 145.7q-1.2-1.1-2.4-2.3 0 0.1-0.1 0.1c0.3 0.5 0.8 0.8 1.2 1.1q0.6 0.6 1.2 1.2 0.1-0.1 0.1-0.1z"/>
				<path id="Layer" class="s91" d="m55.2 133.4c-0.4 0.8-0.7 1.7-0.7 2.6q0.4-1.3 0.8-2.6 0 0-0.1 0z"/>
				<path id="Layer" class="s92" d="m29.7 129.4q0.7 1.1 1.3 2.1c-0.2-0.8-0.6-1.5-1.1-2.2q-0.1 0.1-0.2 0.1z"/>
				<path id="Layer" class="s93" d="m41.4 125.4c-0.2 0.8-0.2 1.6-0.2 2.4q0.1 0 0.2 0 0-1.2 0.1-2.4-0.1 0-0.1 0z"/>
				<path id="Layer" class="s94" d="m20.5 141.6q0.6 0.4 1.1 0.8 0-0.1 0.1-0.2-0.5-0.4-1.1-0.7 0 0-0.1 0.1z"/>
				<path id="Layer" class="s95" d="m38.6 157q0.5 0.8 1.1 1.5 0-0.1 0.1-0.1-0.6-0.7-1.2-1.4z"/>
				<path id="Layer" class="s96" d="m32 150.1q-0.5-0.4-0.9-0.8-0.1 0-0.1 0 0.5 0.5 0.9 0.9 0 0 0.1-0.1z"/>
				<path id="Layer" fill-rule="evenodd" class="s97" d="m49.2 206.3q-0.2-0.3-0.4-0.6c-1.1-2.1-2.2-4.1-3.6-6-2.4-3.2-5.1-6.1-8-8.9-2.2-2-4.6-3.8-7.3-5.2-1.4-0.8-2.9-1.5-4.4-2.2q-2.3-1.1-4.9-1.5-2.2-0.3-4.4-0.2c-1.9 0.1-3.9 0-5.9 0-2.9 0-5.8 0.1-8.8 0.1-0.1 0-0.3 0-0.6-0.1 0.1-0.1 0.2-0.2 0.2-0.2 1.5-0.7 3-1.4 4.7-1.6 2.2-0.3 4.3-0.6 6.5-0.8q2.4-0.2 4.9 0c3.3 0.1 6.6 0.4 9.8 0.7 2.7 0.1 5.1 0.8 7.5 2.1 1.8 1 3.4 2.3 4.6 4q1.5 2.1 2.6 4.4c0.8 1.6 1.4 3.2 2.1 4.9 0.8 1.9 1.8 3.8 2.7 5.7 0.9 1.6 1.8 3.3 2.6 4.9q0.1 0.2 0.3 0.4-0.1 0.1-0.2 0.1zm-4.5-8.5q-0.8-1.8-1.5-3.6c-1.2-2.9-2.6-5.8-4.5-8.4-1.3-1.9-3.2-3.1-5.2-4.1-1.8-0.9-3.7-1.1-5.6-1-1.2 0.1-2.3 0.3-3.5 0.4q-0.2 0-0.4 0.1 0.5 0.2 0.9 0.3c2 0.5 4 1.3 5.8 2.3 3.4 2.1 6.4 4.7 9 7.7 0.5 0.6 1 1.1 1.4 1.6 1.1 1.6 2.2 3.1 3.3 4.7q0.2 0.2 0.3 0.5 0.1 0 0.1 0-0.1-0.3-0.1-0.5zm-37.1-16.4c2.6 0 5.3 0.1 7.9 0q2.4-0.1 4.8 0.2c1.6 0.2 3 0.6 4.5 1.1 2.2 0.9 4.3 2 6.3 3.2 3 1.8 5.7 4 8.1 6.4 1.2 1.2 2.2 2.5 3.4 3.7 0.1 0.1 0.2 0.3 0.5 0.4q-0.1-0.2-0.3-0.4c-0.3-0.4-0.7-0.9-1-1.3-1.3-1.9-2.7-3.6-4.3-5.2q-2.7-2.7-5.9-4.8-3.7-2.3-8-3.2-1.1-0.3-2.3-0.3-2 0-3.9-0.4c-1.3-0.2-2.6-0.4-4-0.4-2.7 0.2-5.5 0.3-8.2 0.7q-0.3 0.1-0.7 0.2-0.1 0-0.1 0 0 0.1 0 0.1 1.6 0 3.2 0zm20-1.3c-3.6-0.3-7.2-0.6-10.8-0.8-1.3-0.1-2.6 0-4 0.1-0.5 0-1.1 0.2-1.7 0.4q0.9 0.1 1.9 0.1c0.3 0.1 0.7 0 1 0.1q1.8 0.2 3.5 0.5c1.6 0.3 3.2 0.5 4.8 0.4 2.1-0.1 4.2-0.4 6.3-0.5q0-0.1 0-0.2-0.5-0.1-1-0.1zm-25.1 1.2c3-0.6 6-0.9 9-1.1-2-0.6-7.8 0.1-9 1.1z"/>
				<path id="Layer" fill-rule="evenodd" class="s98" d="m83.5 160.8c-1.5 1.5-2.9 3.2-4.3 4.9-1.7 2.1-3.4 4.2-5.4 6.1-2.4 2.3-5.2 4.1-8 5.8-0.6 0.4-1.3 0.7-1.9 1.1-1.8 1.1-3.6 2.2-5.3 3.4-3.8 2.7-7 5.8-9.2 9.9-0.6 1.2-1.2 2.5-1.3 3.9q0 0.3-0.1 0.6-0.1 0-0.1 0c-0.1-0.4-0.2-0.7-0.1-1.1 0.1-1.7 0.6-3.3 1.3-4.8 0.8-1.8 1.7-3.4 2.6-5.1 0.8-1.6 1.8-3 2.8-4.3 2-2.8 4.4-5.2 6.9-7.6 2.7-2.5 5.6-4.7 8.8-6.6 3.1-1.7 6.2-3.5 9.5-4.9q2.2-1.1 4.4-2.1c-0.2 0.2-0.4 0.5-0.6 0.8zm-2.1 1.3c-4.2 3.5-8.8 6.4-13.5 9.3-1.6 1-3.1 2.1-4.6 3.2-3.4 2.7-6.5 5.6-9.1 9-1 1.3-1.9 2.8-2.8 4.2-0.4 0.5-0.7 1.1-1 1.7q-0.1 0.2-0.1 0.4c0.6-0.7 1.1-1.4 1.6-2.1 1.8-2.3 4-4.2 6.4-5.8 1.9-1.4 3.9-2.7 5.9-3.8 2.7-1.6 5.4-3.3 7.9-5.3 2.2-1.9 4.2-4.1 6-6.3q2-2.4 3.9-4.7 0.1-0.1 0.2-0.2-0.1 0-0.1 0-0.3 0.2-0.7 0.4zm-3.5 1.1c-2.7 1.3-5.3 2.9-7.9 4.4-3.1 1.7-5.9 3.9-8.5 6.3-2.4 2.3-4.7 4.6-6.7 7.3q-1.4 1.9-2.6 4c-0.8 1.3-1.5 2.7-2.2 4.1-0.1 0.1-0.1 0.2-0.1 0.4 0.6-1 1.2-2 1.8-3q2.2-3.5 5.1-6.5c1.6-1.7 3.4-3.3 5.2-4.9 1.6-1.3 3.3-2.6 5.1-3.7 1.9-1.3 3.8-2.4 5.7-3.6q4.5-2.9 8.8-6.2 0.1-0.1 0.2-0.2 0-0.1-0.1-0.1c-1.3 0.6-2.6 1.1-3.8 1.7z"/>
				<path id="Layer" class="s99" d="m9.4 326.3c0.4-0.9 0.8-1.8 1.2-2.6q1.5-3.5 3-6.9c1.8-4.5 3.6-9 5.9-13.2 1.1-2.2 2.4-4.4 3.6-6.5q2.6-4.3 5.6-8.4c1-1.5 2.2-2.8 3.2-4.3 2.5-3.4 5-6.8 7.5-10.2 2.1-3 3.8-6.2 5.4-9.5 1.1-2.3 2.1-4.7 3-7 1.5-4.1 2.5-8.3 3.4-12.5 0.9-3.9 1.2-7.8 1.4-11.7 0.2-4.3 0.3-8.6-0.3-12.9-0.5-3.1-1.1-6.1-1.7-9.2-0.2-1.5-0.5-3-0.9-4.5-0.6-2.8-1.1-5.5-1.4-8.3q-0.4-3.3-0.6-6.5c-0.2-4.9 0.1-9.8 0.7-14.6 0.4-3.1 0.7-6.3 1-9.4q0-0.2-0.1-0.4c0 0.1-0.1 0.2-0.1 0.3q-0.3 2.3-0.5 4.6c-0.4 2.9-0.7 5.8-1.1 8.8-0.3 3.3-0.4 6.7-0.2 10q0.3 6.2 1.4 12.3c0.1 0.8 0.2 1.5 0.4 2.3 0.5 2.3 0.9 4.7 1.5 7 1.8 7.7 2 15.6 1.4 23.5-0.2 2.8-0.5 5.6-1 8.4q-0.7 3.1-1.5 6.1-0.9 3.3-2 6.4-2 5.6-4.9 10.8c-2 3.6-4.3 7-6.7 10.2q-1.4 1.8-2.7 3.6c-2.1 2.9-4.3 5.8-6.4 8.7-1.3 1.8-2.4 3.8-3.6 5.7-2.6 4-4.7 8.2-6.7 12.5-0.8 1.8-1.5 3.6-2.2 5.4-1 2.3-1.9 4.6-2.9 6.9-0.7 1.4-1.3 2.9-2 4.4q-0.2 0.3-0.3 0.6 0.1 0 0.2 0.1z"/>
			</g>
			<g id="Layer">
				<path id="Layer" fill-rule="evenodd" class="s100" d="m89.2 55.7c-1.6-6-1.8-12.1-2-18.2-0.2-7.2-0.4-14.5-0.6-21.7-0.1-2.7 0-5.3 0.6-7.9 0.2-0.9 0.6-1.8 1.1-2.7 0.6-1 1.6-1.1 2.5-0.3 0.6 0.5 1.1 1.1 1.5 1.8 0.8 1.6 1.6 3.2 2.3 4.8 0.2 0.3 0.3 0.7 0.5 1.2 0.6-0.8 0.4-1.8 1.4-2.1 1.1 0.2 2.1 0.9 3.1 1.6 4.7 3.3 7.3 7.9 8.3 13.5 0.1 0.4 0.1 0.7 0.2 1.3 0.4-0.7 0.7-1.2 1-1.7 1.3-1.8 2.5-3.7 3.9-5.4 3.4-4.3 7.8-7.1 13-8.7 1.4-0.4 2.8-0.6 4.3-0.2q1.3 0.3 2.3 1.3c0.2 0.2 0.5 0.5 0.8 0.8 1.6 2.2 3.3 4.3 4.8 6.5 2 2.8 2.5 5.9 1.4 9.2-0.5 1.3-1 2.6-1.5 4q0.5 0 0.9-0.1c3.7-0.7 7.4-0.5 11.1 0.2 0.8 0.1 1.6 0.2 2.3 0.7 0.2 0.3 0.5 0.6 0.7 0.9-0.1 0.4-0.3 0.7-0.5 1.1 0.5-0.1 0.9-0.2 1.3-0.3 2.4-0.5 4.8-0.4 7.1 0.3 2.8 0.8 4.6 3.8 4.3 6.7-0.2 1.4-0.7 2.6-1.3 3.8-2.1 4.3-4.4 8.5-7.1 12.4-3.8 5.3-8.2 10-13.7 13.5q-0.3 0.2-0.5 0.3c0 0 0 0.1-0.1 0.2q0.5 0.1 0.9 0.2 3.7 0.4 6.6 2.7c2.5 1.9 4.5 4.3 6.3 6.9 1.4 1.9 2.9 3.8 4.7 5.5q1.2 1.2 2.2 2.6c0.6 0.7 0.9 1.6 0.3 2.5-0.4 0.7-1.5 1-2.6 0.5q-1.6-0.6-3.1-1.5c-3.1-2-6.2-4.2-9.5-6.1-3-1.8-6.2-3.2-9.5-4.5-5.7-2.3-11.6-3.1-17.6-3.7-2.6-0.3-5.1-0.6-7.6-1.3-2.5-0.7-5-0.6-7.5 0.2-1.7 0.5-3 1.7-3.8 3.5-0.1 0.4-0.4 0.8-0.7 1.3-0.1-1.5-0.1-2.8-0.2-4-0.2-2.9-1.5-5.2-3.5-7.2-0.6-0.5-1.3-0.8-2.1-1-3.2-1-6.6-1.1-9.9-0.8-3.6 0.2-7.1 0.6-10.6 0.9-2.5 0.3-5 0.3-7.5-0.1-1.9-0.3-3.7-1-5.4-2.1-2.6-1.8-5.4-3.5-8-5.2-0.7-0.4-1.3-0.8-1.9-1.4-1.8-1.8-2.3-5.1 0.6-7q2-1.4 4.4-1.8c3.2-0.6 6.5-1.1 9.8-1.7 2.9-0.5 5.8-0.4 8.7 0.1 4.7 0.8 9 2.4 12.7 5.6 0.1 0 0.2 0 0.4 0.1zm63.2-21.1c-0.4-0.7-1-0.9-1.6-1q-2.2-0.4-4.4-0.6c-4.6-0.5-9 0.4-13.3 1.8-7.6 2.5-13.6 7.4-18.4 13.7-3.9 4.9-6.4 10.5-8.1 16.5-0.4 1.4-0.6 3-0.8 4.5-0.2 1.5 0.4 2.7 1.6 3.6q2 1.4 4.4 2.1c2.6 0.7 5.3 1.2 8 1.6 4.9 0.5 9.9 0.2 14.6-1.4 9.5-3.1 16.4-9.4 22-17.4 2.7-3.7 4.9-7.7 6.9-11.8 0.6-1.4 1.3-2.7 1.4-4.3 0.1-2.6-1.5-5-4-5.8-2.1-0.6-4.1-0.7-6.3-0.3-0.9 0.2-1.8 0.5-2.7 0.7-0.3 0.1-0.5 0-0.8 0q0-0.1-0.1-0.2 0.8-0.9 1.6-1.7zm-56.9-20.4q-0.2 0-0.4 0.1-0.3-0.6-0.5-1.1c-0.7-1.7-1.4-3.5-2.3-5.2-0.4-0.9-1.1-1.7-1.7-2.5-0.7-0.8-1.4-0.7-1.9 0.2-0.5 0.8-0.9 1.8-1 2.7-0.5 2.4-0.6 4.9-0.5 7.4 0.3 5.6 0.6 11.2 0.7 16.8 0 5.2 0.1 10.3 0.5 15.5 0.6 6.9 3.1 12.9 7.8 18 1.4 1.5 2.8 3 4.6 4 0.8 0.3 1.6 0.6 2.4 0.7 1 0.2 1.3-0.1 1.6-1.1q0.2-0.9 0.2-1.9c0-3.7-0.5-7.2-1-10.8-0.9-6.3-0.7-12.5 0.6-18.7 0.6-2.9 1.5-5.7 2.4-8.4 0.4-1.5 0.5-3 0.2-4.4-0.1-0.9-0.3-1.8-0.6-2.6-1.4-4.4-3.8-8.1-7.8-10.6-0.7-0.4-1.4-1-2.4-1q-0.5 1.4-0.9 2.9zm41.5 18.9c1.1-1.6 1.7-3.3 2.2-5 0.6-2.3 0.4-4.6-0.7-6.6-0.7-1.3-1.6-2.5-2.5-3.7q-0.8-1.2-1.8-2.4c-0.8-1-1.5-2-2.4-2.9-0.7-0.8-1.8-1.2-2.9-1.1-1 0.1-2.1 0.2-3.1 0.5-2.8 0.8-5.3 2.2-7.6 3.9-3.1 2.2-5.3 5.2-7.5 8.2-1.8 2.6-3.2 5.4-4 8.4-0.9 2.9-1.4 6-2 9q-1 5.9-0.5 11.8c0.4 4 0.9 8 1.4 12 0 0.1 0.1 0.2 0.1 0.3 0.7-2 1.4-3.9 2.2-5.8 0.7-2 1.6-3.9 2.6-5.8 1.6-3 3.5-5.8 5.8-8.3 5.2-5.8 11.3-10 18.8-12q1-0.3 1.9-0.5zm-39.4 35.7q0.1-0.2 0.1-0.2-0.3-0.3-0.5-0.5c-2.9-2.9-5.3-6.1-7-9.9-0.2-0.5-0.6-1-1-1.4-1.9-2-4.2-3.5-6.8-4.5-2.1-0.7-4.2-1.3-6.4-1.7-2.6-0.5-5.3-0.6-8-0.2q-3.1 0.4-6.2 1c-1.8 0.4-3.7 0.7-5.5 1.2-1.1 0.3-2.1 0.9-3.1 1.6-1.5 1.1-1.9 2.7-1.1 4.4 0.5 1.2 1.5 1.9 2.5 2.6 1.4 0.8 2.8 1.6 4.1 2.5 2.5 1.8 5.3 2.4 8.3 1.8 2.2-0.4 4.4-1 6.6-1.5 2.1-0.5 4.2-1 6.3-1.4 2.5-0.4 4.9 0 7.1 1.2q2.7 1.5 5.3 3c1.7 0.9 3.5 1.5 5.3 2zm65.7 23.5c0.1-0.9-0.4-1.5-0.9-2.1-1.4-1.9-3.4-3.1-5.6-4-2.2-1-4-2.4-5.3-4.5q-1.2-2-2.4-4.1c-0.8-1.4-1.9-2.5-3.2-3.4-1.9-1.4-3.9-1.3-5.9-0.4-3.6 1.8-7.3 3.1-11.2 3.6-0.3 0-0.5 0.1-0.8 0.2 1.1 0.4 2.1 0.6 3.2 0.8 1.9 0.5 3.9 0.9 5.8 1.5 1.5 0.5 2.9 1.2 4.4 1.7q4.4 1.8 8.4 4.2c2.9 1.8 5.6 3.7 8.5 5.5 0.9 0.6 2 1.1 3 1.6 0.7 0.3 1.4 0.1 2-0.6zm-100.3-26c1.6 1.4 3.4 1.9 5.2 2.2 2.7 0.4 5.4 0.3 8.1 0 3.7-0.3 7.4-0.7 11.1-0.9 1.6-0.1 3.2 0 4.9 0-0.2-0.1-0.3-0.3-0.4-0.3q-2-1.2-4.1-2.4c-1.7-1-3.5-1.8-5.5-1.7-1.6 0-3.2 0.2-4.8 0.5-2.7 0.6-5.5 1.4-8.2 2-1.7 0.4-3.3 0.5-5 0.6-0.4 0.1-0.9 0-1.3 0zm95.4 19.7c-0.8-1.1-1.5-2.2-2.4-3.3-1-1.4-2.1-2.8-3.3-4.1-1.5-1.7-3.2-3.2-5.3-4.2q0 0.2 0.1 0.3c1.4 1.1 2.2 2.7 3.1 4.2q1.1 1.9 2.5 3.7c1.3 1.8 3.3 2.7 5.3 3.4z"/>
				<path id="Layer" class="s101" d="m109.4 56.1c0.9-0.7 1.4-1.7 1.5-2.7 0.1-1.9 0.5-3.6 1-5.4q1.8-6.4 4.9-12.4 1.5-2.7 2.9-5.4 0.2-0.4 0.6-0.7-1 1.9-1.9 3.8c-1.1 2.4-2.3 4.7-3.3 7-1 2.4-1.8 4.7-2.6 7.1-0.4 1.4-0.7 2.8-1 4.2-0.1 0.3-0.1 0.7-0.1 1 1.4-1.6 2.7-3.2 4.2-4.6 1.5-1.5 3.2-2.8 5.2-3.6 0.2-0.1 0.4-0.3 0.6-0.4q6.8-4 14.2-6.6 0.4-0.1 0.7-0.2c0.1 0 0.2 0.1 0.3 0.1-2.3 1-4.6 1.9-6.9 2.9-2.8 1.4-5.6 3-8.4 4.4-1.7 0.8-3.2 1.7-4.6 2.9-2.9 2.6-5.4 5.5-7 9-0.1 0.3-0.2 0.5-0.3 0.8h0.1c-0.2 0-0.4 0.1-0.4 0.1 0.1-0.3 0.2-0.8 0.3-1.3z"/>
				<path id="Layer" class="s102" d="m96.8 62.2c-0.9-3.5-1.4-7-1.6-10.5-0.3-4.4 0-8.8 0.6-13.2 0.5-3.7 1.1-7.5 1.6-11.2 0.1-0.4 0.2-0.9 0.4-1.3q-0.2 2.2-0.5 4.3c-0.4 3.6-0.9 7.3-1.4 10.9-0.8 6.5-0.4 13 0.7 19.5q0.1 0.7 0.2 1.5z"/>
				<path id="Layer" class="s103" d="m151.5 50.4c-10.1 6.8-20.8 12.4-32.1 17.1 11.1-5 21.7-10.7 32.1-17.1z"/>
				<path id="Layer" class="s104" d="m94.5 63.9c-1.5-1.8-2.3-4-3-6.2-1.7-5.7-2.3-11.4-2.2-17.3 0.1-2.2 0.4-4.4 0.7-6.6q0 0.9-0.1 1.9c-0.6 7-0.1 14 1.7 20.8q1 3.9 3 7.4z"/>
				<path id="Layer" class="s105" d="m92.9 62.9q0.7 0.7 1.6 1.4c0-0.2 0-0.3 0-0.4h0.1c0.6 0.7 1.3 1.3 1.2 2.4-0.1-0.1-0.3-0.2-0.4-0.4-1.8-2-4.1-3.4-6.6-4.5-3-1.5-6.2-1.8-9.4-2.3-2-0.3-4.1-0.5-6.1-0.9 1.7 0.1 3.4 0.1 5 0.3 3.1 0.4 6.3 0.8 9.2 1.9 1.6 0.6 3 1.4 4.5 2.1q0.5 0.2 0.9 0.5z"/>
				<path id="Layer" class="s106" d="m118.8 15c-0.1 0.2-0.2 0.5-0.3 0.7-2 2.7-3.5 5.7-4.8 8.8q-0.7 1.5-1.3 3.1c-1 3-2.1 6.1-3.1 8.9 0.8-5.6 6-18.4 9.5-21.5z"/>
				<path id="Layer" class="s107" d="m140.2 68.5c-5.3 3.1-10.7 5.9-16.6 7.2q-3.7 0.8-7.5 0.7c-0.2 0-0.4-0.1-0.6-0.3 0.2-0.1 0.4-0.2 0.6-0.2 6.1 0.2 11.7-1.5 17.1-4 2.3-1.1 4.6-2.3 7-3.4z"/>
				<path id="Layer" class="s108" d="m107.6 73.4c3.1 0 6.1-0.6 9-1.7 4.4-1.6 8.7-3.7 12.9-5.8q-0.5 0.4-1 0.7-0.5 0.3-1 0.6c-4.7 2.5-9.4 4.8-14.5 6.1-1.5 0.3-3.1 0.4-4.7 0.6-0.4 0-0.4 0-0.7-0.5z"/>
				<path id="Layer" class="s109" d="m109.4 57.3q0.6-0.7 1.1-1.4c1.8-2.4 4-4.4 6.2-6.3 0.6-0.5 1.1-1.1 1.8-1.5q3.4-2.1 6.9-4 1.3-0.8 2.8-1.3c-0.7 0.4-1.4 0.8-2 1.2-2.1 1.2-4.2 2.4-6.2 3.7-3.6 2.3-6.7 5.2-9.3 8.6-1.4 1.7-2.2 3.8-3.2 5.8q0.8-2 1.7-4 0.1-0.4 0.3-0.8z"/>
				<path id="Layer" class="s110" d="m149.9 81.9c-3.8-0.9-7.6-2-11.5-2.8-3.9-0.9-7.8-1.2-11.8-1q0-0.1 0-0.2c0.2-0.1 0.5-0.2 0.7-0.2 2.2 0.1 4.3 0 6.5 0.2 2.9 0.3 5.8 0.9 8.6 1.7 1.5 0.5 3.1 0.8 4.7 1.3 1 0.3 1.9 0.8 2.8 1.2q0-0.1 0-0.2z"/>
				<path id="Layer" class="s111" d="m144.1 43.7q-0.8 0.3-1.5 0.6c-4.8 2.1-9.4 4.5-13.9 7.1-1.9 1.1-3.7 2.2-5.5 3.3q-0.6 0.4-1.2 0.6c7-4.6 14.1-8.8 22-11.8q0 0 0.1 0.2z"/>
				<path id="Layer" class="s112" d="m102.8 15.4c0.1 0.5 0.2 1 0.3 1.5 0.2 3.1 0 6.2-0.3 9.2-0.3 2.6-0.6 5.1-0.9 7.7-0.1 0.7-0.2 1.4-0.4 2.1 0.4-6.8 1.7-13.6 1.1-20.5q0.1 0 0.2 0z"/>
				<path id="Layer" class="s113" d="m147.7 62.1c4.5-3.8 9.5-7 13.5-11.5q0.1 0.1 0.2 0.3c-0.2 0.2-0.4 0.6-0.7 0.8-1.4 1.4-2.9 2.9-4.4 4.2-2.3 1.8-4.6 3.5-6.9 5.2-0.6 0.4-1.1 0.7-1.7 1z"/>
				<path id="Layer" class="s114" d="m98.7 68.9q0.2-0.8 0.4-1.6c0.6-2.1 0.7-4.3 0.7-6.5 0.1-2.6 0.1-5.2 0.1-8.1 0.1 0.5 0.2 0.7 0.2 0.9 0.2 4.4 0.3 8.8-0.3 13.1-0.1 0.8-0.3 1.7-0.8 2.3q-0.2-0.1-0.3-0.1z"/>
				<path id="Layer" class="s115" d="m78.6 53.1c-5.4-1-10.8-2.4-16.4-1.7q0-0.1 0-0.3c0.2 0 0.5-0.1 0.8-0.2 2-0.3 4-0.2 6.1 0.1 2.4 0.4 4.7 0.9 7.1 1.3 0.8 0.2 1.6 0.5 2.4 0.8z"/>
				<path id="Layer" class="s116" d="m109.2 74.4c0 0 0.1-0.1 0.2-0.1 2.1 0.2 4-0.2 5.9-0.9 2.7-0.8 5.3-1.7 7.9-2.5-0.4 0.2-0.7 0.5-1.2 0.6-2.8 1-5.7 2-8.6 2.9-1 0.3-2.1 0.3-3.2 0.4-0.3 0-0.7-0.2-1.1-0.2q0-0.1 0.1-0.2z"/>
				<path id="Layer" class="s117" d="m53.9 56.3c5.8-1.7 11.6-1.2 17.5-0.5-1.9-0.1-3.8-0.3-5.7-0.3-2-0.1-4-0.1-6 0.1-1.9 0.1-3.9 0.4-5.8 0.7z"/>
				<path id="Layer" class="s118" d="m107.4 35.7c-1.2 6-1.8 12-1.3 18.2-0.9-6.2-0.2-12.3 1.3-18.2z"/>
				<path id="Layer" class="s119" d="m139.2 21.9c-0.8 4.4-3.4 7.8-6 11.2 2.1-3.7 4.7-7.1 6-11.2z"/>
				<path id="Layer" class="s120" d="m143.1 40.2c3.5-2.1 6.8-4 10.6-4.9 0.1 0.2 0.1 0.2 0.1 0.2q0 0.1 0 0.1c-3.5 1.5-7 3-10.7 4.6z"/>
				<path id="Layer" class="s121" d="m55.9 62.5c4.2 1.1 8.4 1.5 12.7 1.4-0.2 0-0.5 0.1-0.7 0.2-2.8 0.1-5.6 0.1-8.3-0.5q-1.6-0.4-3.1-0.8c-0.2 0-0.4-0.2-0.6-0.3z"/>
				<path id="Layer" class="s122" d="m129.7 77.1c5.2-0.8 10.1 0.3 15.1 1.5-5-0.8-10-1.9-15.1-1.5z"/>
				<path id="Layer" class="s123" d="m94.5 24.6c-0.4-2.8 0.4-10.9 1.2-12.2-0.4 4.1-0.8 8.1-1.2 12.2z"/>
				<path id="Layer" class="s124" d="m94.6 38.8c-0.6 5.1-0.6 10.2-0.1 15.4-0.9-5.2-1-10.3 0.1-15.4z"/>
				<path id="Layer" class="s125" d="m104.2 56.8c0.5 4.6 0.6 9.2-2 13.4 1.9-3.5 1.8-7.3 1.8-11.1q0-1.1-0.1-2.3 0.2 0 0.3 0z"/>
				<path id="Layer" class="s126" d="m106.6 65.7c0.9-2 7.5-6.5 10-6.9-3.3 2.2-7.2 3.8-10 6.9z"/>
				<path id="Layer" class="s127" d="m120.6 14.1c-2.3 3.5-3.8 7.4-5.8 11.1 1.5-3.9 3.2-7.8 5.8-11.1z"/>
				<path id="Layer" class="s128" d="m129.1 53.7c-4.7 2.5-9.3 5.1-13.8 8-0.1 0.1-0.4 0.1-0.7 0.2 4.7-3.1 9.5-5.8 14.5-8.2z"/>
				<path id="Layer" class="s129" d="m109.4 56.1c0-1.4-0.2-2.8 0-4.1 0.5-3 1.2-5.9 1.8-8.9q0.2 0 0.3 0.1c0 0.3 0 0.6-0.1 0.9q-0.4 1.8-0.9 3.6c-0.6 2.5-0.9 5-1 7.6 0 0.2-0.1 0.5-0.1 0.8z"/>
				<path id="Layer" class="s130" d="m135.1 16.5c-0.9 3.4-2.6 6.3-4.4 9.3q2.1-4.7 4.2-9.4 0.1 0 0.2 0.1z"/>
				<path id="Layer" class="s131" d="m155.7 45q4.5-2.6 9-5.1 0.1 0 0.1 0.1c-0.2 0.2-0.4 0.5-0.7 0.7q-3.9 2.6-8.4 4.3z"/>
				<path id="Layer" class="s132" d="m76.2 62.1c-4.3 0.5-8.5 0.7-12.8 0.5q6.4-0.4 12.8-0.7 0 0.1 0 0.2z"/>
				<path id="Layer" class="s133" d="m90.7 5.4q-0.4 5.2-0.8 10.3-0.3-5.2 0.5-10.3 0.1 0 0.3 0z"/>
				<path id="Layer" class="s134" d="m101.6 58.6c-0.3 3.7-0.3 7.5-1.9 11 1-3.6 1.4-7.3 1.9-11z"/>
				<path id="Layer" class="s135" d="m163.6 91.7c-1.1 0.3-5.9-2-8.2-3.8 2.7 1.3 5.4 2.5 8.2 3.8z"/>
				<path id="Layer" class="s136" d="m125.8 37.8c2.6-2.1 4.1-5.1 6.1-7.7-1.9 4-4.4 7.2-6.1 7.7z"/>
				<path id="Layer" class="s137" d="m92.9 63c-1-1.3-2.4-2-3.7-2.6-0.9-0.5-1.8-0.8-2.7-1.2q-1.4-0.5-2.8-1.1c2.7 0.7 5.3 1.5 7.6 3 0.6 0.3 1.1 0.8 1.6 1.2 0.2 0.2 0.3 0.4 0 0.6z"/>
				<path id="Layer" class="s138" d="m158.7 42.2q2.8-1.7 5.7-3.2c-0.6 0.9-4.2 3-5.7 3.2z"/>
				<path id="Layer" class="s139" d="m93.8 20.1c-0.2-2 0.2-6.4 0.7-7.2-0.1 2.4-0.4 4.8-0.7 7.2z"/>
				<path id="Layer" class="s140" d="m103.8 25.4q0.1-3.9 0.2-7.7c0 0 0.1 0 0.1-0.1 0.4 1.1 0.2 6-0.3 7.8z"/>
				<path id="Layer" class="s141" d="m129.6 17.6c0.4-1.7 1.8-4.6 2.5-5-0.7 1.8-1.5 3.5-2.5 5z"/>
				<path id="Layer" class="s142" d="m135.6 17.6q-0.4 2.1-1.7 3.8 0.7-1.9 1.5-3.9 0.1 0.1 0.2 0.1z"/>
				<path id="Layer" fill-rule="evenodd" class="s143" d="m66 205.4c0.2-0.4 0.4-0.9 0.6-1.3 0.8-1.2 1.5-2.3 2.4-3.3 2.6-3 5.2-5.9 8-8.7 3.6-3.8 8-6.3 12.8-8.1 4.7-1.8 9.5-2.2 14.4-1.2 4.6 1 8.7 2.9 12.7 5.3 3.7 2.1 7.3 4.3 11.1 6.3 1.9 1.1 3.9 1.9 5.9 2.9 0.2 0.1 0.5 0.2 0.7 0.6-0.2 0-0.5 0.1-0.7 0.1q-2.6-0.2-5.2-0.5-4.5-0.5-8.8-1.8c-4.3-1.3-8.6-2.5-12.9-3.7-2.5-0.8-5-1.6-7.6-2.2-6.3-1.5-12.5-0.9-18.3 2.1-2.2 1.2-4.4 2.5-6.5 4-3.3 2.4-5.7 5.6-7.9 8.9q-0.2 0.3-0.4 0.6c0 0.1-0.1 0.1-0.2 0.1q-0.1 0-0.1-0.1zm12.1-13.7q0.1 0.1 0.1 0.1 1.3-0.9 2.6-1.8c4.9-3.4 10.4-4.9 16.4-4.6 4.3 0.3 8.4 1.6 12.4 3.3 2 0.9 4.1 1.9 6.1 2.7 3 1.3 5.9 2.4 8.8 3.8 2 0.9 4.1 1.3 6.3 1.8 0.3 0.1 0.6 0 0.9 0-4.7-2.3-9.1-4.9-13.5-7.6-3.9-2.4-7.9-4.5-12.4-5.7-2.2-0.6-4.3-0.9-6.5-0.9-8 0-14.6 3.3-20.6 8.2-0.2 0.2-0.4 0.5-0.6 0.7zm48.9 5.1q0-0.1 0.1-0.2c-1.5-0.5-2.9-1-4.3-1.6-3.4-1.5-6.8-2.9-10.2-4.4-3.3-1.5-6.7-2.9-10.3-3.8-1.5-0.4-3-0.7-4.5-0.8-6.8-0.6-12.8 1.4-18.2 5.4-0.7 0.5-1.3 1.1-2 1.6 1-0.3 1.8-0.9 2.7-1.3 2.5-1.2 5.1-2.3 8-2.8 4.4-0.8 8.7-0.4 13 0.9 6.9 2 13.7 4.4 20.8 5.9q2.5 0.6 4.9 1.1z"/>
				<path id="Layer" class="s144" d="m63 215.3c0.5-1.6 1.1-3.2 1.5-4.8 0.9-3.5 1.8-7 2.6-10.5 0.8-3.5 1.4-7.1 2.2-10.7 0.5-2.4 1.1-4.8 1.8-7.2 1.5-5 3-9.9 4.6-14.8q0.6-2 1.3-3.9 1.9-5.5 3.9-11c0.1-0.3 0.1-0.6 0.7-0.4q-0.2 0.4-0.3 0.8c-1.8 5-3.6 10-5.2 15q-2.5 7.6-4.7 15.2c-0.8 2.7-1.3 5.4-1.9 8.1-0.7 2.8-1.3 5.7-1.9 8.5q-0.9 4-1.8 7.9c-0.6 2.3-1.3 4.5-1.9 6.8q-0.1 0.6-0.2 1.2-0.4-0.1-0.7-0.2z"/>
				<path id="Layer" class="s145" d="m102.1 78.2c-0.2 1-0.5 2-0.8 3q-2.1 7.4-4.3 14.9-6.5 21.9-12.3 43.9c-0.6 2.6-1.3 5.2-2 7.8-0.5 1.6-1 3.2-1.6 5.3 0.3-5.7 17.9-66.5 21-74.9z"/>
			</g>
		</g>
	</g>
</svg>