<svg width="175" height="65" viewBox="0 0 175 65" fill="none" xmlns="http://www.w3.org/2000/svg">
<path d="M1.68174 15.8836C4.77509 14.9615 8.55848 18.5468 13.0319 26.6393C13.8226 28.3642 14.5462 30.1594 15.2028 32.0248C16.875 37.6344 16.5145 41.8641 14.1215 44.714C13.0749 45.5036 12.2284 45.9947 11.5821 46.1874C9.13507 46.9168 6.92269 45.4397 4.94491 41.7561C4.10519 40.3726 3.38943 38.6882 2.79765 36.7029L2.6325 36.1489C1.02916 30.7701 0.242563 24.7583 0.272693 18.1134L0.169474 17.7672L0 17.7046C0.0130885 16.8209 0.573667 16.2139 1.68174 15.8836ZM2.42923 17.8853C2.18823 23.7385 2.94852 29.6199 4.71012 35.5296L4.80302 35.8412C6.32378 40.9429 8.06438 43.7043 10.0248 44.1254L10.9627 44.1097L11.309 44.0065C13.3405 43.401 14.2397 41.1472 14.0066 37.2452C13.9622 36.253 13.7576 35.1451 13.3929 33.9216L12.7942 31.9133C11.129 26.3268 8.19171 21.7855 3.98247 18.2895C3.27017 17.9237 2.75242 17.789 2.42923 17.8853Z" fill="white"/>
<path d="M30.9589 27.6561C31.7115 27.4896 32.27 28.2295 32.6342 29.8759C33.0506 31.7575 33.6847 34.0103 34.5367 36.6343C35.3621 36.797 35.8269 37.1136 35.931 37.584L35.9622 37.7251C36.0923 38.3131 35.7731 38.7661 35.0047 39.0842C34.4873 39.1987 33.9311 38.8036 33.3362 37.899C32.6346 39.4112 31.8134 40.2713 30.8726 40.4795C28.7638 40.8721 27.1916 40.1221 26.156 38.2295C25.4448 36.0184 24.8081 33.6428 24.2461 31.1027L24.0978 30.4324C23.9157 29.6092 24.2009 29.1143 24.9536 28.9478C25.4945 28.8281 25.9227 29.2022 26.238 30.0699L26.3629 30.6344C27.131 36.3361 28.4625 38.8417 30.3574 38.1511C31.4585 36.9946 31.8764 35.7056 31.6112 34.284L31.3926 33.2962L30.259 30.1794L30.1809 29.8266C29.8999 28.5565 30.1592 27.833 30.9589 27.6561Z" fill="white"/>
<path d="M41.2285 23.2107C41.8709 23.1089 42.4812 23.8048 43.0593 25.2985L43.1664 25.2815C43.9008 24.0676 44.7914 23.3777 45.8383 23.2119C47.6003 23.2497 48.5416 23.6493 48.6622 24.4106C48.5537 25.1107 48.2377 25.5022 47.7143 25.5852L46.2903 25.3718L45.9334 25.4284C44.5712 25.9125 44.3274 28.9144 45.2021 34.4341L45.4679 36.1114C45.442 36.8716 45.1673 37.2931 44.6439 37.3761C43.8826 37.4967 43.4303 37.105 43.287 36.2009L42.631 32.0612C42.1484 29.0158 41.3455 26.4115 40.2222 24.2481C40.3221 23.647 40.6575 23.3011 41.2285 23.2107Z" fill="white"/>
<path d="M80.7616 0.000905529C81.4597 -0.0228987 81.8244 0.422616 81.8556 1.33745L81.9332 3.61249C82.0407 6.76626 83.3387 16.2064 85.8272 31.9328L85.8469 32.5106C85.8855 33.6421 85.5317 34.2205 84.7853 34.246C84.108 34.1727 83.7594 33.8471 83.7397 33.2693L83.7126 32.4749C83.6642 31.0545 82.8784 26.0318 81.355 17.4068C78.0393 17.7127 76.3872 18.0341 76.3987 18.3712L76.512 18.5119L76.5144 18.5842C76.9973 23.5569 77.3089 28.1017 77.4493 32.2184L77.5478 35.1074C77.5856 36.2148 77.1831 36.7829 76.3405 36.8116C75.7868 36.8305 75.4715 36.4194 75.3946 35.5785L75.3023 32.8701C75.1381 28.0552 74.8228 23.4021 74.3563 18.9108L74.1397 18.9182C73.5378 18.9387 73.0714 18.6895 72.7403 18.1705L72.7206 17.5927C73.1102 17.001 73.5574 16.6845 74.0621 16.6432C73.9997 14.8135 73.2192 9.94729 71.7205 2.04455C71.7 1.44269 72.1455 1.07801 73.057 0.950519C73.6589 0.929998 74.1758 2.65981 74.6078 6.13995C74.9733 7.67005 75.4938 10.9182 76.1693 15.8844L76.3138 15.8795L81.1728 15.2438C80.1915 9.0829 79.6549 4.65428 79.5629 1.95793C79.5194 0.681975 79.919 0.0296348 80.7616 0.000905529Z" fill="white"/>
<path d="M95.6902 15.463C96.3163 15.4784 96.6915 15.8973 96.8159 16.7196C96.8064 17.1049 96.5323 17.4717 95.9936 17.8198L95.6324 17.8109C94.9581 17.7943 94.6311 17.3767 94.6512 16.5579C94.8622 15.8161 95.2086 15.4512 95.6902 15.463ZM95.823 20.3457C96.6388 20.4863 96.8376 21.708 96.4195 24.0109C96.0837 25.9062 95.9569 29.0958 96.0393 33.5796C95.6609 34.2691 95.1839 34.5586 94.6083 34.448C93.9364 34.3351 93.6888 33.1362 93.8656 30.8515C93.9158 26.8528 94.2029 23.5106 94.7269 20.8247C94.7839 20.4647 95.1493 20.305 95.823 20.3457Z" fill="white"/>
<path d="M109.831 20.8091C111.08 20.9016 111.798 21.486 111.984 22.5626C111.946 23.0671 111.587 23.3545 110.905 23.4249L110.581 23.4009C110.285 23.1616 110.016 23.033 109.776 23.0152L109.452 22.9912C107.817 23.5466 106.949 24.4969 106.85 25.8422L106.826 26.1665C106.887 26.9681 107.23 27.3921 107.855 27.4383L108.179 27.4623L110.7 27.1778C111.915 27.4125 112.483 28.0584 112.405 29.1154C112.289 30.6769 111.217 32.2763 109.187 33.9136C108.249 34.5205 107.323 34.7902 106.41 34.7226C104.779 34.2397 104.001 33.4937 104.076 32.4847C104.36 31.9019 104.791 31.6319 105.368 31.6745L106.426 32.5499L107.003 32.5926C108.806 32.0497 109.764 31.0215 109.876 29.508L109.742 29.3532C109.126 29.525 108.445 29.5834 107.7 29.5283C105.923 29.3967 104.915 28.1628 104.677 25.8264C104.832 23.7364 106.123 22.117 108.551 20.9681L109.831 20.8091Z" fill="white"/>
<path d="M126.628 4.66994C127.392 4.77036 127.424 7.11903 126.722 11.7159C126.048 16.2921 125.586 19.5355 125.335 21.4462L125.406 21.4556L127.598 21.4156C128.278 21.6022 128.579 21.994 128.5 22.591C128.394 23.4031 127.588 23.7102 126.083 23.5125L125.11 23.7126L123.855 35.7563C123.653 36.5557 123.229 36.9131 122.584 36.8284C121.82 36.728 121.512 36.1165 121.659 34.994L122.031 32.1638L123.009 24.1655L122.913 23.7884L121.323 23.6887C120.673 23.4576 120.387 23.0434 120.465 22.4464C120.563 21.706 121.435 21.4441 123.083 21.6606L123.102 21.5173C123.504 18.4602 124.253 13.1286 125.35 5.5224C125.428 4.92532 125.854 4.64116 126.628 4.66994Z" fill="white"/>
<path d="M140.555 26.1699C142.451 27.2896 143.102 29.7422 142.506 33.5276L142.466 33.7406C141.774 36.8703 140.592 38.6443 138.919 39.0625L137.898 39.0159C135.482 37.9203 134.577 35.7749 135.183 32.58L135.204 32.4735C135.859 29.0181 137.409 26.9216 139.854 26.1839L140.555 26.1699ZM137.359 32.5512L137.211 33.3322C137.049 35.6063 137.524 36.8488 138.637 37.0598C139.41 36.471 139.99 35.1589 140.376 33.1236L140.417 32.9106C140.779 30.3558 140.639 28.895 139.997 28.5282C138.687 28.8436 137.808 30.1846 137.359 32.5512Z" fill="white"/>
<path d="M152.824 26.6548C153.455 26.812 153.745 27.6911 153.693 29.2919L153.798 29.3182C154.949 28.4877 156.038 28.2007 157.066 28.457C158.674 29.1803 159.384 29.9159 159.198 30.6638C158.824 31.2659 158.38 31.5028 157.866 31.3746L156.639 30.6219L156.288 30.5345C154.845 30.4479 153.448 33.1159 152.096 38.5386L151.685 40.1864C151.365 40.876 150.947 41.1568 150.433 41.0286C149.685 40.8422 149.422 40.3049 149.643 39.4167L150.657 35.3497C151.402 32.3579 151.681 29.6469 151.492 27.2166C151.819 26.7022 152.263 26.5149 152.824 26.6548Z" fill="white"/>
<path d="M167.809 32.5906C168.522 32.8121 168.543 34.004 167.871 36.1665L167.217 38.2715C166.367 41.0091 166.529 42.56 167.702 42.9243L167.806 42.9565C168.861 42.4013 169.599 41.4451 170.021 40.0878L171.274 36.0504C171.532 35.2222 172.216 34.8042 173.328 34.7964L173.743 34.925C174.127 35.4732 174.28 35.8739 174.202 36.1269L172.027 40.9377L169.441 49.6312L168.927 51.2876C166.27 59.8455 163.257 64.3079 159.89 64.6747L158.952 64.6484C157.249 64.1198 156.182 62.439 155.75 59.606L155.689 55.5387C156.082 55.0049 156.497 54.8058 156.934 54.9415L157.244 55.0379C157.681 55.1737 157.874 56.7468 157.822 59.7575C158.206 61.3648 158.754 62.2791 159.467 62.5006C161.423 63.1077 163.899 59.2355 166.896 50.8839L167.571 48.7099L168.547 45.0783L166.921 44.9519C164.782 44.2876 164.205 41.8005 165.19 37.4906L166.469 33.0069C166.833 32.5651 167.279 32.4263 167.809 32.5906Z" fill="white"/>
</svg>
