<svg viewBox="0 0 24 94" xmlns="http://www.w3.org/2000/svg">
    <path
        d="M17 20.5C17 22.433 18.567 24 20.5 24C22.433 24 24 22.433 24 20.5C24 18.567 22.433 17 20.5 17C18.567 17 17 18.567 17 20.5Z" />
    <path
        d="M17 37.5C17 39.433 18.567 41 20.5 41C22.433 41 24 39.433 24 37.5C24 35.567 22.433 34 20.5 34C18.567 34 17 35.567 17 37.5Z" />
    <path
        d="M20.4999 58.9999C19.8064 58.9999 19.1286 58.7939 18.5524 58.4081C17.9762 58.0222 17.5277 57.4737 17.2637 56.8325C16.9996 56.1913 16.932 55.4862 17.0694 54.8065C17.2068 54.1268 17.543 53.5032 18.0353 53.0149C18.5277 52.5266 19.154 52.1956 19.8348 52.0638C20.5157 51.932 21.2203 52.0055 21.8593 52.2748C22.4983 52.5441 23.0429 52.9971 23.424 53.5764C23.8051 54.1558 24.0056 54.8352 23.9999 55.5286C23.9999 55.9869 23.9092 56.4407 23.7329 56.8637C23.5567 57.2867 23.2984 57.6707 22.973 57.9934C22.6476 58.3161 22.2616 58.5711 21.8371 58.7439C21.4126 58.9166 20.9581 59.0037 20.4999 58.9999V58.9999Z" />
    <path
        d="M20.1835 75.9857C19.3136 75.9067 18.5047 75.5054 17.9156 74.8605C17.3266 74.2155 17 73.3735 17 72.5001C17 71.6266 17.3266 70.7847 17.9156 70.1397C18.5047 69.4948 19.3136 69.0933 20.1835 69.0143C20.6678 68.9704 21.156 69.0278 21.6169 69.183C22.0777 69.3381 22.5012 69.5878 22.8603 69.9158C23.2194 70.2437 23.5063 70.6428 23.7025 71.0877C23.8987 71.5327 24 72.0138 24 72.5001C24 72.9864 23.8987 73.4673 23.7025 73.9123C23.5063 74.3572 23.2194 74.7565 22.8603 75.0844C22.5012 75.4124 22.0777 75.6619 21.6168 75.817C21.156 75.9722 20.6678 76.0296 20.1835 75.9857Z" />
    <path
        d="M20.4711 93.9999C19.7801 93.9942 19.1063 93.784 18.5345 93.3959C17.9628 93.0079 17.5186 92.4594 17.2582 91.8194C16.9977 91.1793 16.9325 90.4765 17.0708 89.7995C17.2091 89.1225 17.5447 88.5016 18.0353 88.015C18.5259 87.5284 19.1496 87.1979 19.8277 87.0651C20.5059 86.9324 21.2081 87.0035 21.8459 87.2692C22.4838 87.535 23.0288 87.9834 23.4121 88.5584C23.7954 89.1333 24 89.8089 24 90.4999C24 90.9619 23.9085 91.4195 23.7309 91.846C23.5532 92.2725 23.2927 92.6597 22.9646 92.9851C22.6366 93.3105 22.2473 93.5676 21.8194 93.7418C21.3914 93.9159 20.9331 94.0037 20.4711 93.9999V93.9999Z" />
    <path
        d="M20.5 7C19.8078 7 19.1311 6.79484 18.5555 6.41025C17.9799 6.02566 17.5313 5.47894 17.2664 4.83939C17.0015 4.19984 16.9322 3.49606 17.0673 2.81711C17.2023 2.13816 17.5357 1.51459 18.0251 1.02509C18.5146 0.535602 19.1383 0.202326 19.8172 0.067275C20.4961 -0.0677758 21.1998 0.00145676 21.8393 0.266369C22.4789 0.53128 23.0256 0.979903 23.4102 1.55549C23.7948 2.13107 24 2.80777 24 3.50002C24 4.42829 23.6313 5.31855 22.9749 5.97494C22.3185 6.63133 21.4283 7 20.5 7V7Z" />
    <path
        d="M3.50003 24C2.8078 24 2.1311 23.7947 1.55553 23.4101C0.979962 23.0256 0.531377 22.4789 0.26647 21.8394C0.00156398 21.1998 -0.0678118 20.4961 0.0672363 19.8172C0.202284 19.1383 0.535701 18.5145 1.02518 18.025C1.51467 17.5356 2.1383 17.2023 2.81723 17.0673C3.49616 16.9322 4.19987 17.0015 4.83941 17.2664C5.47895 17.5313 6.02557 17.9798 6.41015 18.5554C6.79474 19.131 7 19.8077 7 20.4999C7 21.4282 6.63125 22.3184 5.97488 22.9748C5.3185 23.6312 4.42829 24 3.50003 24Z" />
    <path
        d="M3.5287 40.9999C2.83527 41.0056 2.15575 40.8051 1.57641 40.424C0.997076 40.0429 0.54402 39.4983 0.274708 38.8593C0.00539645 38.2203 -0.0679925 37.5156 0.0637989 36.8348C0.19559 36.154 0.526626 35.5276 1.01495 35.0353C1.50327 34.5429 2.12688 34.2068 2.80659 34.0694C3.48629 33.932 4.19147 33.9995 4.83268 34.2636C5.4739 34.5276 6.0222 34.9762 6.40807 35.5523C6.79394 36.1285 6.99998 36.8063 7 37.4998C7.00003 38.4231 6.63521 39.309 5.98502 39.9645C5.33484 40.6201 4.45198 40.9923 3.5287 40.9999V40.9999Z" />
    <path
        d="M3.52859 58.9999C2.83394 59.0056 2.15327 58.8044 1.57332 58.422C0.993375 58.0397 0.54034 57.4933 0.271884 56.8526C0.00342819 56.2119 -0.0682549 55.5058 0.0658776 54.8242C0.20001 54.1426 0.533964 53.5163 1.02517 53.0251C1.51637 52.5339 2.14256 52.2 2.82416 52.0659C3.50576 51.9317 4.21192 52.0035 4.85262 52.272C5.49332 52.5404 6.03966 52.9934 6.42205 53.5733C6.80444 54.1533 7.00555 54.8338 6.99988 55.5285C6.99988 55.9844 6.91011 56.4358 6.73566 56.857C6.56121 57.2781 6.3055 57.6607 5.98316 57.9831C5.66082 58.3054 5.27815 58.5612 4.857 58.7357C4.43584 58.9101 3.98445 58.9999 3.52859 58.9999Z" />
    <path
        d="M3.52859 75.9999C2.83394 76.0056 2.15327 75.8044 1.57332 75.422C0.993376 75.0397 0.54034 74.4933 0.271885 73.8526C0.00342877 73.2119 -0.0682543 72.5058 0.0658782 71.8242C0.200011 71.1426 0.533964 70.5164 1.02517 70.0252C1.51638 69.534 2.14256 69.2 2.82416 69.0659C3.50576 68.9317 4.21192 69.0035 4.85262 69.272C5.49332 69.5404 6.03966 69.9935 6.42205 70.5735C6.80444 71.1534 7.00555 71.834 6.99988 72.5287C6.99988 72.9845 6.91011 73.4358 6.73566 73.857C6.56121 74.2781 6.3055 74.6609 5.98316 74.9832C5.66082 75.3056 5.27815 75.5612 4.857 75.7357C4.43584 75.9101 3.98445 75.9999 3.52859 75.9999Z" />
    <path
        d="M3.50003 94C2.8078 94 2.1311 93.7947 1.55553 93.4102C0.979962 93.0256 0.531377 92.479 0.26647 91.8394C0.00156398 91.1999 -0.0678118 90.4962 0.0672363 89.8173C0.202284 89.1383 0.535701 88.5146 1.02518 88.0252C1.51467 87.5357 2.1383 87.2023 2.81723 87.0672C3.49616 86.9322 4.19987 87.0016 4.83941 87.2665C5.47895 87.5314 6.02557 87.9799 6.41015 88.5555C6.79474 89.1311 7 89.8077 7 90.5C7 91.4282 6.63125 92.3184 5.97488 92.9748C5.3185 93.6312 4.42829 94 3.50003 94Z" />
    <path
        d="M3.5287 6.99988C2.83527 7.00557 2.15575 6.80526 1.57641 6.42415C0.997076 6.04303 0.54402 5.49829 0.274708 4.85926C0.00539645 4.22024 -0.0679925 3.51573 0.0637989 2.83491C0.19559 2.1541 0.526626 1.52775 1.01495 1.03539C1.50327 0.543034 2.12688 0.206749 2.80659 0.0693582C3.48629 -0.0680322 4.19147 -0.000322881 4.83268 0.263721C5.4739 0.527765 6.0222 0.976289 6.40807 1.55247C6.79394 2.12865 6.99998 2.8065 7 3.49995C7.00003 4.42326 6.63521 5.30912 5.98502 5.96468C5.33484 6.62024 4.45198 6.99231 3.5287 6.99988V6.99988Z" />
</svg>