<svg width="40" height="40" viewBox="0 0 40 40" fill="none" xmlns="http://www.w3.org/2000/svg">
<path d="M35.9335 17.899L33.6668 15.2656C33.2335 14.7656 32.8835 13.8323 32.8835 13.1656V10.3323C32.8835 8.56563 31.4335 7.11562 29.6668 7.11562H26.8335C26.1835 7.11562 25.2335 6.76562 24.7335 6.33229L22.1001 4.06563C20.9501 3.08229 19.0668 3.08229 17.9001 4.06563L15.2835 6.34896C14.7835 6.76562 13.8335 7.11562 13.1835 7.11562H10.3001C8.53346 7.11562 7.08346 8.56563 7.08346 10.3323V13.1823C7.08346 13.8323 6.73346 14.7656 6.3168 15.2656L4.0668 17.9156C3.10013 19.0656 3.10013 20.9323 4.0668 22.0823L6.3168 24.7323C6.73346 25.2323 7.08346 26.1656 7.08346 26.8156V29.6656C7.08346 31.4323 8.53346 32.8823 10.3001 32.8823H13.1835C13.8335 32.8823 14.7835 33.2323 15.2835 33.6656L17.9168 35.9323C19.0668 36.9156 20.9501 36.9156 22.1168 35.9323L24.7501 33.6656C25.2501 33.2323 26.1835 32.8823 26.8501 32.8823H29.6835C31.4501 32.8823 32.9001 31.4323 32.9001 29.6656V26.8323C32.9001 26.1823 33.2501 25.2323 33.6835 24.7323L35.9501 22.099C36.9168 20.949 36.9168 19.049 35.9335 17.899ZM27.8001 19.999L25.8501 25.9323C25.6001 26.9156 24.5501 27.7156 23.4835 27.7156H20.4001C19.8668 27.7156 19.1168 27.5323 18.7835 27.199L18.407 26.9044C17.5372 26.224 15.7211 26.799 14.6168 26.799V26.799H13.8168C12.5835 26.799 12.0835 26.3156 12.0835 25.149V17.1823C12.0835 16.0156 12.5835 15.5323 13.8168 15.5323H14.6335C15.8668 15.5323 16.3668 16.0156 16.3668 17.1823V17.1823C16.3668 17.3631 16.601 17.4346 16.702 17.2847L19.6001 12.9823C19.9335 12.4656 20.7835 12.099 21.5001 12.3823C22.2835 12.649 22.7835 13.5156 22.6168 14.2823L22.2168 16.8823C22.1835 17.1156 22.2335 17.3323 22.3835 17.499C22.5168 17.649 22.7168 17.749 22.9335 17.749H26.1835C26.8168 17.749 27.3501 17.999 27.6668 18.449C27.9501 18.8823 28.0001 19.4323 27.8001 19.999Z" fill="url(#paint0_linear_1_233)"/>
<path d="M35.9335 17.899L33.6668 15.2656C33.2335 14.7656 32.8835 13.8323 32.8835 13.1656V10.3323C32.8835 8.56563 31.4335 7.11562 29.6668 7.11562H26.8335C26.1835 7.11562 25.2335 6.76562 24.7335 6.33229L22.1001 4.06563C20.9501 3.08229 19.0668 3.08229 17.9001 4.06563L15.2835 6.34896C14.7835 6.76562 13.8335 7.11562 13.1835 7.11562H10.3001C8.53346 7.11562 7.08346 8.56563 7.08346 10.3323V13.1823C7.08346 13.8323 6.73346 14.7656 6.3168 15.2656L4.0668 17.9156C3.10013 19.0656 3.10013 20.9323 4.0668 22.0823L6.3168 24.7323C6.73346 25.2323 7.08346 26.1656 7.08346 26.8156V29.6656C7.08346 31.4323 8.53346 32.8823 10.3001 32.8823H13.1835C13.8335 32.8823 14.7835 33.2323 15.2835 33.6656L17.9168 35.9323C19.0668 36.9156 20.9501 36.9156 22.1168 35.9323L24.7501 33.6656C25.2501 33.2323 26.1835 32.8823 26.8501 32.8823H29.6835C31.4501 32.8823 32.9001 31.4323 32.9001 29.6656V26.8323C32.9001 26.1823 33.2501 25.2323 33.6835 24.7323L35.9501 22.099C36.9168 20.949 36.9168 19.049 35.9335 17.899ZM27.8001 19.999L25.8501 25.9323C25.6001 26.9156 24.5501 27.7156 23.4835 27.7156H20.4001C19.8668 27.7156 19.1168 27.5323 18.7835 27.199L18.407 26.9044C17.5372 26.224 15.7211 26.799 14.6168 26.799V26.799H13.8168C12.5835 26.799 12.0835 26.3156 12.0835 25.149V17.1823C12.0835 16.0156 12.5835 15.5323 13.8168 15.5323H14.6335C15.8668 15.5323 16.3668 16.0156 16.3668 17.1823V17.1823C16.3668 17.3631 16.601 17.4346 16.702 17.2847L19.6001 12.9823C19.9335 12.4656 20.7835 12.099 21.5001 12.3823C22.2835 12.649 22.7835 13.5156 22.6168 14.2823L22.2168 16.8823C22.1835 17.1156 22.2335 17.3323 22.3835 17.499C22.5168 17.649 22.7168 17.749 22.9335 17.749H26.1835C26.8168 17.749 27.3501 17.999 27.6668 18.449C27.9501 18.8823 28.0001 19.4323 27.8001 19.999Z" fill="url(#paint1_linear_1_233)"/>
<defs>
<linearGradient id="paint0_linear_1_233" x1="1.67523" y1="-3.01067" x2="14.3869" y2="22.8172" gradientUnits="userSpaceOnUse">
<stop stop-color="#747DD0"/>
<stop offset="1" stop-color="#4E5AC4"/>
</linearGradient>
<linearGradient id="paint1_linear_1_233" x1="1.67523" y1="-3.01067" x2="14.3869" y2="22.8172" gradientUnits="userSpaceOnUse">
<stop stop-color="#88CDFF"/>
<stop offset="1" stop-color="#4595E6"/>
</linearGradient>
</defs>
</svg>
