<svg width="32" height="32" viewBox="0 0 32 32" fill="none" xmlns="http://www.w3.org/2000/svg">
<g clip-path="url(#clip0_1_239)">
<path d="M16 32C24.8366 32 32 24.8366 32 16C32 7.16344 24.8366 0 16 0C7.16344 0 0 7.16344 0 16C0 24.8366 7.16344 32 16 32Z" fill="url(#paint0_radial_1_239)"/>
<g filter="url(#filter0_i_1_239)">
<path d="M23.1672 14.2449C23.0866 13.9854 22.8723 13.7963 22.6143 13.757L18.4689 13.1268L16.6151 9.1964C16.4997 8.95174 16.2615 8.79688 16.0008 8.79688C15.7401 8.79688 15.5019 8.95174 15.3865 9.19645L13.5327 13.1268L9.38731 13.7571C9.12928 13.7963 8.91487 13.9855 8.83431 14.2449C8.75375 14.5044 8.82098 14.7892 9.00767 14.9797L12.0073 18.039L11.2992 22.3589C11.2551 22.6278 11.3607 22.8996 11.5717 23.06C11.7827 23.2203 12.0623 23.2415 12.2931 23.1145L16.0008 21.075L19.7085 23.1145C19.9411 23.2424 20.2205 23.2191 20.4299 23.06C20.6409 22.8996 20.7466 22.6279 20.7025 22.3589L19.9943 18.039L22.9939 14.9797C23.1806 14.7892 23.2478 14.5044 23.1672 14.2449Z" fill="white"/>
</g>
</g>
<defs>
<filter id="filter0_i_1_239" x="8.80078" y="8.79688" width="14.4" height="14.4" filterUnits="userSpaceOnUse" color-interpolation-filters="sRGB">
<feFlood flood-opacity="0" result="BackgroundImageFix"/>
<feBlend mode="normal" in="SourceGraphic" in2="BackgroundImageFix" result="shape"/>
<feColorMatrix in="SourceAlpha" type="matrix" values="0 0 0 0 0 0 0 0 0 0 0 0 0 0 0 0 0 0 127 0" result="hardAlpha"/>
<feOffset dx="-1" dy="-1"/>
<feComposite in2="hardAlpha" operator="arithmetic" k2="-1" k3="1"/>
<feColorMatrix type="matrix" values="0 0 0 0 0 0 0 0 0 0 0 0 0 0 0 0 0 0 0.24 0"/>
<feBlend mode="normal" in2="shape" result="effect1_innerShadow_1_239"/>
</filter>
<radialGradient id="paint0_radial_1_239" cx="0" cy="0" r="1" gradientUnits="userSpaceOnUse" gradientTransform="translate(13.2 10.4) rotate(80.7539) scale(17.4264)">
<stop stop-color="#FFDE68"/>
<stop offset="1" stop-color="#FFB800"/>
</radialGradient>
<clipPath id="clip0_1_239">
<rect width="32" height="32" fill="white"/>
</clipPath>
</defs>
</svg>
