<svg width="40" height="40" viewBox="0 0 40 40" fill="none" xmlns="http://www.w3.org/2000/svg">
<rect width="40" height="40" rx="5" fill="url(#paint0_linear_1_247)"/>
<path d="M25.6177 30.1057H10.0243C8.67289 30.1057 7.71046 28.7892 8.12436 27.5027L9.76498 22.3763C10.2936 20.7307 12.0938 19.878 13.6995 20.5013C14.7666 20.9152 16.138 21.2394 17.8185 21.2394C19.499 21.2394 20.8704 20.9152 21.9375 20.5013C22.2766 20.3717 22.6307 20.3019 22.9748 20.2969L23.0446 20.3368C23.0396 20.4116 23.0396 20.4814 23.0396 20.5562C23.0396 20.631 23.0396 20.7058 23.0446 20.7756L22.9648 20.8205C22.1619 21.2842 21.8827 22.3165 22.3464 23.1193L22.9349 24.1366C23.2341 24.6553 23.7926 24.9794 24.396 24.9794C24.6902 24.9794 24.9844 24.8996 25.2387 24.755L25.3185 24.7101C25.4432 24.7899 25.5678 24.8597 25.6975 24.9295V25.0193C25.6975 25.9069 26.3906 26.64 27.2633 26.6998L27.5176 27.4927C27.9315 28.7892 26.9741 30.1057 25.6177 30.1057Z" fill="white"/>
<path d="M17.8229 19.3216C20.6624 19.3216 22.9642 17.0198 22.9642 14.1804C22.9642 11.3409 20.6624 9.03906 17.8229 9.03906C14.9835 9.03906 12.6816 11.3409 12.6816 14.1804C12.6816 17.0198 14.9835 19.3216 17.8229 19.3216Z" fill="white"/>
<path d="M27.6598 18.7225C26.7383 18.7225 25.9904 19.4825 25.9904 20.4189C25.9904 21.3553 26.7383 22.1146 27.6598 22.1146C28.5812 22.1146 29.3285 21.356 29.3285 20.4189C29.3285 19.4818 28.5819 18.7225 27.6598 18.7225ZM27.6598 18.7225C26.7383 18.7225 25.9904 19.4825 25.9904 20.4189C25.9904 21.3553 26.7383 22.1146 27.6598 22.1146C28.5812 22.1146 29.3285 21.356 29.3285 20.4189C29.3285 19.4818 28.5819 18.7225 27.6598 18.7225ZM31.495 20.4189C31.495 20.6752 31.4701 20.9254 31.423 21.168L32.0525 21.5378C32.3734 21.7257 32.483 22.142 32.298 22.4673L31.725 23.4762C31.54 23.8015 31.1304 23.9136 30.8102 23.7256L30.1793 23.3552C29.8094 23.6833 29.3776 23.9402 28.9027 24.1056V24.8445C28.9027 25.2204 28.6028 25.5253 28.2328 25.5253H27.0867C26.7168 25.5253 26.4168 25.2204 26.4168 24.8445V24.1056C25.9426 23.9402 25.5101 23.6839 25.1402 23.3559L24.51 23.7256C24.1891 23.9136 23.7795 23.8015 23.5946 23.4762L23.0215 22.4673C22.8365 22.142 22.9462 21.7257 23.267 21.5378L23.8959 21.1687C23.8495 20.926 23.8246 20.6752 23.8246 20.4189C23.8246 20.1626 23.8495 19.9117 23.8959 19.6691L23.267 19.3C22.9462 19.112 22.8365 18.6958 23.0215 18.3698L23.5946 17.3609C23.7795 17.0356 24.1891 16.9242 24.51 17.1121L25.1402 17.4819C25.5101 17.1538 25.9426 16.8968 26.4168 16.7314V15.9933C26.4168 15.6173 26.7168 15.3125 27.0867 15.3125H28.2328C28.6028 15.3125 28.9027 15.6173 28.9027 15.9933V16.7314C29.3776 16.8968 29.8094 17.1538 30.1793 17.4819L30.8102 17.1121C31.1304 16.9242 31.54 17.0356 31.725 17.3609L32.298 18.3698C32.483 18.6958 32.3734 19.112 32.0525 19.3L31.423 19.6691C31.4701 19.9117 31.495 20.1619 31.495 20.4189ZM27.6598 18.7225C26.7383 18.7225 25.9904 19.4825 25.9904 20.4189C25.9904 21.3553 26.7383 22.1146 27.6598 22.1146C28.5812 22.1146 29.3285 21.356 29.3285 20.4189C29.3285 19.4818 28.5819 18.7225 27.6598 18.7225ZM27.6598 18.7225C26.7383 18.7225 25.9904 19.4825 25.9904 20.4189C25.9904 21.3553 26.7383 22.1146 27.6598 22.1146C28.5812 22.1146 29.3285 21.356 29.3285 20.4189C29.3285 19.4818 28.5819 18.7225 27.6598 18.7225ZM27.6598 18.7225C26.7383 18.7225 25.9904 19.4825 25.9904 20.4189C25.9904 21.3553 26.7383 22.1146 27.6598 22.1146C28.5812 22.1146 29.3285 21.356 29.3285 20.4189C29.3285 19.4818 28.5819 18.7225 27.6598 18.7225Z" fill="white"/>
<path d="M27.6264 18.7188C26.705 18.7188 25.957 19.4788 25.957 20.4152C25.957 21.3516 26.705 22.1109 27.6264 22.1109C28.5479 22.1109 29.2952 21.3523 29.2952 20.4152C29.2952 19.4781 28.5486 18.7188 27.6264 18.7188ZM27.6264 18.7188C26.705 18.7188 25.957 19.4788 25.957 20.4152C25.957 21.3516 26.705 22.1109 27.6264 22.1109C28.5479 22.1109 29.2952 21.3523 29.2952 20.4152C29.2952 19.4781 28.5486 18.7188 27.6264 18.7188ZM27.6264 18.7188C26.705 18.7188 25.957 19.4788 25.957 20.4152C25.957 21.3516 26.705 22.1109 27.6264 22.1109C28.5479 22.1109 29.2952 21.3523 29.2952 20.4152C29.2952 19.4781 28.5486 18.7188 27.6264 18.7188ZM27.6264 18.7188C26.705 18.7188 25.957 19.4788 25.957 20.4152C25.957 21.3516 26.705 22.1109 27.6264 22.1109C28.5479 22.1109 29.2952 21.3523 29.2952 20.4152C29.2952 19.4781 28.5486 18.7188 27.6264 18.7188ZM27.6264 18.7188C26.705 18.7188 25.957 19.4788 25.957 20.4152C25.957 21.3516 26.705 22.1109 27.6264 22.1109C28.5479 22.1109 29.2952 21.3523 29.2952 20.4152C29.2952 19.4781 28.5486 18.7188 27.6264 18.7188Z" fill="#FF4F4F"/>
<defs>
<linearGradient id="paint0_linear_1_247" x1="0" y1="40" x2="27.7528" y2="40" gradientUnits="userSpaceOnUse">
<stop stop-color="#FF6B6B"/>
<stop offset="1" stop-color="#FF4F4F"/>
</linearGradient>
</defs>
</svg>
