<svg viewBox="0 0 54 54" xmlns="http://www.w3.org/2000/svg">
    <g id="vuesax/linear/pen-tool">
        <g id="vuesax/linear/pen-tool_2">
            <g id="pen-tool">
                <g id="Group">
                    <g id="Group_2">
                        <path id="Vector"
                            d="M24.1875 50.625H29.8575C32.0175 50.625 33.4125 49.095 33.0075 47.2275L32.085 43.1552H21.96L21.0375 47.2275C20.6325 48.9825 22.1625 50.625 24.1875 50.625Z"
                            stroke-width="2" stroke-linecap="round" stroke-linejoin="round" />
                        <path id="Vector_2"
                            d="M32.085 43.1327L35.9775 39.6676C38.16 37.7326 38.25 36.3825 36.5175 34.2L29.655 25.4926C28.215 23.6701 25.8525 23.6701 24.4125 25.4926L17.55 34.2C15.8175 36.3825 15.8175 37.8001 18.09 39.6676L21.9825 43.1327"
                            stroke-width="2" stroke-linecap="round" stroke-linejoin="round" />
                        <path id="Vector_3" d="M27.0225 25.02V30.7126" stroke-width="2" stroke-linecap="round"
                            stroke-linejoin="round" />
                    </g>
                </g>
                <path id="Vector_4"
                    d="M25.0874 11.6776L23.3324 9.92252C22.2749 8.86502 22.2749 7.15513 23.3324 6.09763L25.0874 4.34256C26.1449 3.28506 27.8549 3.28506 28.9124 4.34256L30.6674 6.09763C31.7249 7.15513 31.7249 8.86502 30.6674 9.92252L28.9124 11.6776C27.8549 12.7351 26.1449 12.7351 25.0874 11.6776Z"
                    stroke-width="2" stroke-linecap="round" stroke-linejoin="round" />
                <path id="Vector_5"
                    d="M43.7625 22.0725H46.2375C47.7225 22.0725 48.9375 23.2875 48.9375 24.7725V27.2475C48.9375 28.7325 47.7225 29.9476 46.2375 29.9476H43.7625C42.2775 29.9476 41.0625 28.7325 41.0625 27.2475V24.7725C41.0625 23.2875 42.2775 22.0725 43.7625 22.0725Z"
                    stroke-width="2" stroke-linecap="round" stroke-linejoin="round" />
                <path id="Vector_6"
                    d="M10.2375 22.0725H7.76249C6.27749 22.0725 5.0625 23.2875 5.0625 24.7725V27.2475C5.0625 28.7325 6.27749 29.9476 7.76249 29.9476H10.2375C11.7225 29.9476 12.9375 28.7325 12.9375 27.2475V24.7725C12.9375 23.2875 11.7225 22.0725 10.2375 22.0725Z"
                    stroke-width="2" stroke-linecap="round" stroke-linejoin="round" />
                <path id="Vector_7" d="M41.715 22.7249L29.79 10.7999" stroke-width="2" stroke-linecap="round"
                    stroke-linejoin="round" />
                <path id="Vector_8" d="M12.2849 22.7249L24.2099 10.7999" stroke-width="2" stroke-linecap="round"
                    stroke-linejoin="round" />
            </g>
        </g>
    </g>
</svg>