<svg width="35" height="40" viewBox="0 0 35 40" fill="none" xmlns="http://www.w3.org/2000/svg">
<g id="Group">
<path id="Vector" d="M34.6044 8.94961C34.6044 20.7275 20.4463 27.3436 17.8988 28.4352V38.7809C17.8988 39.109 17.6303 39.3775 17.3022 39.3775C16.9741 39.3775 16.7056 39.109 16.7056 38.7809V28.4352C14.1581 27.3433 0 20.7267 0 8.94961C0 4.0157 4.01524 0 8.94884 0C12.7492 0 16.007 2.38633 17.3017 5.73367C18.5964 2.38664 21.8539 0 25.6545 0C30.5884 0 34.6033 4.01555 34.6033 8.94961H34.6044Z" fill="#4C3F53"/>
<path id="Vector_2" d="M9.54665 35.2011H2.38727C1.73105 35.2011 1.19406 34.6641 1.19406 34.0079C1.19406 33.3517 1.73103 32.8147 2.38727 32.8147H4.17704C4.50514 32.8147 4.77362 32.5462 4.77362 32.2181V30.4283C4.77362 29.7721 5.31059 29.2351 5.96683 29.2351C6.62305 29.2351 7.16003 29.7721 7.16003 30.4283V33.4116C7.16003 33.7397 7.42851 34.0082 7.75662 34.0082C8.08473 34.0082 8.35321 33.7397 8.35321 33.4116V30.4283C8.35321 29.1099 7.28527 28.042 5.96688 28.042C4.64848 28.042 3.58054 29.1099 3.58054 30.4283V31.6215H2.38734C1.06887 31.6215 0.00100517 32.6895 0.00100517 34.0079C0.00100517 35.3263 1.06894 36.3942 2.38734 36.3942H9.54672C10.8652 36.3942 11.9331 37.4621 11.9331 38.7805C11.9331 39.1086 12.2015 39.3771 12.5296 39.3771C12.8577 39.3771 13.1262 39.1086 13.1262 38.7805C13.1262 36.8059 11.5213 35.201 9.54669 35.201L9.54665 35.2011Z" fill="#4C3F53"/>
<path id="Vector_3" d="M32.2188 31.6215H31.0256V30.4283C31.0256 29.1099 29.9577 28.042 28.6393 28.042C27.3209 28.042 26.2529 29.1099 26.2529 30.4283V33.4116C26.2529 33.7397 26.5214 34.0082 26.8495 34.0082C27.1776 34.0082 27.4461 33.7397 27.4461 33.4116V30.4283C27.4461 29.7721 27.9831 29.2351 28.6393 29.2351C29.2956 29.2351 29.8325 29.7721 29.8325 30.4283V32.2181C29.8325 32.5462 30.101 32.8147 30.4291 32.8147H32.2189C32.8751 32.8147 33.4121 33.3516 33.4121 34.0079C33.4121 34.6641 32.8751 35.2011 32.2189 35.2011H25.0595C23.0845 35.2011 21.4796 36.806 21.4796 38.7809C21.4796 39.109 21.7481 39.3775 22.0762 39.3775C22.4043 39.3775 22.6728 39.109 22.6728 38.7809C22.6728 37.4625 23.7408 36.3946 25.0592 36.3946H32.2185C33.537 36.3946 34.6049 35.3267 34.6049 34.0083C34.6052 32.6896 33.5372 31.6216 32.2188 31.6216L32.2188 31.6215Z" fill="#4C3F53"/>
</g>
</svg>
