<svg width="30" height="40" viewBox="0 0 30 40" fill="none" xmlns="http://www.w3.org/2000/svg">
<g id="Group">
<path id="Vector" d="M6.98029 18.1849L9.12347 24.9893H19.23L21.4567 17.9262C21.4232 17.9095 21.3816 17.8927 21.3481 17.8763H21.1398C20.5479 17.8763 19.964 17.7346 19.4388 17.4676L18.9383 17.209C18.4047 17.5175 17.8124 17.6844 17.2122 17.7011C16.6534 18.0679 16.0113 18.285 15.3443 18.3181H15.1775C14.5521 18.3181 13.9518 18.1597 13.4183 17.8679H13.2099C12.6096 17.8679 12.0257 17.7262 11.5005 17.4509C11.1169 17.2425 10.7749 16.9755 10.4915 16.6503L10.4416 16.7002C10.2748 16.8586 10.108 17.0003 9.90801 17.1256C9.36601 17.484 8.71545 17.6843 8.04859 17.7011C7.72263 17.9182 7.36384 18.085 6.98029 18.1849Z" fill="#4C3F53"/>
<path id="Vector_2" d="M19.6718 34.3305L16.0279 33.2881L9.78221 32.5625L5.96313 38.7248C5.80469 38.9834 5.7963 39.3087 5.94638 39.5753C6.08807 39.8339 6.3718 40.0007 6.67195 40.0007H21.6817C21.9818 40.0007 22.2656 39.8339 22.4073 39.5753C22.5573 39.3083 22.5489 38.9834 22.3905 38.7248L19.6718 34.3305Z" fill="#4C3F53"/>
<path id="Vector_3" d="M27.7688 7.54597C27.4603 7.07901 26.9933 6.78725 26.468 6.69546C26.3012 6.20338 25.9344 5.77826 25.434 5.53641C25.317 5.4865 25.1506 5.41147 24.9419 5.38634C24.6833 5.33643 24.4166 5.34481 24.158 5.40309C23.4077 4.80281 22.1733 4.8946 21.5063 5.58666C21.106 5.46975 20.6809 5.49488 20.2806 5.64495C20.6558 5.90355 20.981 6.22883 21.2313 6.60396C21.6149 7.17109 21.8232 7.81323 21.8567 8.47178C22.0319 8.72202 22.1736 8.98865 22.2821 9.28076C22.4821 9.19735 22.7076 9.14744 22.9411 9.14744C23.8583 9.14744 24.6089 9.89779 24.6089 10.8153C24.6089 11.7408 23.8586 12.4832 22.9411 12.4832C22.6409 12.4832 22.3492 12.3998 22.1073 12.2581C22.1572 12.917 22.0239 13.5839 21.7154 14.1925C21.432 14.7764 20.965 15.285 20.3979 15.6433C20.3396 15.7602 20.273 15.8768 20.206 15.9853C20.6394 16.2104 21.1399 16.2687 21.5817 16.1605C21.6316 16.1438 21.6902 16.127 21.7401 16.1106C22.0985 16.4526 22.5823 16.6526 23.1079 16.6526H23.1997C23.75 16.6275 24.2421 16.3776 24.5838 15.9857C25.1007 16.1106 25.651 16.0192 26.1096 15.7187C26.5766 15.4186 26.8851 14.9516 26.9852 14.4428C27.4857 14.2843 27.9107 13.9259 28.161 13.4338C28.4028 12.9417 28.428 12.383 28.2612 11.8912C28.6116 11.5077 28.8032 10.9908 28.7696 10.4404V10.4237C28.7281 9.87332 28.4695 9.38963 28.0776 9.05593C28.1774 8.53836 28.0772 7.9964 27.7687 7.54584L27.7688 7.54597Z" fill="#4C3F53"/>
<path id="Vector_4" d="M23.5489 1.69169C23.3821 1.1996 23.0237 0.774485 22.5233 0.54103C22.123 0.349084 21.6728 0.307548 21.2473 0.39934C20.489 -0.201291 19.2629 -0.109499 18.596 0.574534C18.0875 0.441215 17.5371 0.499499 17.0534 0.782883C16.578 1.05789 16.2611 1.50845 16.1362 2.0169C15.686 2.13381 15.2689 2.42557 15.0023 2.83425C14.9608 2.73409 14.9105 2.63427 14.8439 2.54249C14.5354 2.07553 14.0684 1.78377 13.5431 1.69198C13.3763 1.1999 13.0179 0.77478 12.5174 0.541325C12.1171 0.349379 11.6669 0.307843 11.2415 0.399635C10.4825 -0.201345 9.2564 -0.109553 8.58945 0.574481C8.08096 0.441162 7.53055 0.499446 7.04684 0.78283C6.5715 1.05784 6.25461 1.5084 6.12964 2.01684C5.62917 2.15016 5.17893 2.48381 4.91233 2.96755C4.81217 3.14275 4.74551 3.32597 4.70398 3.50955C5.0624 3.39263 5.4463 3.33435 5.84624 3.33435C6.41336 3.33435 6.96375 3.45929 7.44746 3.68475H7.50574C8.04773 3.68475 8.58974 3.80969 9.07345 4.04317C9.19839 4.10145 9.33206 4.16811 9.44863 4.24315C9.62382 4.17649 9.81542 4.14298 10.0158 4.14298C10.3826 4.14298 10.7329 4.2599 11.0079 4.47663C11.0746 4.42672 11.1412 4.38485 11.2079 4.34331C11.7834 4.00967 12.4252 3.83482 13.0673 3.83482H13.1423C13.7011 3.51793 14.3516 3.33435 15.027 3.33435C15.5773 3.33435 16.1194 3.45929 16.6031 3.68475H16.6697C17.2117 3.68475 17.7537 3.80969 18.2458 4.04317C18.4542 4.14333 18.6545 4.2599 18.8377 4.40159L19.6966 4.0847C20.1137 3.92625 20.5555 3.84284 20.989 3.84284H21.0473C21.6144 3.51758 22.273 3.33435 22.957 3.33435C23.5157 3.33435 24.0494 3.45929 24.5331 3.68475H24.5914C24.7997 3.68475 24.9917 3.7015 25.1917 3.73466C25.2084 3.3176 25.0999 2.9009 24.8497 2.5421C24.5415 2.07513 24.0745 1.78337 23.5489 1.69159L23.5489 1.69169Z" fill="#4C3F53"/>
<path id="Vector_5" d="M6.09662 16.6508C6.66375 16.6257 7.17223 16.3674 7.48913 15.9839C8.006 16.1088 8.55634 16.0174 9.01494 15.7169C9.10672 15.6586 9.18176 15.6 9.25679 15.5249C9.01494 15.2998 8.79821 15.0496 8.62301 14.7662C8.26459 14.1823 8.08101 13.5238 8.08101 12.8649C7.71421 12.3061 7.51389 11.6476 7.50552 10.9887C7.4221 11.8308 6.70492 12.4813 5.84605 12.4813C4.92053 12.4813 4.17818 11.739 4.17818 10.8135C4.17818 9.89627 4.9205 9.1456 5.84605 9.1456C6.76325 9.1456 7.50551 9.88792 7.51391 10.8051C7.52229 10.188 7.68911 9.59581 7.98925 9.07895C7.96412 8.40364 8.12257 7.74469 8.46459 7.14448C8.64816 6.81084 8.88164 6.5107 9.16502 6.26047C8.97307 5.96033 8.68968 5.70173 8.34767 5.54328C7.94736 5.35134 7.49716 5.3098 7.07175 5.40159C6.32141 4.80969 5.08698 4.88472 4.45318 5.54328C4.4448 5.56004 4.43642 5.56841 4.41967 5.57679C3.91921 5.44347 3.36077 5.50175 2.87707 5.78514C2.40173 6.06015 2.08484 6.51071 1.95986 7.01915C1.45939 7.15247 1.00916 7.48612 0.742554 7.96986C0.467545 8.45357 0.41729 9.00392 0.567361 9.51247C0.208941 9.87927 -0.00813782 10.3881 0.000233682 10.9301C0.00860965 11.4888 0.242087 11.9973 0.63402 12.3561C0.509081 12.8646 0.575737 13.415 0.867501 13.8819C1.15926 14.3489 1.61785 14.6574 2.12671 14.7743C2.27678 15.2748 2.6188 15.7166 3.11056 15.9836C3.59428 16.2338 4.14463 16.267 4.64477 16.1085C5.00319 16.4505 5.48691 16.6505 6.00414 16.6505L6.09662 16.6508Z" fill="#4C3F53"/>
<path id="Vector_6" d="M10.0406 13.8832C10.3323 14.3501 10.7909 14.667 11.2998 14.7756C11.4498 15.276 11.7919 15.7179 12.2756 15.9764C12.7677 16.235 13.3264 16.2682 13.8182 16.1097C14.1766 16.4518 14.6603 16.6517 15.1775 16.6517H15.2693C15.8197 16.6266 16.3202 16.3767 16.6702 15.9848C17.1787 16.1097 17.7211 16.0183 18.188 15.7178C18.655 15.4177 18.9551 14.9507 19.0553 14.4419C19.5557 14.2835 19.9892 13.9334 20.231 13.4329C20.4813 12.9409 20.506 12.3905 20.3396 11.8987C20.6648 11.5403 20.8481 11.065 20.8481 10.5562V10.4312C20.8065 9.88085 20.5479 9.38876 20.1476 9.05551C20.2562 8.53864 20.156 7.99661 19.8475 7.53774C19.539 7.07916 19.0636 6.78739 18.5467 6.6956C18.3799 6.20352 18.0215 5.7784 17.5211 5.54495C17.1208 5.353 16.6622 5.30309 16.2367 5.40326C15.4613 4.80297 14.252 4.90279 13.5934 5.57845C13.0849 5.43676 12.5345 5.50342 12.0592 5.77843C11.5839 6.06182 11.2586 6.51237 11.1337 7.02084C10.6252 7.15416 10.183 7.48781 9.91639 7.97155C9.64138 8.45526 9.59113 9.00561 9.7412 9.50576C9.3744 9.88093 9.1657 10.3898 9.17407 10.9485C9.18245 11.4989 9.42431 11.9993 9.80786 12.3577C9.67384 12.8575 9.74888 13.4078 10.0406 13.8832L10.0406 13.8832ZM15.0187 9.14687C15.9359 9.14687 16.6866 9.89722 16.6866 10.8147C16.6866 11.7403 15.9362 12.4826 15.0187 12.4826C14.0932 12.4826 13.3508 11.7403 13.3508 10.8147C13.3512 9.89718 14.0931 9.14687 15.0187 9.14687Z" fill="#4C3F53"/>
<path id="Vector_7" d="M28.9776 27.2011C28.8526 26.8758 28.5441 26.6591 28.1937 26.6591H9.64865L10.9246 30.7116L10.7494 30.995L16.3529 31.6455L18.3624 32.221L27.9687 34.9645C28.0437 34.9896 28.1187 34.998 28.1938 34.998C28.4688 34.998 28.7358 34.8647 28.8858 34.6228C29.0858 34.3227 29.0694 33.9224 28.8443 33.639L26.1759 30.3367L28.7358 28.1269C29.0031 27.8931 29.0945 27.5263 28.978 27.201L28.9776 27.2011Z" fill="#4C3F53"/>
</g>
</svg>
