<svg width="37" height="39" viewBox="0 0 37 39" fill="none" xmlns="http://www.w3.org/2000/svg">
<g id="Group">
<path id="Vector" d="M2.73829 8.03185L0.939281 6.57019L1.04783 8.33521C1.07503 8.77782 1.39931 9.13937 1.83646 9.21445L3.44095 9.48975C3.8112 9.07162 4.21273 8.67577 4.64368 8.30527L3.61861 8.33166C3.60691 8.33193 3.59549 8.3322 3.58379 8.3322C3.27665 8.3322 2.97744 8.22609 2.73829 8.03185Z" fill="#4C3F53"/>
<path id="Vector_2" d="M12.427 26.991C10.9425 26.9244 9.48514 26.4975 8.2008 25.7497C6.81992 24.9455 5.66699 23.7839 4.86638 22.3906C3.64492 20.2635 3.32443 17.7882 3.96486 15.42C4.60529 13.0519 6.12893 11.0755 8.25602 9.8538C10.3828 8.63234 12.8584 8.31185 15.2265 8.95228C17.5944 9.59239 19.5711 11.1164 20.7928 13.2434C22.0142 15.3703 22.3347 17.8458 21.6943 20.2133C21.0539 22.5811 19.5302 24.5578 17.4031 25.7795C17.1491 25.9253 16.8868 26.0589 16.6199 26.1802C17.1961 26.9806 17.8931 27.655 18.6703 28.1941C18.7002 28.1773 18.7307 28.161 18.7606 28.1438C24.455 24.8733 26.4269 17.5797 23.1565 11.8858C19.886 6.19139 12.5924 4.21953 6.89847 7.48987C1.20408 10.7604 -0.767775 18.0539 2.50257 23.7479C4.88727 27.9001 9.55944 30.2151 14.2749 29.6406C13.6683 28.9724 13.1291 28.2341 12.6688 27.4327C12.5845 27.2863 12.5048 27.1386 12.4275 26.9906L12.427 26.991Z" fill="#4C3F53"/>
<path id="Vector_3" d="M3.60186 7.69361L5.48137 7.64492C5.483 7.64383 5.48436 7.64247 5.48599 7.64138L1.12978 2.51367L0.0954529 4.29986C-0.0786534 4.6002 -0.00928229 4.97725 0.260311 5.19623L3.14093 7.53657C3.2707 7.64212 3.43338 7.69843 3.60177 7.69354L3.60186 7.69361Z" fill="#4C3F53"/>
<path id="Vector_4" d="M8.68888 4.7447C8.80205 4.59426 8.85047 4.40111 8.82163 4.21476L8.26014 0.600663C8.20682 0.257618 7.916 0.00761541 7.56888 0.00652899L5.50488 0L7.65725 6.11468L8.68888 4.7447Z" fill="#4C3F53"/>
<path id="Vector_5" d="M6.57982 6.93448C6.77134 6.82458 6.96449 6.72039 7.15927 6.62164L4.87987 0.146484L1.57324 2.04564L6.01755 7.27725C6.2009 7.15891 6.3883 7.04439 6.57982 6.93448Z" fill="#4C3F53"/>
<path id="Vector_6" d="M9.20066 5.12872L8.52246 6.02975C9.12938 5.8075 9.74636 5.63475 10.3677 5.51097L10.9387 3.98615C11.0943 3.57075 10.9455 3.10851 10.5769 2.86205L9.1071 1.87891L9.45477 4.11589C9.50972 4.472 9.4172 4.84089 9.20066 5.12872Z" fill="#4C3F53"/>
<path id="Vector_7" d="M36.1182 33.8042L33.2376 31.4638C33.1078 31.3583 32.9427 31.3025 32.7767 31.3069L30.8972 31.3556C30.8956 31.3567 30.8942 31.3577 30.8926 31.3588L35.2485 36.4865L36.2828 34.7006C36.4569 34.4002 36.3878 34.0232 36.1183 33.8042L36.1182 33.8042Z" fill="#4C3F53"/>
<path id="Vector_8" d="M27.6888 34.2545C27.5756 34.405 27.5272 34.5981 27.556 34.7845L28.1175 38.3988C28.1708 38.7418 28.4616 38.9918 28.8088 38.9929L30.8728 38.9995L28.7204 32.8848L27.6888 34.2545Z" fill="#4C3F53"/>
<path id="Vector_9" d="M29.7986 32.0635C29.6076 32.1731 29.4139 32.2762 29.2189 32.3753L31.4986 38.8515L34.8052 36.9523L30.3609 31.7207C30.1775 31.839 29.9901 31.9536 29.7986 32.0635Z" fill="#4C3F53"/>
<path id="Vector_10" d="M27.178 33.8712L27.8546 32.9727C27.2509 33.1946 26.6342 33.3693 26.0087 33.495L25.4402 35.0138C25.2846 35.4292 25.4334 35.8914 25.802 36.1382L27.2718 37.1211L26.9241 34.8838C26.8689 34.528 26.9614 34.1591 27.1779 33.8713L27.178 33.8712Z" fill="#4C3F53"/>
<path id="Vector_11" d="M33.8762 15.2527C31.4907 11.0994 26.8158 8.78463 22.1003 9.36057C22.7043 10.0227 23.2462 10.7594 23.7105 11.5679C23.7943 11.714 23.874 11.8614 23.9516 12.0094C25.4339 12.0761 26.8891 12.5015 28.1725 13.2477C29.5558 14.0519 30.7107 15.2146 31.5121 16.6101C32.7336 18.7369 33.0541 21.2125 32.4136 23.58C31.7732 25.9478 30.2495 27.9245 28.1225 29.1462C26.6847 29.9718 25.1145 30.3641 23.5647 30.3641C20.3813 30.3641 17.2825 28.7095 15.5865 25.7566C13.0646 21.3658 14.5853 15.742 18.9758 13.2202C19.2302 13.0741 19.4927 12.9408 19.759 12.8195C19.1913 12.0289 18.5006 11.3497 17.7141 10.8026C17.682 10.8205 17.6499 10.8379 17.6181 10.8562C11.9237 14.1267 9.95183 21.4202 13.2222 27.1142C14.8065 29.8727 17.37 31.8491 20.4406 32.6794C23.5117 33.5096 26.7217 33.0942 29.4802 31.5101C35.1749 28.2402 37.1472 20.9467 33.8764 15.2521L33.8762 15.2527Z" fill="#4C3F53"/>
<path id="Vector_12" d="M34.5416 29.7851L32.9371 29.5098C32.5669 29.9279 32.1653 30.3237 31.7344 30.694L32.7594 30.6673C33.081 30.661 33.3917 30.7655 33.6398 30.9671L35.4388 32.4288L35.3303 30.6637C35.3031 30.2217 34.9787 29.8601 34.5416 29.7851Z" fill="#4C3F53"/>
</g>
</svg>
