<svg width="208" height="267" viewBox="0 0 208 267" fill="none" xmlns="http://www.w3.org/2000/svg">
<path d="M206.032 233.684L202.095 237.191L201.762 236.818L197.826 240.324L198.158 240.698L194.221 244.205L193.889 243.831L189.952 247.338L190.285 247.712L186.348 251.219L186.015 250.845L182.079 254.352L182.411 254.726L178.475 258.233L178.142 257.859L174.205 261.366L174.538 261.74L170.601 265.247L170.269 264.873L168.442 266.5H166.153V267H161.193V266.5H156.233V267H151.273V266.5H146.314V267H141.354V266.5H136.394V267H131.434V266.5H126.475V267H121.515V266.5H116.555V267H111.595V266.5H106.635V267H101.676V266.5H96.7158V267H91.756V266.5H86.7963V267H81.8365V266.5H76.8767V267H71.9169V266.5H66.9571V267H61.9973V266.5H57.0375V267H52.0778V266.5H47.118V267H42.1582V266.5H37.1984V267H32.2386V266.5H27.2788V267H22.319V266.5H17.3593V267H12.3995V266.5H7.43968V267H2.47989V266.5H0.5V264.528H0V259.583H0.5V254.639H0V249.694H0.5V244.75H0V239.805H0.5V234.861H0V229.917H0.5V224.972H0V220.028H0.5V215.083H0V210.139H0.5V205.194H0V200.25H0.5V195.305H0V190.361H0.5V185.417H0V180.472H0.5V175.528H0V170.583H0.5V165.639H0V160.694H0.5V155.75H0V150.806H0.5V145.861H0V140.917H0.5V135.972H0V131.028H0.5V126.083H0V121.139H0.5V116.194H0V111.25H0.5V106.306H0V101.361H0.5V96.4166H0V91.4722H0.5V86.5278H0V81.5833H0.5V76.6389H0V71.6944H0.5V66.75H0V61.8055H0.5V56.8611H0V51.9167H0.5V46.9722H0V42.0278H0.5V37.0833H0V32.1389H0.5V27.1944H0V22.25H0.5V17.3056H0V12.3611H0.5V7.41667H0V2.47222H0.5V0.5H2.47629V0H7.42867V0.5H12.381V0H17.3334V0.5H22.2858V0H27.2382V0.5H32.1906V0H37.1429V0.5H42.0953V0H47.0477V0.5H52.0001V0H56.9524V0.5H61.9048V0H66.8572V0.5H71.8096V0H76.7619V0.5H81.7143V0H86.6667V0.5H91.6191V0H96.5715V0.5H101.524V0H106.476V0.5H111.429V0H116.381V0.5H121.333V0H126.286V0.5H131.238V0H136.19V0.5H141.143V0H146.095V0.5H151.048V0H156V0.5H160.952V0H165.905V0.5H170.857V0H175.81V0.5H180.762V0H185.714V0.5H190.667V0H195.619V0.5H200.571V0H205.524V0.5H207.5V2.52105H208V7.56302H207.5V12.605H208V17.6469H207.5V22.6889H208V27.7309H207.5V32.7728H208V37.8148H207.5V42.8567H208V47.8987H207.5V52.9407H208V57.9826H207.5V63.0246H208V68.0666H207.5V73.1085H208V78.1505H207.5V83.1924H208V88.2344H207.5V93.2764H208V98.3183H207.5V103.36H208V108.402H207.5V113.444H208V118.486H207.5V123.528H208V128.57H207.5V133.612H208V138.654H207.5V143.696H208V148.738H207.5V153.78H208V158.822H207.5V163.864H208V168.906H207.5V173.948H208V178.99H207.5V184.032H208V189.074H207.5V194.116H208V199.158H207.5V204.2H208V209.242H207.5V214.284H208V219.326H207.5V224.368H208V229.409H207.5V231.706L205.699 233.311L206.032 233.684Z" fill="url(#paint0_linear_2545_66)" fill-opacity="0.08" stroke="url(#paint1_linear_2545_66)" stroke-dasharray="5 5"/>
<defs>
<linearGradient id="paint0_linear_2545_66" x1="2.14134e-06" y1="-193.034" x2="313.362" y2="-134.088" gradientUnits="userSpaceOnUse">
<stop stop-color="#159F36"/>
<stop offset="1" stop-color="#CBDA1B"/>
</linearGradient>
<linearGradient id="paint1_linear_2545_66" x1="-16.1958" y1="-537.814" x2="429.282" y2="-424.839" gradientUnits="userSpaceOnUse">
<stop stop-color="#159F36"/>
<stop offset="1" stop-color="#CBDA1B"/>
</linearGradient>
</defs>
</svg>
