<svg width="41" height="41" viewBox="0 0 41 41" fill="none" xmlns="http://www.w3.org/2000/svg">
<g id="mdi:microphone-variant">
<path id="Vector" d="M15.3743 5.125C17.1867 5.125 18.9247 5.84494 20.2062 7.12644C21.4877 8.40794 22.2077 10.146 22.2077 11.9583H8.54102C8.54102 10.146 9.26095 8.40794 10.5425 7.12644C11.824 5.84494 13.562 5.125 15.3743 5.125ZM20.226 16.7758L18.791 30.75H17.0827V32.4583C17.0827 33.3645 17.4427 34.2335 18.0834 34.8743C18.7242 35.515 19.5932 35.875 20.4993 35.875C21.4055 35.875 22.2745 35.515 22.9153 34.8743C23.556 34.2335 23.916 33.3645 23.916 32.4583V23.9167C23.916 22.1044 24.636 20.3663 25.9175 19.0848C27.199 17.8033 28.937 17.0833 30.7493 17.0833H34.166L32.4577 18.7917L34.166 20.5H30.7493C29.8432 20.5 28.9742 20.86 28.3334 21.5007C27.6927 22.1415 27.3327 23.0105 27.3327 23.9167V32.4583C27.3327 34.2707 26.6127 36.0087 25.3312 37.2902C24.0497 38.5717 22.3117 39.2917 20.4993 39.2917C18.687 39.2917 16.949 38.5717 15.6675 37.2902C14.386 36.0087 13.666 34.2707 13.666 32.4583V30.75H11.9577L10.5227 16.7758C9.6856 15.9217 9.0706 14.8625 8.7631 13.6667H21.9856C21.6781 14.8625 21.0631 15.9217 20.226 16.7758ZM15.3743 18.7917C14.9213 18.7917 14.4867 18.9717 14.1664 19.292C13.846 19.6124 13.666 20.0469 13.666 20.5C13.666 20.9531 13.846 21.3876 14.1664 21.708C14.4867 22.0284 14.9213 22.2083 15.3743 22.2083C15.8274 22.2083 16.2619 22.0284 16.5823 21.708C16.9027 21.3876 17.0827 20.9531 17.0827 20.5C17.0827 20.0469 16.9027 19.6124 16.5823 19.292C16.2619 18.9717 15.8274 18.7917 15.3743 18.7917Z" fill="#6BCB86"/>
</g>
</svg>
