<svg width="30" height="30" viewBox="0 0 30 30" fill="none" xmlns="http://www.w3.org/2000/svg">
<path d="M2.58708 5.74961C3.58708 1.42461 10.0996 1.42461 11.0871 5.74961C11.6746 8.28711 10.0621 10.4371 8.66208 11.7746C7.63708 12.7496 6.02458 12.7371 4.99958 11.7746C3.61208 10.4371 1.99958 8.28711 2.58708 5.74961Z" stroke="white" stroke-width="1.5"/>
<path d="M18.837 20.7496C19.837 16.4246 26.387 16.4246 27.387 20.7496C27.9745 23.2871 26.362 25.4371 24.9495 26.7746C23.9245 27.7496 22.2995 27.7371 21.2745 26.7746C19.862 25.4371 18.2495 23.2871 18.837 20.7496Z" stroke="white" stroke-width="1.5"/>
<path d="M14.9991 6.25H18.3491C20.6616 6.25 21.7366 9.1125 19.9991 10.6375L10.0116 19.375C8.27414 20.8875 9.34914 23.75 11.6491 23.75H14.9991" stroke="white" stroke-width="1.5" stroke-linecap="round" stroke-linejoin="round"/>
<path d="M6.85765 6.875H6.87209" stroke="white" stroke-width="2" stroke-linecap="round" stroke-linejoin="round"/>
<path d="M23.1076 21.875H23.1221" stroke="white" stroke-width="2" stroke-linecap="round" stroke-linejoin="round"/>
</svg>
