<svg width="61" height="60" viewBox="0 0 61 60" fill="none" xmlns="http://www.w3.org/2000/svg">
<path d="M43.0455 33.5097H30.7437C32.4425 29.4209 32.4778 24.8166 30.779 20.68C30.7672 20.6447 30.7437 20.6094 30.7324 20.574C30.0294 19.3089 28.6942 18.5706 27.2524 18.6295C25.8107 18.7001 24.5456 19.5551 23.9599 20.8786C23.9133 20.9723 23.8893 21.0783 23.878 21.195L23.5847 25.3073C23.151 27.6855 21.8741 29.8066 19.9757 31.3175C19.2379 31.5756 17.8434 32.5243 14.1995 35.9812V35.7938C14.1995 34.6929 13.3091 33.8017 12.2074 33.8017H1.99208C0.890317 33.8017 0 34.693 0 35.7938V56.1918C0 57.2927 0.890354 58.1839 1.99208 58.1839H12.2084C13.3092 58.1839 14.2004 57.2936 14.2004 56.1918V56.0628C17.0476 56.6839 18.5232 57.4216 20.246 59.0268C20.9372 59.6718 21.7696 60 22.7184 60H38.559C40.7739 60 42.5777 58.1957 42.5777 55.9814C42.5777 54.9973 42.2147 54.083 41.6289 53.3923C42.9064 52.6422 43.8084 51.2834 43.8084 49.8304C43.8084 48.8929 43.4807 48.0261 42.9416 47.3349C44.2421 46.5849 45.1678 45.1794 45.1678 43.6794C45.1678 42.789 44.8744 41.9689 44.3947 41.3124C45.9414 40.762 47.0662 39.2742 47.0662 37.5279C47.0535 35.314 45.2609 33.5093 43.0461 33.5093L43.0455 33.5097ZM12.3368 56.1919C12.3368 56.2503 12.2785 56.3087 12.2201 56.3087L1.99163 56.3092C1.93324 56.3092 1.87486 56.2508 1.87486 56.1924V35.7943C1.87486 35.7359 1.93325 35.6775 1.99163 35.6775H12.2079C12.2663 35.6775 12.3247 35.7359 12.3247 35.7943V56.1924L12.3368 56.1919ZM43.0455 39.6594H39.6592C39.1441 39.6594 38.7217 40.0808 38.7217 40.5968C38.7217 41.1119 39.1431 41.5342 39.6592 41.5342H41.1592C42.3429 41.5342 43.3034 42.4948 43.3034 43.6784C43.3034 44.7915 42.2026 45.9276 41.0656 46.0214C40.6672 45.8924 40.2449 45.8218 39.8004 45.8218C39.2853 45.8218 38.863 46.2432 38.863 46.7592C38.863 47.2752 39.2844 47.6966 39.8004 47.6966C40.0584 47.6966 40.3042 47.7432 40.5382 47.8256C40.5613 47.8374 40.5849 47.8487 40.6202 47.861C41.3933 48.1774 41.9436 48.9505 41.9436 49.8409C41.9436 50.9304 40.7953 52.0434 39.6352 52.1253C39.2952 52.0317 38.9435 51.985 38.5805 51.985C38.0654 51.985 37.643 52.4064 37.643 52.9225C37.643 53.4376 38.0644 53.8599 38.5805 53.8599C38.7914 53.8599 39.0019 53.8952 39.1893 53.9536C39.2123 53.9654 39.2359 53.9654 39.2599 53.9767C40.1036 54.2578 40.7125 55.0662 40.7125 56.0041C40.7125 57.1877 39.7519 58.1483 38.5683 58.1483L22.73 58.1492C22.2611 58.1492 21.875 57.9971 21.5355 57.6802C19.4737 55.7588 17.6572 54.8919 14.2125 54.1773V38.5813C14.2125 38.5813 14.2243 38.5813 14.2243 38.5695L14.3999 38.4052C19.2156 33.7184 20.3753 33.1445 20.6099 33.0861C20.7502 33.063 20.891 32.9924 20.9969 32.9105C23.352 31.1062 24.9217 28.5048 25.4487 25.5998C25.4605 25.5645 25.4605 25.5292 25.4605 25.5061L25.7416 21.5228C26.058 20.9249 26.6559 20.5501 27.3354 20.5157C28.0501 20.4804 28.7065 20.8434 29.0695 21.4531C30.7217 25.5419 30.4873 30.1232 28.4367 34.0249C28.2847 34.3182 28.2964 34.669 28.4598 34.9506C28.6241 35.2316 28.9288 35.4073 29.2565 35.4073H43.0348C44.2185 35.4073 45.179 36.3678 45.179 37.5515C45.179 38.7347 44.2175 39.6594 43.0461 39.6594L43.0455 39.6594ZM8.96308 38.9098V39.0266C8.96308 39.5417 8.54168 39.964 8.02565 39.964C7.50962 39.964 7.08822 39.5426 7.08822 39.0266V38.9098C7.08822 38.3947 7.50962 37.9724 8.02565 37.9724C8.54168 37.9719 8.96308 38.3942 8.96308 38.9098ZM56.637 0C55.0201 0 53.6608 1.16015 53.3566 2.68286L42.9525 7.76798H35.6419C34.1418 7.76798 32.9237 8.98646 32.9237 10.4862V17.7851C32.9237 18.9213 33.6266 19.894 34.6112 20.3045V22.0857C34.6112 22.1916 34.6342 22.3084 34.6696 22.4134L37.4347 29.9591C37.7158 30.7205 38.4188 31.2242 39.239 31.2242H43.3631C44.0072 31.2242 44.5929 30.9196 44.957 30.3805C45.32 29.8414 45.3906 29.1968 45.1566 28.588L41.9464 20.515H42.9657L53.3698 25.6001C53.6744 27.1345 55.0333 28.283 56.6502 28.283C58.501 28.283 60.0012 26.7829 60.0012 24.932V3.35144C59.987 1.50063 58.4878 0.000457964 56.637 0.000457964L56.637 0ZM44.1122 9.29105L53.2983 4.80391V23.4687L44.1122 18.9816V9.29105ZM34.7976 10.4865C34.7976 10.0176 35.1724 9.64277 35.6414 9.64277H42.2374V18.6292H35.6762C35.6409 18.6292 35.5943 18.6175 35.5594 18.6175H35.5477C35.1376 18.5591 34.8099 18.2074 34.8099 17.7855V10.4865L34.7976 10.4865ZM40.1054 20.9844L43.4092 29.2791C43.421 29.2908 43.421 29.3021 43.421 29.3021C43.421 29.3021 43.421 29.3139 43.4092 29.3252C43.3975 29.337 43.3975 29.3483 43.3975 29.3483H43.3744H39.2503C39.2272 29.3483 39.215 29.3483 39.2037 29.313L36.4968 21.9203V20.5026H40.0465V20.6316C40.0347 20.7493 40.0578 20.8671 40.1054 20.9844ZM58.1133 24.9328C58.1133 25.7413 57.4569 26.4089 56.6372 26.4089C55.8288 26.4089 55.1611 25.7526 55.1611 24.9328L55.1616 3.3511C55.1616 2.54268 55.818 1.87504 56.6377 1.87504C57.4461 1.87504 58.1137 2.53138 58.1137 3.3511L58.1133 24.9328Z" fill="#6BCB86"/>
</svg>
