<svg width="56" height="60" viewBox="0 0 56 60" fill="none" xmlns="http://www.w3.org/2000/svg">
<path d="M2.33298 22.6595V52.0301L0.937433 52.0306C0.419978 52.0306 0 52.4506 0 52.968V55.3288C0.00282497 57.9072 2.09236 59.9967 4.67119 60H51.177C53.7554 59.9972 55.845 57.9076 55.8482 55.3288V52.968C55.8482 52.4506 55.4282 52.0306 54.9108 52.0306H53.5152L53.5143 22.6599C53.5119 20.7173 51.9384 19.1442 49.9961 19.1418H40.5784C39.0542 13.4188 33.893 9.42043 27.9705 9.37475H27.9587C22.036 9.41995 16.8747 13.4188 15.3496 19.1418H5.85137C3.9092 19.1432 2.33562 20.7176 2.33321 22.6599L2.33298 22.6595ZM53.9724 55.3291C53.971 56.8726 52.7199 58.1236 51.1766 58.1249H4.67075C3.1273 58.1235 1.87628 56.8725 1.87495 55.3291V53.9057H19.4646V54.9858C19.4655 55.928 20.2287 56.6912 21.1708 56.6921H34.6767C35.6189 56.6912 36.3817 55.928 36.383 54.9858V53.9057H53.9726L53.9724 55.3291ZM21.3389 53.9057H34.5097V54.8168H21.3389V53.9057ZM18.2746 16.9197C21.3596 11.5678 28.1985 9.72962 33.55 12.8145C38.9019 15.8994 40.7401 22.7383 37.6553 28.0898C37.5474 28.2772 37.434 28.4608 37.3153 28.6416C35.6288 30.443 34.4705 32.6743 33.9681 35.0902C33.8984 35.4556 33.5759 35.7174 33.2044 35.7112H30.9349L30.9354 27.9998H31.8564C33.4007 27.9998 34.6522 26.7478 34.6517 25.204C34.6517 23.6597 33.3997 22.4082 31.8559 22.4082C30.3116 22.4082 29.0606 23.6602 29.0606 25.204V26.125H26.8683V25.204C26.8683 23.6597 25.6163 22.4082 24.0725 22.4082C22.5282 22.4082 21.2767 23.6602 21.2767 25.204C21.2767 26.7483 22.5287 27.9998 24.0725 27.9998H24.9935V35.7112H22.724C22.3521 35.7174 22.0305 35.4556 21.9603 35.0902C21.4579 32.6743 20.2997 30.443 18.6131 28.6416C16.2994 25.1108 16.169 20.5785 18.2741 16.9191L18.2746 16.9197ZM31.9565 38.9474C31.9556 39.3778 31.6071 39.7267 31.1763 39.7276H24.7517C24.3214 39.7267 23.9725 39.3782 23.9715 38.9474V37.5862H31.956L31.9565 38.9474ZM30.1005 41.6024C29.487 42.7824 28.0344 43.241 26.8545 42.6284C26.4152 42.4005 26.0574 42.0417 25.8286 41.6024H30.1005ZM24.9938 26.1246H24.0729C23.5644 26.1246 23.1519 25.7121 23.1519 25.2036C23.1519 24.6951 23.5644 24.2827 24.0729 24.2827C24.5814 24.2827 24.9938 24.6951 24.9938 25.2036V26.1246ZM29.0609 35.7108H26.8686V27.9994H29.0609V35.7108ZM30.9358 26.1246V25.2036C30.9358 24.6951 31.3483 24.2827 31.8568 24.2827C32.3653 24.2827 32.7777 24.6951 32.7777 25.2036C32.7777 25.7121 32.3653 26.1246 31.8568 26.1246H30.9358ZM17.0924 29.7416C17.1226 29.7873 17.156 29.8301 17.1946 29.8697C18.6731 31.4291 19.6877 33.3684 20.1247 35.4721C20.3271 36.4788 21.0984 37.2749 22.097 37.5113V38.9469C22.0984 40.0383 22.766 41.0167 23.7807 41.4174C24.2939 43.7273 26.5817 45.1845 28.8921 44.6723C30.5174 44.3116 31.7864 43.0426 32.147 41.4174C33.1617 41.0176 33.8298 40.0383 33.8308 38.9469V37.5113C34.8304 37.2759 35.6007 36.4792 35.8031 35.4721C36.2405 33.3684 37.2552 31.4281 38.734 29.8692C38.7717 29.8296 38.806 29.7868 38.8362 29.7411C40.5429 27.1718 41.2874 24.0807 40.9352 21.0155H49.995C50.9018 21.0164 51.6373 21.7514 51.6383 22.6587V52.0294H4.20793V22.6587C4.20887 21.7519 4.94386 21.0165 5.85118 21.0155H14.993C14.6413 24.0817 15.3843 27.1722 17.092 29.7416H17.0924ZM27.9645 7.92847C27.4471 7.92847 27.0271 7.50848 27.0271 6.99104V0.937433C27.0271 0.419978 27.4471 0 27.9645 0C28.482 0 28.902 0.41999 28.902 0.937433V6.99152C28.902 7.5085 28.482 7.92847 27.9645 7.92847ZM40.9533 15.0876C40.4359 15.0876 40.0159 14.6676 40.0159 14.1502C40.0159 13.9011 40.1148 13.6629 40.2904 13.4872L44.5053 9.27324C44.8655 8.90128 45.4588 8.89091 45.8312 9.25064C46.2032 9.61083 46.2136 10.2041 45.8538 10.5765C45.8463 10.584 45.8388 10.5921 45.8308 10.5996L41.6167 14.8136C41.4411 14.9883 41.2024 15.0876 40.9533 15.0876ZM41.7109 27.2483C41.7109 26.7309 42.1309 26.3109 42.6483 26.3109H48.7113C49.2288 26.3109 49.6488 26.7309 49.6488 27.2483C49.6488 27.7658 49.2288 28.1858 48.7113 28.1858H42.6483C42.1309 28.1858 41.7109 27.7658 41.7109 27.2483ZM37.0237 37.8978C36.6578 37.532 36.6578 36.9378 37.0237 36.5719C37.3895 36.2061 37.9837 36.2061 38.3496 36.5719L42.5861 40.8085C42.9501 41.1767 42.9463 41.7709 42.5776 42.1343C42.2123 42.495 41.6251 42.495 41.2597 42.1343L37.0237 37.8978ZM12.9698 40.2798L17.3086 35.941C17.6744 35.5752 18.2686 35.5752 18.6345 35.941C19.0003 36.3069 19.0003 36.9011 18.6345 37.2669L14.2952 41.6057C13.9294 41.9715 13.3352 41.9715 12.9693 41.6057C12.603 41.2398 12.603 40.6457 12.9698 40.2798ZM13.1657 27.8129H7.1357C6.61825 27.8129 6.19827 27.3929 6.19827 26.8755C6.19827 26.358 6.61826 25.9381 7.1357 25.9381H13.1657C13.6831 25.9381 14.1031 26.358 14.1031 26.8755C14.1031 27.3929 13.6841 27.8129 13.1657 27.8129ZM14.3734 14.7193L10.1636 10.5095C9.7978 10.1436 9.7978 9.54944 10.1636 9.1836C10.5295 8.81775 11.1237 8.81775 11.4895 9.1836L15.6993 13.3934C16.0633 13.7616 16.0595 14.3558 15.6908 14.7193C15.3259 15.0799 14.7384 15.0799 14.3734 14.7193Z" fill="#6BCB86"/>
</svg>
