<svg width="62" height="60" viewBox="0 0 62 60" fill="none" xmlns="http://www.w3.org/2000/svg">
<path d="M7.37571 45.1747C7.34966 45.2162 7.3265 45.2601 7.3072 45.3054L2.7936 56.0799C2.2586 57.3627 2.75839 58.8418 3.96011 59.539L4.11932 59.6311C5.32345 60.3243 6.85511 60.0161 7.69702 58.9118L14.2089 50.3535C18.0832 52.3933 22.3961 53.4628 26.7751 53.4695C31.1261 53.4671 35.4096 52.3946 39.2487 50.3458L45.7659 58.9108C46.6087 60.0151 48.1405 60.3234 49.3446 59.6301L49.5038 59.538C50.7055 58.8409 51.2053 57.3617 50.6703 56.0789L46.1557 45.3044C46.135 45.2552 46.1094 45.207 46.0805 45.1621C52.6777 38.2461 55.0768 28.3326 52.3717 19.1651L60.9951 14.1869C61.4548 13.9216 61.6121 13.334 61.3473 12.8752C61.2344 12.6798 61.0568 12.5303 60.8446 12.4536L56.2717 10.7843L56.3223 10.7549C56.7836 10.4929 56.9447 9.90631 56.6827 9.44554C56.4208 8.98433 55.8341 8.8232 55.3734 9.08516C55.3695 9.08757 55.3657 9.08902 55.3628 9.09143L55.3121 9.12086L56.1535 4.32654C56.2451 3.80407 55.8958 3.30621 55.3734 3.21455C55.1515 3.17547 54.9223 3.216 54.7269 3.32888L46.105 8.3071C37.5911 -0.639086 24.0613 -2.5909 13.3686 3.58219C0.584966 10.9629 -3.79562 27.3092 3.58543 40.0941C4.64435 41.9312 5.9175 43.6371 7.37679 45.1755L7.37571 45.1747ZM6.16868 57.7484C5.91444 58.0889 5.44552 58.1825 5.07984 57.9674L4.92064 57.8752C4.5511 57.6663 4.39817 57.2129 4.56557 56.8226L8.84563 46.6077C9.99042 47.6405 11.223 48.5702 12.5304 49.3869L6.16868 57.7484ZM48.8976 56.8226C49.065 57.2129 48.9121 57.6663 48.5426 57.8752L48.3834 57.9674C48.0177 58.1825 47.5483 58.0889 47.2945 57.7484L40.9251 49.3768C42.2325 48.5567 43.4655 47.6256 44.6113 46.5927L48.8976 56.8226ZM35.9152 42.6348C27.1302 47.7003 15.9018 44.6918 10.8271 35.9121C5.7636 27.1425 8.77925 15.8876 17.5498 10.8241C24.9102 6.54153 34.2521 7.90387 40.0826 14.1098C40.1202 14.1489 40.1603 14.1851 40.2042 14.2174L39.4955 18.2509L38.2122 18.9919C33.9388 12.6514 25.3347 10.9755 18.9942 15.2479C12.6536 19.5203 10.9777 28.1254 15.2501 34.4659C19.5225 40.8065 28.1276 42.4824 34.4681 38.21C40.1945 34.351 42.2019 26.8613 39.1728 20.6555L40.4561 19.9145L44.2836 21.3107C46.7975 29.4304 43.3029 38.3687 35.9149 42.6344L35.9152 42.6348ZM46.406 10.3503L47.0814 9.96002L46.3177 14.3134L45.0764 15.0298L45.8401 10.6764L46.3973 10.3551L46.406 10.3503ZM50.4936 7.99118L49.73 12.3446L48.4886 13.0605L49.2523 8.70711L50.4936 7.99118ZM53.6009 16.2392L49.4492 14.7235L50.6895 14.0071L54.8413 15.5219L53.6009 16.2392ZM50.1897 18.2079L46.037 16.6931L47.2783 15.9767L51.43 17.4915L50.1897 18.2079ZM42.9065 16.2826L41.6652 16.999L42.4288 12.6455L43.6701 11.9291L42.9065 16.2826ZM32.6944 37.0567C26.9916 40.3488 19.7008 38.3945 16.4083 32.6927C13.1162 26.9899 15.0705 19.6991 20.7723 16.4066C26.1514 13.3011 33.0139 14.8459 36.5434 19.9567L32.6073 22.2289C30.1204 18.9875 25.4776 18.3753 22.2357 20.8617C18.9943 23.3487 18.3821 27.9915 20.8685 31.2334C23.3555 34.4753 27.9983 35.087 31.2402 32.6005C33.8998 30.5603 34.8551 26.988 33.5693 23.8922L37.5054 21.62C40.1587 27.233 38.0679 33.9446 32.6942 37.0565L32.6944 37.0567ZM32.0272 28.1497C31.2442 31.0747 28.2387 32.8109 25.3143 32.0279C22.3893 31.2449 20.6531 28.2393 21.4361 25.3149C22.2191 22.3899 25.2246 20.6538 28.149 21.4368C29.2335 21.7272 30.2022 22.3428 30.9253 23.202L26.2525 25.9002C25.7928 26.1656 25.6355 26.7531 25.9004 27.2129C26.1657 27.6727 26.7533 27.8299 27.2131 27.5651L31.8868 24.8668C32.2708 25.919 32.32 27.0662 32.0272 28.1497ZM42.6266 18.6633L43.8679 17.9469L48.0196 19.4618L46.7783 20.1782L42.6266 18.6633ZM58.2519 13.5534L57.0116 14.2698L52.8599 12.755L54.1012 12.0386L58.2519 13.5534ZM53.1392 10.3753L51.8989 11.0917L52.6626 6.73824L53.9029 6.02183L53.1392 10.3753ZM2.76927 20.3098C4.45531 13.9462 8.6173 8.52273 14.3278 5.24637C24.2078 -0.457905 36.4518 1.22875 44.388 9.29684L41.0805 11.2058C40.8344 11.3481 40.6641 11.5917 40.6149 11.8711L40.6058 11.9227C34.0814 5.81419 24.3295 4.69255 16.5885 9.16082C6.90042 14.7546 3.56898 27.1871 9.16247 36.8733C14.7678 46.5763 27.1764 49.8977 36.8799 44.2935C44.6175 39.8242 48.5193 30.8195 46.4907 22.1176L46.5409 22.1359C46.8077 22.2334 47.1044 22.2073 47.3499 22.065L50.6574 20.156C53.6759 31.0627 49.0137 42.5098 39.1351 48.2143C27.2703 55.0643 12.0982 50.9994 5.24761 39.1341C1.95692 33.4371 1.06598 26.6654 2.76845 20.31L2.76927 20.3098Z" fill="#6BCB86"/>
</svg>
