<svg width="154" height="199" viewBox="0 0 154 199" fill="none" xmlns="http://www.w3.org/2000/svg">
<g style="mix-blend-mode:luminosity" filter="url(#filter0_f_2024_2744)">
<path d="M76.8867 129.743C76.9422 129.582 76.9464 129.418 77.0329 129.338C77.9223 128.466 78.1792 127.303 78.4648 126.169C78.7888 124.869 79.0728 123.564 79.355 122.253C79.6389 120.939 80.0694 119.672 80.6236 118.452C81.2486 117.078 81.7117 115.648 82.1407 114.211C82.6524 112.489 83.1222 110.755 83.5921 109.022C83.7427 108.473 83.821 107.907 83.9792 107.362C84.9115 104.123 84.8469 100.797 84.8887 97.4768C84.9036 96.4129 84.911 95.3453 84.9905 94.2846C85.0326 93.7059 85.2152 93.1393 85.3352 92.5657C85.3516 92.4935 85.3623 92.4137 85.3997 92.3565C85.555 92.1163 85.6754 91.8024 86.042 91.8449C86.3572 91.8764 86.5264 92.1196 86.5915 92.3921C86.6726 92.7479 86.7595 93.1207 86.7418 93.4754C86.6381 95.619 86.9135 97.7309 87.2421 99.8406C87.4095 100.928 87.5257 102.023 87.6192 103.116C87.7766 104.977 87.6626 106.823 87.0965 108.617C87.0356 108.809 87.0052 109.007 87.0187 109.24C87.4931 108.627 87.977 108.015 88.4438 107.398C89.6997 105.729 90.969 104.07 92.202 102.38C93.1089 101.134 93.9451 99.8393 94.852 98.5935C95.6728 97.466 96.5126 96.3573 97.3983 95.2804C97.7398 94.8622 98.1919 94.5077 98.6464 94.2156C99.7443 93.5162 100.93 94.1055 101.065 95.4032C101.113 95.856 101.111 96.3225 101.059 96.778C100.864 98.49 100.959 100.188 101.164 101.893C101.308 103.096 101.382 104.307 101.488 105.586C101.641 105.477 101.784 105.377 101.926 105.281C102.894 104.594 103.937 104.037 105.129 103.87C106.402 103.69 107.646 103.87 108.877 104.25C109.751 104.521 110.527 104.953 111.232 105.529C112.075 106.22 112.493 107.094 112.402 108.187C112.353 108.791 112.248 109.391 112.218 109.994C112.158 111.187 112.133 112.378 112.091 113.575C112.043 114.967 111.991 116.358 111.607 117.713C111.697 117.771 111.749 117.829 111.819 117.849C113.585 118.449 114.82 119.652 115.669 121.276C115.949 121.814 116.18 122.375 116.434 122.929C116.74 123.597 116.999 124.295 117.363 124.931C118.08 126.188 118.172 127.488 117.887 128.872C117.549 130.5 116.674 131.805 115.568 132.986C114.207 134.434 112.605 135.557 110.807 136.424C110.412 138.505 110.379 140.542 111.494 142.465C111.891 143.15 112.237 143.862 112.572 144.578C112.792 145.044 112.92 145.545 112.817 146.075C112.686 146.757 112.202 147.072 111.571 146.797C110.916 146.514 110.26 146.203 109.659 145.819C107.411 144.389 105.186 142.914 102.766 141.787C101.335 141.12 99.8591 140.545 98.3854 139.975C97.1382 139.492 95.8706 139.052 94.5956 138.636C93.1665 138.168 91.7171 137.761 90.2843 137.31C88.2388 136.664 86.1471 136.151 84.2199 135.166C82.939 134.511 81.8571 133.632 80.9645 132.502C80.3541 131.722 79.7135 130.965 78.9318 130.342C78.4119 129.928 77.8449 129.745 77.1982 129.773C77.107 129.766 77.0367 129.755 76.8867 129.743ZM103.044 124.52C102.338 124.217 101.756 123.928 101.155 123.709C99.8204 123.231 98.4529 122.869 97.051 122.674C96.2151 122.558 95.3705 122.527 94.526 122.505C93.9206 122.488 93.4105 122.72 92.942 123.146C91.2616 124.67 89.4084 125.967 87.3956 127.021C85.379 128.083 83.2766 128.895 80.9568 128.954C80.659 128.964 80.4762 129.097 80.3686 129.365C80.1404 129.928 80.1911 130.501 80.4463 131.022C81.2022 132.557 82.3024 133.784 83.8128 134.627C85.4929 135.566 87.3138 136.141 89.144 136.687C90.5861 137.118 92.03 137.537 93.4571 137.999C94.9052 138.466 96.3478 138.955 97.7812 139.472C98.9729 139.904 100.161 140.353 101.317 140.866C102.529 141.402 103.72 141.99 104.883 142.615C105.886 143.153 106.842 143.776 107.811 144.373C108.796 144.977 109.767 145.608 110.765 146.195C111.076 146.38 111.437 146.491 111.791 146.588C112.153 146.69 112.332 146.565 112.494 146.234C112.656 145.893 112.532 145.615 112.308 145.378C111.706 144.735 111.104 144.091 110.482 143.471C109.496 142.483 108.71 141.367 108.184 140.067C107.532 138.465 107.22 136.793 107.161 135.07C107.125 134.005 107.117 132.939 107.056 131.876C106.98 130.612 106.892 129.342 106.513 128.118C106.189 127.072 105.636 126.165 104.74 125.524C104.175 125.115 103.542 124.806 103.044 124.52ZM98.1758 116.212C98.3613 115.746 98.7487 114.963 98.9917 114.138C99.4959 112.431 99.6109 110.689 99.4239 108.908C99.2056 106.824 99.0556 104.736 98.9587 102.645C98.8693 100.742 99.2777 98.9319 100.16 97.2255C100.402 96.7589 100.519 96.2308 100.694 95.7268C100.894 95.1544 100.656 94.7032 100.224 94.3693C99.7965 94.0372 99.2981 94.1002 98.8794 94.3768C98.4362 94.6649 97.9818 94.9759 97.6458 95.3731C96.8087 96.3699 96.0118 97.4006 95.2549 98.4555C94.0971 100.06 93.029 101.732 91.8425 103.318C89.2952 106.72 86.6848 110.077 84.1299 113.476C83.2939 114.586 82.561 115.776 81.7727 116.924C81.2803 117.641 80.9917 118.453 80.6308 119.239C79.7658 121.124 79.3513 123.101 79.279 125.151C79.2565 125.806 79.3196 126.478 79.4677 127.112C79.6868 128.045 80.525 128.833 81.8002 128.65C83.1057 128.462 84.3568 128.135 85.5644 127.617C88.6109 126.313 91.2574 124.418 93.6654 122.169C95.4244 120.533 96.9312 118.699 98.1758 116.212ZM93.983 122.254C94.6529 122.265 95.2409 122.251 95.8199 122.294C98.4514 122.495 100.94 123.259 103.338 124.314C103.883 124.553 104.337 124.553 104.858 124.345C106.533 123.683 107.922 122.621 109.164 121.345C109.77 120.726 110.277 120.026 110.673 119.256C111.278 118.085 111.603 116.833 111.716 115.52C111.923 113.068 111.798 110.6 112.121 108.153C112.246 107.223 111.861 106.436 111.142 105.81C110.363 105.132 109.469 104.681 108.486 104.412C107.322 104.098 106.135 103.937 104.945 104.186C103.605 104.465 102.452 105.142 101.424 106.045C101.032 112.39 98.5106 117.758 93.983 122.254ZM111.487 118.093C110.172 121.409 107.706 123.468 104.468 124.815C104.69 124.971 104.863 125.098 105.041 125.218C105.705 125.675 106.419 126.071 107.029 126.591C109.773 128.938 111.349 131.8 110.846 135.541C110.827 135.697 110.839 135.854 110.837 136.061C111.015 135.988 111.136 135.943 111.246 135.883C112.562 135.173 113.785 134.332 114.857 133.289C115.557 132.612 116.218 131.897 116.707 131.051C117.238 130.141 117.576 129.169 117.705 128.104C117.802 127.297 117.772 126.528 117.445 125.787C116.844 124.446 116.233 123.108 115.621 121.771C115.032 120.492 114.184 119.426 112.98 118.672C112.532 118.401 112.081 118.096 111.487 118.093ZM105.674 125.971C105.697 126.02 105.707 126.077 105.74 126.117C106.636 127.192 106.998 128.478 107.136 129.829C107.255 131.015 107.313 132.209 107.383 133.399C107.441 134.353 107.425 135.312 107.529 136.26C107.83 139.13 108.868 141.662 111.043 143.656C111.436 144.013 111.777 144.425 112.145 144.812C112.224 144.893 112.306 144.967 112.392 145.042C112.314 144.65 112.176 144.314 112.014 143.989C111.734 143.432 111.431 142.882 111.14 142.329C110.441 141.006 110.162 139.605 110.327 138.119C110.432 137.151 110.535 136.187 110.631 135.219C110.721 134.301 110.733 133.386 110.526 132.478C109.868 129.603 108.083 127.565 105.674 125.971ZM81.802 116.188C83.1235 114.423 84.3771 112.709 85.6709 111.03C86.6009 109.824 87.0042 108.487 86.9164 106.977C86.8149 105.205 86.361 103.496 85.9432 101.791C85.4309 99.7192 85.3822 97.704 86.0523 95.6675C86.3422 94.7947 86.4363 93.8781 86.4297 92.9547C86.4284 92.6001 86.393 92.2572 86.0081 92.0784C85.6318 92.22 85.5477 92.5658 85.4841 92.8697C85.3532 93.4946 85.2262 94.1309 85.1979 94.7683C85.1413 96.0525 85.1606 97.3361 85.1363 98.6219C85.0854 101.15 85.0325 103.663 84.4938 106.165C83.915 108.855 83.1802 111.496 82.4151 114.133C82.2219 114.798 82.0174 115.458 81.802 116.188ZM100.804 96.5356C100.701 96.6692 100.658 96.7093 100.635 96.755C99.7254 98.5091 99.1996 100.357 99.2084 102.347C99.2184 104.481 99.3839 106.605 99.6593 108.717C99.8391 110.117 99.8099 111.499 99.5418 112.878C99.4929 113.142 99.4612 113.41 99.4219 113.674C99.4599 113.683 99.4979 113.692 99.5322 113.699C99.8601 112.633 100.234 111.579 100.507 110.5C101.219 107.71 101.341 104.882 100.936 102.032C100.699 100.372 100.592 98.7066 100.782 97.0344C100.798 96.9148 100.793 96.7897 100.804 96.5356ZM87.2513 106.669C87.2568 106.648 87.2849 106.6 87.2901 106.551C87.3235 106.26 87.3531 105.968 87.3865 105.678C87.6076 103.719 87.1689 101.806 86.99 99.873C86.8676 98.5201 86.6599 97.1775 86.492 95.8307C86.4798 95.7398 86.4448 95.6472 86.3937 95.4523C86.309 95.7317 86.2613 95.9066 86.2059 96.0777C85.7364 97.6365 85.6349 99.2055 86.0006 100.805C86.1212 101.34 86.2058 101.882 86.3208 102.42C86.6259 103.833 86.9405 105.247 87.2513 106.669Z" fill="url(#paint0_linear_2024_2744)"/>
<path d="M80.0675 129.392C80.1971 129.446 80.3397 129.483 80.4523 129.561C82.7697 131.101 85.3857 131.682 88.101 131.924C89.7853 132.073 91.4708 132.162 93.1547 132.263C94.4341 132.342 95.7134 132.401 96.9971 132.519C96.0068 132.526 95.013 132.568 94.0222 132.527C92.2989 132.458 90.577 132.347 88.8532 132.231C87.2224 132.118 85.6023 131.924 84.0308 131.448C82.6324 131.024 81.3178 130.428 80.1149 129.595C80.0767 129.566 80.0478 129.519 80.0152 129.48C80.0358 129.447 80.0507 129.417 80.0675 129.392Z" fill="url(#paint1_linear_2024_2744)"/>
<path d="M97.6545 111.15C97.2496 111.689 96.8581 112.238 96.4399 112.765C95.5114 113.939 94.6232 115.156 93.6126 116.257C92.6113 117.348 91.5432 118.392 90.3963 119.327C88.4169 120.931 86.355 122.433 84.3276 123.98C84.2429 124.047 84.1446 124.093 84.0061 124.097C84.1417 123.983 84.2753 123.865 84.4147 123.754C86.4925 122.123 88.5972 120.523 90.6385 118.851C92.6008 117.244 94.2586 115.332 95.775 113.303C96.3449 112.544 96.9663 111.824 97.5667 111.089C97.5991 111.109 97.6278 111.128 97.6545 111.15Z" fill="url(#paint2_linear_2024_2744)"/>
<path d="M85.3863 133.528C84.665 133.284 83.9288 133.079 83.2242 132.791C82.531 132.509 81.8693 132.143 81.1723 131.859C81.8142 132.545 82.6187 132.967 83.4382 133.368C85.7099 134.479 88.1051 135.193 90.5778 135.671C90.6634 135.689 90.749 135.717 90.8145 135.824C89.8356 135.624 88.8474 135.452 87.8758 135.217C86.1417 134.803 84.4796 134.175 82.8749 133.39C82.4632 133.188 82.0739 132.941 81.7034 132.675C81.2891 132.383 80.9065 132.045 80.4516 131.681C80.5915 131.626 80.6671 131.597 80.7484 131.566C80.6355 131.459 80.5303 131.356 80.4231 131.256C80.4418 131.228 80.4605 131.199 80.4792 131.17C80.9903 131.458 81.4903 131.769 82.0144 132.03C82.5747 132.304 83.1573 132.532 83.7306 132.77C84.2886 133 84.8503 133.223 85.4102 133.45C85.4067 133.477 85.3993 133.501 85.3863 133.528Z" fill="url(#paint3_linear_2024_2744)"/>
<path d="M88.249 111.397C87.2156 112.505 86.1631 113.595 85.1527 114.724C83.9788 116.033 82.9253 117.434 82.0038 118.941C80.8635 120.809 79.9954 122.768 79.6757 124.947C79.6704 124.996 79.6291 125.042 79.5117 125.07C79.7123 124.186 79.8445 123.279 80.1307 122.423C81.0744 119.596 82.7371 117.181 84.6862 114.963C85.734 113.767 86.9003 112.677 88.0131 111.541C88.0771 111.478 88.1544 111.426 88.2241 111.371C88.2298 111.378 88.2394 111.388 88.249 111.397Z" fill="url(#paint4_linear_2024_2744)"/>
<path d="M101.046 122.519C101.197 122.461 101.348 122.403 101.502 122.35C103.438 121.646 105.291 120.754 107.107 119.793C108.639 118.979 109.997 117.912 111.154 116.609C111.319 116.426 111.471 116.231 111.671 116.074C111.548 116.518 111.281 116.86 110.969 117.179C109.698 118.474 108.27 119.559 106.625 120.335C104.998 121.102 103.412 121.959 101.666 122.44C101.474 122.493 101.28 122.553 101.087 122.61C101.069 122.577 101.059 122.549 101.046 122.519Z" fill="url(#paint5_linear_2024_2744)"/>
<path d="M80.694 128.602C80.7924 128.566 80.8887 128.514 80.9947 128.49C83.0551 128.073 84.862 127.102 86.5297 125.865C87.9752 124.793 89.3975 123.69 90.8314 122.603C90.9671 122.5 91.1028 122.396 91.2979 122.364C90.7332 122.852 90.1818 123.352 89.598 123.821C88.0215 125.084 86.4354 126.338 84.6936 127.369C83.6218 128.005 82.4624 128.406 81.2524 128.668C81.0782 128.705 80.9018 128.709 80.7218 128.729C80.7138 128.688 80.7058 128.646 80.694 128.602Z" fill="url(#paint6_linear_2024_2744)"/>
<path d="M111.467 144.553C111.286 144.412 111.096 144.277 110.919 144.129C110.108 143.468 109.245 142.886 108.319 142.395C107.425 141.924 106.553 141.408 105.642 140.982C104.278 140.343 102.887 139.767 101.512 139.16C101.213 139.028 100.921 138.871 100.628 138.718C103.256 139.564 105.744 140.734 108.173 142.026C109.155 142.549 110.047 143.235 110.967 143.865C111.193 144.022 111.36 144.26 111.555 144.459C111.523 144.495 111.495 144.524 111.467 144.553Z" fill="url(#paint7_linear_2024_2744)"/>
<path d="M113.773 127.938C112.789 127.854 111.804 127.792 110.824 127.671C109.87 127.554 108.924 127.384 107.961 127.267C109.092 127.881 110.384 127.923 111.698 128.269C110.753 128.288 109.94 128.098 109.126 127.926C108.822 127.862 108.531 127.743 108.226 127.67C107.93 127.601 107.74 127.437 107.703 127.117C107.319 126.957 106.94 126.805 106.563 126.649C106.579 126.596 106.596 126.542 106.611 126.493C108.918 127.395 111.354 127.572 113.777 127.804C113.776 127.845 113.776 127.893 113.773 127.938Z" fill="url(#paint8_linear_2024_2744)"/>
<path d="M84.5853 116.986C82.0092 120.138 80.2124 123.657 79.8311 127.817C79.8167 127.692 79.7927 127.567 79.7935 127.44C79.8187 126.258 80.0188 125.106 80.4489 124.004C80.8938 122.863 81.3348 121.71 81.8845 120.615C82.5572 119.269 83.4721 118.074 84.4979 116.971C84.5205 116.945 84.5526 116.927 84.5809 116.908C84.581 116.927 84.5831 116.942 84.5853 116.986Z" fill="url(#paint9_linear_2024_2744)"/>
<path d="M106.656 110.335C105.726 110.951 104.824 111.609 103.867 112.175C102.478 112.996 101.386 114.147 100.287 115.294C99.3509 116.271 98.4609 117.289 97.5135 118.26C97.6353 118.098 97.7476 117.926 97.879 117.773C99.4486 115.965 100.955 114.092 102.856 112.61C104.024 111.7 105.288 110.93 106.656 110.335Z" fill="url(#paint10_linear_2024_2744)"/>
<path d="M100.277 124.515C97.2472 124.142 94.2305 123.724 91.1902 124.464C91.1804 124.426 91.1705 124.388 91.1645 124.352C91.2627 124.297 91.3567 124.211 91.4591 124.195C92.2946 124.07 93.1259 123.896 93.9698 123.851C96.0122 123.741 98.0351 123.99 100.035 124.411C100.119 124.433 100.199 124.482 100.277 124.515Z" fill="url(#paint11_linear_2024_2744)"/>
<path d="M107.567 138.076C104.641 136.796 101.509 136.335 98.421 135.646C98.761 135.685 99.099 135.718 99.4353 135.764C99.781 135.811 100.129 135.844 100.465 135.919C102.161 136.295 103.858 136.658 105.541 137.08C106.156 137.234 106.735 137.537 107.327 137.784C107.434 137.827 107.522 137.917 107.621 137.984C107.599 138.011 107.584 138.042 107.567 138.076Z" fill="url(#paint12_linear_2024_2744)"/>
<path d="M93.3963 103.651C91.1058 106.509 88.2729 108.757 85.7731 111.347C85.7406 111.317 85.7061 111.281 85.6736 111.251C86.5122 110.415 87.3449 109.572 88.1912 108.75C89.0713 107.897 89.9764 107.07 90.8527 106.215C91.7158 105.368 92.5503 104.502 93.3963 103.651Z" fill="url(#paint13_linear_2024_2744)"/>
<path d="M94.6745 121.621C97.1542 119.747 99.5303 117.748 101.834 115.665C101.877 115.625 101.947 115.617 102.021 115.62C99.7398 117.831 97.3645 119.916 94.6745 121.621Z" fill="url(#paint14_linear_2024_2744)"/>
<path d="M82.5186 113.558C83.0618 111.964 83.6165 110.376 84.1388 108.777C84.6538 107.203 85.1155 105.612 85.3984 103.98C85.067 107.362 83.7425 110.457 82.5186 113.558Z" fill="url(#paint15_linear_2024_2744)"/>
<path d="M110.192 104.896C109.807 105.151 109.389 105.079 109.024 105.188C108.657 105.301 108.28 105.386 107.909 105.497C107.521 105.614 107.143 105.74 106.761 105.874C106.398 105.999 106.035 106.123 105.683 106.272C105.313 106.431 104.948 106.606 104.589 106.789C104.245 106.961 103.911 107.152 103.547 107.346C104.272 106.328 108.982 104.578 110.192 104.896Z" fill="url(#paint16_linear_2024_2744)"/>
<path d="M104.131 120.192C102.551 121.288 100.766 121.944 98.9305 122.462C98.3382 122.63 97.7001 122.766 97.0175 122.607C97.0737 122.53 97.1016 122.464 97.1319 122.46C99.0567 122.358 100.799 121.625 102.552 120.93C103.089 120.72 103.606 120.445 104.131 120.192Z" fill="url(#paint17_linear_2024_2744)"/>
<path d="M94.5065 110.172C96.0301 108.1 97.8078 106.223 99.1475 103.967C99.1638 104.291 99.0549 104.629 98.7814 105.015C97.5359 106.779 96.145 108.425 94.7044 110.028C94.65 110.091 94.5706 110.128 94.5065 110.172Z" fill="url(#paint18_linear_2024_2744)"/>
<path d="M95.7571 100.081C96.2839 98.772 99.6126 94.9214 100.634 94.5336C100.225 95.1267 99.6894 95.4403 99.2989 95.891C98.9009 96.3476 98.4837 96.7853 98.0875 97.238C97.6782 97.7079 97.2803 98.1834 96.8844 98.6646C96.5054 99.1304 96.1378 99.6019 95.7571 100.081Z" fill="url(#paint19_linear_2024_2744)"/>
<path d="M86.917 127.195C89.3286 126.379 91.8301 126.267 94.3519 126.306C91.8667 126.539 89.365 126.633 86.917 127.195Z" fill="url(#paint20_linear_2024_2744)"/>
<path d="M85.2167 120.394C86.9766 118.022 89.2631 115.771 91.5841 113.547C89.4065 115.894 87.2252 118.238 85.2167 120.394Z" fill="url(#paint21_linear_2024_2744)"/>
<path d="M85.2344 108.111C84.5767 110.672 83.176 112.908 82.044 115.262C82.5758 114.078 83.1076 112.894 83.6356 111.708C84.171 110.507 84.7008 109.308 85.2344 108.111Z" fill="url(#paint22_linear_2024_2744)"/>
<path d="M82.6328 128.568C84.7611 127.896 86.5941 126.669 88.4867 125.532C88.3737 125.628 88.2627 125.729 88.144 125.817C86.8889 126.751 85.5608 127.574 84.142 128.244C83.8114 128.398 83.4596 128.519 83.1077 128.63C82.9677 128.675 82.8083 128.663 82.6547 128.677C82.6506 128.638 82.6445 128.602 82.6328 128.568Z" fill="url(#paint23_linear_2024_2744)"/>
<path d="M106.93 129.396C104.935 129.034 102.923 128.772 100.896 128.648C102.95 128.544 104.97 128.739 106.93 129.396Z" fill="url(#paint24_linear_2024_2744)"/>
<path d="M107.955 113.296C109.338 112.17 110.682 111.072 112.017 109.984C111.862 110.582 109.176 112.789 107.955 113.296Z" fill="url(#paint25_linear_2024_2744)"/>
<path d="M109.561 142.368C108 141.553 106.442 140.739 105.012 139.993C106.234 140.335 108.959 141.697 109.561 142.368Z" fill="url(#paint26_linear_2024_2744)"/>
<path d="M103.322 111.393C105.039 110.472 106.573 109.236 108.423 108.545C108.538 108.503 108.642 108.417 108.749 108.351C108.767 108.393 108.782 108.438 108.8 108.48C107.886 108.958 106.962 109.417 106.064 109.921C105.16 110.427 104.284 110.981 103.399 111.515C103.372 111.474 103.349 111.434 103.322 111.393Z" fill="url(#paint27_linear_2024_2744)"/>
<path d="M91.7462 129.775C91.9434 129.758 92.1404 129.723 92.3359 129.728C94.64 129.817 96.9146 130.208 99.1978 130.503C99.2282 130.509 99.2551 130.541 99.3696 130.616C98.7845 130.537 98.2886 130.46 97.7929 130.401C95.8671 130.186 93.9553 129.846 92.0104 129.824C91.9212 129.823 91.8317 129.784 91.7442 129.76L91.7462 129.775Z" fill="url(#paint28_linear_2024_2744)"/>
<path d="M105.849 106.767C107.382 106.2 108.873 105.48 110.515 105.222C110.533 105.32 110.539 105.337 110.537 105.351C110.534 105.368 110.528 105.389 110.517 105.402C110.489 105.421 110.459 105.444 110.425 105.456C108.901 105.895 107.374 106.333 105.849 106.767Z" fill="url(#paint29_linear_2024_2744)"/>
<path d="M86.9766 106.288C87.0321 106.966 86.0473 109.444 85.2549 110.561C85.8208 109.163 86.3829 107.763 86.9766 106.288Z" fill="url(#paint30_linear_2024_2744)"/>
<path d="M114.991 120.691C114.536 120.761 114.074 120.818 113.621 120.903C113.154 120.99 112.688 121.102 112.226 121.216C111.768 121.332 111.312 121.463 110.797 121.607C111.717 120.953 114.349 120.343 114.991 120.691Z" fill="url(#paint31_linear_2024_2744)"/>
<path d="M93.4702 117.051C92.1749 118.56 90.642 119.821 89.0613 121.034C90.5328 119.706 91.9987 118.38 93.4702 117.051Z" fill="url(#paint32_linear_2024_2744)"/>
<path d="M115.708 132.632C115.229 132.974 113.234 132.842 112.19 132.37C113.39 132.456 114.565 132.545 115.708 132.632Z" fill="url(#paint33_linear_2024_2744)"/>
<path d="M116.897 124.553C115.676 124.499 114.454 124.439 113.233 124.385C114.461 124.211 115.683 124.243 116.903 124.396C116.898 124.445 116.894 124.5 116.897 124.553Z" fill="url(#paint34_linear_2024_2744)"/>
<path d="M96.995 103.478C97.6936 102.484 98.3941 101.487 99.0927 100.493C98.6557 101.667 97.8463 102.587 96.995 103.478Z" fill="url(#paint35_linear_2024_2744)"/>
<path d="M92.1247 125.662C90.9482 125.856 89.7661 126.051 88.5897 126.245C88.5817 126.204 88.5775 126.164 88.5714 126.118C89.7219 125.775 90.9122 125.649 92.1247 125.662Z" fill="url(#paint36_linear_2024_2744)"/>
<path d="M98.5566 97.6896C99.2121 96.755 99.8796 95.8828 100.758 95.208C100.794 95.2399 100.825 95.2738 100.861 95.3057C100.094 96.101 99.3234 96.8944 98.5566 97.6896Z" fill="url(#paint37_linear_2024_2744)"/>
<path d="M110.84 132.507C111.787 132.725 112.667 132.924 113.606 133.138C112.924 133.229 112.323 133.087 111.723 132.972C111.46 132.919 111.205 132.804 110.954 132.7C110.906 132.681 110.886 132.587 110.84 132.507Z" fill="url(#paint38_linear_2024_2744)"/>
<path d="M98.1224 134.927C99.4888 134.963 100.841 135.087 102.172 135.417C100.821 135.252 99.4691 135.091 98.1224 134.927Z" fill="url(#paint39_linear_2024_2744)"/>
<path d="M103.984 129.475C104.928 129.611 105.874 129.753 106.818 129.889C106.811 129.942 106.804 129.995 106.801 130.05C106.336 130.083 105.885 129.914 105.431 129.838C104.95 129.759 104.467 129.674 103.983 129.592C103.982 129.555 103.984 129.513 103.984 129.475Z" fill="url(#paint40_linear_2024_2744)"/>
<path d="M99.0514 105.756C98.7318 106.486 98.2517 107.101 97.659 107.646C98.0914 106.994 98.5275 106.344 98.9579 105.696C98.9922 105.712 99.0228 105.737 99.0514 105.756Z" fill="url(#paint41_linear_2024_2744)"/>
<path d="M115.386 121.152C114.683 121.209 113.976 121.264 113.274 121.317C113.957 121.052 114.66 120.976 115.371 120.979C115.374 121.032 115.382 121.093 115.386 121.152Z" fill="url(#paint42_linear_2024_2744)"/>
<path d="M111.951 110.977C111.499 111.525 110.928 111.93 110.364 112.348C110.34 112.322 110.32 112.294 110.295 112.268C110.821 111.802 111.342 111.335 111.865 110.874C111.892 110.906 111.923 110.94 111.951 110.977Z" fill="url(#paint43_linear_2024_2744)"/>
<path d="M111.94 133.943C111.594 133.84 111.246 133.74 110.899 133.637C110.914 133.588 110.927 133.532 110.941 133.483C111.293 133.584 111.645 133.686 111.995 133.791C111.977 133.838 111.956 133.89 111.94 133.943Z" fill="url(#paint44_linear_2024_2744)"/>
<path d="M91.7487 129.764C91.2177 129.788 90.6905 129.813 90.1594 129.836C90.159 129.789 90.1604 129.738 90.16 129.69C90.6896 129.718 91.2192 129.746 91.7488 129.774L91.7487 129.764Z" fill="url(#paint45_linear_2024_2744)"/>
<path d="M99.9954 130.636C100.353 130.688 100.713 130.742 101.071 130.794C101.069 130.817 101.067 130.84 101.06 130.864C100.701 130.816 100.34 130.772 99.981 130.724C99.9864 130.693 99.9918 130.663 99.9954 130.636Z" fill="url(#paint46_linear_2024_2744)"/>
<path d="M52.2471 148.672C52.3854 148.65 52.5237 148.628 52.6581 148.604C54.2512 148.321 55.8462 148.054 57.4333 147.745C59.2363 147.39 61.0646 147.109 62.8206 146.59C64.3002 146.153 65.7781 145.729 67.2893 145.411C68.7304 145.111 70.1876 144.913 71.6611 144.836C73.5024 144.741 75.2364 145.136 76.9108 145.875C79.012 146.803 80.8059 148.148 82.3392 149.851C84.2598 151.98 86.2142 154.078 88.0933 156.242C89.0175 157.308 89.8722 158.448 90.6457 159.629C91.6828 161.207 92.6085 162.858 93.5909 164.471C94.3614 165.735 94.676 167.159 95.0153 168.57C95.0252 168.618 94.9973 168.675 94.9627 168.833C94.7981 168.677 94.6568 168.579 94.5627 168.453C93.0358 166.427 91.5259 164.386 89.9878 162.374C88.9393 161.002 87.8042 159.692 86.7991 158.29C86.0591 157.253 85.229 156.314 84.3236 155.432C83.24 154.374 82.0064 153.506 80.6588 152.823C79.3951 152.182 78.1351 151.532 76.8303 150.974C74.4094 149.937 71.896 149.165 69.2913 148.783C65.8793 148.285 62.4423 147.963 58.9881 148.052C56.9491 148.107 54.9275 148.416 52.9158 148.772C52.7093 148.808 52.4969 148.818 52.2922 148.84C52.2765 148.785 52.2627 148.727 52.2471 148.672ZM60.1405 147.502C60.1521 147.536 60.16 147.568 60.1717 147.602C60.3519 147.591 60.5358 147.582 60.716 147.571C62.3621 147.499 64.0063 147.411 65.6546 147.363C66.2596 147.343 66.8654 147.398 67.4708 147.425C70.9634 147.595 74.3524 148.267 77.6028 149.55C79.2822 150.211 80.8331 151.134 82.2681 152.237C82.4916 152.408 82.7284 152.571 82.9538 152.738C82.956 152.569 82.9094 152.452 82.8421 152.348C82.3068 151.492 81.7866 150.624 81.2249 149.783C80.2861 148.37 79.1182 147.214 77.5631 146.453C75.7869 145.585 73.9581 144.978 71.9552 145.056C69.1634 145.162 66.4517 145.733 63.776 146.501C62.703 146.811 61.6204 147.093 60.5454 147.389C60.4149 147.433 60.2749 147.469 60.1405 147.502ZM93.3057 166.271C93.334 166.262 93.3643 166.248 93.3927 166.238C93.3904 166.204 93.3958 166.164 93.3784 166.132C93.2817 165.934 93.1794 165.738 93.0752 165.545C91.9195 163.446 90.5244 161.509 89.1556 159.546C88.4827 158.585 87.6636 157.807 86.8047 157.042C85.9401 156.27 85.1338 155.446 84.3989 154.544C83.9864 154.036 83.5265 153.546 83.0237 153.126C81.0774 151.494 78.9051 150.257 76.503 149.413C74.415 148.679 72.2797 148.178 70.0915 147.9C68.1427 147.655 66.1876 147.558 64.2268 147.665C63.7318 147.692 63.2346 147.675 62.7395 147.683C62.6162 147.684 62.4951 147.719 62.3719 147.739C62.5549 147.829 62.7334 147.85 62.9119 147.862C64.3529 147.967 65.8028 148.016 67.2331 148.192C70.2113 148.554 73.1353 149.2 75.925 150.324C77.835 151.093 79.7228 151.917 81.4933 152.991C82.6475 153.692 83.7303 154.462 84.6858 155.416C85.6853 156.414 86.5812 157.49 87.417 158.639C88.7543 160.483 90.1935 162.253 91.5931 164.056C92.1614 164.796 92.7316 165.533 93.3057 166.271ZM81.178 149.01C81.1422 149.035 81.1064 149.059 81.0725 149.09C82.0788 150.625 83.0587 152.176 84.099 153.69C84.9027 154.857 85.8796 155.882 86.9488 156.815C87.7099 157.48 88.4354 158.179 89.1647 158.881C89.3829 159.091 89.541 159.367 89.7461 159.594C90.1103 159.999 90.4876 160.386 90.8611 160.782C90.6915 160.279 90.4936 159.804 90.2015 159.397C89.5289 158.455 88.8693 157.495 88.1082 156.627C86.0319 154.267 83.9085 151.954 81.7983 149.624C81.599 149.404 81.3848 149.215 81.178 149.01ZM90.3105 160.729C91.831 162.893 93.2062 165.142 94.3663 167.522C94.4107 166.146 91.8097 161.807 90.3105 160.729Z" fill="url(#paint47_linear_2024_2744)"/>
<path d="M65.3203 100.142C65.6495 101.497 65.9772 102.884 66.3238 104.271C67.0799 107.293 67.5197 110.363 67.9671 113.437C68.4307 116.622 68.4483 119.802 68.1568 122.986C67.8859 125.945 67.5202 128.895 66.7002 131.769C66.294 133.198 65.8516 134.614 65.2227 135.968C64.5268 137.468 63.8767 138.99 63.1198 140.46C62.4487 141.765 61.648 143.006 60.53 143.988C60.2966 144.195 59.998 144.323 59.732 144.49C59.7052 144.458 59.684 144.424 59.6571 144.392C59.7774 144.262 59.89 144.128 60.0198 144.008C60.9134 143.175 61.4921 142.137 61.9677 141.039C63.5656 137.337 64.0518 133.446 63.8427 129.46C63.7483 127.644 63.5326 125.835 63.3453 124.026C63.2767 123.374 63.0906 122.731 63.0297 122.083C62.7606 119.215 62.4744 116.342 62.7819 113.454C63.0281 111.116 63.5137 108.819 64.0449 106.535C64.4757 104.679 64.9275 102.829 65.1511 100.932C65.1883 100.644 65.2712 100.368 65.3203 100.142ZM65.282 102.384C65.2554 102.38 65.2326 102.378 65.206 102.375C65.1838 102.44 65.1578 102.502 65.1433 102.571C64.7739 104.292 64.4101 106.011 64.0369 107.73C63.4924 110.224 63.0011 112.726 62.9429 115.288C62.8789 118.046 63.1543 120.776 63.5492 123.503C63.8389 125.518 64.0075 127.559 64.1171 129.594C64.25 132.094 64.1059 134.591 63.5287 137.036C63.3516 137.794 63.1269 138.543 62.9232 139.298C63.0401 139.213 63.1132 139.112 63.1634 139C63.3863 138.477 63.6301 137.959 63.8168 137.423C64.2917 136.036 64.8085 134.661 65.1845 133.245C66.1362 129.638 66.444 125.948 66.4708 122.233C66.4823 120.587 66.3535 118.948 66.181 117.301C65.6883 112.591 65.1917 107.87 65.3191 103.119C65.3149 102.876 65.2899 102.628 65.282 102.384ZM65.6173 102.538C65.5795 102.548 65.5378 102.556 65.4999 102.566C65.495 102.653 65.4883 102.744 65.4872 102.833C65.489 105.939 65.616 109.04 65.9175 112.132C66.1061 114.084 66.3591 116.029 66.5174 117.985C66.6669 119.813 66.7481 121.646 66.6701 123.486C66.5809 125.561 66.4537 127.627 66.1385 129.682C65.7807 132.046 65.1927 134.349 64.3898 136.599C64.0532 137.548 63.6728 138.48 63.3114 139.422C63.4153 139.373 63.4545 139.293 63.4917 139.217C64.0513 137.957 64.6528 136.718 65.1571 135.435C65.6596 134.157 66.1163 132.856 66.4932 131.535C67.2819 128.773 67.6182 125.922 67.8806 123.078C68.1656 120.004 68.166 116.932 67.7281 113.858C67.3629 111.273 67.0319 108.685 66.4679 106.13C66.2064 104.926 65.9053 103.736 65.6173 102.538Z" fill="url(#paint48_linear_2024_2744)"/>
<path d="M-8.6306 240.229C-8.25234 239.474 -7.89509 238.705 -7.49396 237.963C-6.46219 236.056 -5.43042 234.149 -4.36053 232.261C-2.29356 228.614 -0.163646 225.003 1.55443 221.172C2.43392 219.209 3.22387 217.208 4.01577 215.212C5.09328 212.497 6.01851 209.727 6.81626 206.917C7.24273 205.418 7.595 203.896 8.01765 202.394C9.01183 198.865 9.98312 195.324 11.0515 191.817C11.978 188.773 13.2224 185.843 14.6326 182.988C15.6087 181.012 16.7087 179.101 17.8717 177.225C19.8592 174.021 22.1582 171.059 24.5774 168.17C26.7695 165.551 29.2568 163.257 31.8263 161.036C34.665 158.583 37.5803 156.215 40.8474 154.344C43.1897 153.003 45.6206 151.809 48.0168 150.56C49.2083 149.94 50.394 149.302 51.6127 148.751C53.8423 147.747 55.9754 146.553 58.068 145.297C59.6926 144.322 61.2864 143.295 62.8381 142.218C66.3316 139.797 69.4934 136.993 72.4749 133.968C74.3942 132.024 76.3959 130.162 78.3593 128.263C78.4326 128.19 78.5233 128.14 78.673 128.123C78.6339 128.203 78.6139 128.302 78.5518 128.361C77.6004 129.302 76.6432 130.236 75.6899 131.171C73.8603 132.971 72.0479 134.793 70.1953 136.572C68.1002 138.586 65.8458 140.414 63.4764 142.101C60.5394 144.185 57.4773 146.061 54.2823 147.726C53.6932 148.032 53.1175 148.36 52.5263 148.651C50.6659 149.567 48.819 150.514 46.9333 151.375C40.6208 154.248 35.1234 158.302 30.0223 162.938C28.2121 164.582 26.446 166.271 24.854 168.126C23.6601 169.514 22.5273 170.961 21.4441 172.432C20.2916 173.996 19.1754 175.593 18.1355 177.236C16.2933 180.143 14.7065 183.185 13.3504 186.353C11.9516 189.619 10.8515 192.979 9.9266 196.405C9.5852 197.664 9.24949 198.92 8.90047 200.174C8.06465 203.177 7.26118 206.191 6.36446 209.174C5.79917 211.054 5.09117 212.888 4.43076 214.74C3.04884 218.609 1.32209 222.323 -0.587514 225.957C-1.38384 227.469 -2.25834 228.938 -3.09472 230.426C-4.14768 232.299 -5.21776 234.168 -6.24784 236.052C-6.91777 237.277 -7.54383 238.528 -8.18327 239.768C-8.27648 239.949 -8.34875 240.135 -8.43053 240.322C-8.49719 240.294 -8.56199 240.262 -8.6306 240.229Z" fill="url(#paint49_linear_2024_2744)"/>
</g>
<g style="mix-blend-mode:luminosity">
<path d="M35.8135 60.0533C34.6078 55.562 34.5142 51.0832 34.3812 46.6052C34.2292 41.2405 34.097 35.8755 33.9373 30.5149C33.8819 28.5665 33.947 26.6293 34.342 24.7228C34.4867 24.024 34.7813 23.326 35.1527 22.7171C35.6229 21.9367 36.3883 21.8677 37.068 22.4963C37.4782 22.8782 37.8779 23.3154 38.1368 23.8069C38.7609 24.9728 39.3071 26.1798 39.8766 27.3745C39.9861 27.6108 40.0801 27.8553 40.2278 28.2209C40.628 27.6666 40.5213 26.9157 41.2475 26.678C42.0908 26.842 42.8463 27.3311 43.5629 27.8407C47.059 30.2899 48.9305 33.7484 49.681 37.8766C49.7259 38.1319 49.7551 38.3955 49.818 38.8456C50.1416 38.3067 50.3462 37.92 50.6008 37.5619C51.5518 36.2196 52.4608 34.8446 53.4901 33.5657C56.0171 30.4227 59.252 28.302 63.1087 27.1443C64.1448 26.8331 65.2081 26.687 66.2926 26.9781C66.937 27.1521 67.4821 27.478 67.9513 27.9434C68.1608 28.152 68.384 28.3583 68.5604 28.5893C69.7652 30.1769 71.009 31.7441 72.1537 33.3784C73.6055 35.4538 73.9617 37.7371 73.1382 40.1629C72.7987 41.1536 72.4073 42.1217 72.0177 43.1686C72.2812 43.1395 72.5094 43.119 72.7372 43.0788C75.4843 42.5748 78.2117 42.7236 80.9366 43.2174C81.5243 43.3216 82.13 43.3466 82.6002 43.7667C82.8093 43.9555 82.9857 44.1865 83.1796 44.4033C83.0416 44.6801 82.9395 44.8833 82.773 45.21C83.1773 45.1268 83.4582 45.0835 83.7406 45.0146C85.5197 44.6015 87.2804 44.7111 89.0165 45.2371C91.052 45.8496 92.3698 48.0205 92.1394 50.1542C92.0293 51.1835 91.6248 52.0888 91.1924 52.9788C89.6476 56.1529 87.9596 59.2629 85.9137 62.1377C83.1253 66.0609 79.88 69.542 75.7581 72.1245C75.6453 72.1938 75.5347 72.277 75.4259 72.3541C75.4085 72.3683 75.3992 72.398 75.35 72.4937C75.5855 72.5341 75.7934 72.5792 76.0128 72.6081C77.8306 72.8072 79.4437 73.4778 80.8908 74.5992C82.7489 76.0374 84.2571 77.8041 85.5909 79.7124C86.6177 81.1796 87.7295 82.5622 88.9963 83.8233C89.5904 84.4123 90.1363 85.0516 90.6491 85.7133C91.0788 86.2643 91.3447 86.9014 90.8939 87.577C90.552 88.0907 89.7974 88.2935 88.9764 87.9733C88.1793 87.6605 87.4098 87.2585 86.6826 86.8043C84.3348 85.3249 82.044 83.7458 79.6659 82.3223C77.4196 80.9788 75.0316 79.9241 72.5884 78.9631C68.3939 77.3148 64.0078 76.664 59.5728 76.2132C57.6684 76.0199 55.7672 75.7949 53.9185 75.2534C52.0679 74.7179 50.2248 74.8111 48.4216 75.3864C47.1039 75.8058 46.139 76.6871 45.5972 77.9934C45.4716 78.2937 45.2763 78.5658 45.0331 78.9927C44.989 77.8502 44.9752 76.926 44.91 75.9989C44.7602 73.871 43.7884 72.1208 42.2869 70.6693C41.9064 70.2967 41.3281 70.078 40.7946 69.9254C38.3825 69.222 35.8969 69.1353 33.4131 69.3165C30.8032 69.5043 28.201 69.7728 25.5965 70.0275C23.7336 70.2059 21.8755 70.2422 20.0332 69.9115C18.6224 69.6626 17.2816 69.1876 16.0616 68.3651C14.0975 67.0375 12.0742 65.7959 10.0853 64.5062C9.61344 64.1966 9.12192 63.8874 8.72723 63.4973C7.36163 62.1337 7.00062 59.7185 9.18353 58.2759C10.169 57.6228 11.2498 57.1885 12.3926 56.9757C14.8077 56.5317 17.2387 56.1839 19.658 55.7477C21.8141 55.3603 23.9643 55.4343 26.093 55.7886C29.5765 56.3615 32.8211 57.5582 35.5425 59.917C35.5823 59.9359 35.6359 59.9525 35.8135 60.0533ZM82.6447 44.4655C82.352 43.9571 81.8987 43.7772 81.42 43.7003C80.3559 43.533 79.2904 43.3913 78.2157 43.2794C74.8155 42.9217 71.5436 43.5825 68.341 44.6301C62.6955 46.4851 58.2857 50.0809 54.6722 54.6873C51.8303 58.3198 49.9355 62.4551 48.7173 66.892C48.4192 67.9803 48.2283 69.102 48.0768 70.2228C47.9289 71.3317 48.4083 72.2701 49.291 72.8965C50.2798 73.6015 51.379 74.119 52.5706 74.4434C54.4959 74.9695 56.4503 75.3806 58.4325 75.6177C62.1221 76.0523 65.758 75.8177 69.3049 74.6486C76.2988 72.3381 81.4406 67.6647 85.6064 61.7814C87.5545 59.0327 89.1749 56.0779 90.6657 53.0567C91.1607 52.0491 91.6891 51.0387 91.7349 49.859C91.8142 47.9393 90.6074 46.1683 88.7761 45.6127C87.2543 45.1532 85.7049 45.057 84.1409 45.3869C83.456 45.533 82.7761 45.7264 82.0972 45.8745C81.9148 45.9157 81.7229 45.8822 81.5318 45.8881C81.5048 45.8275 81.4779 45.767 81.4588 45.7023C81.8385 45.2983 82.2398 44.8879 82.6447 44.4655ZM40.479 29.3689C40.3786 29.3768 40.2861 29.3807 40.1857 29.3887C40.0758 29.1327 39.958 28.8809 39.8481 28.6249C39.2943 27.3372 38.7951 26.0208 38.1729 24.7642C37.8452 24.0948 37.3612 23.4877 36.8642 22.9224C36.3612 22.3551 35.8493 22.3854 35.4847 23.0355C35.1293 23.6559 34.8526 24.3595 34.7216 25.056C34.3777 26.8609 34.3261 28.6913 34.395 30.5331C34.5525 34.6794 34.7672 38.8304 34.8381 42.9824C34.8995 46.7857 34.9431 50.5835 35.2429 54.376C35.6537 59.4948 37.4798 63.9635 40.9784 67.7315C42.0054 68.8399 43.0503 69.9538 44.4135 70.6511C44.9537 70.9298 45.5668 71.1202 46.1701 71.2162C46.8801 71.3257 47.161 71.0933 47.3314 70.3959C47.4436 69.9283 47.5101 69.4401 47.5156 68.959C47.5235 66.2798 47.1615 63.6359 46.7739 60.9906C46.0895 56.3544 46.2669 51.738 47.2457 47.1681C47.6956 45.0634 48.3195 42.9866 48.9873 40.9365C49.3482 39.835 49.4084 38.7771 49.1998 37.6815C49.0777 37.0433 48.9419 36.4074 48.7337 35.7947C47.665 32.5464 45.8855 29.8016 42.9267 27.9563C42.4132 27.6337 41.9214 27.22 41.154 27.1905C40.9327 27.9047 40.7058 28.6368 40.479 29.3689ZM71.2177 43.3704C72.0168 42.2027 72.4568 40.93 72.8332 39.6311C73.3157 37.9475 73.1896 36.2903 72.3802 34.7536C71.8647 33.7845 71.1525 32.9239 70.5104 32.0264C70.0858 31.4379 69.6439 30.8635 69.1941 30.2932C68.6067 29.5562 68.0445 28.801 67.4048 28.1064C66.8479 27.5029 66.0892 27.2347 65.2766 27.3086C64.5053 27.3757 63.7106 27.4552 62.9702 27.6754C60.9016 28.2858 59.0452 29.3274 57.3016 30.5737C55.0222 32.2016 53.3758 34.398 51.7677 36.639C50.4143 38.5218 49.4096 40.5848 48.7845 42.7917C48.1612 44.9926 47.7225 47.2509 47.3191 49.5006C46.8009 52.3735 46.6757 55.2838 46.9547 58.1955C47.2405 61.1485 47.6069 64.0939 47.9399 67.042C47.9475 67.1227 48.0024 67.1984 48.048 67.3039C48.5842 65.8263 49.0561 64.3874 49.6256 62.9918C50.2158 61.5505 50.8216 60.1009 51.5711 58.7352C52.7854 56.522 54.192 54.4469 55.9001 52.5567C59.7439 48.3023 64.2728 45.2068 69.8493 43.7218C70.3119 43.598 70.7785 43.4819 71.2177 43.3704ZM42.045 69.6808C42.0649 69.5956 42.0838 69.5558 42.0737 69.5462C41.9667 69.4281 41.8556 69.3023 41.739 69.1943C39.5688 67.0785 37.8006 64.6764 36.5527 61.9009C36.3789 61.5142 36.1225 61.141 35.8244 60.8396C34.3971 59.359 32.7112 58.2287 30.7904 57.5409C29.2468 56.9833 27.643 56.557 26.0335 56.2334C24.0992 55.8415 22.1179 55.8331 20.1522 56.0904C18.6012 56.2939 17.0593 56.5523 15.516 56.8365C14.1651 57.089 12.8042 57.3319 11.4839 57.7179C10.6728 57.9554 9.87751 58.3739 9.18238 58.8692C8.02293 59.6836 7.7879 60.8633 8.35587 62.1684C8.73499 63.0299 9.42677 63.5775 10.1938 64.0506C11.2007 64.6764 12.2517 65.2442 13.2144 65.9281C15.0878 67.2536 17.13 67.7182 19.356 67.2741C20.997 66.9486 22.612 66.5171 24.2481 66.1443C25.7998 65.791 27.3447 65.3965 28.9123 65.1395C30.743 64.8337 32.5198 65.144 34.163 66.0327C35.4873 66.7506 36.8156 67.4762 38.1246 68.222C39.3655 68.914 40.6931 69.3262 42.045 69.6808ZM90.666 87.1539C90.7049 86.4809 90.3328 86.0391 89.9978 85.5828C88.9361 84.1439 87.4435 83.2955 85.8457 82.5971C84.2181 81.8894 82.8905 80.8247 81.9591 79.3023C81.3401 78.288 80.7368 77.2655 80.1335 76.2431C79.5361 75.2224 78.7321 74.4051 77.7675 73.7272C76.3627 72.7429 74.8707 72.7559 73.4077 73.4759C70.7682 74.7703 68.0245 75.706 65.1036 76.0973C64.9129 76.1229 64.7249 76.182 64.5347 76.2273C65.3255 76.5185 66.117 76.6599 66.8997 76.8508C68.3382 77.1997 69.792 77.5206 71.2088 77.9606C72.3102 78.3026 73.3677 78.8071 74.445 79.2265C76.6098 80.0749 78.6725 81.1264 80.646 82.3395C82.7774 83.6538 84.8421 85.0779 86.9582 86.4201C87.6557 86.8651 88.4184 87.2259 89.1784 87.5532C89.7095 87.7768 90.2371 87.6536 90.666 87.1539ZM16.4251 67.8451C17.5778 68.8424 18.9054 69.2547 20.292 69.4765C22.2718 69.7846 24.2643 69.6726 26.2551 69.4817C28.9916 69.2223 31.7243 68.9748 34.4625 68.7942C35.6416 68.7167 36.8364 68.8202 38.0964 68.8396C37.9716 68.716 37.9085 68.6246 37.8266 68.5731C36.8027 67.9811 35.7788 67.3892 34.7435 66.8132C33.4866 66.1097 32.1594 65.5279 30.7009 65.5383C29.5223 65.5507 28.3325 65.6836 27.1788 65.9321C25.1242 66.3707 23.1092 66.9977 21.0547 67.4362C19.8518 67.6956 18.6072 67.7528 17.374 67.8787C17.0632 67.9127 16.7407 67.8583 16.4251 67.8451ZM87.0359 82.4838C86.4587 81.6717 85.899 80.8455 85.2947 80.0576C84.504 79.0291 83.7151 77.9947 82.8528 77.0288C81.7179 75.7629 80.4655 74.6237 78.8673 73.9056C78.8731 73.9922 78.9216 74.0464 78.9778 74.0965C79.9838 74.9569 80.6016 76.1013 81.2602 77.2193C81.8187 78.1757 82.4241 79.1074 83.0836 79.9908C84.068 81.3208 85.5266 81.963 87.0359 82.4838Z" fill="url(#paint50_linear_2024_2744)"/>
<path d="M50.7458 60.3495C51.4308 59.8446 51.801 59.092 51.8731 58.312C51.998 56.9612 52.2873 55.6485 52.654 54.3598C53.5461 51.1859 54.776 48.143 56.3022 45.2181C56.997 43.8813 57.7078 42.5559 58.4127 41.2287C58.5189 41.0334 58.659 40.8551 58.859 40.715C58.3881 41.6451 57.9052 42.5716 57.4503 43.5132C56.6238 45.2332 55.7556 46.9402 55.0164 48.6938C54.2962 50.4077 53.6793 52.1667 53.0822 53.9253C52.7486 54.9176 52.5441 55.9566 52.3039 56.9845C52.2462 57.234 52.2755 57.4975 52.2612 57.754C53.3186 56.595 54.2926 55.4101 55.3914 54.3488C56.5095 53.2673 57.7159 52.2589 59.1931 51.6609C59.3651 51.5903 59.5183 51.4748 59.6857 51.3767C63.0384 49.4431 66.5399 47.8297 70.2006 46.5658C70.3766 46.503 70.5568 46.4481 70.7411 46.4009C70.7841 46.3882 70.8381 46.4245 70.8976 46.443C69.2043 47.1697 67.496 47.8396 65.8475 48.6324C63.7326 49.6456 61.6716 50.78 59.5649 51.8089C58.3437 52.4017 57.2098 53.1129 56.1942 54.0109C54.0625 55.8997 52.2218 58.0288 50.9922 60.6283C50.8998 60.8214 50.859 61.037 50.7945 61.2453L50.8197 61.2271C50.7001 61.2552 50.5786 61.2892 50.5864 61.2851C50.6271 61.0694 50.6883 60.7035 50.7536 60.3454L50.7458 60.3495Z" fill="url(#paint51_linear_2024_2744)"/>
<path d="M41.42 64.7997C40.7806 62.2529 40.4124 59.6729 40.2563 57.0609C40.0608 53.7974 40.3031 50.5525 40.729 47.3254C41.0918 44.555 41.5356 41.7966 41.9437 39.0271C41.9883 38.7148 42.0228 38.3929 42.2057 38.0974C42.096 39.1461 41.9982 40.1986 41.8688 41.2477C41.53 43.9409 41.1596 46.6307 40.8208 49.3239C40.2062 54.1492 40.5151 58.9416 41.2907 63.7223C41.3454 64.072 41.3767 64.434 41.42 64.7997Z" fill="url(#paint52_linear_2024_2744)"/>
<path d="M81.9465 56.1703C74.481 61.2045 66.5129 65.3127 58.1776 68.7524C66.3822 65.1025 74.2746 60.8598 81.9465 56.1703Z" fill="url(#paint53_linear_2024_2744)"/>
<path d="M39.7644 66.1088C38.6162 64.7607 38.0082 63.1434 37.5176 61.4841C36.2915 57.3134 35.8082 53.0406 35.9384 48.7039C35.9883 47.069 36.1921 45.4428 36.4531 43.8213C36.4238 44.2949 36.4064 44.7722 36.3693 45.2499C35.9341 50.4443 36.2426 55.5761 37.5724 60.6335C38.0804 62.5526 38.8323 64.3582 39.8286 66.07L39.7644 66.1088Z" fill="url(#paint54_linear_2024_2744)"/>
<path d="M38.524 65.3805C38.9097 65.7156 39.3013 66.0526 39.7249 66.4126C39.7472 66.2564 39.7574 66.1812 39.7677 66.106L39.8379 66.0691C40.2318 66.6092 40.7602 67.0735 40.7219 67.871C40.6075 67.7767 40.4816 67.6985 40.3907 67.5919C39.0414 66.0699 37.3423 65.0658 35.526 64.2082C33.3174 63.1635 30.9335 62.8738 28.5717 62.5126C27.0644 62.2797 25.5395 62.1457 24.035 61.8614C25.2787 61.9342 26.533 61.9515 27.7646 62.1054C30.0577 62.393 32.3762 62.6624 34.5564 63.4829C35.7072 63.9185 36.7925 64.5231 37.906 65.0581C38.1212 65.164 38.3308 65.2879 38.5442 65.3998L38.524 65.3805Z" fill="url(#paint55_linear_2024_2744)"/>
<path d="M57.7312 29.9835C57.6636 30.1386 57.6279 30.3167 57.5265 30.4548C56.088 32.4868 54.9624 34.6877 53.9484 36.9493C53.6079 37.7111 53.3073 38.4918 53.0304 39.2799C52.2446 41.521 51.4765 43.7676 50.7505 45.8578C51.3339 41.6818 55.1882 32.2335 57.7312 29.9835Z" fill="url(#paint56_linear_2024_2744)"/>
<path d="M73.5424 69.5152C69.6611 71.8266 65.675 73.8445 61.2473 74.8445C59.4229 75.2566 57.5751 75.407 55.7108 75.337C55.5628 75.3302 55.4099 75.2762 55.2549 75.1237C55.4176 75.0828 55.5777 75.0086 55.7335 75.0113C60.2081 75.1024 64.3686 73.8695 68.3678 71.9992C70.099 71.1928 71.8157 70.3492 73.5424 69.5152Z" fill="url(#paint57_linear_2024_2744)"/>
<path d="M49.4109 73.1392C51.7275 73.1605 53.9421 72.6477 56.0976 71.8621C59.376 70.6749 62.5029 69.1341 65.6559 67.6144C65.405 67.7714 65.16 67.9302 64.9109 68.0812C64.654 68.2363 64.4049 68.3873 64.138 68.5327C60.708 70.3775 57.2165 72.1052 53.4043 73.0353C52.2885 73.3086 51.1168 73.3623 49.9702 73.4825C49.6379 73.5229 49.6348 73.4697 49.4109 73.1392Z" fill="url(#paint58_linear_2024_2744)"/>
<path d="M50.7996 61.2397C51.0605 60.9032 51.3213 60.5667 51.5781 60.2224C52.8917 58.4254 54.5255 56.9431 56.2155 55.5109C56.6414 55.1474 57.022 54.698 57.4949 54.4143C59.1722 53.4022 60.8838 52.4268 62.5917 51.4632C63.2636 51.0848 63.9784 50.7783 64.7201 50.5325C64.2097 50.811 63.6851 51.0722 63.1888 51.3682C61.657 52.2689 60.1068 53.1444 58.6037 54.0998C55.9301 55.8006 53.6787 57.9914 51.7233 60.4697C50.7005 61.7699 50.0828 63.3003 49.3534 64.7699C49.768 63.7896 50.1845 62.8035 50.5932 61.8214C50.6738 61.6246 50.7484 61.426 50.8248 61.2214L50.7996 61.2397Z" fill="url(#paint59_linear_2024_2744)"/>
<path d="M80.7621 79.4736C77.9098 78.7577 75.0815 77.9645 72.2075 77.3398C69.3513 76.7207 66.439 76.4302 63.4955 76.6195C63.4865 76.5644 63.4774 76.5094 63.4683 76.4543C63.6449 76.4112 63.8242 76.3168 64.0039 76.3269C65.6156 76.3703 67.2279 76.3487 68.8321 76.5008C70.9774 76.6968 73.0869 77.1559 75.1598 77.7538C76.3283 78.0905 77.5129 78.3538 78.6739 78.7143C79.3824 78.9342 80.054 79.2733 80.7422 79.5588C80.7455 79.5271 80.7547 79.4974 80.7621 79.4736Z" fill="url(#paint60_linear_2024_2744)"/>
<path d="M76.4553 51.1588C76.0981 51.3219 75.745 51.4928 75.3896 51.6499C71.8491 53.1991 68.43 54.9883 65.0725 56.8945C63.6938 57.6798 62.3479 58.5275 60.9855 59.344C60.7131 59.5073 60.4283 59.6472 60.1311 59.7637C65.2939 56.3696 70.5881 53.2251 76.3773 51.0106C76.4019 51.0574 76.4325 51.106 76.4553 51.1588Z" fill="url(#paint61_linear_2024_2744)"/>
<path d="M45.9482 30.2212C46.0038 30.6103 46.0791 30.9989 46.1149 31.3884C46.301 33.6509 46.0986 35.9037 45.8784 38.1509C45.6942 40.0506 45.4664 41.9433 45.2446 43.8378C45.1831 44.3731 45.0662 44.8978 44.9552 45.4243C45.2259 40.3618 46.1812 35.3423 45.732 30.2454C45.8007 30.2341 45.8754 30.2247 45.9482 30.2212Z" fill="url(#paint62_linear_2024_2744)"/>
<path d="M79.1287 64.785C82.4808 61.9901 86.1774 59.6414 89.0988 56.3409C89.1611 56.3928 89.2173 56.4429 89.2777 56.5008C89.1147 56.7111 88.9758 56.9485 88.7826 57.1299C87.6953 58.1752 86.6504 59.2729 85.4822 60.2214C83.8276 61.5602 82.0839 62.7866 80.3703 64.042C79.9763 64.3241 79.5433 64.5419 79.1287 64.785Z" fill="url(#paint63_linear_2024_2744)"/>
<path d="M42.8171 69.7592C42.9333 69.3843 43.0614 69.0132 43.1656 68.6346C43.5993 67.0668 43.6318 65.4461 43.6804 63.837C43.7378 61.9045 43.7224 59.9755 43.7422 57.8486C43.8258 58.1681 43.892 58.3126 43.8972 58.4642C44.0451 61.7129 44.1339 64.9628 43.6607 68.1947C43.5785 68.7758 43.4655 69.393 43.0537 69.8588C42.9801 69.8228 42.8986 69.791 42.8171 69.7592Z" fill="url(#paint64_linear_2024_2744)"/>
<path d="M27.9692 58.0682C23.9506 57.3883 19.985 56.3267 15.8435 56.8227C15.8363 56.7617 15.8291 56.7007 15.8159 56.6379C16.0099 56.5806 16.2035 56.5037 16.4019 56.4739C17.9074 56.2495 19.4113 56.3248 20.9025 56.5463C22.6865 56.8131 24.4487 57.171 26.2169 57.5307C26.8111 57.6564 27.3857 57.887 27.9692 58.0682Z" fill="url(#paint65_linear_2024_2744)"/>
<path d="M50.5848 73.8632C50.6512 73.8382 50.721 73.7816 50.7842 73.7881C52.2892 73.9227 53.7373 73.609 55.1549 73.1619C57.1012 72.5462 59.0348 71.8874 61.0176 71.3221C60.719 71.4643 60.435 71.6436 60.1297 71.7445C58.0141 72.4643 55.9031 73.2115 53.7643 73.8588C53.0083 74.0873 52.1762 74.0768 51.377 74.1288C51.1171 74.146 50.8447 74.0353 50.5795 73.9855C50.5727 73.9443 50.5778 73.9067 50.5848 73.8632Z" fill="url(#paint66_linear_2024_2744)"/>
<path d="M9.66893 60.4264C13.9564 59.2061 18.3004 59.5305 22.6426 60.05C21.2355 59.9785 19.8335 59.8695 18.4253 59.8434C16.9462 59.8147 15.4615 59.804 13.9871 59.9074C12.5462 60.0081 11.1082 60.2468 9.66893 60.4264Z" fill="url(#paint67_linear_2024_2744)"/>
<path d="M49.2891 45.2261C48.436 49.6837 47.9714 54.1511 48.3021 58.6828C47.7007 54.1193 48.2144 49.641 49.2891 45.2261Z" fill="url(#paint68_linear_2024_2744)"/>
<path d="M72.8703 35.0854C72.2532 38.3182 70.3164 40.8217 68.4055 43.3463C69.9517 40.6302 71.9184 38.136 72.8703 35.0854Z" fill="url(#paint69_linear_2024_2744)"/>
<path d="M75.7653 48.604C78.3281 47.0512 80.7853 45.6286 83.6021 44.9832C83.6623 45.1259 83.6806 45.1511 83.6732 45.1749C83.6718 45.2006 83.6548 45.2345 83.6332 45.2408C81.0607 46.3405 78.4804 47.4442 75.7653 48.604Z" fill="url(#paint70_linear_2024_2744)"/>
<path d="M11.117 65.0062C14.2343 65.8566 17.3684 66.1052 20.5792 66.0644C20.3967 66.1056 20.2187 66.1744 20.0395 66.184C17.9683 66.3176 15.908 66.311 13.8751 65.8364C13.1202 65.6608 12.3594 65.4833 11.6059 65.282C11.4296 65.2403 11.2768 65.1015 11.117 65.0062Z" fill="url(#paint71_linear_2024_2744)"/>
<path d="M65.8119 75.85C69.6327 75.2937 73.3032 76.107 76.9713 76.9913C73.2775 76.3797 69.5977 75.5961 65.8119 75.85Z" fill="url(#paint72_linear_2024_2744)"/>
<path d="M39.748 37.0041C39.4415 35.0043 40.0587 28.9927 40.6926 28.0415C40.3765 31.0613 40.0669 34.0178 39.748 37.0041Z" fill="url(#paint73_linear_2024_2744)"/>
<path d="M39.8203 47.5366C39.3548 51.3124 39.3684 55.0999 39.7132 58.8924C39.1123 55.1052 39.0003 51.3197 39.8203 47.5366Z" fill="url(#paint74_linear_2024_2744)"/>
<path d="M46.9266 60.8551C47.271 64.2691 47.3407 67.6434 45.4599 70.7448C46.8436 68.174 46.792 65.3727 46.7798 62.5707C46.7755 61.9953 46.7455 61.4185 46.7293 60.8395C46.7943 60.8401 46.8635 60.8485 46.9266 60.8551Z" fill="url(#paint75_linear_2024_2744)"/>
<path d="M48.6976 67.4093C49.3601 65.9449 54.2843 62.6465 56.085 62.3315C53.6407 63.9863 50.7916 65.1369 48.6976 67.4093Z" fill="url(#paint76_linear_2024_2744)"/>
<path d="M59.0667 29.2872C57.398 31.8935 56.271 34.7724 54.8174 37.4846C55.9343 34.5961 57.1409 31.755 59.0667 29.2872Z" fill="url(#paint77_linear_2024_2744)"/>
<path d="M65.3572 58.5821C61.8977 60.4174 58.4615 62.3252 55.1705 64.4804C55.0324 64.568 54.8354 64.572 54.6236 64.6237C58.0771 62.3233 61.6295 60.3145 65.3572 58.5821Z" fill="url(#paint78_linear_2024_2744)"/>
<path d="M50.7622 60.3374C50.7506 59.3228 50.5984 58.2775 50.7666 57.2927C51.1416 55.0936 51.681 52.9324 52.1548 50.7509C52.224 50.7594 52.2931 50.7678 52.3664 50.784C52.3338 51.0152 52.315 51.2442 52.2587 51.4681C52.0549 52.3571 51.8374 53.2484 51.6199 54.1397C51.182 55.9736 50.8942 57.828 50.8317 59.7132C50.8244 59.9262 50.7718 60.1382 50.7448 60.3515L50.7622 60.3374Z" fill="url(#paint79_linear_2024_2744)"/>
<path d="M69.8481 31.0714C69.1817 33.5583 67.9105 35.7662 66.5715 37.94C67.6081 35.6266 68.6428 33.3192 69.6733 31.0041C69.731 31.0285 69.7905 31.0469 69.8481 31.0714Z" fill="url(#paint80_linear_2024_2744)"/>
<path d="M85.078 52.149C87.3062 50.8968 89.5344 49.6446 91.7625 48.3924C91.7886 48.4136 91.8147 48.4347 91.8389 48.4618C91.6613 48.635 91.506 48.8412 91.306 48.9814C89.3444 50.2576 87.2738 51.3174 85.078 52.149Z" fill="url(#paint81_linear_2024_2744)"/>
<path d="M26.1702 64.7358C23.0393 65.0882 19.8922 65.2399 16.7333 65.1139C19.8758 64.9347 23.0183 64.7555 26.159 64.5822C26.164 64.6294 26.1671 64.6826 26.1702 64.7358Z" fill="url(#paint82_linear_2024_2744)"/>
<path d="M36.9765 22.875C36.7699 25.3939 36.5616 27.9188 36.355 30.4377C36.2181 27.8904 36.3239 25.3598 36.7118 22.845C36.8007 22.853 36.8876 22.8669 36.9765 22.875Z" fill="url(#paint83_linear_2024_2744)"/>
<path d="M44.9922 62.1938C44.7882 64.9353 44.782 67.7119 43.5755 70.2791C44.3233 67.6348 44.5964 64.9018 44.9922 62.1938Z" fill="url(#paint84_linear_2024_2744)"/>
<path d="M90.8744 86.7215C90.0578 86.8923 86.5306 85.2162 84.8281 83.8652C86.8435 84.8173 88.8251 85.7524 90.8744 86.7215Z" fill="url(#paint85_linear_2024_2744)"/>
<path d="M62.9097 46.8374C64.8573 45.2895 65.9592 43.0811 67.4732 41.1638C66.0809 44.0778 64.1848 46.4701 62.9097 46.8374Z" fill="url(#paint86_linear_2024_2744)"/>
<path d="M38.5388 65.3971C37.8272 64.4712 36.8089 63.9658 35.799 63.476C35.1475 63.1562 34.4601 62.9102 33.7898 62.6303C33.1194 62.3503 32.4473 62.0764 31.7352 61.7835C33.7433 62.296 35.659 62.9169 37.3877 64.0149C37.7913 64.2708 38.1513 64.6045 38.5247 64.9162C38.6793 65.0491 38.7619 65.2248 38.5265 65.3736L38.5388 65.3971Z" fill="url(#paint87_linear_2024_2744)"/>
<path d="M87.3198 50.1161C88.6991 49.2658 90.1072 48.47 91.5459 47.7229C91.0874 48.4026 88.3643 49.9251 87.3198 50.1161Z" fill="url(#paint88_linear_2024_2744)"/>
<path d="M39.264 33.6947C39.0985 32.2083 39.4127 29.0053 39.8029 28.3568C39.7324 30.1417 39.4527 31.9073 39.264 33.6947Z" fill="url(#paint89_linear_2024_2744)"/>
<path d="M46.6787 37.6215C46.7187 35.7031 46.7618 33.8379 46.809 31.9805C46.8063 31.9471 46.8627 31.9124 46.8935 31.8763C47.1872 32.7176 47.0587 36.311 46.6787 37.6215Z" fill="url(#paint90_linear_2024_2744)"/>
<path d="M65.7711 31.9244C66.0921 30.6151 67.1012 28.4954 67.595 28.1857C67.0981 29.5577 66.5172 30.7797 65.7711 31.9244Z" fill="url(#paint91_linear_2024_2744)"/>
<path d="M70.2409 31.91C70.0245 32.9451 69.5875 33.8922 68.9158 34.7338C69.3052 33.7719 69.6886 32.8082 70.0799 31.8404C70.1375 31.8648 70.1892 31.8874 70.2409 31.91Z" fill="url(#paint92_linear_2024_2744)"/>
<path d="M18.4985 170.696C18.6687 170.357 18.8028 169.988 19.0091 169.68C19.5711 168.856 20.113 168.013 20.7573 167.261C22.6481 165.055 24.6271 162.923 26.6523 160.831C29.3488 158.047 32.6067 156.168 36.1701 154.841C39.6162 153.555 43.1996 153.259 46.8428 154.012C50.2227 154.709 53.2739 156.172 56.2243 157.897C58.9491 159.487 61.6642 161.087 64.4289 162.611C65.8451 163.39 67.3428 164.012 68.8046 164.707C68.9918 164.798 69.1712 164.893 69.3522 165.151C69.1716 165.186 68.99 165.267 68.8141 165.245C67.5244 165.131 66.2384 165.006 64.9561 164.869C62.753 164.629 60.5928 164.186 58.4601 163.55C55.2759 162.6 52.0788 161.692 48.8914 160.774C47.0229 160.233 45.1668 159.631 43.2766 159.181C38.593 158.079 34.0375 158.459 29.7387 160.706C28.0718 161.578 26.4469 162.568 24.9148 163.658C22.4701 165.398 20.6835 167.773 19.041 170.251C18.9532 170.387 18.8774 170.526 18.7855 170.654C18.7492 170.708 18.6708 170.73 18.6084 170.763C18.5764 170.74 18.5384 170.715 18.4985 170.696ZM27.4987 160.585C27.5326 160.602 27.5683 160.613 27.6022 160.63C28.2372 160.181 28.8622 159.723 29.5073 159.283C33.1604 156.803 37.195 155.661 41.6085 155.929C44.8299 156.127 47.8473 157.11 50.7917 158.37C52.3236 159.028 53.8426 159.728 55.3746 160.386C57.5292 161.31 59.7101 162.17 61.844 163.139C63.337 163.818 64.9167 164.133 66.49 164.51C66.7021 164.563 66.9358 164.525 67.1585 164.522C63.7348 162.787 60.4494 160.879 57.2154 158.89C54.3091 157.106 51.3108 155.536 47.9858 154.64C46.4076 154.216 44.8212 153.964 43.195 153.968C37.3132 153.995 32.379 156.397 27.9446 160.051C27.7725 160.206 27.6447 160.408 27.4987 160.585ZM63.6979 164.38C63.7126 164.333 63.7274 164.285 63.7421 164.238C62.6867 163.832 61.6239 163.449 60.5795 163.008C58.0692 161.947 55.5532 160.905 53.0769 159.777C50.5904 158.64 48.0671 157.621 45.4208 156.937C44.3267 156.656 43.2059 156.419 42.0862 156.325C37.0681 155.902 32.5866 157.349 28.5879 160.355C28.0932 160.73 27.631 161.148 27.1545 161.548C27.8547 161.289 28.4531 160.874 29.0989 160.559C30.9972 159.635 32.9416 158.836 35.0451 158.471C38.2996 157.91 41.5116 158.222 44.6496 159.131C49.7889 160.616 54.8424 162.42 60.0772 163.576C61.2854 163.847 62.4955 164.111 63.6979 164.38Z" fill="url(#paint93_linear_2024_2744)"/>
<path d="M16.3259 177.978C16.6929 176.794 17.1035 175.617 17.417 174.417C18.08 171.857 18.7312 169.294 19.315 166.716C19.9136 164.091 20.4033 161.438 20.9919 158.803C21.3895 157.016 21.7968 155.218 22.3153 153.461C23.4079 149.789 24.5798 146.135 25.732 142.482C26.0331 141.532 26.3717 140.587 26.7025 139.646C27.6576 136.922 28.6246 134.203 29.5875 131.475C29.6543 131.281 29.6943 131.026 30.0974 131.177C30.0292 131.397 29.9669 131.619 29.8945 131.831C28.5934 135.524 27.2347 139.191 26.005 142.906C24.7753 146.62 23.627 150.366 22.5341 154.123C21.9649 156.085 21.5741 158.103 21.1238 160.103C20.6481 162.205 20.1962 164.315 19.7205 166.418C19.2809 168.362 18.8334 170.31 18.3503 172.247C17.9286 173.923 17.4475 175.58 16.9942 177.253C16.9194 177.536 16.8606 177.831 16.7977 178.118C16.6353 178.074 16.4806 178.026 16.3259 177.978Z" fill="url(#paint94_linear_2024_2744)"/>
<path d="M45.3535 76.64C45.1626 77.3775 44.9966 78.1224 44.787 78.8545C43.7139 82.5328 42.6284 86.2074 41.5366 89.8802C38.3365 100.69 35.2991 111.497 32.4426 122.332C31.9348 124.257 31.4324 126.208 30.906 128.127C30.5899 129.289 30.2234 130.461 29.7641 132.016C29.989 127.805 43.027 82.8931 45.3535 76.64Z" fill="url(#paint95_linear_2024_2744)"/>
</g>
<defs>
<filter id="filter0_f_2024_2744" x="-10.6328" y="89.8408" width="130.672" height="152.481" filterUnits="userSpaceOnUse" color-interpolation-filters="sRGB">
<feFlood flood-opacity="0" result="BackgroundImageFix"/>
<feBlend mode="normal" in="SourceGraphic" in2="BackgroundImageFix" result="shape"/>
<feGaussianBlur stdDeviation="1" result="effect1_foregroundBlur_2024_2744"/>
</filter>
<linearGradient id="paint0_linear_2024_2744" x1="-53.1744" y1="218.814" x2="128.138" y2="100.129" gradientUnits="userSpaceOnUse">
<stop stop-color="#E7C16D"/>
<stop offset="0.2398" stop-color="#B8822C"/>
<stop offset="0.5153" stop-color="#7E5923"/>
<stop offset="0.8571" stop-color="#E7C16D"/>
</linearGradient>
<linearGradient id="paint1_linear_2024_2744" x1="-51.0083" y1="222.131" x2="130.303" y2="103.447" gradientUnits="userSpaceOnUse">
<stop stop-color="#E7C16D"/>
<stop offset="0.2398" stop-color="#B8822C"/>
<stop offset="0.5153" stop-color="#7E5923"/>
<stop offset="0.8571" stop-color="#E7C16D"/>
</linearGradient>
<linearGradient id="paint2_linear_2024_2744" x1="-56.4358" y1="213.837" x2="124.876" y2="95.1519" gradientUnits="userSpaceOnUse">
<stop stop-color="#E7C16D"/>
<stop offset="0.2398" stop-color="#B8822C"/>
<stop offset="0.5153" stop-color="#7E5923"/>
<stop offset="0.8571" stop-color="#E7C16D"/>
</linearGradient>
<linearGradient id="paint3_linear_2024_2744" x1="-50.7062" y1="222.596" x2="130.605" y2="103.912" gradientUnits="userSpaceOnUse">
<stop stop-color="#E7C16D"/>
<stop offset="0.2398" stop-color="#B8822C"/>
<stop offset="0.5153" stop-color="#7E5923"/>
<stop offset="0.8571" stop-color="#E7C16D"/>
</linearGradient>
<linearGradient id="paint4_linear_2024_2744" x1="-58.2377" y1="211.084" x2="123.074" y2="92.3988" gradientUnits="userSpaceOnUse">
<stop stop-color="#E7C16D"/>
<stop offset="0.2398" stop-color="#B8822C"/>
<stop offset="0.5153" stop-color="#7E5923"/>
<stop offset="0.8571" stop-color="#E7C16D"/>
</linearGradient>
<linearGradient id="paint5_linear_2024_2744" x1="-50.7598" y1="222.514" x2="130.552" y2="103.83" gradientUnits="userSpaceOnUse">
<stop stop-color="#E7C16D"/>
<stop offset="0.2398" stop-color="#B8822C"/>
<stop offset="0.5153" stop-color="#7E5923"/>
<stop offset="0.8571" stop-color="#E7C16D"/>
</linearGradient>
<linearGradient id="paint6_linear_2024_2744" x1="-54.1115" y1="217.391" x2="127.201" y2="98.7052" gradientUnits="userSpaceOnUse">
<stop stop-color="#E7C16D"/>
<stop offset="0.2398" stop-color="#B8822C"/>
<stop offset="0.5153" stop-color="#7E5923"/>
<stop offset="0.8571" stop-color="#E7C16D"/>
</linearGradient>
<linearGradient id="paint7_linear_2024_2744" x1="-40.8622" y1="237.627" x2="140.45" y2="118.942" gradientUnits="userSpaceOnUse">
<stop stop-color="#E7C16D"/>
<stop offset="0.2398" stop-color="#B8822C"/>
<stop offset="0.5153" stop-color="#7E5923"/>
<stop offset="0.8571" stop-color="#E7C16D"/>
</linearGradient>
<linearGradient id="paint8_linear_2024_2744" x1="-46.2324" y1="229.423" x2="135.079" y2="110.739" gradientUnits="userSpaceOnUse">
<stop stop-color="#E7C16D"/>
<stop offset="0.2398" stop-color="#B8822C"/>
<stop offset="0.5153" stop-color="#7E5923"/>
<stop offset="0.8571" stop-color="#E7C16D"/>
</linearGradient>
<linearGradient id="paint9_linear_2024_2744" x1="-56.8401" y1="213.218" x2="124.472" y2="94.5337" gradientUnits="userSpaceOnUse">
<stop stop-color="#E7C16D"/>
<stop offset="0.2398" stop-color="#B8822C"/>
<stop offset="0.5153" stop-color="#7E5923"/>
<stop offset="0.8571" stop-color="#E7C16D"/>
</linearGradient>
<linearGradient id="paint10_linear_2024_2744" x1="-54.6508" y1="216.567" x2="126.66" y2="97.8823" gradientUnits="userSpaceOnUse">
<stop stop-color="#E7C16D"/>
<stop offset="0.2398" stop-color="#B8822C"/>
<stop offset="0.5153" stop-color="#7E5923"/>
<stop offset="0.8571" stop-color="#E7C16D"/>
</linearGradient>
<linearGradient id="paint11_linear_2024_2744" x1="-51.8439" y1="220.854" x2="129.468" y2="102.169" gradientUnits="userSpaceOnUse">
<stop stop-color="#E7C16D"/>
<stop offset="0.2398" stop-color="#B8822C"/>
<stop offset="0.5153" stop-color="#7E5923"/>
<stop offset="0.8571" stop-color="#E7C16D"/>
</linearGradient>
<linearGradient id="paint12_linear_2024_2744" x1="-43.9697" y1="232.885" x2="137.342" y2="114.2" gradientUnits="userSpaceOnUse">
<stop stop-color="#E7C16D"/>
<stop offset="0.2398" stop-color="#B8822C"/>
<stop offset="0.5153" stop-color="#7E5923"/>
<stop offset="0.8571" stop-color="#E7C16D"/>
</linearGradient>
<linearGradient id="paint13_linear_2024_2744" x1="-61.448" y1="206.184" x2="119.864" y2="87.4988" gradientUnits="userSpaceOnUse">
<stop stop-color="#E7C16D"/>
<stop offset="0.2398" stop-color="#B8822C"/>
<stop offset="0.5153" stop-color="#7E5923"/>
<stop offset="0.8571" stop-color="#E7C16D"/>
</linearGradient>
<linearGradient id="paint14_linear_2024_2744" x1="-53.7378" y1="217.954" x2="127.574" y2="99.2703" gradientUnits="userSpaceOnUse">
<stop stop-color="#E7C16D"/>
<stop offset="0.2398" stop-color="#B8822C"/>
<stop offset="0.5153" stop-color="#7E5923"/>
<stop offset="0.8571" stop-color="#E7C16D"/>
</linearGradient>
<linearGradient id="paint15_linear_2024_2744" x1="-62.5543" y1="204.499" x2="118.757" y2="85.8147" gradientUnits="userSpaceOnUse">
<stop stop-color="#E7C16D"/>
<stop offset="0.2398" stop-color="#B8822C"/>
<stop offset="0.5153" stop-color="#7E5923"/>
<stop offset="0.8571" stop-color="#E7C16D"/>
</linearGradient>
<linearGradient id="paint16_linear_2024_2744" x1="-56.9299" y1="213.086" x2="124.383" y2="94.4008" gradientUnits="userSpaceOnUse">
<stop stop-color="#E7C16D"/>
<stop offset="0.2398" stop-color="#B8822C"/>
<stop offset="0.5153" stop-color="#7E5923"/>
<stop offset="0.8571" stop-color="#E7C16D"/>
</linearGradient>
<linearGradient id="paint17_linear_2024_2744" x1="-51.7991" y1="220.928" x2="129.513" y2="102.243" gradientUnits="userSpaceOnUse">
<stop stop-color="#E7C16D"/>
<stop offset="0.2398" stop-color="#B8822C"/>
<stop offset="0.5153" stop-color="#7E5923"/>
<stop offset="0.8571" stop-color="#E7C16D"/>
</linearGradient>
<linearGradient id="paint18_linear_2024_2744" x1="-59.4714" y1="209.199" x2="121.84" y2="90.5133" gradientUnits="userSpaceOnUse">
<stop stop-color="#E7C16D"/>
<stop offset="0.2398" stop-color="#B8822C"/>
<stop offset="0.5153" stop-color="#7E5923"/>
<stop offset="0.8571" stop-color="#E7C16D"/>
</linearGradient>
<linearGradient id="paint19_linear_2024_2744" x1="-63.5462" y1="202.974" x2="117.767" y2="84.2888" gradientUnits="userSpaceOnUse">
<stop stop-color="#E7C16D"/>
<stop offset="0.2398" stop-color="#B8822C"/>
<stop offset="0.5153" stop-color="#7E5923"/>
<stop offset="0.8571" stop-color="#E7C16D"/>
</linearGradient>
<linearGradient id="paint20_linear_2024_2744" x1="-52.3035" y1="220.148" x2="129.008" y2="101.464" gradientUnits="userSpaceOnUse">
<stop stop-color="#E7C16D"/>
<stop offset="0.2398" stop-color="#B8822C"/>
<stop offset="0.5153" stop-color="#7E5923"/>
<stop offset="0.8571" stop-color="#E7C16D"/>
</linearGradient>
<linearGradient id="paint21_linear_2024_2744" x1="-57.4617" y1="212.28" x2="123.851" y2="93.5952" gradientUnits="userSpaceOnUse">
<stop stop-color="#E7C16D"/>
<stop offset="0.2398" stop-color="#B8822C"/>
<stop offset="0.5153" stop-color="#7E5923"/>
<stop offset="0.8571" stop-color="#E7C16D"/>
</linearGradient>
<linearGradient id="paint22_linear_2024_2744" x1="-61.31" y1="206.394" x2="120.002" y2="87.7073" gradientUnits="userSpaceOnUse">
<stop stop-color="#E7C16D"/>
<stop offset="0.2398" stop-color="#B8822C"/>
<stop offset="0.5153" stop-color="#7E5923"/>
<stop offset="0.8571" stop-color="#E7C16D"/>
</linearGradient>
<linearGradient id="paint23_linear_2024_2744" x1="-53.6638" y1="218.081" x2="127.649" y2="99.3958" gradientUnits="userSpaceOnUse">
<stop stop-color="#E7C16D"/>
<stop offset="0.2398" stop-color="#B8822C"/>
<stop offset="0.5153" stop-color="#7E5923"/>
<stop offset="0.8571" stop-color="#E7C16D"/>
</linearGradient>
<linearGradient id="paint24_linear_2024_2744" x1="-47.2836" y1="227.819" x2="134.029" y2="109.134" gradientUnits="userSpaceOnUse">
<stop stop-color="#E7C16D"/>
<stop offset="0.2398" stop-color="#B8822C"/>
<stop offset="0.5153" stop-color="#7E5923"/>
<stop offset="0.8571" stop-color="#E7C16D"/>
</linearGradient>
<linearGradient id="paint25_linear_2024_2744" x1="-53.4142" y1="218.455" x2="127.899" y2="99.7698" gradientUnits="userSpaceOnUse">
<stop stop-color="#E7C16D"/>
<stop offset="0.2398" stop-color="#B8822C"/>
<stop offset="0.5153" stop-color="#7E5923"/>
<stop offset="0.8571" stop-color="#E7C16D"/>
</linearGradient>
<linearGradient id="paint26_linear_2024_2744" x1="-40.7019" y1="237.878" x2="140.609" y2="119.192" gradientUnits="userSpaceOnUse">
<stop stop-color="#E7C16D"/>
<stop offset="0.2398" stop-color="#B8822C"/>
<stop offset="0.5153" stop-color="#7E5923"/>
<stop offset="0.8571" stop-color="#E7C16D"/>
</linearGradient>
<linearGradient id="paint27_linear_2024_2744" x1="-55.3971" y1="215.435" x2="125.916" y2="96.7495" gradientUnits="userSpaceOnUse">
<stop stop-color="#E7C16D"/>
<stop offset="0.2398" stop-color="#B8822C"/>
<stop offset="0.5153" stop-color="#7E5923"/>
<stop offset="0.8571" stop-color="#E7C16D"/>
</linearGradient>
<linearGradient id="paint28_linear_2024_2744" x1="-49.2518" y1="224.812" x2="132.06" y2="106.128" gradientUnits="userSpaceOnUse">
<stop stop-color="#E7C16D"/>
<stop offset="0.2398" stop-color="#B8822C"/>
<stop offset="0.5153" stop-color="#7E5923"/>
<stop offset="0.8571" stop-color="#E7C16D"/>
</linearGradient>
<linearGradient id="paint29_linear_2024_2744" x1="-56.5239" y1="213.707" x2="124.788" y2="95.022" gradientUnits="userSpaceOnUse">
<stop stop-color="#E7C16D"/>
<stop offset="0.2398" stop-color="#B8822C"/>
<stop offset="0.5153" stop-color="#7E5923"/>
<stop offset="0.8571" stop-color="#E7C16D"/>
</linearGradient>
<linearGradient id="paint30_linear_2024_2744" x1="-62.0637" y1="205.246" x2="119.247" y2="86.5591" gradientUnits="userSpaceOnUse">
<stop stop-color="#E7C16D"/>
<stop offset="0.2398" stop-color="#B8822C"/>
<stop offset="0.5153" stop-color="#7E5923"/>
<stop offset="0.8571" stop-color="#E7C16D"/>
</linearGradient>
<linearGradient id="paint31_linear_2024_2744" x1="-48.2076" y1="226.414" x2="133.104" y2="107.729" gradientUnits="userSpaceOnUse">
<stop stop-color="#E7C16D"/>
<stop offset="0.2398" stop-color="#B8822C"/>
<stop offset="0.5153" stop-color="#7E5923"/>
<stop offset="0.8571" stop-color="#E7C16D"/>
</linearGradient>
<linearGradient id="paint32_linear_2024_2744" x1="-55.6483" y1="215.039" x2="125.664" y2="96.3554" gradientUnits="userSpaceOnUse">
<stop stop-color="#E7C16D"/>
<stop offset="0.2398" stop-color="#B8822C"/>
<stop offset="0.5153" stop-color="#7E5923"/>
<stop offset="0.8571" stop-color="#E7C16D"/>
</linearGradient>
<linearGradient id="paint33_linear_2024_2744" x1="-42.6817" y1="234.844" x2="138.629" y2="116.16" gradientUnits="userSpaceOnUse">
<stop stop-color="#E7C16D"/>
<stop offset="0.2398" stop-color="#B8822C"/>
<stop offset="0.5153" stop-color="#7E5923"/>
<stop offset="0.8571" stop-color="#E7C16D"/>
</linearGradient>
<linearGradient id="paint34_linear_2024_2744" x1="-46.0316" y1="229.728" x2="135.279" y2="111.044" gradientUnits="userSpaceOnUse">
<stop stop-color="#E7C16D"/>
<stop offset="0.2398" stop-color="#B8822C"/>
<stop offset="0.5153" stop-color="#7E5923"/>
<stop offset="0.8571" stop-color="#E7C16D"/>
</linearGradient>
<linearGradient id="paint35_linear_2024_2744" x1="-61.4434" y1="206.194" x2="119.868" y2="87.5075" gradientUnits="userSpaceOnUse">
<stop stop-color="#E7C16D"/>
<stop offset="0.2398" stop-color="#B8822C"/>
<stop offset="0.5153" stop-color="#7E5923"/>
<stop offset="0.8571" stop-color="#E7C16D"/>
</linearGradient>
<linearGradient id="paint36_linear_2024_2744" x1="-52.7842" y1="219.416" x2="128.527" y2="100.732" gradientUnits="userSpaceOnUse">
<stop stop-color="#E7C16D"/>
<stop offset="0.2398" stop-color="#B8822C"/>
<stop offset="0.5153" stop-color="#7E5923"/>
<stop offset="0.8571" stop-color="#E7C16D"/>
</linearGradient>
<linearGradient id="paint37_linear_2024_2744" x1="-63.4984" y1="203.056" x2="117.814" y2="84.3723" gradientUnits="userSpaceOnUse">
<stop stop-color="#E7C16D"/>
<stop offset="0.2398" stop-color="#B8822C"/>
<stop offset="0.5153" stop-color="#7E5923"/>
<stop offset="0.8571" stop-color="#E7C16D"/>
</linearGradient>
<linearGradient id="paint38_linear_2024_2744" x1="-43.0537" y1="234.281" x2="138.259" y2="115.597" gradientUnits="userSpaceOnUse">
<stop stop-color="#E7C16D"/>
<stop offset="0.2398" stop-color="#B8822C"/>
<stop offset="0.5153" stop-color="#7E5923"/>
<stop offset="0.8571" stop-color="#E7C16D"/>
</linearGradient>
<linearGradient id="paint39_linear_2024_2744" x1="-45.595" y1="230.399" x2="135.718" y2="111.714" gradientUnits="userSpaceOnUse">
<stop stop-color="#E7C16D"/>
<stop offset="0.2398" stop-color="#B8822C"/>
<stop offset="0.5153" stop-color="#7E5923"/>
<stop offset="0.8571" stop-color="#E7C16D"/>
</linearGradient>
<linearGradient id="paint40_linear_2024_2744" x1="-46.5031" y1="229.013" x2="134.808" y2="110.329" gradientUnits="userSpaceOnUse">
<stop stop-color="#E7C16D"/>
<stop offset="0.2398" stop-color="#B8822C"/>
<stop offset="0.5153" stop-color="#7E5923"/>
<stop offset="0.8571" stop-color="#E7C16D"/>
</linearGradient>
<linearGradient id="paint41_linear_2024_2744" x1="-59.2085" y1="209.596" x2="122.102" y2="90.9132" gradientUnits="userSpaceOnUse">
<stop stop-color="#E7C16D"/>
<stop offset="0.2398" stop-color="#B8822C"/>
<stop offset="0.5153" stop-color="#7E5923"/>
<stop offset="0.8571" stop-color="#E7C16D"/>
</linearGradient>
<linearGradient id="paint42_linear_2024_2744" x1="-47.739" y1="227.129" x2="133.574" y2="108.444" gradientUnits="userSpaceOnUse">
<stop stop-color="#E7C16D"/>
<stop offset="0.2398" stop-color="#B8822C"/>
<stop offset="0.5153" stop-color="#7E5923"/>
<stop offset="0.8571" stop-color="#E7C16D"/>
</linearGradient>
<linearGradient id="paint43_linear_2024_2744" x1="-53.1179" y1="218.916" x2="128.194" y2="100.228" gradientUnits="userSpaceOnUse">
<stop stop-color="#E7C16D"/>
<stop offset="0.2398" stop-color="#B8822C"/>
<stop offset="0.5153" stop-color="#7E5923"/>
<stop offset="0.8571" stop-color="#E7C16D"/>
</linearGradient>
<linearGradient id="paint44_linear_2024_2744" x1="-42.8814" y1="234.545" x2="138.428" y2="115.86" gradientUnits="userSpaceOnUse">
<stop stop-color="#E7C16D"/>
<stop offset="0.2398" stop-color="#B8822C"/>
<stop offset="0.5153" stop-color="#7E5923"/>
<stop offset="0.8571" stop-color="#E7C16D"/>
</linearGradient>
<linearGradient id="paint45_linear_2024_2744" x1="-50.8405" y1="222.383" x2="130.473" y2="103.698" gradientUnits="userSpaceOnUse">
<stop stop-color="#E7C16D"/>
<stop offset="0.2398" stop-color="#B8822C"/>
<stop offset="0.5153" stop-color="#7E5923"/>
<stop offset="0.8571" stop-color="#E7C16D"/>
</linearGradient>
<linearGradient id="paint46_linear_2024_2744" x1="-47.5078" y1="227.477" x2="133.801" y2="108.795" gradientUnits="userSpaceOnUse">
<stop stop-color="#E7C16D"/>
<stop offset="0.2398" stop-color="#B8822C"/>
<stop offset="0.5153" stop-color="#7E5923"/>
<stop offset="0.8571" stop-color="#E7C16D"/>
</linearGradient>
<linearGradient id="paint47_linear_2024_2744" x1="-42.7326" y1="234.767" x2="138.579" y2="116.083" gradientUnits="userSpaceOnUse">
<stop stop-color="#E7C16D"/>
<stop offset="0.2398" stop-color="#B8822C"/>
<stop offset="0.5153" stop-color="#7E5923"/>
<stop offset="0.8571" stop-color="#E7C16D"/>
</linearGradient>
<linearGradient id="paint48_linear_2024_2744" x1="-62.747" y1="204.189" x2="118.565" y2="85.5046" gradientUnits="userSpaceOnUse">
<stop stop-color="#E7C16D"/>
<stop offset="0.2398" stop-color="#B8822C"/>
<stop offset="0.5153" stop-color="#7E5923"/>
<stop offset="0.8571" stop-color="#E7C16D"/>
</linearGradient>
<linearGradient id="paint49_linear_2024_2744" x1="-42.6" y1="234.974" x2="138.712" y2="116.29" gradientUnits="userSpaceOnUse">
<stop stop-color="#E7C16D"/>
<stop offset="0.2398" stop-color="#B8822C"/>
<stop offset="0.5153" stop-color="#7E5923"/>
<stop offset="0.8571" stop-color="#E7C16D"/>
</linearGradient>
<linearGradient id="paint50_linear_2024_2744" x1="-69.8137" y1="174.774" x2="166.744" y2="-38.3456" gradientUnits="userSpaceOnUse">
<stop stop-color="#E7C16D"/>
<stop offset="0.2398" stop-color="#B8822C"/>
<stop offset="0.5153" stop-color="#7E5923"/>
<stop offset="0.8571" stop-color="#E7C16D"/>
</linearGradient>
<linearGradient id="paint51_linear_2024_2744" x1="-74.7032" y1="169.306" x2="161.818" y2="-43.7815" gradientUnits="userSpaceOnUse">
<stop stop-color="#E7C16D"/>
<stop offset="0.2398" stop-color="#B8822C"/>
<stop offset="0.5153" stop-color="#7E5923"/>
<stop offset="0.8571" stop-color="#E7C16D"/>
</linearGradient>
<linearGradient id="paint52_linear_2024_2744" x1="-81.1046" y1="162.181" x2="155.406" y2="-50.8707" gradientUnits="userSpaceOnUse">
<stop stop-color="#E7C16D"/>
<stop offset="0.2398" stop-color="#B8822C"/>
<stop offset="0.5153" stop-color="#7E5923"/>
<stop offset="0.8571" stop-color="#E7C16D"/>
</linearGradient>
<linearGradient id="paint53_linear_2024_2744" x1="-62.9939" y1="182.312" x2="173.541" y2="-30.7905" gradientUnits="userSpaceOnUse">
<stop stop-color="#E7C16D"/>
<stop offset="0.2398" stop-color="#B8822C"/>
<stop offset="0.5153" stop-color="#7E5923"/>
<stop offset="0.8571" stop-color="#E7C16D"/>
</linearGradient>
<linearGradient id="paint54_linear_2024_2744" x1="-81.0212" y1="162.295" x2="155.494" y2="-50.7804" gradientUnits="userSpaceOnUse">
<stop stop-color="#E7C16D"/>
<stop offset="0.2398" stop-color="#B8822C"/>
<stop offset="0.5153" stop-color="#7E5923"/>
<stop offset="0.8571" stop-color="#E7C16D"/>
</linearGradient>
<linearGradient id="paint55_linear_2024_2744" x1="-78.7333" y1="164.974" x2="157.959" y2="-48.208" gradientUnits="userSpaceOnUse">
<stop stop-color="#E7C16D"/>
<stop offset="0.2398" stop-color="#B8822C"/>
<stop offset="0.5153" stop-color="#7E5923"/>
<stop offset="0.8571" stop-color="#E7C16D"/>
</linearGradient>
<linearGradient id="paint56_linear_2024_2744" x1="-82.2378" y1="160.896" x2="154.275" y2="-52.118" gradientUnits="userSpaceOnUse">
<stop stop-color="#E7C16D"/>
<stop offset="0.2398" stop-color="#B8822C"/>
<stop offset="0.5153" stop-color="#7E5923"/>
<stop offset="0.8571" stop-color="#E7C16D"/>
</linearGradient>
<linearGradient id="paint57_linear_2024_2744" x1="-60.6374" y1="184.945" x2="175.916" y2="-28.1719" gradientUnits="userSpaceOnUse">
<stop stop-color="#E7C16D"/>
<stop offset="0.2398" stop-color="#B8822C"/>
<stop offset="0.5153" stop-color="#7E5923"/>
<stop offset="0.8571" stop-color="#E7C16D"/>
</linearGradient>
<linearGradient id="paint58_linear_2024_2744" x1="-64.6732" y1="180.46" x2="171.876" y2="-32.6537" gradientUnits="userSpaceOnUse">
<stop stop-color="#E7C16D"/>
<stop offset="0.2398" stop-color="#B8822C"/>
<stop offset="0.5153" stop-color="#7E5923"/>
<stop offset="0.8571" stop-color="#E7C16D"/>
</linearGradient>
<linearGradient id="paint59_linear_2024_2744" x1="-71.892" y1="172.422" x2="164.626" y2="-40.6594" gradientUnits="userSpaceOnUse">
<stop stop-color="#E7C16D"/>
<stop offset="0.2398" stop-color="#B8822C"/>
<stop offset="0.5153" stop-color="#7E5923"/>
<stop offset="0.8571" stop-color="#E7C16D"/>
</linearGradient>
<linearGradient id="paint60_linear_2024_2744" x1="-54.3958" y1="191.987" x2="182.293" y2="-21.1933" gradientUnits="userSpaceOnUse">
<stop stop-color="#E7C16D"/>
<stop offset="0.2398" stop-color="#B8822C"/>
<stop offset="0.5153" stop-color="#7E5923"/>
<stop offset="0.8571" stop-color="#E7C16D"/>
</linearGradient>
<linearGradient id="paint61_linear_2024_2744" x1="-67.2672" y1="177.567" x2="169.267" y2="-35.5346" gradientUnits="userSpaceOnUse">
<stop stop-color="#E7C16D"/>
<stop offset="0.2398" stop-color="#B8822C"/>
<stop offset="0.5153" stop-color="#7E5923"/>
<stop offset="0.8571" stop-color="#E7C16D"/>
</linearGradient>
<linearGradient id="paint62_linear_2024_2744" x1="-86.2946" y1="156.422" x2="150.215" y2="-56.6251" gradientUnits="userSpaceOnUse">
<stop stop-color="#E7C16D"/>
<stop offset="0.2398" stop-color="#B8822C"/>
<stop offset="0.5153" stop-color="#7E5923"/>
<stop offset="0.8571" stop-color="#E7C16D"/>
</linearGradient>
<linearGradient id="paint63_linear_2024_2744" x1="-57.4651" y1="188.421" x2="179.055" y2="-24.6655" gradientUnits="userSpaceOnUse">
<stop stop-color="#E7C16D"/>
<stop offset="0.2398" stop-color="#B8822C"/>
<stop offset="0.5153" stop-color="#7E5923"/>
<stop offset="0.8571" stop-color="#E7C16D"/>
</linearGradient>
<linearGradient id="paint64_linear_2024_2744" x1="-74.2237" y1="169.817" x2="162.285" y2="-43.2314" gradientUnits="userSpaceOnUse">
<stop stop-color="#E7C16D"/>
<stop offset="0.2398" stop-color="#B8822C"/>
<stop offset="0.5153" stop-color="#7E5923"/>
<stop offset="0.8571" stop-color="#E7C16D"/>
</linearGradient>
<linearGradient id="paint65_linear_2024_2744" x1="-87.1568" y1="155.6" x2="149.495" y2="-57.5649" gradientUnits="userSpaceOnUse">
<stop stop-color="#E7C16D"/>
<stop offset="0.2398" stop-color="#B8822C"/>
<stop offset="0.5153" stop-color="#7E5923"/>
<stop offset="0.8571" stop-color="#E7C16D"/>
</linearGradient>
<linearGradient id="paint66_linear_2024_2744" x1="-64.3541" y1="180.823" x2="172.205" y2="-32.298" gradientUnits="userSpaceOnUse">
<stop stop-color="#E7C16D"/>
<stop offset="0.2398" stop-color="#B8822C"/>
<stop offset="0.5153" stop-color="#7E5923"/>
<stop offset="0.8571" stop-color="#E7C16D"/>
</linearGradient>
<linearGradient id="paint67_linear_2024_2744" x1="-88.2746" y1="154.317" x2="148.329" y2="-58.8265" gradientUnits="userSpaceOnUse">
<stop stop-color="#E7C16D"/>
<stop offset="0.2398" stop-color="#B8822C"/>
<stop offset="0.5153" stop-color="#7E5923"/>
<stop offset="0.8571" stop-color="#E7C16D"/>
</linearGradient>
<linearGradient id="paint68_linear_2024_2744" x1="-77.7167" y1="165.932" x2="158.793" y2="-47.1112" gradientUnits="userSpaceOnUse">
<stop stop-color="#E7C16D"/>
<stop offset="0.2398" stop-color="#B8822C"/>
<stop offset="0.5153" stop-color="#7E5923"/>
<stop offset="0.8571" stop-color="#E7C16D"/>
</linearGradient>
<linearGradient id="paint69_linear_2024_2744" x1="-74.2547" y1="169.759" x2="162.256" y2="-43.2772" gradientUnits="userSpaceOnUse">
<stop stop-color="#E7C16D"/>
<stop offset="0.2398" stop-color="#B8822C"/>
<stop offset="0.5153" stop-color="#7E5923"/>
<stop offset="0.8571" stop-color="#E7C16D"/>
</linearGradient>
<linearGradient id="paint70_linear_2024_2744" x1="-66.4044" y1="178.529" x2="170.135" y2="-34.5769" gradientUnits="userSpaceOnUse">
<stop stop-color="#E7C16D"/>
<stop offset="0.2398" stop-color="#B8822C"/>
<stop offset="0.5153" stop-color="#7E5923"/>
<stop offset="0.8571" stop-color="#E7C16D"/>
</linearGradient>
<linearGradient id="paint71_linear_2024_2744" x1="-85.7921" y1="157.108" x2="150.86" y2="-56.057" gradientUnits="userSpaceOnUse">
<stop stop-color="#E7C16D"/>
<stop offset="0.2398" stop-color="#B8822C"/>
<stop offset="0.5153" stop-color="#7E5923"/>
<stop offset="0.8571" stop-color="#E7C16D"/>
</linearGradient>
<linearGradient id="paint72_linear_2024_2744" x1="-55.4932" y1="190.738" x2="181.16" y2="-22.4273" gradientUnits="userSpaceOnUse">
<stop stop-color="#E7C16D"/>
<stop offset="0.2398" stop-color="#B8822C"/>
<stop offset="0.5153" stop-color="#7E5923"/>
<stop offset="0.8571" stop-color="#E7C16D"/>
</linearGradient>
<linearGradient id="paint73_linear_2024_2744" x1="-91.2215" y1="150.947" x2="145.288" y2="-62.0888" gradientUnits="userSpaceOnUse">
<stop stop-color="#E7C16D"/>
<stop offset="0.2398" stop-color="#B8822C"/>
<stop offset="0.5153" stop-color="#7E5923"/>
<stop offset="0.8571" stop-color="#E7C16D"/>
</linearGradient>
<linearGradient id="paint74_linear_2024_2744" x1="-81.1421" y1="162.137" x2="155.367" y2="-50.9154" gradientUnits="userSpaceOnUse">
<stop stop-color="#E7C16D"/>
<stop offset="0.2398" stop-color="#B8822C"/>
<stop offset="0.5153" stop-color="#7E5923"/>
<stop offset="0.8571" stop-color="#E7C16D"/>
</linearGradient>
<linearGradient id="paint75_linear_2024_2744" x1="-72.0393" y1="172.226" x2="164.471" y2="-40.8092" gradientUnits="userSpaceOnUse">
<stop stop-color="#E7C16D"/>
<stop offset="0.2398" stop-color="#B8822C"/>
<stop offset="0.5153" stop-color="#7E5923"/>
<stop offset="0.8571" stop-color="#E7C16D"/>
</linearGradient>
<linearGradient id="paint76_linear_2024_2744" x1="-69.7864" y1="174.77" x2="166.74" y2="-38.3248" gradientUnits="userSpaceOnUse">
<stop stop-color="#E7C16D"/>
<stop offset="0.2398" stop-color="#B8822C"/>
<stop offset="0.5153" stop-color="#7E5923"/>
<stop offset="0.8571" stop-color="#E7C16D"/>
</linearGradient>
<linearGradient id="paint77_linear_2024_2744" x1="-83.2943" y1="159.73" x2="153.216" y2="-53.2999" gradientUnits="userSpaceOnUse">
<stop stop-color="#E7C16D"/>
<stop offset="0.2398" stop-color="#B8822C"/>
<stop offset="0.5153" stop-color="#7E5923"/>
<stop offset="0.8571" stop-color="#E7C16D"/>
</linearGradient>
<linearGradient id="paint78_linear_2024_2744" x1="-67.9335" y1="176.828" x2="168.599" y2="-36.2726" gradientUnits="userSpaceOnUse">
<stop stop-color="#E7C16D"/>
<stop offset="0.2398" stop-color="#B8822C"/>
<stop offset="0.5153" stop-color="#7E5923"/>
<stop offset="0.8571" stop-color="#E7C16D"/>
</linearGradient>
<linearGradient id="paint79_linear_2024_2744" x1="-74.7271" y1="169.235" x2="161.783" y2="-43.7916" gradientUnits="userSpaceOnUse">
<stop stop-color="#E7C16D"/>
<stop offset="0.2398" stop-color="#B8822C"/>
<stop offset="0.5153" stop-color="#7E5923"/>
<stop offset="0.8571" stop-color="#E7C16D"/>
</linearGradient>
<linearGradient id="paint80_linear_2024_2744" x1="-77.7374" y1="165.893" x2="158.773" y2="-47.1292" gradientUnits="userSpaceOnUse">
<stop stop-color="#E7C16D"/>
<stop offset="0.2398" stop-color="#B8822C"/>
<stop offset="0.5153" stop-color="#7E5923"/>
<stop offset="0.8571" stop-color="#E7C16D"/>
</linearGradient>
<linearGradient id="paint81_linear_2024_2744" x1="-60.7857" y1="184.764" x2="175.749" y2="-28.3383" gradientUnits="userSpaceOnUse">
<stop stop-color="#E7C16D"/>
<stop offset="0.2398" stop-color="#B8822C"/>
<stop offset="0.5153" stop-color="#7E5923"/>
<stop offset="0.8571" stop-color="#E7C16D"/>
</linearGradient>
<linearGradient id="paint82_linear_2024_2744" x1="-83.5713" y1="159.534" x2="153.023" y2="-53.6053" gradientUnits="userSpaceOnUse">
<stop stop-color="#E7C16D"/>
<stop offset="0.2398" stop-color="#B8822C"/>
<stop offset="0.5153" stop-color="#7E5923"/>
<stop offset="0.8571" stop-color="#E7C16D"/>
</linearGradient>
<linearGradient id="paint83_linear_2024_2744" x1="-95.802" y1="145.867" x2="140.708" y2="-67.18" gradientUnits="userSpaceOnUse">
<stop stop-color="#E7C16D"/>
<stop offset="0.2398" stop-color="#B8822C"/>
<stop offset="0.5153" stop-color="#7E5923"/>
<stop offset="0.8571" stop-color="#E7C16D"/>
</linearGradient>
<linearGradient id="paint84_linear_2024_2744" x1="-72.6254" y1="171.575" x2="163.887" y2="-41.4438" gradientUnits="userSpaceOnUse">
<stop stop-color="#E7C16D"/>
<stop offset="0.2398" stop-color="#B8822C"/>
<stop offset="0.5153" stop-color="#7E5923"/>
<stop offset="0.8571" stop-color="#E7C16D"/>
</linearGradient>
<linearGradient id="paint85_linear_2024_2744" x1="-43.7088" y1="203.831" x2="192.964" y2="-9.34107" gradientUnits="userSpaceOnUse">
<stop stop-color="#E7C16D"/>
<stop offset="0.2398" stop-color="#B8822C"/>
<stop offset="0.5153" stop-color="#7E5923"/>
<stop offset="0.8571" stop-color="#E7C16D"/>
</linearGradient>
<linearGradient id="paint86_linear_2024_2744" x1="-74.2543" y1="169.781" x2="162.258" y2="-43.2868" gradientUnits="userSpaceOnUse">
<stop stop-color="#E7C16D"/>
<stop offset="0.2398" stop-color="#B8822C"/>
<stop offset="0.5153" stop-color="#7E5923"/>
<stop offset="0.8571" stop-color="#E7C16D"/>
</linearGradient>
<linearGradient id="paint87_linear_2024_2744" x1="-78.1172" y1="165.63" x2="158.538" y2="-47.5372" gradientUnits="userSpaceOnUse">
<stop stop-color="#E7C16D"/>
<stop offset="0.2398" stop-color="#B8822C"/>
<stop offset="0.5153" stop-color="#7E5923"/>
<stop offset="0.8571" stop-color="#E7C16D"/>
</linearGradient>
<linearGradient id="paint88_linear_2024_2744" x1="-61.0352" y1="184.477" x2="175.497" y2="-28.6244" gradientUnits="userSpaceOnUse">
<stop stop-color="#E7C16D"/>
<stop offset="0.2398" stop-color="#B8822C"/>
<stop offset="0.5153" stop-color="#7E5923"/>
<stop offset="0.8571" stop-color="#E7C16D"/>
</linearGradient>
<linearGradient id="paint89_linear_2024_2744" x1="-92.2722" y1="149.774" x2="144.235" y2="-63.2627" gradientUnits="userSpaceOnUse">
<stop stop-color="#E7C16D"/>
<stop offset="0.2398" stop-color="#B8822C"/>
<stop offset="0.5153" stop-color="#7E5923"/>
<stop offset="0.8571" stop-color="#E7C16D"/>
</linearGradient>
<linearGradient id="paint90_linear_2024_2744" x1="-87.1773" y1="155.439" x2="149.333" y2="-57.6106" gradientUnits="userSpaceOnUse">
<stop stop-color="#E7C16D"/>
<stop offset="0.2398" stop-color="#B8822C"/>
<stop offset="0.5153" stop-color="#7E5923"/>
<stop offset="0.8571" stop-color="#E7C16D"/>
</linearGradient>
<linearGradient id="paint91_linear_2024_2744" x1="-80.5782" y1="162.734" x2="155.934" y2="-50.2837" gradientUnits="userSpaceOnUse">
<stop stop-color="#E7C16D"/>
<stop offset="0.2398" stop-color="#B8822C"/>
<stop offset="0.5153" stop-color="#7E5923"/>
<stop offset="0.8571" stop-color="#E7C16D"/>
</linearGradient>
<linearGradient id="paint92_linear_2024_2744" x1="-77.7045" y1="165.921" x2="158.804" y2="-47.0991" gradientUnits="userSpaceOnUse">
<stop stop-color="#E7C16D"/>
<stop offset="0.2398" stop-color="#B8822C"/>
<stop offset="0.5153" stop-color="#7E5923"/>
<stop offset="0.8571" stop-color="#E7C16D"/>
</linearGradient>
<linearGradient id="paint93_linear_2024_2744" x1="-22.8881" y1="226.818" x2="213.682" y2="13.6905" gradientUnits="userSpaceOnUse">
<stop stop-color="#E7C16D"/>
<stop offset="0.2398" stop-color="#B8822C"/>
<stop offset="0.5153" stop-color="#7E5923"/>
<stop offset="0.8571" stop-color="#E7C16D"/>
</linearGradient>
<linearGradient id="paint94_linear_2024_2744" x1="-38.0864" y1="209.926" x2="198.423" y2="-3.11262" gradientUnits="userSpaceOnUse">
<stop stop-color="#E7C16D"/>
<stop offset="0.2398" stop-color="#B8822C"/>
<stop offset="0.5153" stop-color="#7E5923"/>
<stop offset="0.8571" stop-color="#E7C16D"/>
</linearGradient>
<linearGradient id="paint95_linear_2024_2744" x1="-176.176" y1="555.067" x2="410.302" y2="478.611" gradientUnits="userSpaceOnUse">
<stop stop-color="#E7C16D"/>
<stop offset="0.2398" stop-color="#B8822C"/>
<stop offset="0.5153" stop-color="#7E5923"/>
<stop offset="0.8571" stop-color="#E7C16D"/>
</linearGradient>
</defs>
</svg>
