<svg width="24" height="24" viewBox="0 0 24 24" fill="none" xmlns="http://www.w3.org/2000/svg">
<g clip-path="url(#clip0_428_63)">
<path d="M15.748 10.9992C16.4381 11.0002 16.9999 10.439 16.9999 9.74999C16.9999 9.06135 16.4386 8.49999 15.7499 8.49999C11.1463 8.49999 7.66878 9.82772 5.09437 11.5242C5.11493 11.3815 5.1397 11.2384 5.16908 11.0947C5.76066 8.20459 8.07512 5.86003 10.9516 5.19097C12.2029 4.90115 13.4067 4.92602 14.5165 5.19007L14.5165 5.19007C17.3259 5.85831 20.4802 4.82362 22.0636 2.08316L22.0638 2.08268C22.0986 2.02235 22.1548 1.99596 22.212 1.99763C22.2663 1.99922 22.3069 2.02421 22.3304 2.07648L22.3307 2.07716C23.0768 3.73389 23.4999 5.77915 23.4999 7.75312C23.4999 13.5748 20.3174 18.3881 15.6258 19.9393L15.612 19.9439L15.5986 19.9492C14.7144 20.2994 13.7553 20.4981 12.7504 20.4981C9.89534 20.4981 7.23836 18.8909 5.89443 16.337L5.59135 15.761L5.11295 16.2023C2.50818 18.605 1.77489 21.3479 1.73314 21.5209C1.665 21.8061 1.40908 22 1.12586 22C1.07932 22 1.02972 21.9945 0.978496 21.9827C0.643858 21.9013 0.437401 21.5636 0.517285 21.229C0.722292 20.3863 1.73911 17.8177 4.10722 15.4659C6.45999 13.1294 10.1529 10.9993 15.748 10.9992ZM15.748 10.9992C15.7478 10.9992 15.7477 10.9992 15.7475 10.9992L15.7484 10.4992V10.9992C15.7483 10.9992 15.7481 10.9992 15.748 10.9992Z" stroke="#FFA53B"/>
</g>
<defs>
<clipPath id="clip0_428_63">
<rect width="24" height="24" fill="white"/>
</clipPath>
</defs>
</svg>
