<svg width="0" height="0" fill="none" style="visibility: hidden; position: absolute;" aria-hidden="true">
    <symbol id="about" viewBox="0 0 32 32" xmlns="http://www.w3.org/2000/svg">
        <g clip-path="url(#clip0_950_1778__about)">
            <path fill-rule="evenodd" clip-rule="evenodd" d="M28.8 4.26676H25.6V9.15527e-05H23.4667V4.26676H8.53333V9.15527e-05H6.4V4.26676H3.2C2.35131 4.26676 1.53737 4.6039 0.937258 5.20402C0.337142 5.80413 0 6.61807 0 7.46676L0 28.8001C0 29.6488 0.337142 30.4627 0.937258 31.0628C1.53737 31.663 2.35131 32.0001 3.2 32.0001H28.8C29.6487 32.0001 30.4626 31.663 31.0627 31.0628C31.6629 30.4627 32 29.6488 32 28.8001V7.46676C32 6.61807 31.6629 5.80413 31.0627 5.20402C30.4626 4.6039 29.6487 4.26676 28.8 4.26676ZM14.9845 23.9617L23.2021 14.5686L21.5979 13.1649L14.8821 20.8406L11.4219 17.3782L9.91147 18.8886L14.9845 23.9617Z"/>
        </g>
        <defs>
            <clipPath id="clip0_950_1778__about">
                <rect />
            </clipPath>
        </defs>
    </symbol>
    <symbol id="arrow-1" viewBox="0 0 16 46" xmlns="http://www.w3.org/2000/svg">
        <path d="M7.2929 45.7071C7.68342 46.0976 8.31658 46.0976 8.70711 45.7071L15.0711 39.3431C15.4616 38.9526 15.4616 38.3195 15.0711 37.9289C14.6805 37.5384 14.0474 37.5384 13.6569 37.9289L8 43.5858L2.34315 37.9289C1.95262 37.5384 1.31946 37.5384 0.928934 37.9289C0.53841 38.3195 0.53841 38.9526 0.928934 39.3431L7.2929 45.7071ZM7 4.37114e-08L7 45L9 45L9 -4.37114e-08L7 4.37114e-08Z"/>
    </symbol>
    <symbol id="arrow-2" viewBox="0 0 26 8" xmlns="http://www.w3.org/2000/svg">
        <path d="M25.3536 4.35355C25.5488 4.15829 25.5488 3.84171 25.3536 3.64644L22.1716 0.464464C21.9763 0.269202 21.6597 0.269202 21.4645 0.464464C21.2692 0.659726 21.2692 0.976309 21.4645 1.17157L24.2929 4L21.4645 6.82843C21.2692 7.02369 21.2692 7.34027 21.4645 7.53553C21.6597 7.73079 21.9763 7.73079 22.1716 7.53553L25.3536 4.35355ZM4.37114e-08 4.5L25 4.5L25 3.5L-4.37114e-08 3.5L4.37114e-08 4.5Z"/>
    </symbol>
    <symbol id="price-icon" viewBox="0 0 41 41" xmlns="http://www.w3.org/2000/svg">
        <g id="mdi:microphone-variant__price-icon">
            <path id="Vector__price-icon" d="M15.3743 5.125C17.1867 5.125 18.9247 5.84494 20.2062 7.12644C21.4877 8.40794 22.2077 10.146 22.2077 11.9583H8.54102C8.54102 10.146 9.26095 8.40794 10.5425 7.12644C11.824 5.84494 13.562 5.125 15.3743 5.125ZM20.226 16.7758L18.791 30.75H17.0827V32.4583C17.0827 33.3645 17.4427 34.2335 18.0834 34.8743C18.7242 35.515 19.5932 35.875 20.4993 35.875C21.4055 35.875 22.2745 35.515 22.9153 34.8743C23.556 34.2335 23.916 33.3645 23.916 32.4583V23.9167C23.916 22.1044 24.636 20.3663 25.9175 19.0848C27.199 17.8033 28.937 17.0833 30.7493 17.0833H34.166L32.4577 18.7917L34.166 20.5H30.7493C29.8432 20.5 28.9742 20.86 28.3334 21.5007C27.6927 22.1415 27.3327 23.0105 27.3327 23.9167V32.4583C27.3327 34.2707 26.6127 36.0087 25.3312 37.2902C24.0497 38.5717 22.3117 39.2917 20.4993 39.2917C18.687 39.2917 16.949 38.5717 15.6675 37.2902C14.386 36.0087 13.666 34.2707 13.666 32.4583V30.75H11.9577L10.5227 16.7758C9.6856 15.9217 9.0706 14.8625 8.7631 13.6667H21.9856C21.6781 14.8625 21.0631 15.9217 20.226 16.7758ZM15.3743 18.7917C14.9213 18.7917 14.4867 18.9717 14.1664 19.292C13.846 19.6124 13.666 20.0469 13.666 20.5C13.666 20.9531 13.846 21.3876 14.1664 21.708C14.4867 22.0284 14.9213 22.2083 15.3743 22.2083C15.8274 22.2083 16.2619 22.0284 16.5823 21.708C16.9027 21.3876 17.0827 20.9531 17.0827 20.5C17.0827 20.0469 16.9027 19.6124 16.5823 19.292C16.2619 18.9717 15.8274 18.7917 15.3743 18.7917Z"/>
        </g>
    </symbol>
</svg>