<svg id="about" viewBox="0 0 32 32" xmlns="http://www.w3.org/2000/svg">
    <g clip-path="url(#clip0_950_1778)">
        <path fill-rule="evenodd" clip-rule="evenodd"
            d="M28.8 4.26676H25.6V9.15527e-05H23.4667V4.26676H8.53333V9.15527e-05H6.4V4.26676H3.2C2.35131 4.26676 1.53737 4.6039 0.937258 5.20402C0.337142 5.80413 0 6.61807 0 7.46676L0 28.8001C0 29.6488 0.337142 30.4627 0.937258 31.0628C1.53737 31.663 2.35131 32.0001 3.2 32.0001H28.8C29.6487 32.0001 30.4626 31.663 31.0627 31.0628C31.6629 30.4627 32 29.6488 32 28.8001V7.46676C32 6.61807 31.6629 5.80413 31.0627 5.20402C30.4626 4.6039 29.6487 4.26676 28.8 4.26676ZM14.9845 23.9617L23.2021 14.5686L21.5979 13.1649L14.8821 20.8406L11.4219 17.3782L9.91147 18.8886L14.9845 23.9617Z" />
    </g>
    <defs>
        <clipPath id="clip0_950_1778">
            <rect />
        </clipPath>
    </defs>
</svg>